<?xml version="1.0" encoding="utf-8"?>
<!-- Generator: Adobe Illustrator 18.1.1, SVG Export Plug-In . SVG Version: 6.00 Build 0)  -->
<svg version="1.1" xmlns="http://www.w3.org/2000/svg" xmlns:xlink="http://www.w3.org/1999/xlink" x="0px" y="0px"
	 viewBox="0 0 36 36" enable-background="new 0 0 36 36" xml:space="preserve">
<g id="Layer_1">
	<g>
		<path fill="#D8305A" d="M18,0.5C8.352,0.5,0.5,8.352,0.5,18c0,9.65,7.852,17.5,17.5,17.5c9.649,0,17.5-7.85,17.5-17.5
			C35.5,8.352,27.649,0.5,18,0.5z M17.999,34c-8.836,0-16-7.164-16-16c0-8.836,7.164-16,16-16C26.836,2,34,9.164,34,18
			C34,26.836,26.836,34,17.999,34z"/>
		<path fill="#94344E" d="M18,0C8.061,0,0,8.061,0,18c0,9.941,8.061,18,18,18c9.94,0,18-8.059,18-18C36,8.061,27.94,0,18,0 M18,1
			c9.374,0,17,7.625,17,17s-7.626,17-17,17S1,27.375,1,18S8.626,1,18,1"/>
		<g>
			<defs>
				<path id="SVGID_99_" d="M34,18c0,8.836-7.164,16-16.001,16c-8.836,0-16-7.164-16-16c0-8.836,7.164-16,16-16
					C26.836,2,34,9.164,34,18"/>
			</defs>
			<use xlink:href="#SVGID_99_"  overflow="visible" fill="#F9FBFB"/>
			<clipPath id="SVGID_2_">
				<use xlink:href="#SVGID_99_"  overflow="visible"/>
			</clipPath>
		</g>
	</g>
	<path fill="#D8305A" d="M17.501,13.912l-3.525-3.398c-0.043-0.04-1.287-1.176-1.287-2.531c0-1.654,1.012-2.643,2.701-2.643
		c0.988,0,1.914,0.78,2.359,1.219C18.196,6.12,19.123,5.34,20.11,5.34c1.689,0,2.699,0.988,2.699,2.643
		c0,1.355-1.242,2.491-1.293,2.541l-3.519,3.389c-0.066,0.067-0.158,0.102-0.248,0.102C17.659,14.015,17.568,13.979,17.501,13.912"
		/>
	<path fill="#C72156" d="M20.11,5.34c-0.987,0-1.914,0.78-2.361,1.219v7.456c0.09,0,0.182-0.035,0.248-0.102l3.519-3.389
		c0.051-0.05,1.293-1.186,1.293-2.541C22.81,6.328,21.799,5.34,20.11,5.34z"/>
	<g>
		<defs>
			<path id="SVGID_101_" d="M34,18c0,8.836-7.164,16-16.001,16c-8.836,0-16-7.164-16-16c0-8.836,7.164-16,16-16
				C26.836,2,34,9.164,34,18"/>
		</defs>
		<clipPath id="SVGID_4_">
			<use xlink:href="#SVGID_101_"  overflow="visible"/>
		</clipPath>
		<path clip-path="url(#SVGID_4_)" fill="#F8D08F" d="M24.166,18.709h-0.002c0-0.002,0.001-0.004,0.001-0.005
			c0.048-0.517-0.332-0.973-0.847-1.021c-0.516-0.048-0.972,0.332-1.019,0.848c-0.001,0.004,0,0.008,0,0.012l-0.542,5.874
			c-0.139,0.146-0.379,0.179-0.469-0.024l0.051-8.395c0.003-0.644-0.516-1.169-1.16-1.173c-0.644-0.005-1.17,0.515-1.174,1.159
			l-0.043,7.063c0,0.002,0,0.004,0,0.006c0.003,0.425-0.74,0.647-0.807,0.109l0.045-7.183c0.003-0.644-0.516-1.17-1.16-1.174
			c-0.645-0.004-1.17,0.516-1.174,1.159l-0.045,7.467l0,0c-0.063,0.271-0.197,0.41-0.346,0.48c-0.201,0.055-0.42-0.016-0.455-0.297
			c0-0.009-0.004-0.014-0.006-0.021l0.039-6.469c0.004-0.644-0.516-1.169-1.16-1.173c-0.644-0.004-1.169,0.515-1.173,1.159
			l-0.052,8.625c-0.481-0.945-0.828-1.948-0.828-1.948h-0.002c-0.131-0.703-0.744-1.237-1.486-1.241
			c-0.842-0.005-1.527,0.673-1.533,1.514c0,0.06,0.011,0.117,0.017,0.175l-0.008,0.001c0.004,0.02,0.01,0.043,0.014,0.063
			c0.008,0.052,0.018,0.102,0.031,0.15c0.633,2.838,3.874,8.189,3.874,8.189l-0.001-0.014c1.025,1.709,2.885,2.86,5.023,2.874
			c3.156,0.019,5.208-2.159,5.352-5.258l0.012,0.005l0.338-4.122l0.01,0.001L24.166,18.709z M21.653,25.532
			c-0.006-0.007-0.012-0.015-0.017-0.021c0.006-0.001,0.014-0.002,0.021-0.003L21.653,25.532z"/>
	</g>
</g>
<g id="Layer_2">
</g>
<g id="Layer_3">
</g>
</svg>
