<?xml version="1.0" encoding="utf-8"?>
<!-- Generator: Adobe Illustrator 15.0.0, SVG Export Plug-In . SVG Version: 6.00 Build 0)  -->
<!DOCTYPE svg PUBLIC "-//W3C//DTD SVG 1.1//EN" "http://www.w3.org/Graphics/SVG/1.1/DTD/svg11.dtd">
<svg version="1.1" id="Graphics" xmlns="http://www.w3.org/2000/svg" xmlns:xlink="http://www.w3.org/1999/xlink" x="0px" y="0px"
	 width="500px" height="500px" viewBox="0 0 500 500" enable-background="new 0 0 500 500" xml:space="preserve">
<g>
	<g>
		<g>
			<path fill="#564677" d="M250,14c31.866,0,62.771,6.238,91.857,18.541c28.101,11.885,53.341,28.904,75.02,50.583
				c21.678,21.678,38.697,46.918,50.583,75.02C479.762,187.229,486,218.134,486,250c0,31.866-6.238,62.771-18.541,91.857
				c-11.886,28.101-28.904,53.341-50.583,75.02c-21.679,21.678-46.919,38.697-75.02,50.583C312.771,479.762,281.866,486,250,486
				s-62.771-6.238-91.857-18.541c-28.101-11.886-53.341-28.904-75.02-50.583c-21.678-21.679-38.697-46.919-50.583-75.02
				C20.238,312.771,14,281.866,14,250c0-31.866,6.238-62.771,18.541-91.857c11.886-28.101,28.904-53.341,50.583-75.02
				c21.678-21.679,46.919-38.697,75.02-50.583C187.229,20.238,218.134,14,250,14 M250,0C111.93,0,0,111.929,0,250
				c0,138.07,111.93,250,250,250s250-111.93,250-250C500,111.929,388.07,0,250,0L250,0z"/>
		</g>
		<g>
			<path fill="#EEF3F3" d="M250,479c-61.165,0-118.67-23.821-161.924-67.075C44.821,368.67,21,311.165,21,250
				c0-61.164,23.821-118.67,67.076-161.924S188.836,21,250,21c61.165,0,118.67,23.821,161.925,67.076
				C455.179,131.33,479,188.835,479,250s-23.821,118.67-67.075,161.925C368.67,455.179,311.165,479,250,479z"/>
			<path fill="#AB8EB8" d="M250,28c29.974,0,59.045,5.868,86.405,17.441c26.434,11.182,50.177,27.191,70.57,47.584
				c20.393,20.393,36.403,44.137,47.584,70.57C466.132,190.956,472,220.026,472,250c0,29.974-5.868,59.045-17.441,86.405
				c-11.181,26.434-27.191,50.177-47.584,70.57c-20.394,20.393-44.137,36.403-70.57,47.584C309.045,466.132,279.974,472,250,472
				c-29.974,0-59.044-5.868-86.404-17.441c-26.434-11.181-50.177-27.191-70.57-47.584c-20.394-20.394-36.403-44.137-47.584-70.57
				C33.868,309.045,28,279.974,28,250c0-29.974,5.868-59.044,17.441-86.404c11.182-26.434,27.191-50.177,47.584-70.57
				c20.393-20.394,44.137-36.403,70.57-47.584C190.956,33.868,220.026,28,250,28 M250,14C119.669,14,14,119.669,14,250
				c0,130.332,105.669,236,236,236c130.332,0,236-105.668,236-236C486,119.669,380.332,14,250,14L250,14z"/>
		</g>
	</g>
	<g>
		<g>
			<path fill="#E45C5E" d="M240.554,363.992L134.571,261.749c-1.363-1.189-38.729-35.337-38.729-76.095
				c0-49.772,30.408-79.5,81.195-79.5c29.715,0,57.572,23.438,70.993,36.688c13.421-13.249,41.279-36.688,70.993-36.688
				c50.787,0,81.194,29.728,81.194,79.5c0,40.758-37.364,74.905-38.9,76.43L255.51,363.992c-2.043,2.029-4.755,3.06-7.479,3.06
				S242.596,366.021,240.554,363.992z"/>
		</g>
		<path fill="#BBCED0" d="M260.806,425.188c54.904,0,99.415-5.245,99.415-11.717c0-6.469-44.511-11.713-99.415-11.713
			c-54.91,0-99.423,5.244-99.423,11.713C161.383,419.943,205.896,425.188,260.806,425.188"/>
		<path fill="#E45C5E" d="M213.061,329.1c0.479,18.242,0.386,36.603,1.825,42.188c1.824,7.082,11.288,30.616,9.61,32.382
			c-3.554,3.743-19.971,4.175-19.876,7.822c0.097,3.65,25.589,1.156,29.236,1.061s-4.084-32.361-4.372-43.307
			c-0.285-10.945,4.035-30.789,12.773-45.621C245.039,318.906,213.061,329.1,213.061,329.1"/>
		<path fill="#E45C5E" d="M288.732,329.1c-0.48,18.242-0.387,36.603-1.825,42.188c-1.825,7.082-11.286,30.616-9.61,32.382
			c3.554,3.743,19.973,4.175,19.877,7.822c-0.099,3.65-25.588,1.156-29.235,1.061c-3.648-0.096,4.085-32.361,4.371-43.307
			c0.285-10.945-4.034-30.789-12.775-45.621C256.756,318.906,288.732,329.1,288.732,329.1"/>
		<g>
			<g id="Eye_6_">
				<g>
					<path fill="#1E4A54" d="M313.655,222.225c-1.795-13.451-14.136-22.836-27.55-21.017c-13.416,1.792-22.813,14.088-21.021,27.527
						c1.793,13.399,14.125,22.824,27.547,21.016C306.034,247.979,315.472,235.611,313.655,222.225z"/>
				</g>
				<g>
					<path fill="none" stroke="#F7F9F9" stroke-width="5" stroke-miterlimit="10" d="M313.655,222.225
						c-1.795-13.451-14.136-22.836-27.55-21.017c-13.416,1.792-22.813,14.088-21.021,27.527
						c1.793,13.399,14.125,22.824,27.547,21.016C306.034,247.979,315.472,235.611,313.655,222.225z"/>
				</g>
			</g>
			<g id="Eye_5_">
				<g>
					<path fill="#FFFFFF" d="M304.522,216.593c-0.521-3.956-4.152-6.723-8.108-6.188c-3.948,0.526-6.712,4.151-6.187,8.107
						c0.528,3.95,4.16,6.726,8.114,6.192C302.283,224.173,305.064,220.541,304.522,216.593z"/>
				</g>
			</g>
			<g id="Eye_4_">
				<g>
					<path fill="#FFFFFF" d="M286.462,219.608c-0.256-1.95-2.045-3.309-3.982-3.045c-1.947,0.259-3.306,2.037-3.047,3.986
						c0.261,1.945,2.045,3.303,3.987,3.042C285.359,223.326,286.732,221.54,286.462,219.608z"/>
				</g>
			</g>
		</g>
		<g>
			<g id="Eye_3_">
				<g>
					<path fill="#1E4A54" d="M228.517,222.225c-1.794-13.451-14.136-22.836-27.55-21.017c-13.415,1.792-22.813,14.088-21.019,27.527
						c1.792,13.399,14.124,22.824,27.546,21.016C220.896,247.979,230.333,235.611,228.517,222.225z"/>
				</g>
				<g>
					<path fill="none" stroke="#F7F9F9" stroke-width="5" stroke-miterlimit="10" d="M228.517,222.225
						c-1.794-13.451-14.136-22.836-27.55-21.017c-13.415,1.792-22.813,14.088-21.019,27.527
						c1.792,13.399,14.124,22.824,27.546,21.016C220.896,247.979,230.333,235.611,228.517,222.225z"/>
				</g>
			</g>
			<g id="Eye_2_">
				<g>
					<path fill="#FFFFFF" d="M219.384,216.593c-0.521-3.956-4.151-6.723-8.107-6.188c-3.948,0.526-6.712,4.151-6.187,8.107
						c0.528,3.95,4.159,6.726,8.114,6.192C217.146,224.173,219.925,220.541,219.384,216.593z"/>
				</g>
			</g>
			<g id="Eye_1_">
				<g>
					<path fill="#FFFFFF" d="M201.324,219.608c-0.256-1.95-2.045-3.309-3.983-3.045c-1.946,0.259-3.306,2.037-3.046,3.986
						c0.261,1.945,2.044,3.303,3.987,3.042C200.221,223.326,201.595,221.54,201.324,219.608z"/>
				</g>
			</g>
		</g>
		<ellipse fill="#E45C5E" cx="205.026" cy="254.229" rx="35.652" ry="14.366"/>
		<ellipse fill="#E45C5E" cx="289.373" cy="254.229" rx="35.651" ry="14.366"/>
		<path fill="#AD4F49" d="M297.607,183.434c12.574,3.417,23.023,9.866,29.708,17.495c-2.679-9.738-13.538-19.095-28.19-23.077
			c-14.654-3.983-28.757-1.407-35.995,5.637C272.756,180.293,285.032,180.018,297.607,183.434z"/>
		<path fill="#AD4F49" d="M192.803,183.434c-12.575,3.417-23.022,9.866-29.709,17.495c2.681-9.738,13.539-19.095,28.192-23.077
			c14.654-3.983,28.756-1.407,35.995,5.637C217.655,180.293,205.379,180.018,192.803,183.434z"/>
		<path fill="#ED8C7A" d="M162.964,129.908c-4.54-6.67-18.329-5.199-30.803,3.288c-12.472,8.485-18.902,20.771-14.362,27.443
			c4.538,6.672,18.329,5.199,30.801-3.289C161.072,148.868,167.503,136.579,162.964,129.908z"/>
		
			<ellipse transform="matrix(0.9543 -0.2987 0.2987 0.9543 -24.1693 97.6093)" fill="#ED8C7A" cx="307.181" cy="127.859" rx="14.519" ry="7.981"/>
		<path fill="#ED8C7A" d="M334.902,123.64c0.635-2.396-0.908-4.884-3.444-5.557c-2.538-0.669-5.11,0.727-5.743,3.12
			c-0.635,2.396,0.908,4.881,3.444,5.553C331.698,127.429,334.27,126.033,334.902,123.64z"/>
		
			<ellipse transform="matrix(0.9666 0.2561 -0.2561 0.9666 37.1346 -39.8033)" fill="#ED8C7A" cx="171.383" cy="122.668" rx="4.753" ry="4.487"/>
	</g>
</g>
</svg>
