<?xml version="1.0" encoding="utf-8"?>
<!-- Generator: Adobe Illustrator 15.0.0, SVG Export Plug-In . SVG Version: 6.00 Build 0)  -->
<!DOCTYPE svg PUBLIC "-//W3C//DTD SVG 1.1//EN" "http://www.w3.org/Graphics/SVG/1.1/DTD/svg11.dtd">
<svg version="1.1" id="Graphics" xmlns="http://www.w3.org/2000/svg" xmlns:xlink="http://www.w3.org/1999/xlink" x="0px" y="0px"
	 width="500px" height="500px" viewBox="0 0 500 500" enable-background="new 0 0 500 500" xml:space="preserve">
<g>
	<g>
		<g>
			<path fill="#E87800" d="M250,14c31.866,0,62.771,6.238,91.857,18.541c28.101,11.886,53.341,28.904,75.02,50.583
				c21.678,21.679,38.697,46.919,50.583,75.02C479.762,187.229,486,218.134,486,250s-6.238,62.771-18.541,91.857
				c-11.886,28.101-28.904,53.341-50.583,75.02c-21.679,21.678-46.919,38.697-75.02,50.583C312.771,479.762,281.866,486,250,486
				s-62.771-6.238-91.857-18.541c-28.101-11.886-53.341-28.904-75.02-50.583c-21.678-21.679-38.697-46.919-50.583-75.02
				C20.238,312.771,14,281.866,14,250s6.238-62.771,18.541-91.857c11.886-28.101,28.904-53.341,50.583-75.02
				c21.679-21.678,46.919-38.697,75.02-50.583C187.229,20.238,218.134,14,250,14 M250,0C111.93,0,0,111.93,0,250s111.93,250,250,250
				s250-111.93,250-250S388.07,0,250,0L250,0z"/>
		</g>
		<g>
			<path fill="#EEF3F3" d="M250,479c-61.165,0-118.67-23.821-161.924-67.075C44.821,368.67,21,311.165,21,250
				c0-61.164,23.821-118.67,67.076-161.924S188.836,21,250,21c61.165,0,118.67,23.821,161.925,67.076
				C455.179,131.33,479,188.835,479,250s-23.821,118.67-67.075,161.925C368.67,455.179,311.165,479,250,479z"/>
			<path fill="#F4D100" d="M250,28c29.974,0,59.045,5.868,86.405,17.441c26.434,11.182,50.177,27.191,70.57,47.584
				c20.393,20.393,36.403,44.137,47.584,70.57C466.132,190.956,472,220.026,472,250c0,29.974-5.868,59.045-17.441,86.405
				c-11.181,26.434-27.191,50.177-47.584,70.57c-20.394,20.393-44.137,36.403-70.57,47.584C309.045,466.132,279.974,472,250,472
				c-29.974,0-59.044-5.868-86.404-17.441c-26.434-11.181-50.177-27.191-70.57-47.584c-20.394-20.394-36.403-44.137-47.584-70.57
				C33.868,309.045,28,279.974,28,250c0-29.974,5.868-59.044,17.441-86.404c11.182-26.434,27.191-50.177,47.584-70.57
				c20.393-20.394,44.137-36.403,70.57-47.584C190.956,33.868,220.026,28,250,28 M250,14C119.669,14,14,119.669,14,250
				c0,130.332,105.669,236,236,236c130.332,0,236-105.668,236-236C486,119.669,380.332,14,250,14L250,14z"/>
		</g>
	</g>
	<g>
		<path fill="#91D2E4" d="M407.117,93.775C366.916,53.547,311.36,28.671,250,28.671v222.223L407.117,93.775z"/>
	</g>
	<g>
		<path fill="#EEF3F3" d="M407.117,408.011c40.229-40.201,65.104-95.757,65.104-157.117H250L407.117,408.011z"/>
	</g>
	<g>
		<path fill="#EEF3F3" d="M472.222,250.894c0-55.556-21.701-113.743-65.077-157.118L250,250.894H472.222z"/>
	</g>
	<g>
		<g>
			<defs>
				<path id="SVGID_1_" d="M250,26.997c122.722,0,222.223,99.501,222.223,222.223S372.722,471.441,250,471.441
					c-122.728,0-222.223-99.5-222.223-222.222S127.272,26.997,250,26.997z"/>
			</defs>
			<clipPath id="SVGID_2_">
				<use xlink:href="#SVGID_1_"  overflow="visible"/>
			</clipPath>
			<g clip-path="url(#SVGID_2_)">
				<g>
					<g>
						<path fill="#00727B" d="M317.438,183.437c-4.991-55.026-51.324-98.279-107.619-98.279c-59.61,0-108.127,48.502-108.127,108.1
							v484.538c0,7.379,5.988,13.347,13.354,13.347c7.357,0,13.332-5.968,13.332-13.347V193.284
							c0-44.908,36.54-81.435,81.428-81.435c41.627,0,76.044,31.413,80.805,71.777c-42.305,6.728-74.775,43.376-74.775,87.524
							c0,7.365,5.975,13.333,13.333,13.333h150.824c0.055,0,0.122,0,0.177,0c7.365,0,13.333-5.995,13.333-13.333
							c0-0.8-0.082-1.601-0.19-2.359C392.145,225.294,359.511,189.608,317.438,183.437"/>
					</g>
					<g>
						<path fill="#1E4A54" d="M111.111,677.795V193.257c0-57.671,46.597-104.831,103.583-107.815
							c-2.014-0.108-5.655-0.284-7.684-0.284c-59.61,0-109.788,48.502-109.788,108.1v484.538c0,7.379,8.219,13.347,15.598,13.347
							c2.123,0,4.056-0.597,5.818-1.479C114.237,687.479,111.111,683.031,111.111,677.795z"/>
						<path fill="#1E4A54" d="M227.525,267.422c0-44.176,32.484-78.926,74.775-85.667c-4.761-40.364-39.171-70.841-80.797-70.841
							c-1.906,0-3.771,0.624-5.629,0.773c38.859,2.875,70.231,33.338,74.762,71.723c-42.305,6.74-74.775,39.741-74.775,83.903
							c0,7.351,5.975,9.711,13.333,9.711h11.664C233.501,276.998,227.525,274.76,227.525,267.422z"/>
					</g>
				</g>
				<g>
					<g>
						<g>
							<g>
								<path fill="#1AA9D2" d="M280.87,318.528c0-7.785-6.32-14.079-14.078-14.079c-7.759,0-14.072,6.294-14.072,14.079
									c0,7.759,6.313,14.052,14.072,14.052C274.55,332.58,280.87,326.273,280.87,318.528"/>
							</g>
							<g>
								<path fill="#1AA9D2" d="M324.354,318.528c0-7.785-6.294-14.079-14.065-14.079s-14.065,6.294-14.065,14.079
									c0,7.759,6.294,14.052,14.065,14.052S324.354,326.273,324.354,318.528"/>
							</g>
							<g>
								<path fill="#1AA9D2" d="M367.839,318.528c0-7.785-6.28-14.079-14.052-14.079c-7.758,0-14.065,6.294-14.065,14.079
									c0,7.759,6.294,14.052,14.065,14.052C361.572,332.58,367.839,326.273,367.839,318.528"/>
							</g>
							<g>
								<path fill="#FFFFFF" d="M367.839,229.105c0-7.771-6.28-14.065-14.052-14.065c-7.758,0-14.065,6.294-14.065,14.065
									s6.294,14.064,14.065,14.064C361.572,243.17,367.839,236.877,367.839,229.105"/>
							</g>
						</g>
						<g>
							<g>
								<path fill="#1AA9D2" d="M280.87,361.334c0-7.758-6.32-14.051-14.078-14.051c-7.759,0-14.072,6.293-14.072,14.051
									c0,7.759,6.313,14.065,14.072,14.065C274.55,375.399,280.87,369.093,280.87,361.334"/>
							</g>
							<g>
								<path fill="#1AA9D2" d="M324.354,361.334c0-7.758-6.294-14.051-14.065-14.051s-14.065,6.293-14.065,14.051
									c0,7.759,6.294,14.065,14.065,14.065S324.354,369.093,324.354,361.334"/>
							</g>
							<g>
								<path fill="#1AA9D2" d="M367.839,361.334c0-7.758-6.28-14.051-14.052-14.051c-7.758,0-14.065,6.293-14.065,14.051
									c0,7.759,6.294,14.065,14.065,14.065C361.572,375.399,367.839,369.093,367.839,361.334"/>
							</g>
						</g>
						<g>
							<g>
								<path fill="#1AA9D2" d="M280.87,404.167c0-7.784-6.32-14.078-14.078-14.078c-7.759,0-14.072,6.294-14.072,14.078
									c0,7.745,6.313,14.052,14.072,14.052C274.55,418.219,280.87,411.912,280.87,404.167"/>
							</g>
							<g>
								<path fill="#1AA9D2" d="M324.354,404.167c0-7.784-6.294-14.078-14.065-14.078s-14.065,6.294-14.065,14.078
									c0,7.745,6.294,14.052,14.065,14.052S324.354,411.912,324.354,404.167"/>
							</g>
							<g>
								<path fill="#1AA9D2" d="M367.839,404.167c0-7.784-6.28-14.078-14.052-14.078c-7.758,0-14.065,6.294-14.065,14.078
									c0,7.745,6.294,14.052,14.065,14.052C361.572,418.219,367.839,411.912,367.839,404.167"/>
							</g>
						</g>
					</g>
					<g>
						<g>
							<g>
								<path fill="#91D2E4" d="M267.85,313.754c0-3.229-2.604-5.832-5.819-5.832c-3.228,0-5.853,2.604-5.853,5.832
									c0,3.201,2.611,5.832,5.853,5.832C265.245,319.56,267.85,316.955,267.85,313.754"/>
							</g>
							<g>
								<path fill="#91D2E4" d="M311.361,313.754c0-3.229-2.604-5.832-5.833-5.832c-3.228,0-5.832,2.604-5.832,5.832
									c0,3.201,2.604,5.832,5.832,5.832C308.757,319.586,311.361,316.955,311.361,313.754"/>
							</g>
							<g>
								<path fill="#91D2E4" d="M354.845,313.754c0-3.229-2.604-5.832-5.832-5.832c-3.228,0-5.832,2.604-5.832,5.832
									c0,3.215,2.604,5.832,5.832,5.832C352.241,319.586,354.845,316.955,354.845,313.754"/>
							</g>
						</g>
						<g>
							<g>
								<path fill="#91D2E4" d="M267.85,356.56c0-3.228-2.604-5.831-5.819-5.831c-3.228,0-5.853,2.604-5.853,5.831
									c0,3.215,2.611,5.833,5.853,5.833C265.245,362.393,267.85,359.774,267.85,356.56"/>
							</g>
							<g>
								<path fill="#91D2E4" d="M311.361,356.56c0-3.228-2.604-5.831-5.833-5.831c-3.228,0-5.832,2.604-5.832,5.831
									c0,3.215,2.604,5.833,5.832,5.833C308.757,362.393,311.361,359.774,311.361,356.56"/>
							</g>
							<g>
								<path fill="#91D2E4" d="M354.845,356.56c0-3.228-2.604-5.831-5.832-5.831c-3.228,0-5.832,2.604-5.832,5.831
									c0,3.215,2.604,5.833,5.832,5.833C352.241,362.393,354.845,359.774,354.845,356.56"/>
							</g>
						</g>
						<g>
							<g>
								<path fill="#91D2E4" d="M267.863,399.366c0-3.214-2.618-5.832-5.833-5.832c-3.228,0-5.853,2.618-5.853,5.832
									c0,3.229,2.611,5.832,5.853,5.832C265.245,405.198,267.863,402.595,267.863,399.366"/>
							</g>
							<g>
								<path fill="#91D2E4" d="M311.361,399.366c0-3.214-2.604-5.832-5.833-5.832c-3.228,0-5.832,2.618-5.832,5.832
									c0,3.229,2.604,5.832,5.832,5.832C308.757,405.198,311.361,402.595,311.361,399.366"/>
							</g>
							<g>
								<path fill="#91D2E4" d="M354.845,399.366c0-3.214-2.604-5.832-5.832-5.832c-3.228,0-5.832,2.618-5.832,5.832
									c0,3.229,2.604,5.832,5.832,5.832C352.241,405.198,354.845,402.595,354.845,399.366"/>
							</g>
						</g>
					</g>
					<g>
						<path fill="#2E7498" d="M273.898,349.467c1.275,2.116,2.197,4.448,2.197,7.093c0,7.759-6.307,14.065-14.065,14.065
							c-2.658,0-4.991-0.936-7.113-2.211c2.462,4.097,6.747,6.985,11.875,6.985c7.758,0,14.078-6.307,14.078-14.065
							C280.87,356.221,277.995,351.949,273.898,349.467z"/>
						<path fill="#2E7498" d="M273.898,306.66c1.275,2.116,2.197,4.436,2.197,7.094c0,7.759-6.307,14.052-14.065,14.052
							c-2.658,0-4.991-0.936-7.113-2.211c2.462,4.097,6.747,6.985,11.875,6.985c7.758,0,14.078-6.307,14.078-14.052
							C280.87,313.401,277.995,309.115,273.898,306.66z"/>
						<path fill="#2E7498" d="M363.064,313.754c0,7.759-6.293,14.052-14.052,14.052c-2.658,0-4.991-0.936-7.094-2.197
							c2.455,4.097,6.741,6.972,11.868,6.972c7.785,0,14.052-6.307,14.052-14.052c0-5.127-2.875-9.413-6.944-11.868
							C362.155,308.763,363.064,311.096,363.064,313.754z"/>
						<path fill="#2E7498" d="M317.41,392.286c1.248,2.116,2.197,4.449,2.197,7.08c0,7.771-6.293,14.078-14.079,14.078
							c-2.658,0-4.991-0.936-7.107-2.211c2.455,4.097,6.755,6.985,11.868,6.985c7.771,0,14.065-6.307,14.065-14.052
							C324.354,399.041,321.506,394.755,317.41,392.286z"/>
						<path fill="#2E7498" d="M273.898,392.286c1.275,2.116,2.197,4.449,2.197,7.08c0,7.771-6.307,14.078-14.065,14.078
							c-2.658,0-4.991-0.936-7.113-2.211c2.462,4.097,6.747,6.985,11.875,6.985c7.758,0,14.078-6.307,14.078-14.052
							C280.87,399.041,277.995,394.755,273.898,392.286z"/>
						<path fill="#2E7498" d="M360.895,349.467c1.261,2.116,2.17,4.448,2.17,7.093c0,7.759-6.293,14.065-14.052,14.065
							c-2.658,0-4.991-0.936-7.094-2.197c2.455,4.097,6.741,6.972,11.868,6.972c7.785,0,14.052-6.307,14.052-14.065
							C367.839,356.221,364.964,351.922,360.895,349.467z"/>
						<path fill="#2E7498" d="M360.895,392.286c1.261,2.116,2.17,4.449,2.17,7.08c0,7.771-6.293,14.078-14.052,14.078
							c-2.658,0-4.991-0.936-7.094-2.211c2.455,4.097,6.741,6.985,11.868,6.985c7.785,0,14.052-6.307,14.052-14.052
							C367.839,399.027,364.964,394.755,360.895,392.286z"/>
						<path fill="#2E7498" d="M317.41,349.467c1.274,2.116,2.197,4.448,2.197,7.093c0,7.759-6.293,14.065-14.079,14.065
							c-2.658,0-4.991-0.936-7.107-2.197c2.455,4.097,6.755,6.972,11.868,6.972c7.771,0,14.065-6.307,14.065-14.065
							C324.354,356.221,321.506,351.922,317.41,349.467z"/>
						<path fill="#2E7498" d="M317.41,306.66c1.248,2.116,2.197,4.436,2.197,7.094c0,7.759-6.293,14.052-14.079,14.052
							c-2.658,0-4.991-0.936-7.107-2.211c2.455,4.097,6.755,6.985,11.868,6.985c7.771,0,14.065-6.307,14.065-14.052
							C324.354,313.401,321.506,309.115,317.41,306.66z"/>
					</g>
				</g>
			</g>
		</g>
	</g>
</g>
</svg>
