<?xml version="1.0" encoding="utf-8"?>
<!-- Generator: Adobe Illustrator 15.0.0, SVG Export Plug-In . SVG Version: 6.00 Build 0)  -->
<!DOCTYPE svg PUBLIC "-//W3C//DTD SVG 1.1//EN" "http://www.w3.org/Graphics/SVG/1.1/DTD/svg11.dtd">
<svg version="1.1" id="Graphics" xmlns="http://www.w3.org/2000/svg" xmlns:xlink="http://www.w3.org/1999/xlink" x="0px" y="0px"
	 width="500px" height="500px" viewBox="0 0 500 500" enable-background="new 0 0 500 500" xml:space="preserve">
<g>
	<g>
		<g>
			<path fill="#366842" d="M250,14c31.866,0,62.771,6.238,91.857,18.541c28.101,11.886,53.341,28.904,75.02,50.583
				c21.678,21.679,38.697,46.919,50.583,75.02C479.762,187.229,486,218.134,486,250s-6.238,62.771-18.541,91.857
				c-11.886,28.101-28.904,53.341-50.583,75.02c-21.679,21.678-46.919,38.697-75.02,50.583C312.771,479.762,281.866,486,250,486
				s-62.771-6.238-91.857-18.541c-28.101-11.886-53.341-28.904-75.02-50.583c-21.678-21.679-38.697-46.919-50.583-75.02
				C20.238,312.771,14,281.866,14,250s6.238-62.771,18.541-91.857c11.886-28.101,28.904-53.341,50.583-75.02
				c21.679-21.678,46.919-38.697,75.02-50.583C187.229,20.238,218.134,14,250,14 M250,0C111.93,0,0,111.93,0,250s111.93,250,250,250
				s250-111.93,250-250S388.07,0,250,0L250,0z"/>
		</g>
		<g>
			<path fill="#EEF3F3" d="M250,479c-61.165,0-118.67-23.821-161.924-67.075C44.821,368.67,21,311.165,21,250
				c0-61.164,23.821-118.67,67.076-161.924S188.836,21,250,21c61.165,0,118.67,23.821,161.925,67.076
				C455.179,131.33,479,188.835,479,250s-23.821,118.67-67.075,161.925C368.67,455.179,311.165,479,250,479z"/>
			<path fill="#8CB61D" d="M250,28c29.974,0,59.045,5.868,86.405,17.441c26.434,11.182,50.177,27.191,70.57,47.584
				c20.393,20.393,36.403,44.137,47.584,70.57C466.132,190.956,472,220.026,472,250c0,29.974-5.868,59.045-17.441,86.405
				c-11.181,26.434-27.191,50.177-47.584,70.57c-20.394,20.393-44.137,36.403-70.57,47.584C309.045,466.132,279.974,472,250,472
				c-29.974,0-59.044-5.868-86.404-17.441c-26.434-11.181-50.177-27.191-70.57-47.584c-20.394-20.394-36.403-44.137-47.584-70.57
				C33.868,309.045,28,279.974,28,250c0-29.974,5.868-59.044,17.441-86.404c11.182-26.434,27.191-50.177,47.584-70.57
				c20.393-20.394,44.137-36.403,70.57-47.584C190.956,33.868,220.026,28,250,28 M250,14C119.669,14,14,119.669,14,250
				c0,130.332,105.669,236,236,236c130.332,0,236-105.668,236-236C486,119.669,380.332,14,250,14L250,14z"/>
		</g>
	</g>
	<path fill="#ED8C7A" d="M255.036,409.359c0,17.116-13.962,31.104-31.069,31.104l0,0c-17.108,0-31.087-13.987-31.087-31.104v-62.156
		c0-17.117,13.979-31.088,31.087-31.088l0,0c17.107,0,31.069,13.971,31.069,31.088V409.359z"/>
	<g>
		<path fill="#D8E3E2" d="M207.639,179.125c12.478-5.155,19.237-17.446,15.106-27.425c-4.131-9.981-17.604-13.895-30.083-8.725
			c-12.492,5.186-19.252,17.462-15.114,27.441C181.7,180.396,195.146,184.311,207.639,179.125z"/>
		<path fill="#B3C589" d="M222.745,151.7l-45.197,18.717c-5.69-13.75-19.476-76.646-7.358-81.671
			C180.913,84.312,215.784,134.917,222.745,151.7z"/>
		<path fill="#1C9283" d="M381.936,185.177c-17.952,0-32.495,12.117-32.495,27.065c0,14.962,14.543,27.079,32.495,27.079
			c23.086,0,51.436-8.218,51.436-18.949C433.371,209.453,411.347,185.177,381.936,185.177z"/>
		<path fill="#1C9283" d="M169.337,159.845c17.953,0,32.496,12.132,32.496,27.064c0,14.963-14.543,27.08-32.496,27.08
			c-23.1,0-51.429-8.218-51.429-18.948C117.908,184.122,139.926,159.845,169.337,159.845z"/>
		<path fill="#F2C579" d="M169.337,203.057c-18.817,0-35.557-5.634-40.12-9.244c2.6-6.354,18.125-23.021,40.12-23.021
			c11.691,0,21.549,7.38,21.549,16.117C190.886,195.661,181.028,203.057,169.337,203.057z"/>
		<path fill="#1C9283" d="M344.479,136.087c-30.603-10.514-63.596-13.186-107.58-9.835c-43.977,3.364-59.885,38.374-63.163,63.171
			c-3.271,24.783-14.031,60.815-44.446,76.717c-30.401,15.915-36.496,40.179-29.477,74.089
			c7.026,33.926,52.881,49.898,86.566,57.394c33.673,7.468,53.921,6.413,82.929-22.833c21.114-21.287,33.102-55.921,67.242-63.257
			c34.156-7.352,54.866-50.477,54.866-87.723C391.416,182.288,378.332,147.714,344.479,136.087z"/>
		<path fill="#F2C579" d="M253.117,388.855c18.688-22.413,16.486-65.841-7.019-90.553c-24.985-26.257-77.628-34.589-109.949-32.177
			c-2.751,0.201-5.46,0.418-8.247,0.779c-29.188,15.916-34.993,39.948-28.09,73.323c7.026,33.926,52.881,49.898,86.566,57.394
			C213.466,403.632,231.873,404.107,253.117,388.855z"/>
		<path fill="#F2C579" d="M381.936,228.373c-11.677,0-21.541-7.38-21.541-16.131c0-8.737,9.864-16.133,21.541-16.133
			c21.852,0,37.318,16.449,40.077,23.063C417.392,222.784,400.688,228.373,381.936,228.373z"/>
		<path fill="#B3C589" d="M333.893,180.44c9.547,9.546,23.498,11.104,31.131,3.465c7.64-7.64,6.087-21.576-3.459-31.138
			c-9.561-9.546-23.497-11.092-31.13-3.451C322.794,156.941,324.332,170.893,333.893,180.44z"/>
		<path fill="#B3C589" d="M365.023,183.905l-34.589-34.589c10.521-10.529,63.351-47.328,72.622-38.056
			C411.275,119.465,377.855,171.066,365.023,183.905z"/>
		<path fill="#BE8952" d="M114.601,314.175c0,9.748,6.594,17.664,14.718,17.664c8.116,0,14.702-7.916,14.702-17.664
			s-6.586-17.648-14.702-17.648C121.194,296.526,114.601,304.427,114.601,314.175z"/>
		<path fill="#BE8952" d="M187.116,325.469c0,9.749,6.585,17.648,14.717,17.648c8.102,0,14.702-7.899,14.702-17.648
			c0-9.763-6.601-17.662-14.702-17.662C193.701,307.807,187.116,315.706,187.116,325.469z"/>
		<path fill="#1E4A54" d="M272.816,236.245c0,6.021-4.925,10.947-10.947,10.947l0,0c-6.022,0-10.94-4.926-10.94-10.947V214.38
			c0-6.022,4.918-10.949,10.94-10.949l0,0c6.022,0,10.947,4.927,10.947,10.949V236.245z"/>
		<path fill="#1E4A54" d="M208.996,224.633c0,6.008-4.918,10.933-10.94,10.933l0,0c-6.029,0-10.939-4.925-10.939-10.933v-21.88
			c0-6.022,4.91-10.947,10.939-10.947l0,0c6.022,0,10.94,4.925,10.94,10.947V224.633z"/>
	</g>
</g>
</svg>
