<?xml version="1.0" encoding="utf-8"?>
<!-- Generator: Adobe Illustrator 15.0.0, SVG Export Plug-In . SVG Version: 6.00 Build 0)  -->
<!DOCTYPE svg PUBLIC "-//W3C//DTD SVG 1.1//EN" "http://www.w3.org/Graphics/SVG/1.1/DTD/svg11.dtd">
<svg version="1.1" id="Graphics" xmlns="http://www.w3.org/2000/svg" xmlns:xlink="http://www.w3.org/1999/xlink" x="0px" y="0px"
	 width="500px" height="500px" viewBox="0 0 500 500" enable-background="new 0 0 500 500" xml:space="preserve">
<g>
	<g>
		<g>
			<path fill="#366842" d="M250,14c31.866,0,62.771,6.238,91.857,18.541c28.101,11.886,53.341,28.904,75.02,50.583
				c21.678,21.679,38.697,46.919,50.583,75.02C479.762,187.229,486,218.134,486,250s-6.238,62.771-18.541,91.857
				c-11.886,28.101-28.904,53.341-50.583,75.02c-21.679,21.678-46.919,38.697-75.02,50.583C312.771,479.762,281.866,486,250,486
				s-62.771-6.238-91.857-18.541c-28.101-11.886-53.341-28.904-75.02-50.583c-21.678-21.679-38.697-46.919-50.583-75.02
				C20.238,312.771,14,281.866,14,250s6.238-62.771,18.541-91.857c11.886-28.101,28.904-53.341,50.583-75.02
				c21.679-21.678,46.919-38.697,75.02-50.583C187.229,20.238,218.134,14,250,14 M250,0C111.93,0,0,111.93,0,250s111.93,250,250,250
				s250-111.93,250-250S388.07,0,250,0L250,0z"/>
		</g>
		<g>
			<path fill="#EEF3F3" d="M250,479c-61.165,0-118.67-23.821-161.924-67.075C44.821,368.67,21,311.165,21,250
				c0-61.164,23.821-118.67,67.076-161.924S188.836,21,250,21c61.165,0,118.67,23.821,161.925,67.076
				C455.179,131.33,479,188.835,479,250s-23.821,118.67-67.075,161.925C368.67,455.179,311.165,479,250,479z"/>
			<path fill="#8CB61D" d="M250,28c29.974,0,59.045,5.868,86.405,17.441c26.434,11.182,50.177,27.191,70.57,47.584
				c20.393,20.393,36.403,44.137,47.584,70.57C466.132,190.956,472,220.026,472,250c0,29.974-5.868,59.045-17.441,86.405
				c-11.181,26.434-27.191,50.177-47.584,70.57c-20.394,20.393-44.137,36.403-70.57,47.584C309.045,466.132,279.974,472,250,472
				c-29.974,0-59.044-5.868-86.404-17.441c-26.434-11.181-50.177-27.191-70.57-47.584c-20.394-20.394-36.403-44.137-47.584-70.57
				C33.868,309.045,28,279.974,28,250c0-29.974,5.868-59.044,17.441-86.404c11.182-26.434,27.191-50.177,47.584-70.57
				c20.393-20.394,44.137-36.403,70.57-47.584C190.956,33.868,220.026,28,250,28 M250,14C119.669,14,14,119.669,14,250
				c0,130.332,105.669,236,236,236c130.332,0,236-105.668,236-236C486,119.669,380.332,14,250,14L250,14z"/>
		</g>
	</g>
	<g>
		<path fill="#EEF3F3" d="M250,363c-62.309,0-113-50.691-113-113s50.691-113,113-113s113,50.691,113,113S312.309,363,250,363z"/>
		<path fill="#B3C589" d="M250,144c58.449,0,106,47.551,106,106s-47.551,106-106,106s-106-47.551-106-106S191.551,144,250,144
			 M250,130c-66.271,0-120,53.73-120,120c0,66.271,53.729,120,120,120s120-53.729,120-120C370,183.73,316.271,130,250,130L250,130z"
			/>
	</g>
	<g>
		<path fill="#B3C589" d="M395.043,199.198c-10.845,33.039-42.408,21.152-44.759,19.774c-2.35-1.418-21.407-20.07-25.444-25.432
			c-2.588-3.415-12.068-7.199-19.214-9.464c-0.508,0.056-0.97,0.083-1.493,0.181c-2.826,0.479-17.031,3.997-15.906,6.585
			c1.267,2.926,6.358,5.726,8.299,8.313c7.117,9.297,22.632,30.438,17.229,47.582c-1.771,5.629-17.229,13.193-26.316,20.255
			c-8.551-5.796-10.957-14.668-23.462-17.551c4.021,7.551,9.086,14.4,10.605,26.864c-15.4,11.28-30.832,26.092-52.071,31.715
			c-6.259-6.158-10.27-16.932-20.704-19.044c3.038,8.499,8.664,14.575,9.816,24.914c-34.91,18.24-104.536,69.964-125.748,67.543
			c-1.308-6.61,0.816-12.295,3.476-20.762c10.31-32.196,56.376-94.058,71.479-117.829c1.226-1.928,2.618-3.573,4.01-4.164
			c18.102-0.365,27.007,6.159,38.456,12.209c-3.458-13.546-20.733-22.464-31.127-27.836c10.408-22.407,38.681-64.463,51.101-65.195
			c27.274,0.295,40.13,13.461,56.602,24.195c4.443-6.164,6.808-14.475,6.413-22.395c-0.436-1.336-0.9-2.603-1.547-3.712
			c-3.461-6.515-24.234-21.775-25.136-22.058c-0.857-0.268-44.167-42.66,5.851-51.156c50.007-8.454,51.469,37.639,48.824,52.889
			c-0.689,4.05-1.616,7.622-2.659,10.704c-0.957,3.697-2.166,7.298-3.672,10.814c1.322-1.35,2.491-2.843,3.545-4.4
			c5.064-11.409,14.557-34.618,25.335-46.519c12.603-13.838,28.974-28.271,50.903-14.978c21.972,13.319-13.742,45.784-23.11,50.017
			c-8.032,3.629-33.154,13.98-47.276,20.931c0.858-0.097,1.676-0.253,2.545-0.435c2.928-1.1,6.261-2.297,9.719-3.309
			c1.185-0.393,2.337-0.73,3.448-0.971c3.109-0.813,6.175-1.502,9.043-1.783C354.97,154.27,405.858,166.143,395.043,199.198"/>
		<path fill="#EFA016" d="M269.278,171.909c1.269,2.926,6.359,5.727,8.3,8.313c7.133,9.285,22.631,30.423,17.245,47.601
			c-1.785,5.61-17.258,13.19-26.315,20.237c-8.553-5.81-10.957-14.669-23.463-17.566c4.037,7.565,9.058,14.433,10.606,26.88
			c-15.389,11.278-30.834,26.105-52.073,31.72c-6.272-6.16-10.266-16.951-20.703-19.017c3.023,8.494,8.649,14.557,9.804,24.907
			c-34.884,18.231-104.523,69.964-125.735,67.547c-1.321-6.612,0.803-12.298,3.46-20.764
			c10.298-32.196,56.391-94.059,71.483-117.826c1.237-1.914,2.616-3.563,4.036-4.164c18.075-0.367,26.979,6.16,38.427,12.224
			c-3.458-13.563-20.719-22.479-31.111-27.866c10.407-22.392,38.681-64.45,51.087-65.181c27.272,0.295,40.144,13.462,56.6,24.192"/>
		<path fill="#BE8952" d="M277.578,180.223c7.118,9.299,22.618,30.438,17.245,47.601c-1.785,5.61-17.258,13.19-26.344,20.237
			c-8.526-5.796-10.957-14.669-23.435-17.553c4.008,7.552,9.058,14.406,10.606,26.866c-15.389,11.278-30.847,26.105-52.087,31.72
			c-6.243-6.16-10.252-16.938-20.689-19.031c3.023,8.509,8.649,14.571,9.804,24.909c-34.912,18.244-104.523,69.963-125.763,67.544"
			/>
		<path fill="#366842" d="M376.081,180.264c-10.83,33.044-42.394,21.157-44.742,19.776c-2.351-1.419-21.396-20.085-25.459-25.431
			c-2.561-3.416-12.058-7.201-19.201-9.466c-0.506,0.055-0.957,0.083-1.477,0.185c-2.855,0.476-17.033,3.993-15.924,6.581
			l-8.355-8.776c4.433-6.161,6.823-14.474,6.416-22.395c-0.436-1.336-0.903-2.603-1.534-3.697
			c-3.488-6.512-24.25-21.789-25.135-22.07c-0.871-0.266-44.183-42.661,5.824-51.144c50.002-8.467,51.479,37.599,48.85,52.874
			c-0.717,4.049-1.632,7.622-2.657,10.704c-0.985,3.7-2.168,7.302-3.688,10.817c1.337-1.353,2.491-2.841,3.545-4.403
			c5.052-11.409,14.559-34.616,25.335-46.516c12.616-13.841,28.988-28.271,50.905-14.98c21.983,13.293-13.744,45.784-23.111,50.018
			c-8.048,3.632-33.168,13.983-47.289,20.943c0.844-0.11,1.659-0.268,2.544-0.447c2.929-1.101,6.262-2.293,9.72-3.319
			c1.183-0.383,2.337-0.72,3.461-0.956c3.096-0.818,6.16-1.493,9.029-1.788C336.035,135.325,386.925,147.194,376.081,180.264"/>
	</g>
	<g>
		<path fill="#B3C589" d="M423.512,303.005c-7.559,23.048-29.557,14.769-31.194,13.798c-1.638-1.006-14.921-14.001-17.733-17.723
			c-1.805-2.4-8.413-5.031-13.393-6.611c-0.354,0.046-0.676,0.069-1.039,0.148c-1.971,0.314-11.872,2.763-11.089,4.567
			c0.883,2.042,4.432,3.987,5.784,5.786c4.961,6.498,15.774,21.231,12.01,33.189c-1.236,3.902-12.01,9.192-18.342,14.11
			c-5.96-4.038-7.637-10.243-16.354-12.251c2.804,5.281,6.333,10.064,7.393,18.738c-10.733,7.862-21.488,18.184-36.292,22.121
			c-4.362-4.297-7.157-11.821-14.431-13.275c2.118,5.897,6.039,10.137,6.842,17.335c-24.331,12.737-72.859,48.768-87.642,47.1
			c-0.912-4.628,0.569-8.575,2.422-14.487c7.186-22.437,39.291-65.551,49.819-82.109c0.854-1.343,1.824-2.493,2.795-2.898
			c12.616-0.26,18.821,4.297,26.803,8.505c-2.411-9.442-14.451-15.653-21.695-19.416c7.254-15.599,26.959-44.93,35.615-45.417
			c19.01,0.208,27.97,9.378,39.45,16.836c3.097-4.266,4.744-10.088,4.47-15.592c-0.303-0.937-0.629-1.816-1.079-2.592
			c-2.411-4.524-16.891-15.176-17.519-15.367c-0.597-0.179-30.782-29.747,4.079-35.645c34.852-5.901,35.871,26.226,34.027,36.852
			c-0.479,2.821-1.127,5.314-1.853,7.444c-0.667,2.596-1.51,5.112-2.56,7.56c0.922-0.948,1.735-1.978,2.471-3.086
			c3.529-7.936,10.147-24.111,17.657-32.402c8.783-9.645,20.193-19.711,35.477-10.458c15.314,9.296-9.575,31.913-16.105,34.868
			c-5.598,2.539-23.107,9.76-32.949,14.586c0.597-0.08,1.167-0.169,1.773-0.307c2.041-0.754,4.362-1.584,6.773-2.287
			c0.825-0.282,1.629-0.521,2.404-0.678c2.165-0.587,4.303-1.072,6.302-1.265C395.582,271.715,431.051,279.983,423.512,303.005"/>
		<path fill="#EFA016" d="M335.858,283.999c0.884,2.042,4.432,3.981,5.784,5.785c4.972,6.464,15.773,21.221,12.02,33.165
			c-1.245,3.926-12.029,9.215-18.342,14.137c-5.96-4.05-7.637-10.244-16.353-12.264c2.814,5.292,6.313,10.05,7.392,18.751
			c-10.725,7.86-21.488,18.194-36.291,22.084c-4.373-4.292-7.156-11.799-14.431-13.255c2.107,5.935,6.027,10.153,6.833,17.372
			c-24.313,12.702-72.851,48.767-87.633,47.062c-0.923-4.589,0.559-8.54,2.411-14.448c7.177-22.437,39.302-65.551,49.819-82.138
			c0.864-1.34,1.825-2.461,2.814-2.905c12.598-0.239,18.804,4.296,26.782,8.53c-2.411-9.434-14.438-15.673-21.683-19.416
			c7.252-15.619,26.958-44.919,35.604-45.439c19.01,0.202,27.98,9.373,39.45,16.863"/>
		<path fill="#BE8952" d="M341.643,289.784c4.961,6.476,15.764,21.232,12.02,33.165c-1.245,3.926-12.029,9.215-18.361,14.137
			c-5.941-4.038-7.637-10.244-16.333-12.253c2.794,5.281,6.313,10.031,7.392,18.74c-10.725,7.86-21.498,18.194-36.302,22.084
			c-4.353-4.292-7.146-11.787-14.42-13.267c2.107,5.946,6.027,10.165,6.833,17.374c-24.333,12.712-72.851,48.766-87.652,47.067"/>
		<path fill="#366842" d="M410.297,289.818c-7.549,23.029-29.548,14.732-31.185,13.798c-1.638-1.005-14.911-14.011-17.745-17.722
			c-1.784-2.404-8.401-5.032-13.382-6.611c-0.352,0.045-0.666,0.068-1.028,0.111c-1.991,0.351-11.873,2.8-11.099,4.604l-5.823-6.126
			c3.089-4.3,4.755-10.085,4.471-15.589c-0.304-0.937-0.628-1.816-1.069-2.597c-2.43-4.546-16.901-15.17-17.518-15.361
			c-0.607-0.207-30.793-29.748,4.059-35.661c34.851-5.903,35.88,26.219,34.047,36.843c-0.5,2.845-1.137,5.338-1.852,7.47
			c-0.688,2.585-1.51,5.074-2.57,7.526c0.931-0.916,1.736-1.978,2.471-3.061c3.521-7.936,10.146-24.107,17.656-32.426
			c8.794-9.646,20.204-19.701,35.479-10.429c15.322,9.273-9.578,31.913-16.106,34.869c-5.609,2.511-23.117,9.722-32.96,14.597
			c0.589-0.091,1.156-0.18,1.773-0.327c2.04-0.743,4.364-1.603,6.774-2.323c0.825-0.236,1.628-0.473,2.412-0.662
			c2.157-0.557,4.293-1.031,6.294-1.233C382.387,258.492,417.854,266.785,410.297,289.818"/>
	</g>
</g>
</svg>
