<?xml version="1.0" encoding="utf-8"?>
<!-- Generator: Adobe Illustrator 15.0.0, SVG Export Plug-In . SVG Version: 6.00 Build 0)  -->
<!DOCTYPE svg PUBLIC "-//W3C//DTD SVG 1.1//EN" "http://www.w3.org/Graphics/SVG/1.1/DTD/svg11.dtd">
<svg version="1.1" id="Graphics" xmlns="http://www.w3.org/2000/svg" xmlns:xlink="http://www.w3.org/1999/xlink" x="0px" y="0px"
	 width="500px" height="500px" viewBox="0 0 500 500" enable-background="new 0 0 500 500" xml:space="preserve">
<g>
	<g>
		<g>
			<path fill="#1E4A54" d="M250,14c31.866,0,62.771,6.238,91.857,18.541c28.101,11.886,53.341,28.904,75.02,50.583
				c21.678,21.679,38.697,46.919,50.583,75.02C479.762,187.229,486,218.134,486,250s-6.238,62.771-18.541,91.857
				c-11.886,28.101-28.904,53.341-50.583,75.02c-21.679,21.678-46.919,38.697-75.02,50.583C312.771,479.762,281.866,486,250,486
				s-62.771-6.238-91.857-18.541c-28.101-11.886-53.341-28.904-75.02-50.583c-21.678-21.679-38.697-46.919-50.583-75.02
				C20.238,312.771,14,281.866,14,250s6.238-62.771,18.541-91.857c11.886-28.101,28.904-53.341,50.583-75.02
				c21.679-21.678,46.919-38.697,75.02-50.583C187.229,20.238,218.134,14,250,14 M250,0C111.93,0,0,111.93,0,250s111.93,250,250,250
				s250-111.93,250-250S388.07,0,250,0L250,0z"/>
		</g>
		<g>
			<path fill="#91D2E4" d="M250,479c-61.165,0-118.67-23.821-161.924-67.075C44.821,368.67,21,311.165,21,250
				c0-61.164,23.821-118.669,67.076-161.924C131.33,44.821,188.836,21,250,21c61.165,0,118.67,23.821,161.925,67.076
				C455.179,131.33,479,188.836,479,250c0,61.165-23.821,118.67-67.075,161.925C368.67,455.179,311.165,479,250,479z"/>
			<path fill="#EEF3F3" d="M250,28c29.974,0,59.044,5.868,86.405,17.441c26.434,11.181,50.177,27.191,70.57,47.584
				c20.393,20.393,36.403,44.137,47.584,70.57C466.132,190.956,472,220.026,472,250c0,29.974-5.868,59.045-17.441,86.405
				c-11.181,26.434-27.191,50.177-47.584,70.57c-20.394,20.393-44.137,36.403-70.57,47.584C309.045,466.132,279.974,472,250,472
				c-29.974,0-59.044-5.868-86.404-17.441c-26.434-11.181-50.177-27.191-70.57-47.584c-20.394-20.394-36.403-44.137-47.584-70.57
				C33.868,309.045,28,279.974,28,250c0-29.974,5.868-59.044,17.441-86.404c11.182-26.434,27.191-50.177,47.584-70.57
				c20.394-20.394,44.137-36.403,70.57-47.584C190.956,33.868,220.026,28,250,28 M250,14C119.669,14,14,119.67,14,250
				c0,130.332,105.669,236,236,236c130.332,0,236-105.668,236-236C486,119.67,380.332,14,250,14L250,14z"/>
		</g>
	</g>
	<g>
		<path fill="#00727B" d="M318.1,108.34c0,13.564-11.016,24.551-24.575,24.551s-24.551-10.986-24.551-24.551
			c0-13.584,10.991-24.551,24.551-24.551S318.1,94.756,318.1,108.34"/>
		<path fill="#00727B" d="M336.522,170.967l-27.671-0.42l-38.646-37.974c-0.034-0.036-0.063-0.076-0.099-0.112
			c-7.71-7.91-20.366-8.086-28.286-0.371l-50.566,49.238c-7.91,7.705-8.081,20.361-0.376,28.281c0.085,0.087,0.179,0.16,0.265,0.245
			l33.466,33.446v54.551c0,8.281,6.714,15,15,15s15-6.719,15-15V237.09c0-3.984-1.582-7.793-4.395-10.605l-23.685-23.676
			l36.341-35.386l29.238,28.729c2.749,2.705,6.431,4.248,10.288,4.307l33.677,0.508c8.535-0.068,15.098-6.494,15.225-14.775
			C351.42,177.91,344.809,171.094,336.522,170.967z"/>
		<path fill="#1E4A54" d="M140.795,233.809c33.071,0,59.98,26.914,59.98,59.99s-26.909,59.99-59.98,59.99
			c-33.076,0-59.985-26.914-59.985-59.99S107.719,233.809,140.795,233.809 M140.795,223.809c-38.652,0-69.985,31.348-69.985,69.99
			c0,38.652,31.333,69.99,69.985,69.99c38.647,0,69.98-31.338,69.98-69.99C210.775,255.156,179.442,223.809,140.795,223.809
			L140.795,223.809z"/>
		<path fill="#1E4A54" d="M336.298,233.809c33.076,0,59.985,26.914,59.985,59.99s-26.909,59.99-59.985,59.99
			c-33.071,0-59.98-26.914-59.98-59.99S303.227,233.809,336.298,233.809 M336.298,223.809c-38.647,0-69.98,31.348-69.98,69.99
			c0,38.652,31.333,69.99,69.98,69.99s69.985-31.338,69.985-69.99C406.283,255.156,374.945,223.809,336.298,223.809L336.298,223.809
			z"/>
		<path opacity="0.2" d="M109.662,393.789c0,5.527,62.285,10,139.209,10c76.831,0,139.121-4.473,139.121-10s-62.29-10-139.121-10
			C171.947,383.789,109.662,388.262,109.662,393.789"/>
	</g>
</g>
</svg>
