<?xml version="1.0" encoding="utf-8"?>
<!-- Generator: Adobe Illustrator 15.0.0, SVG Export Plug-In . SVG Version: 6.00 Build 0)  -->
<!DOCTYPE svg PUBLIC "-//W3C//DTD SVG 1.1//EN" "http://www.w3.org/Graphics/SVG/1.1/DTD/svg11.dtd">
<svg version="1.1" id="Graphics" xmlns="http://www.w3.org/2000/svg" xmlns:xlink="http://www.w3.org/1999/xlink" x="0px" y="0px"
	 width="500px" height="500px" viewBox="0 0 500 500" enable-background="new 0 0 500 500" xml:space="preserve">
<g>
	<g>
		<g>
			<path fill="#7C223D" d="M250,14c31.866,0,62.771,6.238,91.857,18.541c28.101,11.886,53.341,28.904,75.02,50.583
				c21.678,21.679,38.697,46.919,50.583,75.02C479.762,187.229,486,218.134,486,250s-6.238,62.771-18.541,91.857
				c-11.886,28.101-28.904,53.341-50.583,75.02c-21.679,21.678-46.919,38.697-75.02,50.583C312.771,479.762,281.866,486,250,486
				s-62.771-6.238-91.857-18.541c-28.101-11.886-53.341-28.904-75.02-50.583c-21.678-21.679-38.697-46.919-50.583-75.02
				C20.238,312.771,14,281.866,14,250s6.238-62.771,18.541-91.857c11.886-28.101,28.904-53.341,50.583-75.02
				c21.679-21.678,46.919-38.697,75.02-50.583C187.229,20.238,218.134,14,250,14 M250,0C111.93,0,0,111.93,0,250s111.93,250,250,250
				s250-111.93,250-250S388.07,0,250,0L250,0z"/>
		</g>
		<g>
			<path fill="#EEF3F3" d="M250,479c-61.165,0-118.67-23.821-161.924-67.075C44.821,368.67,21,311.165,21,250
				c0-61.164,23.821-118.67,67.076-161.924S188.836,21,250,21c61.165,0,118.67,23.821,161.925,67.076
				C455.179,131.33,479,188.835,479,250s-23.821,118.67-67.075,161.925C368.67,455.179,311.165,479,250,479z"/>
			<path fill="#DD7899" d="M250,28c29.974,0,59.045,5.868,86.405,17.441c26.434,11.182,50.177,27.191,70.57,47.584
				c20.393,20.393,36.403,44.137,47.584,70.57C466.132,190.956,472,220.026,472,250c0,29.974-5.868,59.045-17.441,86.405
				c-11.181,26.434-27.191,50.177-47.584,70.57c-20.394,20.393-44.137,36.403-70.57,47.584C309.045,466.132,279.974,472,250,472
				c-29.974,0-59.044-5.868-86.404-17.441c-26.434-11.181-50.177-27.191-70.57-47.584c-20.394-20.394-36.403-44.137-47.584-70.57
				C33.868,309.045,28,279.974,28,250c0-29.974,5.868-59.044,17.441-86.404c11.182-26.434,27.191-50.177,47.584-70.57
				c20.393-20.394,44.137-36.403,70.57-47.584C190.956,33.868,220.026,28,250,28 M250,14C119.669,14,14,119.669,14,250
				c0,130.332,105.669,236,236,236c130.332,0,236-105.668,236-236C486,119.669,380.332,14,250,14L250,14z"/>
		</g>
	</g>
	<g>
		<path fill="#1A1A1A" d="M250.004,347.414c-58.135,0-111.425-10.973-146.227-30.097c-5.799-3.178-7.912-10.448-4.728-16.235
			c3.184-5.793,10.454-7.906,16.252-4.728c30.917,16.987,81.273,27.129,134.703,27.129c53.418,0,103.782-10.142,134.709-27.129
			c5.782-3.179,13.058-1.06,16.242,4.728c3.178,5.787,1.064,13.058-4.729,16.235C361.43,336.441,308.129,347.414,250.004,347.414"/>
		<path fill="#1A1A1A" d="M344.319,266.682c2.687-30.337,8.062-58.481,15.533-83.086v-5.576c0-24.013-49.025-43.471-109.491-43.471
			c-60.478,0-109.491,19.458-109.491,43.471v5.576c7.471,24.604,12.84,52.749,15.522,83.086
			c19.135-7.126,54.054-11.898,93.969-11.898C290.276,254.783,325.184,259.556,344.319,266.682"/>
		<path fill="#BBCED0" d="M342.368,312.522c-0.005-0.479-0.005-0.926-0.005-1.327c0-15.237,0.686-30.118,1.951-44.514
			c-19.124-7.126-54.037-11.898-93.958-11.898c-39.915,0-74.828,4.772-93.963,11.898c1.277,14.396,1.951,29.276,1.951,44.514v1.511
			c26.813,6.964,58.643,10.845,91.661,10.845C283.307,323.551,315.421,319.604,342.368,312.522"/>
		<path fill="#4D4D4D" d="M298.667,147.144c29.678,6.979,49.588,19.814,49.588,34.512v5.135
			c-6.902,22.688-11.854,48.646-14.334,76.624c-11.234-3.011-28.803-5.564-49.388-7.404
			C285.955,215.744,291.202,177.039,298.667,147.144"/>
		<path fill="#F6F8F8" d="M336.335,307.649c0,0.413,0,0.881,0,1.394c-14.268,3.714-30.085,6.463-46.761,8.129
			c-0.63-11.702-0.959-23.739-0.959-36.028c0-8.079-0.285-12.132,0-19.981c20.574,1.851,38.236,4.08,49.521,8.284
			C336.965,282.716,336.335,293.6,336.335,307.649"/>
	</g>
</g>
</svg>
