<?xml version="1.0" encoding="utf-8"?>
<!-- Generator: Adobe Illustrator 15.0.0, SVG Export Plug-In . SVG Version: 6.00 Build 0)  -->
<!DOCTYPE svg PUBLIC "-//W3C//DTD SVG 1.1//EN" "http://www.w3.org/Graphics/SVG/1.1/DTD/svg11.dtd">
<svg version="1.1" id="Graphics" xmlns="http://www.w3.org/2000/svg" xmlns:xlink="http://www.w3.org/1999/xlink" x="0px" y="0px"
	 width="500px" height="500px" viewBox="0 0 500 500" enable-background="new 0 0 500 500" xml:space="preserve">
<g>
	<g>
		<g>
			<path fill="#E87800" d="M250,14c31.866,0,62.771,6.238,91.857,18.541c28.101,11.886,53.341,28.904,75.02,50.583
				c21.678,21.679,38.697,46.919,50.583,75.02C479.762,187.229,486,218.134,486,250s-6.238,62.771-18.541,91.857
				c-11.886,28.101-28.904,53.341-50.583,75.02c-21.679,21.678-46.919,38.697-75.02,50.583C312.771,479.762,281.866,486,250,486
				s-62.771-6.238-91.857-18.541c-28.101-11.886-53.341-28.904-75.02-50.583c-21.678-21.679-38.697-46.919-50.583-75.02
				C20.238,312.771,14,281.866,14,250s6.238-62.771,18.541-91.857c11.886-28.101,28.904-53.341,50.583-75.02
				c21.679-21.678,46.919-38.697,75.02-50.583C187.229,20.238,218.134,14,250,14 M250,0C111.93,0,0,111.93,0,250s111.93,250,250,250
				s250-111.93,250-250S388.07,0,250,0L250,0z"/>
		</g>
		<g>
			<path fill="#EEF3F3" d="M250,479c-61.165,0-118.67-23.821-161.924-67.075C44.821,368.67,21,311.165,21,250
				c0-61.164,23.821-118.67,67.076-161.924S188.836,21,250,21c61.165,0,118.67,23.821,161.925,67.076
				C455.179,131.33,479,188.835,479,250s-23.821,118.67-67.075,161.925C368.67,455.179,311.165,479,250,479z"/>
			<path fill="#F4D100" d="M250,28c29.974,0,59.045,5.868,86.405,17.441c26.434,11.182,50.177,27.191,70.57,47.584
				c20.393,20.393,36.403,44.137,47.584,70.57C466.132,190.956,472,220.026,472,250c0,29.974-5.868,59.045-17.441,86.405
				c-11.181,26.434-27.191,50.177-47.584,70.57c-20.394,20.393-44.137,36.403-70.57,47.584C309.045,466.132,279.974,472,250,472
				c-29.974,0-59.044-5.868-86.404-17.441c-26.434-11.181-50.177-27.191-70.57-47.584c-20.394-20.394-36.403-44.137-47.584-70.57
				C33.868,309.045,28,279.974,28,250c0-29.974,5.868-59.044,17.441-86.404c11.182-26.434,27.191-50.177,47.584-70.57
				c20.393-20.394,44.137-36.403,70.57-47.584C190.956,33.868,220.026,28,250,28 M250,14C119.669,14,14,119.669,14,250
				c0,130.332,105.669,236,236,236c130.332,0,236-105.668,236-236C486,119.669,380.332,14,250,14L250,14z"/>
		</g>
	</g>
	<g>
		<defs>
			<path id="SVGID_1_" d="M472.229,250c0,122.724-99.5,222.222-222.235,222.222c-122.723,0-222.222-99.498-222.222-222.222
				c0-122.722,99.499-222.222,222.222-222.222C372.729,27.778,472.229,127.278,472.229,250"/>
		</defs>
		<clipPath id="SVGID_2_">
			<use xlink:href="#SVGID_1_"  overflow="visible"/>
		</clipPath>
		<path clip-path="url(#SVGID_2_)" fill="#00727B" d="M250.007,27.778c-122.722,0-222.222,99.5-222.222,222.222
			c0,122.724,99.5,222.222,222.222,222.222V27.778z"/>
	</g>
	<path fill="#F7D92A" d="M314.313,73.515c-16.251,47.014-32.515,94.014-48.848,141.277c31.472,0,62.764,0,94.068,0
		c0.07,0.111,0.14,0.223,0.208,0.348c-54.151,65.889-108.276,131.777-162.415,197.68c-0.153-0.082-0.292-0.139-0.417-0.222
		c16.264-47.042,32.541-94.099,48.86-141.333c-31.472,0-62.764,2.473-94.541,2.473c54.389-66.223,108.542-134.557,162.693-200.445
		C314.049,73.375,314.188,73.431,314.313,73.515z"/>
	<g>
		<defs>
			<polygon id="SVGID_3_" points="313.923,73.306 218.229,245.5 299.562,243.056 197.327,412.819 343.66,418.543 436.758,191.653 
							"/>
		</defs>
		<clipPath id="SVGID_4_">
			<use xlink:href="#SVGID_3_"  overflow="visible"/>
		</clipPath>
		<path clip-path="url(#SVGID_4_)" fill="#F5B12D" d="M314.313,73.515c-16.251,47.014-32.515,94.014-48.848,141.277
			c31.472,0,62.764,0,94.068,0c0.07,0.111,0.14,0.223,0.208,0.348c-54.151,65.889-108.276,131.777-162.415,197.68
			c-0.153-0.082-0.292-0.139-0.417-0.222c16.264-47.042,32.541-94.099,48.86-141.333c-31.472,0-62.764,0-94.541,0
			c54.389-66.194,108.542-132.084,162.693-197.973C314.049,73.375,314.188,73.431,314.313,73.515z"/>
	</g>
</g>
</svg>
