<?xml version="1.0" encoding="utf-8"?>
<!-- Generator: Adobe Illustrator 15.0.0, SVG Export Plug-In . SVG Version: 6.00 Build 0)  -->
<!DOCTYPE svg PUBLIC "-//W3C//DTD SVG 1.1//EN" "http://www.w3.org/Graphics/SVG/1.1/DTD/svg11.dtd">
<svg version="1.1" id="Graphics" xmlns="http://www.w3.org/2000/svg" xmlns:xlink="http://www.w3.org/1999/xlink" x="0px" y="0px"
	 width="500px" height="500px" viewBox="0 0 500 500" enable-background="new 0 0 500 500" xml:space="preserve">
<g>
	<g>
		<g>
			<path fill="#7C223D" d="M250,14c31.866,0,62.771,6.238,91.857,18.541c28.101,11.886,53.341,28.904,75.02,50.583
				c21.678,21.679,38.697,46.919,50.583,75.02C479.762,187.229,486,218.134,486,250s-6.238,62.771-18.541,91.857
				c-11.886,28.101-28.904,53.341-50.583,75.02c-21.679,21.678-46.919,38.697-75.02,50.583C312.771,479.762,281.866,486,250,486
				s-62.771-6.238-91.857-18.541c-28.101-11.886-53.341-28.904-75.02-50.583c-21.678-21.679-38.697-46.919-50.583-75.02
				C20.238,312.771,14,281.866,14,250s6.238-62.771,18.541-91.857c11.886-28.101,28.904-53.341,50.583-75.02
				c21.679-21.678,46.919-38.697,75.02-50.583C187.229,20.238,218.134,14,250,14 M250,0C111.93,0,0,111.93,0,250s111.93,250,250,250
				s250-111.93,250-250S388.07,0,250,0L250,0z"/>
		</g>
		<g>
			<path fill="#EEF3F3" d="M250,479c-61.165,0-118.67-23.821-161.924-67.075C44.821,368.67,21,311.165,21,250
				c0-61.164,23.821-118.669,67.076-161.924C131.33,44.821,188.836,21,250,21c61.165,0,118.67,23.821,161.925,67.076
				C455.179,131.33,479,188.836,479,250c0,61.165-23.821,118.67-67.075,161.925C368.67,455.179,311.165,479,250,479z"/>
			<path fill="#DD7899" d="M250,28c29.974,0,59.044,5.868,86.405,17.441c26.434,11.181,50.177,27.191,70.57,47.584
				c20.393,20.393,36.403,44.137,47.584,70.57C466.132,190.956,472,220.026,472,250c0,29.974-5.868,59.045-17.441,86.405
				c-11.181,26.434-27.191,50.177-47.584,70.57c-20.394,20.393-44.137,36.403-70.57,47.584C309.045,466.132,279.974,472,250,472
				c-29.974,0-59.044-5.868-86.404-17.441c-26.434-11.181-50.177-27.191-70.57-47.584c-20.394-20.394-36.403-44.137-47.584-70.57
				C33.868,309.045,28,279.974,28,250c0-29.974,5.868-59.044,17.441-86.404c11.182-26.434,27.191-50.177,47.584-70.57
				c20.394-20.394,44.137-36.403,70.57-47.584C190.956,33.868,220.026,28,250,28 M250,14C119.669,14,14,119.67,14,250
				c0,130.332,105.669,236,236,236c130.332,0,236-105.668,236-236C486,119.67,380.332,14,250,14L250,14z"/>
		</g>
	</g>
	<path fill="#E45C5E" d="M242.522,397.57L136.541,295.327c-1.363-1.189-38.729-35.337-38.729-76.095
		c0-49.772,30.409-79.5,81.196-79.5c29.715,0,57.572,23.438,70.993,36.688c13.421-13.249,41.28-36.688,70.994-36.688
		c50.787,0,81.195,29.728,81.195,79.5c0,40.758-37.365,74.905-38.901,76.43L257.479,397.57c-2.043,2.029-4.755,3.06-7.479,3.06
		C247.277,400.63,244.565,399.6,242.522,397.57z"/>
	<path fill="#ED8C7A" d="M164.933,163.486c-4.541-6.67-18.329-5.199-30.803,3.288c-12.472,8.485-18.902,20.771-14.362,27.443
		c4.538,6.672,18.329,5.199,30.801-3.289C163.041,182.446,169.472,170.157,164.933,163.486z"/>
	
		<ellipse transform="matrix(0.9543 -0.2988 0.2988 0.9543 -34.1112 99.7327)" fill="#ED8C7A" cx="309.15" cy="161.437" rx="14.518" ry="7.981"/>
	<path fill="#ED8C7A" d="M336.872,157.218c0.634-2.396-0.908-4.884-3.444-5.557c-2.538-0.669-5.111,0.727-5.744,3.12
		c-0.635,2.396,0.908,4.881,3.445,5.553C333.667,161.007,336.238,159.611,336.872,157.218z"/>
	
		<ellipse transform="matrix(0.9666 0.2561 -0.2561 0.9666 45.8029 -39.1892)" fill="#ED8C7A" cx="173.352" cy="156.247" rx="4.753" ry="4.487"/>
</g>
</svg>
