<?xml version="1.0" encoding="utf-8"?>
<!-- Generator: Adobe Illustrator 15.0.0, SVG Export Plug-In . SVG Version: 6.00 Build 0)  -->
<!DOCTYPE svg PUBLIC "-//W3C//DTD SVG 1.1//EN" "http://www.w3.org/Graphics/SVG/1.1/DTD/svg11.dtd">
<svg version="1.1" id="Graphics" xmlns="http://www.w3.org/2000/svg" xmlns:xlink="http://www.w3.org/1999/xlink" x="0px" y="0px"
	 width="500px" height="500px" viewBox="0 0 500 500" enable-background="new 0 0 500 500" xml:space="preserve">
<g>
	<g>
		<g>
			<path fill="#E87800" d="M250,14c31.866,0,62.771,6.238,91.857,18.541c28.101,11.886,53.341,28.904,75.02,50.583
				c21.678,21.679,38.697,46.919,50.583,75.02C479.762,187.229,486,218.134,486,250s-6.238,62.771-18.541,91.857
				c-11.886,28.101-28.904,53.341-50.583,75.02c-21.679,21.678-46.919,38.697-75.02,50.583C312.771,479.762,281.866,486,250,486
				s-62.771-6.238-91.857-18.541c-28.101-11.886-53.341-28.904-75.02-50.583c-21.678-21.679-38.697-46.919-50.583-75.02
				C20.238,312.771,14,281.866,14,250s6.238-62.771,18.541-91.857c11.886-28.101,28.904-53.341,50.583-75.02
				c21.679-21.678,46.919-38.697,75.02-50.583C187.229,20.238,218.134,14,250,14 M250,0C111.93,0,0,111.93,0,250s111.93,250,250,250
				s250-111.93,250-250S388.07,0,250,0L250,0z"/>
		</g>
		<g>
			<path fill="#EEF3F3" d="M250,479c-61.165,0-118.67-23.821-161.924-67.075C44.821,368.67,21,311.165,21,250
				c0-61.164,23.821-118.669,67.076-161.924C131.33,44.821,188.836,21,250,21c61.165,0,118.67,23.821,161.925,67.076
				C455.179,131.33,479,188.836,479,250c0,61.165-23.821,118.67-67.075,161.925C368.67,455.179,311.165,479,250,479z"/>
			<path fill="#F4D100" d="M250,28c29.974,0,59.044,5.868,86.405,17.441c26.434,11.181,50.177,27.191,70.57,47.584
				c20.393,20.393,36.403,44.137,47.584,70.57C466.132,190.956,472,220.026,472,250c0,29.974-5.868,59.045-17.441,86.405
				c-11.181,26.434-27.191,50.177-47.584,70.57c-20.394,20.393-44.137,36.403-70.57,47.584C309.045,466.132,279.974,472,250,472
				c-29.974,0-59.044-5.868-86.404-17.441c-26.434-11.181-50.177-27.191-70.57-47.584c-20.394-20.394-36.403-44.137-47.584-70.57
				C33.868,309.045,28,279.974,28,250c0-29.974,5.868-59.044,17.441-86.404c11.182-26.434,27.191-50.177,47.584-70.57
				c20.394-20.394,44.137-36.403,70.57-47.584C190.956,33.868,220.026,28,250,28 M250,14C119.669,14,14,119.67,14,250
				c0,130.332,105.669,236,236,236c130.332,0,236-105.668,236-236C486,119.67,380.332,14,250,14L250,14z"/>
		</g>
	</g>
	<g>
		<g>
			<path fill="#E45C5E" d="M189.287,290.121V184.14h-50v105.981c-19.518,9.338-33,29.266-33,52.346c0,32.032,25.968,58,58,58
				s58-25.968,58-58C222.287,319.387,208.804,299.459,189.287,290.121z"/>
			<path fill="#AD4F49" d="M189.287,290.121V184.14h-25v216.327c32.032,0,58-25.968,58-58
				C222.287,319.387,208.804,299.459,189.287,290.121z"/>
			<path fill="#8FADB4" d="M164.287,392.967c-27.846,0-50.5-22.654-50.5-50.5c0-19.337,11.279-37.228,28.736-45.58l4.264-2.04
				V114.532c0-9.649,7.851-17.5,17.5-17.5v-15c-17.921,0-32.5,14.579-32.5,32.5v171.062c-20.192,11.582-33,33.406-33,56.873
				c0,36.117,29.383,65.5,65.5,65.5V392.967z"/>
			<path fill="#BCCFD1" d="M181.787,114.532v180.314l4.263,2.04c17.457,8.353,28.737,26.243,28.737,45.58
				c0,27.846-22.654,50.5-50.5,50.5v15c36.116,0,65.5-29.383,65.5-65.5c0-23.467-12.808-45.291-33-56.873V114.532
				c0-17.921-14.58-32.5-32.5-32.5v15C173.937,97.032,181.787,104.883,181.787,114.532z"/>
			<path fill="#FFFFFF" d="M145.426,314.714c7.67,0,13.889,6.226,13.889,13.89c0,7.663-6.219,13.889-13.889,13.889
				s-13.889-6.226-13.889-13.889C131.537,320.939,137.756,314.714,145.426,314.714z"/>
		</g>
		
			<line fill="none" stroke="#00727B" stroke-width="20" stroke-linecap="round" stroke-miterlimit="10" x1="223.427" y1="166.898" x2="248.76" y2="166.898"/>
		
			<line fill="none" stroke="#00727B" stroke-width="20" stroke-linecap="round" stroke-miterlimit="10" x1="223.427" y1="216.898" x2="287.343" y2="216.898"/>
		
			<line fill="none" stroke="#00727B" stroke-width="20" stroke-linecap="round" stroke-miterlimit="10" x1="223.427" y1="266.898" x2="248.76" y2="266.898"/>
		
			<line fill="none" stroke="#00727B" stroke-width="20" stroke-linecap="round" stroke-miterlimit="10" x1="223.427" y1="116.898" x2="287.343" y2="116.898"/>
	</g>
	<g>
		<path fill="#1E4A54" d="M315.078,323.747c0,8.184-6.03,16.691-14.214,25.09l-15.291,16.261h31.767v15.183h-56.426v-12.383
			l26.92-28.536c4.2-4.415,7.215-9.476,7.215-12.922c0-4.308-3.122-6.892-8.507-6.892c-6.138,0-13.676,3.661-20.567,9.584
			l-7.215-13.783c9.477-7.107,19.813-11.307,30.582-11.307C304.31,304.042,315.078,311.794,315.078,323.747z"/>
		<path fill="#1E4A54" d="M392.178,342.483c0,24.66-11.952,38.336-33.273,38.336c-21.537,0-33.489-13.676-33.489-38.336
			c0-24.551,11.952-38.227,33.489-38.227C380.226,304.257,392.178,317.933,392.178,342.483z M345.12,342.483
			c0,17.23,4.093,24.337,13.784,24.337c9.476,0,13.676-7.106,13.676-24.337c0-17.229-4.2-24.229-13.676-24.229
			C349.213,318.255,345.12,325.255,345.12,342.483z"/>
		<path fill="#1E4A54" d="M431.266,305.011c0,6.999-5.707,12.707-12.814,12.707c-7,0-12.814-5.708-12.814-12.707
			c0-7,5.814-12.707,12.814-12.707C425.559,292.304,431.266,298.011,431.266,305.011z M412.852,305.011
			c0,3.016,2.584,5.492,5.6,5.492c3.123,0,5.6-2.477,5.6-5.492s-2.477-5.492-5.6-5.492
			C415.436,299.519,412.852,301.995,412.852,305.011z"/>
	</g>
</g>
</svg>
