<?xml version="1.0" encoding="utf-8"?>
<!-- Generator: Adobe Illustrator 15.0.0, SVG Export Plug-In . SVG Version: 6.00 Build 0)  -->
<!DOCTYPE svg PUBLIC "-//W3C//DTD SVG 1.1//EN" "http://www.w3.org/Graphics/SVG/1.1/DTD/svg11.dtd">
<svg version="1.1" id="Graphics" xmlns="http://www.w3.org/2000/svg" xmlns:xlink="http://www.w3.org/1999/xlink" x="0px" y="0px"
	 width="500px" height="500px" viewBox="0 0 500 500" enable-background="new 0 0 500 500" xml:space="preserve">
<g>
	<g>
		<g>
			<path fill="#564677" d="M250,14c31.866,0,62.771,6.238,91.857,18.541c28.101,11.886,53.341,28.904,75.02,50.583
				c21.679,21.679,38.697,46.919,50.583,75.02C479.763,187.229,486,218.134,486,250s-6.238,62.771-18.541,91.857
				c-11.886,28.101-28.904,53.341-50.583,75.02c-21.678,21.678-46.918,38.697-75.02,50.583C312.771,479.762,281.866,486,250,486
				s-62.771-6.238-91.857-18.541c-28.101-11.886-53.341-28.904-75.02-50.583c-21.678-21.679-38.697-46.919-50.583-75.02
				C20.238,312.771,14,281.866,14,250s6.238-62.771,18.541-91.857c11.886-28.101,28.904-53.341,50.583-75.02
				c21.679-21.678,46.919-38.697,75.02-50.583C187.229,20.238,218.134,14,250,14 M250,0C111.93,0,0,111.93,0,250s111.93,250,250,250
				s250-111.93,250-250S388.07,0,250,0L250,0z"/>
		</g>
		<g>
			<path fill="#EEF3F3" d="M250,479c-61.165,0-118.67-23.821-161.924-67.075C44.821,368.67,21,311.165,21,250
				c0-61.164,23.821-118.669,67.076-161.924C131.33,44.821,188.836,21,250,21c61.165,0,118.67,23.821,161.925,67.076
				C455.179,131.331,479,188.836,479,250c0,61.165-23.821,118.67-67.076,161.925C368.671,455.179,311.165,479,250,479z"/>
			<path fill="#AB8EB8" d="M250,28c29.974,0,59.045,5.868,86.405,17.441c26.434,11.181,50.177,27.191,70.57,47.584
				c20.394,20.393,36.403,44.137,47.584,70.57C466.132,190.956,472,220.026,472,250c0,29.974-5.868,59.045-17.441,86.405
				c-11.181,26.434-27.191,50.177-47.584,70.57c-20.394,20.393-44.137,36.403-70.571,47.584C309.045,466.132,279.974,472,250,472
				c-29.974,0-59.044-5.868-86.404-17.441c-26.434-11.181-50.177-27.191-70.57-47.584c-20.394-20.394-36.403-44.137-47.584-70.57
				C33.868,309.045,28,279.974,28,250c0-29.974,5.868-59.044,17.441-86.404c11.182-26.434,27.191-50.177,47.584-70.57
				c20.394-20.394,44.137-36.403,70.57-47.584C190.956,33.868,220.026,28,250,28 M250,14C119.669,14,14,119.67,14,250
				c0,130.332,105.669,236,236,236c130.332,0,236-105.668,236-236C486,119.67,380.332,14,250,14L250,14z"/>
		</g>
	</g>
	<g>
		<g>
			<path fill-rule="evenodd" clip-rule="evenodd" fill="#1C9283" d="M322.289,158.308c0.237,0.084,0.474,0.169,0.711,0.251
				c10.101,11.77,43.856,24.053,59.719,21.278c0.238,0.084,0.475,0.171,0.71,0.253c22.659,24.297,45.233,48.633,67.734,73
				c-0.044,0.124-0.086,0.24-0.129,0.36c-11.857,12.146-23.275,25.223-35.027,37.596c-9.052-4.368-17.687-8.933-26.459-13.435
				c-14.566,40.883-29.129,81.76-43.695,122.643c-44.554-15.875-89.107-31.747-133.662-47.62
				c14.523-40.765,29.046-81.527,43.568-122.286c-8.69-2.752-19.284-4.124-28.867-6.681c-1.279-17.015-1.857-34.364-3.364-51.273
				c0.043-0.119,0.084-0.237,0.128-0.359C256.497,167.383,289.373,162.804,322.289,158.308z M377.142,189.867
				c-16.516,2.951-44.798-8.514-56.52-20.138C321.946,192.957,361.628,210.89,377.142,189.867z"/>
			<g>
				<path fill-rule="evenodd" clip-rule="evenodd" fill="#91D2E4" d="M322.548,327.759c4.208-3.438,8.549-7.132,12.931-10.836
					c2.152-1.817,4.396-3.466,6.242-5.943c1.803-2.424,3.523-5.491,4.41-9.224c1.202-5.048,0.005-8.996-2.38-12.465
					c-0.768-1.123-1.564-2.296-2.5-3.291c-3.928-4.198-10.828-7.158-18.15-9.016c-8.519,7.05-16.932,14.313-25.365,21.545
					C305.986,308.244,314.286,318.229,322.548,327.759z"/>
				<path fill-rule="evenodd" clip-rule="evenodd" fill="#91D2E4" d="M303.516,224.656c0.93-2.611,1.863-5.229,2.795-7.846
					c-0.109-0.084-0.316,0.028-0.402,0.081c-2.393,1.431-4.865,3.277-7.27,4.832c-7.752,5.009-15.607,10.376-23.385,15.354
					c3.759,11.754,7.394,23.865,11.223,35.401c1.358-3.813,2.716-7.624,4.075-11.437c11.184,3.983,23.046,8.211,34.388,12.251
					c3.018,1.075,5.813,1.909,8.332,3.118c7.317,3.511,12.54,8.225,14.464,14.521c-1.833-12.453-3.69-25.104-5.654-37.771
					c-0.279-1.785-0.421-3.664-0.875-5.333c-0.759-2.78-3.142-5.55-5.516-7.662c-2.648-2.35-5.594-4.21-9.032-5.988
					C319.583,230.516,311.045,228.041,303.516,224.656z"/>
			</g>
		</g>
		<g>
			<g>
				<path fill-rule="evenodd" clip-rule="evenodd" fill="#564677" d="M109.168,213.326c-4.045,1.206-8.259,2.794-12.676,4.459
					c-4.161,1.568-8.464,3.191-12.714,4.504l-1.696,0.524l-1.054-1.428c-4.378-5.931-8.745-12.076-12.967-18.019
					c-5.561-7.827-11.312-15.92-17.133-23.583l-0.333-0.438l-0.513-2.302l1.141-1.05c25.536-21.576,51.185-43.14,76.234-64.094
					l0.468-0.392l1.974-0.439l0.637,0.197c2.693,0.834,6.233,1.258,10.52,1.258c17.536,0,40.414-6.762,48.958-14.47l0.489-0.441
					l1.975-0.439l0.589,0.157c31.813,8.45,64.178,17.131,96.197,25.804l1.462,0.396l0.526,2.373l-0.117,0.54
					c-2.034,9.415-3.819,19.188-5.545,28.64c-1.309,7.164-2.662,14.573-4.117,21.793l-0.36,1.788l-1.812,0.203
					c-7.49,0.839-14.948,1.465-22.161,2.071c-1.536,0.129-3.072,0.258-4.61,0.389l28.146,126.749l-143.397,31.844L109.168,213.326z
					 M140.844,127.859c4.772,3.285,11.252,5.14,18.452,5.141c0.001,0,0.003,0,0.004,0c12.123,0,24.773-5.35,29.054-15.649
					c-11.606,7.006-29.373,10.645-42.991,10.646C143.797,127.997,142.29,127.951,140.844,127.859z"/>
				<path fill="#FFFFFF" d="M192.425,99.746c32.108,8.528,64.168,17.129,96.186,25.801c0.027,0.122,0.055,0.246,0.082,0.367
					c-3.585,16.594-6.298,33.739-9.669,50.467c-9.987,1.118-19.729,1.842-29.552,2.699c9.407,42.364,18.814,84.728,28.223,127.096
					c-46.172,10.252-92.342,20.506-138.517,30.76c-9.38-42.242-18.76-84.483-28.141-126.728c-8.822,2.292-18.524,6.765-27.997,9.692
					c-10.134-13.727-19.852-28.112-30.121-41.629c-0.027-0.122-0.055-0.248-0.082-0.368c25.336-21.407,50.743-42.771,76.225-64.086
					c0.247-0.055,0.491-0.108,0.735-0.163c3.028,0.938,6.906,1.37,11.26,1.37c16.946,0,41.12-6.532,50.632-15.114
					C191.935,99.855,192.18,99.801,192.425,99.746 M145.363,125.497c-4.296,0-8.27-0.363-11.636-1.116
					c5.336,7.51,15.328,11.119,25.569,11.119c15.62,0,31.823-8.389,33.006-24.127C182.478,120.297,161.623,125.497,145.363,125.497
					 M192.53,94.601l-1.191,0.265l-0.381,0.085l-0.355,0.079l-1.285,0.286l-0.978,0.882c-8.021,7.236-30.558,13.826-47.283,13.826
					c-3.979,0-7.361-0.396-9.78-1.146l-1.274-0.395l-1.301,0.292l-0.558,0.124l-0.162,0.036l-1.192,0.264l-0.936,0.783
					c-25.05,20.954-50.702,42.521-76.244,64.102l-2.313,1.954l0.66,2.955l0.02,0.087l0.059,0.264l0.236,1.075l0.666,0.876
					c5.798,7.631,11.536,15.708,17.085,23.518c4.229,5.952,8.602,12.106,12.994,18.056l2.108,2.855l3.391-1.048
					c4.323-1.336,8.662-2.972,12.858-4.553c3.44-1.297,6.756-2.547,9.944-3.596l26.978,121.492l1.084,4.881l4.881-1.084
					l44.521-9.887l93.995-20.873l4.881-1.084l-1.083-4.881l-9.183-41.354l-17.801-80.162c0.586-0.049,1.172-0.099,1.758-0.148
					c7.23-0.607,14.707-1.235,22.23-2.078l3.625-0.406l0.721-3.575c1.46-7.243,2.815-14.663,4.125-21.838
					c1.723-9.433,3.504-19.186,5.53-28.561l0.233-1.08l-0.243-1.078l-0.076-0.339l-0.65-2.96l-2.926-0.792
					c-32.027-8.675-64.397-17.357-96.209-25.807L192.53,94.601L192.53,94.601z M153.721,130.09c8.635-0.807,18.01-2.81,26.21-5.957
					c-5.439,4.209-13.144,6.367-20.635,6.367C157.372,130.5,155.506,130.36,153.721,130.09L153.721,130.09z"/>
			</g>
			<g>
				<path fill-rule="evenodd" clip-rule="evenodd" fill="#AB8EB8" d="M149.2,168.693c-1.73,5.147-3.446,10.584-5.185,16.051
					c-0.857,2.685-1.88,5.277-2.125,8.354c-0.24,3.015-0.065,6.525,1.168,10.156c1.671,4.913,4.781,7.622,8.646,9.294
					c1.249,0.539,2.546,1.106,3.869,1.453c5.559,1.465,12.975,0.305,20.163-2.02c3.467-10.498,6.734-21.124,10.023-31.734
					C173.606,176.409,161.264,172.367,149.2,168.693z"/>
				<path fill-rule="evenodd" clip-rule="evenodd" fill="#AB8EB8" d="M220.153,245.881c0.603,2.711,1.204,5.42,1.807,8.133
					c0.138,0.012,0.252-0.195,0.298-0.287c1.267-2.479,2.377-5.357,3.589-7.952c3.9-8.369,7.691-17.092,11.635-25.441
					c-9.436-7.958-18.952-16.278-28.333-24.014c0.877,3.95,1.754,7.904,2.633,11.855c-11.592,2.576-23.883,5.304-35.637,7.915
					c-3.127,0.694-5.938,1.474-8.716,1.791c-8.063,0.912-14.992-0.303-19.971-4.609c8.177,9.573,16.476,19.3,24.875,28.98
					c1.189,1.365,2.306,2.88,3.579,4.048c2.12,1.954,5.609,3.034,8.744,3.556c3.495,0.584,6.98,0.594,10.838,0.272
					C203.434,249.465,211.975,247.019,220.153,245.881z"/>
			</g>
		</g>
	</g>
</g>
</svg>
