<?xml version="1.0" encoding="utf-8"?>
<!-- Generator: Adobe Illustrator 15.0.0, SVG Export Plug-In . SVG Version: 6.00 Build 0)  -->
<!DOCTYPE svg PUBLIC "-//W3C//DTD SVG 1.1//EN" "http://www.w3.org/Graphics/SVG/1.1/DTD/svg11.dtd">
<svg version="1.1" id="Graphics" xmlns="http://www.w3.org/2000/svg" xmlns:xlink="http://www.w3.org/1999/xlink" x="0px" y="0px"
	 width="500px" height="500px" viewBox="0 0 500 500" enable-background="new 0 0 500 500" xml:space="preserve">
<g>
	<g>
		<g>
			<path fill="#1E4A54" d="M250,14c31.866,0,62.771,6.238,91.857,18.541c28.101,11.886,53.341,28.904,75.02,50.583
				c21.678,21.679,38.697,46.919,50.583,75.02C479.762,187.229,486,218.134,486,250s-6.238,62.771-18.541,91.857
				c-11.886,28.101-28.904,53.341-50.583,75.02c-21.679,21.678-46.919,38.697-75.02,50.583C312.771,479.762,281.866,486,250,486
				s-62.771-6.238-91.857-18.541c-28.101-11.886-53.341-28.904-75.02-50.583c-21.678-21.679-38.697-46.919-50.583-75.02
				C20.238,312.771,14,281.866,14,250s6.238-62.771,18.541-91.857c11.886-28.101,28.904-53.341,50.583-75.02
				c21.679-21.678,46.919-38.697,75.02-50.583C187.229,20.238,218.134,14,250,14 M250,0C111.93,0,0,111.93,0,250s111.93,250,250,250
				s250-111.93,250-250S388.07,0,250,0L250,0z"/>
		</g>
		<g>
			<path fill="#EEF3F3" d="M250,479c-61.165,0-118.67-23.821-161.924-67.075C44.821,368.67,21,311.165,21,250
				c0-61.164,23.821-118.67,67.076-161.924S188.836,21,250,21c61.165,0,118.67,23.821,161.925,67.076
				C455.179,131.33,479,188.835,479,250s-23.821,118.67-67.075,161.925C368.67,455.179,311.165,479,250,479z"/>
			<path fill="#91D2E4" d="M250,28c29.974,0,59.045,5.868,86.405,17.441c26.434,11.182,50.177,27.191,70.57,47.584
				c20.393,20.393,36.403,44.137,47.584,70.57C466.132,190.956,472,220.026,472,250c0,29.974-5.868,59.045-17.441,86.405
				c-11.181,26.434-27.191,50.177-47.584,70.57c-20.394,20.393-44.137,36.403-70.57,47.584C309.045,466.132,279.974,472,250,472
				c-29.974,0-59.044-5.868-86.404-17.441c-26.434-11.181-50.177-27.191-70.57-47.584c-20.394-20.394-36.403-44.137-47.584-70.57
				C33.868,309.045,28,279.974,28,250c0-29.974,5.868-59.044,17.441-86.404c11.182-26.434,27.191-50.177,47.584-70.57
				c20.393-20.394,44.137-36.403,70.57-47.584C190.956,33.868,220.026,28,250,28 M250,14C119.669,14,14,119.669,14,250
				c0,130.332,105.669,236,236,236c130.332,0,236-105.668,236-236C486,119.669,380.332,14,250,14L250,14z"/>
		</g>
	</g>
	<g>
		<circle fill="#00727B" cx="250.273" cy="178.936" r="12.5"/>
		<path fill="#00727B" d="M261.982,188.203c-2.744,3.467-6.943,5.732-11.709,5.732s-8.965-2.266-11.709-5.732
			c-5.01,3.633-8.291,9.492-8.291,16.152v41.816h40v-41.816C270.273,197.695,266.992,191.836,261.982,188.203z"/>
		<circle fill="#00727B" cx="200.273" cy="178.936" r="12.5"/>
		<path fill="#00727B" d="M211.982,188.203c-2.744,3.467-6.943,5.732-11.709,5.732s-8.965-2.266-11.709-5.732
			c-5.01,3.633-8.291,9.492-8.291,16.152v41.816h40v-41.816C220.273,197.695,216.992,191.836,211.982,188.203z"/>
		<circle fill="#00727B" cx="300.273" cy="178.936" r="12.5"/>
		<path fill="#00727B" d="M311.982,188.203c-2.744,3.467-6.943,5.732-11.709,5.732s-8.965-2.266-11.709-5.732
			c-5.01,3.633-8.291,9.492-8.291,16.152v41.816h40v-41.816C320.273,197.695,316.992,191.836,311.982,188.203z"/>
		<path fill="#1E4A54" d="M335.879,313.857v17.695c0,7.041,5.762,12.793,12.793,12.793h21.309c7.031,0,12.793-5.752,12.793-12.793
			v-17.695H335.879z"/>
		<path fill="#1E4A54" d="M117.773,313.857v17.695c0,7.041,5.762,12.793,12.793,12.793h21.309c7.031,0,12.793-5.752,12.793-12.793
			v-17.695H117.773z"/>
		<path fill="#00727B" d="M385.527,223.818l-33.662-19.746l-19.971,38.076c-1.27,2.441-4.57,4.434-7.324,4.434H175.977
			c-2.754,0-6.055-1.992-7.324-4.434l-19.971-38.076l-33.662,19.746c-9.482,5.557-17.246,19.111-17.246,30.117v40.41
			c0,11.006,8.906,21.279,19.795,22.842l30.029,4.316c10.879,1.563,28.789,2.842,39.785,2.842h125.781
			c10.996,0,28.906-1.279,39.785-2.842l30.029-4.316c10.889-1.563,19.795-11.836,19.795-22.842v-40.41
			C402.773,242.93,395.01,229.375,385.527,223.818z"/>
		<path fill="#9FD6E5" d="M135.352,282.109c-9.707,0-17.578-8.955-17.578-20c0-11.035,7.871-20,17.578-20s17.578,8.965,17.578,20
			C152.93,273.154,145.059,282.109,135.352,282.109"/>
		<path fill="#F8FBFB" d="M138.975,262.109c-3.545,0-6.436-2.891-6.436-6.445s2.891-6.445,6.436-6.445
			c3.555,0,6.455,2.891,6.455,6.445S142.529,262.109,138.975,262.109"/>
		<path fill="#9FD6E5" d="M365.195,282.109c-9.707,0-17.578-8.955-17.578-20c0-11.035,7.871-20,17.578-20s17.578,8.965,17.578,20
			C382.773,273.154,374.902,282.109,365.195,282.109"/>
		<path fill="#F8FBFB" d="M368.818,262.109c-3.545,0-6.436-2.891-6.436-6.445s2.891-6.445,6.436-6.445
			c3.555,0,6.455,2.891,6.455,6.445S372.373,262.109,368.818,262.109"/>
		<g>
			<path fill="#F2C579" d="M186.467,296.436c-0.275,0-0.5,0.225-0.5,0.5v2.857c0,0.275,0,0.725,0,1v15.289
				c0,0.275,0.225,0.5,0.5,0.5H314.08c0.275,0,0.5-0.225,0.5-0.5v-15.289c0-0.275,0-0.725,0-1v-2.857c0-0.275-0.225-0.5-0.5-0.5
				H186.467z"/>
		</g>
		<path fill="#1E4A54" d="M356.758,206.65l-19.316-51.338c-1.934-5.137-7.939-10.215-13.34-11.27c0,0-43.398-8.438-73.828-8.438
			s-73.828,8.438-73.828,8.438c-5.4,1.055-11.406,6.133-13.34,11.27l-19.316,51.338c-0.488,1.299-0.967,2.666-0.596,3.877
			c3.887,12.773,27.021,46.055,27.021,46.055c8.662,14.043,29.258,25.527,45.752,25.527h68.613c16.494,0,37.09-11.484,45.752-25.527
			c0,0,23.145-33.271,27.021-46.055C357.725,209.316,357.246,207.949,356.758,206.65z M336.094,212.5
			c0,0-49.355,13.105-85.82,13.105s-85.82-13.105-85.82-13.105c-5.313-1.416-7.969-6.738-5.879-11.836l15.313-37.52
			c2.08-5.098,8.203-10.059,13.623-11.025c0,0,36.348-6.514,62.764-6.514s62.764,6.514,62.764,6.514
			c5.42,0.967,11.543,5.928,13.623,11.025l15.313,37.52C344.063,205.762,341.406,211.084,336.094,212.5z"/>
		<path opacity="0.3" fill="#91D2E4" d="M187.51,152.119c-5.42,0.967-11.543,5.928-13.623,11.025l-15.313,37.52
			c-2.09,5.098,0.566,10.42,5.879,11.836c0,0,49.355,13.105,85.82,13.105s85.82-13.105,85.82-13.105
			c5.313-1.416,7.969-6.738,5.879-11.836l-15.313-37.52c-2.08-5.098-8.203-10.059-13.623-11.025c0,0-36.348-6.514-62.764-6.514
			S187.51,152.119,187.51,152.119z"/>
		<path opacity="0.2" fill="#1E4A54" d="M107.676,374.961c0,5.527,62.285,10.01,139.209,10.01c76.826,0,139.121-4.482,139.121-10.01
			c0-5.508-62.295-9.99-139.121-9.99C169.961,364.971,107.676,369.453,107.676,374.961"/>
		<polygon fill="#1E4A54" points="369.355,195.801 353.184,206.475 350.273,202.07 366.445,191.396 		"/>
		<g>
			<path fill="#1E4A54" d="M384.824,198.497c0,0.22-0.18,0.4-0.4,0.4h-24.2c-0.22,0-0.4-0.18-0.4-0.4v-14.2c0-0.22,0.18-0.4,0.4-0.4
				h24.2c0.22,0,0.4,0.18,0.4,0.4V198.497z"/>
		</g>
		<polygon fill="#1E4A54" points="131.191,195.801 147.363,206.475 150.273,202.07 134.102,191.396 		"/>
		<g>
			<path fill="#1E4A54" d="M115.723,198.497c0,0.22,0.18,0.4,0.4,0.4h24.2c0.22,0,0.4-0.18,0.4-0.4v-14.2c0-0.22-0.18-0.4-0.4-0.4
				h-24.2c-0.22,0-0.4,0.18-0.4,0.4V198.497z"/>
		</g>
		<polygon fill="#E45C5E" points="290.273,87.246 266.025,103.301 250.273,79.98 234.521,103.301 210.273,87.246 222.158,123.154 
			278.389,123.154 		"/>
	</g>
</g>
</svg>
