<?xml version="1.0" encoding="utf-8"?>
<!-- Generator: Adobe Illustrator 15.0.0, SVG Export Plug-In . SVG Version: 6.00 Build 0)  -->
<!DOCTYPE svg PUBLIC "-//W3C//DTD SVG 1.1//EN" "http://www.w3.org/Graphics/SVG/1.1/DTD/svg11.dtd">
<svg version="1.1" id="Graphics" xmlns="http://www.w3.org/2000/svg" xmlns:xlink="http://www.w3.org/1999/xlink" x="0px" y="0px"
	 width="500px" height="500px" viewBox="0 0 500 500" enable-background="new 0 0 500 500" xml:space="preserve">
<g>
	<g>
		<g>
			<path fill="#366842" d="M250,14c31.866,0,62.771,6.238,91.857,18.541c28.101,11.886,53.341,28.904,75.02,50.583
				c21.678,21.679,38.697,46.919,50.583,75.02C479.762,187.229,486,218.134,486,250s-6.238,62.771-18.541,91.857
				c-11.886,28.101-28.904,53.341-50.583,75.02c-21.679,21.678-46.919,38.697-75.02,50.583C312.771,479.762,281.866,486,250,486
				s-62.771-6.238-91.857-18.541c-28.101-11.886-53.341-28.904-75.02-50.583c-21.678-21.679-38.697-46.919-50.583-75.02
				C20.238,312.771,14,281.866,14,250s6.238-62.771,18.541-91.857c11.886-28.101,28.904-53.341,50.583-75.02
				c21.679-21.678,46.919-38.697,75.02-50.583C187.229,20.238,218.134,14,250,14 M250,0C111.93,0,0,111.93,0,250s111.93,250,250,250
				s250-111.93,250-250S388.07,0,250,0L250,0z"/>
		</g>
		<g>
			<path fill="#EEF3F3" d="M250,479c-61.165,0-118.67-23.821-161.924-67.075C44.821,368.67,21,311.165,21,250
				c0-61.164,23.821-118.67,67.076-161.924S188.836,21,250,21c61.165,0,118.67,23.821,161.925,67.076
				C455.179,131.33,479,188.835,479,250s-23.821,118.67-67.075,161.925C368.67,455.179,311.165,479,250,479z"/>
			<path fill="#8CB61D" d="M250,28c29.974,0,59.045,5.868,86.405,17.441c26.434,11.182,50.177,27.191,70.57,47.584
				c20.393,20.393,36.403,44.137,47.584,70.57C466.132,190.956,472,220.026,472,250c0,29.974-5.868,59.045-17.441,86.405
				c-11.181,26.434-27.191,50.177-47.584,70.57c-20.394,20.393-44.137,36.403-70.57,47.584C309.045,466.132,279.974,472,250,472
				c-29.974,0-59.044-5.868-86.404-17.441c-26.434-11.181-50.177-27.191-70.57-47.584c-20.394-20.394-36.403-44.137-47.584-70.57
				C33.868,309.045,28,279.974,28,250c0-29.974,5.868-59.044,17.441-86.404c11.182-26.434,27.191-50.177,47.584-70.57
				c20.393-20.394,44.137-36.403,70.57-47.584C190.956,33.868,220.026,28,250,28 M250,14C119.669,14,14,119.669,14,250
				c0,130.332,105.669,236,236,236c130.332,0,236-105.668,236-236C486,119.669,380.332,14,250,14L250,14z"/>
		</g>
	</g>
	<g>
		<path fill="#EEF3F3" d="M250,363c-62.309,0-113-50.691-113-113s50.691-113,113-113s113,50.691,113,113S312.309,363,250,363z"/>
		<path fill="#B3C589" d="M250,144c58.449,0,106,47.551,106,106s-47.551,106-106,106s-106-47.551-106-106S191.551,144,250,144
			 M250,130c-66.271,0-120,53.73-120,120c0,66.271,53.729,120,120,120s120-53.729,120-120C370,183.73,316.271,130,250,130L250,130z"
			/>
	</g>
	<g>
		<path fill="#B3C589" d="M309.49,162.271c-2.349,0.241-4.856,0.794-7.391,1.463c-0.919,0.193-1.864,0.469-2.832,0.782
			c-2.83,0.841-5.558,1.816-7.955,2.717c-0.724,0.147-1.392,0.276-2.082,0.366c11.558-5.696,32.116-14.168,38.702-17.141
			c7.667-3.464,36.906-30.056,18.915-40.935c-17.938-10.878-31.336,0.933-41.662,12.259c-8.818,9.74-16.6,28.732-20.734,38.07
			c-0.862,1.279-1.807,2.496-2.9,3.604c1.244-2.877,2.212-5.824,3.019-8.853c0.839-2.522,1.588-5.446,2.174-8.761
			c2.152-12.502,0.944-50.203-39.979-43.273c-40.926,6.942-5.479,41.64-4.766,41.857c0.724,0.23,17.715,12.732,20.57,18.063
			c0.516,0.896,0.899,1.933,1.256,3.025c0.246,4.809-0.768,9.791-2.787,14.104c-15.73-9.285-34.848-14.731-55.469-14.731
			c-53.679,0-97.194,36.886-97.194,82.386c0,20.667,8.978,39.555,23.806,54.018c0.16,0.155,0.324,0.309,0.485,0.463
			c0.389,0.374,0.779,0.746,1.175,1.113c0.207,0.191,0.417,0.381,0.626,0.569c0.358,0.325,0.718,0.651,1.082,0.973
			c0.229,0.201,0.461,0.399,0.691,0.599c0.354,0.305,0.711,0.609,1.07,0.911c0.238,0.199,0.478,0.396,0.718,0.594
			c0.364,0.298,0.731,0.594,1.101,0.886c0.24,0.192,0.48,0.383,0.724,0.572c0.385,0.3,0.773,0.595,1.164,0.889
			c0.232,0.176,0.464,0.352,0.698,0.525c0.431,0.318,0.867,0.632,1.305,0.944c0.198,0.142,0.395,0.286,0.594,0.426
			c1.283,0.9,2.593,1.774,3.931,2.617c0.201,0.128,0.406,0.251,0.609,0.378c0.469,0.291,0.938,0.581,1.413,0.865
			c0.254,0.152,0.511,0.3,0.765,0.45c0.431,0.253,0.863,0.503,1.299,0.751c0.277,0.157,0.556,0.311,0.835,0.465
			c0.423,0.234,0.847,0.467,1.274,0.695c0.286,0.153,0.574,0.307,0.861,0.457c0.432,0.225,0.864,0.447,1.3,0.666
			c0.287,0.146,0.574,0.291,0.862,0.433c0.451,0.223,0.905,0.44,1.361,0.657c0.276,0.13,0.551,0.264,0.829,0.392
			c0.503,0.234,1.011,0.462,1.519,0.688c0.234,0.104,0.466,0.21,0.7,0.313c1.493,0.65,3.008,1.27,4.544,1.855
			c0.238,0.091,0.479,0.178,0.719,0.268c0.531,0.198,1.063,0.395,1.6,0.586c0.294,0.104,0.591,0.203,0.887,0.306
			c0.487,0.169,0.976,0.335,1.467,0.498c0.316,0.104,0.635,0.205,0.954,0.308c0.477,0.151,0.956,0.302,1.438,0.447
			c0.325,0.099,0.652,0.197,0.979,0.293c0.484,0.143,0.97,0.279,1.456,0.415c0.325,0.092,0.651,0.182,0.979,0.271
			c0.504,0.134,1.01,0.264,1.518,0.393c0.311,0.078,0.62,0.158,0.932,0.235c0.562,0.137,1.126,0.267,1.69,0.395
			c0.263,0.06,0.522,0.122,0.785,0.181c1.657,0.363,3.332,0.691,5.023,0.983c0.271,0.047,0.545,0.088,0.817,0.132
			c0.575,0.096,1.151,0.188,1.729,0.274c0.329,0.048,0.66,0.092,0.99,0.14c0.527,0.072,1.055,0.145,1.585,0.211
			c0.351,0.044,0.704,0.084,1.057,0.126c0.516,0.06,1.032,0.115,1.55,0.168c0.359,0.037,0.719,0.071,1.078,0.105
			c0.52,0.047,1.041,0.091,1.563,0.132c0.357,0.027,0.715,0.057,1.073,0.08c0.541,0.038,1.082,0.069,1.624,0.1
			c0.342,0.018,0.682,0.038,1.023,0.054c0.596,0.027,1.193,0.046,1.791,0.066c0.291,0.008,0.581,0.02,0.872,0.026
			c0.889,0.021,1.78,0.033,2.675,0.033c53.681,0,97.196-36.887,97.196-82.389c0-0.754-0.014-1.506-0.038-2.256
			c-0.008-0.247-0.022-0.492-0.033-0.738c-0.021-0.504-0.043-1.008-0.075-1.508c-0.019-0.289-0.043-0.578-0.064-0.866
			c-0.035-0.456-0.071-0.913-0.114-1.368c-0.029-0.302-0.063-0.603-0.095-0.902c-0.048-0.441-0.099-0.884-0.155-1.322
			c-0.038-0.303-0.079-0.604-0.122-0.907c-0.062-0.438-0.128-0.876-0.197-1.312c-0.048-0.295-0.096-0.591-0.146-0.885
			c-0.077-0.447-0.161-0.894-0.247-1.339c-0.054-0.277-0.105-0.556-0.162-0.833c-0.099-0.478-0.205-0.953-0.313-1.428
			c-0.055-0.239-0.106-0.481-0.163-0.721c-0.139-0.582-0.287-1.16-0.439-1.737c-0.034-0.13-0.064-0.259-0.1-0.389
			c-0.195-0.721-0.401-1.439-0.62-2.154c-0.018-0.057-0.036-0.113-0.054-0.171c-0.198-0.645-0.405-1.287-0.622-1.925
			c-0.062-0.185-0.129-0.368-0.192-0.551c-0.178-0.511-0.358-1.021-0.547-1.528c-0.082-0.217-0.166-0.432-0.249-0.649
			c-0.182-0.473-0.366-0.943-0.558-1.414c-0.091-0.223-0.186-0.446-0.278-0.67c-0.194-0.463-0.393-0.926-0.597-1.387
			c-0.096-0.215-0.192-0.431-0.29-0.645c-0.215-0.473-0.435-0.942-0.659-1.411c-0.094-0.195-0.188-0.391-0.283-0.585
			c-0.246-0.503-0.499-1.001-0.757-1.498c-0.08-0.155-0.159-0.313-0.24-0.467c-0.309-0.586-0.626-1.166-0.95-1.745
			c-0.034-0.063-0.067-0.125-0.103-0.188c-1.12-1.985-2.333-3.926-3.63-5.819c-0.048-0.068-0.096-0.137-0.144-0.206
			c-0.38-0.549-0.765-1.095-1.158-1.636c-0.077-0.106-0.155-0.211-0.233-0.315c-0.373-0.509-0.752-1.014-1.138-1.514
			c-0.085-0.11-0.171-0.221-0.257-0.332c-0.389-0.499-0.784-0.995-1.185-1.485c-0.082-0.102-0.163-0.201-0.246-0.301
			c-0.423-0.514-0.854-1.023-1.29-1.528c-0.061-0.069-0.12-0.14-0.181-0.21c-0.492-0.565-0.992-1.126-1.5-1.681
			c-0.005-0.005-0.01-0.01-0.014-0.015c-2.132-2.322-4.407-4.546-6.815-6.66c-0.006-0.006-0.013-0.012-0.019-0.017
			c-0.58-0.51-1.169-1.013-1.766-1.509c-0.047-0.039-0.094-0.078-0.14-0.116c-0.485-0.403-0.974-0.801-1.467-1.194
			c2.667-0.816,5.331-1.43,6.323-1.596c0.426-0.084,0.795-0.106,1.209-0.15c5.846,1.854,13.618,4.951,15.714,7.746
			c3.326,4.376,18.913,19.652,20.836,20.813c1.923,1.13,27.755,10.858,36.618-16.186
			C361.695,170.799,320.046,161.085,309.49,162.271z"/>
		<g>
			<path fill="#366842" d="M328.268,181.495c-8.863,27.044-34.695,17.315-36.617,16.186c-1.924-1.162-17.511-16.438-20.836-20.813
				c-2.096-2.796-9.869-5.894-15.715-7.747c-0.414,0.046-0.783,0.067-1.209,0.151c-2.337,0.389-13.94,3.269-13.032,5.386
				l-6.838-7.183c3.628-5.042,5.585-11.846,5.251-18.328c-0.356-1.093-0.739-2.13-1.255-3.025
				c-2.855-5.329-19.847-17.832-20.571-18.063c-0.713-0.218-36.16-34.915,4.767-41.857c40.923-6.929,42.131,30.771,39.979,43.273
				c-0.586,3.313-1.335,6.237-2.174,8.761c-0.807,3.027-1.774,5.976-3.019,8.853c1.094-1.106,2.038-2.324,2.901-3.604
				c4.134-9.337,11.915-28.33,20.733-38.069c10.326-11.327,23.725-23.137,41.662-12.259c17.991,10.879-11.248,37.471-18.914,40.935
				c-6.587,2.972-27.146,11.444-38.702,17.141c0.689-0.09,1.357-0.22,2.082-0.366c2.396-0.9,5.125-1.877,7.954-2.717
				c0.968-0.313,1.913-0.589,2.833-0.782c2.534-0.669,5.041-1.222,7.39-1.464C295.494,144.716,337.143,154.431,328.268,181.495"/>
			<ellipse fill="#E45C5E" cx="181.017" cy="230.905" rx="97.195" ry="82.388"/>
			<path fill="#AD4F49" d="M243.335,167.684c5.596,10.808,8.709,22.749,8.709,35.306c0,48.564-46.445,87.934-103.737,87.934
				c-15.067,0-29.382-2.727-42.302-7.623c17.827,18.316,44.812,29.993,75.012,29.993c53.68,0,97.195-36.887,97.195-82.388
				C278.212,205.507,264.65,182.798,243.335,167.684z"/>
			<ellipse fill="#ED8C7A" cx="148.783" cy="186.097" rx="17.119" ry="14.205"/>
			<ellipse fill="#ED8C7A" cx="121.979" cy="201.442" rx="8.242" ry="6.839"/>
		</g>
	</g>
	<g>
		<g>
			<path fill="#B3C589" d="M406.048,312.47c-7.308,35.509-30.144,58.573-61.885,74.329c-15.414,7.766-32.654,12.331-50.01,12.331
				c-10.961,0-22.265-1.826-32.655-5.365c-5.48-1.828-16.441-9.021-21.009-9.021c-5.709,0-12.559,23.292-22.492,23.292
				c-7.193,0-9.363-3.539-12.446-8.791c-1.027-1.941-1.826-2.627-1.826-5.024c0-11.874,22.607-21.123,22.607-27.745
				c0-1.027-2.969-7.079-3.426-9.362c-0.685-3.883-1.027-7.88-1.027-11.876c0-36.308,28.887-62.227,61.313-72.959
				c23.406-7.764,73.188,1.256,89.059-13.815c6.28-5.823,9.363-11.19,18.954-11.19c12.901,0,17.127,33.455,17.127,43.16
				C408.332,297.741,407.532,305.162,406.048,312.47z M342.565,305.732c-40.419,0-66.452,16.898-92.827,46.014
				c-1.37,1.484-2.169,3.083-2.169,5.138c0,3.996,3.311,7.309,7.307,7.309c2.056,0,3.653-0.8,5.138-2.17
				c5.595-5.024,10.619-10.504,16.1-15.643c20.666-18.611,38.364-26.032,66.452-26.032c3.996,0,7.307-3.312,7.307-7.308
				S346.562,305.732,342.565,305.732z"/>
		</g>
		<g>
			<g>
				<path fill="#366842" d="M389.68,296.102c-7.308,35.509-30.144,58.573-61.885,74.329c-15.414,7.766-32.654,12.331-50.01,12.331
					c-10.961,0-22.265-1.826-32.655-5.366c-5.48-1.827-16.441-9.02-21.009-9.02c-5.709,0-12.559,23.293-22.492,23.293
					c-7.194,0-9.363-3.541-12.446-8.792c-1.027-1.941-1.826-2.627-1.826-5.024c0-11.874,22.606-21.123,22.606-27.746
					c0-1.027-2.969-7.078-3.425-9.361c-0.685-3.883-1.027-7.88-1.027-11.876c0-36.308,28.887-62.226,61.313-72.96
					c23.406-7.764,73.188,1.257,89.059-13.814c6.28-5.823,9.362-11.189,18.954-11.189c12.902,0,17.126,33.454,17.126,43.159
					C391.963,281.372,391.164,288.794,389.68,296.102z M326.197,289.364c-40.42,0-66.452,16.898-92.827,46.014
					c-1.37,1.484-2.169,3.084-2.169,5.138c0,3.996,3.311,7.309,7.307,7.309c2.056,0,3.653-0.8,5.138-2.17
					c5.595-5.023,10.619-10.504,16.1-15.643c20.666-18.611,38.364-26.032,66.452-26.032c3.996,0,7.307-3.313,7.307-7.307
					C333.504,292.675,330.193,289.364,326.197,289.364z"/>
			</g>
			<path fill="#3EA159" d="M194.035,389.374c12.654-16.061,25.68-31.701,38.268-45.045c-0.693-1.115-1.102-2.42-1.102-3.813
				c0-2.054,0.799-3.653,2.169-5.138c26.375-29.115,52.407-46.014,92.827-46.014c3.652,0,6.725,2.77,7.227,6.297
				c13.202-2,39.605-4.354,48.788-60.409c-2.062-2.686-4.503-4.347-7.375-4.347c-9.592,0-12.674,5.366-18.954,11.189
				c-15.871,15.071-65.652,6.051-89.059,13.814c-32.427,10.734-61.313,36.652-61.313,72.96c0,3.996,0.343,7.993,1.027,11.876
				c0.456,2.283,3.425,8.334,3.425,9.361c0,6.623-22.606,15.872-22.606,27.746c0,2.397,0.799,3.083,1.826,5.024
				C190.771,385.581,192.121,387.827,194.035,389.374z"/>
		</g>
	</g>
</g>
</svg>
