<?xml version="1.0" encoding="utf-8"?>
<!-- Generator: Adobe Illustrator 15.0.0, SVG Export Plug-In . SVG Version: 6.00 Build 0)  -->
<!DOCTYPE svg PUBLIC "-//W3C//DTD SVG 1.1//EN" "http://www.w3.org/Graphics/SVG/1.1/DTD/svg11.dtd">
<svg version="1.1" id="Graphics" xmlns="http://www.w3.org/2000/svg" xmlns:xlink="http://www.w3.org/1999/xlink" x="0px" y="0px"
	 width="500px" height="500px" viewBox="0 0 500 500" enable-background="new 0 0 500 500" xml:space="preserve">
<g>
	<g>
		<g>
			<path fill="#564677" d="M250,14c31.866,0,62.771,6.238,91.857,18.541c28.101,11.885,53.341,28.904,75.02,50.583
				c21.678,21.678,38.697,46.918,50.583,75.02C479.762,187.229,486,218.134,486,250c0,31.866-6.238,62.771-18.541,91.857
				c-11.886,28.101-28.904,53.341-50.583,75.02c-21.679,21.678-46.919,38.697-75.02,50.583C312.771,479.762,281.866,486,250,486
				s-62.771-6.238-91.857-18.541c-28.101-11.886-53.341-28.904-75.02-50.583c-21.678-21.679-38.697-46.919-50.583-75.02
				C20.238,312.771,14,281.866,14,250c0-31.866,6.238-62.771,18.541-91.857c11.886-28.101,28.904-53.341,50.583-75.02
				c21.678-21.679,46.919-38.697,75.02-50.583C187.229,20.238,218.134,14,250,14 M250,0C111.93,0,0,111.929,0,250
				c0,138.07,111.93,250,250,250s250-111.93,250-250C500,111.929,388.07,0,250,0L250,0z"/>
		</g>
		<g>
			<path fill="#EEF3F3" d="M250,479c-61.165,0-118.67-23.821-161.924-67.075C44.821,368.67,21,311.165,21,250
				c0-61.164,23.821-118.67,67.076-161.924S188.836,21,250,21c61.165,0,118.67,23.821,161.925,67.076
				C455.179,131.33,479,188.835,479,250s-23.821,118.67-67.075,161.925C368.67,455.179,311.165,479,250,479z"/>
			<path fill="#AB8EB8" d="M250,28c29.974,0,59.045,5.868,86.405,17.441c26.434,11.182,50.177,27.191,70.57,47.584
				c20.393,20.393,36.403,44.137,47.584,70.57C466.132,190.956,472,220.026,472,250c0,29.974-5.868,59.045-17.441,86.405
				c-11.181,26.434-27.191,50.177-47.584,70.57c-20.394,20.393-44.137,36.403-70.57,47.584C309.045,466.132,279.974,472,250,472
				c-29.974,0-59.044-5.868-86.404-17.441c-26.434-11.181-50.177-27.191-70.57-47.584c-20.394-20.394-36.403-44.137-47.584-70.57
				C33.868,309.045,28,279.974,28,250c0-29.974,5.868-59.044,17.441-86.404c11.182-26.434,27.191-50.177,47.584-70.57
				c20.393-20.394,44.137-36.403,70.57-47.584C190.956,33.868,220.026,28,250,28 M250,14C119.669,14,14,119.669,14,250
				c0,130.332,105.669,236,236,236c130.332,0,236-105.668,236-236C486,119.669,380.332,14,250,14L250,14z"/>
		</g>
	</g>
	<g>
		<path fill="#BBCED0" d="M262.354,413.052c61.781,0,111.867-5.903,111.867-13.186c0-7.279-50.086-13.182-111.867-13.182
			c-61.788,0-111.877,5.902-111.877,13.182C150.477,407.148,200.565,413.052,262.354,413.052"/>
		<path fill="#2E7498" d="M208.628,304.926c0.539,20.527,0.435,41.188,2.053,47.472c2.054,7.97,12.704,34.451,10.815,36.44
			c-3.999,4.209-22.472,4.695-22.366,8.8c0.109,4.106,28.794,1.302,32.898,1.194s-4.596-36.417-4.919-48.733
			c-0.321-12.315,4.541-34.645,14.373-51.334C244.611,293.456,208.628,304.926,208.628,304.926"/>
		<path fill="#2E7498" d="M293.778,304.926c-0.54,20.527-0.435,41.188-2.054,47.472c-2.053,7.97-12.699,34.451-10.814,36.44
			c3.999,4.209,22.476,4.695,22.367,8.8c-0.11,4.106-28.793,1.302-32.897,1.194c-4.106-0.107,4.597-36.417,4.919-48.733
			c0.319-12.315-4.54-34.645-14.376-51.334C257.797,293.456,293.778,304.926,293.778,304.926"/>
		<g>
			<circle fill="#2E7498" cx="248.031" cy="215.198" r="122.252"/>
			<g>
				<path fill="#1AA9D2" d="M370.283,215.198c0,67.493-54.761,122.254-122.253,122.254s-122.252-54.761-122.252-122.254
					c0-67.494,54.76-122.251,122.252-122.251S370.283,147.704,370.283,215.198z M287.985,178.906c0.794-0.16,1.592-3.025,2.07-3.663
					c0.953-1.113,2.229-1.751,3.5-2.388c2.708-1.114,5.414-1.434,8.28-1.91c2.702-0.637,6.048-0.637,8.118,1.753
					c-0.478-0.478,3.34-3.821,3.82-3.98c1.433-0.797,3.821-0.478,4.773-1.91c0.317-0.479,0.317-3.504,0.317-3.504
					c-2.703,0.322-3.658-2.227-3.818-4.454c0,0.157-0.317,0.635-0.954,1.271c0.159-2.389-2.867-0.637-3.982-0.955
					c-3.659-0.957-3.182-3.501-4.297-6.207c-0.637-1.434-2.389-1.91-3.022-3.346c-0.639-0.955-0.955-3.022-2.387-3.18
					c-0.957-0.161-2.709,3.343-3.028,3.18c-1.433-0.791-2.068,0.319-3.181,0.958c-0.955,0.638-1.753,0.315-2.709,0.795
					c2.865-0.956-1.272-2.544-2.707-2.23c2.229-0.637,1.114-3.025-0.157-4.136c0.318,0,0.478,0,0.795,0
					c-0.317-1.434-4.772-2.708-6.204-3.664c-1.437-0.954-9.076-2.544-10.668-1.589c-1.912,1.113,0.476,4.299,0.476,5.889
					c0.16,1.909-1.91,2.388-1.91,3.978c0,2.709,5.096,2.229,3.822,5.893c-0.796,2.227-3.822,2.703-5.092,4.454
					c-1.276,1.594,0.157,4.457,1.433,5.573c1.271,0.957-2.23,2.545-2.709,2.867c-2.707,1.271-4.775-2.709-5.411-5.097
					c-0.476-1.75-0.638-3.819-2.547-4.775c-0.955-0.319-3.98-0.796-4.614,0.162c-0.956-2.391-4.303-3.345-6.53-4.138
					c-3.183-1.117-5.889-1.117-9.23-0.641c1.113-0.158-0.32-5.09-3.024-4.299c0.795-1.59,0.477-3.341,0.795-4.935
					c0.32-1.271,0.955-2.544,1.909-3.661c0.32-0.636,3.821-4.295,2.705-4.456c2.709,0.319,5.733,0.478,7.96-1.751
					c1.435-1.436,2.073-3.818,3.504-5.412c2.068-2.387,4.612,0.638,6.842,0.799c3.188,0.157,3.026-3.343,1.278-4.939
					c2.065,0.164,0.315-3.656-0.799-4.134c-1.432-0.479-6.844,0.955-3.98,2.066c-0.636-0.316-4.455,7.641-6.686,3.664
					c-0.638-0.799-0.953-4.143-2.386-4.3c-1.275,0-2.07,1.435-2.548,2.388c0.796-2.068-4.457-3.504-5.57-3.662
					c2.385-1.591,0.479-3.343-1.274-4.3c-1.273-0.794-5.256-1.431-6.365-0.157c-3.026,3.663,3.181,4.14,4.775,5.094
					c0.478,0.319,2.387,1.433,1.271,2.229c-0.955,0.479-3.821,1.276-4.141,1.91c-0.953,1.431,1.116,3.024-0.316,4.456
					c-1.433-1.432-1.433-3.821-2.545-5.412c1.433,1.755-5.73,0.799-5.575,0.799c-2.387,0-6.207,1.588-7.959-0.799
					c-0.313-0.633-0.313-4.297,0.638-3.498c-1.431-1.115-2.385-2.232-3.341-2.865c-5.253,1.75-10.191,3.976-14.965,6.521
					c0.637,0.164,1.117,0.164,1.909-0.158c1.275-0.476,2.388-1.27,3.663-1.909c1.592-0.636,4.933-2.545,6.685-1.111
					c0.158-0.323,0.636-0.641,0.795-0.799c1.115,1.274,2.23,2.55,3.183,3.978c-1.27-0.634-3.342-0.315-4.774-0.158
					c-1.113,0.322-3.024,0.637-3.501,1.912c0.477,0.794,1.113,2.068,0.799,2.862c-2.071-1.432-3.664-3.818-6.529-4.138
					c-1.275,0-2.544,0-3.499,0.162c-15.283,8.433-28.177,20.692-37.41,35.34c0.638,0.633,1.271,1.112,1.908,1.27
					c1.595,0.478,0,5.095,3.025,2.708c0.953,0.793,1.115,1.909,0.478,3.024c0.16-0.162,6.526,3.98,7.004,4.294
					c1.114,0.958,2.866,2.073,3.344,3.347c0.317,1.114-0.638,2.384-1.592,2.865c-0.161-0.317-2.549-2.704-2.866-2.07
					c-0.478,0.797,0,5.096,1.751,4.936c-2.549,0.16-1.434,10.027-2.069,11.938c0,0.163,0.318,0.163,0.318,0.163
					c-0.478,1.909,1.114,9.388,4.298,8.595c-2.069,0.479,3.66,7.798,4.456,8.274c2.072,1.435,4.46,2.388,5.894,4.458
					c1.589,2.228,1.589,5.572,3.819,7.322c-0.638,1.912,3.343,4.138,3.182,6.844c-0.316,0.162-0.478,0.162-0.794,0.322
					c0.794,2.227,3.818,2.227,4.933,4.297c0.639,1.273,0,4.297,2.071,3.66c0.316-3.504-2.071-7.003-3.822-9.868
					c-0.956-1.595-1.909-3.027-2.704-4.618c-0.797-1.436-0.954-3.184-1.592-4.774c0.638,0.157,4.139,1.432,3.817,1.907
					c-1.271,3.187,5.095,8.755,6.846,10.828c0.479,0.479,4.141,5.254,2.229,5.254c2.071,0,4.937,3.179,5.889,4.774
					c1.434,2.388,1.115,5.411,2.069,7.955c0.956,3.187,5.412,4.617,7.959,6.052c2.229,1.113,4.139,2.703,6.368,3.502
					c3.343,1.274,4.14,0.16,7.005-0.318c4.138-0.637,4.614,3.98,7.958,5.73c2.074,1.114,6.526,2.705,8.754,1.751
					c-0.954,0.317,3.347,6.848,3.661,7.321c1.435,1.914,4.141,2.869,5.733,4.777c0.479-0.319,0.955-0.797,1.116-1.432
					c-0.638,1.75,2.385,5.093,3.978,4.774c1.752-0.319,2.231-3.819,2.231-5.093c-3.188,1.592-6.052,0.318-7.803-2.868
					c-0.318-0.795-2.866-5.251-0.637-5.251c3.022,0,0.952-2.388,0.637-4.617c-0.318-2.227-2.549-3.658-3.66-5.574
					c-0.954,1.916-4.141,1.437-5.097-0.156c0,0.479-0.476,1.273-0.476,1.911c-0.798,0-1.592,0.161-2.39-0.161
					c0.318-1.91,0.478-4.297,0.957-6.364c0.794-2.868,6.051-8.438-0.798-8.118c-2.386,0.157-3.342,1.11-4.134,3.182
					c-0.799,1.908-0.482,3.659-2.71,4.616c-1.433,0.637-6.209,0.32-7.642-0.478c-3.021-1.751-5.093-7.32-5.093-10.507
					c-0.16-4.299,2.071-8.117,0-12.095c0.955-0.799,1.911-2.392,3.026-3.186c0.953-0.637,2.066,0.476,2.544-1.436
					c-0.478-0.317-1.115-0.952-1.274-0.952c2.388,1.11,6.849-1.593,8.915,0c1.273,0.952,2.709,1.274,3.503-0.318
					c0.161-0.478-1.113-2.388-0.478-3.661c0.478,2.705,2.229,3.184,4.616,1.436c0.956,0.951,3.502,0.633,5.253,1.588
					c1.75,1.113,2.069,2.863,4.138,0.477c1.275,1.911,1.436,1.911,1.913,3.823c0.479,1.75,1.432,6.207,3.023,7.001
					c3.342,2.073,2.547-3.502,2.229-5.413c-0.16-0.157-0.16-5.411-0.319-5.411c-5.092-1.113-3.184-5.094-0.318-7.797
					c0.478-0.32,4.139-1.594,5.729-2.866c1.432-1.274,3.185-3.505,2.387-5.573c0.798,0,1.436-0.636,1.754-1.432
					c-0.479-0.157-2.389-1.751-2.709-1.594c1.116-0.637,0.955-1.593,0.32-2.549c1.594-0.951,0.796-2.702,2.389-3.34
					c1.751,2.389,5.252-0.314,3.5-2.228c1.593-2.229,5.254-1.114,6.209-3.183c2.387,0.635,0.64-2.389,1.91-4.138
					c1.115-1.438,3.027-1.438,4.46-2.229c0,0.155,3.979-2.231,2.703-2.39c2.707,0.318,8.118-2.546,3.981-4.936
					c0.636-1.43-1.435-2.069-2.867-2.386c1.115-0.318,2.548,0.316,3.503-0.318c2.068-1.432,0.635-2.068-1.113-2.547
					c-2.229-0.638-5.095,0.794-6.845,1.91C290.372,176.836,289.577,178.586,287.985,178.906z M321.573,285.4
					c-0.955-0.957-2.708-0.638-3.978-1.277c-1.276-0.477-2.23-0.954-3.821-1.272c0.318-3.183-3.185-4.298-5.413-5.89
					c-2.07-1.591-3.344-3.341-6.367-2.703c-0.32,0.16-3.502,1.27-2.865,1.906c-2.07-1.746-3.026-2.702-5.731-3.5
					c-2.545-0.799-4.298-3.979-6.843-1.114c-1.276,1.273-0.64,3.183-1.276,4.458c-2.065-1.75,1.911-3.824,0.322-5.732
					c-1.911-2.229-5.257,1.433-6.849,2.389c-0.956,0.798-2.069,1.112-2.704,2.068c-0.798,1.117-1.115,2.549-1.752,3.662
					c-0.479-1.275-3.186-0.956-3.345-1.912c0.637,3.822,0.637,7.803,1.435,11.623c0.476,2.227,0,5.889-1.911,7.639
					c-1.91,1.75-4.297,3.662-4.617,6.369c-0.318,1.91,0.159,3.66,1.912,4.137c0.16,2.387-2.548,4.141-2.39,6.687
					c0,0.161,0.159,1.751,0.32,2.55C287.51,311.666,306.929,300.837,321.573,285.4z"/>
			</g>
			<g>
				<g id="Eye_12_">
					<g>
						<path fill="#1E4A54" d="M317.12,198.83c-1.855-13.903-14.609-23.602-28.473-21.719c-13.864,1.849-23.576,14.556-21.724,28.446
							c1.854,13.85,14.597,23.59,28.47,21.72C309.244,225.444,318.998,212.662,317.12,198.83z"/>
					</g>
					<g>
						<path fill="none" stroke="#F7F9F9" stroke-width="5" stroke-miterlimit="10" d="M317.12,198.83
							c-1.855-13.903-14.609-23.602-28.473-21.719c-13.864,1.849-23.576,14.556-21.724,28.446c1.854,13.85,14.597,23.59,28.47,21.72
							C309.244,225.444,318.998,212.662,317.12,198.83z"/>
					</g>
				</g>
				<g id="Eye_11_">
					<g>
						<path fill="#FFFFFF" d="M307.682,193.011c-0.54-4.09-4.291-6.95-8.381-6.397c-4.079,0.544-6.936,4.288-6.393,8.379
							c0.545,4.082,4.299,6.951,8.386,6.398C305.368,200.841,308.241,197.088,307.682,193.011z"/>
					</g>
				</g>
				<g id="Eye_10_">
					<g>
						<path fill="#FFFFFF" d="M289.015,196.124c-0.263-2.015-2.111-3.42-4.115-3.145c-2.011,0.267-3.416,2.102-3.147,4.121
							c0.27,2.007,2.113,3.409,4.12,3.141C287.877,199.968,289.296,198.121,289.015,196.124z"/>
					</g>
				</g>
			</g>
			<g>
				<g id="Eye_9_">
					<g>
						<path fill="#1E4A54" d="M229.131,198.83c-1.853-13.903-14.607-23.602-28.472-21.719
							c-13.863,1.849-23.576,14.556-21.723,28.446c1.853,13.85,14.598,23.59,28.468,21.72
							C221.255,225.444,231.009,212.662,229.131,198.83z"/>
					</g>
					<g>
						<path fill="none" stroke="#F7F9F9" stroke-width="5" stroke-miterlimit="10" d="M229.131,198.83
							c-1.853-13.903-14.607-23.602-28.472-21.719c-13.863,1.849-23.576,14.556-21.723,28.446
							c1.853,13.85,14.598,23.59,28.468,21.72C221.255,225.444,231.009,212.662,229.131,198.83z"/>
					</g>
				</g>
				<g id="Eye_8_">
					<g>
						<path fill="#FFFFFF" d="M219.693,193.011c-0.538-4.09-4.292-6.95-8.379-6.397c-4.081,0.544-6.938,4.288-6.395,8.379
							c0.547,4.082,4.299,6.951,8.385,6.398C217.38,200.841,220.253,197.088,219.693,193.011z"/>
					</g>
				</g>
				<g id="Eye_7_">
					<g>
						<path fill="#FFFFFF" d="M201.029,196.124c-0.266-2.015-2.114-3.42-4.117-3.145c-2.012,0.267-3.418,2.102-3.148,4.121
							c0.271,2.007,2.114,3.409,4.12,3.141C199.888,199.968,201.31,198.121,201.029,196.124z"/>
					</g>
				</g>
			</g>
			<path opacity="0.8" fill="#EEF3F3" d="M213.098,130.147c-5.254-7.721-21.214-6.018-35.651,3.803
				c-14.435,9.823-21.876,24.045-16.623,31.767c5.253,7.718,21.215,6.015,35.648-3.808
				C210.907,152.091,218.35,137.868,213.098,130.147z"/>
			<path opacity="0.8" fill="#EEF3F3" d="M228.158,123.176c0.734-2.771-1.051-5.65-3.986-6.429c-2.937-0.776-5.915,0.838-6.648,3.61
				c-0.735,2.773,1.053,5.648,3.988,6.426C224.45,127.564,227.426,125.948,228.158,123.176z"/>
			<path opacity="0.4" fill="#1E4A54" d="M350.863,149.123c-3.817,91.328-79.029,164.205-171.295,164.205
				c-1.549,0-3.079-0.077-4.622-0.118c20.387,15.227,45.682,24.242,73.084,24.242c67.519,0,122.253-54.734,122.253-122.254
				C370.283,190.849,363.135,168.182,350.863,149.123z"/>
		</g>
	</g>
</g>
</svg>
