<?xml version="1.0" encoding="utf-8"?>
<!-- Generator: Adobe Illustrator 15.0.0, SVG Export Plug-In . SVG Version: 6.00 Build 0)  -->
<!DOCTYPE svg PUBLIC "-//W3C//DTD SVG 1.1//EN" "http://www.w3.org/Graphics/SVG/1.1/DTD/svg11.dtd">
<svg version="1.1" id="Graphics" xmlns="http://www.w3.org/2000/svg" xmlns:xlink="http://www.w3.org/1999/xlink" x="0px" y="0px"
	 width="500px" height="500px" viewBox="0 0 500 500" enable-background="new 0 0 500 500" xml:space="preserve">
<g>
	<g>
		<g>
			<path fill="#366842" d="M250,14c31.866,0,62.771,6.238,91.857,18.541c28.101,11.886,53.341,28.904,75.02,50.583
				c21.678,21.679,38.697,46.919,50.583,75.02C479.762,187.229,486,218.134,486,250s-6.238,62.771-18.541,91.857
				c-11.886,28.101-28.904,53.341-50.583,75.02c-21.679,21.678-46.919,38.697-75.02,50.583C312.771,479.762,281.866,486,250,486
				s-62.771-6.238-91.857-18.541c-28.101-11.886-53.341-28.904-75.02-50.583c-21.678-21.679-38.697-46.919-50.583-75.02
				C20.238,312.771,14,281.866,14,250s6.238-62.771,18.541-91.857c11.886-28.101,28.904-53.341,50.583-75.02
				c21.679-21.678,46.919-38.697,75.02-50.583C187.229,20.238,218.134,14,250,14 M250,0C111.93,0,0,111.93,0,250s111.93,250,250,250
				s250-111.93,250-250S388.07,0,250,0L250,0z"/>
		</g>
		<g>
			<path fill="#EEF3F3" d="M250,479c-61.165,0-118.67-23.821-161.924-67.075C44.821,368.67,21,311.165,21,250
				c0-61.164,23.821-118.67,67.076-161.924S188.836,21,250,21c61.165,0,118.67,23.821,161.925,67.076
				C455.179,131.33,479,188.835,479,250s-23.821,118.67-67.075,161.925C368.67,455.179,311.165,479,250,479z"/>
			<path fill="#8CB61D" d="M250,28c29.974,0,59.045,5.868,86.405,17.441c26.434,11.182,50.177,27.191,70.57,47.584
				c20.393,20.393,36.403,44.137,47.584,70.57C466.132,190.956,472,220.026,472,250c0,29.974-5.868,59.045-17.441,86.405
				c-11.181,26.434-27.191,50.177-47.584,70.57c-20.394,20.393-44.137,36.403-70.57,47.584C309.045,466.132,279.974,472,250,472
				c-29.974,0-59.044-5.868-86.404-17.441c-26.434-11.181-50.177-27.191-70.57-47.584c-20.394-20.394-36.403-44.137-47.584-70.57
				C33.868,309.045,28,279.974,28,250c0-29.974,5.868-59.044,17.441-86.404c11.182-26.434,27.191-50.177,47.584-70.57
				c20.393-20.394,44.137-36.403,70.57-47.584C190.956,33.868,220.026,28,250,28 M250,14C119.669,14,14,119.669,14,250
				c0,130.332,105.669,236,236,236c130.332,0,236-105.668,236-236C486,119.669,380.332,14,250,14L250,14z"/>
		</g>
	</g>
	<g>
		<path fill="#EEF3F3" d="M250,363c-62.309,0-113-50.691-113-113s50.691-113,113-113s113,50.691,113,113S312.309,363,250,363z"/>
		<path fill="#B3C589" d="M250,144c58.449,0,106,47.551,106,106s-47.551,106-106,106s-106-47.551-106-106S191.551,144,250,144
			 M250,130c-66.271,0-120,53.73-120,120c0,66.271,53.729,120,120,120s120-53.729,120-120C370,183.73,316.271,130,250,130L250,130z"
			/>
	</g>
	<path fill="#B3C589" d="M210.621,208.634c-4.169,8.718-13.522,13.896-23.092,12.891l-65.921,137.829
		c-3.604,7.533-12.83,10.79-20.363,7.187l-13.774-6.588c-7.534-3.604-10.79-12.831-7.188-20.363l65.922-137.829
		c-6.788-6.818-8.628-17.35-4.459-26.068l32.942-68.873c1.801-3.768,6.414-5.396,10.182-3.594c3.766,1.801,5.395,6.415,3.593,10.182
		l-21.412,44.769c-1.802,3.767-0.173,8.38,3.594,10.181c3.767,1.802,8.38,0.174,10.181-3.593l21.413-44.769
		c1.801-3.767,6.415-5.395,10.181-3.593c3.767,1.802,5.396,6.415,3.594,10.182l-21.412,44.769
		c-1.802,3.767-0.173,8.379,3.594,10.181s8.38,0.175,10.181-3.593l21.412-44.768c1.802-3.768,6.416-5.396,10.182-3.594
		c3.768,1.801,5.396,6.415,3.594,10.182L210.621,208.634z"/>
	<path fill="#00727B" d="M200.621,198.634c-4.169,8.718-13.522,13.896-23.092,12.891l-65.921,137.829
		c-3.604,7.533-12.83,10.79-20.363,7.187l-13.774-6.588c-7.534-3.604-10.79-12.831-7.188-20.363l65.922-137.829
		c-6.788-6.818-8.628-17.35-4.459-26.068l32.942-68.873c1.801-3.768,6.414-5.396,10.182-3.594c3.766,1.801,5.395,6.415,3.593,10.182
		l-21.412,44.769c-1.802,3.767-0.173,8.38,3.594,10.181c3.767,1.802,8.38,0.174,10.181-3.593l21.413-44.769
		c1.801-3.767,6.415-5.395,10.181-3.593c3.767,1.802,5.396,6.415,3.594,10.182l-21.412,44.769
		c-1.802,3.767-0.173,8.379,3.594,10.181s8.38,0.175,10.181-3.593l21.412-44.768c1.802-3.768,6.416-5.396,10.182-3.594
		c3.768,1.801,5.396,6.415,3.594,10.182L200.621,198.634z"/>
	<path fill="#B3C589" d="M402.455,325.122c2.234,8.046-2.58,16.563-10.626,18.798l-14.713,4.086
		c-8.045,2.234-16.563-2.58-18.798-10.625l-23.209-83.567l-15.036,4.176c-1.954,0.543-4.156-0.702-4.699-2.656l-34.69-124.908
		c-5.618-20.229,6.336-41.378,26.565-46.997l18.715-5.197c4.022-1.117,8.282,1.291,9.399,5.313L402.455,325.122z"/>
	<path fill="#00727B" d="M392.456,315.122c2.233,8.046-2.581,16.563-10.627,18.798l-14.713,4.086
		c-8.045,2.234-16.563-2.58-18.798-10.625l-23.209-83.567l-15.036,4.176c-1.954,0.543-4.156-0.702-4.699-2.656l-34.69-124.908
		c-5.618-20.229,6.336-41.378,26.565-46.997l18.715-5.197c4.022-1.117,8.282,1.291,9.399,5.313L392.456,315.122z"/>
	<ellipse fill="#BE8952" cx="229.076" cy="263.668" rx="18" ry="16"/>
	<ellipse fill="#BE8952" cx="258.097" cy="308" rx="9.906" ry="12.025"/>
	<ellipse fill="#BE8952" cx="211.076" cy="316.359" rx="6.886" ry="8.358"/>
	<ellipse fill="#BE8952" cx="309.743" cy="301.987" rx="6.886" ry="6.013"/>
	<ellipse fill="#BE8952" cx="272.41" cy="257.655" rx="6.886" ry="6.013"/>
	<ellipse fill="#BE8952" cx="251.794" cy="194.071" rx="4.718" ry="4.429"/>
	<ellipse fill="#BE8952" cx="91.794" cy="230.821" rx="4.718" ry="4.429"/>
</g>
</svg>
