<?xml version="1.0" encoding="utf-8"?>
<!-- Generator: Adobe Illustrator 15.0.0, SVG Export Plug-In . SVG Version: 6.00 Build 0)  -->
<!DOCTYPE svg PUBLIC "-//W3C//DTD SVG 1.1//EN" "http://www.w3.org/Graphics/SVG/1.1/DTD/svg11.dtd">
<svg version="1.1" id="Graphics" xmlns="http://www.w3.org/2000/svg" xmlns:xlink="http://www.w3.org/1999/xlink" x="0px" y="0px"
	 width="50px" height="50px" viewBox="0 0 50 50" enable-background="new 0 0 50 50" xml:space="preserve">
<path fill="#1E4A54" d="M0,25C0,11.193,11.193,0,25,0v50C11.193,50,0,38.807,0,25z"/>
<g>
	<path fill="#3A3D42" d="M25,2c12.682,0,23,10.318,23,23S37.683,48,25,48S2,37.682,2,25S12.318,2,25,2 M25,0C11.193,0,0,11.193,0,25
		s11.192,25,25,25c13.807,0,25-11.193,25-25S38.807,0,25,0L25,0z"/>
</g>
<g>
	<path fill="#D8E3E2" d="M25,47C12.87,47,3,37.131,3,25S12.87,3,25,3s22,9.869,22,22S37.131,47,25,47z"/>
	<path fill="#8FADB4" d="M25,4c11.58,0,21,9.42,21,21s-9.42,21-21,21S4,36.58,4,25S13.421,4,25,4 M25,2C12.298,2,2,12.298,2,25
		s10.298,23,23,23c12.701,0,23-10.298,23-23S37.702,2,25,2L25,2z"/>
</g>
<g>
	<g>
		<path fill="#3A3D42" d="M7.083,36c-0.153,0.288-0.769,0.655-1.229,0.436s-0.687-0.787-0.436-1.229
			c0.116-0.203,0.519-0.774,0.519-0.774l1.464,0.698C7.402,35.13,7.198,35.785,7.083,36z"/>
		<path fill="#3A3D42" d="M6.199,33.812L7.642,34.5c0.497-1.095,0.845-0.708,1.532-1.833c1.5-2.457-0.414-3.698-1.948-1.382
			C6.221,32.803,6.199,33.812,6.199,33.812z"/>
	</g>
	<g>
		<path fill="#3A3D42" d="M11.611,32.236c-0.237,0.223-0.43,0.914-0.098,1.3c0.332,0.386,0.939,0.458,1.3,0.099
			c0.165-0.164,0.611-0.703,0.611-0.703l-1.057-1.231C12.368,31.701,11.79,32.068,11.611,32.236z"/>
		<path fill="#3A3D42" d="M13.956,32.518l-1.042-1.213c0.927-0.766,0.462-1,1.369-1.958c1.979-2.091,3.677-0.568,1.843,1.519
			C14.923,32.232,13.956,32.518,13.956,32.518z"/>
	</g>
	<g>
		<path fill="#3A3D42" d="M24.028,16.335c-0.237,0.223-0.43,0.914-0.098,1.3c0.332,0.386,0.939,0.458,1.3,0.099
			c0.165-0.164,0.611-0.703,0.611-0.703L24.784,15.8C24.784,15.8,24.206,16.168,24.028,16.335z"/>
		<path fill="#3A3D42" d="M26.372,16.617l-1.042-1.213c0.927-0.766,0.462-1,1.369-1.958c1.979-2.091,3.677-0.568,1.843,1.519
			C27.34,16.332,26.372,16.617,26.372,16.617z"/>
	</g>
	<g>
		<path fill="#3A3D42" d="M13.689,26.503c-0.153,0.288-0.769,0.655-1.229,0.436s-0.687-0.787-0.436-1.229
			c0.116-0.203,0.519-0.774,0.519-0.774l1.464,0.698C14.008,25.634,13.803,26.288,13.689,26.503z"/>
		<path fill="#3A3D42" d="M12.804,24.315l1.443,0.688c0.497-1.095,0.845-0.708,1.532-1.833c1.5-2.457-0.414-3.698-1.948-1.382
			C12.826,23.306,12.804,24.315,12.804,24.315z"/>
	</g>
	<g>
		<path fill="#3A3D42" d="M20.023,19.536c-0.153,0.288-0.769,0.655-1.229,0.436s-0.687-0.787-0.436-1.229
			c0.116-0.203,0.519-0.774,0.519-0.774l1.464,0.698C20.342,18.667,20.137,19.321,20.023,19.536z"/>
		<path fill="#3A3D42" d="M19.138,17.348l1.443,0.688c0.497-1.095,0.845-0.708,1.532-1.833c1.5-2.457-0.414-3.698-1.948-1.382
			C19.16,16.339,19.138,17.348,19.138,17.348z"/>
	</g>
	<g>
		<path fill="#3A3D42" d="M17.793,24.33c-0.237,0.223-0.43,0.914-0.098,1.3c0.332,0.386,0.939,0.458,1.3,0.099
			c0.165-0.164,0.611-0.703,0.611-0.703l-1.057-1.231C18.549,23.794,17.971,24.162,17.793,24.33z"/>
		<path fill="#3A3D42" d="M20.137,24.611l-1.042-1.213c0.927-0.766,0.462-1,1.369-1.958c1.979-2.091,3.677-0.568,1.843,1.519
			C21.105,24.326,20.137,24.611,20.137,24.611z"/>
	</g>
</g>
<g>
	<g opacity="0.5">
		<circle fill="#BCCFD1" cx="20" cy="19.783" r="8"/>
	</g>
	<g>
		<path fill="#6A8F97" d="M20,13.283c3.584,0,6.5,2.916,6.5,6.5s-2.916,6.5-6.5,6.5s-6.5-2.916-6.5-6.5S16.417,13.283,20,13.283
			 M20,11.783c-4.418,0-8,3.582-8,8s3.582,8,8,8s8-3.582,8-8S24.418,11.783,20,11.783L20,11.783z"/>
	</g>
	<rect x="19.304" y="27.783" fill="#6A8F97" width="1.392" height="2.087"/>
	<rect x="18.261" y="30.565" fill="#BE8952" width="3.479" height="7.652"/>
	<path fill="none" stroke="#EEF3F3" stroke-width="1.5" stroke-linecap="round" stroke-miterlimit="10" d="M15.987,17.465
		c0.801-1.385,2.299-2.316,4.014-2.316"/>
	<circle fill="#EEF3F3" cx="15.366" cy="19.783" r="0.75"/>
</g>
<g>
	<path fill="#8FADB4" d="M25,4c11.58,0,21,9.42,21,21s-9.42,21-21,21S4,36.58,4,25S13.421,4,25,4 M25,2C12.298,2,2,12.298,2,25
		s10.298,23,23,23c12.701,0,23-10.298,23-23S37.702,2,25,2L25,2z"/>
</g>
<g>
	<path fill="#3A3D42" d="M50,25C50,11.193,38.807,0,25,0v50C38.807,50,50,38.807,50,25z"/>
	<g>
		<path fill="#EE445F" d="M33.894,36.614c-1.509,0-2.736-1.227-2.736-2.739V19.353c0-1.512,1.228-2.739,2.736-2.739
			c0.414,0,0.75,0.337,0.75,0.747s-0.336,0.747-0.75,0.747c-0.685,0-1.242,0.56-1.242,1.245v14.521c0,0.685,0.558,1.245,1.242,1.245
			c0.688,0,1.248-0.56,1.248-1.245V30.56c0-1.509,1.228-2.74,2.736-2.74h0.751c2.676,0,4.854-2.178,4.854-4.854
			c0-2.679-2.178-4.858-4.854-4.858h-0.751c-0.685,0-1.242,0.56-1.242,1.245v5.742c0,0.414-0.336,0.751-0.75,0.751
			c-0.411,0-0.744-0.337-0.744-0.751v-5.742c0-1.512,1.228-2.739,2.736-2.739h0.751c3.499,0,6.348,2.847,6.348,6.353
			c0,3.498-2.849,6.348-6.348,6.348h-0.751c-0.685,0-1.242,0.557-1.242,1.246v3.315C36.636,35.387,35.407,36.614,33.894,36.614z"/>
	</g>
</g>
</svg>
