<?xml version="1.0" encoding="utf-8"?>
<!-- Generator: Adobe Illustrator 15.0.0, SVG Export Plug-In . SVG Version: 6.00 Build 0)  -->
<!DOCTYPE svg PUBLIC "-//W3C//DTD SVG 1.1//EN" "http://www.w3.org/Graphics/SVG/1.1/DTD/svg11.dtd">
<svg version="1.1" id="Graphics" xmlns="http://www.w3.org/2000/svg" xmlns:xlink="http://www.w3.org/1999/xlink" x="0px" y="0px"
	 width="50px" height="50px" viewBox="0 0 50 50" enable-background="new 0 0 50 50" xml:space="preserve">
<g>
	<path fill="#1E4A54" d="M0,25C0,11.193,11.192,0,25,0v50C11.192,50,0,38.807,0,25z"/>
	<g>
		<path fill="#3A3D42" d="M25,2c12.682,0,23,10.318,23,23S37.682,48,25,48S2,37.682,2,25S12.318,2,25,2 M25,0
			C11.192,0,0,11.193,0,25s11.192,25,25,25c13.807,0,25-11.193,25-25S38.807,0,25,0L25,0z"/>
	</g>
	<g>
		<path fill="#D8E3E2" d="M25,47C12.869,47,3,37.131,3,25S12.869,3,25,3s22,9.869,22,22S37.131,47,25,47z"/>
		<path fill="#6A8F97" d="M25,4c11.58,0,21,9.42,21,21s-9.42,21-21,21S4,36.58,4,25S13.42,4,25,4 M25,2C12.298,2,2,12.298,2,25
			s10.298,23,23,23c12.701,0,23-10.298,23-23S37.701,2,25,2L25,2z"/>
	</g>
	<g>
		<path fill="#3A3D42" d="M50,25C50,11.193,38.807,0,25,0v50C38.807,50,50,38.807,50,25z"/>
		<g>
			<path fill="#EE445F" d="M33.894,36.614c-1.509,0-2.736-1.227-2.736-2.739V19.353c0-1.512,1.228-2.739,2.736-2.739
				c0.414,0,0.75,0.337,0.75,0.747s-0.336,0.747-0.75,0.747c-0.685,0-1.242,0.56-1.242,1.245v14.521
				c0,0.685,0.558,1.245,1.242,1.245c0.688,0,1.248-0.56,1.248-1.245V30.56c0-1.509,1.228-2.74,2.736-2.74h0.751
				c2.676,0,4.854-2.178,4.854-4.854c0-2.679-2.178-4.858-4.854-4.858h-0.751c-0.685,0-1.242,0.56-1.242,1.245v5.742
				c0,0.414-0.336,0.751-0.75,0.751c-0.411,0-0.744-0.337-0.744-0.751v-5.742c0-1.512,1.228-2.739,2.736-2.739h0.751
				c3.499,0,6.348,2.847,6.348,6.353c0,3.498-2.849,6.348-6.348,6.348h-0.751c-0.685,0-1.242,0.557-1.242,1.246v3.315
				C36.636,35.387,35.406,36.614,33.894,36.614z"/>
		</g>
	</g>
	<path fill-rule="evenodd" clip-rule="evenodd" fill="#BCCFD1" d="M21.888,26.257c0-4.066-3.606-7.364-8.053-7.364
		c-4.446,0-8.053,3.298-8.053,7.364c0,3.8,3.151,6.927,7.193,7.32c1.09,2.134,3.271,3.711,5.887,4.135
		c-1.619-0.986-2.824-2.494-3.333-4.259C19.162,32.743,21.888,29.791,21.888,26.257z"/>
	<path fill-rule="evenodd" clip-rule="evenodd" fill="#1AA9D2" d="M22.993,25.151c0-4.066-3.605-7.363-8.053-7.363
		s-8.053,3.297-8.053,7.363c0,3.801,3.149,6.927,7.191,7.321c1.092,2.134,3.271,3.711,5.887,4.134
		c-1.619-0.986-2.823-2.492-3.331-4.258C20.268,31.636,22.993,28.687,22.993,25.151z"/>
	<g>
		<path fill="#F7F9F9" d="M17.027,24.573l-0.29,1.436h1.597v1.275h-1.838l-0.477,2.511h-1.36l0.483-2.511H13.94l-0.469,2.511h-1.33
			l0.458-2.511h-1.474v-1.275h1.714l0.291-1.436h-1.559v-1.292h1.787l0.478-2.518h1.355l-0.477,2.518h1.225l0.481-2.518h1.331
			l-0.482,2.518h1.484v1.292H17.027z M14.183,26.009h1.212l0.291-1.436h-1.213L14.183,26.009z"/>
	</g>
</g>
</svg>
