<?xml version="1.0" encoding="utf-8"?>
<!-- Generator: Adobe Illustrator 15.0.0, SVG Export Plug-In . SVG Version: 6.00 Build 0)  -->
<!DOCTYPE svg PUBLIC "-//W3C//DTD SVG 1.1//EN" "http://www.w3.org/Graphics/SVG/1.1/DTD/svg11.dtd">
<svg version="1.1" id="Graphics" xmlns="http://www.w3.org/2000/svg" xmlns:xlink="http://www.w3.org/1999/xlink" x="0px" y="0px"
	 width="50px" height="50px" viewBox="0 0 50 50" enable-background="new 0 0 50 50" xml:space="preserve">
<g>
	<path fill="#1E4A54" d="M0,25C0,11.193,11.192,0,25,0v50C11.192,50,0,38.807,0,25z"/>
	<g>
		<path fill="#3A3D42" d="M25,2c12.682,0,23,10.318,23,23S37.682,48,25,48S2,37.682,2,25S12.318,2,25,2 M25,0
			C11.192,0,0,11.193,0,25s11.192,25,25,25c13.807,0,25-11.193,25-25S38.807,0,25,0L25,0z"/>
	</g>
	<g>
		<path fill="#D8E3E2" d="M25,47C12.869,47,3,37.131,3,25S12.869,3,25,3s22,9.869,22,22S37.131,47,25,47z"/>
		<path fill="#6A8F97" d="M25,4c11.58,0,21,9.42,21,21s-9.42,21-21,21S4,36.58,4,25S13.42,4,25,4 M25,2C12.298,2,2,12.298,2,25
			s10.298,23,23,23c12.701,0,23-10.298,23-23S37.701,2,25,2L25,2z"/>
	</g>
	<path fill-rule="evenodd" clip-rule="evenodd" fill="#EE445F" d="M34,22.986c0-0.027,0-0.063,0-0.094
		c-0.574-0.189-1.89-0.364-2.061,0.094c-0.619-0.281-0.758,0.027-1.402-0.094c0.29,0.709,1.383,0.613,1.59,1.406
		c-1.151,0.06-1.722-1.756-2.623-1.033c0.459,0.761,1.621,0.82,1.873,1.785c-1.073-0.35-1.661-1.914-2.996-1.408
		c0.119,0.52-0.209,0.602-0.467,0.752c0.531,1.217,2.547,1.442,2.808,2.617c-1.125-0.779-2.466-1.341-3.179-2.528
		c-0.383-0.116-0.759-0.239-0.752-0.745c1.941-0.279,2.467-1.966,2.808-3.842c0.396,0.539,0.067,1.755-0.094,2.34
		c0.179,0.041,0.24,0.203,0.472,0.189c0.109-1.046,0.697-1.613,1.313-2.155c-0.014,0.925-1.182,1.095-0.941,1.966
		c0.468-0.03,0.454-0.545,0.75-0.75c-0.009,0.351-0.106,0.269,0,0.562c0.629-0.331,0.839,0.268,1.685,0.188
		c0.191-0.309,0.203-0.795,0.283-1.217c-0.648-0.229-0.977-0.775-1.501-1.123c0.139-1.037-1.356-1.828-2.061-2.623
		c-0.02,0.073-0.002,0.184-0.088,0.184c-0.801-0.807-1.805-0.711-2.439-1.495c-0.192,0.086-0.486-0.023-0.746,0.182
		c0.123-0.123,0.123-0.344-0.096-0.37c-0.362,0.46-0.889-0.464-1.682-0.19c0.017-0.178-0.109-0.205-0.096-0.371
		c-0.258,0.286-0.355-0.21-0.561-0.285c-0.561-0.186-1.887-0.192-2.439-0.371c-1.358-0.44-2.591,0.765-3.186,2.155
		c-0.902-0.308-1.662-0.926-2.619-0.938c-0.998-0.013-2.563,1.354-2.905,1.967c-1.027,0.372-1.477,1.329-2.34,1.873
		c-0.046,0.446-0.423,0.767-0.75,0.656c-0.02,0.176,0.106,0.206,0.094,0.378c-1.081,0.027-1.163,1.686-2.057,1.873
		c-0.041,0.222,0.168,0.199,0.09,0.465c-1.001,0.276-0.568,2.057-1.497,2.625c0.302,0.617,0.334,1.274,0.374,1.963
		c-0.384,0.188-0.429,0.804-0.184,1.127c-0.129,0-0.253,0-0.377,0c-0.03,0.438,0.29,0.52,0.377,0.839
		c0.602,0.04,1.101-0.018,1.217-0.468c0.305,0.004,0.465,0.162,0.84,0.094c-0.109-0.75,0.638-0.063,0.938-0.376
		c0.072-0.852-1.031-0.527-1.031-1.306c0.598,0.154,1.024,0.854,1.592,0.745c-0.036-0.495-0.541-0.521-0.655-0.936
		c0.455,0.168,0.875,0.374,1.124,0.751c-0.406,0.591-0.674,1.32-1.124,1.873c-1.025-0.091-1.204,0.67-2.061,0.746
		c-0.069,0.785,0.739,0.708,1.034,0.655c-0.199,0.364,0.137,0.157,0.09,0.562c0.227,0.039,0.204-0.17,0.465-0.09
		c-0.008,0.232-0.014,0.451,0.096,0.561c0.375,0.068,0.378,0.068,0.75,0c-0.233,0.373,0.446,0.52,0.656,0.752
		c0.043-0.116,0.098-0.217,0.188-0.285c0.123,0.408,0.737,0.326,0.935,0.655c-0.007,0.149-0.237,0.073-0.191,0.28
		c0.803,0.406,1.887,0.526,2.72,0.471c-0.19,0.191,0.039,0.184,0.188,0.278c-0.009-0.161,0.071-0.237,0.188-0.278
		c0.021,0.428,0.199,0.349,0.561,0.278c-0.077,0.263,0.13,0.243,0.089,0.474c0.528-0.246,0.67,0.445,1.223,0.465
		c0.049-0.136,0.145-0.229,0.28-0.282c0,0.094,0,0.188,0,0.282c0.423-0.134,0.519,0.101,0.561-0.282
		c0.192,0.026,0.188,0.255,0.282,0.372c0.607-0.089,0.948-0.466,1.4-0.466c-0.278-1.311-0.646-3.028-0.65-4.307
		c0.623,1.218,0.473,2.774,0.841,4.117c0.241,0.266,0.438-0.483,0.655,0c0.083-0.164,0.207-0.288,0.371-0.372
		c0.008-1.408-0.77-2.533-0.561-3.839c0.383,1.242,0.255,2.993,1.127,3.745c0.253-0.26-0.158-0.608,0.185-0.745
		c0.137,0.235,0.04,0.711,0.561,0.561c0.26-0.143-0.164-0.383,0.096-0.471c0.216-0.028,0.104,0.271,0.282,0.282
		c0.639-0.63-0.597-1.677-0.188-2.061c0.254,0.652,0.446,1.366,0.843,1.873c0.466-0.139,0.751-0.125,1.217-0.279
		c-0.653-1.531-1.185-3.186-1.685-4.867c-0.296-0.049-0.213,0.287-0.566,0.184c0.123-0.498-0.398-0.84-0.09-1.217
		c0.22,0.028,0.172,0.325,0.468,0.282c0.301-0.213-0.164-0.698,0.093-0.844c0.193,0.181,0.179,0.571,0.28,0.844
		c0.188,0.226,0.403-0.159,0.471,0.191c-0.421,2.027,0.834,3.952,1.496,5.523c0.282,0,0.562,0,0.843,0
		c0.122-0.232-0.274-0.392,0-0.472c0.149,0.135,0.073,0.489,0.375,0.472c0.201-0.677,1.53-0.219,1.778-0.846
		c0.582,0.244,0.885-0.533,1.688-0.371c0.032-0.408,0.25-0.626,0.656-0.656c0.112-0.171,0.015-0.547,0.184-0.656
		c0.124,0,0.089,0.164,0.188,0.185c0.03-0.344,0.479-0.267,0.468-0.655c-0.088-0.137-0.184-0.742-0.088-0.746
		c0.344-0.103,0.143,0.348,0.465,0.278c0.11-0.987,1.574-0.968,0.935-2.246c0.543,0.031,0.547-0.383,0.843-0.375
		c-0.055-0.14-0.473-0.39-0.282-0.468c0.463,0.234,0.011-0.559,0.656-0.468c0.106-0.533-0.477-0.548-0.656-1.026
		c0.256-0.068,0.189,0.182,0.377,0.184c0.068-0.287-0.096-0.342-0.095-0.562c0.136,0.023,0.157,0.153,0.28,0.188
		c0.025-0.308,0.24-0.708-0.089-0.844c0.289-0.086,0.292-0.397,0.65-0.183c0.202-0.313,0.2-0.465,0.566-0.656
		c0-0.225-0.164-0.279-0.102-0.561C33.765,23.125,33.861,23.034,34,22.986z M29.225,24.483c0.427,0.39,1.1,0.526,1.123,1.312
		C29.764,25.57,29.445,25.078,29.225,24.483z M30.537,25.139c0.018-0.332-0.438-0.184-0.376-0.562
		C30.419,24.561,30.881,25.16,30.537,25.139z M29.131,19.708c0.196,0.233-0.083,0.79-0.372,0.845
		C28.691,20.078,28.896,19.876,29.131,19.708z M28.664,26.268c-0.614,0.016-0.543-0.649-1.032-0.752
		C28.178,25.189,28.463,25.93,28.664,26.268z M27.543,18.674c0.465,0.656,0.41,2.633-0.191,3.095
		C27.547,20.771,27.134,19.615,27.543,18.674z M26.23,17.648c0.15,0.192,0.303,0.381,0.372,0.656
		c-0.167-0.013-0.194,0.111-0.372,0.094C26.23,18.148,26.23,17.895,26.23,17.648z M25.014,16.524c0.09,0,0.185,0,0.278,0
		c0.106,0.643,0.136,1.363,0.188,2.061C24.884,18.385,25,17.02,25.014,16.524z M24.636,16.801c-0.274-0.102-0.347-0.055-0.468,0.191
		c-0.152-0.095-0.098-0.397-0.188-0.562C24.251,16.208,24.658,16.446,24.636,16.801z M24.453,17.93c0-0.282,0-0.562,0-0.844
		C24.754,17.149,24.891,17.909,24.453,17.93z M24.074,19.146c0.078,0.047,0.152,0.098,0.283,0.094
		c0.034,0.499-0.16,0.656,0.096,0.936c0.443-0.348,0.355,0.132,0.933,0.094c0.038-0.347-0.38-0.246-0.282-0.656
		c0.777-0.043,0.204,0.911,0.566,1.123c-0.52,0.049-0.696-0.24-1.128-0.279c-0.356,0.017-0.057,0.69-0.28,0.846
		C23.72,21.107,24.01,19.637,24.074,19.146z M23.606,16.057c0.236,0.102,0.272,0.414,0.28,0.744
		C23.608,16.742,23.572,16.432,23.606,16.057z M23.236,20.458c-0.447-0.384-0.189-1.418-0.379-2.249
		C23.359,18.586,23.08,19.735,23.236,20.458z M21.358,21.77c0.201-0.436-0.205-0.779-0.096-1.406
		C21.487,20.545,21.754,21.583,21.358,21.77z M21.262,20.088c-0.18-0.198-0.26-0.492-0.372-0.757
		C21.194,19.399,21.256,19.719,21.262,20.088z M20.796,20.364c-0.333-0.447-0.505-1.061-0.751-1.594
		C20.506,19.094,20.82,19.56,20.796,20.364z M18.268,20.648c-0.581-0.451-0.396-1.673-0.936-2.157
		C17.947,18.533,18.128,19.816,18.268,20.648z M17.145,20.553c0.357,0.921,0.795,1.764,1.217,2.625
		C17.652,22.604,17.292,21.688,17.145,20.553z M17.426,23.454c-0.922,0.121-1.018-1.037-1.127-1.873c0.096,0,0.19,0,0.284,0
		C16.614,22.57,16.942,22.73,17.426,23.454z M17.612,20.458c0.287,0.245,0.409,0.655,0.471,1.123
		C17.748,21.387,17.774,20.827,17.612,20.458z M17.612,20.364c-0.226-0.054-0.208-0.354-0.279-0.562
		C17.622,19.793,17.611,20.088,17.612,20.364z M16.771,19.896c0.171,0.137,0.414,0.208,0.374,0.562
		c-0.148-0.136-0.367-0.199-0.562-0.282C16.614,20.053,16.748,20.033,16.771,19.896z M16.677,20.738
		c-0.12,0.533,0.388,0.802,0.183,1.127c-0.413-0.491-0.445-1.364-1.121-1.595c0.512-0.47-0.307-0.751-0.185-1.405
		C16.135,19.282,15.917,20.498,16.677,20.738z M15.643,18.585c-0.355-0.02-0.223-0.526-0.561-0.561
		C15.34,17.772,15.616,18.297,15.643,18.585z M14.426,18.585c0.473,1.06,1.031,2.03,1.501,3.09
		c-0.626-0.532-0.927-1.382-1.312-2.155c-0.263,0.011-0.397,0.354-0.655,0.095C14.303,19.394,14.426,18.902,14.426,18.585z
		 M15.833,23.454c-0.427,0.257-0.875-1.05-1.497-1.217c-0.039-0.522-0.566-0.846-0.282-1.405
		C14.639,21.716,15.231,22.59,15.833,23.454z M14.148,20.738c-0.328-0.358-0.477-0.896-0.655-1.407
		C13.934,19.582,14.188,20.011,14.148,20.738z M14.71,24.016c-1.139-0.947-1.888-2.294-2.622-3.652
		C13.167,21.376,13.879,22.754,14.71,24.016z M13.12,22.705c-0.474,0.067-0.525-0.288-1.032-0.183
		c-0.072-0.711-0.738-0.828-0.751-1.596C11.66,21.79,12.522,22.115,13.12,22.705z M13.587,25.051
		c-0.104,0.235-0.503,0.179-0.844,0.182c-0.835-0.974-1.464-2.157-2.246-3.184C11.644,22.933,12.246,24.358,13.587,25.051z
		 M11.993,25.701c-0.779-0.314-1.08-1.101-1.59-1.685C11.125,24.386,11.687,24.917,11.993,25.701z M11.058,28.045
		c-0.269,0.075-0.243-0.134-0.467-0.095c0.043-0.329,0.166-0.583,0.374-0.75c-0.621-0.44-1.099-1.023-1.779-1.405
		c0.934-0.154,1.495,0.876,2.151,1.311c0.077-0.073-0.072-0.619,0.377-0.562c-0.159-0.763-1.129-0.222-1.405-0.933
		c0.177-0.041,0.563,0.124,0.467-0.19c0.653,0.315,1.148,0.785,1.777,1.123C12.266,27.254,11.241,27.227,11.058,28.045z
		 M12.463,27.012c0.36,0.244,0.035,0.91-0.375,0.938C12.047,27.474,12.277,27.266,12.463,27.012z M13.866,26.544
		c0.109-0.015,0.164,0.024,0.188,0.094c-0.94,0.935-1.461,2.284-1.778,3.841C11.794,28.893,13.08,27.484,13.866,26.544z
		 M13.493,28.791c-0.113,0.403-0.113,0.82,0,1.223c-0.491-0.273-0.29-0.662-0.374-1.313C13.314,28.66,13.367,28.762,13.493,28.791z
		 M13.493,30.852c-0.188-0.125-0.208-0.414-0.284-0.656C13.427,30.294,13.698,30.62,13.493,30.852z M13.587,31.039
		c0.402,0.287,0.344,1.028,0.562,1.498C13.811,32.188,13.659,31.654,13.587,31.039z M14.336,29.262
		c0.151-0.027,0.158,0.086,0.279,0.096c0.067,0.343-0.162,0.398-0.094,0.745C14.098,30.191,14.214,29.429,14.336,29.262z
		 M14.616,27.95c0.328,0.074-0.003,0.7-0.094,0.935C14.014,28.717,14.686,28.291,14.616,27.95z M14.616,27.762
		c0.067-0.305,0.043-0.701,0.371-0.75C14.727,27.338,14.946,27.655,14.616,27.762z M14.522,30.384
		c0.109,0.015,0.164-0.022,0.188-0.094c0.191,0.167,0.027,0.345,0.373,0.188c-0.506,0.637,0.461,1.546,0.751,2.246
		C15.253,32.462,14.754,31.305,14.522,30.384z M15.366,30.664c0.161,0.12,0.368,0.197,0.373,0.471
		C15.446,31.135,15.178,30.861,15.366,30.664z M15.833,30.479c-0.464-0.569-0.081-1.791,0.094-2.338
		c0.276,0.373-0.126,1.436,0.282,1.682C16.231,30.191,15.807,30.109,15.833,30.479z M16.209,30.852
		c0.309,0.549,0.002,1.514,0.467,2.252C16.119,32.669,16.081,31.723,16.209,30.852z M17.333,33.192
		c-0.158-0.136-0.274-0.554-0.094-0.745c0.123,0.029,0.148,0.164,0.278,0.184C17.62,32.981,17.284,32.898,17.333,33.192z
		 M17.426,28.141c0.24,1.258,0.087,2.365,0.186,3.834C17.344,30.918,17.103,29.357,17.426,28.141z M20.045,31.975
		c0.115-1.548-0.507-2.364-0.561-3.745C20.114,29.087,20.483,30.837,20.045,31.975z M21.358,31.881
		c-0.236-0.104-0.273-0.415-0.28-0.746C21.314,31.238,21.35,31.548,21.358,31.881z M21.078,30.946
		c-0.452-1.137-1.046-2.532-0.843-4.028C20.674,28.045,21.024,29.745,21.078,30.946z M20.329,26.45
		c-2.094,0.187-4.077-1.929-6.18-0.562c0.374-1.341,2.816-1.002,3.558-2.15c-0.067,0.551,0.954,0.275,0.749-0.19
		c0.175,0.013,0.314,0.061,0.373,0.19c1.416-0.735-0.383-3.083-0.656-4.312c0.916,0.336,0.684,2.17,1.407,3.095
		c0.289-0.026,0.53-0.096,0.75-0.191c-0.393-1.231-0.726-2.516-0.939-3.933c0.568,0.778,0.655,2.033,0.846,3.184
		c0.098,0.3,0.423,0,0.655,0.284c-0.045,0.263-0.49,0.131-0.374,0.561c0.281,0.151,0.787,0.593,0.936,0.096
		c0.212,0.035-0.014,0.51,0.281,0.465c1.77-0.725-0.379-3.281,0.374-4.777c0.146,1.447,0.404,2.783,0.562,4.216
		c0.951,0.719,3.235-0.213,4.589,0.279c-0.686,0.626-2.446,0.177-3.278,0.656C22.681,24.313,21.609,25.482,20.329,26.45z
		 M22.58,27.2c0.643,0.012,0.958,0.353,0.933,1.03C22.916,28.517,22.826,27.566,22.58,27.2z M23.141,28.885
		c0.54,0.549,0.594,1.586,0.746,2.528C23.502,30.759,23.156,29.595,23.141,28.885z M24.357,29.167
		c0.522,0.382,0.303,1.504,0.561,2.153C24.563,30.807,24.228,29.866,24.357,29.167z M23.236,26.172
		c0.793,0.417,1.533,1.709,1.777,2.995C24.236,28.35,23.824,27.17,23.236,26.172z M25.479,30.014
		c0.368,0.005,0.342,0.401,0.374,0.744C25.523,30.714,25.547,30.317,25.479,30.014z M27.164,27.95c-0.288,0.068-0.179,0.068-0.467,0
		c-0.083-0.971-0.74-1.381-1.311-1.873c-0.134,0.136,0.024,0.454,0.094,0.656c0.026,0.193,0.411,0.027,0.467,0.186
		c0.051,1.187,0.803,2.35,0.94,3.746c-0.695-0.39-0.558-1.102-0.845-1.963c-0.316-0.95-1.3-1.585-1.406-2.625
		c0.41,0.33,0.522-0.135,0.656-0.561c0.269-0.079,0.243,0.13,0.468,0.096c0.417,1.142,1.838,1.783,1.784,3.09
		C27.27,28.593,27.248,28.24,27.164,27.95z M27.632,29.072c0.506-0.002,0.337,0.661,0.471,1.03
		C27.78,29.924,27.57,29.638,27.632,29.072z M25.947,24.765c1.377,0.936,2.601,2.022,3.185,3.746
		C28.193,27.143,27.002,26.021,25.947,24.765z M28.76,26.828c-0.014-0.171,0.111-0.201,0.089-0.378
		c0.225,0.03,0.211,0.29,0.376,0.378C29.157,27.148,28.942,26.887,28.76,26.828z M29.32,27.2c0.482-0.138,0.875,0.619,1.122,1.03
		C29.833,28.12,29.665,27.57,29.32,27.2z"/>
	<g>
		<path fill="#3A3D42" d="M50,25C50,11.193,38.807,0,25,0v50C38.807,50,50,38.807,50,25z"/>
		<g>
			<path fill="#EE445F" d="M33.894,36.614c-1.509,0-2.736-1.227-2.736-2.739V19.353c0-1.512,1.228-2.739,2.736-2.739
				c0.414,0,0.75,0.337,0.75,0.747s-0.336,0.747-0.75,0.747c-0.685,0-1.242,0.56-1.242,1.245v14.521
				c0,0.685,0.558,1.245,1.242,1.245c0.688,0,1.248-0.56,1.248-1.245V30.56c0-1.509,1.228-2.74,2.736-2.74h0.751
				c2.676,0,4.854-2.178,4.854-4.854c0-2.679-2.178-4.858-4.854-4.858h-0.751c-0.685,0-1.242,0.56-1.242,1.245v5.742
				c0,0.414-0.336,0.751-0.75,0.751c-0.411,0-0.744-0.337-0.744-0.751v-5.742c0-1.512,1.228-2.739,2.736-2.739h0.751
				c3.499,0,6.348,2.847,6.348,6.353c0,3.498-2.849,6.348-6.348,6.348h-0.751c-0.685,0-1.242,0.557-1.242,1.246v3.315
				C36.636,35.387,35.406,36.614,33.894,36.614z"/>
		</g>
	</g>
</g>
</svg>
