<?xml version="1.0" encoding="utf-8"?>
<!-- Generator: Adobe Illustrator 15.0.0, SVG Export Plug-In . SVG Version: 6.00 Build 0)  -->
<!DOCTYPE svg PUBLIC "-//W3C//DTD SVG 1.1//EN" "http://www.w3.org/Graphics/SVG/1.1/DTD/svg11.dtd">
<svg version="1.1" id="Layer_1" xmlns="http://www.w3.org/2000/svg" xmlns:xlink="http://www.w3.org/1999/xlink" x="0px" y="0px"
	 width="36px" height="36px" viewBox="0 0 36 36" enable-background="new 0 0 36 36" xml:space="preserve">
<g>
	<g>
		<path fill="#F2C579" d="M-380.25,35.5c-9.649,0-17.5-7.851-17.5-17.5s7.851-17.5,17.5-17.5s17.5,7.851,17.5,17.5
			S-370.601,35.5-380.25,35.5z"/>
		<path fill="#E87800" d="M-380.25,1c9.374,0,17,7.626,17,17s-7.626,17-17,17s-17-7.626-17-17S-389.624,1-380.25,1 M-380.25,0
			c-9.94,0-18,8.06-18,18c0,9.941,8.06,18,18,18s18-8.059,18-18C-362.25,8.06-370.31,0-380.25,0L-380.25,0z"/>
	</g>
	<g>
		<circle fill="#EFA016" cx="-380.25" cy="18" r="16"/>
	</g>
	<g>
		<path fill="#00727B" d="M-380.25,2c-8.836,0-16,7.164-16,16s7.164,16,16,16V2z"/>
	</g>
	<path opacity="0.5" fill="#FFFFFF" d="M-373.25,12c0-3.86-3.141-7-7-7c-3.859,0-7,3.141-7,7c0,1.772,0.926,3.632,1.907,5.601
		c0.872,1.751,1.769,3.398,2.022,5.398h6.138c0.25-2,1.164-3.728,2.051-5.496C-374.164,15.576-373.25,13.755-373.25,12z"/>
	<path fill="#D8E0E3" d="M-380.25,4c-4.417,0-8,3.582-8,8c0,4,4,8,4,12h8.001c0-4,4-8,4-12C-372.25,7.582-375.833,4-380.25,4z
		 M-377.183,23h-6.138c-0.253-2-1.15-3.647-2.022-5.398c-0.98-1.969-1.907-3.829-1.907-5.601c0-3.86,3.14-7,7-7c3.86,0,7,3.141,7,7
		c0,1.755-0.914,3.576-1.882,5.503C-376.019,19.272-376.932,21-377.183,23z"/>
	<path fill="#BAC9CF" d="M-377.251,28h-5.999c-0.553,0-1,0.447-1,1s0.447,1,1,1h0.184c0.412,1.164,1.511,2,2.816,2
		c1.306,0,2.405-0.836,2.817-2h0.183c0.552,0,1.001-0.447,1.001-1S-376.699,28-377.251,28"/>
	<path fill="#BAC9CF" d="M-377.251,25h-5.999c-0.553,0-1,0.446-1,0.999c0,0.553,0.447,1.001,1,1.001h5.999
		c0.552,0,1.001-0.448,1.001-1.001C-376.25,25.447-376.699,25-377.251,25"/>
	<path fill="#98ACB2" d="M-384.25,25.999c0,0.553,0.447,1.001,1,1.001h3v-2h-3C-383.803,25-384.25,25.446-384.25,25.999z"/>
	<path fill="#98ACB2" d="M-380.25,28h-3c-0.553,0-1,0.447-1,1s0.447,1,1,1h0.184c0.412,1.164,1.511,2,2.816,2h0V28z"/>
	<path fill="#BAC9CF" d="M-383.321,23c-0.253-2-1.15-3.647-2.022-5.398c-0.98-1.969-1.907-3.829-1.907-5.601c0-3.86,3.14-7,7-7h0V4
		h0c-4.417,0-8,3.582-8,8c0,4,4,8,4,12h4v-1H-383.321z"/>
	<g>
		<circle fill="#FFFFFF" cx="-383.957" cy="9.452" r="1.5"/>
	</g>
	<g>
		<circle fill="#FFFFFF" cx="-381.957" cy="7.452" r="1"/>
	</g>
	<g>
		<path fill="#FFFFFF" d="M-380.25,10.188c2,0,4,1.791,4,4s-2,4-4,4V10.188z"/>
	</g>
	<g>
		<path fill="#F4D100" d="M-380.25,11.188c1.656,0,3,1.343,3,3s-1.343,3-3,3V11.188z"/>
	</g>
	<g>
		<path fill="#EFA016" d="M-380.25,12.188c1.104,0,2,0.896,2,2s-0.896,2-2,2V12.188z"/>
	</g>
</g>
<g>
	<path fill="#F2C579" d="M-302.25,35.5c-9.649,0-17.5-7.851-17.5-17.5s7.851-17.5,17.5-17.5s17.5,7.851,17.5,17.5
		S-292.601,35.5-302.25,35.5z"/>
	<path fill="#E87800" d="M-302.25,1c9.374,0,17,7.626,17,17s-7.626,17-17,17s-17-7.626-17-17S-311.624,1-302.25,1 M-302.25,0
		c-9.94,0-18,8.06-18,18c0,9.941,8.06,18,18,18s18-8.059,18-18C-284.25,8.06-292.31,0-302.25,0L-302.25,0z"/>
</g>
<circle fill="#EFA016" cx="-302.25" cy="18" r="16"/>
<g>
	<path fill="#B8D9D7" d="M-290.937,6.687C-293.832,3.791-297.832,2-302.25,2v16L-290.937,6.687z"/>
</g>
<g>
	<path fill="#EFA016" d="M-290.937,29.313c2.896-2.896,4.687-6.896,4.687-11.313h-16L-290.937,29.313z"/>
</g>
<g>
	<path fill="#B8D9D7" d="M-286.25,18c0-4-1.562-8.19-4.686-11.313L-302.25,18H-286.25z"/>
</g>
<g>
	<defs>
		<circle id="SVGID_1_" cx="-302.25" cy="18" r="16"/>
	</defs>
	<clipPath id="SVGID_2_">
		<use xlink:href="#SVGID_1_"  overflow="visible"/>
	</clipPath>
	<g clip-path="url(#SVGID_2_)">
		<g>
			<g>
				<path fill="#00727B" d="M-297.395,13.264c-0.359-3.962-3.695-7.077-7.748-7.077c-4.292,0-7.785,3.492-7.785,7.784v34.887
					c0,0.53,0.431,0.961,0.961,0.961s0.96-0.431,0.96-0.961V13.972c0-3.233,2.631-5.863,5.863-5.863
					c2.997,0,5.475,2.262,5.818,5.168c-3.046,0.485-5.384,3.123-5.384,6.302c0,0.53,0.43,0.96,0.96,0.96h10.858
					c0.004,0,0.008,0,0.012,0c0.53,0,0.96-0.431,0.96-0.96c0-0.058-0.006-0.115-0.014-0.17
					C-292.016,16.277-294.365,13.708-297.395,13.264"/>
			</g>
			<g>
				<path fill="#1E4A54" d="M-312.25,48.858V13.971c0-4.153,3.355-7.548,7.458-7.763c-0.145-0.008-0.407-0.021-0.553-0.021
					c-4.292,0-7.905,3.492-7.905,7.784v34.887c0,0.53,0.592,0.961,1.123,0.961c0.153,0,0.292-0.043,0.419-0.107
					C-312.025,49.555-312.25,49.235-312.25,48.858z"/>
				<path fill="#1E4A54" d="M-303.868,19.31c0-3.18,2.338-5.682,5.384-6.167c-0.343-2.906-2.821-5.101-5.818-5.101
					c-0.137,0-0.271,0.045-0.405,0.055c2.798,0.207,5.056,2.401,5.383,5.165c-3.046,0.485-5.384,2.861-5.384,6.041
					c0,0.529,0.43,0.699,0.96,0.699h0.84C-303.438,20-303.868,19.839-303.868,19.31z"/>
			</g>
		</g>
		<g>
			<g>
				<g>
					<g>
						<path fill="#D1EBEA" d="M-300.028,22.99c0-0.56-0.454-1.013-1.013-1.013s-1.013,0.453-1.013,1.013
							c0,0.559,0.454,1.012,1.013,1.012S-300.028,23.548-300.028,22.99"/>
					</g>
					<g>
						<path fill="#D1EBEA" d="M-296.896,22.99c0-0.56-0.453-1.013-1.013-1.013s-1.013,0.453-1.013,1.013
							c0,0.559,0.453,1.012,1.013,1.012S-296.896,23.548-296.896,22.99"/>
					</g>
					<g>
						<path fill="#D1EBEA" d="M-293.765,22.99c0-0.56-0.453-1.013-1.012-1.013s-1.013,0.453-1.013,1.013
							c0,0.559,0.453,1.012,1.013,1.012S-293.765,23.548-293.765,22.99"/>
					</g>
					<g>
						<path fill="#FFFFFF" d="M-293.765,16.552c0-0.56-0.453-1.013-1.012-1.013s-1.013,0.453-1.013,1.013
							c0,0.559,0.453,1.012,1.013,1.012S-293.765,17.111-293.765,16.552"/>
					</g>
				</g>
				<g>
					<g>
						<path fill="#D1EBEA" d="M-300.028,26.072c0-0.559-0.454-1.012-1.013-1.012s-1.013,0.453-1.013,1.012s0.454,1.013,1.013,1.013
							S-300.028,26.631-300.028,26.072"/>
					</g>
					<g>
						<path fill="#D1EBEA" d="M-296.896,26.072c0-0.559-0.453-1.012-1.013-1.012s-1.013,0.453-1.013,1.012s0.453,1.013,1.013,1.013
							S-296.896,26.631-296.896,26.072"/>
					</g>
					<g>
						<path fill="#D1EBEA" d="M-293.765,26.072c0-0.559-0.453-1.012-1.012-1.012s-1.013,0.453-1.013,1.012s0.453,1.013,1.013,1.013
							S-293.765,26.631-293.765,26.072"/>
					</g>
				</g>
				<g>
					<g>
						<path fill="#D1EBEA" d="M-300.028,29.156c0-0.56-0.454-1.013-1.013-1.013s-1.013,0.453-1.013,1.013
							c0,0.558,0.454,1.012,1.013,1.012S-300.028,29.714-300.028,29.156"/>
					</g>
					<g>
						<path fill="#D1EBEA" d="M-296.896,29.156c0-0.56-0.453-1.013-1.013-1.013s-1.013,0.453-1.013,1.013
							c0,0.558,0.453,1.012,1.013,1.012S-296.896,29.714-296.896,29.156"/>
					</g>
					<g>
						<path fill="#D1EBEA" d="M-293.765,29.156c0-0.56-0.453-1.013-1.012-1.013s-1.013,0.453-1.013,1.013
							c0,0.558,0.453,1.012,1.013,1.012S-293.765,29.714-293.765,29.156"/>
					</g>
				</g>
			</g>
			<g>
				<g>
					<g>
						<path fill="#FFFFFF" d="M-300.965,22.646c0-0.232-0.188-0.42-0.419-0.42c-0.232,0-0.421,0.188-0.421,0.42
							c0,0.231,0.188,0.42,0.421,0.42C-301.152,23.065-300.965,22.877-300.965,22.646"/>
					</g>
					<g>
						<path fill="#FFFFFF" d="M-297.832,22.646c0-0.232-0.188-0.42-0.42-0.42s-0.42,0.188-0.42,0.42c0,0.231,0.188,0.42,0.42,0.42
							S-297.832,22.877-297.832,22.646"/>
					</g>
					<g>
						<path fill="#FFFFFF" d="M-294.701,22.646c0-0.232-0.188-0.42-0.42-0.42s-0.42,0.188-0.42,0.42c0,0.232,0.188,0.42,0.42,0.42
							S-294.701,22.877-294.701,22.646"/>
					</g>
				</g>
				<g>
					<g>
						<path fill="#FFFFFF" d="M-300.965,25.728c0-0.232-0.188-0.42-0.419-0.42c-0.232,0-0.421,0.188-0.421,0.42
							c0,0.232,0.188,0.42,0.421,0.42C-301.152,26.148-300.965,25.96-300.965,25.728"/>
					</g>
					<g>
						<path fill="#FFFFFF" d="M-297.832,25.728c0-0.232-0.188-0.42-0.42-0.42s-0.42,0.188-0.42,0.42c0,0.232,0.188,0.42,0.42,0.42
							S-297.832,25.96-297.832,25.728"/>
					</g>
					<g>
						<path fill="#FFFFFF" d="M-294.701,25.728c0-0.232-0.188-0.42-0.42-0.42s-0.42,0.188-0.42,0.42c0,0.232,0.188,0.42,0.42,0.42
							S-294.701,25.96-294.701,25.728"/>
					</g>
				</g>
				<g>
					<g>
						<path fill="#FFFFFF" d="M-300.964,28.811c0-0.232-0.188-0.42-0.42-0.42c-0.232,0-0.421,0.188-0.421,0.42
							s0.188,0.42,0.421,0.42C-301.152,29.231-300.964,29.043-300.964,28.811"/>
					</g>
					<g>
						<path fill="#FFFFFF" d="M-297.832,28.811c0-0.232-0.188-0.42-0.42-0.42s-0.42,0.188-0.42,0.42s0.188,0.42,0.42,0.42
							S-297.832,29.043-297.832,28.811"/>
					</g>
					<g>
						<path fill="#FFFFFF" d="M-294.701,28.811c0-0.232-0.188-0.42-0.42-0.42s-0.42,0.188-0.42,0.42s0.188,0.42,0.42,0.42
							S-294.701,29.043-294.701,28.811"/>
					</g>
				</g>
			</g>
			<g>
				<path fill="#B8D9D7" d="M-300.529,25.218c0.091,0.152,0.158,0.32,0.158,0.51c0,0.559-0.454,1.013-1.013,1.013
					c-0.191,0-0.359-0.067-0.512-0.159c0.177,0.295,0.486,0.503,0.855,0.503c0.559,0,1.013-0.454,1.013-1.013
					C-300.028,25.704-300.235,25.396-300.529,25.218z"/>
				<path fill="#B8D9D7" d="M-300.529,22.136c0.091,0.152,0.158,0.319,0.158,0.51c0,0.559-0.454,1.012-1.013,1.012
					c-0.191,0-0.359-0.067-0.512-0.159c0.177,0.295,0.486,0.503,0.855,0.503c0.559,0,1.013-0.454,1.013-1.012
					C-300.028,22.621-300.234,22.313-300.529,22.136z"/>
				<path fill="#B8D9D7" d="M-294.109,22.646c0,0.559-0.453,1.012-1.012,1.012c-0.191,0-0.359-0.067-0.511-0.158
					c0.177,0.295,0.486,0.502,0.855,0.502c0.56,0,1.012-0.454,1.012-1.012c0-0.369-0.207-0.678-0.501-0.854
					C-294.175,22.287-294.109,22.455-294.109,22.646z"/>
				<path fill="#B8D9D7" d="M-297.397,28.301c0.091,0.152,0.158,0.32,0.158,0.51c0,0.559-0.453,1.013-1.013,1.013
					c-0.191,0-0.359-0.067-0.512-0.159c0.177,0.295,0.486,0.503,0.855,0.503c0.56,0,1.013-0.454,1.013-1.012
					C-296.896,28.787-297.102,28.478-297.397,28.301z"/>
				<path fill="#B8D9D7" d="M-300.529,28.301c0.091,0.152,0.158,0.32,0.158,0.51c0,0.559-0.454,1.013-1.013,1.013
					c-0.191,0-0.359-0.067-0.512-0.159c0.177,0.295,0.486,0.503,0.855,0.503c0.559,0,1.013-0.454,1.013-1.012
					C-300.028,28.787-300.235,28.479-300.529,28.301z"/>
				<path fill="#B8D9D7" d="M-294.266,25.218c0.091,0.152,0.157,0.32,0.157,0.51c0,0.559-0.453,1.013-1.012,1.013
					c-0.191,0-0.359-0.067-0.511-0.158c0.177,0.295,0.486,0.502,0.855,0.502c0.56,0,1.012-0.454,1.012-1.013
					C-293.765,25.704-293.972,25.395-294.266,25.218z"/>
				<path fill="#B8D9D7" d="M-294.266,28.301c0.091,0.152,0.157,0.32,0.157,0.51c0,0.559-0.453,1.013-1.012,1.013
					c-0.191,0-0.359-0.067-0.511-0.159c0.177,0.295,0.486,0.503,0.855,0.503c0.56,0,1.012-0.454,1.012-1.012
					C-293.765,28.786-293.972,28.478-294.266,28.301z"/>
				<path fill="#B8D9D7" d="M-297.396,25.218c0.091,0.152,0.157,0.32,0.157,0.51c0,0.559-0.453,1.013-1.013,1.013
					c-0.191,0-0.359-0.067-0.512-0.158c0.177,0.295,0.486,0.502,0.855,0.502c0.56,0,1.013-0.454,1.013-1.013
					C-296.896,25.704-297.102,25.395-297.396,25.218z"/>
				<path fill="#B8D9D7" d="M-297.397,22.136c0.091,0.152,0.158,0.319,0.158,0.51c0,0.559-0.453,1.012-1.013,1.012
					c-0.191,0-0.359-0.067-0.512-0.159c0.177,0.295,0.486,0.503,0.855,0.503c0.56,0,1.013-0.454,1.013-1.012
					C-296.896,22.621-297.102,22.313-297.397,22.136z"/>
			</g>
		</g>
	</g>
</g>
<g>
	<path fill="#B8D9D7" d="M-222.25,35.5c-9.649,0-17.5-7.851-17.5-17.5s7.851-17.5,17.5-17.5s17.5,7.851,17.5,17.5
		S-212.601,35.5-222.25,35.5z"/>
	<path fill="#2C4E46" d="M-222.25,1c9.374,0,17,7.626,17,17s-7.626,17-17,17s-17-7.626-17-17S-231.624,1-222.25,1 M-222.25,0
		c-9.94,0-18,8.06-18,18c0,9.941,8.06,18,18,18s18-8.059,18-18C-204.25,8.06-212.31,0-222.25,0L-222.25,0z"/>
</g>
<g>
	<circle fill="#91D2E4" cx="-222.25" cy="18" r="16"/>
</g>
<g>
	<path fill="#12AD9C" d="M-206.25,18c0,8.836-7.164,16-16,16s-16-7.164-16-16"/>
</g>
<g>
	<path fill="#2C4E46" d="M-211.22,9.951h-1.983c-0.125,0-0.244,0.017-0.354,0.045l-0.007-0.054
		c-0.074-0.541-0.443-1.304-0.821-1.697c0,0-1.378-1.433-7.864-1.433s-7.864,1.433-7.864,1.433
		c-0.378,0.393-0.748,1.157-0.821,1.697l-0.007,0.054c-0.11-0.028-0.229-0.045-0.354-0.045h-1.983c-0.545,0-0.992,0.446-0.992,0.992
		v2.479c0,0.545,0.409,0.991,0.909,0.991c0.5,0,0.909-0.446,0.909-0.991v-1.198c0-0.545,0.446-0.992,0.992-0.992h0.165
		c0.064,0,0.127-0.004,0.188-0.013l-0.549,4.028c-0.074,0.541-0.134,1.094-0.134,1.231s0,0.694,0,1.24v0.445
		c0,0.545,0,1.438,0,1.983v5.281c0,0.545,0.446,0.992,0.991,0.992h0.992v1.776c0,0.546,0.446,0.992,0.991,0.992h1.653
		c0.545,0,0.992-0.446,0.992-0.992v-1.776h7.849v1.776c0,0.546,0.446,0.992,0.992,0.992h1.653c0.545,0,0.991-0.446,0.991-0.992
		v-1.776h0.992c0.545,0,0.991-0.446,0.991-0.992v-5.281c0-0.545,0-1.438,0-1.983v-0.445c0-0.546,0-1.103,0-1.24
		s-0.06-0.69-0.134-1.231l-0.549-4.028c0.061,0.008,0.123,0.013,0.188,0.013h0.165c0.545,0,0.992,0.446,0.992,0.992v1.198
		c0,0.545,0.409,0.991,0.909,0.991c0.5,0,0.909-0.446,0.909-0.991v-2.479C-210.228,10.397-210.674,9.951-211.22,9.951z
		 M-225.596,8.102h6.692v0.992h-6.692V8.102z M-228.447,23.584c-0.753,0-1.363-0.61-1.363-1.363c0-0.752,0.61-1.363,1.363-1.363
		s1.363,0.611,1.363,1.363C-227.083,22.974-227.694,23.584-228.447,23.584z M-216.053,23.584c-0.753,0-1.363-0.61-1.363-1.363
		c0-0.752,0.61-1.363,1.363-1.363s1.363,0.611,1.363,1.363C-214.69,22.974-215.3,23.584-216.053,23.584z M-215.186,17.221h-14.129
		c-0.545,0-0.931-0.441-0.857-0.982l0.724-5.306c0.074-0.54,0.58-0.982,1.125-0.982h12.146c0.545,0,1.052,0.442,1.125,0.982
		l0.724,5.306C-214.254,16.78-214.64,17.221-215.186,17.221z"/>
</g>
<path fill="#B8D9D7" d="M-215.164,17.221h-14.129c-0.545,0-0.931-0.441-0.857-0.982l0.724-5.306c0.074-0.54,0.58-0.982,1.125-0.982
	h12.146c0.545,0,1.052,0.442,1.125,0.982l0.724,5.306C-214.232,16.78-214.618,17.221-215.164,17.221z"/>
<path fill="#D1EBEA" d="M-229.517,10.958l-0.724,5.183c-0.074,0.541,0.312,0.859,0.857,0.859h3.069l7.27-7h-9.347
	C-228.937,10-229.443,10.418-229.517,10.958z"/>
<path fill="#366842" d="M-232.25,19c0,0.41,0,0.834,0,1.146V25h20v-4.854c0-0.313,0-0.736,0-1.146H-232.25z M-228.425,23.584
	c-0.753,0-1.363-0.61-1.363-1.363c0-0.752,0.61-1.363,1.363-1.363s1.363,0.611,1.363,1.363
	C-227.062,22.974-227.672,23.584-228.425,23.584z M-216.031,23.584c-0.753,0-1.363-0.61-1.363-1.363c0-0.752,0.61-1.363,1.363-1.363
	s1.363,0.611,1.363,1.363C-214.668,22.974-215.278,23.584-216.031,23.584z"/>
<rect x="-225.574" y="8.102" fill="#1AA9D0" width="6.692" height="0.992"/>
<circle fill="#91D2E4" cx="-228.425" cy="22.221" r="1.363"/>
<circle fill="#91D2E4" cx="-216.031" cy="22.221" r="1.363"/>
<circle fill="#F5FAFA" cx="-228.144" cy="21.722" r="0.5"/>
<circle fill="#F5FAFA" cx="-215.75" cy="21.722" r="0.5"/>
<g>
	<path fill="#B8D9D7" d="M-142.25,35.5c-9.649,0-17.5-7.851-17.5-17.5s7.851-17.5,17.5-17.5s17.5,7.851,17.5,17.5
		S-132.601,35.5-142.25,35.5z"/>
	<path fill="#2C4E46" d="M-142.25,1c9.374,0,17,7.626,17,17s-7.626,17-17,17s-17-7.626-17-17S-151.624,1-142.25,1 M-142.25,0
		c-9.94,0-18,8.06-18,18c0,9.941,8.06,18,18,18s18-8.059,18-18C-124.25,8.06-132.31,0-142.25,0L-142.25,0z"/>
</g>
<g>
	<path fill="#B3C589" d="M-64.25,35.5c-9.649,0-17.5-7.851-17.5-17.5s7.851-17.5,17.5-17.5s17.5,7.851,17.5,17.5
		S-54.601,35.5-64.25,35.5z"/>
	<path fill="#366842" d="M-64.25,1c9.374,0,17,7.626,17,17s-7.626,17-17,17s-17-7.626-17-17S-73.624,1-64.25,1 M-64.25,0
		c-9.94,0-18,8.06-18,18c0,9.941,8.06,18,18,18s18-8.059,18-18C-46.25,8.06-54.31,0-64.25,0L-64.25,0z"/>
</g>
<g>
	<circle fill="#91D2E4" cx="-142.25" cy="18" r="16"/>
</g>
<g>
	<path fill="#12AD9C" d="M-126.25,18c0,8.836-7.164,16-16,16s-16-7.164-16-16"/>
</g>
<g>
	<defs>
		<circle id="SVGID_3_" cx="-142.25" cy="18" r="16"/>
	</defs>
	<clipPath id="SVGID_4_">
		<use xlink:href="#SVGID_3_"  overflow="visible"/>
	</clipPath>
	<g clip-path="url(#SVGID_4_)">
		<g>
			<path fill="#2C4E46" d="M-154.383,19.833c2.665,0,4.833,2.168,4.833,4.834c0,2.665-2.168,4.833-4.833,4.833
				c-2.666,0-4.834-2.168-4.834-4.833C-159.217,22.001-157.048,19.833-154.383,19.833 M-154.383,18.833
				c-3.222,0-5.834,2.612-5.834,5.834c0,3.222,2.612,5.833,5.834,5.833c3.222,0,5.833-2.612,5.833-5.833
				C-148.549,21.445-151.161,18.833-154.383,18.833L-154.383,18.833z"/>
		</g>
		<g>
			<circle fill="#2C4E46" cx="-142.396" cy="9.479" r="2.021"/>
		</g>
		<g>
			<path fill="#2C4E46" d="M-138.304,19.833c2.665,0,4.833,2.168,4.833,4.834c0,2.665-2.168,4.833-4.833,4.833
				c-2.666,0-4.834-2.168-4.834-4.833C-143.138,22.001-140.969,19.833-138.304,19.833 M-138.304,18.833
				c-3.222,0-5.834,2.612-5.834,5.834c0,3.222,2.612,5.833,5.834,5.833s5.833-2.612,5.833-5.833
				C-132.47,21.445-135.082,18.833-138.304,18.833L-138.304,18.833z"/>
		</g>
		<g>
			<path fill="#1C9283" d="M-154.383,21.167c1.93,0,3.5,1.57,3.5,3.5s-1.57,3.5-3.5,3.5s-3.5-1.57-3.5-3.5
				S-156.313,21.167-154.383,21.167 M-154.383,20.167c-2.485,0-4.5,2.015-4.5,4.5s2.015,4.5,4.5,4.5s4.5-2.015,4.5-4.5
				S-151.897,20.167-154.383,20.167L-154.383,20.167z"/>
		</g>
		<g>
			<path fill="#1C9283" d="M-138.304,21.167c1.93,0,3.5,1.57,3.5,3.5s-1.57,3.5-3.5,3.5s-3.5-1.57-3.5-3.5
				S-140.233,21.167-138.304,21.167 M-138.304,20.167c-2.486,0-4.5,2.014-4.5,4.5c0,2.484,2.014,4.5,4.5,4.5
				c2.484,0,4.5-2.016,4.5-4.5C-133.804,22.181-135.819,20.167-138.304,20.167L-138.304,20.167z"/>
		</g>
		
			<polyline fill="none" stroke="#2C4E46" stroke-width="2" stroke-linecap="round" stroke-linejoin="round" stroke-miterlimit="10" points="
			-146.25,25 -146.25,20 -149.375,16.875 -144.625,12.25 -141.063,15.75 -138.292,15.792 		"/>
		
			<line fill="none" stroke="#2C4E46" stroke-width="3" stroke-linecap="round" stroke-linejoin="round" stroke-miterlimit="10" x1="-149.081" y1="16.588" x2="-144.919" y2="12.537"/>
	</g>
	<circle clip-path="url(#SVGID_4_)" fill="#FFFFFF" cx="-132.291" cy="6.292" r="3.958"/>
</g>
<g>
	<circle fill="#86AC5D" cx="-64.25" cy="18" r="16"/>
</g>
<g>
	<path fill="#AB8EB8" d="M17.75,35.5c-9.649,0-17.5-7.851-17.5-17.5S8.101,0.5,17.75,0.5s17.5,7.851,17.5,17.5
		S27.399,35.5,17.75,35.5z"/>
	<path fill="#3D1C5D" d="M17.75,1c9.374,0,17,7.626,17,17s-7.626,17-17,17s-17-7.626-17-17S8.376,1,17.75,1 M17.75,0
		c-9.94,0-18,8.06-18,18c0,9.941,8.06,18,18,18s18-8.059,18-18C35.75,8.06,27.69,0,17.75,0L17.75,0z"/>
</g>
<g>
	<circle fill="#9779A6" cx="17.75" cy="18" r="16"/>
</g>
<g>
	<path fill="#B3C589" d="M-64.25,27.5c-5.238,0-9.5-4.262-9.5-9.5s4.262-9.5,9.5-9.5s9.5,4.262,9.5,9.5S-59.012,27.5-64.25,27.5z"/>
	<path fill="#366842" d="M-64.25,9c4.962,0,9,4.038,9,9s-4.038,9-9,9s-9-4.038-9-9S-69.212,9-64.25,9 M-64.25,8
		c-5.522,0-10,4.477-10,10s4.478,10,10,10s10-4.477,10-10S-58.728,8-64.25,8L-64.25,8z"/>
</g>
<path fill="#366842" d="M-52.876,14.867c-0.77,2.349-3.014,1.504-3.181,1.406c-0.167-0.101-1.521-1.427-1.81-1.807
	c-0.184-0.244-0.857-0.512-1.366-0.673c-0.036,0.004-0.069,0.005-0.106,0.011c-0.202,0.035-1.211,0.286-1.131,0.469
	c0.09,0.208,0.452,0.407,0.59,0.591c0.507,0.661,1.609,2.164,1.226,3.383c-0.126,0.4-1.227,0.938-1.872,1.439
	c-0.607-0.412-0.778-1.043-1.668-1.248c0.287,0.538,0.646,1.025,0.754,1.91c-1.094,0.802-2.192,1.856-3.702,2.255
	c-0.446-0.438-0.73-1.205-1.472-1.354c0.216,0.604,0.616,1.037,0.698,1.771c-2.481,1.297-7.431,4.975-8.94,4.802
	c-0.093-0.47,0.058-0.874,0.248-1.476c0.732-2.29,4.008-6.687,5.082-8.378c0.087-0.135,0.186-0.252,0.287-0.295
	c1.286-0.026,1.918,0.438,2.733,0.869c-0.246-0.963-1.474-1.597-2.212-1.98c0.739-1.593,2.75-4.583,3.631-4.634
	c1.939,0.021,2.853,0.957,4.024,1.72c0.316-0.438,0.485-1.029,0.456-1.592c-0.031-0.095-0.064-0.184-0.11-0.263
	c-0.247-0.463-1.723-1.548-1.787-1.569c-0.061-0.018-3.14-3.034,0.415-3.636c3.555-0.602,3.66,2.674,3.472,3.759
	c-0.049,0.289-0.116,0.542-0.189,0.761c-0.069,0.263-0.154,0.52-0.261,0.77c0.094-0.096,0.177-0.202,0.251-0.314
	c0.36-0.81,1.035-2.461,1.802-3.307c0.896-0.985,2.06-2.009,3.619-1.066c1.562,0.947-0.978,3.255-1.644,3.557
	c-0.572,0.258-2.357,0.994-3.361,1.488c0.06-0.007,0.119-0.017,0.181-0.031c0.208-0.078,0.444-0.163,0.69-0.235
	c0.084-0.028,0.166-0.051,0.247-0.07c0.219-0.057,0.438-0.105,0.643-0.127C-55.724,11.673-52.106,12.516-52.876,14.867z"/>
<g>
	<path fill="#EFA016" d="M-61.816,12.927c0.09,0.208,0.452,0.407,0.59,0.591c0.507,0.661,1.609,2.164,1.226,3.384
		c-0.126,0.399-1.226,0.938-1.872,1.439c-0.607-0.412-0.778-1.042-1.668-1.248c0.287,0.538,0.646,1.025,0.754,1.91
		c-1.094,0.802-2.192,1.856-3.702,2.255c-0.446-0.438-0.73-1.205-1.472-1.354c0.216,0.605,0.616,1.037,0.698,1.771
		c-2.481,1.297-7.431,4.975-8.94,4.802c-0.093-0.47,0.058-0.874,0.248-1.476c0.732-2.29,4.008-6.687,5.082-8.377
		c0.087-0.136,0.186-0.253,0.287-0.295c1.286-0.026,1.918,0.438,2.733,0.869c-0.246-0.963-1.474-1.597-2.212-1.98
		c0.739-1.593,2.75-4.583,3.631-4.634c1.939,0.021,2.854,0.957,4.024,1.72"/>
	<path fill="#BE8952" d="M-61.226,13.518c0.506,0.661,1.609,2.164,1.226,3.384c-0.126,0.399-1.227,0.938-1.873,1.439
		c-0.607-0.412-0.779-1.042-1.667-1.248c0.287,0.538,0.646,1.025,0.755,1.91c-1.094,0.802-2.194,1.856-3.704,2.255
		c-0.444-0.438-0.729-1.205-1.471-1.354c0.215,0.605,0.617,1.037,0.698,1.771c-2.482,1.297-7.431,4.975-8.941,4.802"/>
	<path fill="#2C4E46" d="M-54.223,13.521c-0.77,2.349-3.014,1.504-3.181,1.406c-0.167-0.101-1.521-1.427-1.81-1.807
		c-0.183-0.244-0.857-0.512-1.366-0.673c-0.036,0.004-0.069,0.005-0.106,0.011c-0.202,0.035-1.211,0.286-1.131,0.469l-0.594-0.624
		c0.316-0.438,0.485-1.029,0.456-1.592c-0.031-0.095-0.063-0.184-0.11-0.263c-0.247-0.463-1.723-1.549-1.787-1.569
		c-0.061-0.018-3.14-3.034,0.415-3.636s3.66,2.674,3.472,3.758c-0.049,0.289-0.116,0.542-0.189,0.761
		c-0.069,0.263-0.155,0.52-0.262,0.77c0.095-0.096,0.177-0.202,0.251-0.314c0.36-0.81,1.035-2.461,1.802-3.307
		c0.896-0.985,2.06-2.009,3.619-1.066c1.562,0.947-0.978,3.255-1.644,3.557c-0.572,0.258-2.357,0.994-3.362,1.488
		c0.06-0.007,0.119-0.017,0.181-0.032c0.208-0.078,0.444-0.163,0.69-0.235c0.084-0.028,0.166-0.051,0.247-0.07
		c0.22-0.057,0.438-0.105,0.643-0.127C-57.07,10.326-53.453,11.169-54.223,13.521z"/>
</g>
<g>
	<g>
		<path fill="#F2C579" d="M26.066,12.013h-2.454v-0.148c0-3.23-2.629-5.865-5.864-5.865c-3.232,0-5.861,2.635-5.861,5.865v0.148
			H9.434L7.998,28h19.504L26.066,12.013z M17.748,6.719c2.14,0,3.977,1.315,4.753,3.174c-1.025-1.532-2.771-2.548-4.753-2.548
			c-1.979,0-3.724,1.016-4.751,2.553C13.775,8.034,15.613,6.719,17.748,6.719 M12.97,12.013c0.479-2.201,2.441-3.852,4.78-3.852
			c2.344,0,4.302,1.651,4.78,3.852H12.97z"/>
	</g>
</g>
<g>
	<rect x="16" y="1.449" transform="matrix(0.7071 0.7071 -0.7071 0.7071 18 -7.4558)" fill="#AB8EB8" width="4" height="33.101"/>
</g>
<g>
	<path fill="#564677" d="M17.455,25.882l-4.18-4.033c-0.053-0.047-1.527-1.393-1.527-3.001c0-1.962,1.199-3.135,3.203-3.135
		c1.172,0,2.27,0.924,2.799,1.447c0.529-0.522,1.629-1.447,2.801-1.447c2.002,0,3.201,1.172,3.201,3.135
		c0,1.608-1.473,2.954-1.533,3.015l-4.174,4.019c-0.08,0.081-0.188,0.121-0.295,0.121C17.644,26.003,17.536,25.963,17.455,25.882z"
		/>
</g>
</svg>
