<?xml version="1.0" encoding="utf-8"?>
<!-- Generator: Adobe Illustrator 15.0.0, SVG Export Plug-In . SVG Version: 6.00 Build 0)  -->
<!DOCTYPE svg PUBLIC "-//W3C//DTD SVG 1.1//EN" "http://www.w3.org/Graphics/SVG/1.1/DTD/svg11.dtd">
<svg version="1.1" id="Graphics" xmlns="http://www.w3.org/2000/svg" xmlns:xlink="http://www.w3.org/1999/xlink" x="0px" y="0px"
	 width="50px" height="50px" viewBox="0 0 50 50" enable-background="new 0 0 50 50" xml:space="preserve">
<g>
	<g>
		<path fill="#3A3D42" d="M25,2c12.682,0,23,10.318,23,23S37.682,48,25,48S2,37.682,2,25S12.318,2,25,2 M25,0
			C11.192,0,0,11.192,0,25c0,13.807,11.192,25,25,25c13.807,0,25-11.193,25-25C50,11.192,38.807,0,25,0L25,0z"/>
	</g>
	<g>
		<path fill="#1AA9D2" d="M25,47C12.869,47,3,37.131,3,25S12.869,3,25,3s22,9.869,22,22S37.131,47,25,47z"/>
		<path fill="#91D2E4" d="M25,4c11.58,0,21,9.42,21,21s-9.42,21-21,21S4,36.58,4,25S13.42,4,25,4 M25,2C12.298,2,2,12.298,2,25
			c0,12.701,10.298,23,23,23c12.701,0,23-10.299,23-23C48,12.298,37.701,2,25,2L25,2z"/>
	</g>
	<path fill="#91D2E4" d="M25,4c11.597,0,21,9.403,21,21H4C4,13.403,13.403,4,25,4z"/>
	<path fill="#FFFFFF" d="M8.708,11.759c0.983,1.492,2.671,2.478,4.593,2.478c3.035,0,5.496-2.461,5.496-5.498
		c0-1.276-0.439-2.448-1.169-3.382C14.111,6.678,11.038,8.896,8.708,11.759z"/>
	<g>
		<g>
			<g>
				<path fill="#1E4A54" d="M18.798,17.184c0,0.72-0.587,1.306-1.308,1.306c-0.719,0-1.305-0.586-1.305-1.306
					c0-0.721,0.586-1.305,1.305-1.305C18.211,15.879,18.798,16.463,18.798,17.184"/>
			</g>
			<g>
				<g>
					<path fill="#1E4A54" d="M14.626,28.048c-0.44,0-0.797-0.356-0.797-0.797v-2.898l-1.783-1.781
						c-0.152-0.151-0.236-0.354-0.234-0.57c0.002-0.213,0.09-0.415,0.241-0.564l3.068-2.988c0.308-0.299,0.806-0.299,1.114,0.005
						l2.07,2.037l1.471,0.02c0.44,0.005,0.792,0.37,0.783,0.811c-0.007,0.439-0.353,0.797-0.806,0.783l-1.792-0.028
						c-0.204,0-0.398-0.083-0.547-0.226l-1.743-1.715l-1.927,1.88l1.444,1.446c0.149,0.15,0.233,0.35,0.233,0.563v3.227
						C15.423,27.691,15.066,28.048,14.626,28.048z"/>
				</g>
				<g>
					<path fill="#1E4A54" d="M12.799,22.884c-0.274,0-0.552-0.107-0.761-0.319c-0.41-0.423-0.401-1.095,0.021-1.503l2.685-2.616
						c0.419-0.411,1.092-0.402,1.503,0.02c0.411,0.421,0.402,1.094-0.021,1.502l-2.686,2.615
						C13.335,22.783,13.066,22.884,12.799,22.884z"/>
				</g>
			</g>
		</g>
		<g>
			<path fill="#1E4A54" d="M9.379,23.85c1.756,0,3.188,1.43,3.188,3.187c0,1.755-1.431,3.187-3.188,3.187
				c-1.76,0-3.188-1.432-3.188-3.187C6.191,25.279,7.619,23.85,9.379,23.85 M9.379,23.318c-2.054,0-3.719,1.662-3.719,3.718
				c0,2.054,1.665,3.718,3.719,3.718c2.05,0,3.719-1.664,3.719-3.718C13.098,24.98,11.429,23.318,9.379,23.318L9.379,23.318z"/>
		</g>
		<g>
			<path fill="#1E4A54" d="M19.763,23.85c1.76,0,3.188,1.43,3.188,3.187c0,1.755-1.428,3.187-3.188,3.187
				c-1.756,0-3.187-1.432-3.187-3.187C16.576,25.279,18.007,23.85,19.763,23.85 M19.763,23.318c-2.05,0-3.718,1.662-3.718,3.718
				c0,2.054,1.668,3.718,3.718,3.718c2.054,0,3.719-1.664,3.719-3.718C23.481,24.98,21.817,23.318,19.763,23.318L19.763,23.318z"/>
		</g>
		<g opacity="0.2">
			<path d="M7.725,32.347c0,0.296,3.306,0.532,7.395,0.532c4.08,0,7.391-0.236,7.391-0.532c0-0.294-3.311-0.53-7.391-0.53
				C11.031,31.816,7.725,32.053,7.725,32.347"/>
		</g>
	</g>
	<g>
		<path fill="#3A3D42" d="M50,25C50,11.193,38.807,0,25,0v50C38.807,50,50,38.808,50,25z"/>
		<g>
			<path fill="#EE445F" d="M33.894,36.614c-1.509,0-2.736-1.228-2.736-2.739V19.354c0-1.513,1.228-2.739,2.736-2.739
				c0.414,0,0.75,0.337,0.75,0.747s-0.336,0.747-0.75,0.747c-0.685,0-1.242,0.56-1.242,1.245v14.521
				c0,0.685,0.558,1.245,1.242,1.245c0.688,0,1.248-0.561,1.248-1.245V30.56c0-1.509,1.228-2.739,2.736-2.739h0.751
				c2.676,0,4.854-2.178,4.854-4.854c0-2.68-2.178-4.858-4.854-4.858h-0.751c-0.685,0-1.242,0.56-1.242,1.245v5.742
				c0,0.414-0.336,0.751-0.75,0.751c-0.411,0-0.744-0.337-0.744-0.751v-5.742c0-1.513,1.228-2.739,2.736-2.739h0.751
				c3.499,0,6.348,2.847,6.348,6.353c0,3.497-2.849,6.348-6.348,6.348h-0.751c-0.685,0-1.242,0.557-1.242,1.245v3.315
				C36.636,35.387,35.406,36.614,33.894,36.614z"/>
		</g>
	</g>
</g>
</svg>
