<?xml version="1.0" encoding="utf-8"?>
<!-- Generator: Adobe Illustrator 18.1.1, SVG Export Plug-In . SVG Version: 6.00 Build 0)  -->
<svg version="1.1" xmlns="http://www.w3.org/2000/svg" xmlns:xlink="http://www.w3.org/1999/xlink" x="0px" y="0px"
	 viewBox="0 0 36 36" enable-background="new 0 0 36 36" xml:space="preserve">
<g id="Layer_1">
	<g>
		<path fill="#C2E0DE" d="M18.601,0.511C8.958,0.18,0.843,7.757,0.511,17.399c-0.33,9.644,7.246,17.76,16.889,18.09
			c9.642,0.331,17.76-7.244,18.09-16.889C35.821,8.958,28.243,0.841,18.601,0.511z M17.45,33.99
			C8.62,33.688,1.706,26.282,2.009,17.451C2.312,8.62,9.718,1.706,18.548,2.01c8.832,0.303,15.746,7.708,15.443,16.539
			C33.688,27.38,26.282,34.294,17.45,33.99z"/>
		<path fill="#366258" d="M18.618,0.011C8.684-0.33,0.352,7.449,0.011,17.383c-0.34,9.936,7.439,18.266,17.373,18.607
			c9.934,0.341,18.266-7.437,18.606-17.372C36.331,8.684,28.552,0.352,18.618,0.011 M18.583,1.01
			c9.369,0.322,16.729,8.204,16.408,17.573c-0.322,9.37-8.205,16.729-17.574,16.407C8.048,34.668,0.688,26.786,1.011,17.417
			C1.333,8.047,9.216,0.688,18.583,1.01"/>
	</g>
	<g>
		<defs>
			<path id="SVGID_111_" d="M34.001,18c0,8.836-7.164,16-16,16c-8.836,0-16-7.164-16-16c0-8.836,7.164-16,16-16
				C26.837,2,34.001,9.164,34.001,18"/>
		</defs>
		<use xlink:href="#SVGID_111_"  overflow="visible" fill="#FFFFFF"/>
		<clipPath id="SVGID_2_">
			<use xlink:href="#SVGID_111_"  overflow="visible"/>
		</clipPath>
	</g>
	<g>
		<path fill="#9FD7E6" d="M34.001,18c0,8.836-7.164,16-16,16c-8.836,0-16-7.164-16-16c0-8.836,7.164-16,16-16
			C26.837,2,34.001,9.164,34.001,18"/>
		<path fill="#FFFFFF" d="M2.602,16.569c0,1.769,1.433,3.202,3.202,3.202c1.769,0,3.201-1.434,3.201-3.202
			c0-1.767-1.433-3.201-3.201-3.201C4.035,13.368,2.602,14.802,2.602,16.569"/>
		<path fill="#00B1A8" d="M34.001,18c0,8.836-7.164,16-16,16c-8.836,0-16-7.164-16-16"/>
	</g>
	<g>
		<g>
			<g>
				<g>
					<path fill="#386159" d="M11.575,27.345c0,0.24-0.198,0.438-0.441,0.438H8.072c-0.241,0-0.438-0.198-0.438-0.438v-3.778
						c0-0.242,0.196-0.441,0.438-0.441h3.062c0.243,0,0.441,0.199,0.441,0.441V27.345z"/>
				</g>
				<g>
					<path fill="#386159" d="M28.366,27.345c0,0.24-0.196,0.438-0.438,0.438h-3.062c-0.241,0-0.44-0.198-0.44-0.438v-3.778
						c0-0.242,0.199-0.441,0.44-0.441h3.062c0.241,0,0.438,0.199,0.438,0.441V27.345z"/>
				</g>
			</g>
			<polygon fill="#386159" points="7.635,25.243 11.575,26.425 11.575,22.736 			"/>
			<polygon fill="#386159" points="24.427,25.243 28.366,26.425 28.366,22.736 			"/>
			<path fill="#D8305A" d="M27.184,19.379H8.814c-0.712,0-1.208-0.703-1.114-1.57l0.939-8.458c0.099-0.861,0.757-1.566,1.466-1.566
				h15.79c0.715,0,1.369,0.705,1.465,1.566l0.941,8.458C28.399,18.676,27.893,19.379,27.184,19.379"/>
			<g>
				<path fill="#C2E0DE" d="M25.616,19.379H10.481c-0.583,0-0.997-0.583-0.918-1.291l0.774-6.973
					c0.08-0.708,0.623-1.286,1.209-1.286h13.009c0.585,0,1.126,0.578,1.205,1.286l0.777,6.973
					C26.615,18.796,26.201,19.379,25.616,19.379"/>
				<path fill="#D9EDEE" d="M10.336,11.09l-0.773,6.809c-0.079,0.709,0.332,1.129,0.916,1.129h3.288l7.791-9.198H11.544
					C10.961,9.829,10.413,10.378,10.336,11.09"/>
				<g>
					<path fill="#366258" d="M15.793,13.061c0,0.737-0.597,1.333-1.337,1.333c-0.737,0-1.332-0.596-1.332-1.333
						c0-0.737,0.595-1.335,1.332-1.335C15.196,11.727,15.793,12.324,15.793,13.061"/>
					<path fill="#366258" d="M15.615,14.785h-0.209c-0.241,0.246-0.575,0.399-0.95,0.399c-0.372,0-0.707-0.153-0.948-0.399H13.3
						c-0.375,0-0.679,0.305-0.679,0.68V18.6c0,0.375,0.304,0.681,0.679,0.681h2.315c0.374,0,0.681-0.306,0.681-0.681v-3.135
						C16.296,15.09,15.989,14.785,15.615,14.785z"/>
					<path fill="#366258" d="M22.797,12.997c0,0.737-0.596,1.335-1.337,1.335c-0.737,0-1.331-0.598-1.331-1.335
						s0.594-1.334,1.331-1.334C22.201,11.663,22.797,12.26,22.797,12.997"/>
					<path fill="#366258" d="M22.619,14.722h-0.208c-0.241,0.245-0.576,0.399-0.951,0.399c-0.371,0-0.707-0.154-0.948-0.399h-0.207
						c-0.375,0-0.68,0.306-0.68,0.68v3.136c0,0.374,0.305,0.68,0.68,0.68h2.315c0.374,0,0.682-0.306,0.682-0.68v-3.136
						C23.301,15.027,22.993,14.722,22.619,14.722z"/>
				</g>
				<path opacity="0.1" fill="#FFFFFF" d="M10.336,11.09l-0.773,6.809c-0.079,0.709,0.332,1.129,0.916,1.129h3.288l7.791-9.198
					H11.544C10.961,9.829,10.413,10.378,10.336,11.09"/>
			</g>
			<path fill="#D8305A" d="M30.197,23.044c0,1.208-0.99,2.199-2.202,2.199H8.006c-1.21,0-2.202-0.991-2.202-2.199v-4.04
				c0-1.213,0.992-2.226,2.202-2.249l7.796-0.164c1.209-0.027,3.189-0.027,4.399,0l7.794,0.164c1.212,0.023,2.202,1.036,2.202,2.249
				V23.044z"/>
			<g>
				<path fill="#9FD7E6" d="M26.133,22.303c-0.779,0-1.409-0.63-1.409-1.411c0-0.773,0.63-1.407,1.409-1.407
					c0.778,0,1.41,0.634,1.41,1.407C27.543,21.673,26.911,22.303,26.133,22.303"/>
				<path fill="#F8FCFC" d="M26.423,20.892c-0.285,0-0.517-0.229-0.517-0.515c0-0.283,0.231-0.515,0.517-0.515
					c0.286,0,0.521,0.231,0.521,0.515C26.943,20.663,26.709,20.892,26.423,20.892"/>
			</g>
			<g>
				<path fill="#9FD7E6" d="M9.816,22.303c-0.777,0-1.407-0.63-1.407-1.411c0-0.773,0.63-1.407,1.407-1.407
					c0.779,0,1.406,0.634,1.406,1.407C11.223,21.673,10.596,22.303,9.816,22.303"/>
				<path fill="#F8FCFC" d="M10.108,20.892c-0.285,0-0.517-0.229-0.517-0.515c0-0.283,0.231-0.515,0.517-0.515
					c0.286,0,0.516,0.231,0.516,0.515C10.624,20.663,10.394,20.892,10.108,20.892"/>
			</g>
			<path fill="#9FD7E6" d="M12.232,24.145c0,0.604,0.494,1.099,1.102,1.099h9.337c0.606,0,1.098-0.494,1.098-1.099v-0.743
				c0-0.604-0.491-1.099-1.098-1.099h-9.337c-0.607,0-1.102,0.494-1.102,1.099V24.145z"/>
			<g>
				<path fill="#C2E0DE" d="M12.621,24.851v-1.457c0-0.392,0.315-0.713,0.713-0.713h9.337c0.393,0,0.712,0.321,0.712,0.713v1.457
					H12.621z"/>
				<path fill="#7C9FA7" d="M22.671,23.073c0.173,0,0.322,0.149,0.322,0.32v1.066h-9.985v-1.066c0-0.171,0.151-0.32,0.326-0.32
					H22.671 M22.671,22.295h-9.337c-0.607,0-1.102,0.493-1.102,1.099v1.845h11.536v-1.845
					C23.768,22.788,23.274,22.295,22.671,22.295L22.671,22.295z"/>
			</g>
		</g>
		<path fill="#D8305A" d="M26.312,16.053c0,0-0.057,0.667-0.735,0.652v0.493l1.193-0.175L26.312,16.053z"/>
		<path fill="#D8305A" d="M9.765,16.053c0,0,0.057,0.667,0.735,0.652v0.493l-1.193-0.175L9.765,16.053z"/>
	</g>
</g>
<g id="Layer_2">
</g>
<g id="Layer_3">
</g>
</svg>
