<?xml version="1.0" encoding="utf-8"?>
<!-- Generator: Adobe Illustrator 15.0.0, SVG Export Plug-In . SVG Version: 6.00 Build 0)  -->
<!DOCTYPE svg PUBLIC "-//W3C//DTD SVG 1.1//EN" "http://www.w3.org/Graphics/SVG/1.1/DTD/svg11.dtd">
<svg version="1.1" id="Graphics" xmlns="http://www.w3.org/2000/svg" xmlns:xlink="http://www.w3.org/1999/xlink" x="0px" y="0px"
	 width="50px" height="50px" viewBox="0 0 50 50" enable-background="new 0 0 50 50" xml:space="preserve">
<g>
	<g>
		<g>
			<path fill="#3A3D42" d="M25,2c12.682,0,23,10.318,23,23S37.682,48,25,48S2,37.682,2,25S12.318,2,25,2 M25,0
				C11.192,0,0,11.192,0,25c0,13.807,11.192,25,25,25c13.807,0,25-11.193,25-25C50,11.192,38.807,0,25,0L25,0z"/>
		</g>
		<g>
			<path fill="#1AA9D2" d="M25,47C12.869,47,3,37.131,3,25S12.869,3,25,3s22,9.869,22,22S37.131,47,25,47z"/>
			<path fill="#91D2E4" d="M25,4c11.58,0,21,9.42,21,21s-9.42,21-21,21S4,36.58,4,25S13.42,4,25,4 M25,2C12.298,2,2,12.298,2,25
				c0,12.701,10.298,23,23,23c12.701,0,23-10.299,23-23C48,12.298,37.701,2,25,2L25,2z"/>
		</g>
		<path fill="#91D2E4" d="M25,4c11.597,0,21,9.403,21,21H4C4,13.403,13.403,4,25,4z"/>
		<g>
			<path fill="#366258" d="M34.107,23.997H15.891c-0.703,0-1.201-0.569-1.105-1.268l0.931-6.841
				c0.096-0.696,0.751-1.266,1.452-1.266h15.66c0.703,0,1.357,0.569,1.451,1.266l0.934,6.841
				C35.308,23.428,34.811,23.997,34.107,23.997"/>
			<path fill="#366258" d="M32.988,32.199c-0.971,0-1.757-0.786-1.757-1.755c0-0.972,0.786-1.759,1.757-1.759
				s1.759,0.787,1.759,1.759C34.747,31.413,33.959,32.199,32.988,32.199"/>
			<path fill="#366258" d="M17.007,32.199c-0.968,0-1.755-0.786-1.755-1.755c0-0.972,0.787-1.759,1.755-1.759
				c0.974,0,1.759,0.787,1.759,1.759C18.767,31.413,17.981,32.199,17.007,32.199"/>
			<rect x="20.684" y="12.238" fill="#366258" width="8.628" height="1.277"/>
			<path fill="#1E4A54" d="M39.221,14.623h-2.558c-0.161,0-0.315,0.021-0.455,0.057l-0.011-0.068
				c-0.096-0.697-0.572-1.681-1.059-2.188c0,0-1.777-1.848-10.14-1.848c-8.363,0-10.142,1.848-10.142,1.848
				c-0.484,0.508-0.96,1.491-1.057,2.188l-0.01,0.068c-0.143-0.036-0.294-0.057-0.457-0.057h-2.559
				c-0.701,0-1.275,0.575-1.275,1.278v3.196c0,0.702,0.526,1.277,1.171,1.277c0.644,0,1.173-0.575,1.173-1.277v-1.546
				c0-0.703,0.574-1.277,1.276-1.277h0.213c0.084,0,0.164-0.007,0.243-0.018l-0.708,5.193c-0.095,0.697-0.173,1.411-0.173,1.588
				v1.598v0.574v2.558v6.809c0,0.704,0.574,1.278,1.278,1.278h1.279v2.29c0,0.704,0.571,1.279,1.278,1.279h2.13
				c0.702,0,1.277-0.575,1.277-1.279v-2.29h10.12v2.29c0,0.704,0.575,1.279,1.278,1.279h2.131c0.704,0,1.279-0.575,1.279-1.279
				v-2.29h1.276c0.705,0,1.279-0.574,1.279-1.278v-6.809V25.21v-0.574v-1.598c0-0.177-0.076-0.891-0.172-1.588l-0.708-5.193
				c0.079,0.011,0.159,0.018,0.24,0.018h0.214c0.703,0,1.278,0.574,1.278,1.277v1.546c0,0.702,0.528,1.277,1.172,1.277
				S40.5,19.8,40.5,19.098v-3.196C40.5,15.198,39.924,14.623,39.221,14.623"/>
			<path fill="#C2E0DE" d="M34.135,23.996H15.918c-0.703,0-1.2-0.568-1.104-1.267l0.931-6.841c0.096-0.696,0.748-1.266,1.452-1.266
				h15.658c0.705,0,1.357,0.569,1.453,1.266l0.932,6.841C35.336,23.428,34.838,23.996,34.135,23.996"/>
			<path fill="#D8ECEE" d="M15.629,15.92l-0.933,6.683c-0.094,0.697,0.402,1.108,1.107,1.108h3.956l9.374-9.026H17.082
				C16.377,14.685,15.725,15.224,15.629,15.92"/>
			<path fill="#407C57" d="M33.018,32.2c-0.972,0-1.758-0.788-1.758-1.759c0-0.969,0.786-1.756,1.758-1.756
				c0.971,0,1.758,0.787,1.758,1.756C34.775,31.412,33.988,32.2,33.018,32.2"/>
			<path fill="#407C57" d="M17.038,32.2c-0.971,0-1.758-0.788-1.758-1.759c0-0.969,0.787-1.756,1.758-1.756
				c0.971,0,1.759,0.787,1.759,1.756C18.797,31.412,18.009,32.2,17.038,32.2"/>
			<polygon fill="#00727B" points="12.106,26.289 12.106,27.768 12.106,34.025 37.893,34.025 37.893,27.768 37.893,26.289 			"/>
			<rect x="20.712" y="12.237" fill="#F2C579" width="8.628" height="1.28"/>
			<path fill="#9FD6E5" d="M17.038,32.2c-0.971,0-1.756-0.787-1.756-1.758c0-0.97,0.786-1.757,1.756-1.757
				c0.971,0,1.757,0.787,1.757,1.757C18.794,31.413,18.009,32.2,17.038,32.2"/>
			<path fill="#9FD6E5" d="M33.018,32.2c-0.972,0-1.758-0.787-1.758-1.758c0-0.97,0.786-1.757,1.758-1.757
				c0.971,0,1.758,0.787,1.758,1.757C34.775,31.413,33.988,32.2,33.018,32.2"/>
			<path fill="#F8FBFB" d="M17.4,30.442c-0.356,0-0.645-0.288-0.645-0.645c0-0.355,0.289-0.645,0.645-0.645
				c0.356,0,0.645,0.289,0.645,0.645C18.045,30.154,17.757,30.442,17.4,30.442"/>
			<path fill="#F8FBFB" d="M33.379,30.442c-0.354,0-0.644-0.288-0.644-0.645c0-0.355,0.29-0.645,0.644-0.645
				c0.355,0,0.646,0.289,0.646,0.645C34.024,30.154,33.734,30.442,33.379,30.442"/>
		</g>
		<path opacity="0.2" d="M14.527,41.424c0,0.553,4.7,1,10.504,1c5.795,0,10.496-0.447,10.496-1c0-0.552-4.701-1-10.496-1
			C19.228,40.424,14.527,40.872,14.527,41.424"/>
	</g>
	<g>
		<path fill="#3A3D42" d="M50,25C50,11.193,38.807,0,25,0v50C38.807,50,50,38.808,50,25z"/>
		<g>
			<path fill="#EE445F" d="M33.894,36.614c-1.509,0-2.736-1.228-2.736-2.739V19.354c0-1.513,1.228-2.739,2.736-2.739
				c0.414,0,0.75,0.337,0.75,0.747s-0.336,0.747-0.75,0.747c-0.685,0-1.242,0.56-1.242,1.245v14.521
				c0,0.685,0.558,1.245,1.242,1.245c0.688,0,1.248-0.561,1.248-1.245V30.56c0-1.509,1.228-2.739,2.736-2.739h0.751
				c2.676,0,4.854-2.178,4.854-4.854c0-2.68-2.178-4.858-4.854-4.858h-0.751c-0.685,0-1.242,0.56-1.242,1.245v5.742
				c0,0.414-0.336,0.751-0.75,0.751c-0.411,0-0.744-0.337-0.744-0.751v-5.742c0-1.513,1.228-2.739,2.736-2.739h0.751
				c3.499,0,6.348,2.847,6.348,6.353c0,3.497-2.849,6.348-6.348,6.348h-0.751c-0.685,0-1.242,0.557-1.242,1.245v3.315
				C36.636,35.387,35.406,36.614,33.894,36.614z"/>
		</g>
	</g>
</g>
</svg>
