<?xml version="1.0" encoding="utf-8"?>
<!-- Generator: Adobe Illustrator 15.0.0, SVG Export Plug-In . SVG Version: 6.00 Build 0)  -->
<!DOCTYPE svg PUBLIC "-//W3C//DTD SVG 1.1//EN" "http://www.w3.org/Graphics/SVG/1.1/DTD/svg11.dtd">
<svg version="1.1" id="Graphics" xmlns="http://www.w3.org/2000/svg" xmlns:xlink="http://www.w3.org/1999/xlink" x="0px" y="0px"
	 width="50px" height="50px" viewBox="0 0 50 50" enable-background="new 0 0 50 50" xml:space="preserve">
<g>
	<path fill="#1E4A54" d="M0,25C0,11.193,11.192,0,25,0v50C11.192,50,0,38.807,0,25z"/>
	<g>
		<path fill="#3A3D42" d="M25,2c12.682,0,23,10.318,23,23S37.682,48,25,48S2,37.682,2,25S12.318,2,25,2 M25,0
			C11.192,0,0,11.193,0,25s11.192,25,25,25c13.807,0,25-11.193,25-25S38.807,0,25,0L25,0z"/>
	</g>
	<g>
		<path fill="#D8E3E2" d="M25,47C12.869,47,3,37.131,3,25S12.869,3,25,3s22,9.869,22,22S37.131,47,25,47z"/>
		<path fill="#6A8F97" d="M25,4c11.58,0,21,9.42,21,21s-9.42,21-21,21S4,36.58,4,25S13.42,4,25,4 M25,2C12.298,2,2,12.298,2,25
			s10.298,23,23,23c12.701,0,23-10.298,23-23S37.701,2,25,2L25,2z"/>
	</g>
	<g>
		<g>
			<polygon fill="#3A3D42" points="7,26.25 7,26.649 7.301,26.649 7.9,32.317 11.1,32.317 11.701,26.649 12.001,26.649 
				12.001,26.25 			"/>
			<polygon fill="#3A3D42" points="12.999,26.25 12.999,26.649 13.3,26.649 13.901,32.317 17.099,32.317 17.7,26.649 18.001,26.649 
				18.001,26.25 			"/>
			<polygon fill="#3A3D42" points="18.999,26.25 18.999,26.649 19.299,26.649 19.9,32.317 23.1,32.317 23.699,26.649 24,26.649 
				24,26.25 			"/>
			<polygon fill="#3A3D42" points="10.001,19.85 10.001,20.25 10.3,20.25 10.899,25.918 14.102,25.918 14.699,20.25 14.999,20.25 
				14.999,19.85 			"/>
			<polygon fill="#3A3D42" points="16.001,19.85 16.001,20.25 16.301,20.25 16.898,25.918 20.101,25.918 20.7,20.25 20.999,20.25 
				20.999,19.85 			"/>
			<polygon fill="#3A3D42" points="12.999,13.45 12.999,13.85 13.3,13.85 13.901,19.518 17.099,19.518 17.7,13.85 18.001,13.85 
				18.001,13.45 			"/>
		</g>
		<g>
			<polygon fill="#8FADB4" points="10.881,31.93 8.117,31.93 7.602,27.038 11.4,27.038 			"/>
			<polygon fill="#8FADB4" points="16.882,31.93 14.118,31.93 13.6,27.038 17.399,27.038 			"/>
			<polygon fill="#8FADB4" points="22.883,31.93 20.119,31.93 19.6,27.038 23.398,27.038 			"/>
			<polygon fill="#8FADB4" points="13.882,25.53 11.119,25.53 10.599,20.639 14.4,20.639 			"/>
			<polygon fill="#8FADB4" points="19.881,25.53 17.118,25.53 16.6,20.639 20.401,20.639 			"/>
			<polygon fill="#8FADB4" points="16.882,19.13 14.118,19.13 13.6,14.238 17.399,14.238 			"/>
		</g>
	</g>
	<g>
		<path fill="#3A3D42" d="M50,25C50,11.193,38.807,0,25,0v50C38.807,50,50,38.807,50,25z"/>
		<g>
			<path fill="#EE445F" d="M33.894,36.614c-1.509,0-2.736-1.227-2.736-2.739V19.353c0-1.512,1.228-2.739,2.736-2.739
				c0.414,0,0.75,0.337,0.75,0.747s-0.336,0.747-0.75,0.747c-0.685,0-1.242,0.56-1.242,1.245v14.521
				c0,0.685,0.558,1.245,1.242,1.245c0.688,0,1.248-0.56,1.248-1.245V30.56c0-1.509,1.228-2.74,2.736-2.74h0.751
				c2.676,0,4.854-2.178,4.854-4.854c0-2.679-2.178-4.858-4.854-4.858h-0.751c-0.685,0-1.242,0.56-1.242,1.245v5.742
				c0,0.414-0.336,0.751-0.75,0.751c-0.411,0-0.744-0.337-0.744-0.751v-5.742c0-1.512,1.228-2.739,2.736-2.739h0.751
				c3.499,0,6.348,2.847,6.348,6.353c0,3.498-2.849,6.348-6.348,6.348h-0.751c-0.685,0-1.242,0.557-1.242,1.246v3.315
				C36.636,35.387,35.406,36.614,33.894,36.614z"/>
		</g>
	</g>
</g>
</svg>
