<?xml version="1.0" encoding="utf-8"?>
<!-- Generator: Adobe Illustrator 15.0.0, SVG Export Plug-In . SVG Version: 6.00 Build 0)  -->
<!DOCTYPE svg PUBLIC "-//W3C//DTD SVG 1.1//EN" "http://www.w3.org/Graphics/SVG/1.1/DTD/svg11.dtd">
<svg version="1.1" id="Graphics" xmlns="http://www.w3.org/2000/svg" xmlns:xlink="http://www.w3.org/1999/xlink" x="0px" y="0px"
	 width="50px" height="50px" viewBox="0 0 50 50" enable-background="new 0 0 50 50" xml:space="preserve">
<g>
	<path fill="#1E4A54" d="M0,25C0,11.193,11.193,0,25,0v50C11.193,50,0,38.807,0,25z"/>
	<g>
		<path fill="#3A3D42" d="M25,2c12.682,0,23,10.318,23,23S37.682,48,25,48S2,37.682,2,25S12.318,2,25,2 M25,0
			C11.193,0,0,11.193,0,25s11.193,25,25,25s25-11.193,25-25S38.807,0,25,0L25,0z"/>
	</g>
	<g>
		<path fill="#D8E3E2" d="M25,47C12.869,47,3,37.131,3,25S12.869,3,25,3s22,9.869,22,22S37.131,47,25,47z"/>
		<path fill="#6A8F97" d="M25,4c11.58,0,21,9.42,21,21s-9.42,21-21,21S4,36.58,4,25S13.42,4,25,4 M25,2C12.298,2,2,12.298,2,25
			s10.298,23,23,23s23-10.298,23-23S37.702,2,25,2L25,2z"/>
	</g>
	<g>
		<path fill="#EEF3F3" d="M25,37.5c-6.893,0-12.5-5.607-12.5-12.5S18.107,12.5,25,12.5S37.5,18.107,37.5,25S31.893,37.5,25,37.5z"/>
		<path fill="#8FADB4" d="M25,13.5c6.341,0,11.5,5.159,11.5,11.5S31.341,36.5,25,36.5S13.5,31.341,13.5,25S18.659,13.5,25,13.5
			 M25,11.5c-7.456,0-13.5,6.044-13.5,13.5S17.544,38.5,25,38.5S38.5,32.456,38.5,25S32.456,11.5,25,11.5L25,11.5z"/>
	</g>
	<g>
		<polygon fill="#BE8952" points="21.665,25 28.335,25 25,5 		"/>
		<polygon fill="#F2C579" points="28.335,25 21.665,25 25,45 		"/>
		<polygon fill="#F2C579" points="25,28.335 25,25 22.141,22.142 5,25 		"/>
		<polygon fill="#BE8952" points="25,25 5,25 22.142,27.858 		"/>
	</g>
	<g>
		<polygon fill="#EFA016" points="21.855,25 25,25 25,21.855 14,14 		"/>
		<polygon fill="#E87800" points="25,25 14,14 21.855,25 		"/>
	</g>
	<g>
		<polygon fill="#EFA016" points="25,28.145 25,25 21.855,25 14,36 		"/>
		<polygon fill="#E87800" points="25,25 14,36 25,28.145 		"/>
	</g>
	<g>
		<path fill="#BCCFD1" d="M25,29.5c-2.481,0-4.5-2.019-4.5-4.5s2.019-4.5,4.5-4.5s4.5,2.019,4.5,4.5S27.481,29.5,25,29.5z"/>
		<path fill="#1E4A54" d="M25,21.5c1.93,0,3.5,1.57,3.5,3.5s-1.57,3.5-3.5,3.5s-3.5-1.57-3.5-3.5S23.07,21.5,25,21.5 M25,19.5
			c-3.038,0-5.5,2.462-5.5,5.5s2.462,5.5,5.5,5.5s5.5-2.462,5.5-5.5S28.038,19.5,25,19.5L25,19.5z"/>
	</g>
	<g>
		<path fill="#3A3D42" d="M50,25C50,11.193,38.807,0,25,0v50C38.807,50,50,38.807,50,25z"/>
		<g>
			<path fill="#EE445F" d="M33.894,36.614c-1.509,0-2.736-1.227-2.736-2.739V19.353c0-1.512,1.228-2.739,2.736-2.739
				c0.414,0,0.75,0.337,0.75,0.747s-0.336,0.747-0.75,0.747c-0.685,0-1.242,0.56-1.242,1.245v14.521
				c0,0.685,0.557,1.245,1.242,1.245c0.688,0,1.248-0.56,1.248-1.245V30.56c0-1.509,1.228-2.74,2.736-2.74h0.75
				c2.676,0,4.854-2.178,4.854-4.854c0-2.679-2.178-4.858-4.854-4.858h-0.75c-0.685,0-1.242,0.56-1.242,1.245v5.742
				c0,0.414-0.336,0.751-0.75,0.751c-0.412,0-0.744-0.337-0.744-0.751v-5.742c0-1.512,1.228-2.739,2.736-2.739h0.75
				c3.499,0,6.348,2.847,6.348,6.353c0,3.498-2.849,6.348-6.348,6.348h-0.75c-0.685,0-1.242,0.557-1.242,1.246v3.315
				C36.636,35.387,35.406,36.614,33.894,36.614z"/>
		</g>
	</g>
</g>
</svg>
