<?xml version="1.0" encoding="utf-8"?>
<!-- Generator: Adobe Illustrator 15.0.0, SVG Export Plug-In . SVG Version: 6.00 Build 0)  -->
<!DOCTYPE svg PUBLIC "-//W3C//DTD SVG 1.1//EN" "http://www.w3.org/Graphics/SVG/1.1/DTD/svg11.dtd">
<svg version="1.1" id="Graphics" xmlns="http://www.w3.org/2000/svg" xmlns:xlink="http://www.w3.org/1999/xlink" x="0px" y="0px"
	 width="50px" height="50px" viewBox="0 0 50 50" enable-background="new 0 0 50 50" xml:space="preserve">
<g>
	<path fill="#1E4A54" d="M0,25C0,11.193,11.192,0,25,0v50C11.192,50,0,38.807,0,25z"/>
	<g>
		<path fill="#3A3D42" d="M25,2c12.682,0,23,10.318,23,23S37.682,48,25,48S2,37.682,2,25S12.318,2,25,2 M25,0
			C11.192,0,0,11.193,0,25s11.192,25,25,25c13.807,0,25-11.193,25-25S38.807,0,25,0L25,0z"/>
	</g>
	<g>
		<path fill="#D8E3E2" d="M25,47C12.869,47,3,37.131,3,25S12.869,3,25,3s22,9.869,22,22S37.131,47,25,47z"/>
		<path fill="#6A8F97" d="M25,4c11.58,0,21,9.42,21,21s-9.42,21-21,21S4,36.58,4,25S13.42,4,25,4 M25,2C12.298,2,2,12.298,2,25
			s10.298,23,23,23c12.701,0,23-10.298,23-23S37.701,2,25,2L25,2z"/>
	</g>
	<g>
		<g>
			<path fill-rule="evenodd" clip-rule="evenodd" fill="#564677" d="M15.001,19.985c-0.548,1.061-1.261,1.957-1.794,3.034
				c-1.182-0.633-2.258-1.373-3.446-2c0.306-0.5,0.557-1.011,0.896-1.516c0.301-0.452,0.609-1.149,0.965-1.449
				C12.988,16.908,14.487,18.984,15.001,19.985z"/>
			<path fill-rule="evenodd" clip-rule="evenodd" fill="#564677" d="M19.691,27.984c-0.556-1.03-1.136-2.036-1.656-3.104
				c1.1-0.693,2.25-1.337,3.311-2.068C21.621,23.472,23,25.428,23,26.19C23,27.542,21.374,27.973,19.691,27.984z"/>
			<path fill-rule="evenodd" clip-rule="evenodd" fill="#564677" d="M7.139,22.95c1.104-0.16,2.506-0.023,3.725-0.069
				c0.602,1.076,1.133,2.224,1.792,3.241c-0.298,0.112-0.627-0.338-0.964-0.414c-0.569,0.674-0.984,1.498-1.449,2.276
				c-1.808,0.145-3.295-0.512-3.241-1.862c0.036-0.911,0.87-1.534,1.172-2.345C7.898,23.433,7.529,23.182,7.139,22.95z"/>
			<path fill-rule="evenodd" clip-rule="evenodd" fill="#564677" d="M17.138,27.157c0.139,0.275,0.036,0.791,0.139,1.104
				c1.904-0.096,4.367,0.367,5.241-0.758c-1.249,1.807-1.261,5.451-5.241,4.758c-0.161,0.276-0.024,0.849-0.07,1.241
				c-0.65-1.004-1.156-2.155-1.792-3.172C15.974,29.257,16.59,28.241,17.138,27.157z"/>
			<path fill-rule="evenodd" clip-rule="evenodd" fill="#564677" d="M20.863,19.572c-0.381,0.977-1.233,2.079-1.794,3.104
				c-1.195,0-2.391,0-3.586,0c0.283-0.248,0.631-0.427,0.966-0.622c-1.008-1.521-1.408-3.649-3.242-4.345
				c1.799,0.153,4.365-0.62,5.448,0.345c0.672,0.598,0.639,1.316,1.173,2.068C20.181,19.948,20.553,19.791,20.863,19.572z"/>
			<path fill-rule="evenodd" clip-rule="evenodd" fill="#564677" d="M7.347,27.571c1.142,1.087,4.479,0.577,6.827,0.69
				c0,1.333,0,2.665,0,4c-1.732-0.158-3.474,0.356-4.413-0.414c-0.538-0.442-0.874-1.465-1.241-2.139
				C8.106,28.95,7.762,28.222,7.347,27.571z"/>
		</g>
	</g>
	<g>
		<path fill="#3A3D42" d="M50,25C50,11.193,38.807,0,25,0v50C38.807,50,50,38.807,50,25z"/>
		<g>
			<path fill="#EE445F" d="M33.894,36.614c-1.509,0-2.736-1.227-2.736-2.739V19.353c0-1.512,1.228-2.739,2.736-2.739
				c0.414,0,0.75,0.337,0.75,0.747s-0.336,0.747-0.75,0.747c-0.685,0-1.242,0.56-1.242,1.245v14.521
				c0,0.685,0.558,1.245,1.242,1.245c0.688,0,1.248-0.56,1.248-1.245V30.56c0-1.509,1.228-2.74,2.736-2.74h0.751
				c2.676,0,4.854-2.178,4.854-4.854c0-2.679-2.178-4.858-4.854-4.858h-0.751c-0.685,0-1.242,0.56-1.242,1.245v5.742
				c0,0.414-0.336,0.751-0.75,0.751c-0.411,0-0.744-0.337-0.744-0.751v-5.742c0-1.512,1.228-2.739,2.736-2.739h0.751
				c3.499,0,6.348,2.847,6.348,6.353c0,3.498-2.849,6.348-6.348,6.348h-0.751c-0.685,0-1.242,0.557-1.242,1.246v3.315
				C36.636,35.387,35.406,36.614,33.894,36.614z"/>
		</g>
	</g>
</g>
</svg>
