<?xml version="1.0" encoding="utf-8"?>
<!-- Generator: Adobe Illustrator 15.0.0, SVG Export Plug-In . SVG Version: 6.00 Build 0)  -->
<!DOCTYPE svg PUBLIC "-//W3C//DTD SVG 1.1//EN" "http://www.w3.org/Graphics/SVG/1.1/DTD/svg11.dtd">
<svg version="1.1" id="Graphics" xmlns="http://www.w3.org/2000/svg" xmlns:xlink="http://www.w3.org/1999/xlink" x="0px" y="0px"
	 width="50px" height="50px" viewBox="0 0 50 50" enable-background="new 0 0 50 50" xml:space="preserve">
<path fill="#1E4A54" d="M0,25C0,11.193,11.193,0,25,0v50C11.193,50,0,38.807,0,25z"/>
<g>
	<path fill="#3A3D42" d="M25,2c12.682,0,23,10.318,23,23S37.682,48,25,48S2,37.682,2,25S12.318,2,25,2 M25,0C11.193,0,0,11.193,0,25
		s11.193,25,25,25s25-11.193,25-25S38.807,0,25,0L25,0z"/>
</g>
<g>
	<path fill="#D8E3E2" d="M25,47C12.869,47,3,37.131,3,25S12.869,3,25,3s22,9.869,22,22S37.131,47,25,47z"/>
	<path fill="#8FADB4" d="M25,4c11.58,0,21,9.42,21,21s-9.42,21-21,21S4,36.58,4,25S13.42,4,25,4 M25,2C12.298,2,2,12.298,2,25
		s10.298,23,23,23s23-10.298,23-23S37.702,2,25,2L25,2z"/>
</g>
<g>
	<path fill="#EE445F" d="M9.275,27.52v-0.517c0-0.395,0.081-0.726,0.241-0.997c0.16-0.271,0.446-0.535,0.854-0.791
		c0.325-0.204,0.559-0.389,0.702-0.554c0.142-0.165,0.214-0.353,0.214-0.566c0-0.168-0.077-0.302-0.229-0.399
		c-0.152-0.1-0.351-0.148-0.596-0.148c-0.605,0-1.313,0.216-2.124,0.645L7.5,22.555c1-0.57,2.042-0.854,3.13-0.854
		c0.894,0,1.596,0.196,2.105,0.589s0.764,0.929,0.764,1.608c0,0.485-0.113,0.905-0.34,1.26c-0.227,0.354-0.589,0.691-1.086,1.008
		c-0.421,0.272-0.685,0.473-0.792,0.599c-0.106,0.127-0.16,0.276-0.16,0.448v0.307H9.275z M9.016,29.625
		c0-0.369,0.108-0.653,0.322-0.854c0.214-0.2,0.53-0.3,0.948-0.3c0.401,0,0.709,0.1,0.924,0.304
		c0.214,0.203,0.322,0.486,0.322,0.851c0,0.366-0.111,0.648-0.334,0.849c-0.223,0.2-0.527,0.301-0.912,0.301
		c-0.397,0-0.708-0.1-0.934-0.298C9.129,30.279,9.016,29.995,9.016,29.625z"/>
</g>
<g>
	<path fill="#EE445F" d="M16.183,35.419v-0.344c0-0.263,0.054-0.484,0.161-0.665c0.106-0.181,0.297-0.356,0.569-0.527
		c0.216-0.136,0.373-0.259,0.468-0.369c0.094-0.11,0.143-0.235,0.143-0.377c0-0.112-0.051-0.201-0.153-0.266
		c-0.102-0.066-0.233-0.099-0.397-0.099c-0.404,0-0.875,0.144-1.416,0.43L15,32.11c0.667-0.38,1.361-0.57,2.087-0.57
		c0.596,0,1.064,0.131,1.404,0.393S19,32.552,19,33.005c0,0.323-0.075,0.604-0.227,0.84s-0.393,0.461-0.724,0.672
		c-0.281,0.182-0.457,0.315-0.528,0.399c-0.071,0.085-0.106,0.184-0.106,0.299v0.205H16.183z M16.01,36.824
		c0-0.246,0.072-0.436,0.215-0.57c0.143-0.133,0.354-0.2,0.632-0.2c0.268,0,0.473,0.066,0.616,0.202
		c0.143,0.135,0.215,0.324,0.215,0.567c0,0.244-0.074,0.432-0.223,0.566c-0.148,0.133-0.352,0.2-0.608,0.2
		c-0.265,0-0.472-0.066-0.623-0.198C16.085,37.259,16.01,37.07,16.01,36.824z"/>
</g>
<g>
	<path fill="#EE445F" d="M11.591,34.505v-0.172c0-0.132,0.027-0.242,0.081-0.333c0.053-0.09,0.148-0.178,0.284-0.264
		c0.108-0.068,0.187-0.129,0.234-0.185c0.047-0.055,0.071-0.118,0.071-0.189c0-0.056-0.025-0.101-0.077-0.133
		c-0.051-0.033-0.117-0.05-0.199-0.05c-0.202,0-0.438,0.072-0.708,0.215L11,32.851c0.333-0.19,0.681-0.285,1.043-0.285
		c0.298,0,0.532,0.065,0.702,0.196C12.915,32.893,13,33.071,13,33.298c0,0.161-0.038,0.302-0.113,0.42s-0.196,0.23-0.362,0.336
		c-0.141,0.091-0.229,0.157-0.264,0.199c-0.036,0.043-0.053,0.092-0.053,0.149v0.103H11.591z M11.505,35.207
		c0-0.123,0.036-0.218,0.107-0.285c0.071-0.066,0.177-0.1,0.316-0.1c0.134,0,0.236,0.033,0.308,0.101s0.107,0.162,0.107,0.284
		c0,0.122-0.037,0.216-0.111,0.283c-0.074,0.066-0.176,0.1-0.304,0.1c-0.133,0-0.236-0.033-0.312-0.099
		C11.542,35.425,11.505,35.33,11.505,35.207z"/>
</g>
<g>
	<path fill="#EE445F" d="M20.591,38.644v-0.172c0-0.132,0.027-0.242,0.081-0.333c0.053-0.09,0.148-0.178,0.284-0.264
		c0.108-0.068,0.187-0.129,0.234-0.185c0.047-0.055,0.071-0.118,0.071-0.189c0-0.056-0.025-0.101-0.077-0.133
		c-0.051-0.033-0.117-0.05-0.199-0.05c-0.202,0-0.438,0.072-0.708,0.215L20,36.99c0.333-0.19,0.681-0.285,1.043-0.285
		c0.298,0,0.532,0.065,0.702,0.196C21.915,37.032,22,37.21,22,37.437c0,0.161-0.038,0.302-0.113,0.42s-0.196,0.23-0.362,0.336
		c-0.141,0.091-0.229,0.157-0.264,0.199c-0.036,0.043-0.053,0.092-0.053,0.149v0.103H20.591z M20.505,39.346
		c0-0.123,0.036-0.218,0.107-0.285c0.071-0.066,0.177-0.1,0.316-0.1c0.134,0,0.236,0.033,0.308,0.101s0.107,0.162,0.107,0.284
		c0,0.122-0.037,0.216-0.111,0.283c-0.074,0.066-0.176,0.1-0.304,0.1c-0.133,0-0.236-0.033-0.312-0.099
		C20.542,39.564,20.505,39.469,20.505,39.346z"/>
</g>
<g>
	<path fill="#EE445F" d="M20.591,30.992V30.82c0-0.132,0.027-0.242,0.081-0.333c0.053-0.09,0.148-0.178,0.284-0.264
		c0.108-0.068,0.187-0.129,0.234-0.185c0.047-0.055,0.071-0.118,0.071-0.189c0-0.056-0.025-0.101-0.077-0.133
		c-0.051-0.033-0.117-0.05-0.199-0.05c-0.202,0-0.438,0.072-0.708,0.215L20,29.338c0.333-0.19,0.681-0.285,1.043-0.285
		c0.298,0,0.532,0.065,0.702,0.196C21.915,29.38,22,29.559,22,29.785c0,0.161-0.038,0.302-0.113,0.42s-0.196,0.23-0.362,0.336
		c-0.141,0.091-0.229,0.157-0.264,0.199c-0.036,0.043-0.053,0.092-0.053,0.149v0.103H20.591z M20.505,31.694
		c0-0.123,0.036-0.218,0.107-0.285c0.071-0.066,0.177-0.1,0.316-0.1c0.134,0,0.236,0.033,0.308,0.101s0.107,0.162,0.107,0.284
		c0,0.122-0.037,0.216-0.111,0.283c-0.074,0.066-0.176,0.1-0.304,0.1c-0.133,0-0.236-0.033-0.312-0.099
		C20.542,31.912,20.505,31.817,20.505,31.694z"/>
</g>
<g>
	<path fill="#EE445F" d="M15.958,22.14v-0.863c0-0.657,0.133-1.209,0.401-1.661c0.267-0.451,0.743-0.891,1.424-1.318
		c0.542-0.341,0.93-0.648,1.168-0.923c0.237-0.274,0.356-0.588,0.356-0.943c0-0.281-0.127-0.503-0.382-0.667
		c-0.254-0.165-0.585-0.246-0.993-0.246c-1.01,0-2.19,0.358-3.541,1.074L13,13.865c1.666-0.95,3.403-1.424,5.216-1.424
		c1.491,0,2.661,0.328,3.51,0.982S23,14.972,23,16.102c0,0.809-0.189,1.509-0.566,2.101c-0.379,0.591-0.981,1.152-1.811,1.68
		c-0.701,0.455-1.142,0.788-1.319,0.998c-0.177,0.211-0.267,0.459-0.267,0.747v0.512H15.958z M15.527,25.65
		c0-0.615,0.179-1.089,0.537-1.424c0.357-0.334,0.884-0.501,1.58-0.501c0.669,0,1.182,0.168,1.54,0.507
		c0.357,0.337,0.537,0.811,0.537,1.419c0,0.609-0.186,1.08-0.557,1.414c-0.371,0.334-0.878,0.502-1.52,0.502
		c-0.662,0-1.179-0.166-1.555-0.497C15.714,26.738,15.527,26.265,15.527,25.65z"/>
</g>
<g>
	<path fill="#3A3D42" d="M50,25C50,11.193,38.807,0,25,0v50C38.807,50,50,38.807,50,25z"/>
	<g>
		<path fill="#EE445F" d="M33.894,36.614c-1.509,0-2.736-1.227-2.736-2.739V19.353c0-1.512,1.228-2.739,2.736-2.739
			c0.414,0,0.75,0.337,0.75,0.747s-0.336,0.747-0.75,0.747c-0.685,0-1.242,0.56-1.242,1.245v14.521c0,0.685,0.557,1.245,1.242,1.245
			c0.688,0,1.248-0.56,1.248-1.245V30.56c0-1.509,1.228-2.74,2.736-2.74h0.75c2.676,0,4.854-2.178,4.854-4.854
			c0-2.679-2.178-4.858-4.854-4.858h-0.75c-0.685,0-1.242,0.56-1.242,1.245v5.742c0,0.414-0.336,0.751-0.75,0.751
			c-0.412,0-0.744-0.337-0.744-0.751v-5.742c0-1.512,1.228-2.739,2.736-2.739h0.75c3.499,0,6.348,2.847,6.348,6.353
			c0,3.498-2.849,6.348-6.348,6.348h-0.75c-0.685,0-1.242,0.557-1.242,1.246v3.315C36.636,35.387,35.406,36.614,33.894,36.614z"/>
	</g>
</g>
</svg>
