<?xml version="1.0" encoding="utf-8"?>
<!-- Generator: Adobe Illustrator 18.1.1, SVG Export Plug-In . SVG Version: 6.00 Build 0)  -->
<svg version="1.1" xmlns="http://www.w3.org/2000/svg" xmlns:xlink="http://www.w3.org/1999/xlink" x="0px" y="0px"
	 viewBox="0 0 36 36" enable-background="new 0 0 36 36" xml:space="preserve">
<g id="Layer_1">
	<g>
		<path fill="#C2E0DE" d="M18,35.5C8.351,35.5,0.5,27.649,0.5,18S8.351,0.5,18,0.5c9.649,0,17.5,7.851,17.5,17.5
			S27.649,35.5,18,35.5"/>
		<path fill="#366258" d="M18,0C8.061,0,0,8.06,0,18c0,9.941,8.061,18,18,18c9.94,0,18-8.059,18-18C36,8.06,27.94,0,18,0 M18,1
			c9.374,0,17,7.626,17,17c0,9.374-7.626,17-17,17S1,27.374,1,18C1,8.626,8.626,1,18,1"/>
		<path fill="#9FD7E6" d="M34,18c0,8.836-7.164,16-16,16C9.164,34,2,26.836,2,18C2,9.164,9.164,2,18,2C26.836,2,34,9.164,34,18"/>
		<path fill="#00B1A8" d="M34,18c0,8.836-7.164,16-16,16C9.164,34,2,26.836,2,18"/>
		<g>
			<defs>
				<path id="SVGID_113_" d="M2,18c0,8.836,7.164,16,16,16c8.836,0,16-7.164,16-16c0-8.835-7.164-16-16-16C9.164,2,2,9.165,2,18"/>
			</defs>
			<clipPath id="SVGID_2_">
				<use xlink:href="#SVGID_113_"  overflow="visible"/>
			</clipPath>
			<path clip-path="url(#SVGID_2_)" fill="#366258" d="M5.867,18.833c-3.223,0-5.834,2.612-5.834,5.834S2.645,30.5,5.867,30.5
				c3.223,0,5.834-2.611,5.834-5.833S9.09,18.833,5.867,18.833 M5.867,19.833c2.665,0,4.834,2.168,4.834,4.834
				c0,2.665-2.169,4.833-4.834,4.833c-2.665,0-4.834-2.168-4.834-4.833C1.033,22.001,3.202,19.833,5.867,19.833"/>
			<path clip-path="url(#SVGID_2_)" fill="#366258" d="M19.876,9.479c0,1.116-0.905,2.022-2.021,2.022
				c-1.117,0-2.021-0.905-2.021-2.022c0-1.117,0.904-2.021,2.021-2.021C18.971,7.459,19.876,8.362,19.876,9.479"/>
			<path clip-path="url(#SVGID_2_)" fill="#366258" d="M21.946,18.833c-3.223,0-5.834,2.612-5.834,5.834s2.611,5.833,5.834,5.833
				c3.223,0,5.833-2.611,5.833-5.833S25.169,18.833,21.946,18.833 M21.946,19.833c2.665,0,4.833,2.168,4.833,4.834
				c0,2.665-2.168,4.833-4.833,4.833c-2.665,0-4.834-2.168-4.834-4.833C17.112,22.001,19.281,19.833,21.946,19.833"/>
			<path clip-path="url(#SVGID_2_)" fill="#00A095" d="M5.867,20.167c-2.484,0-4.5,2.015-4.5,4.5c0,2.485,2.016,4.5,4.5,4.5
				c2.484,0,4.5-2.015,4.5-4.5C10.367,22.182,8.351,20.167,5.867,20.167 M5.867,21.167c1.93,0,3.5,1.57,3.5,3.5s-1.57,3.5-3.5,3.5
				s-3.5-1.57-3.5-3.5S3.938,21.167,5.867,21.167"/>
			<path clip-path="url(#SVGID_2_)" fill="#00A095" d="M21.946,20.167c-2.486,0-4.5,2.014-4.5,4.5c0,2.484,2.014,4.5,4.5,4.5
				c2.484,0,4.5-2.016,4.5-4.5C26.446,22.181,24.431,20.167,21.946,20.167 M21.946,21.167c1.93,0,3.5,1.57,3.5,3.5
				s-1.57,3.5-3.5,3.5s-3.5-1.57-3.5-3.5S20.017,21.167,21.946,21.167"/>
			
				<polyline clip-path="url(#SVGID_2_)" fill="none" stroke="#366258" stroke-width="2" stroke-linecap="round" stroke-linejoin="round" stroke-miterlimit="10" points="
				14,25 14,20 10.875,16.875 15.625,12.25 19.187,15.75 21.958,15.792 			"/>
			
				<line clip-path="url(#SVGID_2_)" fill="none" stroke="#366258" stroke-width="3" stroke-linecap="round" stroke-linejoin="round" stroke-miterlimit="10" x1="11.17" y1="16.589" x2="15.331" y2="12.536"/>
			<path clip-path="url(#SVGID_2_)" fill="#FFFFFF" d="M24.001,6.292c0,2.186,1.771,3.958,3.959,3.958
				c2.186,0,3.957-1.772,3.957-3.958c0-2.186-1.771-3.958-3.957-3.958C25.772,2.334,24.001,4.106,24.001,6.292"/>
		</g>
	</g>
</g>
<g id="Layer_2">
</g>
<g id="Layer_3">
</g>
</svg>
