<?xml version="1.0" encoding="utf-8"?>
<!-- Generator: Adobe Illustrator 15.0.0, SVG Export Plug-In . SVG Version: 6.00 Build 0)  -->
<!DOCTYPE svg PUBLIC "-//W3C//DTD SVG 1.1//EN" "http://www.w3.org/Graphics/SVG/1.1/DTD/svg11.dtd">
<svg version="1.1" id="Layer_1" xmlns="http://www.w3.org/2000/svg" xmlns:xlink="http://www.w3.org/1999/xlink" x="0px" y="0px"
	 width="60px" height="60.001px" viewBox="0 0 60 60.001" enable-background="new 0 0 60 60.001" xml:space="preserve">
<g>
	<path fill="#FFA300" d="M41.311,7.707C40.63,5.114,39.489,2.493,37.851,0c-2.648,1.375-4.921,3.102-6.787,5.026
		C34.742,5.18,38.211,6.13,41.311,7.707z"/>
	<path fill="#FFA300" d="M28.645,5.037c-1.887-1.902-4.18-3.601-6.841-4.945c-1.608,2.512-2.719,5.146-3.37,7.746
		C21.516,6.225,24.974,5.233,28.645,5.037z"/>
	<path fill="#FFA300" d="M50.943,16.354c0.702-2.587,1.017-5.425,0.854-8.405c-2.982-0.127-5.816,0.219-8.395,0.951
		C46.416,10.819,48.99,13.364,50.943,16.354z"/>
	<path fill="#FFA300" d="M54.973,31.063c-0.154,3.677-1.104,7.147-2.681,10.247c2.593-0.68,5.214-1.822,7.708-3.459
		C58.624,35.202,56.898,32.929,54.973,31.063z"/>
	<path fill="#FFA300" d="M16.354,9.057C13.767,8.354,10.93,8.041,7.95,8.203c-0.128,2.981,0.219,5.815,0.951,8.395
		C10.82,13.583,13.364,11.009,16.354,9.057z"/>
	<path fill="#FFA300" d="M54.962,28.644c1.902-1.888,3.601-4.18,4.945-6.842c-2.513-1.609-5.146-2.72-7.747-3.37
		C53.774,21.515,54.766,24.973,54.962,28.644z"/>
	<path fill="#FFA300" d="M5.027,28.936c0.154-3.677,1.104-7.146,2.681-10.246C5.115,19.37,2.494,20.511,0,22.148
		C1.375,24.797,3.102,27.07,5.027,28.936z"/>
	<path fill="#FFA300" d="M31.355,54.961c1.888,1.902,4.18,3.602,6.842,4.946c1.609-2.513,2.72-5.147,3.37-7.747
		C38.484,53.773,35.026,54.765,31.355,54.961z"/>
	<path fill="#FFA300" d="M43.645,50.942c2.587,0.703,5.425,1.017,8.405,0.854c0.127-2.982-0.219-5.816-0.951-8.396
		C49.18,46.415,46.636,48.99,43.645,50.942z"/>
	<path fill="#FFA300" d="M5.038,31.354c-1.902,1.887-3.601,4.179-4.945,6.842c2.512,1.608,5.146,2.719,7.746,3.37
		C6.226,38.483,5.234,35.025,5.038,31.354z"/>
	<path fill="#FFA300" d="M18.69,52.292c0.68,2.593,1.821,5.214,3.459,7.708c2.648-1.376,4.922-3.102,6.788-5.027
		C25.26,54.818,21.79,53.868,18.69,52.292z"/>
</g>
<g>
	<g>
		<path fill="#FFFFFF" d="M44.12,51.228c2.801-1.869,5.24-4.308,7.109-7.109l7.729,7.729l-6.106,1.003l-1.002,6.106L44.12,51.228z"
			/>
		<path fill="#53565A" d="M51.301,44.898l6.614,6.614l-4.791,0.787l-0.708,0.116l-0.116,0.708l-0.786,4.79L44.899,51.3
			C47.378,49.56,49.561,47.377,51.301,44.898 M51.146,43.329c-1.991,3.151-4.665,5.825-7.816,7.816l8.854,8.854l1.102-6.713
			L60,52.183L51.146,43.329L51.146,43.329z"/>
	</g>
	<g>
		<path fill="#FFA300" d="M45.812,49.347c-0.79,0.646-1.616,1.25-2.482,1.797l8.854,8.854l0.604-3.676L45.812,49.347z"/>
		<path fill="#FFA300" d="M49.348,45.812l6.975,6.975L60,52.183l-8.854-8.854C50.598,44.195,49.995,45.022,49.348,45.812z"/>
	</g>
	<g>
		<path fill="#53565A" d="M51.301,44.898l6.614,6.614l-4.791,0.787l-0.708,0.116l-0.116,0.708l-0.786,4.79L44.899,51.3
			C47.378,49.56,49.561,47.377,51.301,44.898 M51.146,43.329c-1.991,3.151-4.665,5.825-7.816,7.816l8.854,8.854l1.102-6.713
			L60,52.183L51.146,43.329L51.146,43.329z"/>
	</g>
</g>
<path fill="none" stroke="#53565A" stroke-width="2" stroke-miterlimit="10" d="M7.687,41.285C5.968,37.894,5,34.06,5,29.999
	c0-13.805,11.194-25,25-25c13.806,0,25,11.195,25,25c0,13.806-11.194,25-25,25c-4.068,0-7.91-0.972-11.305-2.696"/>
<g>
	<path fill="#53565A" d="M9.974,42.05c4.397,0,7.974,3.577,7.974,7.974c0,4.397-3.577,7.975-7.974,7.975S2,54.422,2,50.024
		C2,45.627,5.577,42.05,9.974,42.05 M9.974,40.05C4.466,40.05,0,44.516,0,50.024s4.466,9.975,9.974,9.975s9.974-4.466,9.974-9.975
		S15.482,40.05,9.974,40.05L9.974,40.05z"/>
</g>
<g>
	<path fill="#53565A" d="M9.974,42.05c4.397,0,7.974,3.577,7.974,7.974c0,4.397-3.577,7.975-7.974,7.975S2,54.422,2,50.024
		C2,45.627,5.577,42.05,9.974,42.05 M9.974,40.05C4.466,40.05,0,44.516,0,50.024s4.466,9.975,9.974,9.975s9.974-4.466,9.974-9.975
		S15.482,40.05,9.974,40.05L9.974,40.05z"/>
</g>
<g>
	<path fill="#53565A" d="M5.099,47.587c0-0.311,0.252-0.563,0.563-0.563h1.687v-0.563c0-0.515,0.422-0.937,0.938-0.937h3.375
		c0.516,0,0.938,0.422,0.938,0.937v0.563h1.687c0.311,0,0.563,0.252,0.563,0.563v0.75c0,1.114-1.347,2.343-3.176,2.432
		c-0.234,0.299-0.451,0.475-0.556,0.557c-0.31,0.281-0.393,0.574-0.393,0.949c0,0.375,0.187,0.751,0.75,0.751
		c0.563,0,1.125,0.375,1.125,0.937v0.375c0,0.106-0.082,0.188-0.188,0.188H7.536c-0.105,0-0.187-0.082-0.187-0.188v-0.375
		c0-0.563,0.563-0.937,1.125-0.937c0.563,0,0.75-0.375,0.75-0.751c0-0.375-0.083-0.668-0.393-0.949
		c-0.105-0.082-0.322-0.258-0.556-0.557c-1.829-0.088-3.176-1.318-3.176-2.432V47.587z M12.166,49.948
		c1.154-0.24,1.934-1.038,1.934-1.611v-0.563h-1.5C12.599,48.694,12.412,49.41,12.166,49.948z M5.849,48.337
		c0,0.574,0.779,1.371,1.934,1.611c-0.247-0.539-0.434-1.254-0.434-2.174h-1.5V48.337z"/>
</g>
</svg>
