<?xml version="1.0" encoding="utf-8"?>
<!-- Generator: Adobe Illustrator 15.0.0, SVG Export Plug-In . SVG Version: 6.00 Build 0)  -->
<!DOCTYPE svg PUBLIC "-//W3C//DTD SVG 1.1//EN" "http://www.w3.org/Graphics/SVG/1.1/DTD/svg11.dtd">
<svg version="1.1" id="Layer_1" xmlns="http://www.w3.org/2000/svg" xmlns:xlink="http://www.w3.org/1999/xlink" x="0px" y="0px"
	 width="60px" height="60.001px" viewBox="0 0 60 60.001" enable-background="new 0 0 60 60.001" xml:space="preserve">
<g>
	<path fill="#53565A" d="M9.974,42.11c4.397,0,7.974,3.577,7.974,7.974c0,4.397-3.577,7.975-7.974,7.975S2,54.481,2,50.084
		C2,45.687,5.577,42.11,9.974,42.11 M9.974,40.11C4.466,40.11,0,44.576,0,50.084s4.466,9.975,9.974,9.975s9.974-4.466,9.974-9.975
		S15.482,40.11,9.974,40.11L9.974,40.11z"/>
</g>
<g>
	<path fill="#53565A" d="M6,30C6,16.766,16.766,6,30,6s24,10.766,24,24S43.234,54,30,54c-3.645,0-7.1-0.82-10.197-2.28
		c-0.056,0.339-0.128,0.671-0.217,0.998C22.758,54.178,26.284,55,30,55c13.783,0,25-11.217,25-25S43.783,5,30,5S5,16.216,5,30
		c0,3.741,0.832,7.291,2.312,10.48c0.326-0.09,0.658-0.163,0.997-0.22C6.831,37.147,6,33.669,6,30z"/>
	<path fill="#53565A" d="M30,0C13.458,0,0,13.458,0,30c0,4.652,1.064,9.061,2.962,12.994c0.489-0.484,1.031-0.913,1.612-1.288
		C2.926,38.142,2,34.178,2,30C2,14.56,14.561,2,30,2S58,14.56,58,30S45.439,58,30,58c-4.149,0-8.087-0.914-11.632-2.541
		c-0.373,0.581-0.801,1.124-1.283,1.614C20.999,58.947,25.378,60,30,60c16.542,0,30-13.458,30-30S46.542,0,30,0z"/>
</g>
<g>
	<path fill="#53565A" d="M5.099,47.646c0-0.311,0.252-0.563,0.563-0.563h1.687v-0.563c0-0.515,0.422-0.937,0.938-0.937h3.375
		c0.516,0,0.938,0.422,0.938,0.937v0.563h1.687c0.311,0,0.563,0.252,0.563,0.563v0.75c0,1.114-1.347,2.343-3.176,2.432
		c-0.234,0.299-0.451,0.475-0.556,0.557c-0.31,0.281-0.393,0.574-0.393,0.949c0,0.375,0.187,0.751,0.75,0.751
		c0.563,0,1.125,0.375,1.125,0.937v0.375c0,0.106-0.082,0.188-0.188,0.188H7.536c-0.105,0-0.187-0.082-0.187-0.188v-0.375
		c0-0.563,0.563-0.937,1.125-0.937c0.563,0,0.75-0.375,0.75-0.751c0-0.375-0.083-0.668-0.393-0.949
		c-0.105-0.082-0.322-0.258-0.556-0.557c-1.829-0.088-3.176-1.318-3.176-2.432V47.646z M12.166,50.008
		c1.154-0.24,1.934-1.038,1.934-1.611v-0.563h-1.5C12.599,48.754,12.412,49.469,12.166,50.008z M5.849,48.396
		c0,0.574,0.779,1.371,1.934,1.611c-0.247-0.539-0.434-1.254-0.434-2.174h-1.5V48.396z"/>
</g>
</svg>
