<?xml version="1.0" encoding="utf-8"?>
<!-- Generator: Adobe Illustrator 15.0.0, SVG Export Plug-In . SVG Version: 6.00 Build 0)  -->
<!DOCTYPE svg PUBLIC "-//W3C//DTD SVG 1.1//EN" "http://www.w3.org/Graphics/SVG/1.1/DTD/svg11.dtd">
<svg version="1.1" id="Layer_1" xmlns="http://www.w3.org/2000/svg" xmlns:xlink="http://www.w3.org/1999/xlink" x="0px" y="0px"
	 width="36px" height="36px" viewBox="0 0 36 36" enable-background="new 0 0 36 36" xml:space="preserve">
<g>
	<g>
		<path fill="#F2C579" d="M18,35.5C8.351,35.5,0.5,27.649,0.5,18S8.351,0.5,18,0.5S35.5,8.351,35.5,18S27.649,35.5,18,35.5z"/>
		<path fill="#E87800" d="M18,1c9.374,0,17,7.626,17,17s-7.626,17-17,17S1,27.374,1,18S8.626,1,18,1 M18,0C8.06,0,0,8.06,0,18
			c0,9.941,8.06,18,18,18s18-8.059,18-18C36,8.06,27.94,0,18,0L18,0z"/>
	</g>
	<g>
		<circle fill="#EFA016" cx="18" cy="18" r="16"/>
	</g>
	<g>
		<path fill="#00727B" d="M18,2C9.164,2,2,9.164,2,18s7.164,16,16,16V2z"/>
	</g>
	<path opacity="0.5" fill="#FFFFFF" d="M25,12c0-3.86-3.141-7-7-7c-3.859,0-7,3.141-7,7c0,1.772,0.926,3.632,1.907,5.601
		C13.779,19.353,14.676,21,14.929,23h6.138c0.25-2,1.164-3.728,2.051-5.496C24.086,15.576,25,13.755,25,12z"/>
	<path fill="#D8E0E3" d="M18,4c-4.417,0-8,3.582-8,8c0,4,4,8,4,12H22c0-4,4-8,4-12C26,7.582,22.417,4,18,4z M21.067,23h-6.138
		c-0.253-2-1.15-3.647-2.022-5.398C11.926,15.633,11,13.773,11,12c0-3.86,3.14-7,7-7c3.86,0,7,3.141,7,7
		c0,1.755-0.914,3.576-1.882,5.503C22.231,19.272,21.318,21,21.067,23z"/>
	<path fill="#BAC9CF" d="M20.999,28H15c-0.553,0-1,0.447-1,1s0.447,1,1,1h0.184c0.412,1.164,1.511,2,2.816,2
		c1.306,0,2.405-0.836,2.817-2h0.183C21.551,30,22,29.553,22,29S21.551,28,20.999,28"/>
	<path fill="#BAC9CF" d="M20.999,25H15c-0.553,0-1,0.446-1,0.999C14,26.553,14.447,27,15,27h5.999C21.551,27,22,26.553,22,26
		C22,25.447,21.551,25,20.999,25"/>
	<path fill="#98ACB2" d="M14,25.999C14,26.552,14.447,27,15,27h3v-2h-3C14.447,25,14,25.446,14,25.999z"/>
	<path fill="#98ACB2" d="M18,28h-3c-0.553,0-1,0.447-1,1s0.447,1,1,1h0.184c0.412,1.164,1.511,2,2.816,2h0V28z"/>
	<path fill="#BAC9CF" d="M14.929,23c-0.253-2-1.15-3.647-2.022-5.398C11.926,15.633,11,13.773,11,12c0-3.86,3.14-7,7-7h0V4h0
		c-4.417,0-8,3.582-8,8c0,4,4,8,4,12h4v-1H14.929z"/>
	<g>
		<circle fill="#FFFFFF" cx="14.293" cy="9.452" r="1.5"/>
	</g>
	<g>
		<circle fill="#FFFFFF" cx="16.293" cy="7.452" r="1"/>
	</g>
	<g>
		<path fill="#FFFFFF" d="M18,10.188c2,0,4,1.791,4,4s-2,4-4,4V10.188z"/>
	</g>
	<g>
		<path fill="#F4D100" d="M18,11.188c1.656,0,3,1.343,3,3s-1.343,3-3,3V11.188z"/>
	</g>
	<g>
		<path fill="#EFA016" d="M18,12.188c1.104,0,2,0.896,2,2s-0.896,2-2,2V12.188z"/>
	</g>
</g>
<g>
	<path fill="#F2C579" d="M96,35.5c-9.649,0-17.5-7.851-17.5-17.5S86.351,0.5,96,0.5s17.5,7.851,17.5,17.5S105.649,35.5,96,35.5z"/>
	<path fill="#E87800" d="M96,1c9.374,0,17,7.626,17,17s-7.626,17-17,17s-17-7.626-17-17S86.626,1,96,1 M96,0c-9.94,0-18,8.06-18,18
		c0,9.941,8.06,18,18,18s18-8.059,18-18C114,8.06,105.94,0,96,0L96,0z"/>
</g>
<circle fill="#EFA016" cx="96" cy="18" r="16"/>
<g>
	<path fill="#B8D9D7" d="M107.313,6.687C104.418,3.791,100.418,2,96,2v16L107.313,6.687z"/>
</g>
<g>
	<path fill="#EFA016" d="M107.313,29.313C110.209,26.418,112,22.418,112,18H96L107.313,29.313z"/>
</g>
<g>
	<path fill="#B8D9D7" d="M112,18c0-4-1.562-8.19-4.686-11.313L96,18H112z"/>
</g>
<g>
	<defs>
		<circle id="SVGID_1_" cx="96" cy="18" r="16"/>
	</defs>
	<clipPath id="SVGID_2_">
		<use xlink:href="#SVGID_1_"  overflow="visible"/>
	</clipPath>
	<g clip-path="url(#SVGID_2_)">
		<g>
			<g>
				<path fill="#00727B" d="M100.855,13.264c-0.359-3.962-3.695-7.077-7.748-7.077c-4.292,0-7.785,3.492-7.785,7.784v34.887
					c0,0.53,0.431,0.961,0.961,0.961s0.96-0.431,0.96-0.961V13.972c0-3.233,2.631-5.863,5.863-5.863
					c2.997,0,5.475,2.262,5.818,5.168c-3.046,0.485-5.384,3.123-5.384,6.302c0,0.53,0.43,0.96,0.96,0.96h10.858
					c0.004,0,0.008,0,0.012,0c0.53,0,0.96-0.431,0.96-0.96c0-0.058-0.006-0.115-0.014-0.17
					C106.234,16.277,103.885,13.708,100.855,13.264"/>
			</g>
			<g>
				<path fill="#1E4A54" d="M86,48.858V13.971c0-4.153,3.355-7.548,7.458-7.763c-0.145-0.008-0.407-0.021-0.553-0.021
					C88.613,6.188,85,9.68,85,13.971v34.887c0,0.53,0.592,0.961,1.123,0.961c0.153,0,0.292-0.043,0.419-0.107
					C86.225,49.555,86,49.235,86,48.858z"/>
				<path fill="#1E4A54" d="M94.382,19.31c0-3.18,2.338-5.682,5.384-6.167c-0.343-2.906-2.821-5.101-5.818-5.101
					c-0.137,0-0.271,0.045-0.405,0.055c2.798,0.207,5.056,2.401,5.383,5.165c-3.046,0.485-5.384,2.861-5.384,6.041
					c0,0.529,0.43,0.699,0.96,0.699h0.84C94.812,20,94.382,19.839,94.382,19.31z"/>
			</g>
		</g>
		<g>
			<g>
				<g>
					<g>
						<path fill="#D1EBEA" d="M98.222,22.99c0-0.56-0.454-1.013-1.013-1.013s-1.013,0.453-1.013,1.013
							c0,0.559,0.454,1.012,1.013,1.012S98.222,23.548,98.222,22.99"/>
					</g>
					<g>
						<path fill="#D1EBEA" d="M101.354,22.99c0-0.56-0.453-1.013-1.013-1.013s-1.013,0.453-1.013,1.013
							c0,0.559,0.453,1.012,1.013,1.012S101.354,23.548,101.354,22.99"/>
					</g>
					<g>
						<path fill="#D1EBEA" d="M104.485,22.99c0-0.56-0.453-1.013-1.012-1.013s-1.013,0.453-1.013,1.013
							c0,0.559,0.453,1.012,1.013,1.012S104.485,23.548,104.485,22.99"/>
					</g>
					<g>
						<path fill="#FFFFFF" d="M104.485,16.552c0-0.56-0.453-1.013-1.012-1.013s-1.013,0.453-1.013,1.013
							c0,0.559,0.453,1.012,1.013,1.012S104.485,17.111,104.485,16.552"/>
					</g>
				</g>
				<g>
					<g>
						<path fill="#D1EBEA" d="M98.222,26.072c0-0.559-0.454-1.012-1.013-1.012s-1.013,0.453-1.013,1.012s0.454,1.013,1.013,1.013
							S98.222,26.631,98.222,26.072"/>
					</g>
					<g>
						<path fill="#D1EBEA" d="M101.354,26.072c0-0.559-0.453-1.012-1.013-1.012s-1.013,0.453-1.013,1.012s0.453,1.013,1.013,1.013
							S101.354,26.631,101.354,26.072"/>
					</g>
					<g>
						<path fill="#D1EBEA" d="M104.485,26.072c0-0.559-0.453-1.012-1.012-1.012s-1.013,0.453-1.013,1.012s0.453,1.013,1.013,1.013
							S104.485,26.631,104.485,26.072"/>
					</g>
				</g>
				<g>
					<g>
						<path fill="#D1EBEA" d="M98.222,29.156c0-0.56-0.454-1.013-1.013-1.013s-1.013,0.453-1.013,1.013
							c0,0.558,0.454,1.012,1.013,1.012S98.222,29.714,98.222,29.156"/>
					</g>
					<g>
						<path fill="#D1EBEA" d="M101.354,29.156c0-0.56-0.453-1.013-1.013-1.013s-1.013,0.453-1.013,1.013
							c0,0.558,0.453,1.012,1.013,1.012S101.354,29.714,101.354,29.156"/>
					</g>
					<g>
						<path fill="#D1EBEA" d="M104.485,29.156c0-0.56-0.453-1.013-1.012-1.013s-1.013,0.453-1.013,1.013
							c0,0.558,0.453,1.012,1.013,1.012S104.485,29.714,104.485,29.156"/>
					</g>
				</g>
			</g>
			<g>
				<g>
					<g>
						<path fill="#FFFFFF" d="M97.285,22.646c0-0.232-0.188-0.42-0.419-0.42c-0.232,0-0.421,0.188-0.421,0.42
							c0,0.231,0.188,0.42,0.421,0.42C97.098,23.065,97.285,22.877,97.285,22.646"/>
					</g>
					<g>
						<path fill="#FFFFFF" d="M100.418,22.646c0-0.232-0.188-0.42-0.42-0.42s-0.42,0.188-0.42,0.42c0,0.231,0.188,0.42,0.42,0.42
							S100.418,22.877,100.418,22.646"/>
					</g>
					<g>
						<path fill="#FFFFFF" d="M103.549,22.646c0-0.232-0.188-0.42-0.42-0.42s-0.42,0.188-0.42,0.42c0,0.232,0.188,0.42,0.42,0.42
							S103.549,22.877,103.549,22.646"/>
					</g>
				</g>
				<g>
					<g>
						<path fill="#FFFFFF" d="M97.285,25.728c0-0.232-0.188-0.42-0.419-0.42c-0.232,0-0.421,0.188-0.421,0.42
							c0,0.232,0.188,0.42,0.421,0.42C97.098,26.148,97.285,25.96,97.285,25.728"/>
					</g>
					<g>
						<path fill="#FFFFFF" d="M100.418,25.728c0-0.232-0.188-0.42-0.42-0.42s-0.42,0.188-0.42,0.42c0,0.232,0.188,0.42,0.42,0.42
							S100.418,25.96,100.418,25.728"/>
					</g>
					<g>
						<path fill="#FFFFFF" d="M103.549,25.728c0-0.232-0.188-0.42-0.42-0.42s-0.42,0.188-0.42,0.42c0,0.232,0.188,0.42,0.42,0.42
							S103.549,25.96,103.549,25.728"/>
					</g>
				</g>
				<g>
					<g>
						<path fill="#FFFFFF" d="M97.286,28.811c0-0.232-0.188-0.42-0.42-0.42c-0.232,0-0.421,0.188-0.421,0.42s0.188,0.42,0.421,0.42
							C97.098,29.231,97.286,29.043,97.286,28.811"/>
					</g>
					<g>
						<path fill="#FFFFFF" d="M100.418,28.811c0-0.232-0.188-0.42-0.42-0.42s-0.42,0.188-0.42,0.42s0.188,0.42,0.42,0.42
							S100.418,29.043,100.418,28.811"/>
					</g>
					<g>
						<path fill="#FFFFFF" d="M103.549,28.811c0-0.232-0.188-0.42-0.42-0.42s-0.42,0.188-0.42,0.42s0.188,0.42,0.42,0.42
							S103.549,29.043,103.549,28.811"/>
					</g>
				</g>
			</g>
			<g>
				<path fill="#B8D9D7" d="M97.721,25.218c0.091,0.152,0.158,0.32,0.158,0.51c0,0.559-0.454,1.013-1.013,1.013
					c-0.191,0-0.359-0.067-0.512-0.159c0.177,0.295,0.486,0.503,0.855,0.503c0.559,0,1.013-0.454,1.013-1.013
					C98.222,25.704,98.015,25.396,97.721,25.218z"/>
				<path fill="#B8D9D7" d="M97.721,22.136c0.091,0.152,0.158,0.319,0.158,0.51c0,0.559-0.454,1.012-1.013,1.012
					c-0.191,0-0.359-0.067-0.512-0.159c0.177,0.295,0.486,0.503,0.855,0.503c0.559,0,1.013-0.454,1.013-1.012
					C98.222,22.621,98.016,22.313,97.721,22.136z"/>
				<path fill="#B8D9D7" d="M104.141,22.646c0,0.559-0.453,1.012-1.012,1.012c-0.191,0-0.359-0.067-0.511-0.158
					c0.177,0.295,0.486,0.502,0.855,0.502c0.56,0,1.012-0.454,1.012-1.012c0-0.369-0.207-0.678-0.501-0.854
					C104.075,22.287,104.141,22.455,104.141,22.646z"/>
				<path fill="#B8D9D7" d="M100.853,28.301c0.091,0.152,0.158,0.32,0.158,0.51c0,0.559-0.453,1.013-1.013,1.013
					c-0.191,0-0.359-0.067-0.512-0.159c0.177,0.295,0.486,0.503,0.855,0.503c0.56,0,1.013-0.454,1.013-1.012
					C101.354,28.787,101.148,28.478,100.853,28.301z"/>
				<path fill="#B8D9D7" d="M97.721,28.301c0.091,0.152,0.158,0.32,0.158,0.51c0,0.559-0.454,1.013-1.013,1.013
					c-0.191,0-0.359-0.067-0.512-0.159c0.177,0.295,0.486,0.503,0.855,0.503c0.559,0,1.013-0.454,1.013-1.012
					C98.222,28.787,98.015,28.479,97.721,28.301z"/>
				<path fill="#B8D9D7" d="M103.984,25.218c0.091,0.152,0.157,0.32,0.157,0.51c0,0.559-0.453,1.013-1.012,1.013
					c-0.191,0-0.359-0.067-0.511-0.158c0.177,0.295,0.486,0.502,0.855,0.502c0.56,0,1.012-0.454,1.012-1.013
					C104.485,25.704,104.278,25.395,103.984,25.218z"/>
				<path fill="#B8D9D7" d="M103.984,28.301c0.091,0.152,0.157,0.32,0.157,0.51c0,0.559-0.453,1.013-1.012,1.013
					c-0.191,0-0.359-0.067-0.511-0.159c0.177,0.295,0.486,0.503,0.855,0.503c0.56,0,1.012-0.454,1.012-1.012
					C104.485,28.786,104.278,28.478,103.984,28.301z"/>
				<path fill="#B8D9D7" d="M100.854,25.218c0.091,0.152,0.157,0.32,0.157,0.51c0,0.559-0.453,1.013-1.013,1.013
					c-0.191,0-0.359-0.067-0.512-0.158c0.177,0.295,0.486,0.502,0.855,0.502c0.56,0,1.013-0.454,1.013-1.013
					C101.354,25.704,101.148,25.395,100.854,25.218z"/>
				<path fill="#B8D9D7" d="M100.853,22.136c0.091,0.152,0.158,0.319,0.158,0.51c0,0.559-0.453,1.012-1.013,1.012
					c-0.191,0-0.359-0.067-0.512-0.159c0.177,0.295,0.486,0.503,0.855,0.503c0.56,0,1.013-0.454,1.013-1.012
					C101.354,22.621,101.148,22.313,100.853,22.136z"/>
			</g>
		</g>
	</g>
</g>
<g>
	<path fill="#B8D9D7" d="M176,35.5c-9.649,0-17.5-7.851-17.5-17.5S166.351,0.5,176,0.5s17.5,7.851,17.5,17.5S185.649,35.5,176,35.5z
		"/>
	<path fill="#2C4E46" d="M176,1c9.374,0,17,7.626,17,17s-7.626,17-17,17s-17-7.626-17-17S166.626,1,176,1 M176,0
		c-9.94,0-18,8.06-18,18c0,9.941,8.06,18,18,18s18-8.059,18-18C194,8.06,185.94,0,176,0L176,0z"/>
</g>
<g>
	<circle fill="#91D2E4" cx="176" cy="18" r="16"/>
</g>
<g>
	<path fill="#12AD9C" d="M192,18c0,8.836-7.164,16-16,16s-16-7.164-16-16"/>
</g>
<g>
	<path fill="#2C4E46" d="M187.03,9.951h-1.983c-0.125,0-0.244,0.017-0.354,0.045l-0.007-0.054c-0.074-0.541-0.443-1.304-0.821-1.697
		c0,0-1.378-1.433-7.864-1.433s-7.864,1.433-7.864,1.433c-0.378,0.393-0.748,1.157-0.821,1.697l-0.007,0.054
		c-0.11-0.028-0.229-0.045-0.354-0.045h-1.983c-0.545,0-0.992,0.446-0.992,0.992v2.479c0,0.545,0.409,0.991,0.909,0.991
		c0.5,0,0.909-0.446,0.909-0.991v-1.198c0-0.545,0.446-0.992,0.992-0.992h0.165c0.064,0,0.127-0.004,0.188-0.013l-0.549,4.028
		c-0.074,0.541-0.134,1.094-0.134,1.231s0,0.694,0,1.24v0.445c0,0.545,0,1.438,0,1.983v5.281c0,0.545,0.446,0.992,0.991,0.992h0.992
		v1.776c0,0.546,0.446,0.992,0.991,0.992h1.653c0.545,0,0.992-0.446,0.992-0.992v-1.776h7.849v1.776
		c0,0.546,0.446,0.992,0.992,0.992h1.653c0.545,0,0.991-0.446,0.991-0.992v-1.776h0.992c0.545,0,0.991-0.446,0.991-0.992v-5.281
		c0-0.545,0-1.438,0-1.983v-0.445c0-0.546,0-1.103,0-1.24s-0.06-0.69-0.134-1.231l-0.549-4.028c0.061,0.008,0.123,0.013,0.188,0.013
		h0.165c0.545,0,0.992,0.446,0.992,0.992v1.198c0,0.545,0.409,0.991,0.909,0.991c0.5,0,0.909-0.446,0.909-0.991v-2.479
		C188.022,10.397,187.576,9.951,187.03,9.951z M172.654,8.102h6.692v0.992h-6.692V8.102z M169.803,23.584
		c-0.753,0-1.363-0.61-1.363-1.363c0-0.752,0.61-1.363,1.363-1.363s1.363,0.611,1.363,1.363
		C171.167,22.974,170.556,23.584,169.803,23.584z M182.197,23.584c-0.753,0-1.363-0.61-1.363-1.363c0-0.752,0.61-1.363,1.363-1.363
		s1.363,0.611,1.363,1.363C183.56,22.974,182.95,23.584,182.197,23.584z M183.064,17.221h-14.129c-0.545,0-0.931-0.441-0.857-0.982
		l0.724-5.306c0.074-0.54,0.58-0.982,1.125-0.982h12.146c0.545,0,1.052,0.442,1.125,0.982l0.724,5.306
		C183.996,16.78,183.61,17.221,183.064,17.221z"/>
</g>
<path fill="#B8D9D7" d="M183.086,17.221h-14.129c-0.545,0-0.931-0.441-0.857-0.982l0.724-5.306c0.074-0.54,0.58-0.982,1.125-0.982
	h12.146c0.545,0,1.052,0.442,1.125,0.982l0.724,5.306C184.018,16.78,183.632,17.221,183.086,17.221z"/>
<path fill="#D1EBEA" d="M168.733,10.958l-0.724,5.183c-0.074,0.541,0.312,0.859,0.857,0.859h3.069l7.27-7h-9.347
	C169.313,10,168.807,10.418,168.733,10.958z"/>
<path fill="#366842" d="M166,19c0,0.41,0,0.834,0,1.146V25h20v-4.854c0-0.313,0-0.736,0-1.146H166z M169.825,23.584
	c-0.753,0-1.363-0.61-1.363-1.363c0-0.752,0.61-1.363,1.363-1.363s1.363,0.611,1.363,1.363
	C171.188,22.974,170.578,23.584,169.825,23.584z M182.219,23.584c-0.753,0-1.363-0.61-1.363-1.363c0-0.752,0.61-1.363,1.363-1.363
	s1.363,0.611,1.363,1.363C183.582,22.974,182.972,23.584,182.219,23.584z"/>
<rect x="172.676" y="8.102" fill="#1AA9D0" width="6.692" height="0.992"/>
<circle fill="#91D2E4" cx="169.825" cy="22.221" r="1.363"/>
<circle fill="#91D2E4" cx="182.219" cy="22.221" r="1.363"/>
<circle fill="#F5FAFA" cx="170.106" cy="21.722" r="0.5"/>
<circle fill="#F5FAFA" cx="182.5" cy="21.722" r="0.5"/>
<g>
	<path fill="#B8D9D7" d="M256,35.5c-9.649,0-17.5-7.851-17.5-17.5S246.351,0.5,256,0.5s17.5,7.851,17.5,17.5S265.649,35.5,256,35.5z
		"/>
	<path fill="#2C4E46" d="M256,1c9.374,0,17,7.626,17,17s-7.626,17-17,17s-17-7.626-17-17S246.626,1,256,1 M256,0
		c-9.94,0-18,8.06-18,18c0,9.941,8.06,18,18,18s18-8.059,18-18C274,8.06,265.94,0,256,0L256,0z"/>
</g>
<g>
	<path fill="#B3C589" d="M334,35.5c-9.649,0-17.5-7.851-17.5-17.5S324.351,0.5,334,0.5s17.5,7.851,17.5,17.5S343.649,35.5,334,35.5z
		"/>
	<path fill="#366842" d="M334,1c9.374,0,17,7.626,17,17s-7.626,17-17,17s-17-7.626-17-17S324.626,1,334,1 M334,0
		c-9.94,0-18,8.06-18,18c0,9.941,8.06,18,18,18s18-8.059,18-18C352,8.06,343.94,0,334,0L334,0z"/>
</g>
<g>
	<circle fill="#91D2E4" cx="256" cy="18" r="16"/>
</g>
<g>
	<path fill="#12AD9C" d="M272,18c0,8.836-7.164,16-16,16s-16-7.164-16-16"/>
</g>
<g>
	<defs>
		<circle id="SVGID_3_" cx="256" cy="18" r="16"/>
	</defs>
	<clipPath id="SVGID_4_">
		<use xlink:href="#SVGID_3_"  overflow="visible"/>
	</clipPath>
	<g clip-path="url(#SVGID_4_)">
		<g>
			<path fill="#2C4E46" d="M243.867,19.833c2.665,0,4.833,2.168,4.833,4.834c0,2.665-2.168,4.833-4.833,4.833
				c-2.666,0-4.834-2.168-4.834-4.833C239.033,22.001,241.202,19.833,243.867,19.833 M243.867,18.833
				c-3.222,0-5.834,2.612-5.834,5.834c0,3.222,2.612,5.833,5.834,5.833c3.222,0,5.833-2.612,5.833-5.833
				C249.701,21.445,247.089,18.833,243.867,18.833L243.867,18.833z"/>
		</g>
		<g>
			<circle fill="#2C4E46" cx="255.854" cy="9.479" r="2.021"/>
		</g>
		<g>
			<path fill="#2C4E46" d="M259.946,19.833c2.665,0,4.833,2.168,4.833,4.834c0,2.665-2.168,4.833-4.833,4.833
				c-2.666,0-4.834-2.168-4.834-4.833C255.112,22.001,257.281,19.833,259.946,19.833 M259.946,18.833
				c-3.222,0-5.834,2.612-5.834,5.834c0,3.222,2.612,5.833,5.834,5.833s5.833-2.612,5.833-5.833
				C265.78,21.445,263.168,18.833,259.946,18.833L259.946,18.833z"/>
		</g>
		<g>
			<path fill="#1C9283" d="M243.867,21.167c1.93,0,3.5,1.57,3.5,3.5s-1.57,3.5-3.5,3.5s-3.5-1.57-3.5-3.5
				S241.938,21.167,243.867,21.167 M243.867,20.167c-2.485,0-4.5,2.015-4.5,4.5s2.015,4.5,4.5,4.5s4.5-2.015,4.5-4.5
				S246.353,20.167,243.867,20.167L243.867,20.167z"/>
		</g>
		<g>
			<path fill="#1C9283" d="M259.946,21.167c1.93,0,3.5,1.57,3.5,3.5s-1.57,3.5-3.5,3.5s-3.5-1.57-3.5-3.5
				S258.017,21.167,259.946,21.167 M259.946,20.167c-2.486,0-4.5,2.014-4.5,4.5c0,2.484,2.014,4.5,4.5,4.5
				c2.484,0,4.5-2.016,4.5-4.5C264.446,22.181,262.431,20.167,259.946,20.167L259.946,20.167z"/>
		</g>
		
			<polyline fill="none" stroke="#2C4E46" stroke-width="2" stroke-linecap="round" stroke-linejoin="round" stroke-miterlimit="10" points="
			252,25 252,20 248.875,16.875 253.625,12.25 257.188,15.75 259.958,15.792 		"/>
		
			<line fill="none" stroke="#2C4E46" stroke-width="3" stroke-linecap="round" stroke-linejoin="round" stroke-miterlimit="10" x1="249.169" y1="16.588" x2="253.331" y2="12.537"/>
	</g>
	<circle clip-path="url(#SVGID_4_)" fill="#FFFFFF" cx="265.959" cy="6.292" r="3.958"/>
</g>
<g>
	<circle fill="#86AC5D" cx="334" cy="18" r="16"/>
</g>
<g>
	<path fill="#AB8EB8" d="M416,35.5c-9.649,0-17.5-7.851-17.5-17.5S406.351,0.5,416,0.5s17.5,7.851,17.5,17.5S425.649,35.5,416,35.5z
		"/>
	<path fill="#3D1C5D" d="M416,1c9.374,0,17,7.626,17,17s-7.626,17-17,17s-17-7.626-17-17S406.626,1,416,1 M416,0
		c-9.94,0-18,8.06-18,18c0,9.941,8.06,18,18,18s18-8.059,18-18C434,8.06,425.94,0,416,0L416,0z"/>
</g>
<g>
	<circle fill="#9779A6" cx="416" cy="18" r="16"/>
</g>
<g>
	<path fill="#B3C589" d="M334,27.5c-5.238,0-9.5-4.262-9.5-9.5s4.262-9.5,9.5-9.5s9.5,4.262,9.5,9.5S339.238,27.5,334,27.5z"/>
	<path fill="#366842" d="M334,9c4.962,0,9,4.038,9,9s-4.038,9-9,9s-9-4.038-9-9S329.038,9,334,9 M334,8c-5.522,0-10,4.477-10,10
		s4.478,10,10,10s10-4.477,10-10S339.522,8,334,8L334,8z"/>
</g>
<path fill="#366842" d="M345.374,14.867c-0.77,2.349-3.014,1.504-3.181,1.406c-0.167-0.101-1.521-1.427-1.81-1.807
	c-0.184-0.244-0.857-0.512-1.366-0.673c-0.036,0.004-0.069,0.005-0.106,0.011c-0.202,0.035-1.211,0.286-1.131,0.469
	c0.09,0.208,0.452,0.407,0.59,0.591c0.507,0.661,1.609,2.164,1.226,3.383c-0.126,0.4-1.227,0.938-1.872,1.439
	c-0.607-0.412-0.778-1.043-1.668-1.248c0.287,0.538,0.646,1.025,0.754,1.91c-1.094,0.802-2.192,1.856-3.702,2.255
	c-0.446-0.438-0.73-1.205-1.472-1.354c0.216,0.604,0.616,1.037,0.698,1.771c-2.481,1.297-7.431,4.975-8.94,4.802
	c-0.093-0.47,0.058-0.874,0.248-1.476c0.732-2.29,4.008-6.687,5.082-8.378c0.087-0.135,0.186-0.252,0.287-0.295
	c1.286-0.026,1.918,0.438,2.733,0.869c-0.246-0.963-1.474-1.597-2.212-1.98c0.739-1.593,2.75-4.583,3.631-4.634
	c1.939,0.021,2.853,0.957,4.024,1.72c0.316-0.438,0.485-1.029,0.456-1.592c-0.031-0.095-0.064-0.184-0.11-0.263
	c-0.247-0.463-1.723-1.548-1.787-1.569c-0.061-0.018-3.14-3.034,0.415-3.636c3.555-0.602,3.66,2.674,3.472,3.759
	c-0.049,0.289-0.116,0.542-0.189,0.761c-0.069,0.263-0.154,0.52-0.261,0.77c0.094-0.096,0.177-0.202,0.251-0.314
	c0.36-0.81,1.035-2.461,1.802-3.307c0.896-0.985,2.06-2.009,3.619-1.066c1.562,0.947-0.978,3.255-1.644,3.557
	c-0.572,0.258-2.357,0.994-3.361,1.488c0.06-0.007,0.119-0.017,0.181-0.031c0.208-0.078,0.444-0.163,0.69-0.235
	c0.084-0.028,0.166-0.051,0.247-0.07c0.219-0.057,0.438-0.105,0.643-0.127C342.526,11.673,346.144,12.516,345.374,14.867z"/>
<g>
	<path fill="#EFA016" d="M336.434,12.927c0.09,0.208,0.452,0.407,0.59,0.591c0.507,0.661,1.609,2.164,1.226,3.384
		c-0.126,0.399-1.226,0.938-1.872,1.439c-0.607-0.412-0.778-1.042-1.668-1.248c0.287,0.538,0.646,1.025,0.754,1.91
		c-1.094,0.802-2.192,1.856-3.702,2.255c-0.446-0.438-0.73-1.205-1.472-1.354c0.216,0.605,0.616,1.037,0.698,1.771
		c-2.481,1.297-7.431,4.975-8.94,4.802c-0.093-0.47,0.058-0.874,0.248-1.476c0.732-2.29,4.008-6.687,5.082-8.377
		c0.087-0.136,0.186-0.253,0.287-0.295c1.286-0.026,1.918,0.438,2.733,0.869c-0.246-0.963-1.474-1.597-2.212-1.98
		c0.739-1.593,2.75-4.583,3.631-4.634c1.939,0.021,2.854,0.957,4.024,1.72"/>
	<path fill="#BE8952" d="M337.024,13.518c0.506,0.661,1.609,2.164,1.226,3.384c-0.126,0.399-1.227,0.938-1.873,1.439
		c-0.607-0.412-0.779-1.042-1.667-1.248c0.287,0.538,0.646,1.025,0.755,1.91c-1.094,0.802-2.194,1.856-3.704,2.255
		c-0.444-0.438-0.729-1.205-1.471-1.354c0.215,0.605,0.617,1.037,0.698,1.771c-2.482,1.297-7.431,4.975-8.941,4.802"/>
	<path fill="#2C4E46" d="M344.027,13.521c-0.77,2.349-3.014,1.504-3.181,1.406c-0.167-0.101-1.521-1.427-1.81-1.807
		c-0.183-0.244-0.857-0.512-1.366-0.673c-0.036,0.004-0.069,0.005-0.106,0.011c-0.202,0.035-1.211,0.286-1.131,0.469l-0.594-0.624
		c0.316-0.438,0.485-1.029,0.456-1.592c-0.031-0.095-0.063-0.184-0.11-0.263c-0.247-0.463-1.723-1.549-1.787-1.569
		c-0.061-0.018-3.14-3.034,0.415-3.636s3.66,2.674,3.472,3.758c-0.049,0.289-0.116,0.542-0.189,0.761
		c-0.069,0.263-0.155,0.52-0.262,0.77c0.095-0.096,0.177-0.202,0.251-0.314c0.36-0.81,1.035-2.461,1.802-3.307
		c0.896-0.985,2.06-2.009,3.619-1.066c1.562,0.947-0.978,3.255-1.644,3.557c-0.572,0.258-2.357,0.994-3.362,1.488
		c0.06-0.007,0.119-0.017,0.181-0.032c0.208-0.078,0.444-0.163,0.69-0.235c0.084-0.028,0.166-0.051,0.247-0.07
		c0.22-0.057,0.438-0.105,0.643-0.127C341.18,10.326,344.797,11.169,344.027,13.521z"/>
</g>
<g>
	<g>
		<path fill="#F2C579" d="M424.316,12.013h-2.454v-0.148c0-3.23-2.629-5.865-5.864-5.865c-3.232,0-5.861,2.635-5.861,5.865v0.148
			h-2.453L406.248,28h19.504L424.316,12.013z M415.998,6.719c2.14,0,3.977,1.315,4.753,3.174c-1.025-1.532-2.771-2.548-4.753-2.548
			c-1.979,0-3.724,1.016-4.751,2.553C412.025,8.034,413.863,6.719,415.998,6.719 M411.22,12.013c0.479-2.201,2.441-3.852,4.78-3.852
			c2.344,0,4.302,1.651,4.78,3.852H411.22z"/>
	</g>
</g>
<g>
	
		<rect x="414.25" y="1.449" transform="matrix(0.7071 0.7071 -0.7071 0.7071 134.6447 -289.0611)" fill="#AB8EB8" width="4" height="33.101"/>
</g>
<g>
	<path fill="#564677" d="M415.705,25.882l-4.18-4.033c-0.053-0.047-1.527-1.393-1.527-3.001c0-1.962,1.199-3.135,3.203-3.135
		c1.172,0,2.27,0.924,2.799,1.447c0.529-0.522,1.629-1.447,2.801-1.447c2.002,0,3.201,1.172,3.201,3.135
		c0,1.608-1.473,2.954-1.533,3.015l-4.174,4.019c-0.08,0.081-0.188,0.121-0.295,0.121C415.894,26.003,415.786,25.963,415.705,25.882
		z"/>
</g>
</svg>
