<?xml version="1.0" encoding="utf-8"?>
<!-- Generator: Adobe Illustrator 18.1.1, SVG Export Plug-In . SVG Version: 6.00 Build 0)  -->
<svg version="1.1" xmlns="http://www.w3.org/2000/svg" xmlns:xlink="http://www.w3.org/1999/xlink" x="0px" y="0px"
	 viewBox="0 0 36 36" enable-background="new 0 0 36 36" xml:space="preserve">
<g id="Layer_1">
	<g>
		<path fill="#00B1A8" d="M18,0.5C8.352,0.5,0.5,8.352,0.5,18c0,9.649,7.852,17.5,17.5,17.5S35.5,27.649,35.5,18
			C35.5,8.352,27.648,0.5,18,0.5z M17.999,34c-8.836,0-16-7.164-16-16c0-8.836,7.164-16,16-16C26.836,2,34,9.164,34,18
			C34,26.836,26.836,34,17.999,34z"/>
		<path fill="#00A195" d="M18,0C8.061,0,0,8.061,0,18c0,9.941,8.061,18,18,18c9.939,0,18-8.059,18-18C36,8.061,27.939,0,18,0 M18,1
			c9.374,0,17,7.625,17,17c0,9.374-7.626,17-17,17S1,27.374,1,18C1,8.625,8.626,1,18,1"/>
		<g>
			<defs>
				<path id="SVGID_31_" d="M34,18c0,8.836-7.164,16-16.001,16c-8.836,0-16-7.164-16-16c0-8.836,7.164-16,16-16
					C26.836,2,34,9.164,34,18"/>
			</defs>
			<use xlink:href="#SVGID_31_"  overflow="visible" fill="#F1F5F5"/>
			<clipPath id="SVGID_2_">
				<use xlink:href="#SVGID_31_"  overflow="visible"/>
			</clipPath>
		</g>
		<g>
			<g>
				<path fill="#00B1A8" d="M24.902,27.249H11.823V8.895h13.079V27.249z M12.558,26.515h11.61V9.629h-11.61V26.515z"/>
			</g>
			<g>
				<g>
					<defs>
						<rect id="SVGID_33_" x="18.8" y="6.145" width="8.898" height="26.695"/>
					</defs>
					<clipPath id="SVGID_4_">
						<use xlink:href="#SVGID_33_"  overflow="visible"/>
					</clipPath>
					<g clip-path="url(#SVGID_4_)">
						<path fill="#00A195" d="M24.902,27.249H11.823V8.895h13.079V27.249z M12.558,26.515h11.61V9.629h-11.61V26.515z"/>
					</g>
				</g>
			</g>
			<g>
				<path fill-rule="evenodd" clip-rule="evenodd" fill="#D9EDEE" d="M12.791,14.477c0.488-0.061,10.458-4.243,10.458-4.243h-9.97
					L12.791,14.477z"/>
			</g>
			<g>
				<polygon fill="#00A195" points="13.363,14.137 12.629,14.137 12.629,9.949 23.545,9.949 23.545,10.684 13.363,10.684 				"/>
			</g>
			<g>
				<path fill-rule="evenodd" clip-rule="evenodd" fill="#F8D08F" d="M12.19,9.262v17.62h12.345V9.262H12.19z M23.484,13.898H13.242
					v-3.346h10.242V13.898z"/>
			</g>
			<g>
				<g>
					<rect x="15.205" y="16.514" fill="#FFFFFF" width="0.734" height="3.116"/>
				</g>
				<g>
					<rect x="14.016" y="17.704" fill="#FFFFFF" width="3.114" height="0.734"/>
				</g>
			</g>
			<g>
				<g>
					<rect x="19.033" y="17.704" fill="#FFFFFF" width="3.711" height="0.734"/>
				</g>
			</g>
			<g>
				<g>
					
						<rect x="15.451" y="21.483" transform="matrix(0.707 0.7072 -0.7072 0.707 21.1387 -4.3486)" fill="#FFFFFF" width="0.733" height="3.712"/>
				</g>
				<g>
					
						<rect x="13.962" y="22.972" transform="matrix(0.7071 0.7071 -0.7071 0.7071 21.1362 -4.3486)" fill="#FFFFFF" width="3.711" height="0.734"/>
				</g>
			</g>
			<g>
				<g>
					<rect x="19.055" y="22.401" fill="#FFFFFF" width="3.711" height="0.734"/>
				</g>
				<g>
					<rect x="19.055" y="23.741" fill="#FFFFFF" width="3.711" height="0.734"/>
				</g>
			</g>
		</g>
	</g>
</g>
<g id="Layer_2">
</g>
<g id="Layer_3">
</g>
</svg>
