<?xml version="1.0" encoding="utf-8"?>
<!-- Generator: Adobe Illustrator 18.1.1, SVG Export Plug-In . SVG Version: 6.00 Build 0)  -->
<svg version="1.1" xmlns="http://www.w3.org/2000/svg" xmlns:xlink="http://www.w3.org/1999/xlink" x="0px" y="0px"
	 viewBox="0 0 36 36" enable-background="new 0 0 36 36" xml:space="preserve">
<g id="Layer_1">
	<g>
		<path fill="#AA8FB5" d="M18,0.5C8.351,0.5,0.5,8.352,0.5,18c0,9.649,7.851,17.5,17.5,17.5c9.648,0,17.5-7.851,17.5-17.5
			C35.5,8.352,27.648,0.5,18,0.5z M17.999,34c-8.836,0-16-7.164-16-16c0-8.836,7.164-16,16-16C26.836,2,34,9.164,34,18
			C34,26.836,26.836,34,17.999,34z"/>
		<path fill="#6C5B8A" d="M18,0C8.061,0,0,8.061,0,18c0,9.941,8.061,18,18,18c9.939,0,18-8.059,18-18C36,8.061,27.939,0,18,0 M18,1
			c9.374,0,17,7.625,17,17c0,9.374-7.626,17-17,17C8.626,35,1,27.374,1,18C1,8.625,8.626,1,18,1"/>
		<g>
			<defs>
				<path id="SVGID_35_" d="M34.001,18c0,8.836-7.164,16-16.001,16C9.164,34,2,26.836,2,18C2,9.164,9.164,2,18,2
					C26.837,2,34.001,9.164,34.001,18"/>
			</defs>
			<use xlink:href="#SVGID_35_"  overflow="visible" fill="#F1F5F5"/>
			<clipPath id="SVGID_2_">
				<use xlink:href="#SVGID_35_"  overflow="visible"/>
			</clipPath>
		</g>
		<g>
			<path fill-rule="evenodd" clip-rule="evenodd" fill="#D8305A" d="M19.271,12.55c0,0,1.22-3.294,4.933-2.156
				C24.204,10.394,22.523,14.027,19.271,12.55z"/>
			<path fill-rule="evenodd" clip-rule="evenodd" fill="#BFCF9E" d="M19.271,12.55c0,0,1.22-3.294,4.933-2.156
				C24.204,10.394,22.523,14.027,19.271,12.55z"/>
			<g>
				<defs>
					<path id="SVGID_37_" d="M19.271,12.55l4.933-2.156l5.149,0.045c0,0,1.379,5.464,1.345,5.552
						c-0.033,0.087-3.326,2.202-3.791,2.498c-0.465,0.297-11.701-0.896-11.701-0.896L19.271,12.55z"/>
				</defs>
				<clipPath id="SVGID_4_">
					<use xlink:href="#SVGID_37_"  overflow="visible"/>
				</clipPath>
				<path clip-path="url(#SVGID_4_)" fill-rule="evenodd" clip-rule="evenodd" fill="#95B974" d="M19.271,12.55
					c0,0,1.22-3.294,4.933-2.156C24.204,10.394,22.523,14.027,19.271,12.55z"/>
			</g>
			<path fill-rule="evenodd" clip-rule="evenodd" fill="#386159" d="M19.265,9.638c-0.11,0.239-1.602,4.316-1.75,7.157l0.982-0.675
				c0,0,0.977-5.564,1.536-6.203C20.033,9.917,19.376,9.397,19.265,9.638z"/>
			<path fill-rule="evenodd" clip-rule="evenodd" fill="#D8305A" d="M17.933,26.553c-1.017,0.645-2.15,0.581-3.284,0.11
				c-1.272-0.529-2.125-1.521-2.752-2.706c-1.169-2.209-1.61-4.538-0.887-6.976c0.786-2.646,3.127-3.309,5.074-2.772
				c0.874,0.242,1.487,0.825,1.915,1.648c0.141-0.212,0.261-0.409,0.399-0.594c1.103-1.471,3.313-1.491,4.69-0.756
				c1.209,0.644,1.837,1.732,2.071,3.013c0.531,2.899-0.106,5.544-2.008,7.819c-1.002,1.197-2.306,1.836-3.912,1.614
				C18.817,26.896,18.414,26.705,17.933,26.553z"/>
			<g>
				<defs>
					<rect id="SVGID_39_" x="17.999" y="8.205" width="10.354" height="22.555"/>
				</defs>
				<clipPath id="SVGID_6_">
					<use xlink:href="#SVGID_39_"  overflow="visible"/>
				</clipPath>
				<path clip-path="url(#SVGID_6_)" fill-rule="evenodd" clip-rule="evenodd" fill="#C72156" d="M17.933,26.675
					c-1.017,0.645-2.15,0.581-3.284,0.11c-1.272-0.529-2.125-1.521-2.752-2.706c-1.169-2.209-1.61-4.538-0.887-6.976
					c0.786-2.647,3.127-3.31,5.074-2.772c0.874,0.242,1.487,0.825,1.915,1.648c0.141-0.212,0.261-0.409,0.399-0.594
					c1.103-1.471,3.313-1.491,4.69-0.756c1.209,0.644,1.837,1.732,2.071,3.013c0.531,2.899-0.106,5.545-2.008,7.82
					c-1.002,1.196-2.306,1.835-3.912,1.613C18.817,27.019,18.414,26.827,17.933,26.675z"/>
			</g>
		</g>
	</g>
</g>
<g id="Layer_2">
</g>
<g id="Layer_3">
</g>
</svg>
