<?xml version="1.0" encoding="utf-8"?>
<!-- Generator: Adobe Illustrator 18.1.1, SVG Export Plug-In . SVG Version: 6.00 Build 0)  -->
<svg version="1.1" xmlns="http://www.w3.org/2000/svg" xmlns:xlink="http://www.w3.org/1999/xlink" x="0px" y="0px"
	 viewBox="0 0 36 36" enable-background="new 0 0 36 36" xml:space="preserve">
<g id="Layer_1">
	<g>
		<path fill="#9FBBC1" d="M18,0.5C8.352,0.5,0.5,8.352,0.5,18c0,9.649,7.852,17.5,17.5,17.5c9.648,0,17.5-7.851,17.5-17.5
			C35.5,8.352,27.648,0.5,18,0.5z M17.999,34c-8.836,0-16-7.164-16-16c0-8.836,7.164-16,16-16C26.836,2,34,9.164,34,18
			C34,26.836,26.836,34,17.999,34z"/>
		<path fill="#7BA0A8" d="M18,0C8.06,0,0,8.061,0,18c0,9.941,8.06,18,18,18c9.939,0,18-8.059,18-18C36,8.061,27.939,0,18,0 M18,1
			c9.374,0,17,7.625,17,17c0,9.374-7.626,17-17,17S1,27.374,1,18C1,8.625,8.626,1,18,1"/>
		<g>
			<defs>
				<path id="SVGID_13_" d="M34.001,18c0,8.836-7.164,16-16.001,16C9.164,34,2,26.836,2,18C2,9.164,9.164,2,18,2
					C26.837,2,34.001,9.164,34.001,18"/>
			</defs>
			<use xlink:href="#SVGID_13_"  overflow="visible" fill="#F1F5F5"/>
			<clipPath id="SVGID_2_">
				<use xlink:href="#SVGID_13_"  overflow="visible"/>
			</clipPath>
		</g>
		<g>
			<g>
				<circle fill-rule="evenodd" clip-rule="evenodd" fill="#F7D92A" cx="17.986" cy="17.971" r="8.548"/>
			</g>
			<path fill="#F5B12D" d="M17.985,27.019c-4.989,0-9.048-4.059-9.048-9.048s4.059-9.049,9.048-9.049
				c4.989,0,9.049,4.06,9.049,9.049S22.975,27.019,17.985,27.019z M17.985,9.922c-4.438,0-8.048,3.61-8.048,8.049
				c0,4.438,3.61,8.048,8.048,8.048c4.438,0,8.049-3.61,8.049-8.048C26.034,13.532,22.424,9.922,17.985,9.922z"/>
			<g>
				<path fill="#FFFFFF" d="M17.195,24.125v-1.507c-0.865-0.015-1.761-0.284-2.283-0.657l0.358-0.999
					c0.537,0.357,1.314,0.642,2.149,0.642c1.06,0,1.775-0.612,1.775-1.463c0-0.819-0.582-1.327-1.687-1.774
					c-1.521-0.598-2.462-1.284-2.462-2.582c0-1.238,0.88-2.179,2.253-2.402v-1.508h0.926v1.448c0.895,0.029,1.507,0.269,1.939,0.521
					l-0.373,0.985c-0.314-0.179-0.925-0.508-1.88-0.508c-1.149,0-1.582,0.687-1.582,1.284c0,0.775,0.552,1.164,1.851,1.701
					c1.537,0.625,2.312,1.401,2.312,2.729c0,1.179-0.819,2.283-2.357,2.537v1.552H17.195z"/>
			</g>
			<g>
				<defs>
					<rect id="SVGID_15_" x="17.727" y="7.855" width="9.922" height="21.375"/>
				</defs>
				<clipPath id="SVGID_4_">
					<use xlink:href="#SVGID_15_"  overflow="visible"/>
				</clipPath>
				<path clip-path="url(#SVGID_4_)" fill="#F18D19" d="M17.985,27.019c-4.989,0-9.048-4.059-9.048-9.048s4.059-9.049,9.048-9.049
					c4.989,0,9.049,4.06,9.049,9.049S22.975,27.019,17.985,27.019z M17.985,9.922c-4.438,0-8.048,3.61-8.048,8.049
					c0,4.438,3.61,8.048,8.048,8.048c4.438,0,8.049-3.61,8.049-8.048C26.034,13.532,22.424,9.922,17.985,9.922z"/>
				<g clip-path="url(#SVGID_4_)">
					<path fill="#D1EAF0" d="M17.196,24.125v-1.507c-0.865-0.015-1.761-0.284-2.283-0.657l0.358-0.999
						c0.537,0.357,1.314,0.642,2.149,0.642c1.06,0,1.775-0.612,1.775-1.463c0-0.819-0.582-1.327-1.687-1.774
						c-1.521-0.598-2.462-1.284-2.462-2.582c0-1.238,0.88-2.179,2.253-2.402v-1.508h0.926v1.448
						c0.896,0.029,1.507,0.269,1.939,0.521l-0.373,0.985c-0.314-0.179-0.925-0.508-1.88-0.508c-1.149,0-1.582,0.687-1.582,1.284
						c0,0.775,0.552,1.164,1.851,1.701c1.537,0.625,2.312,1.401,2.312,2.729c0,1.179-0.819,2.283-2.357,2.537v1.552H17.196z"/>
				</g>
			</g>
		</g>
	</g>
</g>
<g id="Layer_2">
</g>
<g id="Layer_3">
</g>
</svg>
