<?xml version="1.0" encoding="utf-8"?>
<!-- Generator: Adobe Illustrator 18.1.1, SVG Export Plug-In . SVG Version: 6.00 Build 0)  -->
<svg version="1.1" xmlns="http://www.w3.org/2000/svg" xmlns:xlink="http://www.w3.org/1999/xlink" x="0px" y="0px"
	 viewBox="0 0 36 36" enable-background="new 0 0 36 36" xml:space="preserve">
<g id="Layer_1">
	<g>
		<path fill="#D8305A" d="M18,0.5C8.352,0.5,0.5,8.352,0.5,18c0,9.649,7.852,17.5,17.5,17.5c9.649,0,17.5-7.851,17.5-17.5
			C35.5,8.352,27.649,0.5,18,0.5z M17.999,34c-8.836,0-16-7.164-16-16c0-8.836,7.164-16,16-16C26.836,2,34,9.164,34,18
			C34,26.836,26.836,34,17.999,34z"/>
		<path fill="#94344E" d="M18,0C8.061,0,0,8.061,0,18c0,9.941,8.061,18,18,18c9.94,0,18-8.059,18-18C36,8.061,27.94,0,18,0 M18,1
			c9.374,0,17,7.625,17,17c0,9.374-7.626,17-17,17C8.626,35,1,27.374,1,18C1,8.625,8.626,1,18,1"/>
		<g>
			<defs>
				<path id="SVGID_19_" d="M34,18c0,8.836-7.164,16-16.001,16c-8.836,0-16-7.164-16-16c0-8.836,7.164-16,16-16
					C26.836,2,34,9.164,34,18"/>
			</defs>
			<use xlink:href="#SVGID_19_"  overflow="visible" fill="#F1F5F5"/>
			<clipPath id="SVGID_2_">
				<use xlink:href="#SVGID_19_"  overflow="visible"/>
			</clipPath>
		</g>
		<path fill="#D8305A" d="M17.534,26.624l-6.607-6.373c-0.082-0.074-2.413-2.202-2.413-4.743c0-3.101,1.896-4.954,5.063-4.954
			c1.852,0,3.587,1.462,4.424,2.286c0.837-0.824,2.574-2.286,4.427-2.286c3.164,0,5.059,1.853,5.059,4.954
			c0,2.541-2.327,4.669-2.423,4.765l-6.597,6.352c-0.126,0.128-0.298,0.191-0.466,0.191C17.83,26.815,17.66,26.752,17.534,26.624"/>
		<path fill="#C72156" d="M22.427,10.554c-1.853,0-3.59,1.462-4.427,2.286v13.976c0.168,0,0.34-0.063,0.466-0.191l6.597-6.352
			c0.096-0.096,2.423-2.224,2.423-4.765C27.485,12.407,25.591,10.554,22.427,10.554z"/>
	</g>
</g>
<g id="Layer_2">
</g>
<g id="Layer_3">
</g>
</svg>
