<?xml version="1.0" encoding="utf-8"?>
<!-- Generator: Adobe Illustrator 18.1.1, SVG Export Plug-In . SVG Version: 6.00 Build 0)  -->
<svg version="1.1" xmlns="http://www.w3.org/2000/svg" xmlns:xlink="http://www.w3.org/1999/xlink" x="0px" y="0px"
	 viewBox="0 0 36 36" enable-background="new 0 0 36 36" xml:space="preserve">
<g id="Layer_1">
	<g>
		<path fill="#BFCE9E" d="M18,0.5C8.352,0.5,0.5,8.352,0.5,18c0,9.649,7.852,17.5,17.5,17.5S35.5,27.649,35.5,18
			C35.5,8.352,27.648,0.5,18,0.5z M17.999,34c-8.836,0-16-7.164-16-16c0-8.836,7.164-16,16-16C26.836,2,34,9.164,34,18
			C34,26.836,26.836,34,17.999,34z"/>
		<path fill="#407C57" d="M18,0C8.061,0,0,8.061,0,18c0,9.941,8.061,18,18,18s18-8.059,18-18C36,8.061,27.94,0,18,0 M18,1
			c9.374,0,17,7.625,17,17c0,9.374-7.626,17-17,17S1,27.374,1,18C1,8.625,8.626,1,18,1"/>
		<g>
			<defs>
				<path id="SVGID_21_" d="M34,18c0,8.836-7.164,16-16.001,16c-8.836,0-16-7.164-16-16c0-8.836,7.164-16,16-16
					C26.836,2,34,9.164,34,18"/>
			</defs>
			<use xlink:href="#SVGID_21_"  overflow="visible" fill="#F1F5F5"/>
			<clipPath id="SVGID_2_">
				<use xlink:href="#SVGID_21_"  overflow="visible"/>
			</clipPath>
		</g>
		
			<rect x="20.402" y="21.466" transform="matrix(0.6711 0.7413 -0.7413 0.6711 24.3893 -7.5776)" fill="#CC9C67" width="0.666" height="4.469"/>
		
			<rect x="20.402" y="21.466" transform="matrix(0.6711 0.7413 -0.7413 0.6711 24.3893 -7.5776)" fill="#CC9C67" width="0.666" height="4.469"/>
		<rect x="16.352" y="18.704" fill="#CC9C67" width="3.5" height="9.993"/>
		<rect x="18" y="18.704" fill="#CC9C67" width="1.852" height="9.993"/>
		<circle fill="#9AC136" cx="18.019" cy="13.865" r="8.308"/>
		<path opacity="0.4" fill="#9AC136" d="M18.019,5.558c-0.007,0-0.013,0.001-0.02,0.001v16.613c0.007,0,0.013,0.001,0.02,0.001
			c4.588,0,8.308-3.719,8.308-8.308C26.326,9.277,22.606,5.558,18.019,5.558z"/>
	</g>
</g>
<g id="Layer_2">
</g>
<g id="Layer_3">
</g>
</svg>
