<?xml version="1.0" encoding="utf-8"?>
<!-- Generator: Adobe Illustrator 18.1.1, SVG Export Plug-In . SVG Version: 6.00 Build 0)  -->
<svg version="1.1" xmlns="http://www.w3.org/2000/svg" xmlns:xlink="http://www.w3.org/1999/xlink" x="0px" y="0px"
	 viewBox="0 0 36 36" enable-background="new 0 0 36 36" xml:space="preserve">
<g id="Layer_1">
	<g>
		<path fill="#C2E0DE" d="M18,35.5C8.352,35.5,0.5,27.649,0.5,18S8.352,0.5,18,0.5c9.649,0,17.5,7.851,17.5,17.5
			S27.649,35.5,18,35.5"/>
		<path fill="#366258" d="M18,0C8.061,0,0,8.06,0,18c0,9.941,8.061,18,18,18c9.94,0,18-8.059,18-18C36,8.06,27.94,0,18,0 M18,1
			c9.374,0,17,7.626,17,17c0,9.374-7.626,17-17,17S1,27.374,1,18C1,8.626,8.626,1,18,1"/>
		<path fill="#9FD7E6" d="M34,18c0,8.836-7.164,16-16,16C9.164,34,2,26.836,2,18C2,9.164,9.164,2,18,2C26.836,2,34,9.164,34,18"/>
		<path fill="#00B1A8" d="M34,18c0,8.836-7.164,16-16,16C9.164,34,2,26.836,2,18"/>
		<path fill="#366258" d="M25.065,17.222H10.936c-0.545,0-0.932-0.441-0.858-0.982l0.723-5.306c0.074-0.54,0.582-0.982,1.127-0.982
			h12.144c0.546,0,1.053,0.442,1.126,0.982l0.724,5.306C25.995,16.78,25.61,17.222,25.065,17.222 M24.196,23.584
			c-0.753,0-1.362-0.609-1.362-1.362c0-0.753,0.609-1.363,1.362-1.363c0.753,0,1.364,0.61,1.364,1.363
			C25.561,22.975,24.949,23.584,24.196,23.584 M11.803,23.584c-0.752,0-1.362-0.609-1.362-1.362c0-0.753,0.61-1.363,1.362-1.363
			c0.754,0,1.363,0.61,1.363,1.363C13.166,22.975,12.557,23.584,11.803,23.584 M14.653,8.103h6.692v0.991h-6.692V8.103z
			 M29.03,9.951h-1.983c-0.125,0-0.244,0.017-0.354,0.045l-0.008-0.054c-0.074-0.54-0.443-1.304-0.821-1.697
			c0,0-1.379-1.433-7.864-1.433c-6.486,0-7.865,1.433-7.865,1.433c-0.377,0.394-0.746,1.157-0.82,1.697L9.307,9.996
			c-0.11-0.028-0.229-0.045-0.354-0.045H6.969c-0.545,0-0.99,0.446-0.99,0.992v2.478c0,0.545,0.408,0.991,0.908,0.991
			s0.91-0.446,0.91-0.991v-1.198c0-0.546,0.445-0.991,0.99-0.991h0.165c0.065,0,0.127-0.005,0.188-0.014l-0.549,4.028
			c-0.074,0.541-0.135,1.095-0.135,1.231v1.239v0.445v1.983v5.281c0,0.546,0.445,0.991,0.991,0.991h0.992v1.776
			c0,0.546,0.444,0.992,0.991,0.992h1.652c0.545,0,0.991-0.446,0.991-0.992v-1.776h7.849v1.776c0,0.546,0.446,0.992,0.992,0.992
			h1.652c0.546,0,0.992-0.446,0.992-0.992v-1.776h0.99c0.547,0,0.992-0.445,0.992-0.991v-5.281v-1.983v-0.445v-1.239
			c0-0.137-0.06-0.69-0.134-1.231l-0.549-4.028c0.062,0.009,0.123,0.014,0.187,0.014h0.166c0.545,0,0.991,0.445,0.991,0.991v1.198
			c0,0.545,0.409,0.991,0.909,0.991c0.499,0,0.909-0.446,0.909-0.991v-2.478C30.022,10.398,29.575,9.951,29.03,9.951"/>
		<path fill="#C2E0DE" d="M25.086,17.222H10.957c-0.545,0-0.931-0.441-0.856-0.982l0.723-5.306c0.074-0.54,0.58-0.982,1.126-0.982
			h12.145c0.547,0,1.053,0.442,1.127,0.982l0.723,5.306C26.018,16.78,25.631,17.222,25.086,17.222"/>
		<path fill="#D9EDEE" d="M10.732,10.958l-0.724,5.183C9.936,16.682,10.32,17,10.867,17h3.068l7.271-7h-9.347
			C11.313,10,10.807,10.418,10.732,10.958"/>
		<path fill="#407C57" d="M24.219,23.585c-0.753,0-1.363-0.611-1.363-1.364c0-0.752,0.61-1.362,1.363-1.362
			c0.754,0,1.363,0.61,1.363,1.362C25.582,22.974,24.973,23.585,24.219,23.585 M11.825,23.585c-0.753,0-1.363-0.611-1.363-1.364
			c0-0.752,0.61-1.362,1.363-1.362s1.364,0.61,1.364,1.362C13.189,22.974,12.578,23.585,11.825,23.585 M8,19v1.146V25h20v-4.854V19
			H8z"/>
	</g>
	<rect x="14.675" y="8.102" fill="#00B6D9" width="6.692" height="0.992"/>
	<path fill="#9FD7E6" d="M11.825,23.585c-0.753,0-1.362-0.61-1.362-1.363c0-0.752,0.609-1.363,1.362-1.363s1.362,0.611,1.362,1.363
		C13.188,22.975,12.578,23.585,11.825,23.585"/>
	<path fill="#9FD7E6" d="M24.219,23.585c-0.753,0-1.363-0.61-1.363-1.363c0-0.752,0.61-1.363,1.363-1.363
		c0.753,0,1.363,0.611,1.363,1.363C25.582,22.975,24.972,23.585,24.219,23.585"/>
	<path fill="#F8FCFC" d="M12.106,22.222c-0.276,0-0.5-0.224-0.5-0.5c0-0.276,0.224-0.5,0.5-0.5c0.276,0,0.5,0.224,0.5,0.5
		C12.606,21.998,12.383,22.222,12.106,22.222"/>
	<path fill="#F8FCFC" d="M24.5,22.222c-0.275,0-0.5-0.224-0.5-0.5c0-0.276,0.225-0.5,0.5-0.5s0.5,0.224,0.5,0.5
		C25,21.998,24.775,22.222,24.5,22.222"/>
</g>
<g id="Layer_2">
</g>
<g id="Layer_3">
</g>
</svg>
