<?xml version="1.0" encoding="utf-8"?>
<!-- Generator: Adobe Illustrator 15.0.0, SVG Export Plug-In . SVG Version: 6.00 Build 0)  -->
<!DOCTYPE svg PUBLIC "-//W3C//DTD SVG 1.1//EN" "http://www.w3.org/Graphics/SVG/1.1/DTD/svg11.dtd">
<svg version="1.1" id="Layer_1" xmlns="http://www.w3.org/2000/svg" xmlns:xlink="http://www.w3.org/1999/xlink" x="0px" y="0px"
	 width="60px" height="60.001px" viewBox="0 0 60 60.001" enable-background="new 0 0 60 60.001" xml:space="preserve">
<g>
	<g>
		<path fill="#53565A" d="M41.087,21.19h-3.271v-0.197c0-4.307-3.505-7.819-7.817-7.819c-4.31,0-7.815,3.512-7.815,7.819v0.197
			h-3.271L17,42.503h26L41.087,21.19z M29.999,14.133c2.852,0,5.301,1.753,6.335,4.231c-1.367-2.042-3.693-3.397-6.335-3.397
			c-2.638,0-4.965,1.354-6.335,3.403C24.701,15.887,27.153,14.133,29.999,14.133 M23.628,21.19c0.639-2.934,3.255-5.134,6.372-5.134
			c3.125,0,5.735,2.201,6.374,5.134H23.628z"/>
	</g>
</g>
</svg>
