<?xml version="1.0" encoding="utf-8"?>
<!-- Generator: Adobe Illustrator 18.1.1, SVG Export Plug-In . SVG Version: 6.00 Build 0)  -->
<svg version="1.1" xmlns="http://www.w3.org/2000/svg" xmlns:xlink="http://www.w3.org/1999/xlink" x="0px" y="0px"
	 viewBox="0 0 36 36" enable-background="new 0 0 36 36" xml:space="preserve">
<g id="Layer_1">
	<g>
		<path fill="#BFCE9E" d="M18,35.5C8.351,35.5,0.5,27.649,0.5,18S8.351,0.5,18,0.5c9.649,0,17.5,7.851,17.5,17.5
			S27.649,35.5,18,35.5"/>
		<path fill="#407C57" d="M18,0C8.061,0,0,8.06,0,18c0,9.941,8.061,18,18,18c9.94,0,18-8.059,18-18C36,8.06,27.94,0,18,0 M18,1
			c9.375,0,17,7.626,17,17c0,9.374-7.625,17-17,17C8.627,35,1,27.374,1,18C1,8.626,8.627,1,18,1"/>
		<path fill="#96B873" d="M34,18c0,8.836-7.164,16-16,16C9.164,34,2,26.836,2,18C2,9.164,9.164,2,18,2C26.836,2,34,9.164,34,18"/>
		<path fill="#BFCE9E" d="M18,27.5c-5.237,0-9.5-4.262-9.5-9.5s4.263-9.5,9.5-9.5c5.238,0,9.5,4.262,9.5,9.5S23.238,27.5,18,27.5"/>
		<path fill="#407C57" d="M18,8C12.479,8,8,12.477,8,18s4.479,10,10,10c5.522,0,10-4.477,10-10S23.522,8,18,8 M18,9
			c4.963,0,9,4.038,9,9s-4.037,9-9,9c-4.961,0-9-4.038-9-9S13.039,9,18,9"/>
		<path fill="#407C57" d="M29.375,14.867c-0.771,2.349-3.015,1.504-3.182,1.406c-0.167-0.101-1.521-1.427-1.809-1.808
			c-0.184-0.243-0.858-0.512-1.366-0.673c-0.036,0.004-0.069,0.006-0.106,0.013c-0.201,0.034-1.211,0.284-1.131,0.468
			c0.09,0.208,0.452,0.407,0.59,0.591c0.506,0.661,1.609,2.164,1.226,3.383c-0.126,0.4-1.226,0.938-1.871,1.44
			c-0.608-0.412-0.779-1.043-1.668-1.248c0.286,0.537,0.646,1.024,0.754,1.91c-1.095,0.802-2.192,1.855-3.702,2.255
			c-0.445-0.438-0.73-1.204-1.472-1.354c0.216,0.604,0.616,1.036,0.698,1.771c-2.482,1.297-7.432,4.974-8.94,4.802
			c-0.093-0.47,0.058-0.874,0.247-1.476c0.733-2.289,4.008-6.687,5.082-8.377c0.087-0.137,0.186-0.254,0.285-0.296
			c1.287-0.026,1.92,0.438,2.734,0.868c-0.246-0.963-1.474-1.597-2.213-1.979c0.74-1.593,2.75-4.583,3.633-4.635
			c1.939,0.021,2.853,0.957,4.024,1.72c0.316-0.438,0.484-1.029,0.456-1.592c-0.031-0.095-0.063-0.185-0.11-0.264
			c-0.246-0.463-1.723-1.548-1.787-1.568c-0.061-0.019-3.14-3.033,0.416-3.637c3.555-0.601,3.659,2.676,3.471,3.76
			c-0.049,0.288-0.115,0.542-0.189,0.761c-0.068,0.263-0.154,0.519-0.261,0.769c0.094-0.096,0.177-0.202,0.252-0.313
			c0.36-0.811,1.035-2.461,1.801-3.307c0.896-0.984,2.06-2.01,3.619-1.065c1.562,0.947-0.978,3.255-1.644,3.556
			c-0.571,0.258-2.357,0.994-3.361,1.488c0.061-0.007,0.119-0.018,0.181-0.031c0.208-0.078,0.445-0.163,0.691-0.235
			c0.084-0.028,0.166-0.052,0.245-0.069c0.221-0.058,0.439-0.107,0.643-0.127C26.526,11.673,30.145,12.517,29.375,14.867"/>
		<path fill="#F6B22F" d="M20.434,12.927c0.09,0.208,0.452,0.407,0.59,0.591c0.507,0.66,1.609,2.163,1.226,3.384
			c-0.127,0.399-1.227,0.938-1.871,1.439c-0.608-0.413-0.779-1.043-1.668-1.249c0.287,0.538,0.645,1.026,0.754,1.911
			c-1.094,0.802-2.192,1.856-3.702,2.255c-0.446-0.438-0.729-1.205-1.472-1.352c0.215,0.604,0.615,1.035,0.697,1.771
			c-2.48,1.296-7.431,4.974-8.939,4.802c-0.094-0.47,0.057-0.874,0.246-1.476c0.732-2.289,4.009-6.687,5.082-8.377
			c0.088-0.136,0.187-0.253,0.287-0.296c1.285-0.026,1.918,0.438,2.732,0.869c-0.246-0.964-1.473-1.598-2.212-1.981
			c0.74-1.592,2.75-4.582,3.632-4.634c1.939,0.021,2.854,0.957,4.024,1.72"/>
		<path fill="#CD9C68" d="M21.024,13.518c0.506,0.661,1.608,2.164,1.226,3.384c-0.127,0.399-1.227,0.938-1.873,1.439
			c-0.606-0.412-0.779-1.043-1.666-1.248c0.285,0.537,0.645,1.024,0.754,1.91c-1.094,0.802-2.193,1.856-3.703,2.255
			c-0.444-0.438-0.729-1.204-1.471-1.353c0.215,0.605,0.615,1.036,0.697,1.771c-2.482,1.297-7.431,4.974-8.941,4.802"/>
		<path fill="#366258" d="M28.027,13.521c-0.77,2.349-3.014,1.504-3.181,1.406c-0.167-0.101-1.521-1.428-1.809-1.808
			c-0.182-0.243-0.858-0.512-1.365-0.673c-0.036,0.004-0.068,0.006-0.105,0.013c-0.203,0.034-1.211,0.284-1.132,0.468l-0.594-0.624
			c0.315-0.438,0.485-1.029,0.456-1.592c-0.031-0.095-0.064-0.185-0.109-0.263c-0.248-0.463-1.724-1.549-1.787-1.569
			c-0.061-0.019-3.141-3.033,0.414-3.636c3.555-0.602,3.66,2.673,3.473,3.759c-0.051,0.288-0.116,0.542-0.189,0.761
			c-0.07,0.263-0.154,0.519-0.262,0.769c0.095-0.096,0.177-0.202,0.252-0.313c0.359-0.811,1.035-2.461,1.801-3.307
			c0.897-0.984,2.061-2.01,3.619-1.065c1.563,0.945-0.977,3.255-1.643,3.556c-0.572,0.258-2.358,0.994-3.362,1.489
			c0.06-0.008,0.118-0.019,0.181-0.032c0.208-0.078,0.445-0.163,0.691-0.236c0.084-0.027,0.166-0.051,0.246-0.068
			c0.22-0.058,0.438-0.106,0.642-0.127C25.18,10.326,28.798,11.17,28.027,13.521"/>
	</g>
</g>
<g id="Layer_2">
</g>
<g id="Layer_3">
</g>
</svg>
