<?xml version="1.0" encoding="utf-8"?>
<!-- Generator: Adobe Illustrator 19.1.0, SVG Export Plug-In . SVG Version: 6.00 Build 0)  -->
<svg version="1.1" id="Layer_1" xmlns="http://www.w3.org/2000/svg" xmlns:xlink="http://www.w3.org/1999/xlink" x="0px" y="0px"
	 viewBox="0 0 56.7 56.7" style="enable-background:new 0 0 56.7 56.7;" xml:space="preserve">
<style type="text/css">
	.st0{fill:#231F20;}
	.st1{clip-path:url(#SVGID_2_);fill:#FFFFFF;}
	.st2{clip-path:url(#SVGID_2_);fill:#003E7E;}
	.st3{clip-path:url(#SVGID_2_);fill-rule:evenodd;clip-rule:evenodd;fill:#FFFFFF;}
	.st4{fill:#EFC10B;}
	.st5{fill:#D7D1CA;}
	.st6{opacity:0.9;clip-path:url(#SVGID_4_);}
	.st7{clip-path:url(#SVGID_6_);fill:none;stroke:#EAEFF2;stroke-miterlimit:10;}
	.st8{clip-path:url(#SVGID_8_);fill-rule:evenodd;clip-rule:evenodd;fill:#74A333;}
	.st9{clip-path:url(#SVGID_8_);fill:none;stroke:#FFFFFF;stroke-linejoin:bevel;stroke-miterlimit:10;}
	.st10{clip-path:url(#SVGID_8_);fill-rule:evenodd;clip-rule:evenodd;fill:#BEB7B3;}
	.st11{clip-path:url(#SVGID_8_);fill-rule:evenodd;clip-rule:evenodd;fill:#DAD6D3;}
	.st12{clip-path:url(#SVGID_8_);fill-rule:evenodd;clip-rule:evenodd;fill:#E1E776;}
	.st13{clip-path:url(#SVGID_8_);fill:#BFD22B;}
	.st14{fill:#554742;}
	.st15{fill:#877B77;}
	.st16{fill:#BEB7B3;}
	.st17{fill:#F1EEE8;}
	.st18{fill:#F7F5F1;}
	.st19{fill:#E1E776;}
	.st20{fill:#D0DC70;}
	.st21{fill:#BFD22B;}
	.st22{fill:#74A333;}
	.st23{fill:#EAEFF2;}
	.st24{fill:#58B6E7;}
	.st25{fill:#3A84B6;}
	.st26{fill:#003E7E;}
	.st27{fill:#DAD6D3;}
	.st28{fill:none;stroke:#231F20;stroke-width:1.5;stroke-linecap:round;stroke-miterlimit:10;}
	.st29{fill:none;stroke:#231F20;stroke-width:1.5;stroke-miterlimit:10;}
</style>
<g>
	<path d="M34.6,14.7H22.1c-1.2,0-2.1,1-2.1,2.1v23.1c0,1.2,1,2.1,2.1,2.1h12.4c1.2,0,2.1-1,2.1-2.1V16.8
		C36.7,15.6,35.7,14.7,34.6,14.7 M35.4,35.4h-8.9l7.2-7.2c0.3-0.3,0.3-0.7,0-0.9c-0.3-0.3-0.7-0.3-0.9,0l-8.1,8.1h-3.3V21.2h13.3
		l-7.5,7.5c-0.3,0.3-0.3,0.7,0,0.9c0.1,0.1,0.3,0.2,0.5,0.2c0.2,0,0.3-0.1,0.5-0.2l7.3-7.3V35.4z M22.1,16h12.4
		c0.5,0,0.8,0.4,0.8,0.8v3.1H21.3v-3.1C21.3,16.3,21.7,16,22.1,16 M34.6,40.7H22.1c-0.5,0-0.8-0.4-0.8-0.8v-3.2h14.1v3.2
		C35.4,40.3,35,40.7,34.6,40.7"/>
	<path d="M28.3,37.6c-0.6,0-1,0.5-1,1c0,0.6,0.5,1,1,1c0.6,0,1-0.5,1-1C29.4,38.1,28.9,37.6,28.3,37.6 M28.3,38.9
		c-0.2,0-0.3-0.1-0.3-0.3c0-0.2,0.1-0.3,0.3-0.3c0.2,0,0.3,0.1,0.3,0.3C28.6,38.8,28.5,38.9,28.3,38.9"/>
	<path d="M26.7,18.6H30c0.4,0,0.7-0.3,0.7-0.7c0-0.4-0.3-0.7-0.7-0.7h-3.3c-0.4,0-0.7,0.3-0.7,0.7C26,18.3,26.3,18.6,26.7,18.6"/>
	<path d="M26,30c-0.4,0-0.7,0.3-0.7,0.7c0,0.4,0.3,0.7,0.7,0.7c0.4,0,0.7-0.3,0.7-0.7C26.7,30.4,26.4,30,26,30"/>
</g>
</svg>
