<?xml version="1.0" encoding="utf-8"?>
<!-- Generator: Adobe Illustrator 19.1.0, SVG Export Plug-In . SVG Version: 6.00 Build 0)  -->
<svg version="1.1" id="Layer_1" xmlns="http://www.w3.org/2000/svg" xmlns:xlink="http://www.w3.org/1999/xlink" x="0px" y="0px"
	 viewBox="0 0 56.7 56.7" style="enable-background:new 0 0 56.7 56.7;" xml:space="preserve">
<style type="text/css">
	.st0{fill:#231F20;}
	.st1{clip-path:url(#SVGID_2_);fill:#FFFFFF;}
	.st2{clip-path:url(#SVGID_2_);fill:#003E7E;}
	.st3{clip-path:url(#SVGID_2_);fill-rule:evenodd;clip-rule:evenodd;fill:#FFFFFF;}
	.st4{fill:#EFC10B;}
	.st5{fill:#D7D1CA;}
	.st6{opacity:0.9;clip-path:url(#SVGID_4_);}
	.st7{clip-path:url(#SVGID_6_);fill:none;stroke:#EAEFF2;stroke-miterlimit:10;}
	.st8{clip-path:url(#SVGID_8_);fill-rule:evenodd;clip-rule:evenodd;fill:#74A333;}
	.st9{clip-path:url(#SVGID_8_);fill:none;stroke:#FFFFFF;stroke-linejoin:bevel;stroke-miterlimit:10;}
	.st10{clip-path:url(#SVGID_8_);fill-rule:evenodd;clip-rule:evenodd;fill:#BEB7B3;}
	.st11{clip-path:url(#SVGID_8_);fill-rule:evenodd;clip-rule:evenodd;fill:#DAD6D3;}
	.st12{clip-path:url(#SVGID_8_);fill-rule:evenodd;clip-rule:evenodd;fill:#E1E776;}
	.st13{clip-path:url(#SVGID_8_);fill:#BFD22B;}
	.st14{fill:#554742;}
	.st15{fill:#877B77;}
	.st16{fill:#BEB7B3;}
	.st17{fill:#F1EEE8;}
	.st18{fill:#F7F5F1;}
	.st19{fill:#E1E776;}
	.st20{fill:#D0DC70;}
	.st21{fill:#BFD22B;}
	.st22{fill:#74A333;}
	.st23{fill:#EAEFF2;}
	.st24{fill:#58B6E7;}
	.st25{fill:#3A84B6;}
	.st26{fill:#003E7E;}
	.st27{fill:#DAD6D3;}
	.st28{fill:none;stroke:#231F20;stroke-width:1.5;stroke-linecap:round;stroke-miterlimit:10;}
	.st29{fill:none;stroke:#231F20;stroke-width:1.5;stroke-miterlimit:10;}
</style>
<g>
	<path d="M41.8,21.1c0-0.6-0.2-1.2-0.6-1.7c0.2-0.6,0.3-1.2,0.1-1.8c-0.2-0.6-0.5-1.1-1-1.5c0.1-0.6,0-1.2-0.3-1.8
		c-0.3-0.5-0.8-0.9-1.4-1.2c-0.1-0.6-0.3-1.1-0.7-1.6c-0.4-0.5-1.1-0.8-1.7-0.8c-0.4-1-1.4-1.7-2.5-1.7c-0.1,0-0.3,0-0.4,0
		c-0.5-0.7-1.3-1.1-2.2-1.1c-0.4,0-0.7,0.1-1.1,0.2c-1-0.8-2.4-0.8-3.4,0c-0.3-0.2-0.7-0.2-1.1-0.2c-0.9,0-1.7,0.4-2.2,1.1
		c-1.3-0.2-2.5,0.5-2.9,1.7c-0.6,0.1-1.2,0.4-1.7,0.8c-0.4,0.4-0.6,1-0.7,1.6c-0.6,0.2-1.1,0.6-1.4,1.2c-0.3,0.5-0.4,1.2-0.3,1.8
		c-0.5,0.4-0.9,0.9-1,1.5c-0.2,0.6-0.1,1.2,0.1,1.8c-0.4,0.5-0.6,1.1-0.6,1.7c0,0.6,0.2,1.2,0.6,1.7c-0.2,0.6-0.3,1.2-0.1,1.8
		c0.2,0.6,0.5,1.1,1,1.5c-0.1,0.6,0,1.2,0.3,1.8c0.3,0.5,0.8,1,1.4,1.2c0.1,0.6,0.3,1.1,0.7,1.6c0.4,0.4,0.9,0.7,1.4,0.8l-3.9,14.6
		c-0.1,0.2,0,0.4,0.2,0.6c0.2,0.1,0.4,0.2,0.6,0.1l5-1.6l3.5,3.9c0.1,0.1,0.3,0.2,0.4,0.2c0,0,0.1,0,0.1,0c0.2,0,0.4-0.2,0.4-0.4
		l1.9-7.2l1.9,7.2c0.1,0.2,0.2,0.4,0.4,0.4c0,0,0.1,0,0.1,0c0.2,0,0.3-0.1,0.4-0.2l3.5-3.9l5,1.6c0.2,0.1,0.4,0,0.6-0.1
		c0.2-0.1,0.2-0.4,0.2-0.6l-3.9-14.6c0.5-0.1,1-0.4,1.4-0.8c0.4-0.4,0.6-1,0.7-1.6c0.6-0.2,1.1-0.6,1.4-1.2c0.3-0.5,0.4-1.2,0.3-1.8
		c0.5-0.4,0.9-0.9,1-1.5c0.2-0.6,0.1-1.2-0.1-1.8C41.6,22.3,41.8,21.7,41.8,21.1 M36.4,21.5c0-0.2,0-0.3,0-0.5c0-0.2,0-0.3,0-0.5
		l3.9-0.5c0.2,0.3,0.4,0.6,0.4,1c0,0.4-0.1,0.7-0.4,1L36.4,21.5z M24.7,28.3l-1.5,3.6c-0.1,0-0.2,0-0.3,0c-0.6,0-1.2-0.4-1.4-1
		l2.4-3.1C24.1,28,24.4,28.2,24.7,28.3 M25.8,28.8c0.3,0.1,0.6,0.2,0.9,0.3l-0.5,3.9C26,33,25.8,33,25.6,33c-0.5,0-1-0.3-1.2-0.7
		L25.8,28.8z M27.9,29.2c0.2,0,0.3,0,0.5,0c0.2,0,0.3,0,0.5,0l0.5,3.9c-0.6,0.4-1.4,0.4-2,0L27.9,29.2z M30.5,32.9L30,29
		c0.3-0.1,0.6-0.2,0.9-0.3l1.5,3.6c-0.3,0.4-0.7,0.7-1.2,0.7C30.9,33,30.7,33,30.5,32.9 M33.5,31.9L32,28.3c0.3-0.1,0.6-0.3,0.8-0.5
		l2.4,3.1c-0.2,0.6-0.8,1-1.4,1C33.7,31.9,33.6,31.9,33.5,31.9 M28.3,28c-3.5,0-6.4-2.6-6.9-6c0,0,0,0,0,0c0,0,0,0,0,0
		c0-0.3-0.1-0.6-0.1-0.9c0-3.8,3.1-7,7-7c3.8,0,7,3.1,7,7C35.3,24.9,32.2,28,28.3,28 M16.4,22c-0.2-0.3-0.4-0.6-0.4-1
		c0-0.4,0.1-0.7,0.4-1l3.9,0.5c0,0.2,0,0.3,0,0.5c0,0.2,0,0.3,0,0.5L16.4,22z M40.2,18.9l-3.8,0.5c-0.1-0.3-0.2-0.6-0.3-0.9l3.6-1.5
		c0.3,0.2,0.5,0.5,0.6,0.9C40.3,18.2,40.3,18.6,40.2,18.9 M39,14.9c0.2,0.3,0.2,0.7,0.2,1l-3.6,1.5c-0.1-0.3-0.3-0.6-0.5-0.8
		l3.1-2.4C38.5,14.3,38.8,14.6,39,14.9 M37.5,13.3l-3.1,2.4c-0.2-0.2-0.4-0.5-0.7-0.7l2.4-3.1c0.4,0,0.7,0.2,1,0.5
		C37.3,12.6,37.5,13,37.5,13.3 M35.2,11.2l-2.4,3.1c-0.3-0.2-0.5-0.3-0.8-0.5l1.5-3.6c0.1,0,0.2,0,0.3,0
		C34.4,10.2,35,10.6,35.2,11.2 M32.4,9.8l-1.5,3.6c-0.3-0.1-0.6-0.2-0.9-0.3l0.5-3.8c0.2-0.1,0.4-0.1,0.6-0.1
		C31.6,9.1,32.1,9.4,32.4,9.8 M29.3,9.1l-0.5,3.9c-0.2,0-0.3,0-0.5,0c-0.2,0-0.3,0-0.5,0l-0.5-3.8C27.9,8.6,28.8,8.6,29.3,9.1
		 M25.6,9.1c0.2,0,0.4,0,0.6,0.1l0.5,3.9c-0.3,0.1-0.6,0.2-0.9,0.3l-1.5-3.6C24.6,9.4,25,9.1,25.6,9.1 M22.9,10.2c0.1,0,0.2,0,0.3,0
		l1.5,3.6c-0.3,0.1-0.6,0.3-0.8,0.5l-2.4-3.1C21.7,10.6,22.3,10.2,22.9,10.2 M20.6,11.9L23,15c-0.2,0.2-0.5,0.4-0.7,0.7l-3.1-2.4
		c0-0.3,0.2-0.7,0.4-0.9C19.9,12.1,20.2,11.9,20.6,11.9 M17.7,14.9c0.2-0.3,0.5-0.5,0.8-0.7l3.1,2.4c-0.2,0.3-0.3,0.5-0.5,0.8
		l-3.6-1.5C17.4,15.6,17.5,15.2,17.7,14.9 M16.4,17.9c0.1-0.3,0.3-0.6,0.6-0.9l3.6,1.5c-0.1,0.3-0.2,0.6-0.3,0.9l-3.8-0.5
		C16.4,18.6,16.3,18.2,16.4,17.9 M16.5,23.2l3.8-0.5c0.1,0.3,0.2,0.6,0.3,0.9l-3.6,1.5c-0.3-0.2-0.5-0.5-0.6-0.9
		C16.3,23.9,16.4,23.5,16.5,23.2 M17.7,27.2c-0.2-0.3-0.2-0.7-0.2-1l3.6-1.5c0.1,0.3,0.3,0.6,0.5,0.8l-3.1,2.4
		C18.1,27.8,17.9,27.5,17.7,27.2 M19.2,28.8l3.1-2.4c0.2,0.2,0.4,0.5,0.7,0.7l-2.4,3.1c-0.4,0-0.7-0.2-1-0.5
		C19.4,29.5,19.2,29.2,19.2,28.8 M25.6,47.3l-3-3.4c-0.2-0.2-0.4-0.2-0.6-0.2l-4.3,1.4l3.5-12.9c0.6,0.6,1.4,0.9,2.3,0.7
		c0.5,0.7,1.3,1.1,2.2,1.1c0.4,0,0.8-0.1,1.1-0.2c0.5,0.4,1.1,0.6,1.7,0.6c0.2,0,0.5,0,0.7-0.1L25.6,47.3z M34.8,43.8
		c-0.2-0.1-0.5,0-0.6,0.2l-3,3.4L29,39.2l1.4-5.2c0.3,0.1,0.5,0.1,0.8,0.1c0.9,0,1.7-0.4,2.2-1.1c0.1,0,0.3,0,0.4,0
		c0.7,0,1.4-0.3,1.9-0.8l3.4,12.9L34.8,43.8z M36.1,30.2l-2.4-3.1c0.2-0.2,0.5-0.4,0.7-0.7l3.1,2.4c0,0.3-0.2,0.7-0.4,0.9
		C36.8,30,36.5,30.2,36.1,30.2 M39,27.2c-0.2,0.3-0.5,0.5-0.8,0.7l-3.1-2.4c0.2-0.3,0.3-0.5,0.5-0.8l3.6,1.5
		C39.3,26.5,39.2,26.9,39,27.2 M40.2,24.2c-0.1,0.4-0.3,0.6-0.6,0.9l-3.6-1.5c0.1-0.3,0.2-0.6,0.3-0.9l3.8,0.5
		C40.3,23.5,40.3,23.9,40.2,24.2"/>
	<path d="M34.1,20.3c-0.3-2-1.6-3.8-3.5-4.6c-0.7-0.3-1.5-0.4-2.2-0.4c-2.3,0-4.4,1.4-5.3,3.6c-0.1,0.1-0.1,0.3-0.1,0.4
		c-1,3,0.7,6.3,3.7,7.3c0.6,0.2,1.2,0.3,1.8,0.3c0.2,0,0.5,0,0.7,0c1.5-0.2,2.9-1,3.8-2.2C33.9,23.4,34.3,21.8,34.1,20.3 M32,23.9
		c-0.8,1-1.8,1.6-3.1,1.8c-0.7,0.1-1.4,0-2-0.2c-2.4-0.8-3.7-3.4-2.9-5.8c0-0.1,0.1-0.2,0.1-0.3c0.7-1.7,2.4-2.8,4.3-2.8
		c0.6,0,1.2,0.1,1.8,0.4c1.5,0.6,2.6,2,2.8,3.7C33.1,21.7,32.7,22.9,32,23.9"/>
</g>
</svg>
