<?xml version="1.0" encoding="utf-8"?>
<!-- Generator: Adobe Illustrator 19.1.0, SVG Export Plug-In . SVG Version: 6.00 Build 0)  -->
<svg version="1.1" id="Layer_1" xmlns="http://www.w3.org/2000/svg" xmlns:xlink="http://www.w3.org/1999/xlink" x="0px" y="0px"
	 viewBox="0 0 56.7 56.7" style="enable-background:new 0 0 56.7 56.7;" xml:space="preserve">
<style type="text/css">
	.st0{fill:#231F20;}
	.st1{clip-path:url(#SVGID_2_);fill:#FFFFFF;}
	.st2{clip-path:url(#SVGID_2_);fill:#003E7E;}
	.st3{clip-path:url(#SVGID_2_);fill-rule:evenodd;clip-rule:evenodd;fill:#FFFFFF;}
	.st4{fill:#EFC10B;}
	.st5{fill:#D7D1CA;}
	.st6{opacity:0.9;clip-path:url(#SVGID_4_);}
	.st7{clip-path:url(#SVGID_6_);fill:none;stroke:#EAEFF2;stroke-miterlimit:10;}
	.st8{clip-path:url(#SVGID_8_);fill-rule:evenodd;clip-rule:evenodd;fill:#74A333;}
	.st9{clip-path:url(#SVGID_8_);fill:none;stroke:#FFFFFF;stroke-linejoin:bevel;stroke-miterlimit:10;}
	.st10{clip-path:url(#SVGID_8_);fill-rule:evenodd;clip-rule:evenodd;fill:#BEB7B3;}
	.st11{clip-path:url(#SVGID_8_);fill-rule:evenodd;clip-rule:evenodd;fill:#DAD6D3;}
	.st12{clip-path:url(#SVGID_8_);fill-rule:evenodd;clip-rule:evenodd;fill:#E1E776;}
	.st13{clip-path:url(#SVGID_8_);fill:#BFD22B;}
	.st14{fill:#554742;}
	.st15{fill:#877B77;}
	.st16{fill:#BEB7B3;}
	.st17{fill:#F1EEE8;}
	.st18{fill:#F7F5F1;}
	.st19{fill:#E1E776;}
	.st20{fill:#D0DC70;}
	.st21{fill:#BFD22B;}
	.st22{fill:#74A333;}
	.st23{fill:#EAEFF2;}
	.st24{fill:#58B6E7;}
	.st25{fill:#3A84B6;}
	.st26{fill:#003E7E;}
	.st27{fill:#DAD6D3;}
	.st28{fill:none;stroke:#231F20;stroke-width:1.5;stroke-linecap:round;stroke-miterlimit:10;}
	.st29{fill:none;stroke:#231F20;stroke-width:1.5;stroke-miterlimit:10;}
</style>
<g>
	<path class="st0" d="M33.1,33.6v-8.1l2.9-1.7v11.5L33.1,33.6z M31,35.5l1.4-0.8l2.9,1.7L31,38.8L31,35.5z M28.3,34.7l1.4,0.8l0,3.3
		l-4.3-2.5L28.3,34.7z M29.8,23.6l-1.4,0.8l-2.9-1.7l4.3-2.5L29.8,23.6z M30.4,34.4L29,33.6v-8.1l1.4-0.8l1.4,0.8v8.1L30.4,34.4z
		 M32.5,24.4L31,23.6l0-3.3l4.3,2.5L32.5,24.4z M24.8,23.8l2.9,1.7v8.1l-2.9,1.7V23.8z M37.2,22.7C37.2,22.7,37.2,22.7,37.2,22.7
		c0-0.1,0-0.2-0.1-0.3c-0.1-0.1-0.1-0.2-0.2-0.2c0,0,0,0,0,0l-6.2-3.6c0,0,0,0,0,0c-0.1,0-0.2-0.1-0.3-0.1c-0.1,0-0.2,0-0.3,0.1
		c0,0,0,0,0,0l-6.2,3.6c0,0,0,0,0,0c-0.1,0.1-0.2,0.1-0.2,0.2c-0.1,0.1-0.1,0.2-0.1,0.3c0,0,0,0,0,0v13.6c0,0,0,0,0,0
		c0,0.1,0,0.2,0.1,0.3c0.1,0.1,0.1,0.2,0.2,0.2l6.2,3.6c0,0,0,0,0,0c0.1,0,0.2,0.1,0.3,0.1c0.1,0,0.2,0,0.3-0.1c0,0,0,0,0,0l6.2-3.6
		c0.1-0.1,0.2-0.1,0.2-0.2c0.1-0.1,0.1-0.2,0.1-0.3c0,0,0,0,0,0V22.7z"/>
	<path class="st0" d="M22,34.3l-1.3-0.7V20.7l5.6-3.2l1.3,0.7c0.3,0.2,0.7,0.1,0.8-0.2c0.2-0.3,0.1-0.7-0.2-0.8l-1.6-0.9
		c-0.2-0.1-0.4-0.1-0.6,0l-6.2,3.6c-0.2,0.1-0.3,0.3-0.3,0.5V34c0,0.2,0.1,0.4,0.3,0.5l1.6,0.9c0.1,0.1,0.2,0.1,0.3,0.1
		c0.2,0,0.4-0.1,0.5-0.3C22.4,34.9,22.3,34.5,22,34.3"/>
</g>
</svg>
