<?xml version="1.0" encoding="utf-8"?>
<!-- Generator: Adobe Illustrator 19.1.0, SVG Export Plug-In . SVG Version: 6.00 Build 0)  -->
<svg version="1.1" id="Layer_1" xmlns="http://www.w3.org/2000/svg" xmlns:xlink="http://www.w3.org/1999/xlink" x="0px" y="0px"
	 viewBox="0 0 56.7 56.7" style="enable-background:new 0 0 56.7 56.7;" xml:space="preserve">
<style type="text/css">
	.st0{fill:#231F20;}
	.st1{clip-path:url(#SVGID_2_);fill:#FFFFFF;}
	.st2{clip-path:url(#SVGID_2_);fill:#003E7E;}
	.st3{clip-path:url(#SVGID_2_);fill-rule:evenodd;clip-rule:evenodd;fill:#FFFFFF;}
	.st4{fill:#EFC10B;}
	.st5{fill:#D7D1CA;}
	.st6{opacity:0.9;clip-path:url(#SVGID_4_);}
	.st7{clip-path:url(#SVGID_6_);fill:none;stroke:#EAEFF2;stroke-miterlimit:10;}
	.st8{clip-path:url(#SVGID_8_);fill-rule:evenodd;clip-rule:evenodd;fill:#74A333;}
	.st9{clip-path:url(#SVGID_8_);fill:none;stroke:#FFFFFF;stroke-linejoin:bevel;stroke-miterlimit:10;}
	.st10{clip-path:url(#SVGID_8_);fill-rule:evenodd;clip-rule:evenodd;fill:#BEB7B3;}
	.st11{clip-path:url(#SVGID_8_);fill-rule:evenodd;clip-rule:evenodd;fill:#DAD6D3;}
	.st12{clip-path:url(#SVGID_8_);fill-rule:evenodd;clip-rule:evenodd;fill:#E1E776;}
	.st13{clip-path:url(#SVGID_8_);fill:#BFD22B;}
	.st14{fill:#554742;}
	.st15{fill:#877B77;}
	.st16{fill:#BEB7B3;}
	.st17{fill:#F1EEE8;}
	.st18{fill:#F7F5F1;}
	.st19{fill:#E1E776;}
	.st20{fill:#D0DC70;}
	.st21{fill:#BFD22B;}
	.st22{fill:#74A333;}
	.st23{fill:#EAEFF2;}
	.st24{fill:#58B6E7;}
	.st25{fill:#3A84B6;}
	.st26{fill:#003E7E;}
	.st27{fill:#DAD6D3;}
	.st28{fill:none;stroke:#231F20;stroke-width:1.5;stroke-linecap:round;stroke-miterlimit:10;}
	.st29{fill:none;stroke:#231F20;stroke-width:1.5;stroke-miterlimit:10;}
</style>
<g>
	<path class="st0" d="M43,35.7c-1.1,0-2-0.6-2.6-1.5c-0.1-0.2-0.3-0.3-0.5-0.3c-0.2,0-0.4,0.1-0.5,0.3c-0.5,0.9-1.5,1.5-2.6,1.5
		c-1.1,0-2-0.6-2.6-1.5c-0.1-0.2-0.3-0.3-0.5-0.3c-0.2,0-0.4,0.1-0.5,0.3c-0.5,0.9-1.5,1.5-2.6,1.5c-1.1,0-2-0.6-2.6-1.5
		c-0.1-0.2-0.3-0.3-0.5-0.3c-0.2,0-0.4,0.1-0.5,0.3c-0.5,0.9-1.5,1.5-2.6,1.5s-2-0.6-2.6-1.5c-0.2-0.4-0.8-0.4-1,0
		c-0.5,0.9-1.5,1.5-2.6,1.5c-1.1,0-2-0.6-2.6-1.5c-0.1-0.2-0.3-0.3-0.5-0.3c-0.2,0-0.4,0.1-0.5,0.3c-0.5,0.9-1.5,1.5-2.6,1.5
		c-0.3,0-0.6,0.3-0.6,0.6c0,0.3,0.3,0.6,0.6,0.6c1.2,0,2.3-0.5,3.1-1.4c0.8,0.9,1.9,1.4,3.1,1.4c1.2,0,2.3-0.5,3.1-1.4
		c0.8,0.9,1.9,1.4,3.1,1.4s2.3-0.5,3.1-1.4c0.8,0.9,1.9,1.4,3.1,1.4c1.2,0,2.3-0.5,3.1-1.4c0.8,0.9,1.9,1.4,3.1,1.4s2.3-0.5,3.1-1.4
		c0.8,0.9,1.9,1.4,3.1,1.4c0.3,0,0.6-0.3,0.6-0.6C43.6,35.9,43.4,35.7,43,35.7"/>
	<path class="st0" d="M24.5,25.9H12.8V21h13.2c0.5,0,0.9,0.4,0.9,0.9c0,0.5-0.4,0.9-0.9,0.9h-3.3c-0.3,0-0.6,0.3-0.6,0.6
		c0,0.3,0.3,0.6,0.6,0.6h1.7V25.9z M44.5,23.6l-11.8,0c-0.2,0-0.3,0.1-0.4,0.2l-2,2.1h-4.5v-1.8h0.4c1.2,0,2.1-0.9,2.1-2.1
		c0-1.2-0.9-2.1-2.1-2.1H12.2c-0.3,0-0.6,0.3-0.6,0.6v12.7c0,0.3,0.3,0.6,0.6,0.6c0.3,0,0.6-0.3,0.6-0.6v-6.1h17.6
		c0.2,0,0.3-0.1,0.4-0.2l2-2.1l11,0c-0.1,2.9-1,5.6-2.7,8c-0.2,0.3-0.1,0.6,0.1,0.8c0.1,0.1,0.2,0.1,0.3,0.1c0.2,0,0.4-0.1,0.5-0.3
		c1.9-2.7,2.9-5.9,2.9-9.3c0-0.2-0.1-0.3-0.2-0.4C44.8,23.7,44.6,23.6,44.5,23.6"/>
</g>
</svg>
