<?xml version="1.0" encoding="utf-8"?>
<!-- Generator: Adobe Illustrator 19.1.0, SVG Export Plug-In . SVG Version: 6.00 Build 0)  -->
<svg version="1.1" id="Layer_1" xmlns="http://www.w3.org/2000/svg" xmlns:xlink="http://www.w3.org/1999/xlink" x="0px" y="0px"
	 viewBox="0 0 56.7 56.7" style="enable-background:new 0 0 56.7 56.7;" xml:space="preserve">
<style type="text/css">
	.st0{fill:#231F20;}
	.st1{clip-path:url(#SVGID_2_);fill:#FFFFFF;}
	.st2{clip-path:url(#SVGID_2_);fill:#003E7E;}
	.st3{clip-path:url(#SVGID_2_);fill-rule:evenodd;clip-rule:evenodd;fill:#FFFFFF;}
	.st4{fill:#EFC10B;}
	.st5{fill:#D7D1CA;}
	.st6{opacity:0.9;clip-path:url(#SVGID_4_);}
	.st7{clip-path:url(#SVGID_6_);fill:none;stroke:#EAEFF2;stroke-miterlimit:10;}
	.st8{clip-path:url(#SVGID_8_);fill-rule:evenodd;clip-rule:evenodd;fill:#74A333;}
	.st9{clip-path:url(#SVGID_8_);fill:none;stroke:#FFFFFF;stroke-linejoin:bevel;stroke-miterlimit:10;}
	.st10{clip-path:url(#SVGID_8_);fill-rule:evenodd;clip-rule:evenodd;fill:#BEB7B3;}
	.st11{clip-path:url(#SVGID_8_);fill-rule:evenodd;clip-rule:evenodd;fill:#DAD6D3;}
	.st12{clip-path:url(#SVGID_8_);fill-rule:evenodd;clip-rule:evenodd;fill:#E1E776;}
	.st13{clip-path:url(#SVGID_8_);fill:#BFD22B;}
	.st14{fill:#554742;}
	.st15{fill:#877B77;}
	.st16{fill:#BEB7B3;}
	.st17{fill:#F1EEE8;}
	.st18{fill:#F7F5F1;}
	.st19{fill:#E1E776;}
	.st20{fill:#D0DC70;}
	.st21{fill:#BFD22B;}
	.st22{fill:#74A333;}
	.st23{fill:#EAEFF2;}
	.st24{fill:#58B6E7;}
	.st25{fill:#3A84B6;}
	.st26{fill:#003E7E;}
	.st27{fill:#DAD6D3;}
	.st28{fill:none;stroke:#231F20;stroke-width:1.5;stroke-linecap:round;stroke-miterlimit:10;}
	.st29{fill:none;stroke:#231F20;stroke-width:1.5;stroke-miterlimit:10;}
</style>
<g>
	<path d="M42.4,16.4l-6.7-6.7c-0.1-0.1-0.3-0.2-0.4-0.2H15.9c-1,0-1.8,0.8-1.8,1.8v34.2c0,1,0.8,1.8,1.8,1.8h25c1,0,1.8-0.8,1.8-1.8
		V16.9C42.6,16.7,42.5,16.5,42.4,16.4 M35.8,11.6l4.6,4.6h-4.2c-0.3,0-0.5-0.2-0.5-0.5V11.6z M40.8,45.9h-25c-0.3,0-0.5-0.2-0.5-0.5
		V11.3c0-0.3,0.2-0.5,0.5-0.5h18.7v5c0,1,0.8,1.7,1.7,1.7h5v27.9C41.3,45.7,41.1,45.9,40.8,45.9"/>
	<path d="M18.5,17.5h13c0.3,0,0.6-0.3,0.6-0.6v-3.4c0-0.3-0.3-0.6-0.6-0.6h-13c-0.3,0-0.6,0.3-0.6,0.6v3.4
		C17.9,17.2,18.1,17.5,18.5,17.5 M19.1,14.1h11.7v2.2H19.1V14.1z"/>
	<path d="M18.5,22.4h13.3c0.3,0,0.6-0.3,0.6-0.6c0-0.3-0.3-0.6-0.6-0.6H18.5c-0.3,0-0.6,0.3-0.6,0.6C17.9,22.1,18.1,22.4,18.5,22.4"
		/>
	<path d="M20.9,24.3c0,0.3,0.3,0.6,0.6,0.6h12.2c0.3,0,0.6-0.3,0.6-0.6c0-0.3-0.3-0.6-0.6-0.6H21.6C21.2,23.6,20.9,23.9,20.9,24.3"
		/>
	<path d="M20.9,26.8c0,0.3,0.3,0.6,0.6,0.6H36c0.3,0,0.6-0.3,0.6-0.6c0-0.3-0.3-0.6-0.6-0.6H21.6C21.2,26.1,20.9,26.4,20.9,26.8"/>
	<path d="M21.6,28.6c-0.3,0-0.6,0.3-0.6,0.6c0,0.3,0.3,0.6,0.6,0.6h8.3c0.3,0,0.6-0.3,0.6-0.6c0-0.3-0.3-0.6-0.6-0.6H21.6z"/>
	<path d="M36.6,34.3H18.5c-0.3,0-0.6,0.3-0.6,0.6c0,0.3,0.3,0.6,0.6,0.6h18.1c0.3,0,0.6-0.3,0.6-0.6C37.2,34.5,36.9,34.3,36.6,34.3"
		/>
	<path d="M21.6,38h5.8c0.3,0,0.6-0.3,0.6-0.6c0-0.3-0.3-0.6-0.6-0.6h-5.8c-0.3,0-0.6,0.3-0.6,0.6C20.9,37.7,21.2,38,21.6,38"/>
	<path d="M21.6,40.5h9.9c0.3,0,0.6-0.3,0.6-0.6c0-0.3-0.3-0.6-0.6-0.6h-9.9c-0.3,0-0.6,0.3-0.6,0.6C20.9,40.2,21.2,40.5,21.6,40.5"
		/>
	<path d="M36.2,41.8H21.6c-0.3,0-0.6,0.3-0.6,0.6c0,0.3,0.3,0.6,0.6,0.6h14.6c0.3,0,0.6-0.3,0.6-0.6C36.8,42.1,36.5,41.8,36.2,41.8"
		/>
	<path d="M18.5,25c0.4,0,0.7-0.3,0.7-0.7c0-0.4-0.3-0.7-0.7-0.7c-0.4,0-0.7,0.3-0.7,0.7C17.7,24.7,18.1,25,18.5,25"/>
	<path d="M18.5,27.5c0.4,0,0.7-0.3,0.7-0.7c0-0.4-0.3-0.7-0.7-0.7c-0.4,0-0.7,0.3-0.7,0.7C17.7,27.2,18.1,27.5,18.5,27.5"/>
	<path d="M18.5,30c0.4,0,0.7-0.3,0.7-0.7c0-0.4-0.3-0.7-0.7-0.7c-0.4,0-0.7,0.3-0.7,0.7C17.7,29.7,18.1,30,18.5,30"/>
	<path d="M18.5,36.6c-0.4,0-0.7,0.3-0.7,0.7c0,0.4,0.3,0.7,0.7,0.7c0.4,0,0.7-0.3,0.7-0.7C19.2,37,18.9,36.6,18.5,36.6"/>
	<path d="M18.5,39.1c-0.4,0-0.7,0.3-0.7,0.7c0,0.4,0.3,0.7,0.7,0.7c0.4,0,0.7-0.3,0.7-0.7C19.2,39.5,18.9,39.1,18.5,39.1"/>
	<path d="M18.5,41.7c-0.4,0-0.7,0.3-0.7,0.7c0,0.4,0.3,0.7,0.7,0.7c0.4,0,0.7-0.3,0.7-0.7C19.2,42,18.9,41.7,18.5,41.7"/>
</g>
</svg>
