<?xml version="1.0" encoding="utf-8"?>
<!-- Generator: Adobe Illustrator 19.1.0, SVG Export Plug-In . SVG Version: 6.00 Build 0)  -->
<svg version="1.1" id="Layer_1" xmlns="http://www.w3.org/2000/svg" xmlns:xlink="http://www.w3.org/1999/xlink" x="0px" y="0px"
	 viewBox="0 0 56.7 56.7" style="enable-background:new 0 0 56.7 56.7;" xml:space="preserve">
<style type="text/css">
	.st0{fill:#231F20;}
	.st1{clip-path:url(#SVGID_2_);fill:#FFFFFF;}
	.st2{clip-path:url(#SVGID_2_);fill:#003E7E;}
	.st3{clip-path:url(#SVGID_2_);fill-rule:evenodd;clip-rule:evenodd;fill:#FFFFFF;}
	.st4{fill:#EFC10B;}
	.st5{fill:#D7D1CA;}
	.st6{opacity:0.9;clip-path:url(#SVGID_4_);}
	.st7{clip-path:url(#SVGID_6_);fill:none;stroke:#EAEFF2;stroke-miterlimit:10;}
	.st8{clip-path:url(#SVGID_8_);fill-rule:evenodd;clip-rule:evenodd;fill:#74A333;}
	.st9{clip-path:url(#SVGID_8_);fill:none;stroke:#FFFFFF;stroke-linejoin:bevel;stroke-miterlimit:10;}
	.st10{clip-path:url(#SVGID_8_);fill-rule:evenodd;clip-rule:evenodd;fill:#BEB7B3;}
	.st11{clip-path:url(#SVGID_8_);fill-rule:evenodd;clip-rule:evenodd;fill:#DAD6D3;}
	.st12{clip-path:url(#SVGID_8_);fill-rule:evenodd;clip-rule:evenodd;fill:#E1E776;}
	.st13{clip-path:url(#SVGID_8_);fill:#BFD22B;}
	.st14{fill:#554742;}
	.st15{fill:#877B77;}
	.st16{fill:#BEB7B3;}
	.st17{fill:#F1EEE8;}
	.st18{fill:#F7F5F1;}
	.st19{fill:#E1E776;}
	.st20{fill:#D0DC70;}
	.st21{fill:#BFD22B;}
	.st22{fill:#74A333;}
	.st23{fill:#EAEFF2;}
	.st24{fill:#58B6E7;}
	.st25{fill:#3A84B6;}
	.st26{fill:#003E7E;}
	.st27{fill:#DAD6D3;}
	.st28{fill:none;stroke:#231F20;stroke-width:1.5;stroke-linecap:round;stroke-miterlimit:10;}
	.st29{fill:none;stroke:#231F20;stroke-width:1.5;stroke-miterlimit:10;}
</style>
<g>
	<path d="M26.3,28.8c0.4,0,0.6-0.3,0.6-0.6c0-0.3-0.3-0.6-0.6-0.6h0c-0.4,0-0.6,0.3-0.6,0.6C25.6,28.5,25.9,28.8,26.3,28.8"/>
	<path d="M17.7,11.9c0.4,0,0.6-0.3,0.6-0.6c0-0.4-0.3-0.6-0.6-0.6c-0.4,0-0.6,0.3-0.6,0.6C17.1,11.6,17.4,11.9,17.7,11.9"/>
	<path d="M22.9,28.1c0.1,0,0.2,0,0.2,0c0.3,0,0.5-0.2,0.6-0.4c0.1-0.3,0-0.7-0.4-0.8c0,0,0,0,0,0c-1.5-0.6-2.7-1.6-3.6-2.9
		c-0.9-1.3-1.4-2.9-1.4-4.5c0-0.4-0.3-0.6-0.6-0.6c-0.4,0-0.6,0.3-0.6,0.6c0,1.9,0.6,3.7,1.6,5.2C19.8,26.3,21.2,27.5,22.9,28.1"/>
	<path d="M17.7,17c0.4,0,0.6-0.3,0.6-0.6v-1.9c0-0.4-0.3-0.6-0.6-0.6c-0.4,0-0.6,0.3-0.6,0.6v1.9C17.1,16.8,17.4,17,17.7,17"/>
	<path d="M28.5,35c0,0-0.1,0-0.1,0c-0.3,0-0.6,0.2-0.6,0.5v0c0,0.2,0,0.3,0.1,0.5c0.1,0.1,0.2,0.3,0.4,0.3c0.1,0,0.1,0,0.2,0
		c0.3,0,0.5-0.2,0.6-0.5c0-0.2,0-0.3-0.1-0.5C28.8,35.1,28.7,35,28.5,35"/>
	<path d="M31.3,31.3c9.6,0,17.5-7.9,17.5-17.5c0-2.8-2.3-5.1-5.1-5.1c-0.5,0-1.1,0.1-1.6,0.3V8.2c0-0.4-0.3-0.6-0.6-0.6H15.2
		c-0.4,0-0.6,0.3-0.6,0.6V9c-0.5-0.2-1-0.3-1.6-0.3c-2.8,0-5.1,2.3-5.1,5.1c0,9.6,7.9,17.5,17.5,17.5h0.1v1.9c0,3.4-2.8,6.2-6.2,6.2
		c-0.4,0-0.6,0.3-0.6,0.6v8.4c0,0.4,0.3,0.6,0.6,0.6h18.2c0.4,0,0.6-0.3,0.6-0.6v-8.4c0-0.4-0.3-0.6-0.6-0.6c-3.4,0-6.2-2.8-6.2-6.2
		L31.3,31.3L31.3,31.3z M43.7,10c2.1,0,3.8,1.7,3.8,3.8c0,6.6-4,12.3-9.7,14.9c0.9-0.7,1.7-1.6,2.3-2.5c4-2.9,6.4-7.5,6.4-12.3
		c0-1.5-1.2-2.8-2.8-2.8c-0.6,0-1.1,0.2-1.6,0.5v-1.2C42.7,10.1,43.2,10,43.7,10 M42.2,19.6v-5.7c0-0.8,0.7-1.5,1.6-1.5
		c0.8,0,1.5,0.7,1.5,1.5c0,3.5-1.3,6.8-3.6,9.3C42,22,42.2,20.8,42.2,19.6 M15.8,8.9h25.1v5c0,0,0,0,0,0.1c0,0,0,0,0,0v5.6
		c0,5.8-4.7,10.5-10.5,10.5h-4.2c-5.8,0-10.5-4.7-10.5-10.5V8.9z M15.1,23.2c-2.3-2.5-3.6-5.9-3.6-9.4c0-0.8,0.7-1.5,1.5-1.5
		c0.9,0,1.6,0.7,1.6,1.6c0,0,0,0,0,0v5.7C14.5,20.8,14.7,22.1,15.1,23.2 M9.1,13.8c0-2.1,1.7-3.8,3.8-3.8c0.5,0,1.1,0.1,1.6,0.3v1.2
		c-0.5-0.3-1-0.5-1.6-0.5c-1.5,0-2.8,1.2-2.8,2.8c0,4.9,2.4,9.5,6.4,12.4c0.6,0.9,1.4,1.8,2.3,2.5C13.1,26.2,9.1,20.5,9.1,13.8
		 M19.9,40.7h16.9v7.1H19.9V40.7z M33.3,39.4h-6.2c0.3-0.4,0.6-0.8,0.8-1.2c0.1-0.1,0.1-0.3,0.1-0.5c0-0.2-0.2-0.3-0.3-0.4
		c-0.1-0.1-0.2-0.1-0.3-0.1c-0.2,0-0.4,0.1-0.6,0.3c-0.4,0.7-0.9,1.3-1.4,1.8h-2c2-1.3,3.3-3.6,3.3-6.2v-1.9H30v1.9
		C30,35.8,31.3,38.1,33.3,39.4"/>
</g>
</svg>
