<?xml version="1.0" encoding="utf-8"?>
<!-- Generator: Adobe Illustrator 19.1.0, SVG Export Plug-In . SVG Version: 6.00 Build 0)  -->
<svg version="1.1" id="Layer_1" xmlns="http://www.w3.org/2000/svg" xmlns:xlink="http://www.w3.org/1999/xlink" x="0px" y="0px"
	 viewBox="0 0 56.7 56.7" style="enable-background:new 0 0 56.7 56.7;" xml:space="preserve">
<style type="text/css">
	.st0{fill:#231F20;}
	.st1{clip-path:url(#SVGID_2_);fill:#FFFFFF;}
	.st2{clip-path:url(#SVGID_2_);fill:#003E7E;}
	.st3{clip-path:url(#SVGID_2_);fill-rule:evenodd;clip-rule:evenodd;fill:#FFFFFF;}
	.st4{fill:#EFC10B;}
	.st5{fill:#D7D1CA;}
	.st6{opacity:0.9;clip-path:url(#SVGID_4_);}
	.st7{clip-path:url(#SVGID_6_);fill:none;stroke:#EAEFF2;stroke-miterlimit:10;}
	.st8{clip-path:url(#SVGID_8_);fill-rule:evenodd;clip-rule:evenodd;fill:#74A333;}
	.st9{clip-path:url(#SVGID_8_);fill:none;stroke:#FFFFFF;stroke-linejoin:bevel;stroke-miterlimit:10;}
	.st10{clip-path:url(#SVGID_8_);fill-rule:evenodd;clip-rule:evenodd;fill:#BEB7B3;}
	.st11{clip-path:url(#SVGID_8_);fill-rule:evenodd;clip-rule:evenodd;fill:#DAD6D3;}
	.st12{clip-path:url(#SVGID_8_);fill-rule:evenodd;clip-rule:evenodd;fill:#E1E776;}
	.st13{clip-path:url(#SVGID_8_);fill:#BFD22B;}
	.st14{fill:#554742;}
	.st15{fill:#877B77;}
	.st16{fill:#BEB7B3;}
	.st17{fill:#F1EEE8;}
	.st18{fill:#F7F5F1;}
	.st19{fill:#E1E776;}
	.st20{fill:#D0DC70;}
	.st21{fill:#BFD22B;}
	.st22{fill:#74A333;}
	.st23{fill:#EAEFF2;}
	.st24{fill:#58B6E7;}
	.st25{fill:#3A84B6;}
	.st26{fill:#003E7E;}
	.st27{fill:#DAD6D3;}
	.st28{fill:none;stroke:#231F20;stroke-width:1.5;stroke-linecap:round;stroke-miterlimit:10;}
	.st29{fill:none;stroke:#231F20;stroke-width:1.5;stroke-miterlimit:10;}
</style>
<g>
	<path d="M50.3,39c0-0.2-0.1-0.4-0.3-0.5l-4.9-4.9V17c0-1.4-1.1-2.5-2.5-2.5h-1.5c0,0,0,0,0,0H18.4c-1.4,0-2.5,1.1-2.5,2.5v16.6
		L11,38.5c0,0,0,0,0,0c-0.1,0.1-0.1,0.1-0.1,0.2c0,0,0,0,0,0.1c0,0.1,0,0.1,0,0.2c0,0,0,0,0,0v0.9c0,1.3,1,2.3,2.3,2.3h34.8
		c1.3,0,2.3-1,2.3-2.3L50.3,39C50.2,39,50.3,39,50.3,39 M38.3,22.1c-0.3-0.3-0.7-0.3-0.9,0L26.3,33.2h-9.1V19.7h18.6l-8.9,8.9
		c-0.3,0.3-0.3,0.7,0,0.9c0.1,0.1,0.3,0.2,0.5,0.2c0.2,0,0.3-0.1,0.5-0.2l9.8-9.8h6.3v13.5H28.1L38.3,23
		C38.6,22.8,38.6,22.4,38.3,22.1 M43.8,17v1.4h-5l2.6-2.6h1.2C43.3,15.8,43.8,16.3,43.8,17 M18.4,15.8h21.2L37,18.4H17.2V17
		C17.2,16.3,17.7,15.8,18.4,15.8 M16.8,34.5h27.4l3.8,3.8H13L16.8,34.5z M47.9,40.9H13.1c-0.6,0-1-0.5-1-1v-0.3H49v0.3
		C49,40.4,48.5,40.9,47.9,40.9"/>
	<path d="M20.3,35.8h-1.9c-0.4,0-0.6,0.3-0.6,0.6c0,0.4,0.3,0.6,0.6,0.6h1.9c0.4,0,0.6-0.3,0.6-0.6C20.9,36,20.6,35.8,20.3,35.8"/>
	<path d="M24.7,35.8h-1.9c-0.4,0-0.6,0.3-0.6,0.6c0,0.4,0.3,0.6,0.6,0.6h1.9c0.4,0,0.6-0.3,0.6-0.6C25.4,36,25.1,35.8,24.7,35.8"/>
	<path d="M33.7,35.8h-1.9c-0.4,0-0.6,0.3-0.6,0.6c0,0.4,0.3,0.6,0.6,0.6h1.9c0.4,0,0.6-0.3,0.6-0.6C34.4,36,34.1,35.8,33.7,35.8"/>
	<path d="M38.2,35.8h-1.9c-0.4,0-0.6,0.3-0.6,0.6c0,0.4,0.3,0.6,0.6,0.6h1.9c0.4,0,0.6-0.3,0.6-0.6C38.9,36,38.6,35.8,38.2,35.8"/>
	<path d="M29.2,35.8h-1.9c-0.4,0-0.6,0.3-0.6,0.6c0,0.4,0.3,0.6,0.6,0.6h1.9c0.4,0,0.6-0.3,0.6-0.6C29.9,36,29.6,35.8,29.2,35.8"/>
	<path d="M42.7,35.8h-1.9c-0.4,0-0.6,0.3-0.6,0.6c0,0.4,0.3,0.6,0.6,0.6h1.9c0.4,0,0.6-0.3,0.6-0.6C43.3,36,43.1,35.8,42.7,35.8"/>
	<path d="M25.7,30c-0.4,0-0.7,0.3-0.7,0.7c0,0.4,0.3,0.7,0.7,0.7c0.4,0,0.7-0.3,0.7-0.7C26.3,30.3,26,30,25.7,30"/>
	<path d="M30.5,17.8c0.4,0,0.7-0.3,0.7-0.7c0-0.4-0.3-0.7-0.7-0.7c-0.4,0-0.7,0.3-0.7,0.7C29.8,17.5,30.1,17.8,30.5,17.8"/>
</g>
</svg>
