<?xml version="1.0" encoding="utf-8"?>
<!-- Generator: Adobe Illustrator 19.1.0, SVG Export Plug-In . SVG Version: 6.00 Build 0)  -->
<svg version="1.1" id="Layer_1" xmlns="http://www.w3.org/2000/svg" xmlns:xlink="http://www.w3.org/1999/xlink" x="0px" y="0px"
	 viewBox="0 0 56.7 56.7" style="enable-background:new 0 0 56.7 56.7;" xml:space="preserve">
<style type="text/css">
	.st0{fill:#231F20;}
	.st1{clip-path:url(#SVGID_2_);fill:#FFFFFF;}
	.st2{clip-path:url(#SVGID_2_);fill:#003E7E;}
	.st3{clip-path:url(#SVGID_2_);fill-rule:evenodd;clip-rule:evenodd;fill:#FFFFFF;}
	.st4{fill:#EFC10B;}
	.st5{fill:#D7D1CA;}
	.st6{opacity:0.9;clip-path:url(#SVGID_4_);}
	.st7{clip-path:url(#SVGID_6_);fill:none;stroke:#EAEFF2;stroke-miterlimit:10;}
	.st8{clip-path:url(#SVGID_8_);fill-rule:evenodd;clip-rule:evenodd;fill:#74A333;}
	.st9{clip-path:url(#SVGID_8_);fill:none;stroke:#FFFFFF;stroke-linejoin:bevel;stroke-miterlimit:10;}
	.st10{clip-path:url(#SVGID_8_);fill-rule:evenodd;clip-rule:evenodd;fill:#BEB7B3;}
	.st11{clip-path:url(#SVGID_8_);fill-rule:evenodd;clip-rule:evenodd;fill:#DAD6D3;}
	.st12{clip-path:url(#SVGID_8_);fill-rule:evenodd;clip-rule:evenodd;fill:#E1E776;}
	.st13{clip-path:url(#SVGID_8_);fill:#BFD22B;}
	.st14{fill:#554742;}
	.st15{fill:#877B77;}
	.st16{fill:#BEB7B3;}
	.st17{fill:#F1EEE8;}
	.st18{fill:#F7F5F1;}
	.st19{fill:#E1E776;}
	.st20{fill:#D0DC70;}
	.st21{fill:#BFD22B;}
	.st22{fill:#74A333;}
	.st23{fill:#EAEFF2;}
	.st24{fill:#58B6E7;}
	.st25{fill:#3A84B6;}
	.st26{fill:#003E7E;}
	.st27{fill:#DAD6D3;}
	.st28{fill:none;stroke:#231F20;stroke-width:1.5;stroke-linecap:round;stroke-miterlimit:10;}
	.st29{fill:none;stroke:#231F20;stroke-width:1.5;stroke-miterlimit:10;}
</style>
<g>
	<path class="st0" d="M31.8,43.8H16.7V28.3h0.7c0.4,0,0.7,0.3,0.7,0.7c0,1.1,0.9,2.1,2.1,2.1c1.1,0,2.1-0.9,2.1-2.1
		c0-0.4,0.3-0.7,0.7-0.7c0.4,0,0.7,0.3,0.7,0.7v3.3c0,1.1,0.9,2.1,2.1,2.1c1.1,0,2.1-0.9,2.1-2.1V29c0-0.4,0.3-0.7,0.7-0.7
		c0.4,0,0.7,0.3,0.7,0.7v0.3c0,1.1,0.9,2.1,2.1,2.1c0.2,0,0.4,0,0.6-0.1v3.8c0,3.4-2.8,6.2-6.2,6.2c-3.4,0-6.2-2.8-6.2-6.2v-0.9
		c0.3-0.2,0.6-0.6,0.6-1.1c0-0.7-0.6-1.3-1.3-1.3c-0.7,0-1.3,0.6-1.3,1.3c0,0.4,0.2,0.8,0.6,1.1v0.9c0,4.2,3.4,7.6,7.6,7.6
		c2.6,0,4.8-1.3,6.2-3.2V43.8z M31.8,25.6v3.9c0,0,0,0,0,0.1c-0.1,0.2-0.3,0.4-0.6,0.4c-0.4,0-0.7-0.3-0.7-0.7V29
		c0-1.1-0.9-2.1-2.1-2.1c-1.1,0-2.1,0.9-2.1,2.1v3.3c0,0.4-0.3,0.7-0.7,0.7c-0.4,0-0.7-0.3-0.7-0.7V29c0-1.1-0.9-2.1-2.1-2.1
		c-1.1,0-2.1,0.9-2.1,2.1c0,0.4-0.3,0.7-0.7,0.7c-0.4,0-0.7-0.3-0.7-0.7c0-1.1-0.9-2.1-2.1-2.1h-0.7v-1.4H31.8z M32.5,24.2H16
		c-0.4,0-0.7,0.3-0.7,0.7v19.6c0,0.4,0.3,0.7,0.7,0.7h16.5c0.4,0,0.7-0.3,0.7-0.7V24.9C33.2,24.5,32.9,24.2,32.5,24.2"/>
	<path class="st0" d="M44.4,42.8c0,0.6-0.4,1-1,1H37c-0.6,0-1-0.5-1-1v-8.2c0-1.8,1.5-3.2,3.2-3.2h1.9c1.8,0,3.2,1.5,3.2,3.2V42.8z
		 M39.1,28.6h2.2V30c0,0-0.1,0-0.1,0h-1.9c-0.1,0-0.1,0-0.1,0V28.6z M42.6,30.3v-2.3c0-0.4-0.3-0.7-0.7-0.7h-1.1V26
		c0-0.9-0.7-1.6-1.6-1.6h-0.4c-0.4,0-0.9,0.1-1.2,0.3l-1,0.5c-0.3,0.2-0.5,0.6-0.3,0.9c0.2,0.3,0.6,0.5,0.9,0.3l1-0.5
		c0.2-0.1,0.4-0.2,0.6-0.2h0.4c0.1,0,0.2,0.1,0.2,0.2v1.2h-1.1c-0.4,0-0.7,0.3-0.7,0.7v2.3c-1.8,0.6-3.1,2.3-3.1,4.3v8.2
		c0,1.3,1.1,2.4,2.4,2.4h6.4c1.3,0,2.4-1.1,2.4-2.4v-8.2C45.7,32.6,44.4,30.9,42.6,30.3"/>
	<path class="st0" d="M40.2,38.7c-0.6,0-1.1-0.5-1.1-1.1c0-0.6,0.5-1.1,1.1-1.1c0.6,0,1.1,0.5,1.1,1.1
		C41.2,38.2,40.7,38.7,40.2,38.7 M40.2,35.2c-1.3,0-2.4,1.1-2.4,2.4c0,1.3,1.1,2.4,2.4,2.4c1.3,0,2.4-1.1,2.4-2.4
		C42.6,36.3,41.5,35.2,40.2,35.2"/>
	<path class="st0" d="M44.4,18.9H43v-3.5h1.4V18.9z M39.8,18.3c-0.2,0-0.4,0.1-0.6,0.3l-0.9,1.2c-0.8,1-2,1.7-3.3,1.7h-1v-8.6h1
		c1.3,0,2.5,0.6,3.3,1.7l0.9,1.2c0.1,0.2,0.3,0.3,0.6,0.3h1.8v2.2H39.8z M16.7,20.7v-7c0-0.4,0.4-0.8,0.8-0.8H19v8.6h-1.5
		C17,21.5,16.7,21.1,16.7,20.7 M32.7,21.5H20.4v-8.6h12.3V21.5z M45,14h-2.8c-0.4,0-0.6,0.3-0.7,0.6h-1.4l-0.7-1
		c-1-1.4-2.7-2.2-4.4-2.2H17.5c-1.2,0-2.2,1-2.2,2.2v7c0,1.2,1,2.2,2.2,2.2H35c1.7,0,3.4-0.8,4.4-2.2l0.7-1h1.4
		c0,0.4,0.3,0.6,0.7,0.6H45c0.4,0,0.7-0.3,0.7-0.7v-4.9C45.7,14.3,45.4,14,45,14"/>
</g>
</svg>
