<?xml version="1.0" encoding="utf-8"?>
<!-- Generator: Adobe Illustrator 19.1.0, SVG Export Plug-In . SVG Version: 6.00 Build 0)  -->
<svg version="1.1" id="Layer_1" xmlns="http://www.w3.org/2000/svg" xmlns:xlink="http://www.w3.org/1999/xlink" x="0px" y="0px"
	 viewBox="0 0 56.7 56.7" style="enable-background:new 0 0 56.7 56.7;" xml:space="preserve">
<style type="text/css">
	.st0{fill:#231F20;}
	.st1{clip-path:url(#SVGID_2_);fill:#FFFFFF;}
	.st2{clip-path:url(#SVGID_2_);fill:#003E7E;}
	.st3{clip-path:url(#SVGID_2_);fill-rule:evenodd;clip-rule:evenodd;fill:#FFFFFF;}
	.st4{fill:#EFC10B;}
	.st5{fill:#D7D1CA;}
	.st6{opacity:0.9;clip-path:url(#SVGID_4_);}
	.st7{clip-path:url(#SVGID_6_);fill:none;stroke:#EAEFF2;stroke-miterlimit:10;}
	.st8{clip-path:url(#SVGID_8_);fill-rule:evenodd;clip-rule:evenodd;fill:#74A333;}
	.st9{clip-path:url(#SVGID_8_);fill:none;stroke:#FFFFFF;stroke-linejoin:bevel;stroke-miterlimit:10;}
	.st10{clip-path:url(#SVGID_8_);fill-rule:evenodd;clip-rule:evenodd;fill:#BEB7B3;}
	.st11{clip-path:url(#SVGID_8_);fill-rule:evenodd;clip-rule:evenodd;fill:#DAD6D3;}
	.st12{clip-path:url(#SVGID_8_);fill-rule:evenodd;clip-rule:evenodd;fill:#E1E776;}
	.st13{clip-path:url(#SVGID_8_);fill:#BFD22B;}
	.st14{fill:#554742;}
	.st15{fill:#877B77;}
	.st16{fill:#BEB7B3;}
	.st17{fill:#F1EEE8;}
	.st18{fill:#F7F5F1;}
	.st19{fill:#E1E776;}
	.st20{fill:#D0DC70;}
	.st21{fill:#BFD22B;}
	.st22{fill:#74A333;}
	.st23{fill:#EAEFF2;}
	.st24{fill:#58B6E7;}
	.st25{fill:#3A84B6;}
	.st26{fill:#003E7E;}
	.st27{fill:#DAD6D3;}
	.st28{fill:none;stroke:#231F20;stroke-width:1.5;stroke-linecap:round;stroke-miterlimit:10;}
	.st29{fill:none;stroke:#231F20;stroke-width:1.5;stroke-miterlimit:10;}
</style>
<g>
	<path class="st0" d="M31.4,42.1l-1.6,1.8c-0.1,0.1-0.3,0.2-0.4,0.2h-9.2c-0.2,0-0.3-0.1-0.4-0.2l-1.6-1.8c-0.8-0.9-0.8-2.4,0-3.3
		l4.2-4.8c0.6-0.7,1-1.7,1-2.7v-4.5h2.9v4.5c0,1,0.4,2,1,2.7l4.2,4.8C32.2,39.7,32.2,41.2,31.4,42.1 M28.2,33.2
		c-0.4-0.5-0.7-1.2-0.7-1.9v-4.5h0.4c0.4,0,0.6-0.3,0.6-0.6c0-0.4-0.3-0.6-0.6-0.6h-1h-4.2h-1c-0.4,0-0.6,0.3-0.6,0.6
		c0,0.4,0.3,0.6,0.6,0.6h0.4v4.5c0,0.7-0.2,1.4-0.7,1.9L17.2,38c-1.2,1.4-1.2,3.6,0,5l1.6,1.8c0.4,0.4,0.9,0.7,1.4,0.7h9.2
		c0.5,0,1-0.2,1.4-0.7l1.6-1.8c1.2-1.4,1.2-3.6,0-5L28.2,33.2z"/>
	<path class="st0" d="M23,35.3l-2,2.3c-0.2,0.3-0.2,0.7,0.1,0.9c0.1,0.1,0.3,0.2,0.4,0.2c0.2,0,0.4-0.1,0.5-0.2l2-2.3
		c0.2-0.3,0.2-0.7-0.1-0.9C23.6,35,23.2,35,23,35.3"/>
	<path class="st0" d="M19.8,39.1L19.8,39.1c-0.4,0-0.6,0.3-0.6,0.6c0,0.4,0.3,0.6,0.6,0.6c0.4,0,0.6-0.3,0.6-0.6
		C20.5,39.4,20.2,39.1,19.8,39.1"/>
	<path class="st0" d="M24.7,18.8c0.6,0,1.1,0.5,1.1,1.1c0,0.6-0.5,1.1-1.1,1.1c-0.6,0-1.1-0.5-1.1-1.1
		C23.7,19.2,24.2,18.8,24.7,18.8 M22.4,19.8c0,1.3,1,2.3,2.3,2.3c1.3,0,2.3-1,2.3-2.3c0-1.3-1-2.3-2.3-2.3
		C23.4,17.5,22.4,18.5,22.4,19.8"/>
	<path class="st0" d="M17,19.4c0.8,0.7,1.8,1,2.9,1c0.2,0,0.3,0,0.5,0c0.4,0,0.6-0.4,0.6-0.7c0-0.4-0.4-0.6-0.7-0.6
		c-0.9,0.1-1.7-0.2-2.4-0.7c-0.7-0.6-1.1-1.3-1.2-2.2c-0.1-0.9,0.2-1.7,0.7-2.4c0.6-0.7,1.3-1.1,2.2-1.2c0.9-0.1,1.7,0.2,2.4,0.7
		c0.7,0.6,1.1,1.3,1.2,2.2c0,0.4,0.4,0.6,0.7,0.6c0.4,0,0.6-0.4,0.6-0.7c-0.1-1.2-0.7-2.3-1.7-3.1c-1-0.8-2.2-1.1-3.4-1
		C18.1,11.4,17,12,16.2,13c-0.8,1-1.1,2.2-1,3.4C15.4,17.6,16,18.7,17,19.4"/>
	<path class="st0" d="M31.6,17.2l-1,1c-0.3,0.3-0.3,0.7,0,0.9c0.1,0.1,0.3,0.2,0.5,0.2c0.2,0,0.3-0.1,0.5-0.2l1-1
		c0.3-0.3,0.3-0.7,0-0.9C32.3,17,31.9,17,31.6,17.2"/>
	<path class="st0" d="M35.8,14.6c0.2,0,0.3-0.1,0.5-0.2l1-1c0.3-0.3,0.3-0.7,0-0.9c-0.2-0.2-0.7-0.3-0.9,0l-1,1
		c-0.3,0.2-0.3,0.7,0,0.9C35.5,14.5,35.7,14.6,35.8,14.6"/>
	<path class="st0" d="M31.6,14.4c0.1,0.1,0.3,0.2,0.5,0.2c0.2,0,0.3-0.1,0.5-0.2c0.3-0.2,0.3-0.7,0-0.9l-1-1c-0.3-0.2-0.7-0.3-0.9,0
		c-0.3,0.2-0.3,0.7,0,0.9L31.6,14.4z"/>
	<path class="st0" d="M36.3,19.1c0.1,0.1,0.3,0.2,0.5,0.2c0.2,0,0.3-0.1,0.5-0.2c0.2-0.3,0.2-0.7,0-0.9l-1-1c-0.3-0.3-0.7-0.3-0.9,0
		c-0.3,0.3-0.3,0.7,0,0.9L36.3,19.1z"/>
	<path class="st0" d="M30.7,16.4c0.2,0,0.3-0.1,0.5-0.2c0.1-0.1,0.2-0.3,0.2-0.5c0-0.2-0.1-0.3-0.2-0.5c-0.2-0.2-0.7-0.2-0.9,0
		c-0.1,0.1-0.2,0.3-0.2,0.5c0,0.2,0.1,0.3,0.2,0.5C30.4,16.4,30.6,16.4,30.7,16.4"/>
	<path class="st0" d="M36.7,15.3c-0.1,0.1-0.2,0.3-0.2,0.5c0,0.2,0.1,0.3,0.2,0.5c0.1,0.1,0.3,0.2,0.5,0.2c0.2,0,0.3-0.1,0.5-0.2
		c0.1-0.1,0.2-0.3,0.2-0.5c0-0.2-0.1-0.3-0.2-0.5C37.4,15.1,37,15.1,36.7,15.3"/>
	<path class="st0" d="M34,13.2c0.2,0,0.3-0.1,0.5-0.2c0.1-0.1,0.2-0.3,0.2-0.5c0-0.2-0.1-0.3-0.2-0.5c-0.2-0.2-0.7-0.2-0.9,0
		c-0.1,0.1-0.2,0.3-0.2,0.5c0,0.2,0.1,0.3,0.2,0.5C33.6,13.1,33.8,13.2,34,13.2"/>
	<path class="st0" d="M34.6,19c0-0.2-0.1-0.3-0.2-0.5c-0.2-0.2-0.7-0.2-0.9,0c-0.1,0.1-0.2,0.3-0.2,0.5c0,0.2,0.1,0.3,0.2,0.5
		c0.1,0.1,0.3,0.2,0.5,0.2c0.2,0,0.3-0.1,0.5-0.2C34.5,19.4,34.6,19.2,34.6,19"/>
	<path class="st0" d="M39.1,42.9c0,0.7-0.6,1.3-1.3,1.3c-0.7,0-1.3-0.6-1.3-1.3V26.8h2.6V42.9z M40.8,25.5h-1.1h-3.8h-1.1
		c-0.4,0-0.6,0.3-0.6,0.6c0,0.4,0.3,0.6,0.6,0.6h0.4v16.1c0,1.4,1.1,2.6,2.6,2.6c1.4,0,2.6-1.2,2.6-2.6V26.8h0.4
		c0.4,0,0.6-0.3,0.6-0.6C41.5,25.8,41.2,25.5,40.8,25.5"/>
</g>
</svg>
