<?xml version="1.0" encoding="utf-8"?>
<!-- Generator: Adobe Illustrator 19.1.0, SVG Export Plug-In . SVG Version: 6.00 Build 0)  -->
<svg version="1.1" id="Layer_1" xmlns="http://www.w3.org/2000/svg" xmlns:xlink="http://www.w3.org/1999/xlink" x="0px" y="0px"
	 viewBox="0 0 56.7 56.7" style="enable-background:new 0 0 56.7 56.7;" xml:space="preserve">
<style type="text/css">
	.st0{fill:#231F20;}
	.st1{clip-path:url(#SVGID_2_);fill:#FFFFFF;}
	.st2{clip-path:url(#SVGID_2_);fill:#003E7E;}
	.st3{clip-path:url(#SVGID_2_);fill-rule:evenodd;clip-rule:evenodd;fill:#FFFFFF;}
	.st4{fill:#EFC10B;}
	.st5{fill:#D7D1CA;}
	.st6{opacity:0.9;clip-path:url(#SVGID_4_);}
	.st7{clip-path:url(#SVGID_6_);fill:none;stroke:#EAEFF2;stroke-miterlimit:10;}
	.st8{clip-path:url(#SVGID_8_);fill-rule:evenodd;clip-rule:evenodd;fill:#74A333;}
	.st9{clip-path:url(#SVGID_8_);fill:none;stroke:#FFFFFF;stroke-linejoin:bevel;stroke-miterlimit:10;}
	.st10{clip-path:url(#SVGID_8_);fill-rule:evenodd;clip-rule:evenodd;fill:#BEB7B3;}
	.st11{clip-path:url(#SVGID_8_);fill-rule:evenodd;clip-rule:evenodd;fill:#DAD6D3;}
	.st12{clip-path:url(#SVGID_8_);fill-rule:evenodd;clip-rule:evenodd;fill:#E1E776;}
	.st13{clip-path:url(#SVGID_8_);fill:#BFD22B;}
	.st14{fill:#554742;}
	.st15{fill:#877B77;}
	.st16{fill:#BEB7B3;}
	.st17{fill:#F1EEE8;}
	.st18{fill:#F7F5F1;}
	.st19{fill:#E1E776;}
	.st20{fill:#D0DC70;}
	.st21{fill:#BFD22B;}
	.st22{fill:#74A333;}
	.st23{fill:#EAEFF2;}
	.st24{fill:#58B6E7;}
	.st25{fill:#3A84B6;}
	.st26{fill:#003E7E;}
	.st27{fill:#DAD6D3;}
	.st28{fill:none;stroke:#231F20;stroke-width:1.5;stroke-linecap:round;stroke-miterlimit:10;}
	.st29{fill:none;stroke:#231F20;stroke-width:1.5;stroke-miterlimit:10;}
</style>
<g>
	<path class="st0" d="M40.9,25.2c1.2-2.7,0.9-5.3-0.7-7.1c-1.5-1.7-4-2.3-6.3-1.7c-2.2-4-5.8-4.2-6.6-4.2c-0.7,0-4.3,0.2-6.5,4.2
		c-2.3-0.6-4.7,0.1-6.3,1.7c-1.6,1.8-1.9,4.4-0.7,7.1c-2.8,4.1-2.4,8.4,1.3,11.5c2,1.8,5,2.9,7.6,2.9c1.4,0,2.8-0.4,3.8-1.1v5.3
		c0,0.4,0.3,0.8,0.8,0.8s0.8-0.3,0.8-0.8v-5.3c3.1,2.2,8.4,0.9,11.5-1.8C43.3,33.5,43.7,29.3,40.9,25.2z M24.2,33.4
		c-1.9-1.7-2.9-4-3.4-5.5c1.2,0.7,3,2,4,3.8l1.5,2.7l-0.1-3.1c-0.1-2.7,0.6-5.4,1.2-7c0.6,1.6,1.3,4.3,1.2,7l-0.1,3.1l1.5-2.7
		c1-1.8,2.7-3.1,4-3.8c-0.5,1.5-1.5,3.8-3.4,5.5l-1.7,1.5l2.2-0.1c1.4-0.1,2.9-0.5,4.1-0.9c-1.1,1.2-3.4,2.7-7.9,2.7
		c-4.5,0-6.8-1.5-7.9-2.7c1.2,0.4,2.8,0.8,4.2,0.9l2.2,0.1L24.2,33.4z M38.7,35.5c-2.5,2.2-6.1,3.1-8.5,2.3c6.3-0.9,7.5-5,7.5-5.2
		l0.4-1.5l-1.4,0.6c0,0-1.7,0.7-3.6,1.1c2.2-2.9,2.7-6.1,2.8-6.3l0.2-1.3l-1.2,0.5c-0.1,0.1-2.8,1.2-4.8,3.4c-0.4-3.9-1.9-7-2-7.2
		l-0.7-1.4L26.7,22c-0.1,0.2-1.6,3.3-2,7.2c-2-2.2-4.6-3.3-4.8-3.4l-1.2-0.5l0.2,1.3c0,0.2,0.5,3.4,2.8,6.3
		c-1.9-0.4-3.6-1.1-3.6-1.1l-1.4-0.6l0.4,1.5c0.1,0.2,1.2,4.2,7.5,5.2c-2.4,0.8-6-0.1-8.5-2.3c-1.5-1.3-4.5-4.8-0.8-9.8l0.3-0.4
		l-0.2-0.4c-1.1-2.3-1-4.4,0.3-5.8c0.9-0.9,2.1-1.5,3.4-1.5c0.6,0,1.2,0.1,1.8,0.3l0.6,0.2l0.3-0.6c1.7-3.7,4.8-3.9,5.5-3.9
		c0.6,0,3.7,0.2,5.4,3.9l0.3,0.6l0.6-0.2c1.9-0.7,4-0.3,5.3,1.1c1.3,1.4,1.4,3.5,0.3,5.8l-0.2,0.4l0.3,0.4
		C43.2,30.7,40.1,34.3,38.7,35.5z"/>
</g>
</svg>
