<?xml version="1.0" encoding="utf-8"?>
<!-- Generator: Adobe Illustrator 19.1.0, SVG Export Plug-In . SVG Version: 6.00 Build 0)  -->
<svg version="1.1" id="Layer_1" xmlns="http://www.w3.org/2000/svg" xmlns:xlink="http://www.w3.org/1999/xlink" x="0px" y="0px"
	 viewBox="0 0 56.7 56.7" style="enable-background:new 0 0 56.7 56.7;" xml:space="preserve">
<style type="text/css">
	.st0{fill:#231F20;}
	.st1{clip-path:url(#SVGID_2_);fill:#FFFFFF;}
	.st2{clip-path:url(#SVGID_2_);fill:#003E7E;}
	.st3{clip-path:url(#SVGID_2_);fill-rule:evenodd;clip-rule:evenodd;fill:#FFFFFF;}
	.st4{fill:#EFC10B;}
	.st5{fill:#D7D1CA;}
	.st6{opacity:0.9;clip-path:url(#SVGID_4_);}
	.st7{clip-path:url(#SVGID_6_);fill:none;stroke:#EAEFF2;stroke-miterlimit:10;}
	.st8{clip-path:url(#SVGID_8_);fill-rule:evenodd;clip-rule:evenodd;fill:#74A333;}
	.st9{clip-path:url(#SVGID_8_);fill:none;stroke:#FFFFFF;stroke-linejoin:bevel;stroke-miterlimit:10;}
	.st10{clip-path:url(#SVGID_8_);fill-rule:evenodd;clip-rule:evenodd;fill:#BEB7B3;}
	.st11{clip-path:url(#SVGID_8_);fill-rule:evenodd;clip-rule:evenodd;fill:#DAD6D3;}
	.st12{clip-path:url(#SVGID_8_);fill-rule:evenodd;clip-rule:evenodd;fill:#E1E776;}
	.st13{clip-path:url(#SVGID_8_);fill:#BFD22B;}
	.st14{fill:#554742;}
	.st15{fill:#877B77;}
	.st16{fill:#BEB7B3;}
	.st17{fill:#F1EEE8;}
	.st18{fill:#F7F5F1;}
	.st19{fill:#E1E776;}
	.st20{fill:#D0DC70;}
	.st21{fill:#BFD22B;}
	.st22{fill:#74A333;}
	.st23{fill:#EAEFF2;}
	.st24{fill:#58B6E7;}
	.st25{fill:#3A84B6;}
	.st26{fill:#003E7E;}
	.st27{fill:#DAD6D3;}
	.st28{fill:none;stroke:#231F20;stroke-width:1.5;stroke-linecap:round;stroke-miterlimit:10;}
	.st29{fill:none;stroke:#231F20;stroke-width:1.5;stroke-miterlimit:10;}
</style>
<path class="st0" d="M37.7,41.8h3.6v6.5h-3.6V41.8z M15.3,41.8H19v6.5h-3.7V41.8z M15.3,39.2H19v1.3h-3.7V39.2z M20.8,29.1h0.8V32
	v0.3v12.4v1.7c0,0.4,0.3,0.6,0.6,0.6s0.6-0.3,0.6-0.6v-1.1h1.3v1.1c0,0.4,0.3,0.6,0.6,0.6s0.6-0.3,0.6-0.6v-1.1h1.3v1.1
	c0,0.4,0.3,0.6,0.6,0.6c0.4,0,0.6-0.3,0.6-0.6v-1.7V39c0.1,0,0.2,0,0.3,0c3.7,0,6.8-3,6.8-6.8v-3.2h0.8c3,0,5.5,2.4,5.5,5.5v3.3
	h-3.6v-1.7l1.4-1.4c0.3-0.3,0.3-0.7,0-0.9c-0.3-0.3-0.7-0.3-0.9,0l-1.6,1.6c-0.1,0.1-0.1,0.1-0.1,0.2c0,0.1-0.1,0.2-0.1,0.2v12.4
	H20.3V35.9c0-0.1,0-0.2-0.1-0.2c0-0.1-0.1-0.2-0.1-0.2l-1.6-1.6c-0.3-0.3-0.7-0.3-0.9,0c-0.3,0.3-0.3,0.7,0,0.9l1.4,1.4v1.7h-3.7
	v-3.3C15.3,31.6,17.8,29.1,20.8,29.1 M24.2,26.7v1.8c0,2.3,1.9,4.2,4.2,4.2c1.1,0,2.1-0.4,2.9-1.2v1.6c-0.9,0.5-1.8,0.8-2.9,0.8
	c-3,0-5.5-2.5-5.5-5.5C22.9,27.6,23.5,26.9,24.2,26.7 M23.5,21.3c0.6,0.4,1.3,0.7,2,0.7c1.1,0,2.1-0.6,2.8-1.4
	C29,21.4,30,22,31.1,22c0.8,0,1.5-0.3,2-0.7c-0.4,2.3-2.4,4.1-4.8,4.1C25.9,25.3,23.9,23.6,23.5,21.3 M20.9,18.5
	c0-0.8,0.5-1.6,1.3-1.8v0.5v3.1C21.4,20.1,20.9,19.4,20.9,18.5 M28.4,8.4c4.1,0,7.5,3.4,7.5,7.5v0.1c-0.4-0.3-0.8-0.5-1.3-0.6
	c-0.2-2.5-1.9-4.7-4.4-5.4c0,0,0,0,0,0c0,0,0,0,0,0h0c0,0,0,0,0,0c0,0,0,0,0,0c-0.6-0.2-1.2-0.3-1.7-0.3c-3.2,0-5.9,2.5-6.1,5.7
	c-0.5,0.1-0.9,0.3-1.3,0.6v-0.1C20.9,11.7,24.2,8.4,28.4,8.4 M34.5,20.3v-3.6c0.8,0.3,1.3,1,1.3,1.8C35.8,19.4,35.3,20.1,34.5,20.3
	 M29.7,17.9h2.9c0.4,0,0.7,0.3,0.7,0.7c0,1.2-0.9,2.1-2.1,2.1c-1.2,0-2.1-0.9-2.1-2.1C29,18.2,29.3,17.9,29.7,17.9 M27.2,16.6
	C27.2,16.6,27.3,16.6,27.2,16.6c0.1-0.1,0.2-0.1,0.3-0.2c0.2-0.1,0.4-0.3,0.6-0.5c0,0,0.1-0.1,0.1-0.1c0.2-0.2,0.4-0.4,0.6-0.7
	c0-0.1,0.1-0.1,0.1-0.2c0.2-0.2,0.3-0.4,0.4-0.6c0-0.1,0.1-0.1,0.1-0.2c0.2-0.3,0.3-0.5,0.4-0.8c0,0,0,0,0,0c0,0,0,0,0,0.1
	c0,0,0,0.1,0.1,0.1c0.1,0.2,0.3,0.5,0.5,0.7c0,0,0,0,0,0c0.2,0.2,0.4,0.4,0.6,0.7c0,0,0.1,0.1,0.1,0.1c0.2,0.2,0.4,0.4,0.6,0.5
	c0,0,0.1,0.1,0.1,0.1c0.2,0.2,0.5,0.3,0.8,0.4c0,0,0.1,0,0.1,0c0.1,0.1,0.3,0.1,0.4,0.2v0.3c-0.2-0.1-0.4-0.1-0.7-0.1h-2.9
	c-0.5,0-1,0.2-1.3,0.5C28,16.8,27.7,16.7,27.2,16.6 M24.1,17.9H27c0.4,0,0.7,0.3,0.7,0.7c0,1.2-0.9,2.1-2.1,2.1
	c-1.2,0-2.1-0.9-2.1-2.1C23.5,18.2,23.8,17.9,24.1,17.9 M29.2,11.1c0,0.3-0.1,0.6-0.2,1c0,0.1,0,0.1,0,0.2c-0.1,0.3-0.2,0.6-0.3,0.9
	c0,0.1-0.1,0.1-0.1,0.2c-0.1,0.3-0.3,0.5-0.5,0.8c0,0.1-0.1,0.1-0.1,0.1c-0.2,0.2-0.4,0.4-0.6,0.6c-0.1,0-0.1,0.1-0.2,0.1
	c-0.2,0.2-0.4,0.3-0.6,0.5c-0.1,0.1-0.1,0.1-0.2,0.2c-0.2,0.1-0.5,0.3-0.7,0.4c-0.1,0-0.2,0.1-0.3,0.1c-0.2,0.1-0.5,0.2-0.7,0.3
	c-0.1,0-0.2,0.1-0.3,0.1c-0.3,0.1-0.5,0.1-0.8,0.1c0,0-0.1,0-0.1,0v-0.7c0-2.7,2.2-4.9,4.9-4.9C28.6,11,28.9,11,29.2,11.1
	C29.2,11.1,29.2,11.1,29.2,11.1 M32.7,14.6C32.6,14.6,32.6,14.6,32.7,14.6c-0.2-0.2-0.4-0.3-0.5-0.4c0,0-0.1-0.1-0.1-0.1
	c-0.2-0.2-0.3-0.3-0.4-0.5c0,0,0,0,0,0c-0.1-0.2-0.3-0.4-0.4-0.6c0-0.1-0.1-0.1-0.1-0.2c-0.1-0.2-0.2-0.4-0.2-0.6c0,0,0-0.1,0-0.1
	c-0.1-0.2-0.1-0.4-0.1-0.6c1.3,0.7,2.2,1.9,2.5,3.3C33,14.8,32.8,14.7,32.7,14.6 M25.5,25.9c0.9,0.4,1.8,0.7,2.9,0.7
	c1,0,2-0.3,2.9-0.7v2.6c0,1.6-1.3,2.9-2.9,2.9s-2.9-1.3-2.9-2.9V25.9z M22.9,32.5c1.2,1.7,3.2,2.8,5.5,2.8c1,0,2-0.2,2.9-0.7v0.3
	c0,1.6-1.3,2.9-2.9,2.9C25.4,37.8,23,35.4,22.9,32.5 M26.8,44h-3.9v-7.7c0.9,1.3,2.3,2.2,3.9,2.6V44z M33.8,28.5v3.8
	c0,1.4-0.6,2.7-1.5,3.7c0.1-0.4,0.2-0.7,0.2-1.1l0-6.4v-1.8C33.3,26.9,33.8,27.6,33.8,28.5 M37.7,39.2h3.6v1.3h-3.6V39.2z
	 M35.9,27.8h-0.8c-0.3-1.3-1.3-2.3-2.5-2.5V25c0.9-0.9,1.6-2,1.9-3.3c1.5-0.3,2.7-1.6,2.7-3.2c0,0,0,0,0,0v-2.6
	c0-4.8-3.9-8.8-8.8-8.8c-4.8,0-8.8,3.9-8.8,8.8v2.7c0,1.6,1.2,2.9,2.7,3.2c0.3,1.3,1,2.5,1.9,3.3v0.3c-1.3,0.3-2.3,1.3-2.5,2.5h-0.9
	c-3.7,0-6.8,3-6.8,6.8V49c0,0.4,0.3,0.6,0.6,0.6H42c0.4,0,0.6-0.3,0.6-0.6V34.6C42.7,30.9,39.6,27.8,35.9,27.8"/>
</svg>
