<?xml version="1.0" encoding="utf-8"?>
<!-- Generator: Adobe Illustrator 19.1.0, SVG Export Plug-In . SVG Version: 6.00 Build 0)  -->
<svg version="1.1" id="Layer_1" xmlns="http://www.w3.org/2000/svg" xmlns:xlink="http://www.w3.org/1999/xlink" x="0px" y="0px"
	 viewBox="0 0 56.7 56.7" style="enable-background:new 0 0 56.7 56.7;" xml:space="preserve">
<style type="text/css">
	.st0{fill:#231F20;}
	.st1{clip-path:url(#SVGID_2_);fill:#FFFFFF;}
	.st2{clip-path:url(#SVGID_2_);fill:#003E7E;}
	.st3{clip-path:url(#SVGID_2_);fill-rule:evenodd;clip-rule:evenodd;fill:#FFFFFF;}
	.st4{fill:#EFC10B;}
	.st5{fill:#D7D1CA;}
	.st6{opacity:0.9;clip-path:url(#SVGID_4_);}
	.st7{clip-path:url(#SVGID_6_);fill:none;stroke:#EAEFF2;stroke-miterlimit:10;}
	.st8{clip-path:url(#SVGID_8_);fill-rule:evenodd;clip-rule:evenodd;fill:#74A333;}
	.st9{clip-path:url(#SVGID_8_);fill:none;stroke:#FFFFFF;stroke-linejoin:bevel;stroke-miterlimit:10;}
	.st10{clip-path:url(#SVGID_8_);fill-rule:evenodd;clip-rule:evenodd;fill:#BEB7B3;}
	.st11{clip-path:url(#SVGID_8_);fill-rule:evenodd;clip-rule:evenodd;fill:#DAD6D3;}
	.st12{clip-path:url(#SVGID_8_);fill-rule:evenodd;clip-rule:evenodd;fill:#E1E776;}
	.st13{clip-path:url(#SVGID_8_);fill:#BFD22B;}
	.st14{fill:#554742;}
	.st15{fill:#877B77;}
	.st16{fill:#BEB7B3;}
	.st17{fill:#F1EEE8;}
	.st18{fill:#F7F5F1;}
	.st19{fill:#E1E776;}
	.st20{fill:#D0DC70;}
	.st21{fill:#BFD22B;}
	.st22{fill:#74A333;}
	.st23{fill:#EAEFF2;}
	.st24{fill:#58B6E7;}
	.st25{fill:#3A84B6;}
	.st26{fill:#003E7E;}
	.st27{fill:#DAD6D3;}
	.st28{fill:none;stroke:#231F20;stroke-width:1.5;stroke-linecap:round;stroke-miterlimit:10;}
	.st29{fill:none;stroke:#231F20;stroke-width:1.5;stroke-miterlimit:10;}
</style>
<g>
	<path class="st0" d="M44.8,34.4c-0.6,0-1.1-0.5-1.1-1.1c0-0.6,0.5-1.1,1.1-1.1c0.6,0,1.1,0.5,1.1,1.1C45.8,34,45.3,34.4,44.8,34.4
		 M8.8,22.2h25.8V29H8.8V22.2z M48.7,27.6l-3.3-1.1c-0.2-3-2.7-5.3-5.7-5.3h-2.2c-0.3,0-0.6,0.3-0.6,0.6V29h-1.1v-7.3
		c0-0.3-0.3-0.6-0.6-0.6h-27c-0.3,0-0.6,0.3-0.6,0.6v7.9c0,0.3,0.3,0.6,0.6,0.6h27h1.7v3.2c0,0.3,0.3,0.6,0.6,0.6h3.5
		c0.3,0,0.6-0.3,0.6-0.6c0-1.8,1.5-3.3,3.3-3.3c0.3,0,0.6-0.3,0.6-0.6c0-0.3-0.3-0.6-0.6-0.6c-2.2,0-4.1,1.7-4.4,3.8H38V22.2h1.6
		c2.5,0,4.6,2.1,4.6,4.6c0,0.2,0.2,0.5,0.4,0.5l3.3,1.1v4.3h-1.1c-0.2-0.9-1.1-1.6-2.1-1.6c-1.2,0-2.2,1-2.2,2.2
		c0,1.2,1,2.2,2.2,2.2c1,0,1.9-0.7,2.1-1.6h1.6c0.3,0,0.6-0.3,0.6-0.6v-5.3C49,27.8,48.9,27.6,48.7,27.6"/>
	<path class="st0" d="M32.1,33.4c0,0.6-0.5,1.1-1.1,1.1c-0.6,0-1.1-0.5-1.1-1.1c0-0.6,0.5-1.1,1.1-1.1
		C31.7,32.3,32.1,32.8,32.1,33.4 M26.6,33.4c0,0.6-0.5,1.1-1.1,1.1c-0.6,0-1.1-0.5-1.1-1.1c0-0.6,0.5-1.1,1.1-1.1
		C26.1,32.3,26.6,32.8,26.6,33.4 M18.6,33.4c0,0.6-0.5,1.1-1.1,1.1s-1.1-0.5-1.1-1.1c0-0.6,0.5-1.1,1.1-1.1S18.6,32.8,18.6,33.4
		 M13.1,33.4c0,0.6-0.5,1.1-1.1,1.1S11,34,11,33.4c0-0.6,0.5-1.1,1.1-1.1S13.1,32.8,13.1,33.4 M35.2,31.2h-27
		c-0.3,0-0.6,0.3-0.6,0.6c0,0.3,0.3,0.6,0.6,0.6h1.9C10,32.6,9.8,33,9.8,33.4c0,1.2,1,2.2,2.2,2.2c1.2,0,2.2-1,2.2-2.2
		c0-0.4-0.1-0.8-0.3-1.1h1.7c-0.2,0.3-0.3,0.7-0.3,1.1c0,1.2,1,2.2,2.2,2.2c1.2,0,2.2-1,2.2-2.2c0-0.4-0.1-0.8-0.3-1.1h4.2
		c-0.2,0.3-0.3,0.7-0.3,1.1c0,1.2,1,2.2,2.2,2.2c1.2,0,2.2-1,2.2-2.2c0-0.4-0.1-0.8-0.3-1.1h1.7c-0.2,0.3-0.3,0.7-0.3,1.1
		c0,1.2,1,2.2,2.2,2.2c1.2,0,2.2-1,2.2-2.2c0-0.4-0.1-0.8-0.3-1.1h2.2c0.3,0,0.6-0.3,0.6-0.6C35.7,31.4,35.5,31.2,35.2,31.2"/>
</g>
</svg>
