<?xml version="1.0" encoding="utf-8"?>
<!-- Generator: Adobe Illustrator 19.1.0, SVG Export Plug-In . SVG Version: 6.00 Build 0)  -->
<svg version="1.1" id="Layer_1" xmlns="http://www.w3.org/2000/svg" xmlns:xlink="http://www.w3.org/1999/xlink" x="0px" y="0px"
	 viewBox="0 0 56.7 56.7" style="enable-background:new 0 0 56.7 56.7;" xml:space="preserve">
<style type="text/css">
	.st0{fill:#231F20;}
	.st1{clip-path:url(#SVGID_2_);fill:#FFFFFF;}
	.st2{clip-path:url(#SVGID_2_);fill:#003E7E;}
	.st3{clip-path:url(#SVGID_2_);fill-rule:evenodd;clip-rule:evenodd;fill:#FFFFFF;}
	.st4{fill:#EFC10B;}
	.st5{fill:#D7D1CA;}
	.st6{opacity:0.9;clip-path:url(#SVGID_4_);}
	.st7{clip-path:url(#SVGID_6_);fill:none;stroke:#EAEFF2;stroke-miterlimit:10;}
	.st8{clip-path:url(#SVGID_8_);fill-rule:evenodd;clip-rule:evenodd;fill:#74A333;}
	.st9{clip-path:url(#SVGID_8_);fill:none;stroke:#FFFFFF;stroke-linejoin:bevel;stroke-miterlimit:10;}
	.st10{clip-path:url(#SVGID_8_);fill-rule:evenodd;clip-rule:evenodd;fill:#BEB7B3;}
	.st11{clip-path:url(#SVGID_8_);fill-rule:evenodd;clip-rule:evenodd;fill:#DAD6D3;}
	.st12{clip-path:url(#SVGID_8_);fill-rule:evenodd;clip-rule:evenodd;fill:#E1E776;}
	.st13{clip-path:url(#SVGID_8_);fill:#BFD22B;}
	.st14{fill:#554742;}
	.st15{fill:#877B77;}
	.st16{fill:#BEB7B3;}
	.st17{fill:#F1EEE8;}
	.st18{fill:#F7F5F1;}
	.st19{fill:#E1E776;}
	.st20{fill:#D0DC70;}
	.st21{fill:#BFD22B;}
	.st22{fill:#74A333;}
	.st23{fill:#EAEFF2;}
	.st24{fill:#58B6E7;}
	.st25{fill:#3A84B6;}
	.st26{fill:#003E7E;}
	.st27{fill:#DAD6D3;}
	.st28{fill:none;stroke:#231F20;stroke-width:1.5;stroke-linecap:round;stroke-miterlimit:10;}
	.st29{fill:none;stroke:#231F20;stroke-width:1.5;stroke-miterlimit:10;}
</style>
<g>
	<path d="M14.3,21.3c0.3-0.1,0.5-0.4,0.5-0.8c-0.1-0.3-0.3-0.5-0.6-0.5c0,0-0.1,0-0.1,0c-0.2,0-0.3,0.1-0.4,0.3
		c-0.1,0.1-0.1,0.3-0.1,0.5v0c0.1,0.3,0.3,0.5,0.6,0.5C14.2,21.3,14.3,21.3,14.3,21.3"/>
	<path d="M49.9,35.4H37.2c0.3-0.9,1.1-1.4,2.3-2.2c0.4-0.3,0.9-0.6,1.4-0.9l2.3-0.8c0.5-0.2,1.1-0.3,1.6-0.4l1.6-0.3
		c2.7-0.6,4.6-3,4.6-5.7c0-2-1.6-3.6-3.6-3.6c-0.7,0-1.5,0.2-2.1,0.6c0,0,0,0,0,0c-0.3,0.2-0.5,0.4-0.7,0.6c0.4-2.8,1.6-4,1.6-4
		c0.2-0.2,0.2-0.4,0.2-0.7c-0.1-0.2-0.3-0.4-0.6-0.4H10.3c-0.3,0-0.5,0.2-0.6,0.4c-0.1,0.2,0,0.5,0.1,0.7c0,0,1.7,1.7,1.7,6
		c0,5.4,2.9,7.3,5.1,8.6c1.3,0.8,2.1,1.4,2.3,2.2H6.2c-0.3,0-0.6,0.2-0.6,0.5c-0.1,0.3,0.1,0.6,0.4,0.7c4.5,1.7,9.2,2.5,13.9,2.5
		h16.3c4.8,0,9.5-0.9,13.9-2.5c0.3-0.1,0.4-0.4,0.4-0.7C50.5,35.6,50.2,35.4,49.9,35.4 M49.9,25c0,2.2-1.5,4.1-3.6,4.5l-1.6,0.3
		c-0.6,0.1-1.1,0.3-1.7,0.5c0.6-0.9,1.1-2,1.4-3.4l0.8-2.6v0c0.2-0.5,0.5-1,0.9-1.3c0,0,0,0,0,0c0.4-0.3,0.9-0.4,1.4-0.4
		C48.8,22.6,49.9,23.7,49.9,25 M17.3,32.1c-2.1-1.3-4.5-2.8-4.5-7.6c0-2.9-0.7-4.8-1.3-5.8h33.2c-0.6,1-1.3,2.9-1.3,5.8
		c0,4.7-2.4,6.3-4.5,7.6c-1.4,0.9-2.7,1.7-3,3.3H22.8c-0.1-1.1-0.5-1.9-0.7-2.2C22,33.2,22,33.1,21.9,33c0,0,0,0,0,0
		c-0.9-1.4-2.2-2.2-3.2-2.9L18.6,30c-0.1-0.1-0.2-0.1-0.3-0.2c-1.9-1.2-3-1.9-3-5.3c0-0.5,0-1-0.1-1.5c0-0.3-0.3-0.6-0.6-0.6
		c0,0,0,0,0,0c-0.2,0-0.3,0.1-0.4,0.2C14,22.8,14,23,14,23.2c0,0.5,0.1,0.9,0.1,1.4c0,3.8,1.7,5.2,3.9,6.5c1.2,0.7,2.3,1.5,2.9,2.6
		c0,0.1,0.1,0.1,0.1,0.2l0,0c0,0,0,0,0.1,0.1c0.1,0.2,0.4,0.7,0.5,1.4h-1.3C20,33.8,18.7,33,17.3,32.1 M36.2,37.9H19.9
		c-3.3,0-6.5-0.4-9.7-1.3h9.5c0,0,0,0,0,0h16.8c0,0,0,0,0,0h9.5C42.8,37.5,39.5,37.9,36.2,37.9"/>
</g>
</svg>
