<?xml version="1.0" encoding="utf-8"?>
<!-- Generator: Adobe Illustrator 19.1.0, SVG Export Plug-In . SVG Version: 6.00 Build 0)  -->
<svg version="1.1" id="Layer_1" xmlns="http://www.w3.org/2000/svg" xmlns:xlink="http://www.w3.org/1999/xlink" x="0px" y="0px"
	 viewBox="0 0 56.7 56.7" style="enable-background:new 0 0 56.7 56.7;" xml:space="preserve">
<style type="text/css">
	.st0{fill:#231F20;}
	.st1{clip-path:url(#SVGID_2_);fill:#FFFFFF;}
	.st2{clip-path:url(#SVGID_2_);fill:#003E7E;}
	.st3{clip-path:url(#SVGID_2_);fill-rule:evenodd;clip-rule:evenodd;fill:#FFFFFF;}
	.st4{fill:#EFC10B;}
	.st5{fill:#D7D1CA;}
	.st6{opacity:0.9;clip-path:url(#SVGID_4_);}
	.st7{clip-path:url(#SVGID_6_);fill:none;stroke:#EAEFF2;stroke-miterlimit:10;}
	.st8{clip-path:url(#SVGID_8_);fill-rule:evenodd;clip-rule:evenodd;fill:#74A333;}
	.st9{clip-path:url(#SVGID_8_);fill:none;stroke:#FFFFFF;stroke-linejoin:bevel;stroke-miterlimit:10;}
	.st10{clip-path:url(#SVGID_8_);fill-rule:evenodd;clip-rule:evenodd;fill:#BEB7B3;}
	.st11{clip-path:url(#SVGID_8_);fill-rule:evenodd;clip-rule:evenodd;fill:#DAD6D3;}
	.st12{clip-path:url(#SVGID_8_);fill-rule:evenodd;clip-rule:evenodd;fill:#E1E776;}
	.st13{clip-path:url(#SVGID_8_);fill:#BFD22B;}
	.st14{fill:#554742;}
	.st15{fill:#877B77;}
	.st16{fill:#BEB7B3;}
	.st17{fill:#F1EEE8;}
	.st18{fill:#F7F5F1;}
	.st19{fill:#E1E776;}
	.st20{fill:#D0DC70;}
	.st21{fill:#BFD22B;}
	.st22{fill:#74A333;}
	.st23{fill:#EAEFF2;}
	.st24{fill:#58B6E7;}
	.st25{fill:#3A84B6;}
	.st26{fill:#003E7E;}
	.st27{fill:#DAD6D3;}
	.st28{fill:none;stroke:#231F20;stroke-width:1.5;stroke-linecap:round;stroke-miterlimit:10;}
	.st29{fill:none;stroke:#231F20;stroke-width:1.5;stroke-miterlimit:10;}
</style>
<g>
	<path d="M17.1,21.5c0.3,0,0.6-0.4,0.6-0.7c0-0.3-0.3-0.6-0.6-0.6c0,0,0,0-0.1,0c-0.3,0-0.6,0.4-0.6,0.7
		C16.5,21.3,16.7,21.5,17.1,21.5C17.1,21.5,17.1,21.5,17.1,21.5"/>
	<path d="M51.1,36c-0.1-0.3-0.3-0.5-0.6-0.5H36.9c0.8-1,2-2.6,3.2-4.9c0.5,0.1,1,0.2,1.5,0.2c3.3,0,5.9-2.6,5.9-5.9
		c0-2-1.7-3.7-3.7-3.7c-0.3,0-0.6,0-0.9,0.1c0.1-1.1,0.2-2.2,0.2-3.3c0-0.3-0.3-0.6-0.6-0.6h-3.6c-0.8,0-1.5,0.2-2.2,0.7
		c-0.6-0.5-1.4-0.7-2.2-0.7h-3.9c-0.8,0-1.5,0.2-2.2,0.7c-0.6-0.5-1.4-0.7-2.2-0.7h-3.9c-0.8,0-1.5,0.2-2.2,0.7
		c-0.6-0.5-1.4-0.7-2.2-0.7h-3.6c-0.3,0-0.6,0.3-0.6,0.6c0,8.9,4.2,15.1,6.1,17.5H6.2c-0.3,0-0.6,0.2-0.6,0.5
		c-0.1,0.3,0.1,0.6,0.4,0.7c4.5,1.7,9.3,2.6,14.1,2.6h16.5c4.8,0,9.6-0.9,14.1-2.6C51,36.6,51.2,36.3,51.1,36 M43.7,22.5
		c1.3,0,2.4,1.1,2.4,2.4c0,2.6-2.1,4.6-4.6,4.6c-0.3,0-0.6,0-0.9-0.1c0.8-1.9,1.6-4.1,2-6.7C42.9,22.6,43.3,22.5,43.7,22.5 M15,18.7
		h2.9c0.6,0,1.3,0.3,1.7,0.7c0.2,0.2,0.6,0.2,0.9,0c0.5-0.5,1.1-0.7,1.7-0.7h3.9c0.6,0,1.3,0.3,1.7,0.7c0.2,0.2,0.6,0.2,0.9,0
		c0.4-0.5,1.1-0.7,1.7-0.7h3.9c0.6,0,1.3,0.3,1.7,0.7c0.2,0.2,0.6,0.2,0.9,0c0.4-0.5,1.1-0.7,1.7-0.7h2.9
		c-0.2,9.7-5.5,15.7-6.5,16.8H24.8l-0.3-0.4c-0.1-0.1-0.2-0.2-0.3-0.2c0-0.1-0.1-0.2-0.1-0.3l-1.2-1.4c-1.1-1.3-3.6-4.9-4.8-10
		c-0.1-0.3-0.3-0.5-0.6-0.5c0,0-0.1,0-0.1,0c-0.3,0.1-0.6,0.4-0.5,0.8c1.2,5.1,3.7,8.8,5,10.5l1.2,1.4c0,0,0,0,0.1,0.1h-1.6
		C20.5,34.4,15.2,28.1,15,18.7 M36.6,38H20.1c-3.3,0-6.6-0.4-9.8-1.3h11c0,0,0,0,0,0h14.2c0,0,0,0,0,0h11C43.2,37.6,39.9,38,36.6,38
		"/>
</g>
</svg>
