<?xml version="1.0" encoding="utf-8"?>
<!-- Generator: Adobe Illustrator 19.1.0, SVG Export Plug-In . SVG Version: 6.00 Build 0)  -->
<svg version="1.1" id="Layer_1" xmlns="http://www.w3.org/2000/svg" xmlns:xlink="http://www.w3.org/1999/xlink" x="0px" y="0px"
	 viewBox="0 0 56.7 56.7" style="enable-background:new 0 0 56.7 56.7;" xml:space="preserve">
<style type="text/css">
	.st0{fill:#231F20;}
	.st1{clip-path:url(#SVGID_2_);fill:#FFFFFF;}
	.st2{clip-path:url(#SVGID_2_);fill:#003E7E;}
	.st3{clip-path:url(#SVGID_2_);fill-rule:evenodd;clip-rule:evenodd;fill:#FFFFFF;}
	.st4{fill:#EFC10B;}
	.st5{fill:#D7D1CA;}
	.st6{opacity:0.9;clip-path:url(#SVGID_4_);}
	.st7{clip-path:url(#SVGID_6_);fill:none;stroke:#EAEFF2;stroke-miterlimit:10;}
	.st8{clip-path:url(#SVGID_8_);fill-rule:evenodd;clip-rule:evenodd;fill:#74A333;}
	.st9{clip-path:url(#SVGID_8_);fill:none;stroke:#FFFFFF;stroke-linejoin:bevel;stroke-miterlimit:10;}
	.st10{clip-path:url(#SVGID_8_);fill-rule:evenodd;clip-rule:evenodd;fill:#BEB7B3;}
	.st11{clip-path:url(#SVGID_8_);fill-rule:evenodd;clip-rule:evenodd;fill:#DAD6D3;}
	.st12{clip-path:url(#SVGID_8_);fill-rule:evenodd;clip-rule:evenodd;fill:#E1E776;}
	.st13{clip-path:url(#SVGID_8_);fill:#BFD22B;}
	.st14{fill:#554742;}
	.st15{fill:#877B77;}
	.st16{fill:#BEB7B3;}
	.st17{fill:#F1EEE8;}
	.st18{fill:#F7F5F1;}
	.st19{fill:#E1E776;}
	.st20{fill:#D0DC70;}
	.st21{fill:#BFD22B;}
	.st22{fill:#74A333;}
	.st23{fill:#EAEFF2;}
	.st24{fill:#58B6E7;}
	.st25{fill:#3A84B6;}
	.st26{fill:#003E7E;}
	.st27{fill:#DAD6D3;}
	.st28{fill:none;stroke:#231F20;stroke-width:1.5;stroke-linecap:round;stroke-miterlimit:10;}
	.st29{fill:none;stroke:#231F20;stroke-width:1.5;stroke-miterlimit:10;}
</style>
<path class="st0" d="M41.3,48.2h-4.6V44c0.8-0.9,1.3-2.1,1.3-3.4v-5.3l0.6-0.6c0.3-0.3,0.3-0.7,0-1c-0.3-0.3-0.7-0.3-1,0l-0.8,0.8
	c-0.1,0.1-0.1,0.1-0.1,0.2c0,0.1-0.1,0.2-0.1,0.3v5.6c0,1-0.4,1.9-1.1,2.6c-0.1,0.1-0.2,0.3-0.2,0.5v4.5h-4.9V41
	c0-0.4,0.2-0.8,0.5-1.1l2-2l0.8,0.8c0.1,0.1,0.3,0.2,0.5,0.2c0.1,0,0.2,0,0.3-0.1c0.3-0.1,0.4-0.4,0.4-0.6V28l4,1.2
	c1.4,0.4,2.4,1.7,2.4,3.2V48.2z M15.4,32.4c0-1.5,1-2.8,2.4-3.2l4-1.2v10.2c0,0.3,0.2,0.5,0.4,0.6c0.3,0.1,0.6,0,0.8-0.1l0.8-0.8
	l1.9,1.9c0.3,0.3,0.5,0.7,0.5,1.1v7.2h-4.8v-4.5c0-0.2-0.1-0.4-0.2-0.5c-0.7-0.7-1.1-1.6-1.1-2.6V35c0-0.1,0-0.2-0.1-0.3
	c0-0.1-0.1-0.2-0.1-0.2l-0.8-0.8c-0.3-0.3-0.7-0.3-1,0c-0.3,0.3-0.3,0.7,0,1l0.6,0.6v5.3c0,1.3,0.5,2.5,1.3,3.4v4.2h-4.6V32.4z
	 M23.2,27.5l1.3-1.3v6.1c0,0.2,0.1,0.4,0.2,0.5l2,2h-1.5c-0.2,0-0.4,0.1-0.5,0.2l-1.5,1.5V27.5z M23.2,18.6v-2.8c0,0,0.1,0,0.1,0
	c0.3,0,0.7-0.1,1-0.1c0,0,0.1,0,0.1,0c0.3-0.1,0.6-0.1,0.9-0.2c0.1,0,0.2-0.1,0.3-0.1c0.3-0.1,0.5-0.2,0.8-0.3c0,0,0.1,0,0.1,0
	c0.3-0.1,0.6-0.3,0.8-0.5c0.1,0,0.1-0.1,0.2-0.1c0.2-0.2,0.4-0.3,0.6-0.5c0,0,0.1-0.1,0.1-0.1c0.2-0.2,0.5-0.5,0.7-0.7
	c0-0.1,0.1-0.1,0.1-0.2c0.2-0.2,0.3-0.4,0.5-0.7c0-0.1,0.1-0.1,0.1-0.2c0.2-0.3,0.3-0.6,0.5-0.9c0,0,0,0,0,0c0,0,0,0.1,0,0.1
	c0,0,0,0.1,0.1,0.1c0.1,0.3,0.3,0.5,0.5,0.8c0,0,0,0,0,0c0.2,0.3,0.4,0.5,0.6,0.7c0,0,0.1,0.1,0.1,0.1c0.2,0.2,0.5,0.4,0.7,0.6
	c0,0,0.1,0.1,0.1,0.1c0.3,0.2,0.5,0.3,0.8,0.5c0,0,0.1,0,0.1,0c0.1,0.1,0.3,0.1,0.4,0.2v4.3c0,2.9-2.3,5.2-5.2,5.2
	C25.5,23.8,23.2,21.4,23.2,18.6 M28.4,8.5c0.3,0,0.6,0,0.9,0.1c0,0,0,0,0,0c0,0.4-0.1,0.7-0.2,1c0,0.1,0,0.1,0,0.2
	c-0.1,0.3-0.2,0.6-0.4,0.9c0,0.1-0.1,0.1-0.1,0.2c-0.1,0.3-0.3,0.6-0.5,0.8c0,0.1-0.1,0.1-0.1,0.1c-0.2,0.2-0.4,0.5-0.6,0.7
	c0,0-0.1,0.1-0.1,0.1c-0.2,0.2-0.4,0.4-0.6,0.5c-0.1,0.1-0.1,0.1-0.2,0.2c-0.2,0.2-0.5,0.3-0.7,0.4c-0.1,0.1-0.2,0.1-0.3,0.1
	c-0.3,0.1-0.5,0.2-0.8,0.3c-0.1,0-0.2,0.1-0.4,0.1c-0.3,0.1-0.6,0.1-0.9,0.1c0,0-0.1,0-0.1,0v-0.8C23.2,10.8,25.5,8.5,28.4,8.5
	 M33.4,12.7c-0.2-0.1-0.3-0.2-0.5-0.3c0,0,0,0-0.1,0c-0.2-0.1-0.4-0.3-0.5-0.4c0,0-0.1-0.1-0.1-0.1c-0.2-0.2-0.3-0.3-0.4-0.5
	c0,0,0,0,0-0.1c-0.1-0.2-0.3-0.4-0.4-0.6c0-0.1-0.1-0.1-0.1-0.2c-0.1-0.2-0.2-0.4-0.2-0.5c0-0.1,0-0.1-0.1-0.1
	c-0.1-0.2-0.1-0.4-0.2-0.6C32.2,9.8,33.1,11.1,33.4,12.7 M32,32.8c0.1-0.1,0.2-0.3,0.2-0.5v-6.1l1.3,1.3v9L32,35
	c-0.1-0.1-0.3-0.2-0.5-0.2H30L32,32.8z M25.8,31.1h0.8c0.4,0,0.7-0.3,0.7-0.7c0-0.4-0.3-0.7-0.7-0.7h-0.8v-5c0,0,0-0.1,0-0.1
	c0.8,0.3,1.6,0.5,2.5,0.5c0.9,0,1.7-0.2,2.5-0.5c0,0,0,0,0,0v5.1h-0.8c-0.4,0-0.7,0.3-0.7,0.7c0,0.4,0.3,0.7,0.7,0.7h0.8V32
	l-2.5,2.5L25.8,32V31.1z M29.1,41v7.2h-1.6V41c0-0.8-0.3-1.6-0.9-2.1L24.7,37l0.8-0.8h5.8l0.7,0.7l-2,2C29.4,39.4,29.1,40.2,29.1,41
	 M36.7,18.5v8.6l-2.2-0.6c0,0,0,0,0,0l-2.2-2.2v-0.4c1.6-1.2,2.7-3.1,2.7-5.3V15C36,15.8,36.7,17.1,36.7,18.5 M39.3,27.9L38,27.5
	c0-0.1,0-0.2,0-0.2v-8.7c0-2.2-1.2-4.2-3.1-5.2c-0.1-2.7-2-5.2-4.7-5.9c0,0,0,0,0,0c0,0,0,0,0,0s0,0,0,0c0,0,0,0,0,0c0,0,0,0,0,0
	c-0.6-0.2-1.2-0.3-1.8-0.3c-3.6,0-6.6,2.9-6.6,6.6v1.5v3.4c0,2.2,1.1,4.1,2.7,5.3v0.4l-2.2,2.2c0,0,0,0,0,0l-4.9,1.4
	c-2,0.6-3.4,2.4-3.4,4.5v16.6c0,0.4,0.3,0.7,0.7,0.7H42c0.4,0,0.7-0.3,0.7-0.7V32.4C42.7,30.3,41.3,28.4,39.3,27.9"/>
</svg>
