<?xml version="1.0" encoding="utf-8"?>
<!-- Generator: Adobe Illustrator 19.1.0, SVG Export Plug-In . SVG Version: 6.00 Build 0)  -->
<svg version="1.1" id="Layer_1" xmlns="http://www.w3.org/2000/svg" xmlns:xlink="http://www.w3.org/1999/xlink" x="0px" y="0px"
	 viewBox="0 0 56.7 56.7" style="enable-background:new 0 0 56.7 56.7;" xml:space="preserve">
<style type="text/css">
	.st0{fill:#231F20;}
	.st1{clip-path:url(#SVGID_2_);fill:#FFFFFF;}
	.st2{clip-path:url(#SVGID_2_);fill:#003E7E;}
	.st3{clip-path:url(#SVGID_2_);fill-rule:evenodd;clip-rule:evenodd;fill:#FFFFFF;}
	.st4{fill:#EFC10B;}
	.st5{fill:#D7D1CA;}
	.st6{opacity:0.9;clip-path:url(#SVGID_4_);}
	.st7{clip-path:url(#SVGID_6_);fill:none;stroke:#EAEFF2;stroke-miterlimit:10;}
	.st8{clip-path:url(#SVGID_8_);fill-rule:evenodd;clip-rule:evenodd;fill:#74A333;}
	.st9{clip-path:url(#SVGID_8_);fill:none;stroke:#FFFFFF;stroke-linejoin:bevel;stroke-miterlimit:10;}
	.st10{clip-path:url(#SVGID_8_);fill-rule:evenodd;clip-rule:evenodd;fill:#BEB7B3;}
	.st11{clip-path:url(#SVGID_8_);fill-rule:evenodd;clip-rule:evenodd;fill:#DAD6D3;}
	.st12{clip-path:url(#SVGID_8_);fill-rule:evenodd;clip-rule:evenodd;fill:#E1E776;}
	.st13{clip-path:url(#SVGID_8_);fill:#BFD22B;}
	.st14{fill:#554742;}
	.st15{fill:#877B77;}
	.st16{fill:#BEB7B3;}
	.st17{fill:#F1EEE8;}
	.st18{fill:#F7F5F1;}
	.st19{fill:#E1E776;}
	.st20{fill:#D0DC70;}
	.st21{fill:#BFD22B;}
	.st22{fill:#74A333;}
	.st23{fill:#EAEFF2;}
	.st24{fill:#58B6E7;}
	.st25{fill:#3A84B6;}
	.st26{fill:#003E7E;}
	.st27{fill:#DAD6D3;}
	.st28{fill:none;stroke:#231F20;stroke-width:1.5;stroke-linecap:round;stroke-miterlimit:10;}
	.st29{fill:none;stroke:#231F20;stroke-width:1.5;stroke-miterlimit:10;}
</style>
<g>
	<path class="st0" d="M42.4,48.2h-3.3V35.3l0.6-0.6c0.3-0.3,0.3-0.7,0-1c-0.3-0.3-0.7-0.3-1,0L38,34.6c-0.1,0.1-0.1,0.1-0.1,0.2
		c0,0.1-0.1,0.2-0.1,0.3v3.3h-1.6v-2c0-0.4-0.3-0.7-0.7-0.7c-0.4,0-0.7,0.3-0.7,0.7v2h-0.5c-0.4,0-0.7,0.3-0.7,0.7v4.3
		c0,1.2,1,2.2,2.2,2.2c0.4,0,0.7-0.3,0.7-0.7c0-0.4-0.3-0.7-0.7-0.7c-0.4,0-0.8-0.4-0.8-0.8v-3.6h2.9v8.5h-6.2V38.2l0.4-1
		c0.9-2,1.3-4.2,1.3-6.4v-3.4l1.4,0.4v1.1c0,0.4,0.3,0.7,0.7,0.7c0.4,0,0.7-0.3,0.7-0.7v-0.7l2,0.6c2.6,0.8,4.3,3.2,4.3,5.8V48.2z
		 M16.5,34.6c0-2.7,1.8-5.1,4.3-5.8l2-0.6l0,2.6c0,2.6,0.5,5.1,1.5,7.5l0.2,0.5v2.1c0,0.4,0.3,0.7,0.7,0.7s0.7-0.3,0.7-0.7v-2.2
		c0-0.1,0-0.2-0.1-0.3l-0.3-0.6c-0.9-2.2-1.4-4.6-1.4-7l0-3l1.4-0.4v3.4c0,0,0,0,0,0c0,2.2,0.4,4.4,1.3,6.4l0.4,1v10.1h-6.2V35
		c0-0.1,0-0.2-0.1-0.3c0-0.1-0.1-0.2-0.1-0.2l-0.8-0.8c-0.3-0.3-0.7-0.3-1,0c-0.3,0.3-0.3,0.7,0,1l0.6,0.6v12.9h-3.3V34.6z
		 M29.5,25.1c0.9,0,1.7-0.2,2.5-0.5v4.2h-0.8c-0.4,0-0.7,0.3-0.7,0.7c0,0.4,0.3,0.7,0.7,0.7H32v0.2l-2.5,2.5L27,30.4v-0.2h0.8
		c0.4,0,0.7-0.3,0.7-0.7c0-0.4-0.3-0.7-0.7-0.7H27v-4.2C27.8,25,28.6,25.1,29.5,25.1 M24.3,18.7l0.6,0.6c0.5,0.5,1.2,0.8,2,0.8
		c0.7,0,1.4-0.3,2-0.8l0.7-0.7l0.7,0.7c1,1,2.9,1,3.9,0l0.6-0.6c-0.1,2.8-2.4,5-5.2,5C26.7,23.8,24.4,21.5,24.3,18.7 M29.5,8.5
		c0.3,0,0.6,0,0.9,0.1c0,0,0,0,0,0c0,0.4-0.1,0.7-0.2,1c0,0.1,0,0.1,0,0.2c-0.1,0.3-0.2,0.6-0.4,0.9c0,0.1-0.1,0.1-0.1,0.2
		c-0.1,0.3-0.3,0.6-0.5,0.8c0,0.1-0.1,0.1-0.1,0.2c-0.2,0.2-0.4,0.5-0.6,0.7c-0.1,0.1-0.1,0.1-0.2,0.2c-0.2,0.2-0.4,0.3-0.6,0.5
		c-0.1,0.1-0.2,0.1-0.2,0.2c-0.2,0.2-0.5,0.3-0.7,0.4c-0.1,0.1-0.2,0.1-0.3,0.2c-0.3,0.1-0.5,0.2-0.8,0.3c-0.1,0-0.2,0.1-0.4,0.1
		c-0.3,0.1-0.6,0.1-0.9,0.1c0,0-0.1,0-0.1,0v-0.8C24.3,10.8,26.6,8.5,29.5,8.5 M34.6,12.7c-0.2-0.1-0.3-0.2-0.5-0.3c0,0,0,0-0.1,0
		c-0.2-0.1-0.3-0.3-0.5-0.4c0,0-0.1-0.1-0.1-0.1c-0.2-0.2-0.3-0.3-0.4-0.5c0,0,0,0-0.1-0.1c-0.1-0.2-0.3-0.4-0.4-0.6
		c0-0.1-0.1-0.1-0.1-0.2c-0.1-0.2-0.2-0.4-0.2-0.5c0,0,0-0.1-0.1-0.1C32,9.5,32,9.3,32,9.1C33.3,9.8,34.3,11.1,34.6,12.7 M24.3,15.8
		l5.2,0l5.2,0v0.9l-1.6,1.6c-0.5,0.5-1.4,0.5-2,0L30,17.2c-0.3-0.3-0.7-0.3-1,0l-1.2,1.2c-0.5,0.5-1.4,0.5-2,0l-1.6-1.6V15.8z
		 M28.6,14.3c0.2-0.2,0.4-0.3,0.6-0.5c0,0,0.1-0.1,0.1-0.1c0.2-0.2,0.5-0.5,0.7-0.7c0-0.1,0.1-0.1,0.1-0.2c0.2-0.2,0.3-0.4,0.5-0.6
		c0-0.1,0.1-0.1,0.1-0.2c0.2-0.3,0.3-0.6,0.5-0.9c0,0,0,0,0,0c0,0,0,0.1,0,0.1c0,0,0,0.1,0.1,0.1c0.1,0.3,0.3,0.5,0.5,0.8
		c0,0,0,0,0,0c0.2,0.2,0.4,0.5,0.6,0.7c0,0,0.1,0.1,0.1,0.1c0.2,0.2,0.4,0.4,0.7,0.6c0,0,0.1,0.1,0.1,0.1c0.3,0.2,0.5,0.3,0.8,0.5
		c0,0,0.1,0,0.1,0c0.1,0.1,0.3,0.1,0.4,0.2v0.2l-5.2,0l-1.2,0c0,0,0,0,0,0C28.4,14.4,28.5,14.3,28.6,14.3 M30.3,37.7
		c0,0.1-0.1,0.2-0.1,0.3v10.2h-1.5V38c0-0.1,0-0.2-0.1-0.3l-0.5-1.1c-0.6-1.3-0.9-2.7-1.1-4.1l1.9,1.9c0.1,0.1,0.3,0.2,0.5,0.2
		c0.2,0,0.4-0.1,0.5-0.2l1.9-1.9c-0.2,1.4-0.5,2.8-1.1,4.1L30.3,37.7z M37.8,18.5v8.7l-4.4-1.3v-2c1.6-1.2,2.7-3.1,2.7-5.3V17v-1.9
		V15C37.1,15.8,37.8,17.1,37.8,18.5 M39.2,27.7v-9.1c0-2.2-1.2-4.2-3.1-5.2c-0.1-2.7-2-5.2-4.7-5.9c0,0,0,0,0,0c0,0,0,0,0,0h0
		c0,0,0,0,0,0c0,0,0,0,0,0c-0.6-0.2-1.2-0.3-1.8-0.3c-3.6,0-6.6,3-6.6,6.6v1.5V17v1.5c0,2.2,1.1,4.1,2.7,5.3v2l-5.1,1.5
		c-3.1,0.9-5.3,3.9-5.3,7.1v14.4c0,0.4,0.3,0.7,0.7,0.7h27.3c0.4,0,0.7-0.3,0.7-0.7V34.6C43.8,31.5,41.9,28.8,39.2,27.7"/>
	<path class="st0" d="M35.5,30c-0.4,0-0.7,0.3-0.7,0.7c0,0.4,0.3,0.7,0.7,0.7c0.4,0,0.7-0.3,0.7-0.7C36.2,30.3,35.8,30,35.5,30"/>
	<path class="st0" d="M25.3,43.3c0.2,0,0.4-0.1,0.5-0.2c0.1-0.1,0.2-0.3,0.2-0.5c0-0.2-0.1-0.4-0.2-0.5c-0.3-0.3-0.7-0.3-1,0
		c-0.1,0.1-0.2,0.3-0.2,0.5c0,0.2,0.1,0.4,0.2,0.5C24.9,43.2,25.1,43.3,25.3,43.3"/>
</g>
</svg>
