<?xml version="1.0" encoding="utf-8"?>
<!-- Generator: Adobe Illustrator 19.1.0, SVG Export Plug-In . SVG Version: 6.00 Build 0)  -->
<svg version="1.1" id="Layer_1" xmlns="http://www.w3.org/2000/svg" xmlns:xlink="http://www.w3.org/1999/xlink" x="0px" y="0px"
	 viewBox="0 0 56.7 56.7" style="enable-background:new 0 0 56.7 56.7;" xml:space="preserve">
<style type="text/css">
	.st0{fill:#231F20;}
	.st1{clip-path:url(#SVGID_2_);fill:#FFFFFF;}
	.st2{clip-path:url(#SVGID_2_);fill:#003E7E;}
	.st3{clip-path:url(#SVGID_2_);fill-rule:evenodd;clip-rule:evenodd;fill:#FFFFFF;}
	.st4{fill:#EFC10B;}
	.st5{fill:#D7D1CA;}
	.st6{opacity:0.9;clip-path:url(#SVGID_4_);}
	.st7{clip-path:url(#SVGID_6_);fill:none;stroke:#EAEFF2;stroke-miterlimit:10;}
	.st8{clip-path:url(#SVGID_8_);fill-rule:evenodd;clip-rule:evenodd;fill:#74A333;}
	.st9{clip-path:url(#SVGID_8_);fill:none;stroke:#FFFFFF;stroke-linejoin:bevel;stroke-miterlimit:10;}
	.st10{clip-path:url(#SVGID_8_);fill-rule:evenodd;clip-rule:evenodd;fill:#BEB7B3;}
	.st11{clip-path:url(#SVGID_8_);fill-rule:evenodd;clip-rule:evenodd;fill:#DAD6D3;}
	.st12{clip-path:url(#SVGID_8_);fill-rule:evenodd;clip-rule:evenodd;fill:#E1E776;}
	.st13{clip-path:url(#SVGID_8_);fill:#BFD22B;}
	.st14{fill:#554742;}
	.st15{fill:#877B77;}
	.st16{fill:#BEB7B3;}
	.st17{fill:#F1EEE8;}
	.st18{fill:#F7F5F1;}
	.st19{fill:#E1E776;}
	.st20{fill:#D0DC70;}
	.st21{fill:#BFD22B;}
	.st22{fill:#74A333;}
	.st23{fill:#EAEFF2;}
	.st24{fill:#58B6E7;}
	.st25{fill:#3A84B6;}
	.st26{fill:#003E7E;}
	.st27{fill:#DAD6D3;}
	.st28{fill:none;stroke:#231F20;stroke-width:1.5;stroke-linecap:round;stroke-miterlimit:10;}
	.st29{fill:none;stroke:#231F20;stroke-width:1.5;stroke-miterlimit:10;}
</style>
<g>
	<path class="st0" d="M25,45.7c-0.1,0.1-0.2,0.3-0.2,0.5c0,0.2,0.1,0.4,0.2,0.5c0.1,0.1,0.3,0.2,0.5,0.2c0.2,0,0.4-0.1,0.5-0.2
		c0.1-0.1,0.2-0.3,0.2-0.5c0-0.2-0.1-0.4-0.2-0.5C25.8,45.4,25.3,45.4,25,45.7"/>
	<path class="st0" d="M28.3,45.5c-0.4,0-0.7,0.3-0.7,0.7c0,0.4,0.3,0.7,0.7,0.7c0.4,0,0.7-0.3,0.7-0.7C29,45.8,28.7,45.5,28.3,45.5"
		/>
	<path class="st0" d="M30.7,45.7c-0.1,0.1-0.2,0.3-0.2,0.5c0,0.2,0.1,0.4,0.2,0.5c0.1,0.1,0.3,0.2,0.5,0.2c0.2,0,0.4-0.1,0.5-0.2
		c0.1-0.1,0.2-0.3,0.2-0.5c0-0.2-0.1-0.4-0.2-0.5C31.4,45.4,31,45.4,30.7,45.7"/>
	<path class="st0" d="M42.5,48.2h-4.2V35.3l1.5-1.5c0.3-0.3,0.3-0.7,0-1c-0.3-0.3-0.7-0.3-1,0l-1.7,1.7c-0.1,0.1-0.1,0.1-0.1,0.2
		c0,0.1-0.1,0.2-0.1,0.3v4.8l-1.4-1.4v-9.9l0.7-0.7c3.5,0.1,6.2,3,6.2,6.5V48.2z M14.2,34.3c0-3.5,2.8-6.3,6.2-6.5l0.7,0.7v9.9
		l-1.4,1.4V35c0-0.1,0-0.2-0.1-0.3c0-0.1-0.1-0.2-0.1-0.2l-1.7-1.7c-0.3-0.3-0.7-0.3-1,0c-0.3,0.3-0.3,0.7,0,1l1.5,1.5v12.9h-4.2
		V34.3z M22.6,26.1l4.7,4.7l-1,1l-4.7-4.7L22.6,26.1z M28.4,25.1c1.1,0,2.1-0.3,3.1-0.8v2.4l-3.1,3.1l-3.1-3.1v-2.4
		C26.2,24.9,27.2,25.1,28.4,25.1 M23.2,18.6v-3.7c1-0.6,1.9-1.4,2.5-2.4c1.7,0.8,3.7,0.8,5.4,0c0.6,1,1.5,1.8,2.5,2.4v3.7
		c0,2.9-2.3,5.2-5.2,5.2C25.5,23.8,23.2,21.4,23.2,18.6 M27,8.5h2.7c2.1,0,3.8,1.7,3.8,3.8v0.9c-0.7-0.5-1.2-1.2-1.6-2
		c-0.1-0.2-0.2-0.3-0.4-0.4c-0.2-0.1-0.4,0-0.6,0.1c-1.6,0.9-3.7,0.9-5.3,0c-0.2-0.1-0.4-0.1-0.6-0.1c-0.2,0.1-0.3,0.2-0.4,0.4
		c-0.4,0.8-0.9,1.4-1.6,2v-0.9C23.2,10.2,24.9,8.5,27,8.5 M30.3,31.8l-1-1l4.7-4.7l1,1L30.3,31.8z M34.2,38.8v1.8
		c0,0.4-0.3,0.7-0.7,0.7c-0.4,0-0.7-0.3-0.7-0.7v-1.8v-7.5l1.4-1.4V38.8z M31.4,38.1H31v-1.4c0-0.2-0.1-0.4-0.2-0.5l-1.5-1.5
		l1.5-1.5c0,0,0,0,0,0l0.6-0.6V38.1z M25.9,33.3L25.9,33.3l1.5,1.5l-1.5,1.5c-0.1,0.1-0.2,0.3-0.2,0.5v1.4h-0.4v-5.4L25.9,33.3z
		 M23.9,31.3v7.5v1.8c0,0.4-0.3,0.7-0.7,0.7c-0.4,0-0.7-0.3-0.7-0.7v-1.8v-8.8L23.9,31.3z M36.9,48.2h-1.4v-2.1
		c0-0.4-0.3-0.7-0.7-0.7h-0.9c-0.4,0-0.7,0.3-0.7,0.7c0,0.4,0.3,0.7,0.7,0.7h0.2v1.4H22.5v-1.4h0.2c0.4,0,0.7-0.3,0.7-0.7
		c0-0.4-0.3-0.7-0.7-0.7h-0.9c-0.4,0-0.7,0.3-0.7,0.7v2.1h-1.4v-6.4l1.4-1.4v0.2c0,1.1,0.9,2.1,2.1,2.1c1.1,0,2.1-0.9,2.1-2.1v-1.2
		h1.1h3.9h1.1v1.2c0,1.1,0.9,2.1,2.1,2.1c1.1,0,2.1-0.9,2.1-2.1v-0.2l1.4,1.4V48.2z M36.3,26.4l-1.8-1.8c-0.1-0.1-0.1-0.1-0.2-0.1
		c-0.1,0-0.2-0.1-0.3-0.1h-1.3v-1.1c1.3-1.2,2.1-2.9,2.1-4.8v-6.3c0-2.9-2.3-5.2-5.2-5.2H27c-2.9,0-5.2,2.3-5.2,5.2v6.3
		c0,1.9,0.8,3.6,2.1,4.8v1.1h-1.3c-0.2,0-0.4,0.1-0.5,0.2l-1.8,1.8c-4.2,0.2-7.6,3.6-7.6,7.9v14.6c0,0.4,0.3,0.7,0.7,0.7h29.7
		c0.4,0,0.7-0.3,0.7-0.7V34.3C43.9,30,40.5,26.6,36.3,26.4"/>
</g>
</svg>
