<?xml version="1.0" encoding="utf-8"?>
<!-- Generator: Adobe Illustrator 19.1.0, SVG Export Plug-In . SVG Version: 6.00 Build 0)  -->
<svg version="1.1" id="Layer_1" xmlns="http://www.w3.org/2000/svg" xmlns:xlink="http://www.w3.org/1999/xlink" x="0px" y="0px"
	 viewBox="0 0 56.7 56.7" style="enable-background:new 0 0 56.7 56.7;" xml:space="preserve">
<style type="text/css">
	.st0{fill:#231F20;}
	.st1{clip-path:url(#SVGID_2_);fill:#FFFFFF;}
	.st2{clip-path:url(#SVGID_2_);fill:#003E7E;}
	.st3{clip-path:url(#SVGID_2_);fill-rule:evenodd;clip-rule:evenodd;fill:#FFFFFF;}
	.st4{fill:#EFC10B;}
	.st5{fill:#D7D1CA;}
	.st6{opacity:0.9;clip-path:url(#SVGID_4_);}
	.st7{clip-path:url(#SVGID_6_);fill:none;stroke:#EAEFF2;stroke-miterlimit:10;}
	.st8{clip-path:url(#SVGID_8_);fill-rule:evenodd;clip-rule:evenodd;fill:#74A333;}
	.st9{clip-path:url(#SVGID_8_);fill:none;stroke:#FFFFFF;stroke-linejoin:bevel;stroke-miterlimit:10;}
	.st10{clip-path:url(#SVGID_8_);fill-rule:evenodd;clip-rule:evenodd;fill:#BEB7B3;}
	.st11{clip-path:url(#SVGID_8_);fill-rule:evenodd;clip-rule:evenodd;fill:#DAD6D3;}
	.st12{clip-path:url(#SVGID_8_);fill-rule:evenodd;clip-rule:evenodd;fill:#E1E776;}
	.st13{clip-path:url(#SVGID_8_);fill:#BFD22B;}
	.st14{fill:#554742;}
	.st15{fill:#877B77;}
	.st16{fill:#BEB7B3;}
	.st17{fill:#F1EEE8;}
	.st18{fill:#F7F5F1;}
	.st19{fill:#E1E776;}
	.st20{fill:#D0DC70;}
	.st21{fill:#BFD22B;}
	.st22{fill:#74A333;}
	.st23{fill:#EAEFF2;}
	.st24{fill:#58B6E7;}
	.st25{fill:#3A84B6;}
	.st26{fill:#003E7E;}
	.st27{fill:#DAD6D3;}
	.st28{fill:none;stroke:#231F20;stroke-width:1.5;stroke-linecap:round;stroke-miterlimit:10;}
	.st29{fill:none;stroke:#231F20;stroke-width:1.5;stroke-miterlimit:10;}
</style>
<g>
	<path d="M30.5,41.1c0.3,0,0.6-0.3,0.6-0.6c0-0.3-0.3-0.6-0.6-0.6h-1c-0.3,0-0.6,0.3-0.6,0.6c0,0.3,0.3,0.6,0.6,0.6H30.5z"/>
	<path d="M27,41.1c0.3,0,0.6-0.3,0.6-0.6c0-0.3-0.3-0.6-0.6-0.6h-1c-0.3,0-0.6,0.3-0.6,0.6c0,0.3,0.3,0.6,0.6,0.6H27z"/>
	<path d="M23.4,41.1c0.3,0,0.6-0.3,0.6-0.6c0-0.3-0.3-0.6-0.6-0.6h-1c-0.3,0-0.6,0.3-0.6,0.6c0,0.3,0.3,0.6,0.6,0.6H23.4z"/>
	<path d="M18.9,41.1h1c0.3,0,0.6-0.3,0.6-0.6c0-0.3-0.3-0.6-0.6-0.6h-1c-0.3,0-0.6,0.3-0.6,0.6C18.3,40.8,18.6,41.1,18.9,41.1"/>
	<path d="M37.6,41.1c0.3,0,0.6-0.3,0.6-0.6c0-0.3-0.3-0.6-0.6-0.6h-1c-0.3,0-0.6,0.3-0.6,0.6c0,0.3,0.3,0.6,0.6,0.6H37.6z"/>
	<path d="M34.1,41.1c0.3,0,0.6-0.3,0.6-0.6c0-0.3-0.3-0.6-0.6-0.6h-1c-0.3,0-0.6,0.3-0.6,0.6c0,0.3,0.3,0.6,0.6,0.6H34.1z"/>
	<path d="M41,36.6l-7.5-3.4c-0.2-0.1-0.4-0.1-0.6,0c-0.2,0.1-0.3,0.3-0.3,0.5v2.5l-6.6-3.1c-0.2-0.1-0.4-0.1-0.6,0
		c-0.2,0.1-0.3,0.3-0.3,0.5v2.5l-6.1-3c-0.2-0.1-0.4-0.1-0.6,0c-0.2,0.1-0.3,0.3-0.3,0.5v3.4c0,0.3,0.3,0.6,0.6,0.6
		c0.3,0,0.6-0.3,0.6-0.6v-2.5l6.1,3c0.2,0.1,0.4,0.1,0.6,0c0.2-0.1,0.3-0.3,0.3-0.5v-2.5l6.6,3.1c0,0,0,0,0,0c0.1,0,0.1,0,0.2,0.1
		c0,0,0,0,0,0h0h0c0.1,0,0.1,0,0.2,0c0,0,0,0,0.1,0c0,0,0.1-0.1,0.1-0.1c0,0,0,0,0,0c0,0,0.1-0.1,0.1-0.2c0,0,0,0,0,0
		c0,0,0-0.1,0-0.1c0,0,0-0.1,0-0.1c0,0,0,0,0,0v-2.5l6.3,2.9v7.6h-6.6c0,0-0.1,0-0.1,0c0,0-0.1,0-0.1,0H16.5V28.6h1.8v2.5
		c0,0.3,0.3,0.6,0.6,0.6c0.3,0,0.6-0.3,0.6-0.6v-3.1c0-0.3-0.3-0.6-0.6-0.6h-3c-0.3,0-0.6,0.3-0.6,0.6v17.6c0,0.3,0.3,0.6,0.6,0.6
		h17.4c0,0,0.1,0,0.1,0c0,0,0.1,0,0.1,0h7.2c0.3,0,0.6-0.3,0.6-0.6v-8.6C41.4,36.9,41.2,36.7,41,36.6"/>
	<path d="M17.4,26c0.3,0,0.6-0.3,0.6-0.6v-1.9h9.7c6.9,0,12.5-5.6,12.5-12.5c0-0.3-0.3-0.6-0.6-0.6H29.3c-6.7,0-12.1,5.2-12.5,11.8
		c0,0.2,0,0.4,0,0.7v2.5C16.8,25.8,17.1,26,17.4,26 M29.3,11.6h9.7c-0.3,6-5.3,10.7-11.3,10.7h-9.7c0.2-1.6,1.1-3.1,2.4-3.9l1.7,1.7
		c0.1,0.1,0.3,0.2,0.4,0.2c0.2,0,0.3-0.1,0.4-0.2c0.2-0.2,0.2-0.6,0-0.8l-1.5-1.5c0.6-0.2,1.2-0.3,1.8-0.3l3.1,3.1
		c0.1,0.1,0.3,0.2,0.4,0.2c0.1,0,0.3-0.1,0.4-0.2c0.2-0.2,0.2-0.6,0-0.8L25,17.6h2.2L30,20c0.1,0.1,0.3,0.1,0.4,0.1
		c0.2,0,0.3-0.1,0.4-0.2c0.2-0.2,0.2-0.6,0-0.8L29,17.6h0.6c0.9,0,1.8-0.1,2.7-0.3c0.3-0.1,0.5-0.4,0.4-0.7
		c-0.1-0.3-0.3-0.4-0.6-0.4c0,0-0.1,0-0.1,0c-0.8,0.2-1.6,0.3-2.4,0.3h-0.8l1.7-2c0.2-0.2,0.2-0.6,0-0.8c-0.2-0.2-0.6-0.2-0.8,0
		l-2.4,2.7H25l2.3-2.3c0.2-0.2,0.2-0.6,0-0.8c-0.2-0.2-0.6-0.2-0.8,0l-3.1,3.1c-0.3,0-0.5,0-0.7,0l0.4-0.4c0.2-0.2,0.2-0.6,0-0.8
		c-0.2-0.2-0.6-0.2-0.8,0l-2.1,2.1c0,0,0,0,0,0c-0.3,0.2-0.6,0.4-0.9,0.6C21.1,14.2,24.9,11.6,29.3,11.6"/>
	<path d="M33.8,16.7c0.1,0,0.2,0,0.2-0.1c0.3-0.1,0.4-0.5,0.3-0.8c-0.1-0.2-0.3-0.3-0.5-0.3c-0.1,0-0.2,0-0.2,0.1
		c-0.1,0.1-0.2,0.2-0.3,0.3c-0.1,0.2,0,0.3,0,0.5C33.3,16.5,33.5,16.7,33.8,16.7"/>
</g>
</svg>
