<?xml version="1.0" encoding="utf-8"?>
<!-- Generator: Adobe Illustrator 19.1.0, SVG Export Plug-In . SVG Version: 6.00 Build 0)  -->
<svg version="1.1" id="Layer_1" xmlns="http://www.w3.org/2000/svg" xmlns:xlink="http://www.w3.org/1999/xlink" x="0px" y="0px"
	 viewBox="0 0 56.7 56.7" style="enable-background:new 0 0 56.7 56.7;" xml:space="preserve">
<style type="text/css">
	.st0{fill:#231F20;}
	.st1{clip-path:url(#SVGID_2_);fill:#FFFFFF;}
	.st2{clip-path:url(#SVGID_2_);fill:#003E7E;}
	.st3{clip-path:url(#SVGID_2_);fill-rule:evenodd;clip-rule:evenodd;fill:#FFFFFF;}
	.st4{fill:#EFC10B;}
	.st5{fill:#D7D1CA;}
	.st6{opacity:0.9;clip-path:url(#SVGID_4_);}
	.st7{clip-path:url(#SVGID_6_);fill:none;stroke:#EAEFF2;stroke-miterlimit:10;}
	.st8{clip-path:url(#SVGID_8_);fill-rule:evenodd;clip-rule:evenodd;fill:#74A333;}
	.st9{clip-path:url(#SVGID_8_);fill:none;stroke:#FFFFFF;stroke-linejoin:bevel;stroke-miterlimit:10;}
	.st10{clip-path:url(#SVGID_8_);fill-rule:evenodd;clip-rule:evenodd;fill:#BEB7B3;}
	.st11{clip-path:url(#SVGID_8_);fill-rule:evenodd;clip-rule:evenodd;fill:#DAD6D3;}
	.st12{clip-path:url(#SVGID_8_);fill-rule:evenodd;clip-rule:evenodd;fill:#E1E776;}
	.st13{clip-path:url(#SVGID_8_);fill:#BFD22B;}
	.st14{fill:#554742;}
	.st15{fill:#877B77;}
	.st16{fill:#BEB7B3;}
	.st17{fill:#F1EEE8;}
	.st18{fill:#F7F5F1;}
	.st19{fill:#E1E776;}
	.st20{fill:#D0DC70;}
	.st21{fill:#BFD22B;}
	.st22{fill:#74A333;}
	.st23{fill:#EAEFF2;}
	.st24{fill:#58B6E7;}
	.st25{fill:#3A84B6;}
	.st26{fill:#003E7E;}
	.st27{fill:#DAD6D3;}
	.st28{fill:none;stroke:#231F20;stroke-width:1.5;stroke-linecap:round;stroke-miterlimit:10;}
	.st29{fill:none;stroke:#231F20;stroke-width:1.5;stroke-miterlimit:10;}
</style>
<g>
	<path class="st0" d="M38,45.5v-1.4h1.1c0.4,0,0.7-0.3,0.7-0.7s-0.3-0.7-0.7-0.7H38v-1.4h5.6v1.4h-1.2c-0.4,0-0.7,0.3-0.7,0.7
		s0.3,0.7,0.7,0.7h1.2v1.4H38z M42.2,48.2H38v-1.4h4.2V48.2z M14.5,46.8h4.2v1.4h-4.2V46.8z M13.1,41.3h5.6v1.4h-1.6
		c-0.4,0-0.7,0.3-0.7,0.7s0.3,0.7,0.7,0.7h1.6v1.4h-5.6V41.3z M14.5,34c0-3.3,2.7-6.1,6-6.2l5.5,5.5l1.5,1.5l-1.5,1.5
		c-0.1,0.1-0.2,0.3-0.2,0.5v11.5H20v-2.1v-5.5V35c0-0.1,0-0.2-0.1-0.3c0-0.1-0.1-0.2-0.1-0.2l-1.7-1.7c-0.3-0.3-0.7-0.3-1,0
		c-0.3,0.3-0.3,0.7,0,1l1.5,1.5v4.6h-4.2V34z M22.7,26.1l1.5,1.5l3.3,3.3l-1,1l-4.7-4.7L22.7,26.1z M28.4,25.1
		c1.1,0,2.1-0.3,3.1-0.8v2.4l-3.1,3.1l-3.1-3.1v-2.4C26.2,24.9,27.3,25.1,28.4,25.1 M23.2,18.6v-3.7c1-0.6,1.9-1.4,2.5-2.4
		c1.7,0.8,3.7,0.8,5.4,0c0.6,1,1.5,1.8,2.5,2.4v3.7c0,2.9-2.3,5.2-5.2,5.2C25.5,23.8,23.2,21.4,23.2,18.6 M27,8.5h2.7
		c2.1,0,3.8,1.7,3.8,3.8v0.9c-0.7-0.5-1.2-1.2-1.6-2c-0.1-0.2-0.2-0.3-0.4-0.4c-0.2-0.1-0.4,0-0.6,0.1c-1.6,0.9-3.7,0.9-5.3,0
		c-0.2-0.1-0.4-0.1-0.6-0.1c-0.2,0.1-0.3,0.2-0.4,0.4c-0.4,0.8-0.9,1.4-1.6,2v-0.9C23.2,10.2,24.9,8.5,27,8.5 M30.3,31.8l-1-1
		l3.3-3.3l1.5-1.5l1,1L30.3,31.8z M42.2,34v6H38v-4.6l1.5-1.5c0.3-0.3,0.3-0.7,0-1c-0.3-0.3-0.7-0.3-1,0l-1.7,1.7
		c-0.1,0.1-0.1,0.1-0.1,0.2c0,0.1-0.1,0.2-0.1,0.3v5.6v5.5v2.1H31V36.7c0-0.2-0.1-0.4-0.2-0.5l-1.5-1.5l1.5-1.5l5.5-5.5
		C39.6,27.9,42.2,30.7,42.2,34 M44.3,39.9h-0.7v-6c0-4.1-3.2-7.4-7.3-7.6l-1.8-1.8c-0.1-0.1-0.1-0.1-0.2-0.1c-0.1,0-0.2-0.1-0.3-0.1
		h-1.3v-1.1c1.3-1.2,2.1-2.9,2.1-4.8v-6.3c0-2.9-2.3-5.2-5.2-5.2H27c-2.9,0-5.2,2.3-5.2,5.2v6.3c0,1.9,0.8,3.6,2.1,4.8v1.1h-1.3
		c0,0,0,0,0,0c-0.1,0-0.2,0-0.2,0c-0.1,0-0.2,0.1-0.2,0.1l-1.8,1.8c-4.1,0.2-7.3,3.5-7.3,7.6v5.9h-0.7c-0.4,0-0.7,0.3-0.7,0.7v5.5
		c0,0.4,0.3,0.7,0.7,0.7h0.7v2.1c0,0.4,0.3,0.7,0.7,0.7h12.6h3.9h12.6c0.4,0,0.7-0.3,0.7-0.7v-2.1h0.7c0.4,0,0.7-0.3,0.7-0.7v-5.5
		C45,40.3,44.7,39.9,44.3,39.9"/>
	<path class="st0" d="M14.8,44.1c0.2,0,0.4-0.1,0.5-0.2c0.1-0.1,0.2-0.3,0.2-0.5c0-0.2-0.1-0.4-0.2-0.5c-0.3-0.3-0.7-0.3-1,0
		c-0.1,0.1-0.2,0.3-0.2,0.5c0,0.2,0.1,0.3,0.2,0.5C14.4,44,14.6,44.1,14.8,44.1"/>
</g>
</svg>
