<?xml version="1.0" encoding="utf-8"?>
<!-- Generator: Adobe Illustrator 19.1.0, SVG Export Plug-In . SVG Version: 6.00 Build 0)  -->
<svg version="1.1" id="Layer_1" xmlns="http://www.w3.org/2000/svg" xmlns:xlink="http://www.w3.org/1999/xlink" x="0px" y="0px"
	 viewBox="0 0 56.7 56.7" style="enable-background:new 0 0 56.7 56.7;" xml:space="preserve">
<style type="text/css">
	.st0{fill:#231F20;}
	.st1{clip-path:url(#SVGID_2_);fill:#FFFFFF;}
	.st2{clip-path:url(#SVGID_2_);fill:#003E7E;}
	.st3{clip-path:url(#SVGID_2_);fill-rule:evenodd;clip-rule:evenodd;fill:#FFFFFF;}
	.st4{fill:#EFC10B;}
	.st5{fill:#D7D1CA;}
	.st6{opacity:0.9;clip-path:url(#SVGID_4_);}
	.st7{clip-path:url(#SVGID_6_);fill:none;stroke:#EAEFF2;stroke-miterlimit:10;}
	.st8{clip-path:url(#SVGID_8_);fill-rule:evenodd;clip-rule:evenodd;fill:#74A333;}
	.st9{clip-path:url(#SVGID_8_);fill:none;stroke:#FFFFFF;stroke-linejoin:bevel;stroke-miterlimit:10;}
	.st10{clip-path:url(#SVGID_8_);fill-rule:evenodd;clip-rule:evenodd;fill:#BEB7B3;}
	.st11{clip-path:url(#SVGID_8_);fill-rule:evenodd;clip-rule:evenodd;fill:#DAD6D3;}
	.st12{clip-path:url(#SVGID_8_);fill-rule:evenodd;clip-rule:evenodd;fill:#E1E776;}
	.st13{clip-path:url(#SVGID_8_);fill:#BFD22B;}
	.st14{fill:#554742;}
	.st15{fill:#877B77;}
	.st16{fill:#BEB7B3;}
	.st17{fill:#F1EEE8;}
	.st18{fill:#F7F5F1;}
	.st19{fill:#E1E776;}
	.st20{fill:#D0DC70;}
	.st21{fill:#BFD22B;}
	.st22{fill:#74A333;}
	.st23{fill:#EAEFF2;}
	.st24{fill:#58B6E7;}
	.st25{fill:#3A84B6;}
	.st26{fill:#003E7E;}
	.st27{fill:#DAD6D3;}
	.st28{fill:none;stroke:#231F20;stroke-width:1.5;stroke-linecap:round;stroke-miterlimit:10;}
	.st29{fill:none;stroke:#231F20;stroke-width:1.5;stroke-miterlimit:10;}
</style>
<g>
	<path class="st0" d="M34.3,32.9l2.8-1.6l2.8,1.6v8.9h-5.6V32.9z M31.4,41.9h-5.6v-8.9l2.8-1.6l2.8,1.6V41.9z M22.9,41.9h-5.6v-8.9
		l2.8-1.6l2.8,1.6V41.9z M40.6,32.2l-3-1.7v-1h2.7c0.3,0,0.5-0.2,0.5-0.5c0-0.3-0.2-0.5-0.5-0.5H29.1v-0.9c0-0.8-0.4-1.5-1-1.9
		l-11.9-8.4c-0.4-0.3-0.9-0.4-1.3-0.4H13c-0.3,0-0.5,0.2-0.5,0.5s0.2,0.5,0.5,0.5h1.8c0.3,0,0.6,0.1,0.8,0.3l11.9,8.4
		c0.4,0.3,0.6,0.7,0.6,1.1v0.9H16.3c-1,0-1.8,0.8-1.8,1.8v13.2c0,0.3,0.2,0.5,0.5,0.5c0.3,0,0.5-0.2,0.5-0.5V30.4
		c0-0.5,0.4-0.9,0.9-0.9h3.4l0,1l-3,1.7c-0.2,0.1-0.2,0.2-0.2,0.4v9.7c0,0,0,0,0,0.1c0,0,0,0,0,0.1v1.2c0,0.3,0.2,0.5,0.5,0.5
		s0.5-0.2,0.5-0.5v-0.8h5.6v0.8c0,0.3,0.2,0.5,0.5,0.5c0.3,0,0.5-0.2,0.5-0.5v-1.2c0,0,0,0,0-0.1c0,0,0,0,0-0.1v-9.7
		c0-0.2-0.1-0.3-0.2-0.4l-3-1.7l0-1h7.5l0,1l-3,1.7c-0.2,0.1-0.2,0.2-0.2,0.4v9.7c0,0,0,0,0,0.1c0,0,0,0,0,0.1v1.2
		c0,0.3,0.2,0.5,0.5,0.5c0.3,0,0.5-0.2,0.5-0.5v-0.8h5.6v0.8c0,0.3,0.2,0.5,0.5,0.5c0.3,0,0.5-0.2,0.5-0.5v-1.2c0,0,0,0,0-0.1
		c0,0,0,0,0-0.1v-9.7c0-0.2-0.1-0.3-0.2-0.4l-3-1.7l0-1h7.5v1l-3,1.7c-0.2,0.1-0.2,0.2-0.2,0.4v9.7c0,0,0,0,0,0.1c0,0,0,0,0,0.1v1.2
		c0,0.3,0.2,0.5,0.5,0.5c0.3,0,0.5-0.2,0.5-0.5v-0.8h5.6v0.8c0,0.3,0.2,0.5,0.5,0.5c0.3,0,0.5-0.2,0.5-0.5v-1.2c0,0,0,0,0-0.1
		c0,0,0,0,0-0.1v-9.7C40.8,32.5,40.7,32.3,40.6,32.2"/>
	<path class="st0" d="M45.2,23.3h0.9V34h-0.9V23.3z M50.2,34H47V22.8c0-0.3-0.2-0.5-0.5-0.5h-1.9c-0.3,0-0.5,0.2-0.5,0.5V34h-2
		c-0.3,0-0.5,0.2-0.5,0.5c0,0.3,0.2,0.5,0.5,0.5h2.5h1.9h3.2v1.1h-7.5c-0.3,0-0.5,0.2-0.5,0.5c0,0.3,0.2,0.5,0.5,0.5h7.5v6.1h-7.5
		c-0.3,0-0.5,0.2-0.5,0.5s0.2,0.5,0.5,0.5h8c0.3,0,0.5-0.2,0.5-0.5v-7.1v-2.1C50.7,34.2,50.5,34,50.2,34"/>
	<path class="st0" d="M44,18c0.6,0,1.2,0.5,1.2,1.2v1.8c0,0.3,0.2,0.5,0.5,0.5c0.3,0,0.5-0.2,0.5-0.5v-1.8c0-1.2-1-2.1-2.1-2.1h-1.6
		c-0.1-1-0.9-1.7-1.8-1.7c-0.2-1.5-1.6-2.7-3.2-2.7h-1.1c-1.3,0-2.6,0.8-3.1,2c-0.1,0.2,0,0.5,0.2,0.6c0.2,0.1,0.5,0,0.6-0.2
		c0.4-0.9,1.3-1.4,2.2-1.4h1.1c1.1,0,2,0.8,2.2,1.8H39c-0.3,0-0.5,0.2-0.5,0.5s0.2,0.5,0.5,0.5h1.5c0.5,0,0.9,0.4,0.9,0.9v0.4
		c0,0.3,0.2,0.5,0.5,0.5H44z"/>
	<path class="st0" d="M33.4,17.1c0.3,0,0.5-0.2,0.5-0.5c0-0.3-0.2-0.5-0.5-0.5c-0.3,0-0.5,0.2-0.5,0.5
		C32.9,16.9,33.1,17.1,33.4,17.1"/>
	<path class="st0" d="M7,19.9c1.9-0.9,3.7-0.9,5.5,0v22H7V19.9z M13.2,19.2c-0.6-0.3-1.2-0.6-1.8-0.7c0.1-0.2,0.2-0.5,0.2-0.8v-1.5
		c0-0.3-0.2-0.5-0.5-0.5c-0.3,0-0.5,0.2-0.5,0.5v1.5c0,0.3-0.3,0.6-0.6,0.6H9.4c-0.3,0-0.6-0.3-0.6-0.6v-1.5c0-0.3-0.2-0.5-0.5-0.5
		c-0.3,0-0.5,0.2-0.5,0.5v1.5c0,0.3,0.1,0.6,0.2,0.8c-0.6,0.2-1.2,0.4-1.8,0.7C6.1,19.3,6,19.4,6,19.6v22.7v1.3
		c0,0.3,0.2,0.5,0.5,0.5S7,43.9,7,43.7v-0.8h5.5v0.8c0,0.3,0.2,0.5,0.5,0.5c0.3,0,0.5-0.2,0.5-0.5v-1.3V19.6
		C13.5,19.4,13.4,19.3,13.2,19.2"/>
</g>
</svg>
