<?xml version="1.0" encoding="utf-8"?>
<!-- Generator: Adobe Illustrator 19.1.0, SVG Export Plug-In . SVG Version: 6.00 Build 0)  -->
<svg version="1.1" id="Layer_1" xmlns="http://www.w3.org/2000/svg" xmlns:xlink="http://www.w3.org/1999/xlink" x="0px" y="0px"
	 viewBox="0 0 56.7 56.7" style="enable-background:new 0 0 56.7 56.7;" xml:space="preserve">
<style type="text/css">
	.st0{fill:#231F20;}
	.st1{clip-path:url(#SVGID_2_);fill:#FFFFFF;}
	.st2{clip-path:url(#SVGID_2_);fill:#003E7E;}
	.st3{clip-path:url(#SVGID_2_);fill-rule:evenodd;clip-rule:evenodd;fill:#FFFFFF;}
	.st4{fill:#EFC10B;}
	.st5{fill:#D7D1CA;}
	.st6{opacity:0.9;clip-path:url(#SVGID_4_);}
	.st7{clip-path:url(#SVGID_6_);fill:none;stroke:#EAEFF2;stroke-miterlimit:10;}
	.st8{clip-path:url(#SVGID_8_);fill-rule:evenodd;clip-rule:evenodd;fill:#74A333;}
	.st9{clip-path:url(#SVGID_8_);fill:none;stroke:#FFFFFF;stroke-linejoin:bevel;stroke-miterlimit:10;}
	.st10{clip-path:url(#SVGID_8_);fill-rule:evenodd;clip-rule:evenodd;fill:#BEB7B3;}
	.st11{clip-path:url(#SVGID_8_);fill-rule:evenodd;clip-rule:evenodd;fill:#DAD6D3;}
	.st12{clip-path:url(#SVGID_8_);fill-rule:evenodd;clip-rule:evenodd;fill:#E1E776;}
	.st13{clip-path:url(#SVGID_8_);fill:#BFD22B;}
	.st14{fill:#554742;}
	.st15{fill:#877B77;}
	.st16{fill:#BEB7B3;}
	.st17{fill:#F1EEE8;}
	.st18{fill:#F7F5F1;}
	.st19{fill:#E1E776;}
	.st20{fill:#D0DC70;}
	.st21{fill:#BFD22B;}
	.st22{fill:#74A333;}
	.st23{fill:#EAEFF2;}
	.st24{fill:#58B6E7;}
	.st25{fill:#3A84B6;}
	.st26{fill:#003E7E;}
	.st27{fill:#DAD6D3;}
	.st28{fill:none;stroke:#231F20;stroke-width:1.5;stroke-linecap:round;stroke-miterlimit:10;}
	.st29{fill:none;stroke:#231F20;stroke-width:1.5;stroke-miterlimit:10;}
</style>
<g>
	<path d="M37.6,14H19.1c-1.4,0-2.5,1.1-2.5,2.5v23.8c0,1.4,1.1,2.5,2.5,2.5h18.6c1.4,0,2.5-1.1,2.5-2.5V16.5
		C40.2,15.1,39,14,37.6,14 M38.8,40.2c0,0.6-0.5,1.2-1.1,1.2H19.1c-0.6,0-1.1-0.5-1.1-1.2V16.5c0-0.6,0.5-1.2,1.1-1.2h18.6
		c0.6,0,1.1,0.5,1.1,1.2V40.2z"/>
	<path d="M22.6,37.4c-0.1,0.1-0.2,0.3-0.2,0.5c0,0.2,0.1,0.4,0.2,0.5c0.1,0.1,0.3,0.2,0.5,0.2c0.2,0,0.4-0.1,0.5-0.2
		c0.1-0.1,0.2-0.3,0.2-0.5c0-0.2-0.1-0.4-0.2-0.5C23.4,37.2,22.9,37.2,22.6,37.4"/>
	<path d="M29.4,37.2c-0.4,0-0.7,0.3-0.7,0.7c0,0.4,0.3,0.7,0.7,0.7c0.4,0,0.7-0.3,0.7-0.7C30.1,37.5,29.8,37.2,29.4,37.2"/>
	<path d="M27.3,37.2c-0.4,0-0.7,0.3-0.7,0.7c0,0.4,0.3,0.7,0.7,0.7c0.4,0,0.7-0.3,0.7-0.7C28,37.5,27.7,37.2,27.3,37.2"/>
	<path d="M25.2,37.2c-0.4,0-0.7,0.3-0.7,0.7c0,0.4,0.3,0.7,0.7,0.7c0.4,0,0.7-0.3,0.7-0.7C25.9,37.5,25.6,37.2,25.2,37.2"/>
	<path d="M31.5,37.2c-0.4,0-0.7,0.3-0.7,0.7c0,0.4,0.3,0.7,0.7,0.7c0.4,0,0.7-0.3,0.7-0.7C32.2,37.5,31.8,37.2,31.5,37.2"/>
	<path d="M33.1,37.4c-0.1,0.1-0.2,0.3-0.2,0.5c0,0.2,0.1,0.4,0.2,0.5c0.1,0.1,0.3,0.2,0.5,0.2c0.2,0,0.4-0.1,0.5-0.2
		c0.1-0.1,0.2-0.3,0.2-0.5c0-0.2-0.1-0.4-0.2-0.5C33.8,37.2,33.3,37.2,33.1,37.4"/>
	<g>
		<path d="M27.5,23.3h-1.3v-2.5c0-0.3,0-0.6,0-0.8c-0.1,0.1-0.2,0.2-0.3,0.3l-0.5,0.5l-0.7-0.8l1.7-1.3h1.2V23.3z"/>
		<path d="M30.5,20.2c0.3,0,0.5,0.1,0.7,0.2c0.2,0.1,0.4,0.3,0.5,0.5c0.1,0.2,0.2,0.5,0.2,0.8c0,0.5-0.2,1-0.5,1.2s-0.8,0.4-1.5,0.4
			c-0.6,0-1-0.1-1.4-0.3v-1.1c0.2,0.1,0.4,0.2,0.6,0.2c0.2,0.1,0.4,0.1,0.6,0.1c0.2,0,0.4-0.1,0.6-0.2c0.1-0.1,0.2-0.3,0.2-0.5
			c0-0.2-0.1-0.3-0.2-0.4c-0.1-0.1-0.3-0.2-0.6-0.2c-0.2,0-0.4,0-0.7,0.1l-0.5-0.2l0.2-2.5h2.7v1.1H30L30,20.2
			c0.2,0,0.3-0.1,0.4-0.1C30.4,20.2,30.5,20.2,30.5,20.2z"/>
	</g>
	<g>
		<path d="M31.7,28.4c0,1-0.3,1.7-0.9,2.2c-0.6,0.5-1.5,0.8-2.7,0.8h-1v3.4h-1.5v-9.2h2.6c1.1,0,2,0.2,2.6,0.7
			C31.4,26.8,31.7,27.5,31.7,28.4z M27.1,30.1h0.8c0.8,0,1.3-0.1,1.7-0.4c0.4-0.3,0.5-0.7,0.5-1.3c0-0.5-0.2-0.9-0.5-1.2
			c-0.3-0.3-0.8-0.4-1.5-0.4h-1V30.1z"/>
	</g>
</g>
</svg>
