<?xml version="1.0" encoding="utf-8"?>
<!-- Generator: Adobe Illustrator 19.1.0, SVG Export Plug-In . SVG Version: 6.00 Build 0)  -->
<svg version="1.1" id="Layer_1" xmlns="http://www.w3.org/2000/svg" xmlns:xlink="http://www.w3.org/1999/xlink" x="0px" y="0px"
	 viewBox="0 0 56.7 56.7" style="enable-background:new 0 0 56.7 56.7;" xml:space="preserve">
<style type="text/css">
	.st0{fill:#231F20;}
	.st1{clip-path:url(#SVGID_2_);fill:#FFFFFF;}
	.st2{clip-path:url(#SVGID_2_);fill:#003E7E;}
	.st3{clip-path:url(#SVGID_2_);fill-rule:evenodd;clip-rule:evenodd;fill:#FFFFFF;}
	.st4{fill:#EFC10B;}
	.st5{fill:#D7D1CA;}
	.st6{opacity:0.9;clip-path:url(#SVGID_4_);}
	.st7{clip-path:url(#SVGID_6_);fill:none;stroke:#EAEFF2;stroke-miterlimit:10;}
	.st8{clip-path:url(#SVGID_8_);fill-rule:evenodd;clip-rule:evenodd;fill:#74A333;}
	.st9{clip-path:url(#SVGID_8_);fill:none;stroke:#FFFFFF;stroke-linejoin:bevel;stroke-miterlimit:10;}
	.st10{clip-path:url(#SVGID_8_);fill-rule:evenodd;clip-rule:evenodd;fill:#BEB7B3;}
	.st11{clip-path:url(#SVGID_8_);fill-rule:evenodd;clip-rule:evenodd;fill:#DAD6D3;}
	.st12{clip-path:url(#SVGID_8_);fill-rule:evenodd;clip-rule:evenodd;fill:#E1E776;}
	.st13{clip-path:url(#SVGID_8_);fill:#BFD22B;}
	.st14{fill:#554742;}
	.st15{fill:#877B77;}
	.st16{fill:#BEB7B3;}
	.st17{fill:#F1EEE8;}
	.st18{fill:#F7F5F1;}
	.st19{fill:#E1E776;}
	.st20{fill:#D0DC70;}
	.st21{fill:#BFD22B;}
	.st22{fill:#74A333;}
	.st23{fill:#EAEFF2;}
	.st24{fill:#58B6E7;}
	.st25{fill:#3A84B6;}
	.st26{fill:#003E7E;}
	.st27{fill:#DAD6D3;}
	.st28{fill:none;stroke:#231F20;stroke-width:1.5;stroke-linecap:round;stroke-miterlimit:10;}
	.st29{fill:none;stroke:#231F20;stroke-width:1.5;stroke-miterlimit:10;}
</style>
<g>
	<path class="st0" d="M29.5,9.2c-0.4,0-0.7,0.3-0.7,0.7v2.7c0,0.4,0.3,0.7,0.7,0.7c0.4,0,0.7-0.3,0.7-0.7V9.9
		C30.2,9.5,29.9,9.2,29.5,9.2"/>
	<path class="st0" d="M32.5,11.2c-0.1-0.4-0.5-0.6-0.9-0.4c-0.4,0.1-0.6,0.5-0.4,0.9l0.4,1.1c0.1,0.3,0.4,0.5,0.7,0.5
		c0.1,0,0.1,0,0.2,0c0.4-0.1,0.6-0.5,0.4-0.9L32.5,11.2z"/>
	<path class="st0" d="M27.3,10.8c-0.4-0.1-0.8,0.1-0.9,0.4l-0.4,1.1c-0.1,0.4,0.1,0.8,0.4,0.9c0.1,0,0.1,0,0.2,0
		c0.3,0,0.6-0.2,0.7-0.5l0.4-1.1C27.9,11.3,27.7,10.9,27.3,10.8"/>
	<path class="st0" d="M39.2,45.5v-1.4h1.2c0.4,0,0.7-0.3,0.7-0.7s-0.3-0.7-0.7-0.7h-1.2v-1.4h5.6v1.4h-1.2c-0.4,0-0.7,0.3-0.7,0.7
		s0.3,0.7,0.7,0.7h1.2v1.4H39.2z M43.4,48.2h-4.2v-1.4h4.2V48.2z M15.6,46.8h4.2v1.4h-4.2V46.8z M14.2,41.3h5.6v1.4h-1.6
		c-0.4,0-0.7,0.3-0.7,0.7s0.3,0.7,0.7,0.7h1.6v1.4h-5.6V41.3z M15.6,34c0-3.3,2.7-6.1,6-6.2l5.5,5.5c0.1,0.1,0.3,0.2,0.5,0.2
		c0.2,0,0.4-0.1,0.5-0.2l0.8-0.8v15.7h-7.6v-2.1v-5.5V35c0-0.1,0-0.2-0.1-0.3c0-0.1-0.1-0.2-0.1-0.2l-1.7-1.7c-0.3-0.3-0.7-0.3-1,0
		c-0.3,0.3-0.3,0.7,0,1l1.5,1.5v4.6h-4.2V34z M23.8,26.1l1.5,1.5l3.3,3.3l-1,1l-4.7-4.7L23.8,26.1z M29.5,25.1
		c1.1,0,2.1-0.3,3.1-0.8v2.4l-3.1,3.1l-0.7-0.7l-2.4-2.4v-2.4C27.4,24.9,28.4,25.1,29.5,25.1 M24.3,18.6v-2.7h10.4v2.7
		c0,2.9-2.3,5.2-5.2,5.2C26.7,23.8,24.3,21.4,24.3,18.6 M24.3,13.9c0-2.9,2.3-5.4,5-5.4l0.2,0c2.9,0,5.2,2.3,5.2,5.2
		c0,0.3,0.1,0.5,0.2,0.8H24.2C24.3,14.3,24.3,14.1,24.3,13.9 M31.5,31.8l-1-1l3.3-3.3l1.5-1.5l1,1L31.5,31.8z M43.4,34v6h-4.2v-4.6
		l1.5-1.5c0.3-0.3,0.3-0.7,0-1c-0.3-0.3-0.7-0.3-1,0L38,34.6c-0.1,0.1-0.1,0.1-0.1,0.2c0,0.1-0.1,0.2-0.1,0.3v1h-3.6
		c-0.4,0-0.7,0.3-0.7,0.7v5.2c0,1.2,1,2.2,2.2,2.2c0.4,0,0.7-0.3,0.7-0.7s-0.3-0.7-0.7-0.7c-0.4,0-0.8-0.4-0.8-0.8v-4.5h2.9v3.2v5.5
		v2.1h-7.6V32.5l0.8,0.8c0.1,0.1,0.3,0.2,0.5,0.2c0.2,0,0.4-0.1,0.5-0.2l5.5-5.5C40.7,27.9,43.4,30.7,43.4,34 M45.4,39.9h-0.7v-6
		c0-4.1-3.2-7.4-7.3-7.6l-1.8-1.8c-0.1-0.1-0.1-0.1-0.2-0.1c-0.1,0-0.2-0.1-0.3-0.1H34v-1.1c1.3-1.2,2.1-2.9,2.1-4.8v-2.7h1.2
		c0.4,0,0.7-0.3,0.7-0.7s-0.3-0.7-0.7-0.7h-0.4c-0.4,0-0.8-0.4-0.8-0.8c0-3.6-2.9-6.6-6.6-6.6l-0.2,0c-3.5,0.1-6.4,3.2-6.4,6.8
		c0,0.3-0.2,0.5-0.5,0.5h-0.6c-0.4,0-0.7,0.3-0.7,0.7s0.3,0.7,0.7,0.7h1.2v2.7c0,1.9,0.8,3.6,2.1,4.8v1.1h-1.3c-0.1,0-0.2,0-0.3,0.1
		c-0.1,0-0.2,0.1-0.2,0.1l-1.8,1.8c-4.1,0.2-7.3,3.5-7.3,7.6v5.9h-0.7c-0.4,0-0.7,0.3-0.7,0.7v5.5c0,0.4,0.3,0.7,0.7,0.7h0.7v2.1
		c0,0.4,0.3,0.7,0.7,0.7h29.1c0.4,0,0.7-0.3,0.7-0.7v-2.1h0.7c0.4,0,0.7-0.3,0.7-0.7v-5.5C46.1,40.3,45.8,39.9,45.4,39.9"/>
	<path class="st0" d="M15.9,44.1c0.2,0,0.3-0.1,0.5-0.2c0.1-0.1,0.2-0.3,0.2-0.5c0-0.2-0.1-0.4-0.2-0.5c-0.3-0.3-0.7-0.3-1,0
		c-0.1,0.1-0.2,0.3-0.2,0.5c0,0.2,0.1,0.3,0.2,0.5C15.5,44,15.7,44.1,15.9,44.1"/>
	<path class="st0" d="M26.8,35.7c0.2,0,0.4-0.1,0.5-0.2c0.1-0.1,0.2-0.3,0.2-0.5c0-0.2-0.1-0.4-0.2-0.5c-0.3-0.3-0.7-0.3-1,0
		c-0.1,0.1-0.2,0.3-0.2,0.5c0,0.2,0.1,0.4,0.2,0.5C26.4,35.7,26.6,35.7,26.8,35.7"/>
	<path class="st0" d="M26.8,44.1c0.4,0,0.7-0.3,0.7-0.7c0-0.4-0.3-0.7-0.7-0.7c-0.4,0-0.7,0.3-0.7,0.7
		C26.1,43.8,26.4,44.1,26.8,44.1"/>
	<path class="st0" d="M26.8,38.5c0.4,0,0.7-0.3,0.7-0.7c0-0.4-0.3-0.7-0.7-0.7c-0.4,0-0.7,0.3-0.7,0.7
		C26.1,38.2,26.4,38.5,26.8,38.5"/>
	<path class="st0" d="M26.8,41.3c0.4,0,0.7-0.3,0.7-0.7c0-0.4-0.3-0.7-0.7-0.7c-0.4,0-0.7,0.3-0.7,0.7C26.1,41,26.4,41.3,26.8,41.3"
		/>
	<path class="st0" d="M26.8,46.9c0.2,0,0.4-0.1,0.5-0.2c0.1-0.1,0.2-0.3,0.2-0.5c0-0.2-0.1-0.4-0.2-0.5c-0.3-0.2-0.7-0.3-1,0
		c-0.1,0.1-0.2,0.3-0.2,0.5c0,0.2,0.1,0.3,0.2,0.5C26.4,46.8,26.6,46.9,26.8,46.9"/>
</g>
</svg>
