<?xml version="1.0" encoding="utf-8"?>
<!-- Generator: Adobe Illustrator 19.1.0, SVG Export Plug-In . SVG Version: 6.00 Build 0)  -->
<svg version="1.1" id="Layer_1" xmlns="http://www.w3.org/2000/svg" xmlns:xlink="http://www.w3.org/1999/xlink" x="0px" y="0px"
	 viewBox="0 0 56.7 56.7" style="enable-background:new 0 0 56.7 56.7;" xml:space="preserve">
<style type="text/css">
	.st0{fill:#231F20;}
	.st1{clip-path:url(#SVGID_2_);fill:#FFFFFF;}
	.st2{clip-path:url(#SVGID_2_);fill:#003E7E;}
	.st3{clip-path:url(#SVGID_2_);fill-rule:evenodd;clip-rule:evenodd;fill:#FFFFFF;}
	.st4{fill:#EFC10B;}
	.st5{fill:#D7D1CA;}
	.st6{opacity:0.9;clip-path:url(#SVGID_4_);}
	.st7{clip-path:url(#SVGID_6_);fill:none;stroke:#EAEFF2;stroke-miterlimit:10;}
	.st8{clip-path:url(#SVGID_8_);fill-rule:evenodd;clip-rule:evenodd;fill:#74A333;}
	.st9{clip-path:url(#SVGID_8_);fill:none;stroke:#FFFFFF;stroke-linejoin:bevel;stroke-miterlimit:10;}
	.st10{clip-path:url(#SVGID_8_);fill-rule:evenodd;clip-rule:evenodd;fill:#BEB7B3;}
	.st11{clip-path:url(#SVGID_8_);fill-rule:evenodd;clip-rule:evenodd;fill:#DAD6D3;}
	.st12{clip-path:url(#SVGID_8_);fill-rule:evenodd;clip-rule:evenodd;fill:#E1E776;}
	.st13{clip-path:url(#SVGID_8_);fill:#BFD22B;}
	.st14{fill:#554742;}
	.st15{fill:#877B77;}
	.st16{fill:#BEB7B3;}
	.st17{fill:#F1EEE8;}
	.st18{fill:#F7F5F1;}
	.st19{fill:#E1E776;}
	.st20{fill:#D0DC70;}
	.st21{fill:#BFD22B;}
	.st22{fill:#74A333;}
	.st23{fill:#EAEFF2;}
	.st24{fill:#58B6E7;}
	.st25{fill:#3A84B6;}
	.st26{fill:#003E7E;}
	.st27{fill:#DAD6D3;}
	.st28{fill:none;stroke:#231F20;stroke-width:1.5;stroke-linecap:round;stroke-miterlimit:10;}
	.st29{fill:none;stroke:#231F20;stroke-width:1.5;stroke-miterlimit:10;}
</style>
<path class="st0" d="M36.3,34h-6.5c0,0,0,0,0,0c0,0,0,0,0,0h-9.3c-3.2,0-5.9-2.6-5.9-5.9c0-2,1-3.8,2.7-4.9c0.2-0.1,0.3-0.3,0.3-0.6
	c0.3-5.8,5-10.3,10.8-10.3c5.3,0,9.7,3.8,10.6,8.9c-0.9-0.3-1.8-0.5-2.7-0.5c-2,0-3.8,0.8-5.2,2.2c-0.3,0.3-0.3,0.8,0,1.1
	c0.1,0.1,0.3,0.2,0.5,0.2c0.2,0,0.4-0.1,0.5-0.2c1.1-1.1,2.6-1.7,4.1-1.7c1.1,0,2.2,0.3,3.2,0.9c0,0,0,0,0,0
	c1.7,1.1,2.7,2.9,2.7,4.9C42.1,31.3,39.5,34,36.3,34 M29,42.2c0,0.8,0.3,1.5,0.7,2.1H27c0.4-0.6,0.7-1.3,0.7-2.1v-2.8
	c0-0.2-0.1-0.4-0.2-0.5l-3.5-3.5h2.2V36c0,0.4,0.3,0.8,0.8,0.8s0.8-0.3,0.8-0.8v-0.6H29V42.2z M40.6,22.1
	c-0.5-6.4-5.8-11.3-12.3-11.3c-6.4,0-11.7,4.9-12.3,11.3c-1.9,1.4-3,3.6-3,5.9c0,4.1,3.3,7.4,7.4,7.4h1.4l4.3,4.3v2.4
	c0,1.2-0.9,2.1-2.1,2.1c-0.4,0-0.8,0.3-0.8,0.8s0.3,0.8,0.8,0.8h8.6c0.4,0,0.8-0.3,0.8-0.8s-0.3-0.8-0.8-0.8c-1.2,0-2.2-1-2.2-2.1
	v-2.4l2.2-2.2c0.3-0.3,0.3-0.8,0-1.1s-0.8-0.3-1.1,0l-1.1,1.1v-2.2h5.8c4.1,0,7.4-3.3,7.4-7.4C43.6,25.7,42.5,23.5,40.6,22.1"/>
</svg>
