<?xml version="1.0" encoding="utf-8"?>
<!-- Generator: Adobe Illustrator 19.1.0, SVG Export Plug-In . SVG Version: 6.00 Build 0)  -->
<svg version="1.1" id="Layer_1" xmlns="http://www.w3.org/2000/svg" xmlns:xlink="http://www.w3.org/1999/xlink" x="0px" y="0px"
	 viewBox="0 0 56.7 56.7" style="enable-background:new 0 0 56.7 56.7;" xml:space="preserve">
<style type="text/css">
	.st0{fill:#231F20;}
	.st1{clip-path:url(#SVGID_2_);fill:#FFFFFF;}
	.st2{clip-path:url(#SVGID_2_);fill:#003E7E;}
	.st3{clip-path:url(#SVGID_2_);fill-rule:evenodd;clip-rule:evenodd;fill:#FFFFFF;}
	.st4{fill:#EFC10B;}
	.st5{fill:#D7D1CA;}
	.st6{opacity:0.9;clip-path:url(#SVGID_4_);}
	.st7{clip-path:url(#SVGID_6_);fill:none;stroke:#EAEFF2;stroke-miterlimit:10;}
	.st8{clip-path:url(#SVGID_8_);fill-rule:evenodd;clip-rule:evenodd;fill:#74A333;}
	.st9{clip-path:url(#SVGID_8_);fill:none;stroke:#FFFFFF;stroke-linejoin:bevel;stroke-miterlimit:10;}
	.st10{clip-path:url(#SVGID_8_);fill-rule:evenodd;clip-rule:evenodd;fill:#BEB7B3;}
	.st11{clip-path:url(#SVGID_8_);fill-rule:evenodd;clip-rule:evenodd;fill:#DAD6D3;}
	.st12{clip-path:url(#SVGID_8_);fill-rule:evenodd;clip-rule:evenodd;fill:#E1E776;}
	.st13{clip-path:url(#SVGID_8_);fill:#BFD22B;}
	.st14{fill:#554742;}
	.st15{fill:#877B77;}
	.st16{fill:#BEB7B3;}
	.st17{fill:#F1EEE8;}
	.st18{fill:#F7F5F1;}
	.st19{fill:#E1E776;}
	.st20{fill:#D0DC70;}
	.st21{fill:#BFD22B;}
	.st22{fill:#74A333;}
	.st23{fill:#EAEFF2;}
	.st24{fill:#58B6E7;}
	.st25{fill:#3A84B6;}
	.st26{fill:#003E7E;}
	.st27{fill:#DAD6D3;}
	.st28{fill:none;stroke:#231F20;stroke-width:1.5;stroke-linecap:round;stroke-miterlimit:10;}
	.st29{fill:none;stroke:#231F20;stroke-width:1.5;stroke-miterlimit:10;}
</style>
<g>
	<path class="st0" d="M40.6,45.5v-1.4h1.2c0.4,0,0.7-0.3,0.7-0.7s-0.3-0.7-0.7-0.7h-1.2v-1.4h5.6v1.4H45c-0.4,0-0.7,0.3-0.7,0.7
		s0.3,0.7,0.7,0.7h1.2v1.4H40.6z M44.8,48.2h-4.2v-1.4h4.2V48.2z M16.5,46.8h4.2v1.4h-4.2V46.8z M15.1,41.3h5.6v1.4H19
		c-0.4,0-0.7,0.3-0.7,0.7s0.3,0.7,0.7,0.7h1.6v1.4h-5.6V41.3z M16.5,35.4c0-4,3.1-7.3,6.9-7.6v10.6L22,39.9V35c0-0.1,0-0.2-0.1-0.3
		c0-0.1-0.1-0.2-0.1-0.2l-1.7-1.7c-0.3-0.3-0.7-0.3-1,0c-0.3,0.3-0.3,0.7,0,1l1.5,1.5v4.6h-4.2V35.4z M26.2,27.1v11.7v1.8
		c0,0.4-0.3,0.7-0.7,0.7c-0.4,0-0.7-0.3-0.7-0.7v-1.8V27.4l1.4-1.4V27.1z M28.7,20.9c-0.9,0.1-1.8,0.1-2.7,0.2
		c-0.4-0.7-0.7-1.6-0.7-2.5v-2.7h10.4v2.7c0,2.9-2.3,5.2-5.2,5.2c-1.4,0-2.6-0.5-3.5-1.4c0.6-0.1,1.2-0.1,1.7-0.1
		c0.4,0,0.7-0.4,0.6-0.7C29.5,21.1,29.1,20.8,28.7,20.9 M25.4,13.7v-2.6c0-1.5,1.2-2.6,2.6-2.6h5.1c1.5,0,2.6,1.2,2.6,2.6v2.6
		c0,0.3,0.1,0.5,0.2,0.8H25.3C25.4,14.2,25.4,13.9,25.4,13.7 M36.4,27.4v11.4v1.8c0,0.4-0.3,0.7-0.7,0.7c-0.4,0-0.7-0.3-0.7-0.7
		v-1.8V27.1V26L36.4,27.4z M27.6,32.7l0.6,0.6c0.1,0.1,0.3,0.2,0.5,0.2s0.4-0.1,0.5-0.2l1.5-1.5l1.5,1.5c0.1,0.1,0.3,0.2,0.5,0.2
		c0.2,0,0.4-0.1,0.5-0.2l0.6-0.6v5.4h-6.1V32.7z M33.7,30.7l-1.1,1.1l-1-1l2.1-2.1V30.7z M29.6,30.9l-1,1l-1.1-1.1v-2L29.6,30.9z
		 M30.6,25.1c1.1,0,2.1-0.3,3.1-0.8v2.4l-3.1,3.1l-3.1-3.1v-2.4C28.5,24.9,29.5,25.1,30.6,25.1 M22,46.2v-4.4l1.4-1.4v0.2
		c0,1.1,0.9,2.1,2.1,2.1c1.1,0,2.1-0.9,2.1-2.1v-1.2h6.1v1.2c0,1.1,0.9,2.1,2.1,2.1s2.1-0.9,2.1-2.1v-0.2l1.4,1.4v4.4v2.1H22V46.2z
		 M44.8,35.4v4.5h-4.2v-4.6l1.5-1.5c0.3-0.3,0.3-0.7,0-1c-0.3-0.3-0.7-0.3-1,0l-1.7,1.7c-0.1,0.1-0.1,0.1-0.1,0.2
		c0,0.1-0.1,0.2-0.1,0.3v4.8l-1.4-1.4V27.8C41.7,28.2,44.8,31.5,44.8,35.4 M46.8,39.9h-0.7v-4.5c0-4.9-3.9-8.8-8.7-9l-2.4-2.4v-0.7
		c1.3-1.2,2.1-2.9,2.1-4.8v-2.7H38h2.2c0.4,0,0.7-0.3,0.7-0.7c0-0.4-0.3-0.7-0.7-0.7H38c-0.4,0-0.8-0.4-0.8-0.8v-2.6
		c0-2.2-1.8-4-4-4h-5.1c-2.2,0-4,1.8-4,4v2.6c0,0.4-0.4,0.8-0.8,0.8h-2.2c-0.4,0-0.7,0.3-0.7,0.7c0,0.4,0.3,0.7,0.7,0.7h2.2H24v2.7
		c0,1,0.2,1.9,0.6,2.7c-3.5,0.5-6.6,1.3-9.4,2.5l-0.6-0.2c-0.4-0.1-0.8,0-0.9,0.4c-0.1,0.4,0,0.8,0.4,0.9l0.2,0.1l-0.1,0.2
		c-0.1,0.4,0,0.8,0.4,0.9c0.1,0,0.2,0,0.2,0c0.3,0,0.5-0.2,0.6-0.4l0.2-0.6c2.8-1.2,6-2,9.6-2.5c0.2,0.3,0.5,0.6,0.8,0.8v0.7
		l-2.4,2.4c-4.8,0.2-8.7,4.1-8.7,9v4.5h-0.7c-0.4,0-0.7,0.3-0.7,0.7v5.5c0,0.4,0.3,0.7,0.7,0.7h0.7v2.1c0,0.4,0.3,0.7,0.7,0.7h29.7
		c0.4,0,0.7-0.3,0.7-0.7v-2.1h0.7c0.4,0,0.7-0.3,0.7-0.7v-5.5C47.5,40.3,47.2,39.9,46.8,39.9"/>
	<path class="st0" d="M16.7,44.1c0.2,0,0.4-0.1,0.5-0.2c0.1-0.1,0.2-0.3,0.2-0.5c0-0.2-0.1-0.4-0.2-0.5c-0.3-0.2-0.7-0.2-1,0
		c-0.1,0.1-0.2,0.3-0.2,0.5c0,0.2,0.1,0.3,0.2,0.5C16.4,44,16.6,44.1,16.7,44.1"/>
	<path class="st0" d="M10.9,26.4L10,26.3c-0.4-0.1-0.7,0.2-0.8,0.6c-0.1,0.4,0.2,0.7,0.6,0.8l0.2,0l0,0.2c-0.1,0.4,0.2,0.7,0.6,0.8
		c0,0,0.1,0,0.1,0c0.3,0,0.6-0.2,0.7-0.6l0.1-0.9C11.5,26.8,11.3,26.5,10.9,26.4"/>
	<path class="st0" d="M13.1,25.1l-0.9-0.2c-0.4-0.1-0.7,0.1-0.8,0.5c-0.1,0.4,0.1,0.7,0.5,0.8l0.2,0.1L12,26.5
		c-0.1,0.4,0.1,0.7,0.5,0.8c0.1,0,0.1,0,0.2,0c0.3,0,0.6-0.2,0.7-0.5l0.2-0.9C13.7,25.6,13.4,25.2,13.1,25.1"/>
</g>
</svg>
