<?xml version="1.0" encoding="utf-8"?>
<!-- Generator: Adobe Illustrator 19.1.0, SVG Export Plug-In . SVG Version: 6.00 Build 0)  -->
<svg version="1.1" id="Layer_1" xmlns="http://www.w3.org/2000/svg" xmlns:xlink="http://www.w3.org/1999/xlink" x="0px" y="0px"
	 viewBox="0 0 56.7 56.7" style="enable-background:new 0 0 56.7 56.7;" xml:space="preserve">
<style type="text/css">
	.st0{fill:#231F20;}
	.st1{clip-path:url(#SVGID_2_);fill:#FFFFFF;}
	.st2{clip-path:url(#SVGID_2_);fill:#003E7E;}
	.st3{clip-path:url(#SVGID_2_);fill-rule:evenodd;clip-rule:evenodd;fill:#FFFFFF;}
	.st4{fill:#EFC10B;}
	.st5{fill:#D7D1CA;}
	.st6{opacity:0.9;clip-path:url(#SVGID_4_);}
	.st7{clip-path:url(#SVGID_6_);fill:none;stroke:#EAEFF2;stroke-miterlimit:10;}
	.st8{clip-path:url(#SVGID_8_);fill-rule:evenodd;clip-rule:evenodd;fill:#74A333;}
	.st9{clip-path:url(#SVGID_8_);fill:none;stroke:#FFFFFF;stroke-linejoin:bevel;stroke-miterlimit:10;}
	.st10{clip-path:url(#SVGID_8_);fill-rule:evenodd;clip-rule:evenodd;fill:#BEB7B3;}
	.st11{clip-path:url(#SVGID_8_);fill-rule:evenodd;clip-rule:evenodd;fill:#DAD6D3;}
	.st12{clip-path:url(#SVGID_8_);fill-rule:evenodd;clip-rule:evenodd;fill:#E1E776;}
	.st13{clip-path:url(#SVGID_8_);fill:#BFD22B;}
	.st14{fill:#554742;}
	.st15{fill:#877B77;}
	.st16{fill:#BEB7B3;}
	.st17{fill:#F1EEE8;}
	.st18{fill:#F7F5F1;}
	.st19{fill:#E1E776;}
	.st20{fill:#D0DC70;}
	.st21{fill:#BFD22B;}
	.st22{fill:#74A333;}
	.st23{fill:#EAEFF2;}
	.st24{fill:#58B6E7;}
	.st25{fill:#3A84B6;}
	.st26{fill:#003E7E;}
	.st27{fill:#DAD6D3;}
	.st28{fill:none;stroke:#231F20;stroke-width:1.5;stroke-linecap:round;stroke-miterlimit:10;}
	.st29{fill:none;stroke:#231F20;stroke-width:1.5;stroke-miterlimit:10;}
</style>
<g>
	<path d="M43.2,26c-0.6-0.3-1.4-0.1-1.9,0.4l-9.5,9.5c-0.2,0.2-0.4,0.5-0.6,0.7v-9c0-0.2,0.2-0.3,0.2-0.4c0.1,0,0.3-0.1,0.4,0.1l3,3
		c0.3,0.3,0.7,0.3,0.9,0c0.3-0.3,0.3-0.7,0-0.9l-3-3c-0.5-0.5-1.2-0.6-1.9-0.4c-0.6,0.3-1.1,0.9-1.1,1.6v13c0,1.9,1.5,3.4,3.4,3.4
		h1.5l0,1.7c0,0.2,0.1,0.3,0.2,0.5c0.1,0.1,0.3,0.2,0.5,0.2h3.3c0.4,0,0.7-0.3,0.7-0.7v-1.7h1.5c1.9,0,3.4-1.5,3.4-3.4v-13
		C44.2,26.8,43.8,26.2,43.2,26 M42.9,40.5c0,1.1-0.9,2-2,2h-3.2c-0.4,0-0.7,0.3-0.7,0.7c0,0.4,0.3,0.7,0.7,0.7H38v1h-2l0-1.7
		c0-0.2-0.1-0.3-0.2-0.5c-0.1-0.1-0.3-0.2-0.5-0.2h-2.2c-1.1,0-2-0.9-2-2c0-1.4,0.5-2.7,1.5-3.7l9.5-9.5c0.2-0.2,0.4-0.1,0.4-0.1
		c0.1,0,0.2,0.1,0.2,0.4V40.5z"/>
	<path d="M31.6,21.1H32c0.4,0,0.8-0.3,0.8-0.8c0-0.4-0.3-0.8-0.8-0.8h-0.4c-0.4,0-0.8,0.3-0.8,0.8C30.8,20.8,31.2,21.1,31.6,21.1"/>
	<path d="M39.1,19.6h-0.7c-0.4,0-0.8,0.3-0.8,0.8c0,0.4,0.3,0.8,0.8,0.8h0.7c0.4,0,0.8-0.3,0.8-0.8C39.9,19.9,39.6,19.6,39.1,19.6"
		/>
	<path d="M34.9,21.1h0.7c0.4,0,0.8-0.3,0.8-0.8c0-0.4-0.3-0.8-0.8-0.8h-0.7c-0.4,0-0.8,0.3-0.8,0.8C34.1,20.8,34.5,21.1,34.9,21.1"
		/>
	<path d="M42.4,19.6H42c-0.4,0-0.8,0.3-0.8,0.8c0,0.4,0.3,0.8,0.8,0.8h0.4c0.4,0,0.8-0.3,0.8-0.8C43.2,19.9,42.9,19.6,42.4,19.6"/>
	<path d="M31.6,18.1H32c0.4,0,0.8-0.3,0.8-0.8c0-0.4-0.3-0.8-0.8-0.8h-0.4c-0.4,0-0.8,0.3-0.8,0.8C30.8,17.7,31.2,18.1,31.6,18.1"/>
	<path d="M34.9,18.1h0.7c0.4,0,0.8-0.3,0.8-0.8c0-0.4-0.3-0.8-0.8-0.8h-0.7c-0.4,0-0.8,0.3-0.8,0.8C34.1,17.7,34.5,18.1,34.9,18.1"
		/>
	<path d="M39.1,16.5h-0.7c-0.4,0-0.8,0.3-0.8,0.8c0,0.4,0.3,0.8,0.8,0.8h0.7c0.4,0,0.8-0.3,0.8-0.8C39.9,16.9,39.6,16.5,39.1,16.5"
		/>
	<path d="M41.2,17.3c0,0.4,0.3,0.8,0.8,0.8h0.4c0.4,0,0.8-0.3,0.8-0.8c0-0.4-0.3-0.8-0.8-0.8H42C41.6,16.5,41.2,16.9,41.2,17.3"/>
	<path d="M33,15h0.4c0.4,0,0.8-0.3,0.8-0.8c0-0.4-0.3-0.8-0.8-0.8H33c-0.4,0-0.8,0.3-0.8,0.8C32.2,14.6,32.6,15,33,15"/>
	<path d="M35.8,14.2c0,0.4,0.3,0.8,0.8,0.8h0.8c0.4,0,0.8-0.3,0.8-0.8c0-0.4-0.3-0.8-0.8-0.8h-0.8C36.2,13.5,35.8,13.8,35.8,14.2"/>
	<path d="M40.6,15H41c0.4,0,0.8-0.3,0.8-0.8c0-0.4-0.3-0.8-0.8-0.8h-0.4c-0.4,0-0.8,0.3-0.8,0.8C39.8,14.6,40.2,15,40.6,15"/>
	<path d="M31.6,24.2H32c0.4,0,0.8-0.3,0.8-0.8c0-0.4-0.3-0.8-0.8-0.8h-0.4c-0.4,0-0.8,0.3-0.8,0.8C30.8,23.8,31.2,24.2,31.6,24.2"/>
	<path d="M34.9,24.2h0.7c0.4,0,0.8-0.3,0.8-0.8c0-0.4-0.3-0.8-0.8-0.8h-0.7c-0.4,0-0.8,0.3-0.8,0.8C34.1,23.8,34.5,24.2,34.9,24.2"
		/>
	<path d="M39.9,23.4c0-0.4-0.3-0.8-0.8-0.8h-0.7c-0.4,0-0.8,0.3-0.8,0.8c0,0.4,0.3,0.8,0.8,0.8h0.7C39.6,24.2,39.9,23.8,39.9,23.4"
		/>
	<path d="M42.4,22.7H42c-0.4,0-0.8,0.3-0.8,0.8c0,0.4,0.3,0.8,0.8,0.8h0.4c0.4,0,0.8-0.3,0.8-0.8C43.2,23,42.9,22.7,42.4,22.7"/>
	<path d="M36.3,27.3h1.4c0.4,0,0.8-0.3,0.8-0.8c0-0.4-0.3-0.8-0.8-0.8h-1.4c-0.4,0-0.8,0.3-0.8,0.8C35.5,26.9,35.9,27.3,36.3,27.3"
		/>
	<path d="M35,11.9h0.7c0.4,0,0.8-0.3,0.8-0.8c0-0.4-0.3-0.8-0.8-0.8H35c-0.4,0-0.8,0.3-0.8,0.8C34.3,11.6,34.6,11.9,35,11.9"/>
	<path d="M38.3,11.9H39c0.4,0,0.8-0.3,0.8-0.8c0-0.4-0.3-0.8-0.8-0.8h-0.7c-0.4,0-0.8,0.3-0.8,0.8C37.6,11.6,37.9,11.9,38.3,11.9"/>
	<path d="M13.1,26.9c0.4,0,0.7-0.3,0.7-0.7v-9.6c0-0.4-0.3-0.7-0.7-0.7c-0.4,0-0.7,0.3-0.7,0.7v9.6C12.5,26.6,12.8,26.9,13.1,26.9"
		/>
	<path d="M16,23.1c0.4,0,0.7-0.3,0.7-0.7v-8.7c0-0.4-0.3-0.7-0.7-0.7c-0.4,0-0.7,0.3-0.7,0.7v8.7C15.4,22.8,15.7,23.1,16,23.1"/>
	<path d="M21.8,23.1c0.4,0,0.7-0.3,0.7-0.7v-8.7c0-0.4-0.3-0.7-0.7-0.7c-0.4,0-0.7,0.3-0.7,0.7v8.7C21.1,22.8,21.4,23.1,21.8,23.1"
		/>
	<path d="M18.9,21c0.4,0,0.7-0.3,0.7-0.7v-9.1c0-0.4-0.3-0.7-0.7-0.7c-0.4,0-0.7,0.3-0.7,0.7v9.1C18.2,20.7,18.5,21,18.9,21"/>
	<path d="M24.7,16c-0.4,0-0.7,0.3-0.7,0.7v9.6c0,0.4,0.3,0.7,0.7,0.7c0.4,0,0.7-0.3,0.7-0.7v-9.6C25.3,16.3,25.1,16,24.7,16"/>
	<path d="M24.7,38.2c-0.4,0-0.7,0.3-0.7,0.7v0.3c0,0.5-0.3,1-0.8,1.1l-4.3,1.2l-4.3-1.2c-0.5-0.1-0.8-0.6-0.8-1.1v-0.3
		c0-0.4-0.3-0.7-0.7-0.7c-0.4,0-0.7,0.3-0.7,0.7v0.3c0,1.1,0.8,2.1,1.8,2.4l3.9,1.1v3c0,0.4,0.3,0.7,0.7,0.7c0.4,0,0.7-0.3,0.7-0.7
		v-3l3.9-1.1c1.1-0.3,1.8-1.3,1.8-2.4v-0.3C25.3,38.5,25.1,38.2,24.7,38.2"/>
	<path d="M24.7,34.2c-0.4,0-0.7,0.3-0.7,0.7v0.3c0,0.5-0.3,1-0.8,1.1l-4.3,1.2l-4.3-1.2c-0.5-0.1-0.8-0.6-0.8-1.1v-0.3
		c0-0.4-0.3-0.7-0.7-0.7c-0.4,0-0.7,0.3-0.7,0.7v0.3c0,1.1,0.8,2.1,1.8,2.4l3.9,1.1v0.6c0,0.4,0.3,0.7,0.7,0.7
		c0.4,0,0.7-0.3,0.7-0.7v-0.6l3.9-1.1c1.1-0.3,1.8-1.3,1.8-2.4v-0.3C25.3,34.5,25.1,34.2,24.7,34.2"/>
	<path d="M24.5,27.8l-2.9,0.8c-0.4,0.1-0.6,0.5-0.5,0.8c0.1,0.4,0.5,0.6,0.8,0.5l2-0.6v1.6c0,0.5-0.3,1-0.8,1.1l-3.6,1v-1.9
		c0-0.4-0.3-0.7-0.7-0.7c-0.4,0-0.7,0.3-0.7,0.7V33l-3.6-1c-0.5-0.1-0.8-0.6-0.8-1.1v-1.6l2,0.6c0.4,0.1,0.7-0.1,0.8-0.5
		c0.1-0.4-0.1-0.7-0.5-0.8l-2.9-0.8c-0.2-0.1-0.4,0-0.6,0.1c-0.2,0.1-0.3,0.3-0.3,0.5v2.5c0,1.1,0.8,2.1,1.8,2.4l3.9,1.1V35
		c0,0.4,0.3,0.7,0.7,0.7c0.4,0,0.7-0.3,0.7-0.7v-0.6l3.9-1.1c1.1-0.3,1.8-1.3,1.8-2.4v-2.5c0-0.2-0.1-0.4-0.3-0.5
		C24.9,27.8,24.7,27.8,24.5,27.8"/>
	<path d="M18.5,29c0.1,0.1,0.2,0.1,0.4,0.1c0.1,0,0.3,0,0.4-0.1c1.2-0.8,1.9-1.9,1.9-3.1c0-1.2-0.7-2.3-1.9-3.1
		c-0.2-0.1-0.5-0.1-0.7,0c-1.2,0.8-1.9,1.9-1.9,3.1C16.7,27.1,17.3,28.2,18.5,29 M18.9,24.2c0.6,0.5,0.9,1.1,0.9,1.7
		c0,0.6-0.3,1.2-0.9,1.7c-0.6-0.5-0.9-1.1-0.9-1.7C18,25.3,18.3,24.7,18.9,24.2"/>
</g>
</svg>
