<?xml version="1.0" encoding="utf-8"?>
<!-- Generator: Adobe Illustrator 19.1.0, SVG Export Plug-In . SVG Version: 6.00 Build 0)  -->
<svg version="1.1" id="Layer_1" xmlns="http://www.w3.org/2000/svg" xmlns:xlink="http://www.w3.org/1999/xlink" x="0px" y="0px"
	 viewBox="0 0 56.7 56.7" style="enable-background:new 0 0 56.7 56.7;" xml:space="preserve">
<style type="text/css">
	.st0{fill:#231F20;}
	.st1{clip-path:url(#SVGID_2_);fill:#FFFFFF;}
	.st2{clip-path:url(#SVGID_2_);fill:#003E7E;}
	.st3{clip-path:url(#SVGID_2_);fill-rule:evenodd;clip-rule:evenodd;fill:#FFFFFF;}
	.st4{fill:#EFC10B;}
	.st5{fill:#D7D1CA;}
	.st6{opacity:0.9;clip-path:url(#SVGID_4_);}
	.st7{clip-path:url(#SVGID_6_);fill:none;stroke:#EAEFF2;stroke-miterlimit:10;}
	.st8{clip-path:url(#SVGID_8_);fill-rule:evenodd;clip-rule:evenodd;fill:#74A333;}
	.st9{clip-path:url(#SVGID_8_);fill:none;stroke:#FFFFFF;stroke-linejoin:bevel;stroke-miterlimit:10;}
	.st10{clip-path:url(#SVGID_8_);fill-rule:evenodd;clip-rule:evenodd;fill:#BEB7B3;}
	.st11{clip-path:url(#SVGID_8_);fill-rule:evenodd;clip-rule:evenodd;fill:#DAD6D3;}
	.st12{clip-path:url(#SVGID_8_);fill-rule:evenodd;clip-rule:evenodd;fill:#E1E776;}
	.st13{clip-path:url(#SVGID_8_);fill:#BFD22B;}
	.st14{fill:#554742;}
	.st15{fill:#877B77;}
	.st16{fill:#BEB7B3;}
	.st17{fill:#F1EEE8;}
	.st18{fill:#F7F5F1;}
	.st19{fill:#E1E776;}
	.st20{fill:#D0DC70;}
	.st21{fill:#BFD22B;}
	.st22{fill:#74A333;}
	.st23{fill:#EAEFF2;}
	.st24{fill:#58B6E7;}
	.st25{fill:#3A84B6;}
	.st26{fill:#003E7E;}
	.st27{fill:#DAD6D3;}
	.st28{fill:none;stroke:#231F20;stroke-width:1.5;stroke-linecap:round;stroke-miterlimit:10;}
	.st29{fill:none;stroke:#231F20;stroke-width:1.5;stroke-miterlimit:10;}
</style>
<g>
	<path d="M19,27.2c-0.1-0.2-0.3-0.3-0.5-0.3c-0.2,0-0.4,0.1-0.5,0.3c-0.8,1.1-1.8,2.1-2.9,3.2c-2.7,2.8-5.5,5.7-5.5,10.1
		c0,4.9,4,8.9,8.9,8.9s8.9-4,8.9-8.9c0-4.1-2.8-7.1-5.5-9.9C20.8,29.4,19.8,28.3,19,27.2 M18.5,48c-4.2,0-7.6-3.4-7.6-7.6
		c0-3.8,2.6-6.5,5.2-9.2c0.9-0.9,1.7-1.8,2.4-2.7c0.8,0.9,1.6,1.9,2.5,2.8c2.5,2.7,5.1,5.4,5.1,9C26.1,44.6,22.7,48,18.5,48"/>
	<path d="M18.5,45.1c-0.2,0-0.3,0.1-0.4,0.2c-0.1,0.1-0.2,0.3-0.2,0.5c0,0.2,0.1,0.3,0.2,0.5c0.1,0.1,0.3,0.2,0.5,0.2
		c0.2,0,0.3-0.1,0.5-0.2c0.1-0.1,0.2-0.3,0.2-0.5c0-0.2-0.1-0.3-0.2-0.5C18.8,45.2,18.6,45.1,18.5,45.1"/>
	<path d="M16.7,44.8L16.7,44.8c-1.1-0.5-2-1.4-2.5-2.5c-0.1-0.2-0.3-0.4-0.6-0.4c-0.1,0-0.2,0-0.2,0c-0.2,0.1-0.3,0.2-0.3,0.3
		c-0.1,0.2-0.1,0.3,0,0.5c0.6,1.4,1.7,2.6,3.2,3.2c0.1,0,0.2,0,0.2,0c0.3,0,0.5-0.2,0.6-0.4C17.2,45.3,17,44.9,16.7,44.8"/>
	<path d="M13.7,41c0.1-0.1,0.2-0.3,0.2-0.5c0-0.2-0.1-0.3-0.2-0.5c-0.1-0.1-0.3-0.2-0.5-0.2c-0.2,0-0.3,0.1-0.5,0.2
		c-0.1,0.1-0.2,0.3-0.2,0.5c0,0.2,0.1,0.3,0.2,0.5c0.1,0.1,0.3,0.2,0.5,0.2C13.4,41.2,13.6,41.1,13.7,41"/>
	<path d="M27.4,22.1c0.4,0,0.6-0.3,0.6-0.6c0-0.4-0.3-0.6-0.6-0.6c-0.4,0-0.6,0.3-0.6,0.6C26.7,21.8,27,22.1,27.4,22.1"/>
	<path d="M40.1,22.1c0.4,0,0.6-0.3,0.6-0.6c0-0.4-0.3-0.6-0.6-0.6s-0.6,0.3-0.6,0.6C39.5,21.8,39.8,22.1,40.1,22.1"/>
	<path d="M29.9,22.1h6.4c0.4,0,0.6-0.3,0.6-0.6c0-0.4-0.3-0.6-0.6-0.6h-6.4c-0.4,0-0.6,0.3-0.6,0.6C29.3,21.8,29.6,22.1,29.9,22.1"
		/>
	<path d="M16.3,24.4c0.1,0,0.1,0,0.2,0c0,0,0,0,0,0h23.9c3.7,0,6.7-3,6.7-6.7s-3-6.7-6.7-6.7H29.2l0.4-0.4c0.8-0.8,0.8-2,0-2.7
		c-0.7-0.7-2-0.7-2.7,0L23.7,11h-7.4c-1.8,0-3.5,0.7-4.7,2c-0.2,0.2-0.2,0.7,0,0.9c0,0,0,0,0,0l3.2,3.2h-4.5c-0.4,0-0.6,0.3-0.6,0.6
		C9.6,21.4,12.6,24.4,16.3,24.4 M27.7,8.8c0.3-0.3,0.7-0.3,0.9,0c0.3,0.3,0.3,0.7,0,0.9L27.4,11h-1.9L27.7,8.8z M40.4,12.3
		c3,0,5.4,2.4,5.4,5.4s-2.4,5.4-5.4,5.4H20.2c0.4-0.3,0.8-0.6,1.1-1h2.3c0.3,0,0.6-0.3,0.6-0.6c0-0.4-0.3-0.6-0.6-0.6h-1.4
		c0.5-0.9,0.8-2,0.8-3.1c0-2.2-1.1-4.2-2.8-5.4H40.4z M16.7,17.3l-3.8-3.8c1-0.8,2.1-1.2,3.4-1.2c3,0,5.4,2.4,5.4,5.4
		s-2.4,5.4-5.4,5.4c-2.8,0-5.1-2.1-5.4-4.8h1c0.2,1.4,1.1,2.6,2.4,3.3c0.1,0,0.2,0.1,0.3,0.1c0.2,0,0.5-0.1,0.6-0.3
		c0.2-0.3,0-0.7-0.3-0.9c0,0,0,0,0,0c-0.9-0.4-1.4-1.2-1.6-2.2h3.1c0.3,0,0.5-0.2,0.6-0.4S16.9,17.5,16.7,17.3"/>
	<path d="M19.4,17.7c0,0.4-0.1,0.7-0.2,1.1c-0.1,0.2-0.1,0.3,0,0.5c0.1,0.2,0.2,0.3,0.4,0.3c0.1,0,0.1,0,0.2,0
		c0.3,0,0.5-0.2,0.6-0.4c0.2-0.5,0.3-1,0.3-1.5c0-2.1-1.4-3.8-3.4-4.3c0,0-0.1,0-0.1,0c-0.3,0-0.6,0.2-0.6,0.5
		c-0.1,0.3,0.1,0.7,0.5,0.8C18.4,15,19.4,16.3,19.4,17.7"/>
	<path d="M18.2,20.3c-0.1,0-0.2,0-0.3,0.1c-0.1,0.1-0.2,0.2-0.3,0.4c0,0.2,0,0.3,0.1,0.5c0.1,0.2,0.3,0.3,0.5,0.3
		c0.1,0,0.2,0,0.3-0.1c0.3-0.2,0.4-0.6,0.2-0.9C18.7,20.4,18.4,20.3,18.2,20.3"/>
	<path d="M43.1,26.9c-2.2,0-4,1.8-4,4v14.4c0,1.5-1.2,2.8-2.8,2.8c-1.5,0-2.8-1.2-2.8-2.8V37c1.9-0.3,3.4-2,3.4-4v-1.7
		c0-0.4-0.3-0.6-0.6-0.6h-0.9v-3.2c0-0.4-0.3-0.6-0.6-0.6c-0.4,0-0.6,0.3-0.6,0.6v3.2h-2.4v-3.2c0-0.4-0.3-0.6-0.6-0.6
		s-0.6,0.3-0.6,0.6v3.2h-0.9c-0.4,0-0.6,0.3-0.6,0.6v1.7c0,2,1.5,3.7,3.4,4v8.3c0,2.2,1.8,4,4,4c2.2,0,4-1.8,4-4V30.9
		c0-1.5,1.2-2.8,2.8-2.8c1.5,0,2.8,1.2,2.8,2.8v14.8c0,0.4,0.3,0.6,0.6,0.6c0.4,0,0.6-0.3,0.6-0.6V30.9
		C47.1,28.7,45.3,26.9,43.1,26.9 M30.1,33.1v-1h5.5v1c0,1.5-1.2,2.8-2.8,2.8C31.4,35.8,30.1,34.6,30.1,33.1"/>
</g>
</svg>
