<?xml version="1.0" encoding="utf-8"?>
<!-- Generator: Adobe Illustrator 19.1.0, SVG Export Plug-In . SVG Version: 6.00 Build 0)  -->
<svg version="1.1" id="Layer_1" xmlns="http://www.w3.org/2000/svg" xmlns:xlink="http://www.w3.org/1999/xlink" x="0px" y="0px"
	 viewBox="0 0 56.7 56.7" style="enable-background:new 0 0 56.7 56.7;" xml:space="preserve">
<style type="text/css">
	.st0{fill:#231F20;}
	.st1{clip-path:url(#SVGID_2_);fill:#FFFFFF;}
	.st2{clip-path:url(#SVGID_2_);fill:#003E7E;}
	.st3{clip-path:url(#SVGID_2_);fill-rule:evenodd;clip-rule:evenodd;fill:#FFFFFF;}
	.st4{fill:#EFC10B;}
	.st5{fill:#D7D1CA;}
	.st6{opacity:0.9;clip-path:url(#SVGID_4_);}
	.st7{clip-path:url(#SVGID_6_);fill:none;stroke:#EAEFF2;stroke-miterlimit:10;}
	.st8{clip-path:url(#SVGID_8_);fill-rule:evenodd;clip-rule:evenodd;fill:#74A333;}
	.st9{clip-path:url(#SVGID_8_);fill:none;stroke:#FFFFFF;stroke-linejoin:bevel;stroke-miterlimit:10;}
	.st10{clip-path:url(#SVGID_8_);fill-rule:evenodd;clip-rule:evenodd;fill:#BEB7B3;}
	.st11{clip-path:url(#SVGID_8_);fill-rule:evenodd;clip-rule:evenodd;fill:#DAD6D3;}
	.st12{clip-path:url(#SVGID_8_);fill-rule:evenodd;clip-rule:evenodd;fill:#E1E776;}
	.st13{clip-path:url(#SVGID_8_);fill:#BFD22B;}
	.st14{fill:#554742;}
	.st15{fill:#877B77;}
	.st16{fill:#BEB7B3;}
	.st17{fill:#F1EEE8;}
	.st18{fill:#F7F5F1;}
	.st19{fill:#E1E776;}
	.st20{fill:#D0DC70;}
	.st21{fill:#BFD22B;}
	.st22{fill:#74A333;}
	.st23{fill:#EAEFF2;}
	.st24{fill:#58B6E7;}
	.st25{fill:#3A84B6;}
	.st26{fill:#003E7E;}
	.st27{fill:#DAD6D3;}
	.st28{fill:none;stroke:#231F20;stroke-width:1.5;stroke-linecap:round;stroke-miterlimit:10;}
	.st29{fill:none;stroke:#231F20;stroke-width:1.5;stroke-miterlimit:10;}
</style>
<g>
	<path class="st0" d="M22.1,30.4c-0.3,0-0.6,0.3-0.6,0.6c0,0.3,0.3,0.6,0.6,0.6h1c0.3,0,0.6-0.3,0.6-0.6c0-0.3-0.3-0.6-0.6-0.6H22.1
		z"/>
	<path class="st0" d="M25.9,30.4c-0.3,0-0.6,0.3-0.6,0.6c0,0.3,0.3,0.6,0.6,0.6h1c0.3,0,0.6-0.3,0.6-0.6c0-0.3-0.3-0.6-0.6-0.6H25.9
		z"/>
	<path class="st0" d="M29.6,30.4c-0.3,0-0.6,0.3-0.6,0.6c0,0.3,0.3,0.6,0.6,0.6h1c0.3,0,0.6-0.3,0.6-0.6c0-0.3-0.3-0.6-0.6-0.6H29.6
		z"/>
	<path class="st0" d="M34.4,30.4h-1c-0.3,0-0.6,0.3-0.6,0.6c0,0.3,0.3,0.6,0.6,0.6h1c0.3,0,0.6-0.3,0.6-0.6
		C35,30.7,34.7,30.4,34.4,30.4"/>
	<path class="st0" d="M23.1,20.5c2,0,3.6-1.6,3.6-3.6c0-1.5,1.3-2.8,2.8-2.8h0.2c0.7,0,1.4-0.6,1.4-1.4c0-1.2,1-2.1,2.1-2.1
		c1.2,0,2.1,1,2.1,2.1V15c0,0.3,0.3,0.6,0.6,0.6s0.6-0.3,0.6-0.6v-2.2c0-1.9-1.5-3.4-3.4-3.4c-1.9,0-3.4,1.5-3.4,3.4
		c0,0.1-0.1,0.1-0.1,0.1h-0.2c-2.2,0-4,1.8-4,4c0,1.3-1.1,2.4-2.4,2.4c-1.3,0-2.4-1.1-2.4-2.4v-1.2c0-0.3-0.3-0.6-0.6-0.6
		s-0.6,0.3-0.6,0.6v1.2C19.4,18.8,21.1,20.5,23.1,20.5"/>
	<path class="st0" d="M20,13.6c0.3,0,0.6-0.3,0.6-0.6v-0.3c0-0.3-0.3-0.6-0.6-0.6c-0.3,0-0.6,0.3-0.6,0.6v0.3
		C19.4,13.3,19.7,13.6,20,13.6"/>
	<path class="st0" d="M43.5,35.9h-5.4V17.6c0-0.3-0.3-0.6-0.6-0.6h-3.1c-0.3,0-0.6,0.3-0.6,0.6v3.6c0,0.3,0.3,0.6,0.6,0.6
		c0.3,0,0.6-0.3,0.6-0.6v-3h1.9v17.6h-17v-8l6.6-3v2.7c0,0.2,0.1,0.4,0.3,0.5c0.2,0.1,0.4,0.1,0.6,0l6.4-3.2v2.6
		c0,0.3,0.3,0.6,0.6,0.6c0.3,0,0.6-0.3,0.6-0.6v-3.6c0-0.2-0.1-0.4-0.3-0.5c-0.2-0.1-0.4-0.1-0.6,0l-6.4,3.2v-2.6
		c0-0.2-0.1-0.4-0.3-0.5c-0.2-0.1-0.4-0.1-0.6,0L19,26.9c-0.2,0.1-0.4,0.3-0.4,0.6v8.4h-5.4c-0.3,0-0.6,0.3-0.6,0.6
		c0,0.3,0.3,0.6,0.6,0.6h6h8.5v3.5c0,0.3,0.3,0.6,0.6,0.6c0.3,0,0.6-0.3,0.6-0.6v-3.5h8.5h6c0.3,0,0.6-0.3,0.6-0.6
		C44.1,36.1,43.9,35.9,43.5,35.9"/>
	<path class="st0" d="M38.2,43c-0.7-0.7-1.8-0.7-2.4,0l-0.2,0.2c-0.2,0.2-0.5,0.2-0.7,0L34.7,43c-0.7-0.7-1.8-0.7-2.4,0l-0.2,0.2
		c-0.2,0.2-0.5,0.2-0.7,0L31.3,43c-0.6-0.7-1.8-0.7-2.4,0l-0.2,0.2c-0.2,0.2-0.5,0.2-0.7,0L27.8,43c-0.7-0.7-1.8-0.7-2.4,0l-0.2,0.2
		c-0.2,0.2-0.5,0.2-0.7,0L24.4,43c-0.7-0.7-1.8-0.7-2.4,0l-0.2,0.2c-0.2,0.2-0.5,0.2-0.7,0L21,43c-0.7-0.7-1.8-0.7-2.4,0l-0.2,0.2
		c-0.2,0.2-0.2,0.6,0,0.9c0.2,0.2,0.6,0.2,0.9,0l0.2-0.2c0.2-0.2,0.5-0.2,0.7,0l0.2,0.2c0.7,0.7,1.8,0.7,2.4,0l0.2-0.2
		c0.2-0.2,0.5-0.2,0.7,0l0.2,0.2c0.7,0.7,1.8,0.7,2.4,0l0.2-0.2c0.2-0.2,0.5-0.2,0.7,0l0.2,0.2c0.7,0.7,1.8,0.7,2.4,0l0.2-0.2
		c0.2-0.2,0.5-0.2,0.7,0l0.2,0.2c0.7,0.7,1.8,0.7,2.4,0l0.2-0.2c0.2-0.2,0.5-0.2,0.7,0L34,44c0.3,0.3,0.8,0.5,1.2,0.5
		c0.4,0,0.9-0.2,1.2-0.5l0.2-0.2c0.2-0.2,0.5-0.2,0.7,0l0.2,0.2c0.2,0.2,0.6,0.2,0.9,0c0.2-0.2,0.2-0.6,0-0.9L38.2,43z"/>
	<path class="st0" d="M34.7,45.8c-0.7-0.7-1.8-0.7-2.4,0L32.1,46c-0.2,0.2-0.5,0.2-0.7,0l-0.2-0.2c-0.6-0.7-1.8-0.7-2.4,0L28.7,46
		c-0.2,0.2-0.5,0.2-0.7,0l-0.2-0.2c-0.7-0.7-1.8-0.7-2.4,0L25.3,46c-0.2,0.2-0.5,0.2-0.7,0l-0.2-0.2c-0.7-0.7-1.8-0.7-2.4,0L21.8,46
		c-0.2,0.2-0.2,0.6,0,0.9c0.2,0.2,0.6,0.2,0.9,0l0.2-0.2c0.2-0.2,0.5-0.2,0.7,0l0.2,0.2c0.7,0.7,1.8,0.7,2.4,0l0.2-0.2
		c0.2-0.2,0.5-0.2,0.7,0l0.2,0.2c0.7,0.7,1.8,0.7,2.4,0l0.2-0.2c0.2-0.2,0.5-0.2,0.7,0l0.2,0.2c0.3,0.3,0.8,0.5,1.2,0.5
		c0.5,0,0.9-0.2,1.2-0.5l0.2-0.2c0.2-0.2,0.5-0.2,0.7,0l0.2,0.2c0.2,0.2,0.6,0.2,0.9,0c0.2-0.2,0.2-0.6,0-0.9L34.7,45.8z"/>
</g>
</svg>
