<?xml version="1.0" encoding="utf-8"?>
<!-- Generator: Adobe Illustrator 19.1.0, SVG Export Plug-In . SVG Version: 6.00 Build 0)  -->
<svg version="1.1" id="Layer_1" xmlns="http://www.w3.org/2000/svg" xmlns:xlink="http://www.w3.org/1999/xlink" x="0px" y="0px"
	 viewBox="0 0 56.7 56.7" style="enable-background:new 0 0 56.7 56.7;" xml:space="preserve">
<style type="text/css">
	.st0{fill:#231F20;}
	.st1{clip-path:url(#SVGID_2_);fill:#FFFFFF;}
	.st2{clip-path:url(#SVGID_2_);fill:#003E7E;}
	.st3{clip-path:url(#SVGID_2_);fill-rule:evenodd;clip-rule:evenodd;fill:#FFFFFF;}
	.st4{fill:#EFC10B;}
	.st5{fill:#D7D1CA;}
	.st6{opacity:0.9;clip-path:url(#SVGID_4_);}
	.st7{clip-path:url(#SVGID_6_);fill:none;stroke:#EAEFF2;stroke-miterlimit:10;}
	.st8{clip-path:url(#SVGID_8_);fill-rule:evenodd;clip-rule:evenodd;fill:#74A333;}
	.st9{clip-path:url(#SVGID_8_);fill:none;stroke:#FFFFFF;stroke-linejoin:bevel;stroke-miterlimit:10;}
	.st10{clip-path:url(#SVGID_8_);fill-rule:evenodd;clip-rule:evenodd;fill:#BEB7B3;}
	.st11{clip-path:url(#SVGID_8_);fill-rule:evenodd;clip-rule:evenodd;fill:#DAD6D3;}
	.st12{clip-path:url(#SVGID_8_);fill-rule:evenodd;clip-rule:evenodd;fill:#E1E776;}
	.st13{clip-path:url(#SVGID_8_);fill:#BFD22B;}
	.st14{fill:#554742;}
	.st15{fill:#877B77;}
	.st16{fill:#BEB7B3;}
	.st17{fill:#F1EEE8;}
	.st18{fill:#F7F5F1;}
	.st19{fill:#E1E776;}
	.st20{fill:#D0DC70;}
	.st21{fill:#BFD22B;}
	.st22{fill:#74A333;}
	.st23{fill:#EAEFF2;}
	.st24{fill:#58B6E7;}
	.st25{fill:#3A84B6;}
	.st26{fill:#003E7E;}
	.st27{fill:#DAD6D3;}
	.st28{fill:none;stroke:#231F20;stroke-width:1.5;stroke-linecap:round;stroke-miterlimit:10;}
	.st29{fill:none;stroke:#231F20;stroke-width:1.5;stroke-miterlimit:10;}
</style>
<g>
	<path class="st0" d="M37.4,16.4L36,17.8c-0.3,0.3-0.3,0.7,0,1c0.1,0.1,0.3,0.2,0.5,0.2s0.4-0.1,0.5-0.2l1.4-1.4
		c0.3-0.3,0.3-0.7,0-1C38.1,16.1,37.7,16.1,37.4,16.4"/>
	<path class="st0" d="M39.8,14l-0.6,0.5c-0.1,0.1-0.2,0.3-0.2,0.5v22.4c0,1-0.4,2-1.2,2.7c-0.1,0.1-0.2,0.3-0.2,0.5
		c0,0.2,0.1,0.4,0.2,0.5l1,1c0.4,0.4,0.4,1,0,1.4c-0.4,0.4-1,0.4-1.4,0l-1-1c-0.1-0.1-0.3-0.2-0.5-0.2H20.7c-0.2,0-0.4,0.1-0.5,0.2
		l-1,1c-0.4,0.4-1,0.4-1.4,0c-0.2-0.2-0.3-0.4-0.3-0.7c0-0.3,0.1-0.5,0.3-0.7l1-1c0.1-0.1,0.2-0.3,0.2-0.5c0-0.2-0.1-0.4-0.2-0.5
		c-0.1-0.1-0.2-0.2-0.2-0.3c1.7,0.7,3.5,1.1,5.3,1.1c2,0,3.9-0.5,5.8-1.3c0.3-0.2,0.5-0.6,0.3-0.9c-0.2-0.3-0.6-0.5-0.9-0.3
		c-3.6,1.8-7.9,1.5-11.3-0.6c0-0.1,0-0.3,0-0.4v-1.3c1.8,1.4,3.9,2.1,6.2,2.1c2.3,0,4.5-0.8,6.3-2.2c0.3-0.2,0.4-0.7,0.1-1
		c-0.2-0.3-0.7-0.4-1-0.1c-1.6,1.2-3.5,1.9-5.5,1.9c-2.3,0-4.5-0.9-6.2-2.5v-2.1c1.4,2,3.6,3.2,6.2,3.2c3.5,0,6.6-2.5,7.4-5.9
		c0.1-0.4-0.2-0.7-0.5-0.8c-0.4-0.1-0.7,0.1-0.8,0.5c-0.6,2.8-3.2,4.8-6,4.8c-3.4,0-6.2-2.8-6.2-6.2c0,0,0,0,0-0.1V15.1
		c0-0.2-0.1-0.4-0.2-0.5L16.9,14c-0.1-0.1-0.2-0.3-0.2-0.5c0-0.2,0.1-0.4,0.2-0.5c0.1-0.1,0.3-0.2,0.5-0.2h21.9
		c0.2,0,0.4,0.1,0.5,0.2c0.1,0.1,0.2,0.3,0.2,0.5C40,13.7,39.9,13.9,39.8,14 M40.4,15.3l0.4-0.3c0.4-0.4,0.6-0.9,0.6-1.5
		c0-0.6-0.2-1.1-0.6-1.5c-0.4-0.4-0.9-0.6-1.5-0.6H17.4c-0.6,0-1.1,0.2-1.5,0.6c-0.4,0.4-0.6,0.9-0.6,1.5c0,0.6,0.2,1.1,0.6,1.5
		l0.4,0.3v22.1c0,1.2,0.4,2.3,1.1,3.2l-0.6,0.6c-0.4,0.4-0.7,1-0.7,1.7c0,0.6,0.2,1.2,0.7,1.7c0.9,0.9,2.4,0.9,3.3,0l0.8-0.8h14.7
		l0.8,0.8c0.4,0.4,1,0.7,1.7,0.7c0.6,0,1.2-0.2,1.7-0.7c0.9-0.9,0.9-2.4,0-3.3l-0.6-0.6c0.7-0.9,1.1-2,1.1-3.2V15.3z"/>
	<path class="st0" d="M20.2,19c0.2,0,0.4-0.1,0.5-0.2c0.3-0.3,0.3-0.7,0-1l-1.4-1.4c-0.3-0.3-0.7-0.3-1,0c-0.3,0.3-0.3,0.7,0,1
		l1.4,1.4C19.9,18.9,20.1,19,20.2,19"/>
	<path class="st0" d="M28,27.8c-0.4,0-0.7,0.2-0.8,0.6c-0.2,1.7-1.7,3-3.4,3c-1.9,0-3.4-1.5-3.4-3.4c0-0.1,0-0.2,0-0.3l0-0.1
		c0-0.4-0.2-0.7-0.6-0.8c-0.4-0.1-0.7,0.2-0.8,0.6l0,0.1c0,0.2,0,0.3,0,0.5c0,2.7,2.2,4.8,4.8,4.8c2.4,0,4.4-1.8,4.8-4.2
		C28.7,28.2,28.4,27.8,28,27.8"/>
	<path class="st0" d="M23.9,30c1,0,1.9-0.8,2-1.8c0-0.4-0.2-0.7-0.6-0.8c-0.4-0.1-0.7,0.2-0.8,0.6c0,0.3-0.3,0.6-0.7,0.6
		c-0.4,0-0.7-0.3-0.7-0.8c0.1-0.4-0.2-0.7-0.6-0.8c-0.4-0.1-0.7,0.2-0.8,0.6c0,0.1,0,0.2,0,0.2C21.8,29.1,22.7,30,23.9,30"/>
	<path class="st0" d="M29.6,20.7C29.6,20.8,29.5,20.8,29.6,20.7l-2.3,0.1c-0.1,0-0.1,0-0.1-0.1v-2.2c0,0,0-0.1,0.1-0.1h2.2
		c0,0,0.1,0,0.1,0.1V20.7z M30.9,20.7v-2.2c0-0.8-0.7-1.5-1.5-1.5h-2.2c-0.8,0-1.5,0.7-1.5,1.5v2.2c0,0.8,0.7,1.5,1.5,1.5h2.2
		C30.3,22.2,30.9,21.5,30.9,20.7"/>
	<path class="st0" d="M24.1,24.5c0.2,0,0.4-0.1,0.5-0.2c0.1-0.1,0.2-0.3,0.2-0.5c0-0.2-0.1-0.4-0.2-0.5c-0.3-0.3-0.7-0.3-1,0
		c-0.1,0.1-0.2,0.3-0.2,0.5c0,0.2,0.1,0.4,0.2,0.5C23.7,24.4,23.9,24.5,24.1,24.5"/>
	<path class="st0" d="M28.4,23.1h-2.1c-0.4,0-0.7,0.3-0.7,0.7c0,0.4,0.3,0.7,0.7,0.7h2.1c0.4,0,0.7-0.3,0.7-0.7
		C29,23.5,28.7,23.1,28.4,23.1"/>
	<path class="st0" d="M33.1,23.3c-0.1-0.1-0.3-0.2-0.4-0.2h-2.1c-0.4,0-0.7,0.3-0.7,0.7s0.3,0.7,0.7,0.7h2.1c0.2,0,0.3-0.1,0.4-0.2
		c0,0,0,0,0.1,0c0.1-0.1,0.2-0.3,0.2-0.5C33.3,23.6,33.2,23.5,33.1,23.3C33.1,23.3,33.1,23.3,33.1,23.3"/>
</g>
</svg>
