<?xml version="1.0" encoding="utf-8"?>
<!-- Generator: Adobe Illustrator 19.1.0, SVG Export Plug-In . SVG Version: 6.00 Build 0)  -->
<svg version="1.1" id="Layer_1" xmlns="http://www.w3.org/2000/svg" xmlns:xlink="http://www.w3.org/1999/xlink" x="0px" y="0px"
	 viewBox="0 0 56.7 56.7" style="enable-background:new 0 0 56.7 56.7;" xml:space="preserve">
<style type="text/css">
	.st0{fill:#231F20;}
	.st1{clip-path:url(#SVGID_2_);fill:#FFFFFF;}
	.st2{clip-path:url(#SVGID_2_);fill:#003E7E;}
	.st3{clip-path:url(#SVGID_2_);fill-rule:evenodd;clip-rule:evenodd;fill:#FFFFFF;}
	.st4{fill:#EFC10B;}
	.st5{fill:#D7D1CA;}
	.st6{opacity:0.9;clip-path:url(#SVGID_4_);}
	.st7{clip-path:url(#SVGID_6_);fill:none;stroke:#EAEFF2;stroke-miterlimit:10;}
	.st8{clip-path:url(#SVGID_8_);fill-rule:evenodd;clip-rule:evenodd;fill:#74A333;}
	.st9{clip-path:url(#SVGID_8_);fill:none;stroke:#FFFFFF;stroke-linejoin:bevel;stroke-miterlimit:10;}
	.st10{clip-path:url(#SVGID_8_);fill-rule:evenodd;clip-rule:evenodd;fill:#BEB7B3;}
	.st11{clip-path:url(#SVGID_8_);fill-rule:evenodd;clip-rule:evenodd;fill:#DAD6D3;}
	.st12{clip-path:url(#SVGID_8_);fill-rule:evenodd;clip-rule:evenodd;fill:#E1E776;}
	.st13{clip-path:url(#SVGID_8_);fill:#BFD22B;}
	.st14{fill:#554742;}
	.st15{fill:#877B77;}
	.st16{fill:#BEB7B3;}
	.st17{fill:#F1EEE8;}
	.st18{fill:#F7F5F1;}
	.st19{fill:#E1E776;}
	.st20{fill:#D0DC70;}
	.st21{fill:#BFD22B;}
	.st22{fill:#74A333;}
	.st23{fill:#EAEFF2;}
	.st24{fill:#58B6E7;}
	.st25{fill:#3A84B6;}
	.st26{fill:#003E7E;}
	.st27{fill:#DAD6D3;}
	.st28{fill:none;stroke:#231F20;stroke-width:1.5;stroke-linecap:round;stroke-miterlimit:10;}
	.st29{fill:none;stroke:#231F20;stroke-width:1.5;stroke-miterlimit:10;}
</style>
<g>
	<path class="st0" d="M38.1,27.4C38,27.5,38,27.6,38,27.7c0,0.1,0.1,0.3,0.2,0.4c0.1,0.1,0.2,0.2,0.4,0.2c0.1,0,0.3-0.1,0.4-0.2
		C39,28,39,27.9,39,27.7c0-0.1-0.1-0.3-0.2-0.4C38.7,27.2,38.3,27.2,38.1,27.4"/>
	<path class="st0" d="M40.4,27.4c-0.1,0.1-0.2,0.2-0.2,0.4c0,0.1,0.1,0.3,0.2,0.4c0.1,0.1,0.2,0.2,0.4,0.2c0.1,0,0.3-0.1,0.4-0.2
		c0.1-0.1,0.2-0.2,0.2-0.4c0-0.1-0.1-0.3-0.2-0.4C40.9,27.2,40.6,27.2,40.4,27.4"/>
	<path class="st0" d="M50,33.3c-0.7,0-1.3-0.4-1.7-1c-0.1-0.2-0.3-0.3-0.5-0.3c-0.2,0-0.4,0.1-0.5,0.3c-0.4,0.6-1,1-1.7,1
		c-0.7,0-1.3-0.4-1.7-1c-0.1-0.2-0.3-0.3-0.5-0.3c-0.2,0-0.4,0.1-0.5,0.3c-0.4,0.6-1,1-1.7,1c-0.7,0-1.3-0.4-1.7-1
		c-0.1-0.2-0.3-0.3-0.5-0.3c-0.2,0-0.4,0.1-0.5,0.3c-0.4,0.6-1,1-1.7,1c-0.7,0-1.3-0.4-1.7-1c-0.2-0.3-0.7-0.3-0.9,0
		c-0.4,0.6-1,1-1.7,1c-0.7,0-1.3-0.4-1.7-1c-0.2-0.3-0.7-0.3-0.9,0c-0.4,0.6-1,1-1.7,1c-0.7,0-1.3-0.4-1.7-1c-0.2-0.3-0.7-0.3-0.9,0
		c-0.4,0.6-1,1-1.7,1c-0.7,0-1.3-0.4-1.7-1c-0.2-0.3-0.7-0.3-0.9,0c-0.4,0.6-1,1-1.7,1c-0.7,0-1.3-0.4-1.7-1c-0.2-0.3-0.7-0.3-0.9,0
		c-0.4,0.6-1,1-1.7,1c-0.7,0-1.3-0.4-1.7-1c-0.2-0.3-0.7-0.3-0.9,0c-0.4,0.6-1,1-1.7,1c-0.7,0-1.3-0.4-1.7-1c-0.2-0.3-0.7-0.3-0.9,0
		c-0.4,0.6-1,1-1.7,1c-0.3,0-0.5,0.2-0.5,0.5c0,0.3,0.2,0.5,0.5,0.5c0.8,0,1.6-0.3,2.2-0.9c0.6,0.6,1.3,0.9,2.2,0.9
		c0.8,0,1.6-0.3,2.2-0.9c0.6,0.6,1.3,0.9,2.2,0.9c0.8,0,1.6-0.3,2.2-0.9c0.6,0.6,1.3,0.9,2.2,0.9c0.8,0,1.6-0.3,2.2-0.9
		c0.6,0.6,1.3,0.9,2.2,0.9c0.8,0,1.6-0.3,2.2-0.9c0.6,0.6,1.3,0.9,2.2,0.9c0.8,0,1.6-0.3,2.2-0.9c0.6,0.6,1.3,0.9,2.2,0.9
		c0.8,0,1.6-0.3,2.2-0.9c0.6,0.6,1.3,0.9,2.2,0.9c0.8,0,1.6-0.3,2.2-0.9c0.6,0.6,1.3,0.9,2.2,0.9c0.8,0,1.6-0.3,2.2-0.9
		c0.6,0.6,1.3,0.9,2.2,0.9c0.8,0,1.6-0.3,2.2-0.9c0.6,0.6,1.3,0.9,2.2,0.9c0.3,0,0.5-0.2,0.5-0.5C50.5,33.6,50.3,33.3,50,33.3"/>
	<path class="st0" d="M20.8,23.4c0.3,0,0.5,0.2,0.5,0.5c0,0.3-0.2,0.5-0.5,0.5h-2.3c-0.3,0-0.5,0.2-0.5,0.5s0.2,0.5,0.5,0.5h1.1v1.1
		h-8v-3.2H20.8z M11.1,32.2c0.3,0,0.5-0.2,0.5-0.5v-4.1h23.6c0.1,0,0.3-0.1,0.4-0.2l1.4-1.4h10.2c-0.1,1.9-0.7,3.8-1.9,5.4
		c-0.2,0.2-0.1,0.6,0.1,0.7c0.1,0.1,0.2,0.1,0.3,0.1c0.2,0,0.3-0.1,0.4-0.2c1.4-1.9,2.1-4.2,2.1-6.5c0-0.3-0.2-0.5-0.5-0.5h-11
		c-0.1,0-0.3,0.1-0.4,0.2l-1.4,1.4H20.6v-1.1h0.2c0.9,0,1.6-0.7,1.6-1.6c0-0.9-0.7-1.6-1.6-1.6h-9.7c-0.3,0-0.5,0.2-0.5,0.5V27v4.6
		C10.5,32,10.8,32.2,11.1,32.2"/>
</g>
</svg>
