<?xml version="1.0" encoding="utf-8"?>
<!-- Generator: Adobe Illustrator 19.1.0, SVG Export Plug-In . SVG Version: 6.00 Build 0)  -->
<svg version="1.1" id="Layer_1" xmlns="http://www.w3.org/2000/svg" xmlns:xlink="http://www.w3.org/1999/xlink" x="0px" y="0px"
	 viewBox="0 0 56.7 56.7" style="enable-background:new 0 0 56.7 56.7;" xml:space="preserve">
<style type="text/css">
	.st0{fill:#231F20;}
	.st1{clip-path:url(#SVGID_2_);fill:#FFFFFF;}
	.st2{clip-path:url(#SVGID_2_);fill:#003E7E;}
	.st3{clip-path:url(#SVGID_2_);fill-rule:evenodd;clip-rule:evenodd;fill:#FFFFFF;}
	.st4{fill:#EFC10B;}
	.st5{fill:#D7D1CA;}
	.st6{opacity:0.9;clip-path:url(#SVGID_4_);}
	.st7{clip-path:url(#SVGID_6_);fill:none;stroke:#EAEFF2;stroke-miterlimit:10;}
	.st8{clip-path:url(#SVGID_8_);fill-rule:evenodd;clip-rule:evenodd;fill:#74A333;}
	.st9{clip-path:url(#SVGID_8_);fill:none;stroke:#FFFFFF;stroke-linejoin:bevel;stroke-miterlimit:10;}
	.st10{clip-path:url(#SVGID_8_);fill-rule:evenodd;clip-rule:evenodd;fill:#BEB7B3;}
	.st11{clip-path:url(#SVGID_8_);fill-rule:evenodd;clip-rule:evenodd;fill:#DAD6D3;}
	.st12{clip-path:url(#SVGID_8_);fill-rule:evenodd;clip-rule:evenodd;fill:#E1E776;}
	.st13{clip-path:url(#SVGID_8_);fill:#BFD22B;}
	.st14{fill:#554742;}
	.st15{fill:#877B77;}
	.st16{fill:#BEB7B3;}
	.st17{fill:#F1EEE8;}
	.st18{fill:#F7F5F1;}
	.st19{fill:#E1E776;}
	.st20{fill:#D0DC70;}
	.st21{fill:#BFD22B;}
	.st22{fill:#74A333;}
	.st23{fill:#EAEFF2;}
	.st24{fill:#58B6E7;}
	.st25{fill:#3A84B6;}
	.st26{fill:#003E7E;}
	.st27{fill:#DAD6D3;}
	.st28{fill:none;stroke:#231F20;stroke-width:1.5;stroke-linecap:round;stroke-miterlimit:10;}
	.st29{fill:none;stroke:#231F20;stroke-width:1.5;stroke-miterlimit:10;}
</style>
<g>
	<path class="st0" d="M44.1,32.2h-0.9c-0.3-2.4-2.3-4.3-4.8-4.3h0h0c-2.5,0-4.5,1.9-4.8,4.3H23.1c-0.3-2.4-2.3-4.3-4.8-4.3
		c-2.3,0-4.3,1.7-4.7,3.9l-1-0.6v-3.5c0-0.4,0.3-0.7,0.7-0.7h2.3c0.1,0,0.3,0,0.4-0.1l4.4-3.6c0.7-0.6,1.6-0.9,2.6-0.9h5.8
		c1,0,2,0.4,2.8,1.1l2.5,2.4h-8.5v-2c0-0.3-0.3-0.6-0.6-0.6c-0.3,0-0.6,0.3-0.6,0.6v2.6c0,0.3,0.3,0.6,0.6,0.6h17.3c1.1,0,2,0.9,2,2
		V32.2z M42.1,25.8h-6.4l-3.4-3.3c-1-0.9-2.2-1.4-3.6-1.4h-5.8c-1.2,0-2.4,0.4-3.3,1.2l-4.2,3.5h-2.1c-1.1,0-1.9,0.9-1.9,1.9v3.9
		c0,0.2,0.1,0.4,0.3,0.5l2.1,1.2c0.1,0.1,0.2,0.1,0.3,0.1c0.1,0,0.2,0,0.3-0.1c0.2-0.1,0.3-0.3,0.3-0.5c0-2,1.6-3.7,3.6-3.7
		c2,0,3.6,1.7,3.6,3.7c0,0.3,0.3,0.6,0.6,0.6h11.6c0.3,0,0.6-0.3,0.6-0.6c0-2,1.6-3.7,3.6-3.7h0h0c2,0,3.6,1.7,3.6,3.7
		c0,0.3,0.3,0.6,0.6,0.6h2.1c0.3,0,0.6-0.3,0.6-0.6v-3.8C45.3,27.3,43.9,25.8,42.1,25.8"/>
	<path class="st0" d="M36.8,32.8c0-0.9,0.7-1.5,1.5-1.5c0.8,0,1.5,0.7,1.5,1.5c0,0.9-0.7,1.5-1.5,1.5C37.5,34.4,36.8,33.7,36.8,32.8
		 M41.1,32.8c0-1.5-1.2-2.7-2.7-2.7s-2.7,1.2-2.7,2.7c0,1.5,1.2,2.7,2.7,2.7S41.1,34.4,41.1,32.8"/>
	<path class="st0" d="M16.8,32.8c0-0.9,0.7-1.5,1.5-1.5c0.8,0,1.5,0.7,1.5,1.5c0,0.9-0.7,1.5-1.5,1.5C17.5,34.4,16.8,33.7,16.8,32.8
		 M21.1,32.8c0-1.5-1.2-2.7-2.7-2.7s-2.7,1.2-2.7,2.7c0,1.5,1.2,2.7,2.7,2.7S21.1,34.4,21.1,32.8"/>
</g>
</svg>
