<?xml version="1.0" encoding="utf-8"?>
<!-- Generator: Adobe Illustrator 19.1.0, SVG Export Plug-In . SVG Version: 6.00 Build 0)  -->
<svg version="1.1" id="Layer_1" xmlns="http://www.w3.org/2000/svg" xmlns:xlink="http://www.w3.org/1999/xlink" x="0px" y="0px"
	 viewBox="0 0 56.7 56.7" style="enable-background:new 0 0 56.7 56.7;" xml:space="preserve">
<style type="text/css">
	.st0{fill:#231F20;}
	.st1{clip-path:url(#SVGID_2_);fill:#FFFFFF;}
	.st2{clip-path:url(#SVGID_2_);fill:#003E7E;}
	.st3{clip-path:url(#SVGID_2_);fill-rule:evenodd;clip-rule:evenodd;fill:#FFFFFF;}
	.st4{fill:#EFC10B;}
	.st5{fill:#D7D1CA;}
	.st6{opacity:0.9;clip-path:url(#SVGID_4_);}
	.st7{clip-path:url(#SVGID_6_);fill:none;stroke:#EAEFF2;stroke-miterlimit:10;}
	.st8{clip-path:url(#SVGID_8_);fill-rule:evenodd;clip-rule:evenodd;fill:#74A333;}
	.st9{clip-path:url(#SVGID_8_);fill:none;stroke:#FFFFFF;stroke-linejoin:bevel;stroke-miterlimit:10;}
	.st10{clip-path:url(#SVGID_8_);fill-rule:evenodd;clip-rule:evenodd;fill:#BEB7B3;}
	.st11{clip-path:url(#SVGID_8_);fill-rule:evenodd;clip-rule:evenodd;fill:#DAD6D3;}
	.st12{clip-path:url(#SVGID_8_);fill-rule:evenodd;clip-rule:evenodd;fill:#E1E776;}
	.st13{clip-path:url(#SVGID_8_);fill:#BFD22B;}
	.st14{fill:#554742;}
	.st15{fill:#877B77;}
	.st16{fill:#BEB7B3;}
	.st17{fill:#F1EEE8;}
	.st18{fill:#F7F5F1;}
	.st19{fill:#E1E776;}
	.st20{fill:#D0DC70;}
	.st21{fill:#BFD22B;}
	.st22{fill:#74A333;}
	.st23{fill:#EAEFF2;}
	.st24{fill:#58B6E7;}
	.st25{fill:#3A84B6;}
	.st26{fill:#003E7E;}
	.st27{fill:#DAD6D3;}
	.st28{fill:none;stroke:#231F20;stroke-width:1.5;stroke-linecap:round;stroke-miterlimit:10;}
	.st29{fill:none;stroke:#231F20;stroke-width:1.5;stroke-miterlimit:10;}
</style>
<g>
	<path class="st0" d="M5.4,36.7c1.9-0.9,3.7-0.9,5.5,0v6.2H5.4V36.7z M11.6,36c-2.3-1.3-4.7-1.3-7,0c-0.2,0.1-0.3,0.2-0.3,0.4v7v1.3
		c0,0.3,0.2,0.5,0.5,0.5c0.3,0,0.5-0.2,0.5-0.5v-0.8h5.5v0.8c0,0.3,0.2,0.5,0.5,0.5s0.5-0.2,0.5-0.5v-1.3v-7
		C11.9,36.2,11.8,36.1,11.6,36"/>
	<path class="st0" d="M18.3,44.2h-4.4V24.4c1.5-0.8,2.9-0.8,4.4,0V44.2z M17.5,22.3h1.7c0.6,0,1,0.5,1,1v9.2c0,0.9,0.8,1.7,1.7,1.7
		c0.3,0,0.5-0.2,0.5-0.5s-0.2-0.5-0.5-0.5c-0.4,0-0.7-0.3-0.7-0.7v-9.2c0-1.1-0.9-2-2-2h-1.7c-0.9,0-1.7,0.6-1.9,1.5
		c-0.8,0.1-1.7,0.3-2.5,0.8c-0.1,0.1-0.2,0.2-0.2,0.4v20.6c0,0.3,0.2,0.5,0.5,0.5h5.4c0.3,0,0.5-0.2,0.5-0.5V24.1
		c0-0.2-0.1-0.3-0.2-0.4c-0.8-0.4-1.6-0.7-2.4-0.8C16.8,22.5,17.1,22.3,17.5,22.3"/>
	<path class="st0" d="M26.9,42.4v-5.8c0-0.6-0.4-1.2-1-1.4v-1c1.1,0.2,1.9,1.2,1.9,2.4v5.8H26.9z M26,44.2h-1v-7.6
		c0-0.3,0.2-0.5,0.5-0.5c0.3,0,0.5,0.2,0.5,0.5V44.2z M24.6,33.2c-0.3,0-0.5-0.2-0.5-0.5v-0.2c0-0.3,0.2-0.5,0.5-0.5
		c0.3,0,0.5,0.2,0.5,0.5v0.6H24.6z M22.1,44.2h-1v-7.6c0-0.3,0.2-0.5,0.5-0.5c0.3,0,0.5,0.2,0.5,0.5V44.2z M26,33.3v-0.7
		c0-0.8-0.6-1.4-1.4-1.4s-1.4,0.6-1.4,1.4v0.2c0,0.8,0.6,1.4,1.4,1.4H25v1c-0.6,0.2-1,0.7-1,1.4v5.8h-1v-5.8c0-0.8-0.6-1.4-1.4-1.4
		c-0.8,0-1.4,0.6-1.4,1.4v8.1c0,0.3,0.2,0.5,0.5,0.5h1.9c0.3,0,0.5-0.2,0.5-0.5v-1.3h1v1.3c0,0.3,0.2,0.5,0.5,0.5h1.9
		c0.3,0,0.5-0.2,0.5-0.5v-1.3h1v1.3c0,0.3,0.2,0.5,0.5,0.5c0.3,0,0.5-0.2,0.5-0.5v-8.1C28.9,34.9,27.6,33.5,26,33.3"/>
	<path class="st0" d="M32.7,38.9h2.6v1.7h-2.6V38.9z M31.7,41.1c0,0.3,0.2,0.5,0.5,0.5h3.6c0.3,0,0.5-0.2,0.5-0.5v-2.7
		c0-0.3-0.2-0.5-0.5-0.5h-3.1v-1.4c0-0.8-0.6-1.4-1.4-1.4c-0.8,0-1.4,0.6-1.4,1.4v8.1c0,0.3,0.2,0.5,0.5,0.5c0.3,0,0.5-0.2,0.5-0.5
		v-8.1c0-0.3,0.2-0.5,0.5-0.5c0.3,0,0.5,0.2,0.5,0.5V41.1z"/>
	<path class="st0" d="M51.3,44.2H38.2v-8.7h13.1V44.2z M43.8,33.4h1.9h5.6v1.1H38.2v-1.1H43.8z M44.3,24.9h0.9v7.6h-0.9V24.9z
		 M24.1,22.3H25v7h-0.9V22.3z M51.8,32.5h-5.6v-8.1c0-0.3-0.2-0.5-0.5-0.5h-1.9c-0.3,0-0.5,0.2-0.5,0.5v8.1h-5.1v-2.7
		c0-0.3-0.2-0.5-0.5-0.5H26v-7.5c0-0.3-0.2-0.5-0.5-0.5h-1.9c-0.3,0-0.5,0.2-0.5,0.5v7.5h-0.7c-0.3,0-0.5,0.2-0.5,0.5
		c0,0.3,0.2,0.5,0.5,0.5h1.1h1.9h11.8v2.7V35v9.2h-4.6v-0.8h3.1c0.3,0,0.5-0.2,0.5-0.5c0-0.3-0.2-0.5-0.5-0.5h-3.6
		c-0.3,0-0.5,0.2-0.5,0.5v1.8c0,0.3,0.2,0.5,0.5,0.5h5.5h14.1c0.3,0,0.5-0.2,0.5-0.5V35v-2.1C52.3,32.7,52.1,32.5,51.8,32.5"/>
	<path class="st0" d="M13,13.9c0.4-0.9,1.3-1.4,2.2-1.4h1c1.1,0,2,0.8,2.2,1.8H18c-0.3,0-0.5,0.2-0.5,0.5s0.2,0.5,0.5,0.5h1.5
		c0.5,0,0.9,0.4,0.9,0.9v0.4c0,0.3,0.2,0.5,0.5,0.5h2.1c0.6,0,1.2,0.5,1.2,1.2v1.8c0,0.3,0.2,0.5,0.5,0.5s0.5-0.2,0.5-0.5v-1.8
		c0-1.2-1-2.1-2.1-2.1h-1.6c-0.1-1-0.9-1.7-1.8-1.7c-0.2-1.5-1.6-2.7-3.2-2.7h-1c-1.3,0-2.6,0.8-3.1,2c-0.1,0.1-0.1,0.2,0,0.4
		c0,0.1,0.1,0.2,0.3,0.3C12.6,14.3,12.9,14.2,13,13.9C13,13.9,13,13.9,13,13.9"/>
	<path class="st0" d="M12.3,15.2c-0.3,0-0.5,0.2-0.5,0.5c0,0.3,0.2,0.5,0.5,0.5c0.3,0,0.5-0.2,0.5-0.5
		C12.8,15.4,12.6,15.2,12.3,15.2"/>
	<path class="st0" d="M32.2,17.3c0.3-0.4,0.8-0.7,1.3-0.7H35c1,0,1.9,0.8,1.9,1.9h-0.7c-0.3,0-0.5,0.2-0.5,0.5
		c0,0.3,0.2,0.5,0.5,0.5h4.4c0.5,0,0.9,0.4,0.9,0.9c0,0.3,0.2,0.5,0.5,0.5H43c0.7,0,1.2,0.6,1.2,1.2v0.5c0,0.3,0.2,0.5,0.5,0.5
		s0.5-0.2,0.5-0.5V22c0-1.2-1-2.2-2.2-2.2h-0.8c-0.2-0.8-0.9-1.3-1.7-1.3h-2.7c0-1.6-1.3-2.8-2.9-2.8h-1.5c-0.8,0-1.6,0.4-2.1,1.1
		c-0.1,0.2-0.1,0.5,0.1,0.7C31.7,17.5,32,17.5,32.2,17.3"/>
	<path class="st0" d="M31.4,19.4c0.3,0,0.5-0.2,0.5-0.5v-0.1c0-0.3-0.2-0.5-0.5-0.5c-0.3,0-0.5,0.2-0.5,0.5v0.1
		C31,19.2,31.2,19.4,31.4,19.4"/>
</g>
</svg>
