<?xml version="1.0" encoding="utf-8"?>
<!-- Generator: Adobe Illustrator 19.1.0, SVG Export Plug-In . SVG Version: 6.00 Build 0)  -->
<svg version="1.1" id="Layer_1" xmlns="http://www.w3.org/2000/svg" xmlns:xlink="http://www.w3.org/1999/xlink" x="0px" y="0px"
	 viewBox="0 0 56.7 56.7" style="enable-background:new 0 0 56.7 56.7;" xml:space="preserve">
<style type="text/css">
	.st0{fill:#231F20;}
	.st1{clip-path:url(#SVGID_2_);fill:#FFFFFF;}
	.st2{clip-path:url(#SVGID_2_);fill:#003E7E;}
	.st3{clip-path:url(#SVGID_2_);fill-rule:evenodd;clip-rule:evenodd;fill:#FFFFFF;}
	.st4{fill:#EFC10B;}
	.st5{fill:#D7D1CA;}
	.st6{opacity:0.9;clip-path:url(#SVGID_4_);}
	.st7{clip-path:url(#SVGID_6_);fill:none;stroke:#EAEFF2;stroke-miterlimit:10;}
	.st8{clip-path:url(#SVGID_8_);fill-rule:evenodd;clip-rule:evenodd;fill:#74A333;}
	.st9{clip-path:url(#SVGID_8_);fill:none;stroke:#FFFFFF;stroke-linejoin:bevel;stroke-miterlimit:10;}
	.st10{clip-path:url(#SVGID_8_);fill-rule:evenodd;clip-rule:evenodd;fill:#BEB7B3;}
	.st11{clip-path:url(#SVGID_8_);fill-rule:evenodd;clip-rule:evenodd;fill:#DAD6D3;}
	.st12{clip-path:url(#SVGID_8_);fill-rule:evenodd;clip-rule:evenodd;fill:#E1E776;}
	.st13{clip-path:url(#SVGID_8_);fill:#BFD22B;}
	.st14{fill:#554742;}
	.st15{fill:#877B77;}
	.st16{fill:#BEB7B3;}
	.st17{fill:#F1EEE8;}
	.st18{fill:#F7F5F1;}
	.st19{fill:#E1E776;}
	.st20{fill:#D0DC70;}
	.st21{fill:#BFD22B;}
	.st22{fill:#74A333;}
	.st23{fill:#EAEFF2;}
	.st24{fill:#58B6E7;}
	.st25{fill:#3A84B6;}
	.st26{fill:#003E7E;}
	.st27{fill:#DAD6D3;}
	.st28{fill:none;stroke:#231F20;stroke-width:1.5;stroke-linecap:round;stroke-miterlimit:10;}
	.st29{fill:none;stroke:#231F20;stroke-width:1.5;stroke-miterlimit:10;}
</style>
<g>
	<path d="M49.8,22.5v-3c0-0.3-0.2-0.5-0.5-0.5h-8.6v-5.5c0-2.6-2.1-4.8-4.8-4.8H20.3c-2.6,0-4.8,2.1-4.8,4.8v0.5h-2.2
		c-0.3,0-0.5,0.2-0.5,0.5v8.7c0,1.1,0.4,2.1,1.2,2.8l1.9,1.7v6.7h-12c-0.3,0-0.5,0.2-0.5,0.5v12.5c0,0.3,0.2,0.5,0.5,0.5h11.4h4.4
		h11.4h2.2h6.5h9.4c0.3,0,0.5-0.2,0.5-0.5V44c1.9-0.2,3.4-1.9,3.4-3.9V25.9C53.2,24.2,51.7,22.8,49.8,22.5 M48.8,43.5V45h-8.5v-5.5
		H41c0.7,0,1.3-0.6,1.3-1.3v-1.3c0.3-0.2,0.5-0.5,0.5-0.8c0-0.5-0.4-0.9-0.9-0.9c-0.5,0-0.9,0.4-0.9,0.9c0,0.3,0.2,0.6,0.5,0.8v1.3
		c0,0.2-0.1,0.3-0.3,0.3h-0.7v-3.5c0-0.3-0.2-0.5-0.5-0.5h-6.5c-0.3,0-0.5,0.2-0.5,0.5V45h-1.2V34.9v-4.2v-2.8h17.2V43.5z
		 M39.4,40.3h-5.5v-4.9h5.5V40.3z M19.2,27.8l1.9-1.7c0.8-0.7,1.2-1.7,1.2-2.8v-8.7c0-0.3-0.2-0.5-0.5-0.5h-1.9v-0.3
		c0-0.4,0.3-0.7,0.7-0.7h15.1c0.4,0,0.7,0.3,0.7,0.7v5.3h-3.8l2.7-2.2c0,0,0,0,0,0c0,0,0,0,0,0c0,0,0,0,0,0c0,0,0,0,0-0.1
		c0,0,0,0,0,0c0,0,0,0,0-0.1c0,0,0,0,0,0c0,0,0-0.1,0-0.1v-1.9c0-0.3-0.2-0.5-0.5-0.5H23.7c-0.3,0-0.5,0.2-0.5,0.5v1.9
		c0,0,0,0.1,0,0.1c0,0,0,0,0,0c0,0,0,0,0,0.1c0,0,0,0,0,0c0,0,0,0,0,0.1c0,0,0,0,0,0c0,0,0,0,0,0c0,0,0,0,0,0l3.6,2.9v1.5
		c0,0.1,0.1,0.3,0.2,0.4l3.5,3.1v2.3l-2.5,1.8c-0.8,0.6-1.2,1.5-1.2,2.5v2c0,0.2,0.1,0.4,0.3,0.4c0.1,0,0.1,0.1,0.2,0.1
		c0.1,0,0.2,0,0.3-0.1l2.9-2.2v2.8H19.2V27.8z M29.9,16.1h-5.6v-1h10.2v1h-2.3c-0.3,0-0.5,0.2-0.5,0.5c0,0.3,0.2,0.5,0.5,0.5h1.4
		L31,19.1h-3.4L25.1,17h4.7c0.3,0,0.5-0.2,0.5-0.5C30.3,16.3,30.1,16.1,29.9,16.1 M28,20.1h2.7v3.4L28,21.1V20.1z M30.7,30.4l-2.7,2
		v-1.1c0-0.7,0.3-1.3,0.8-1.7l1.9-1.4V30.4z M48.8,23v3.9H31.7v-2.3v-4.5h5.2h3.4h8.6V23z M16.5,13.6c0-2.1,1.7-3.8,3.8-3.8H36
		c2.1,0,3.8,1.7,3.8,3.8v5.5h-2.4v-5.3c0-0.9-0.8-1.7-1.7-1.7H20.6c-0.9,0-1.7,0.8-1.7,1.7v0.3h-2.4V13.6z M13.8,23.3v-8.2H16h3.4
		h1.9v8.2c0,0.8-0.3,1.5-0.9,2l-1.9,1.7h-1.8l-1.9-1.7C14.2,24.8,13.8,24.1,13.8,23.3 M16.9,28h1.2v6.4h-1.2V28z M4.4,35.4h12h2.2
		h12v11.5H20.3v-5.8c0-1.5-1.2-2.7-2.7-2.7c-1.5,0-2.7,1.2-2.7,2.7v5.8H4.4V35.4z M15.8,46.9v-5.8c0-1,0.8-1.7,1.7-1.7
		s1.7,0.8,1.7,1.7v5.8H15.8z M31.7,46h1.2v1h-1.2V46z M33.9,41.2h5.5v5.7h-5.5V41.2z M40.4,46h8.5v1h-8.5V46z M52.3,40.1
		c0,1.4-1.1,2.7-2.4,2.9V23.5c1.4,0.2,2.4,1.2,2.4,2.3V40.1z"/>
	<path d="M17.6,40.5c-0.4,0-0.7,0.3-0.7,0.7c0,0.4,0.3,0.7,0.7,0.7c0.4,0,0.7-0.3,0.7-0.7C18.2,40.8,17.9,40.5,17.6,40.5 M17.6,41.5
		c-0.2,0-0.3-0.1-0.3-0.3c0-0.2,0.1-0.3,0.3-0.3c0.2,0,0.3,0.1,0.3,0.3C17.9,41.3,17.7,41.5,17.6,41.5"/>
	<path d="M13.8,40.8c-0.2-0.2-0.6-0.2-0.8,0c-0.1,0.1-0.2,0.2-0.2,0.4c0,0.1,0.1,0.3,0.2,0.4c0.1,0.1,0.2,0.2,0.4,0.2
		c0.2,0,0.3-0.1,0.4-0.2c0.1-0.1,0.2-0.3,0.2-0.4C14,41,13.9,40.9,13.8,40.8"/>
	<path d="M11.5,40.6c-0.3,0-0.6,0.3-0.6,0.6c0,0.3,0.3,0.6,0.6,0.6c0.3,0,0.6-0.3,0.6-0.6C12.1,40.9,11.8,40.6,11.5,40.6"/>
	<path d="M7.8,40.6c-0.3,0-0.6,0.3-0.6,0.6c0,0.3,0.3,0.6,0.6,0.6c0.3,0,0.6-0.3,0.6-0.6C8.3,40.9,8.1,40.6,7.8,40.6"/>
	<path d="M9.6,40.6c-0.3,0-0.6,0.3-0.6,0.6c0,0.3,0.3,0.6,0.6,0.6c0.3,0,0.6-0.3,0.6-0.6C10.2,40.9,10,40.6,9.6,40.6"/>
	<path d="M5.5,40.8c-0.1,0.1-0.2,0.2-0.2,0.4c0,0.2,0.1,0.3,0.2,0.4c0.1,0.1,0.3,0.2,0.4,0.2c0.2,0,0.3-0.1,0.4-0.2
		c0.1-0.1,0.2-0.3,0.2-0.4c0-0.1-0.1-0.3-0.2-0.4C6.1,40.6,5.7,40.6,5.5,40.8"/>
	<path d="M19.8,17.1c0.1,0,0.3-0.1,0.4-0.2c0.1-0.1,0.2-0.2,0.2-0.4c0-0.1-0.1-0.3-0.2-0.4c-0.2-0.2-0.6-0.2-0.8,0
		c-0.1,0.1-0.2,0.2-0.2,0.4c0,0.2,0.1,0.3,0.2,0.4C19.5,17,19.6,17.1,19.8,17.1"/>
	<path d="M17.6,17.1c0.3,0,0.6-0.3,0.6-0.6c0-0.3-0.3-0.6-0.6-0.6c-0.3,0-0.6,0.3-0.6,0.6C17,16.9,17.3,17.1,17.6,17.1"/>
	<path d="M14.9,16.1c-0.1,0.1-0.2,0.3-0.2,0.4c0,0.1,0.1,0.3,0.2,0.4c0.1,0.1,0.2,0.2,0.4,0.2c0.1,0,0.3-0.1,0.4-0.2
		c0.1-0.1,0.2-0.3,0.2-0.4c0-0.1-0.1-0.3-0.2-0.4C15.5,15.9,15.2,15.9,14.9,16.1"/>
	<path d="M29.2,41.7c0.1,0,0.3-0.1,0.4-0.2c0.1-0.1,0.2-0.3,0.2-0.4c0-0.1-0.1-0.3-0.2-0.4c-0.2-0.2-0.6-0.2-0.8,0
		c-0.1,0.1-0.2,0.2-0.2,0.4c0,0.2,0.1,0.3,0.2,0.4C28.9,41.7,29.1,41.7,29.2,41.7"/>
	<path d="M23.6,41.7c0.3,0,0.6-0.3,0.6-0.6c0-0.3-0.3-0.6-0.6-0.6c-0.3,0-0.6,0.3-0.6,0.6C23,41.5,23.3,41.7,23.6,41.7"/>
	<path d="M25.5,41.7c0.3,0,0.6-0.3,0.6-0.6c0-0.3-0.3-0.6-0.6-0.6c-0.3,0-0.6,0.3-0.6,0.6C24.9,41.5,25.2,41.7,25.5,41.7"/>
	<path d="M27.4,41.7c0.3,0,0.6-0.3,0.6-0.6c0-0.3-0.3-0.6-0.6-0.6c-0.3,0-0.6,0.3-0.6,0.6C26.8,41.5,27.1,41.7,27.4,41.7"/>
	<path d="M21.7,41.7c0.2,0,0.3-0.1,0.4-0.2c0.1-0.1,0.2-0.3,0.2-0.4c0-0.1-0.1-0.3-0.2-0.4c-0.2-0.2-0.6-0.2-0.8,0
		c-0.1,0.1-0.2,0.2-0.2,0.4c0,0.2,0.1,0.3,0.2,0.4C21.4,41.7,21.6,41.7,21.7,41.7"/>
	<path d="M47.4,22.1c0.1,0,0.3-0.1,0.4-0.2c0.1-0.1,0.2-0.2,0.2-0.4c0-0.1-0.1-0.3-0.2-0.4c-0.2-0.2-0.6-0.2-0.8,0
		c-0.1,0.1-0.2,0.3-0.2,0.4c0,0.2,0.1,0.3,0.2,0.4C47.1,22,47.2,22.1,47.4,22.1"/>
	<path d="M47.4,24c0.3,0,0.6-0.3,0.6-0.6c0-0.3-0.3-0.6-0.6-0.6c-0.3,0-0.6,0.3-0.6,0.6C46.8,23.8,47.1,24,47.4,24"/>
	<path d="M47.4,26c0.1,0,0.3-0.1,0.4-0.2c0.1-0.1,0.2-0.2,0.2-0.4c0-0.1-0.1-0.3-0.2-0.4c-0.2-0.2-0.6-0.2-0.8,0
		c-0.1,0.1-0.2,0.2-0.2,0.4c0,0.2,0.1,0.3,0.2,0.4C47.1,25.9,47.2,26,47.4,26"/>
	<path d="M32.7,21.1c-0.1,0.1-0.2,0.3-0.2,0.4s0.1,0.3,0.2,0.4c0.1,0.1,0.2,0.2,0.4,0.2c0.1,0,0.3-0.1,0.4-0.2
		c0.1-0.1,0.2-0.3,0.2-0.4s-0.1-0.3-0.2-0.4C33.3,20.9,32.9,20.9,32.7,21.1"/>
	<path d="M33.1,22.9c-0.3,0-0.6,0.3-0.6,0.6c0,0.3,0.3,0.6,0.6,0.6c0.3,0,0.6-0.3,0.6-0.6C33.7,23.2,33.5,22.9,33.1,22.9"/>
	<path d="M32.7,25c-0.1,0.1-0.2,0.3-0.2,0.4c0,0.1,0.1,0.3,0.2,0.4c0.1,0.1,0.2,0.2,0.4,0.2c0.1,0,0.3-0.1,0.4-0.2
		c0.1-0.1,0.2-0.3,0.2-0.4c0-0.1-0.1-0.3-0.2-0.4C33.3,24.8,32.9,24.8,32.7,25"/>
	<path d="M47.4,29.9c0.1,0,0.3-0.1,0.4-0.2c0.1-0.1,0.2-0.2,0.2-0.4c0-0.2-0.1-0.3-0.2-0.4c-0.2-0.2-0.6-0.2-0.8,0
		c-0.1,0.1-0.2,0.2-0.2,0.4c0,0.1,0.1,0.3,0.2,0.4C47.1,29.8,47.2,29.9,47.4,29.9"/>
	<path d="M41.3,29.9c0.3,0,0.6-0.3,0.6-0.6c0-0.3-0.3-0.6-0.6-0.6c-0.3,0-0.6,0.3-0.6,0.6C40.7,29.6,41,29.9,41.3,29.9"/>
	<path d="M45.4,29.9c0.3,0,0.6-0.3,0.6-0.6c0-0.3-0.3-0.6-0.6-0.6c-0.3,0-0.6,0.3-0.6,0.6C44.8,29.6,45,29.9,45.4,29.9"/>
	<path d="M39.2,29.9c0.3,0,0.6-0.3,0.6-0.6c0-0.3-0.3-0.6-0.6-0.6c-0.3,0-0.6,0.3-0.6,0.6C38.7,29.6,38.9,29.9,39.2,29.9"/>
	<path d="M43.3,29.9c0.3,0,0.6-0.3,0.6-0.6c0-0.3-0.3-0.6-0.6-0.6c-0.3,0-0.6,0.3-0.6,0.6C42.7,29.6,43,29.9,43.3,29.9"/>
	<path d="M35.2,29.9c0.3,0,0.6-0.3,0.6-0.6c0-0.3-0.3-0.6-0.6-0.6c-0.3,0-0.6,0.3-0.6,0.6C34.6,29.6,34.9,29.9,35.2,29.9"/>
	<path d="M37.2,29.9c0.3,0,0.6-0.3,0.6-0.6c0-0.3-0.3-0.6-0.6-0.6c-0.3,0-0.6,0.3-0.6,0.6C36.6,29.6,36.9,29.9,37.2,29.9"/>
	<path d="M32.7,29.7c0.1,0.1,0.2,0.2,0.4,0.2c0.1,0,0.3-0.1,0.4-0.2c0.1-0.1,0.2-0.3,0.2-0.4s-0.1-0.3-0.2-0.4
		c-0.2-0.2-0.6-0.2-0.8,0c-0.1,0.1-0.2,0.2-0.2,0.4S32.6,29.6,32.7,29.7"/>
	<path d="M47.4,43h-3.2c-0.3,0-0.5,0.2-0.5,0.5c0,0.3,0.2,0.5,0.5,0.5h3.2c0.3,0,0.5-0.2,0.5-0.5C47.9,43.3,47.7,43,47.4,43"/>
	<path d="M34.8,38.1h0.1v0.8c0,0.3,0.2,0.5,0.5,0.5c0.3,0,0.5-0.2,0.5-0.5v-0.8H36c0.3,0,0.5-0.2,0.5-0.5c0-0.3-0.2-0.5-0.5-0.5
		h-0.1v-0.2c0-0.3-0.2-0.5-0.5-0.5c-0.3,0-0.5,0.2-0.5,0.5v0.2h-0.1c-0.3,0-0.5,0.2-0.5,0.5C34.3,37.8,34.5,38.1,34.8,38.1"/>
	<path d="M37.3,38.5h0.1v0.3c0,0.3,0.2,0.5,0.5,0.5c0.3,0,0.5-0.2,0.5-0.5v-0.3h0.1c0.3,0,0.5-0.2,0.5-0.5c0-0.3-0.2-0.5-0.5-0.5
		h-0.1v-0.7c0-0.3-0.2-0.5-0.5-0.5c-0.3,0-0.5,0.2-0.5,0.5v0.7h-0.1c-0.3,0-0.5,0.2-0.5,0.5C36.9,38.3,37.1,38.5,37.3,38.5"/>
	<path d="M47.4,41.4h-3.2c-0.3,0-0.5,0.2-0.5,0.5c0,0.3,0.2,0.5,0.5,0.5h3.2c0.3,0,0.5-0.2,0.5-0.5C47.9,41.6,47.7,41.4,47.4,41.4"
		/>
	<path d="M43.7,40.3c0,0.3,0.2,0.5,0.5,0.5h3.2c0.3,0,0.5-0.2,0.5-0.5c0-0.3-0.2-0.5-0.5-0.5h-3.2C43.9,39.8,43.7,40,43.7,40.3"/>
</g>
</svg>
