<?xml version="1.0" encoding="utf-8"?>
<!-- Generator: Adobe Illustrator 19.1.0, SVG Export Plug-In . SVG Version: 6.00 Build 0)  -->
<svg version="1.1" id="Layer_1" xmlns="http://www.w3.org/2000/svg" xmlns:xlink="http://www.w3.org/1999/xlink" x="0px" y="0px"
	 viewBox="0 0 56.7 56.7" style="enable-background:new 0 0 56.7 56.7;" xml:space="preserve">
<style type="text/css">
	.st0{fill:#231F20;}
	.st1{clip-path:url(#SVGID_2_);fill:#FFFFFF;}
	.st2{clip-path:url(#SVGID_2_);fill:#003E7E;}
	.st3{clip-path:url(#SVGID_2_);fill-rule:evenodd;clip-rule:evenodd;fill:#FFFFFF;}
	.st4{fill:#EFC10B;}
	.st5{fill:#D7D1CA;}
	.st6{opacity:0.9;clip-path:url(#SVGID_4_);}
	.st7{clip-path:url(#SVGID_6_);fill:none;stroke:#EAEFF2;stroke-miterlimit:10;}
	.st8{clip-path:url(#SVGID_8_);fill-rule:evenodd;clip-rule:evenodd;fill:#74A333;}
	.st9{clip-path:url(#SVGID_8_);fill:none;stroke:#FFFFFF;stroke-linejoin:bevel;stroke-miterlimit:10;}
	.st10{clip-path:url(#SVGID_8_);fill-rule:evenodd;clip-rule:evenodd;fill:#BEB7B3;}
	.st11{clip-path:url(#SVGID_8_);fill-rule:evenodd;clip-rule:evenodd;fill:#DAD6D3;}
	.st12{clip-path:url(#SVGID_8_);fill-rule:evenodd;clip-rule:evenodd;fill:#E1E776;}
	.st13{clip-path:url(#SVGID_8_);fill:#BFD22B;}
	.st14{fill:#554742;}
	.st15{fill:#877B77;}
	.st16{fill:#BEB7B3;}
	.st17{fill:#F1EEE8;}
	.st18{fill:#F7F5F1;}
	.st19{fill:#E1E776;}
	.st20{fill:#D0DC70;}
	.st21{fill:#BFD22B;}
	.st22{fill:#74A333;}
	.st23{fill:#EAEFF2;}
	.st24{fill:#58B6E7;}
	.st25{fill:#3A84B6;}
	.st26{fill:#003E7E;}
	.st27{fill:#DAD6D3;}
	.st28{fill:none;stroke:#231F20;stroke-width:1.5;stroke-linecap:round;stroke-miterlimit:10;}
	.st29{fill:none;stroke:#231F20;stroke-width:1.5;stroke-miterlimit:10;}
</style>
<g>
	<path class="st0" d="M40.5,37.9H40c-0.4,0-0.6,0.3-0.6,0.6c0,0.4,0.3,0.6,0.6,0.6h0.5v1.3h-3.1v-4.3l0.5-0.5c0.3-0.3,0.3-0.7,0-0.9
		c-0.3-0.3-0.7-0.3-0.9,0l-0.7,0.7c-0.1,0.1-0.1,0.1-0.1,0.2c0,0.1-0.1,0.2-0.1,0.2v5.2c0,0.9-0.4,1.8-1,2.5
		c-0.1,0.1-0.2,0.3-0.2,0.5v4.2H21.8v-4.2c0-0.2-0.1-0.3-0.2-0.5c-0.7-0.7-1-1.5-1-2.5v-5.2c0-0.1,0-0.2,0-0.2
		c0-0.1-0.1-0.2-0.1-0.2l-0.7-0.7c-0.3-0.3-0.7-0.3-0.9,0s-0.3,0.7,0,0.9l0.5,0.5v1.7h-0.5c-0.4,0-0.6,0.3-0.6,0.6
		c0,0.4,0.3,0.6,0.6,0.6h0.5v1.3h-3.1v-6.2c0-1.9,1.2-3.5,3-4l4.7-1.4c-0.6,1.7-0.3,3.6,1,5l3,3C28,37,28.2,37,28.4,37
		c0.2,0,0.3-0.1,0.5-0.2l3-3c1.3-1.4,1.6-3.3,1-5l4.7,1.4c1.8,0.5,3,2.2,3,4V37.9z M36.2,48.3v-3.9c0.7-0.7,1-1.6,1.2-2.6h3.1v6.5
		H36.2z M16.2,41.8h3.1c0.1,1,0.5,1.9,1.2,2.6v3.9h-4.3V41.8z M25.9,31h-1c-0.1-1,0.2-2,0.9-2.8c0,0,0,0,0-0.1c0,0,0-0.1,0.1-0.1
		c0,0,0-0.1,0-0.1c0,0,0-0.1,0-0.1c0,0,0,0,0,0v-1.6c0.7,0.3,1.5,0.5,2.4,0.5c0.8,0,1.6-0.2,2.4-0.5v1.6c0,0,0,0,0,0
		c0,0,0,0.1,0,0.1c0,0,0,0.1,0,0.1c0,0,0,0.1,0.1,0.1c0,0,0,0.1,0,0.1c0.7,0.8,1,1.8,0.9,2.8h-0.9c-0.4,0-0.6,0.3-0.6,0.6
		s0.3,0.6,0.6,0.6h0.5c-0.1,0.2-0.3,0.4-0.5,0.6l-2.6,2.6l-2.5-2.5c-0.2-0.2-0.3-0.4-0.5-0.6h0.5c0.4,0,0.6-0.3,0.6-0.6
		S26.2,31,25.9,31 M23.5,16.5h3.7c0.2,0,0.3-0.1,0.5-0.2l0.8-0.8l0.8,0.8c0.1,0.1,0.3,0.2,0.5,0.2h3.7v4c0,2.7-2.2,4.9-4.9,4.9
		c-2.7,0-4.9-2.2-4.9-4.9V16.5z M20.9,15.9c0-4.1,3.4-7.5,7.5-7.5c4.1,0,7.5,3.4,7.5,7.5v12.5L32,27.2v-1.8c1.5-1.1,2.5-2.9,2.5-5
		v-4.6c0-0.4-0.3-0.6-0.6-0.6h-4l-1-1c-0.3-0.3-0.7-0.3-0.9,0l-1,1h-4c-0.4,0-0.6,0.3-0.6,0.6v4.6c0,2,1,3.8,2.5,5v1.8l-3.8,1.1
		V15.9z M37.9,29l-0.7-0.2V15.9c0-4.8-3.9-8.8-8.8-8.8c-4.8,0-8.8,3.9-8.8,8.8v12.9L18.8,29c-2.3,0.7-4,2.8-4,5.3V49
		c0,0.4,0.3,0.6,0.6,0.6h25.6c0.4,0,0.6-0.3,0.6-0.6V34.2C41.8,31.8,40.2,29.6,37.9,29"/>
	<path class="st0" d="M34.4,33.5c-0.3-0.2-0.7-0.1-0.9,0.2v0c-0.2,0.3-0.1,0.7,0.2,0.9c0.1,0.1,0.2,0.1,0.3,0.1
		c0.2,0,0.4-0.1,0.6-0.3C34.8,34.1,34.7,33.7,34.4,33.5"/>
	<path class="st0" d="M31.8,35.7c-0.3,0.3-0.3,0.7,0,0.9c0.1,0.1,0.3,0.2,0.5,0.2c0.2,0,0.3-0.1,0.5-0.2c0.3-0.3,0.3-0.7,0-0.9
		C32.5,35.4,32.1,35.4,31.8,35.7"/>
	<polygon class="st0" points="34.4,31.4 34.4,31.4 34.4,31.4 	"/>
	<path class="st0" d="M35.1,30.8c-0.4-0.1-0.7,0.2-0.7,0.6c0,0.4,0.2,0.7,0.6,0.7c0,0,0.1,0,0.1,0c0.3,0,0.6-0.2,0.6-0.6
		C35.7,31.2,35.4,30.9,35.1,30.8"/>
	<path class="st0" d="M29.8,37.6c-0.3,0.3-0.3,0.7,0,0.9c0.1,0.1,0.3,0.2,0.5,0.2c0.2,0,0.3-0.1,0.5-0.2c0.3-0.3,0.3-0.7,0-0.9
		C30.5,37.4,30.1,37.4,29.8,37.6"/>
	<path class="st0" d="M26.9,37.6c-0.3-0.3-0.7-0.3-0.9,0c-0.3,0.3-0.3,0.7,0,0.9c0.1,0.1,0.3,0.2,0.5,0.2c0.2,0,0.3-0.1,0.5-0.2
		C27.1,38.3,27.1,37.9,26.9,37.6"/>
	<path class="st0" d="M22.3,31.4c-0.1-0.4-0.4-0.6-0.7-0.6c-0.4,0.1-0.6,0.4-0.6,0.7c0,0.3,0.3,0.6,0.6,0.6c0,0,0.1,0,0.1,0
		C22.2,32.1,22.4,31.7,22.3,31.4"/>
	<path class="st0" d="M24,35.7c-0.3,0.3-0.3,0.7,0,0.9c0.1,0.1,0.3,0.2,0.5,0.2c0.2,0,0.3-0.1,0.5-0.2c0.3-0.3,0.3-0.7,0-0.9
		C24.7,35.4,24.2,35.4,24,35.7"/>
	<path class="st0" d="M22.3,33.5c-0.3,0.2-0.4,0.6-0.2,0.9c0.1,0.2,0.3,0.3,0.6,0.3c0.1,0,0.2,0,0.3-0.1c0.3-0.2,0.4-0.6,0.2-0.9
		C23,33.4,22.6,33.3,22.3,33.5"/>
	<path class="st0" d="M28.4,39.4c-0.7,0-1.3,0.6-1.3,1.3c0,0.7,0.6,1.3,1.3,1.3c0.7,0,1.3-0.6,1.3-1.3C29.7,40,29.1,39.4,28.4,39.4"
		/>
</g>
</svg>
