<?xml version="1.0" encoding="utf-8"?>
<!-- Generator: Adobe Illustrator 19.1.0, SVG Export Plug-In . SVG Version: 6.00 Build 0)  -->
<svg version="1.1" id="Layer_1" xmlns="http://www.w3.org/2000/svg" xmlns:xlink="http://www.w3.org/1999/xlink" x="0px" y="0px"
	 viewBox="0 0 56.7 56.7" style="enable-background:new 0 0 56.7 56.7;" xml:space="preserve">
<style type="text/css">
	.st0{fill:#231F20;}
	.st1{clip-path:url(#SVGID_2_);fill:#FFFFFF;}
	.st2{clip-path:url(#SVGID_2_);fill:#003E7E;}
	.st3{clip-path:url(#SVGID_2_);fill-rule:evenodd;clip-rule:evenodd;fill:#FFFFFF;}
	.st4{fill:#EFC10B;}
	.st5{fill:#D7D1CA;}
	.st6{opacity:0.9;clip-path:url(#SVGID_4_);}
	.st7{clip-path:url(#SVGID_6_);fill:none;stroke:#EAEFF2;stroke-miterlimit:10;}
	.st8{clip-path:url(#SVGID_8_);fill-rule:evenodd;clip-rule:evenodd;fill:#74A333;}
	.st9{clip-path:url(#SVGID_8_);fill:none;stroke:#FFFFFF;stroke-linejoin:bevel;stroke-miterlimit:10;}
	.st10{clip-path:url(#SVGID_8_);fill-rule:evenodd;clip-rule:evenodd;fill:#BEB7B3;}
	.st11{clip-path:url(#SVGID_8_);fill-rule:evenodd;clip-rule:evenodd;fill:#DAD6D3;}
	.st12{clip-path:url(#SVGID_8_);fill-rule:evenodd;clip-rule:evenodd;fill:#E1E776;}
	.st13{clip-path:url(#SVGID_8_);fill:#BFD22B;}
	.st14{fill:#554742;}
	.st15{fill:#877B77;}
	.st16{fill:#BEB7B3;}
	.st17{fill:#F1EEE8;}
	.st18{fill:#F7F5F1;}
	.st19{fill:#E1E776;}
	.st20{fill:#D0DC70;}
	.st21{fill:#BFD22B;}
	.st22{fill:#74A333;}
	.st23{fill:#EAEFF2;}
	.st24{fill:#58B6E7;}
	.st25{fill:#3A84B6;}
	.st26{fill:#003E7E;}
	.st27{fill:#DAD6D3;}
	.st28{fill:none;stroke:#231F20;stroke-width:1.5;stroke-linecap:round;stroke-miterlimit:10;}
	.st29{fill:none;stroke:#231F20;stroke-width:1.5;stroke-miterlimit:10;}
</style>
<path d="M28.9,11.6c-0.1-0.2-0.4-0.3-0.6-0.3h0c-0.2,0-0.5,0.1-0.6,0.3c-1.1,1.6-2.4,3.1-3.8,4.6c-3.6,4-7.3,8.2-7.3,14.3
	c0,6.7,4.9,12.1,11,12.5v1.6c0,0.4,0.3,0.7,0.7,0.7c0.4,0,0.7-0.3,0.7-0.7V43c6.1-0.4,11-5.9,11-12.5c0-5.9-3.7-10-7.2-14.1
	C31.4,14.8,30,13.2,28.9,11.6 M29.1,41.6v-1.8l5.3-5.3c0.3-0.3,0.3-0.7,0-1c-0.3-0.3-0.7-0.3-1,0l-4.3,4.3v-3.6l6-6
	c0.3-0.3,0.3-0.7,0-1c-0.3-0.3-0.7-0.3-1,0l-4.9,4.9v-4.3l3.6-3.6c0.3-0.3,0.3-0.7,0-1c-0.3-0.3-0.7-0.3-1,0l-2.6,2.6v-5.6
	c0-0.4-0.3-0.7-0.7-0.7c-0.4,0-0.7,0.3-0.7,0.7v5.6L25,23.3c-0.3-0.3-0.7-0.3-1,0c-0.3,0.3-0.3,0.7,0,1l3.6,3.6v4.3l-4.9-4.9
	c-0.3-0.3-0.7-0.3-1,0c-0.3,0.3-0.3,0.7,0,1l5.9,5.9v3.6l-4.3-4.3c-0.3-0.3-0.7-0.3-1,0c-0.3,0.3-0.3,0.7,0,1l5.3,5.3v1.8
	c-5.3-0.4-9.6-5.2-9.6-11.1c0-5.6,3.5-9.5,6.9-13.3c1.2-1.3,2.3-2.6,3.3-3.9c1,1.4,2.2,2.7,3.4,4.1c3.4,3.8,6.9,7.8,6.9,13.1
	C38.6,36.4,34.4,41.2,29.1,41.6"/>
</svg>
