<?xml version="1.0" encoding="utf-8"?>
<!-- Generator: Adobe Illustrator 19.1.0, SVG Export Plug-In . SVG Version: 6.00 Build 0)  -->
<svg version="1.1" id="Layer_1" xmlns="http://www.w3.org/2000/svg" xmlns:xlink="http://www.w3.org/1999/xlink" x="0px" y="0px"
	 viewBox="0 0 56.7 56.7" style="enable-background:new 0 0 56.7 56.7;" xml:space="preserve">
<style type="text/css">
	.st0{fill:#231F20;}
	.st1{clip-path:url(#SVGID_2_);fill:#FFFFFF;}
	.st2{clip-path:url(#SVGID_2_);fill:#003E7E;}
	.st3{clip-path:url(#SVGID_2_);fill-rule:evenodd;clip-rule:evenodd;fill:#FFFFFF;}
	.st4{fill:#EFC10B;}
	.st5{fill:#D7D1CA;}
	.st6{opacity:0.9;clip-path:url(#SVGID_4_);}
	.st7{clip-path:url(#SVGID_6_);fill:none;stroke:#EAEFF2;stroke-miterlimit:10;}
	.st8{clip-path:url(#SVGID_8_);fill-rule:evenodd;clip-rule:evenodd;fill:#74A333;}
	.st9{clip-path:url(#SVGID_8_);fill:none;stroke:#FFFFFF;stroke-linejoin:bevel;stroke-miterlimit:10;}
	.st10{clip-path:url(#SVGID_8_);fill-rule:evenodd;clip-rule:evenodd;fill:#BEB7B3;}
	.st11{clip-path:url(#SVGID_8_);fill-rule:evenodd;clip-rule:evenodd;fill:#DAD6D3;}
	.st12{clip-path:url(#SVGID_8_);fill-rule:evenodd;clip-rule:evenodd;fill:#E1E776;}
	.st13{clip-path:url(#SVGID_8_);fill:#BFD22B;}
	.st14{fill:#554742;}
	.st15{fill:#877B77;}
	.st16{fill:#BEB7B3;}
	.st17{fill:#F1EEE8;}
	.st18{fill:#F7F5F1;}
	.st19{fill:#E1E776;}
	.st20{fill:#D0DC70;}
	.st21{fill:#BFD22B;}
	.st22{fill:#74A333;}
	.st23{fill:#EAEFF2;}
	.st24{fill:#58B6E7;}
	.st25{fill:#3A84B6;}
	.st26{fill:#003E7E;}
	.st27{fill:#DAD6D3;}
	.st28{fill:none;stroke:#231F20;stroke-width:1.5;stroke-linecap:round;stroke-miterlimit:10;}
	.st29{fill:none;stroke:#231F20;stroke-width:1.5;stroke-miterlimit:10;}
</style>
<g>
	<path d="M8.4,21.8C8.2,21.8,8,22,8,22.3c0,0.3,0.2,0.5,0.5,0.5c0.3,0,0.5-0.2,0.5-0.5C8.9,22,8.7,21.8,8.4,21.8"/>
	<path d="M8.4,19.6c-0.3,0-0.5,0.2-0.5,0.5v1c0,0.3,0.2,0.5,0.5,0.5c0.3,0,0.5-0.2,0.5-0.5v-1C8.9,19.8,8.7,19.6,8.4,19.6"/>
	<path d="M10.9,16.1L10.9,16.1c0.3,0,0.5-0.2,0.5-0.5c0-0.3-0.2-0.5-0.5-0.5l0,0h0c-0.1,0-0.2,0.1-0.3,0.2c-0.1,0.1-0.1,0.2-0.1,0.3
		C10.4,15.9,10.6,16.1,10.9,16.1"/>
	<path d="M9.7,16.6c0.2-0.2,0.2-0.5,0.1-0.7c-0.2-0.2-0.5-0.2-0.7-0.1C8.4,16.4,8,17.2,8,18.2v0.3c0,0.3,0.2,0.5,0.5,0.5
		c0.3,0,0.5-0.2,0.5-0.5v-0.3C8.9,17.5,9.2,17,9.7,16.6"/>
	<path d="M52.6,25.7h-4.8v-1h2.4c0.3,0,0.5-0.2,0.5-0.5v-6.1c0-2.7-2.2-4.9-4.9-4.9H11c-2.7,0-4.9,2.2-4.9,4.9v6.1
		c0,0.3,0.2,0.5,0.5,0.5h2.4v1H4.1c-1.1,0-1.9,0.9-1.9,1.9c0,1.1,0.9,1.9,1.9,1.9h4.8v8.2H6.5c-0.3,0-0.5,0.2-0.5,0.5V40
		c0,0.9,0.7,1.5,1.5,1.5h1.3v0.4c0,0.9,0.7,1.5,1.5,1.5h2.4c0.9,0,1.5-0.7,1.5-1.5v-0.4h27.9v0.4c0,0.9,0.7,1.5,1.5,1.5h2.4
		c0.9,0,1.5-0.7,1.5-1.5v-0.4h1.3c0.9,0,1.5-0.7,1.5-1.5v-1.8c0-0.3-0.2-0.5-0.5-0.5h-2.4v-8.2h4.8c1.1,0,1.9-0.9,1.9-1.9
		C54.5,26.5,53.7,25.7,52.6,25.7 M46.8,25.7H45h-1.9v-1h3.7V25.7z M42.1,27.6h-0.4h-4.9c-0.3,0-0.5-0.2-0.5-0.5v-2.4h5.8v1.4l0,0.6
		c0,0.3,0.2,0.5,0.5,0.5c0.3,0,0.5-0.2,0.5-0.5l0-0.1h1.4v1H42.1z M42.2,36.1c0,0.9-0.7,1.6-1.6,1.6h-2.7c-0.9,0-1.6-0.7-1.6-1.6
		v-3.4h5.8V36.1z M34.4,34.3v-0.6h1v2C34.8,35.5,34.4,34.9,34.4,34.3 M35.9,31.8c-0.3,0-0.5,0.2-0.5,0.5v0.5h-1.4
		c-0.3,0-0.5,0.2-0.5,0.5v1.1c0,1.2,0.9,2.2,2,2.4c0.1,0.4,0.3,0.7,0.5,1H20.8c0.2-0.3,0.4-0.6,0.5-1c1.1-0.2,2-1.2,2-2.4v-1.1
		c0-0.3-0.2-0.5-0.5-0.5h-1.4v-0.5c0-0.3-0.2-0.5-0.5-0.5h-2.9v-1h0.5c0.3,0,0.5-0.2,0.5-0.5v-0.8c0-0.6,0.4-1,1-1c0,0,0.1,0,0.1,0
		c0.7-0.1,1.3-0.7,1.3-1.4v-2.4h14.1v2.4c0,0.8,0.6,1.4,1.3,1.4c0,0,0.1,0,0.1,0c0.6,0,1,0.4,1,1v0.8c0,0.3,0.2,0.5,0.5,0.5h0.5v1
		H35.9z M14.5,36.1v-3.4h5.8v3.4c0,0.9-0.7,1.6-1.6,1.6h-2.7C15.2,37.7,14.5,37,14.5,36.1 M21.3,33.7h1v0.6c0,0.6-0.4,1.2-1,1.4
		V33.7z M12.1,27.6v-1h1.4v0.1c0,0.3,0.2,0.5,0.5,0.5c0.3,0,0.5-0.2,0.5-0.5v-0.6v-1.4h5.8v2.4c0,0.3-0.2,0.5-0.5,0.5H15h-0.4H12.1z
		 M18.2,28.5c-0.2,0.3-0.3,0.6-0.3,1v0.3h-1v-0.3c0-0.4-0.1-0.7-0.3-1H18.2z M38.8,29.9v-0.3c0-0.4-0.1-0.7-0.3-1H40
		c-0.2,0.3-0.3,0.6-0.3,1v0.3H38.8z M7,18.2c0-2.2,1.8-4,4-4h34.8c2.2,0,4,1.8,4,4v5.6h-2.4h-4.6h-6.8h-15H14H9.4H7V18.2z M9.9,24.7
		h3.7v1h-1.9H9.9V24.7z M3.1,27.6c0-0.5,0.4-1,1-1h7.1v1.4v0.1c0,0.2-0.2,0.4-0.4,0.4H4.1C3.6,28.5,3.1,28.1,3.1,27.6 M9.9,29.5h0.9
		c0.6,0,1.1-0.4,1.3-1h2.6H15c0.6,0,1,0.4,1,1v0.8c0,0.3,0.2,0.5,0.5,0.5H17v1H14c-0.3,0-0.5,0.2-0.5,0.5v3.8c0,0.6,0.2,1.1,0.6,1.6
		H9.9V29.5z M13.4,41.9c0,0.3-0.3,0.6-0.6,0.6h-2.4c-0.3,0-0.6-0.3-0.6-0.6v-0.4h3.5V41.9z M46.8,41.9c0,0.3-0.3,0.6-0.6,0.6h-2.4
		c-0.3,0-0.6-0.3-0.6-0.6v-0.4h3.5V41.9z M49.7,40c0,0.3-0.3,0.6-0.6,0.6h-1.8h-4.5H13.9H9.4H7.6C7.3,40.6,7,40.3,7,40v-1.3h2.4h6.7
		h2.7h19.1h2.7h6.7h2.4V40z M46.8,37.7h-4.2c0.3-0.4,0.6-1,0.6-1.6v-3.8c0-0.3-0.2-0.5-0.5-0.5h-2.9v-1h0.5c0.3,0,0.5-0.2,0.5-0.5
		v-0.8c0-0.6,0.4-1,1-1h0.4h2.6c0.2,0.6,0.7,1,1.3,1h0.9V37.7z M52.6,28.5h-6.7c-0.2,0-0.4-0.2-0.4-0.4v-1.6h7.1c0.5,0,1,0.4,1,1
		C53.6,28.1,53.1,28.5,52.6,28.5"/>
	<path d="M24.1,18h8.4c0.8,0,1.4-0.6,1.4-1.4c0-0.8-0.6-1.4-1.4-1.4h-8.4c-0.8,0-1.4,0.6-1.4,1.4C22.7,17.4,23.3,18,24.1,18
		 M24.1,16.1h8.4c0.3,0,0.5,0.2,0.5,0.5c0,0.3-0.2,0.5-0.5,0.5h-8.4c-0.3,0-0.5-0.2-0.5-0.5C23.6,16.3,23.9,16.1,24.1,16.1"/>
	<path d="M11.3,20.3c0,1.4,1.1,2.5,2.5,2.5c1.4,0,2.5-1.1,2.5-2.5c0-1.4-1.1-2.5-2.5-2.5c-0.6,0-1.1,0.2-1.5,0.5c0,0,0,0,0,0
		c0,0,0,0,0,0C11.6,18.8,11.3,19.5,11.3,20.3 M15.3,20.3c0,0.9-0.7,1.5-1.5,1.5c-0.9,0-1.5-0.7-1.5-1.5c0-0.3,0.1-0.6,0.3-0.9
		l0.9,1.2c0.1,0.1,0.2,0.2,0.4,0.2c0.1,0,0.2,0,0.3-0.1c0.2-0.2,0.3-0.5,0.1-0.7l-0.9-1.2c0.2-0.1,0.3-0.1,0.5-0.1
		C14.6,18.7,15.3,19.4,15.3,20.3"/>
	<path d="M18.4,22.7c0.8,0,1.4-0.6,1.4-1.4c0-0.8-0.6-1.4-1.4-1.4c-0.8,0-1.4,0.6-1.4,1.4C17,22.1,17.6,22.7,18.4,22.7 M18.4,20.8
		c0.3,0,0.5,0.2,0.5,0.5c0,0.3-0.2,0.5-0.5,0.5c-0.3,0-0.5-0.2-0.5-0.5C17.9,21,18.1,20.8,18.4,20.8"/>
	<path d="M21.9,22.7c0.8,0,1.4-0.6,1.4-1.4c0-0.8-0.6-1.4-1.4-1.4c-0.8,0-1.4,0.6-1.4,1.4C20.5,22.1,21.1,22.7,21.9,22.7 M21.9,20.8
		c0.3,0,0.5,0.2,0.5,0.5c0,0.3-0.2,0.5-0.5,0.5c-0.3,0-0.5-0.2-0.5-0.5C21.4,21,21.7,20.8,21.9,20.8"/>
	<path d="M42.9,22.8c1.4,0,2.5-1.1,2.5-2.5c0-0.8-0.4-1.5-1-2c0,0,0,0,0,0c0,0,0,0,0,0c-0.4-0.3-0.9-0.5-1.5-0.5
		c-1.4,0-2.5,1.1-2.5,2.5C40.4,21.7,41.5,22.8,42.9,22.8 M42.9,18.7c0.2,0,0.3,0,0.5,0.1L42.5,20c-0.2,0.2-0.1,0.5,0.1,0.7
		c0.1,0.1,0.2,0.1,0.3,0.1c0.1,0,0.3-0.1,0.4-0.2l0.9-1.2c0.2,0.3,0.3,0.6,0.3,0.9c0,0.9-0.7,1.5-1.5,1.5c-0.9,0-1.5-0.7-1.5-1.5
		C41.4,19.4,42.1,18.7,42.9,18.7"/>
	<path d="M38.3,22.7c0.8,0,1.4-0.6,1.4-1.4c0-0.8-0.6-1.4-1.4-1.4c-0.8,0-1.4,0.6-1.4,1.4C36.8,22.1,37.5,22.7,38.3,22.7 M38.3,20.8
		c0.3,0,0.5,0.2,0.5,0.5c0,0.3-0.2,0.5-0.5,0.5c-0.3,0-0.5-0.2-0.5-0.5C37.8,21,38,20.8,38.3,20.8"/>
	<path d="M33.3,21.3c0,0.8,0.6,1.4,1.4,1.4c0.8,0,1.4-0.6,1.4-1.4c0-0.8-0.6-1.4-1.4-1.4C34,19.9,33.3,20.5,33.3,21.3 M34.8,20.8
		c0.3,0,0.5,0.2,0.5,0.5c0,0.3-0.2,0.5-0.5,0.5c-0.3,0-0.5-0.2-0.5-0.5C34.3,21,34.5,20.8,34.8,20.8"/>
</g>
</svg>
