<?xml version="1.0" encoding="utf-8"?>
<!-- Generator: Adobe Illustrator 19.1.0, SVG Export Plug-In . SVG Version: 6.00 Build 0)  -->
<svg version="1.1" id="Layer_1" xmlns="http://www.w3.org/2000/svg" xmlns:xlink="http://www.w3.org/1999/xlink" x="0px" y="0px"
	 viewBox="0 0 56.7 56.7" style="enable-background:new 0 0 56.7 56.7;" xml:space="preserve">
<style type="text/css">
	.st0{fill:#231F20;}
	.st1{clip-path:url(#SVGID_2_);fill:#FFFFFF;}
	.st2{clip-path:url(#SVGID_2_);fill:#003E7E;}
	.st3{clip-path:url(#SVGID_2_);fill-rule:evenodd;clip-rule:evenodd;fill:#FFFFFF;}
	.st4{fill:#EFC10B;}
	.st5{fill:#D7D1CA;}
	.st6{opacity:0.9;clip-path:url(#SVGID_4_);}
	.st7{clip-path:url(#SVGID_6_);fill:none;stroke:#EAEFF2;stroke-miterlimit:10;}
	.st8{clip-path:url(#SVGID_8_);fill-rule:evenodd;clip-rule:evenodd;fill:#74A333;}
	.st9{clip-path:url(#SVGID_8_);fill:none;stroke:#FFFFFF;stroke-linejoin:bevel;stroke-miterlimit:10;}
	.st10{clip-path:url(#SVGID_8_);fill-rule:evenodd;clip-rule:evenodd;fill:#BEB7B3;}
	.st11{clip-path:url(#SVGID_8_);fill-rule:evenodd;clip-rule:evenodd;fill:#DAD6D3;}
	.st12{clip-path:url(#SVGID_8_);fill-rule:evenodd;clip-rule:evenodd;fill:#E1E776;}
	.st13{clip-path:url(#SVGID_8_);fill:#BFD22B;}
	.st14{fill:#554742;}
	.st15{fill:#877B77;}
	.st16{fill:#BEB7B3;}
	.st17{fill:#F1EEE8;}
	.st18{fill:#F7F5F1;}
	.st19{fill:#E1E776;}
	.st20{fill:#D0DC70;}
	.st21{fill:#BFD22B;}
	.st22{fill:#74A333;}
	.st23{fill:#EAEFF2;}
	.st24{fill:#58B6E7;}
	.st25{fill:#3A84B6;}
	.st26{fill:#003E7E;}
	.st27{fill:#DAD6D3;}
	.st28{fill:none;stroke:#231F20;stroke-width:1.5;stroke-linecap:round;stroke-miterlimit:10;}
	.st29{fill:none;stroke:#231F20;stroke-width:1.5;stroke-miterlimit:10;}
</style>
<g>
	<path class="st0" d="M20.6,37.7H8.3c-0.4,0-0.6-0.3-0.6-0.6c0-0.4,0.3-0.6,0.6-0.6h12.2c0.4,0,0.6,0.3,0.6,0.6
		C21.2,37.4,20.9,37.7,20.6,37.7 M20.6,35.1H8.3c-1.1,0-1.9,0.9-1.9,1.9c0,1.1,0.9,1.9,1.9,1.9h12.2c1.1,0,1.9-0.9,1.9-1.9
		C22.5,35.9,21.7,35.1,20.6,35.1"/>
	<path class="st0" d="M22.8,31.7c-0.2-0.3-0.3-0.6-0.3-0.9h1.2L22.8,31.7z M24.6,19.8L17.4,28l-0.3-1c-0.1-0.3-0.3-0.4-0.6-0.4h-0.9
		l8.4-7.4c0.2-0.2,0.4-0.1,0.6,0C24.7,19.3,24.7,19.6,24.6,19.8 M17.1,32.2c-0.1,0.2-0.4,0.3-0.6,0.3h-11v-2.9h4.8v0.8
		c0,0.4,0.3,0.6,0.6,0.6s0.6-0.3,0.6-0.6v-1.5v-1.1H16l1.2,3.7C17.2,31.7,17.2,32,17.1,32.2 M28.1,30.7c0,0.3-0.1,0.7-0.3,0.9
		l-0.9-0.9H28.1z M27.4,33.1c0.1,0.1,0.3,0.2,0.5,0.2c0.2,0,0.3-0.1,0.5-0.2c0.8-0.8,1.2-2,1-3.1c-0.1-0.3-0.3-0.5-0.6-0.5H26v-10
		c0,0,0,0,0,0c0-0.4-0.2-0.8-0.5-1.1c-0.6-0.6-1.7-0.7-2.4-0.1l-9.5,8.4H11c-0.4,0-0.6,0.3-0.6,0.6v1.1H4.8c-0.4,0-0.6,0.3-0.6,0.6
		v4.2c0,0.4,0.3,0.6,0.6,0.6h11.6c0.7,0,1.3-0.3,1.7-0.8c0.4-0.5,0.5-1.2,0.3-1.8l-0.5-1.7l6.8-7.8v7.8h-2.7c-0.3,0-0.6,0.2-0.6,0.5
		c-0.2,1.1,0.2,2.3,1,3.1c0.1,0.1,0.3,0.2,0.5,0.2c0.2,0,0.3-0.1,0.5-0.2l2.1-2.1L27.4,33.1z"/>
	<path class="st0" d="M52.4,37.9l-4.8-6.4c-0.4-0.6-1.1-0.9-1.8-0.9c-0.7,0-1.4,0.3-1.8,0.9c-0.2,0.3-0.2,0.7,0.1,0.9
		c0.3,0.2,0.7,0.2,0.9-0.1c0.4-0.5,1.1-0.5,1.5,0l4,5.4h-1.3c-0.4,0-0.6,0.3-0.6,0.6S49,39,49.3,39h2.6c0.2,0,0.5-0.1,0.6-0.4
		C52.6,38.4,52.5,38.1,52.4,37.9"/>
	<path class="st0" d="M28.8,37.7l6.7-8.9c0.4-0.5,1-0.8,1.7-0.8c0.7,0,1.3,0.3,1.7,0.8l6.7,8.9H28.8z M39.8,28
		c-0.6-0.9-1.6-1.4-2.7-1.4c-1.1,0-2.1,0.5-2.7,1.4L27,37.9c-0.1,0.2-0.2,0.5-0.1,0.7c0.1,0.2,0.3,0.4,0.6,0.4h19.3c0,0,0,0,0,0
		c0.4,0,0.6-0.3,0.6-0.6c0-0.2-0.1-0.4-0.2-0.5L39.8,28z"/>
	<path class="st0" d="M41.3,36.5c0.1,0.1,0.3,0.2,0.5,0.2c0.2,0,0.3-0.1,0.5-0.2c0.1-0.1,0.2-0.3,0.2-0.5c0-0.2-0.1-0.3-0.2-0.5
		c-0.2-0.2-0.7-0.2-0.9,0c-0.1,0.1-0.2,0.3-0.2,0.5C41.1,36.2,41.2,36.4,41.3,36.5"/>
	<path class="st0" d="M40,34.7c0.1,0.2,0.3,0.3,0.5,0.3c0.1,0,0.3,0,0.4-0.1c0.3-0.2,0.3-0.6,0.1-0.9c-0.2-0.3-0.6-0.3-0.9-0.1
		C39.8,34,39.8,34.4,40,34.7"/>
	<path class="st0" d="M38.7,33c0.1,0.2,0.3,0.3,0.5,0.3c0.1,0,0.3,0,0.4-0.1c0.3-0.2,0.3-0.6,0.1-0.9c-0.2-0.3-0.6-0.3-0.9-0.1
		C38.6,32.3,38.5,32.7,38.7,33"/>
	<path class="st0" d="M38.4,30.4c-0.2-0.2-0.7-0.2-0.9,0c-0.1,0.1-0.2,0.3-0.2,0.5c0,0.2,0.1,0.3,0.2,0.5c0.1,0.1,0.3,0.2,0.5,0.2
		c0.2,0,0.3-0.1,0.5-0.2c0.1-0.1,0.2-0.3,0.2-0.5C38.6,30.7,38.5,30.6,38.4,30.4"/>
</g>
</svg>
