<?xml version="1.0" encoding="utf-8"?>
<!-- Generator: Adobe Illustrator 19.1.0, SVG Export Plug-In . SVG Version: 6.00 Build 0)  -->
<svg version="1.1" id="Layer_1" xmlns="http://www.w3.org/2000/svg" xmlns:xlink="http://www.w3.org/1999/xlink" x="0px" y="0px"
	 viewBox="0 0 56.7 56.7" style="enable-background:new 0 0 56.7 56.7;" xml:space="preserve">
<style type="text/css">
	.st0{fill:#231F20;}
	.st1{clip-path:url(#SVGID_2_);fill:#FFFFFF;}
	.st2{clip-path:url(#SVGID_2_);fill:#003E7E;}
	.st3{clip-path:url(#SVGID_2_);fill-rule:evenodd;clip-rule:evenodd;fill:#FFFFFF;}
	.st4{fill:#EFC10B;}
	.st5{fill:#D7D1CA;}
	.st6{opacity:0.9;clip-path:url(#SVGID_4_);}
	.st7{clip-path:url(#SVGID_6_);fill:none;stroke:#EAEFF2;stroke-miterlimit:10;}
	.st8{clip-path:url(#SVGID_8_);fill-rule:evenodd;clip-rule:evenodd;fill:#74A333;}
	.st9{clip-path:url(#SVGID_8_);fill:none;stroke:#FFFFFF;stroke-linejoin:bevel;stroke-miterlimit:10;}
	.st10{clip-path:url(#SVGID_8_);fill-rule:evenodd;clip-rule:evenodd;fill:#BEB7B3;}
	.st11{clip-path:url(#SVGID_8_);fill-rule:evenodd;clip-rule:evenodd;fill:#DAD6D3;}
	.st12{clip-path:url(#SVGID_8_);fill-rule:evenodd;clip-rule:evenodd;fill:#E1E776;}
	.st13{clip-path:url(#SVGID_8_);fill:#BFD22B;}
	.st14{fill:#554742;}
	.st15{fill:#877B77;}
	.st16{fill:#BEB7B3;}
	.st17{fill:#F1EEE8;}
	.st18{fill:#F7F5F1;}
	.st19{fill:#E1E776;}
	.st20{fill:#D0DC70;}
	.st21{fill:#BFD22B;}
	.st22{fill:#74A333;}
	.st23{fill:#EAEFF2;}
	.st24{fill:#58B6E7;}
	.st25{fill:#3A84B6;}
	.st26{fill:#003E7E;}
	.st27{fill:#DAD6D3;}
	.st28{fill:none;stroke:#231F20;stroke-width:1.5;stroke-linecap:round;stroke-miterlimit:10;}
	.st29{fill:none;stroke:#231F20;stroke-width:1.5;stroke-miterlimit:10;}
</style>
<g>
	<path d="M55.3,39.8c-0.2-0.2-0.6-0.2-0.8,0c-0.1,0.1-0.2,0.2-0.2,0.4c0,0.1,0.1,0.3,0.2,0.4c0.1,0.1,0.2,0.2,0.4,0.2
		c0.1,0,0.3-0.1,0.4-0.2c0.1-0.1,0.2-0.2,0.2-0.4C55.5,40.1,55.4,39.9,55.3,39.8"/>
	<path d="M53,39.6c-0.3,0-0.6,0.2-0.6,0.6c0,0.3,0.2,0.6,0.6,0.6c0.3,0,0.6-0.2,0.6-0.6C53.5,39.9,53.3,39.6,53,39.6"/>
	<path d="M50.6,39.8c-0.1,0.1-0.2,0.2-0.2,0.4c0,0.1,0.1,0.3,0.2,0.4c0.1,0.1,0.2,0.2,0.4,0.2c0.1,0,0.3-0.1,0.4-0.2
		c0.1-0.1,0.2-0.2,0.2-0.4c0-0.1-0.1-0.3-0.2-0.4C51.2,39.6,50.8,39.6,50.6,39.8"/>
	<path d="M51.5,27.2v-1.6c0-0.3-0.2-0.5-0.5-0.5h-4v-5.9c0-0.2,0-0.5-0.1-0.7l0.1-0.1c0.6-0.6,0.6-1.5,0-2c-0.3-0.3-0.6-0.4-1-0.4
		c-0.4,0-0.7,0.1-1,0.4l-0.1,0.1c-0.2-0.1-0.5-0.1-0.7-0.1h-3.3c-0.2,0-0.5,0-0.7,0.1l-0.1-0.1c-0.3-0.3-0.6-0.4-1-0.4
		c-0.4,0-0.7,0.1-1,0.4c-0.3,0.3-0.4,0.6-0.4,1c0,0.4,0.1,0.7,0.4,1l0.1,0.1c-0.1,0.2-0.1,0.5-0.1,0.7v5.9h-1.6v-5.9
		c0-0.2,0-0.5-0.1-0.7l0.1-0.1c0.3-0.3,0.4-0.6,0.4-1c0-0.4-0.2-0.7-0.4-1c-0.3-0.3-0.6-0.4-1-0.4c-0.4,0-0.7,0.1-1,0.4l-0.1,0.1
		c-0.2-0.1-0.5-0.1-0.7-0.1h-3.3c-0.2,0-0.5,0-0.7,0.1l-0.1-0.1c-0.3-0.3-0.6-0.4-1-0.4c-0.4,0-0.7,0.2-1,0.4
		c-0.3,0.3-0.4,0.6-0.4,1c0,0.4,0.1,0.7,0.4,1l0.1,0.1c-0.1,0.2-0.1,0.5-0.1,0.7v5.9h-1.4v-7.1c0-0.9-0.7-1.6-1.6-1.6h-6.8
		c-1.5,0-2.8,0.9-3.4,2.2l-2.9,6.6l-4.7,0.7c-3.1,0.4-5.4,3.1-5.6,6.2c0,0.1,0,0.2,0,0.2c0,0.1,0,0.1,0,0.2c0,0,0,0.1,0,0.1v3.1v1.9
		c0,0.3,0.2,0.5,0.5,0.5h3.9c0,0,0.1,0,0.1,0c0.4,0.6,0.8,1.2,1.4,1.6H5.6c-0.3,0-0.5,0.2-0.5,0.5c0,0.3,0.2,0.5,0.5,0.5h43.5
		c0.3,0,0.5-0.2,0.5-0.5c0-0.3-0.2-0.5-0.5-0.5h-6.5c0.6-0.4,1.1-1,1.4-1.6c0,0,0.1,0,0.1,0h5c0.3,0,0.5-0.2,0.5-0.5v-1.9v-3.1v-3.8
		h0.3C50.7,28.8,51.5,28.1,51.5,27.2 M39.1,18.1l-0.3-0.3c-0.1-0.1-0.1-0.2-0.1-0.3s0-0.2,0.1-0.3c0.2-0.2,0.5-0.2,0.7,0l0.3,0.3
		c0.1,0.1,0.3,0.2,0.5,0.1c0.2-0.1,0.4-0.1,0.7-0.1h3.3c0.2,0,0.4,0,0.7,0.1c0.2,0.1,0.4,0,0.5-0.1l0.3-0.3c0.2-0.2,0.5-0.2,0.7,0
		c0.2,0.2,0.2,0.5,0,0.7L46,18.1c-0.1,0.1-0.2,0.3-0.1,0.5C46,18.8,46,19,46,19.2v5.9h-0.3h-4h-2.7v-5.9c0-0.2,0-0.4,0.1-0.6
		C39.3,18.4,39.2,18.2,39.1,18.1 M28.6,18.1l-0.4-0.3c-0.1-0.1-0.1-0.2-0.1-0.3s0-0.2,0.1-0.3c0.2-0.2,0.5-0.2,0.7,0l0.3,0.3
		c0.1,0.1,0.3,0.2,0.5,0.1c0.2-0.1,0.4-0.1,0.7-0.1h3.3c0.2,0,0.4,0,0.7,0.1c0.2,0.1,0.4,0,0.5-0.1l0.3-0.3c0.2-0.2,0.5-0.2,0.7,0
		c0.1,0.1,0.1,0.2,0.1,0.3s-0.1,0.2-0.1,0.3l-0.3,0.3c-0.1,0.1-0.2,0.3-0.1,0.5c0.1,0.2,0.1,0.4,0.1,0.6v5.9h-7v-5.9
		c0-0.2,0-0.4,0.1-0.6C28.8,18.4,28.7,18.2,28.6,18.1 M15.2,19c0.4-1,1.4-1.6,2.5-1.6h6.8c0.4,0,0.7,0.3,0.7,0.7v7.1h-1v-6.3
		c0-0.3-0.2-0.5-0.5-0.5h-6.1c-0.7,0-1.3,0.4-1.6,1l-2.5,5.8h-1.1L15.2,19z M14.6,25.1l2.3-5.4c0.1-0.3,0.4-0.5,0.7-0.5h5.6v5.9
		H14.6z M6.9,26.8l4.9-0.7h13.4v9.1H17v-2.7c0-2.6-2.1-4.7-4.7-4.7H5.9c-0.8,0-1.5,0.2-2.1,0.5C4.6,27.6,5.7,27,6.9,26.8 M2.6,31.2
		c0.2,0,0.5,0.4,0.5,1c0,0.6-0.3,1-0.5,1c-0.2,0-0.4-0.4-0.5-0.9c0-0.3,0.1-0.6,0.1-0.8C2.4,31.4,2.5,31.2,2.6,31.2 M5.1,37.2h-3v-1
		h1.2c0.3,0,0.5-0.2,0.5-0.5c0-0.3-0.2-0.5-0.5-0.5H2.2v-1.1c0.1,0.1,0.3,0.1,0.5,0.1c0.8,0,1.4-0.9,1.4-2c0-1-0.5-1.8-1.1-2
		c0.7-0.9,1.8-1.5,3-1.5h6.4c2.1,0,3.8,1.7,3.8,3.8v3.1c0,0.3,0.2,0.5,0.5,0.5h8.7v1H15.1v-1.4c0-2.7-2.2-5-5-5c-2.7,0-5,2.2-5,5
		V37.2z M6.1,35.7c0-2.2,1.8-4,4-4c2.2,0,4,1.8,4,4c0,2.2-1.8,4-4,4C7.9,39.7,6.1,37.9,6.1,35.7 M13,39.7c0.6-0.4,1.1-1,1.4-1.6
		c0,0,0.1,0,0.1,0h11.1h9.4c0,0,0.1,0,0.1,0c0.4,0.6,0.8,1.2,1.4,1.6H13z M39.6,39.7c-2.2,0-4-1.8-4-4c0-2.2,1.8-4,4-4
		c2.2,0,4,1.8,4,4C43.6,37.9,41.8,39.7,39.6,39.7 M48.6,37.2h-4v-1.4c0-2.7-2.2-5-5-5c-2.7,0-5,2.2-5,5v1.4h-8.5v-1h7
		c0.3,0,0.5-0.2,0.5-0.5v-3.1c0-2.1,1.7-3.8,3.8-3.8h7.4c2.1,0,3.8,1.7,3.8,3.8v2.7h-2c-0.3,0-0.5,0.2-0.5,0.5
		c0,0.3,0.2,0.5,0.5,0.5h2V37.2z M50.5,27.2c0,0.4-0.3,0.7-0.7,0.7h-0.8c-0.3,0-0.5,0.2-0.5,0.5v1.4c-0.9-1.1-2.2-1.9-3.8-1.9h-7.4
		c-2.6,0-4.7,2.1-4.7,4.7v2.7h-6.6v-9.1h15.6h4h4.8V27.2z"/>
	<path d="M10.1,32.7c-1.7,0-3,1.4-3,3c0,1.7,1.4,3,3,3c1.7,0,3-1.4,3-3C13.1,34,11.8,32.7,10.1,32.7 M10.1,37.8
		C9,37.8,8,36.9,8,35.7c0-1.1,0.9-2.1,2.1-2.1c1.1,0,2.1,0.9,2.1,2.1C12.2,36.9,11.2,37.8,10.1,37.8"/>
	<path d="M39.6,32.7c-1.7,0-3,1.4-3,3c0,1.7,1.4,3,3,3c1.7,0,3-1.4,3-3C42.7,34,41.3,32.7,39.6,32.7 M39.6,37.8
		c-1.1,0-2.1-0.9-2.1-2.1c0-1.1,0.9-2.1,2.1-2.1c1.1,0,2.1,0.9,2.1,2.1C41.7,36.9,40.8,37.8,39.6,37.8"/>
	<path d="M21.8,28.8h1.9c0.3,0,0.5-0.2,0.5-0.5c0-0.3-0.2-0.5-0.5-0.5h-1.9c-0.3,0-0.5,0.2-0.5,0.5C21.4,28.6,21.6,28.8,21.8,28.8"
		/>
	<path d="M31.4,23.7C31.5,23.7,31.5,23.7,31.4,23.7c0.2,0,0.3-0.1,0.3-0.2c0.2-0.4,0.4-1.3-0.1-2.3c-0.4-0.8-0.3-1.6-0.2-2
		c0.1-0.2-0.1-0.4-0.3-0.4c0,0-0.1,0-0.1,0c-0.7,0.3-1.1,1.3-1.1,2.3C30,22.5,30.6,23.6,31.4,23.7"/>
	<path d="M32.6,23.3c-0.1,0.2,0.1,0.3,0.2,0.3c0,0,0.1,0,0.1,0c0.7-0.3,1.1-1.3,1.1-2.3c0-1.3-0.6-2.3-1.5-2.5c0,0,0,0,0,0
		c-0.1,0-0.2,0.1-0.2,0.2c-0.2,0.4-0.4,1.3,0.1,2.3C32.9,22.1,32.8,22.8,32.6,23.3"/>
	<path d="M41.9,23.7C42,23.7,42,23.7,41.9,23.7c0.2,0,0.3-0.1,0.3-0.2c0.2-0.4,0.4-1.3-0.1-2.3c-0.4-0.8-0.3-1.6-0.2-2
		c0.1-0.2-0.1-0.4-0.3-0.4c0,0-0.1,0-0.1,0c-0.7,0.3-1.1,1.3-1.1,2.3C40.5,22.5,41.1,23.6,41.9,23.7"/>
	<path d="M43.1,23.3c-0.1,0.2,0.1,0.3,0.2,0.3c0,0,0.1,0,0.1,0c0.7-0.3,1.1-1.3,1.1-2.3c0-1.3-0.6-2.3-1.5-2.5c0,0,0,0,0,0
		c-0.1,0-0.2,0.1-0.2,0.2c-0.2,0.4-0.4,1.3,0.1,2.3C43.4,22.1,43.3,22.8,43.1,23.3"/>
</g>
</svg>
