<?xml version="1.0" encoding="utf-8"?>
<!-- Generator: Adobe Illustrator 19.1.0, SVG Export Plug-In . SVG Version: 6.00 Build 0)  -->
<svg version="1.1" id="Layer_1" xmlns="http://www.w3.org/2000/svg" xmlns:xlink="http://www.w3.org/1999/xlink" x="0px" y="0px"
	 viewBox="0 0 56.7 56.7" style="enable-background:new 0 0 56.7 56.7;" xml:space="preserve">
<style type="text/css">
	.st0{fill:#231F20;}
	.st1{clip-path:url(#SVGID_2_);fill:#FFFFFF;}
	.st2{clip-path:url(#SVGID_2_);fill:#003E7E;}
	.st3{clip-path:url(#SVGID_2_);fill-rule:evenodd;clip-rule:evenodd;fill:#FFFFFF;}
	.st4{fill:#EFC10B;}
	.st5{fill:#D7D1CA;}
	.st6{opacity:0.9;clip-path:url(#SVGID_4_);}
	.st7{clip-path:url(#SVGID_6_);fill:none;stroke:#EAEFF2;stroke-miterlimit:10;}
	.st8{clip-path:url(#SVGID_8_);fill-rule:evenodd;clip-rule:evenodd;fill:#74A333;}
	.st9{clip-path:url(#SVGID_8_);fill:none;stroke:#FFFFFF;stroke-linejoin:bevel;stroke-miterlimit:10;}
	.st10{clip-path:url(#SVGID_8_);fill-rule:evenodd;clip-rule:evenodd;fill:#BEB7B3;}
	.st11{clip-path:url(#SVGID_8_);fill-rule:evenodd;clip-rule:evenodd;fill:#DAD6D3;}
	.st12{clip-path:url(#SVGID_8_);fill-rule:evenodd;clip-rule:evenodd;fill:#E1E776;}
	.st13{clip-path:url(#SVGID_8_);fill:#BFD22B;}
	.st14{fill:#554742;}
	.st15{fill:#877B77;}
	.st16{fill:#BEB7B3;}
	.st17{fill:#F1EEE8;}
	.st18{fill:#F7F5F1;}
	.st19{fill:#E1E776;}
	.st20{fill:#D0DC70;}
	.st21{fill:#BFD22B;}
	.st22{fill:#74A333;}
	.st23{fill:#EAEFF2;}
	.st24{fill:#58B6E7;}
	.st25{fill:#3A84B6;}
	.st26{fill:#003E7E;}
	.st27{fill:#DAD6D3;}
	.st28{fill:none;stroke:#231F20;stroke-width:1.5;stroke-linecap:round;stroke-miterlimit:10;}
	.st29{fill:none;stroke:#231F20;stroke-width:1.5;stroke-miterlimit:10;}
</style>
<path class="st0" d="M37.2,32.8c-0.5,0.8-1.7,1.2-2.5,0.7C33.9,33,33.6,31.9,34,31c0,0,0,0,0,0c0,0,0,0,0,0c0.3-0.5,0.9-0.9,1.6-0.9
	c0.3,0,0.6,0.1,0.9,0.2c0.4,0.2,0.7,0.6,0.9,1.1C37.5,31.9,37.5,32.4,37.2,32.8 M30.2,36.4c0,1-0.8,1.8-1.8,1.8
	c-1,0-1.8-0.8-1.8-1.8s0.8-1.8,1.8-1.8C29.4,34.5,30.2,35.4,30.2,36.4 M26.5,20.3c0-1,0.8-1.8,1.8-1.8c1,0,1.8,0.8,1.8,1.8
	c0,1-0.8,1.8-1.8,1.8C27.3,22.1,26.5,21.3,26.5,20.3 M22,33.5c-0.9,0.5-2,0.2-2.5-0.7c-0.2-0.4-0.3-0.9-0.2-1.4
	c0.1-0.5,0.4-0.9,0.9-1.1c0.3-0.2,0.6-0.2,0.9-0.2c0.7,0,1.3,0.4,1.6,0.9v0l0,0C23.1,31.9,22.8,33,22,33.5 M38.6,31.1
	c-0.2-0.8-0.7-1.5-1.4-1.9c-0.5-0.3-1-0.4-1.5-0.4c-0.9,0-1.7,0.4-2.3,1l-2-1.2c0-0.2,0-0.3,0-0.5c0-1.5-1.1-2.7-2.5-3v-1.9
	c1.4-0.3,2.5-1.5,2.5-3c0-1.7-1.4-3.1-3.1-3.1c-1.7,0-3.1,1.4-3.1,3.1c0,1.5,1.1,2.7,2.5,3v1.9c-1.4,0.3-2.5,1.5-2.5,3
	c0,0.2,0,0.3,0,0.5l-2,1.2c-0.6-0.6-1.4-1-2.3-1c-0.5,0-1.1,0.1-1.5,0.4c-0.7,0.4-1.2,1.1-1.4,1.9c-0.2,0.8-0.1,1.6,0.3,2.3
	c0.5,0.9,1.6,1.5,2.7,1.5c0.5,0,1.1-0.1,1.5-0.4c1.3-0.7,1.8-2.3,1.4-3.6l1.8-1c0.4,0.7,1.1,1.2,2,1.4v2.1c-1.4,0.3-2.5,1.5-2.5,3
	c0,1.7,1.4,3.1,3.1,3.1c1.7,0,3.1-1.4,3.1-3.1c0-1.5-1.1-2.7-2.5-3v-2.1c0.8-0.2,1.5-0.7,2-1.4l1.8,1c-0.5,1.4,0.1,2.9,1.4,3.6
	c0.5,0.3,1,0.4,1.5,0.4c1.1,0,2.1-0.6,2.7-1.5C38.7,32.7,38.8,31.9,38.6,31.1"/>
</svg>
