<?xml version="1.0" encoding="utf-8"?>
<!-- Generator: Adobe Illustrator 19.1.0, SVG Export Plug-In . SVG Version: 6.00 Build 0)  -->
<svg version="1.1" id="Layer_1" xmlns="http://www.w3.org/2000/svg" xmlns:xlink="http://www.w3.org/1999/xlink" x="0px" y="0px"
	 viewBox="0 0 56.7 56.7" style="enable-background:new 0 0 56.7 56.7;" xml:space="preserve">
<style type="text/css">
	.st0{fill:#231F20;}
	.st1{clip-path:url(#SVGID_2_);fill:#FFFFFF;}
	.st2{clip-path:url(#SVGID_2_);fill:#003E7E;}
	.st3{clip-path:url(#SVGID_2_);fill-rule:evenodd;clip-rule:evenodd;fill:#FFFFFF;}
	.st4{fill:#EFC10B;}
	.st5{fill:#D7D1CA;}
	.st6{opacity:0.9;clip-path:url(#SVGID_4_);}
	.st7{clip-path:url(#SVGID_6_);fill:none;stroke:#EAEFF2;stroke-miterlimit:10;}
	.st8{clip-path:url(#SVGID_8_);fill-rule:evenodd;clip-rule:evenodd;fill:#74A333;}
	.st9{clip-path:url(#SVGID_8_);fill:none;stroke:#FFFFFF;stroke-linejoin:bevel;stroke-miterlimit:10;}
	.st10{clip-path:url(#SVGID_8_);fill-rule:evenodd;clip-rule:evenodd;fill:#BEB7B3;}
	.st11{clip-path:url(#SVGID_8_);fill-rule:evenodd;clip-rule:evenodd;fill:#DAD6D3;}
	.st12{clip-path:url(#SVGID_8_);fill-rule:evenodd;clip-rule:evenodd;fill:#E1E776;}
	.st13{clip-path:url(#SVGID_8_);fill:#BFD22B;}
	.st14{fill:#554742;}
	.st15{fill:#877B77;}
	.st16{fill:#BEB7B3;}
	.st17{fill:#F1EEE8;}
	.st18{fill:#F7F5F1;}
	.st19{fill:#E1E776;}
	.st20{fill:#D0DC70;}
	.st21{fill:#BFD22B;}
	.st22{fill:#74A333;}
	.st23{fill:#EAEFF2;}
	.st24{fill:#58B6E7;}
	.st25{fill:#3A84B6;}
	.st26{fill:#003E7E;}
	.st27{fill:#DAD6D3;}
	.st28{fill:none;stroke:#231F20;stroke-width:1.5;stroke-linecap:round;stroke-miterlimit:10;}
	.st29{fill:none;stroke:#231F20;stroke-width:1.5;stroke-miterlimit:10;}
</style>
<g>
	<g>
		<g>
			<path d="M28.3,46.7c1.3,0,2.3-1,2.3-2.3c0-1.3-1-2.3-2.3-2.3c-1.3,0-2.3,1-2.3,2.3C26,45.6,27.1,46.7,28.3,46.7 M28.3,42.9
				c0.8,0,1.4,0.6,1.4,1.4c0,0.8-0.6,1.4-1.4,1.4c-0.8,0-1.4-0.6-1.4-1.4C26.9,43.6,27.6,42.9,28.3,42.9"/>
			<path d="M28.3,36.7c0.9,0,1.7-0.8,1.7-1.7c0-0.9-0.8-1.7-1.7-1.7c-0.9,0-1.7,0.8-1.7,1.7C26.6,35.9,27.4,36.7,28.3,36.7
				 M28.3,34.1c0.5,0,0.9,0.4,0.9,0.9c0,0.5-0.4,0.9-0.9,0.9c-0.5,0-0.9-0.4-0.9-0.9C27.5,34.5,27.9,34.1,28.3,34.1"/>
			<path d="M22.5,21.1c-0.1,0-0.3,0-0.4,0.1C22,21.3,22,21.4,22,21.6c0,0.1,0.1,0.3,0.2,0.4c0.1,0.1,0.2,0.2,0.4,0.2
				c0.1,0,0.3-0.1,0.4-0.2c0.1-0.1,0.2-0.2,0.2-0.4c0-0.1-0.1-0.3-0.2-0.4C22.8,21.1,22.6,21.1,22.5,21.1"/>
			<path d="M22,19.9c-0.7-0.8-1.3-1.7-1.7-2.8c-0.1-0.2-0.3-0.3-0.6-0.3c-0.2,0.1-0.3,0.3-0.3,0.6c0.4,1.1,1,2.1,1.8,3
				c0.1,0.1,0.2,0.1,0.3,0.1c0.1,0,0.2,0,0.3-0.1C22.1,20.4,22.1,20.1,22,19.9"/>
			<path d="M19.8,16.3c0.1-0.1,0.2-0.2,0.2-0.4c0-0.1-0.1-0.3-0.2-0.4c-0.1-0.1-0.2-0.1-0.4-0.1c-0.1,0-0.3,0-0.4,0.1
				C19,15.6,19,15.8,19,15.9c0,0.1,0.1,0.3,0.2,0.4c0.1,0.1,0.2,0.2,0.4,0.2C19.6,16.4,19.7,16.4,19.8,16.3"/>
			<path d="M45.6,26v-1c0-0.5-0.4-0.8-0.8-0.8h-6.7v-0.4c0-0.7-0.6-1.3-1.3-1.3h-0.2c-0.2,0-0.2-0.1-0.3-0.2c0-0.1-0.1-0.2,0.1-0.3
				c2-2,3.1-4.6,3.2-7.4h0.3c0.7,0,1.3-0.6,1.3-1.3c0-0.7-0.6-1.3-1.3-1.3H29.7v-0.9h13.7h2.7c0.2,0,0.4-0.2,0.4-0.4v-0.5
				c0-0.3,0.1-0.7,0.4-0.9c0.6-0.6,0.9-1.4,0.9-2.2c0-1.8-1.6-3.3-3.5-3.1c-1.4,0.2-2.5,1.2-2.7,2.6c-0.2,1,0.2,2,0.8,2.7
				c0.3,0.3,0.4,0.6,0.4,1v0.1H29.7V9.8c0-0.7-0.6-1.3-1.3-1.3c-0.7,0-1.3,0.6-1.3,1.3v0.4h-1.3c-0.2,0-0.4,0.2-0.4,0.4
				c0,0.2,0.2,0.4,0.4,0.4H27V12H16.9c-0.7,0-1.3,0.6-1.3,1.3c0,0.7,0.6,1.3,1.3,1.3h0.3c0.1,2.8,1.2,5.4,3.2,7.4
				c0.1,0.1,0.1,0.3,0.1,0.3c0,0.1-0.1,0.2-0.3,0.2h-0.2c-0.7,0-1.3,0.6-1.3,1.3v0.4h-6.7c-0.5,0-0.8,0.4-0.8,0.8v1
				c-1.2,0.2-2.1,1.3-2.1,2.6V29c0,0.5,0.4,0.9,0.9,0.9h3.5v17.2h-1.4c-0.5,0-0.8,0.4-0.8,0.8v1c-1.2,0.2-2.1,1.3-2.1,2.6v0.9
				c0,0.2,0.2,0.4,0.4,0.4h38c0.2,0,0.4-0.2,0.4-0.4v-0.9c0-1.3-0.9-2.3-2.1-2.6v-1c0-0.5-0.4-0.8-0.8-0.8h-1.4V29.9h3.5
				c0.5,0,0.9-0.4,0.9-0.9v-0.4C47.8,27.3,46.9,26.2,45.6,26 M42.5,6.7c0.2-1,1-1.7,1.9-1.8c1.3-0.2,2.5,0.9,2.5,2.2
				c0,0.6-0.2,1.2-0.7,1.6c-0.4,0.4-0.6,1-0.6,1.5v0.1h-1.8v-0.1c0-0.6-0.2-1.1-0.7-1.6C42.6,8.1,42.4,7.4,42.5,6.7 M27.9,9.8
				c0-0.2,0.2-0.4,0.4-0.4c0.2,0,0.4,0.2,0.4,0.4v0.4h-0.9V9.8z M27.9,11.1h0.9V12h-0.9V11.1z M16.5,13.3c0-0.2,0.2-0.4,0.4-0.4
				h10.6h1.7h10.6c0.2,0,0.4,0.2,0.4,0.4c0,0.2-0.2,0.4-0.4,0.4h-0.7H17.6h-0.7C16.6,13.7,16.5,13.5,16.5,13.3 M19.4,23.8
				c0-0.2,0.2-0.4,0.4-0.4h0.2h4.7c0.2,0,0.4-0.2,0.4-0.4c0-0.2-0.2-0.4-0.4-0.4h-3.6c0.1-0.4,0-0.8-0.3-1.1
				c-1.8-1.8-2.8-4.2-2.9-6.8h20.7c-0.1,2.6-1.1,4.9-2.9,6.8c-0.3,0.3-0.4,0.7-0.3,1.1h-7.7c-0.2,0-0.4,0.2-0.4,0.4
				c0,0.2,0.2,0.4,0.4,0.4h8.8h0.2c0.2,0,0.4,0.2,0.4,0.4v0.4H19.4V23.8z M19,25.1h18.7h7.1V26H11.9v-0.9H19z M16.7,48.8h-4.8v-0.9
				h4.8V48.8z M39.1,48.8H17.6v-8.7h21.5V48.8z M46.9,51.4v0.4H9.8v-0.4c0-1,0.8-1.7,1.7-1.7h33.7C46.1,49.7,46.9,50.5,46.9,51.4
				 M44.8,48.8H40v-0.9h4.8V48.8z M42.6,47.1H40v-7c0-0.5-0.4-0.8-0.8-0.8H17.6c-0.5,0-0.8,0.4-0.8,0.8v7h-2.6V29.9h28.4V47.1z
				 M46.9,29C46.9,29,46.9,29,46.9,29H9.8v-0.4c0-1,0.8-1.7,1.7-1.7h33.7c1,0,1.7,0.8,1.7,1.7V29z"/>
			<path d="M28.3,38.4c3.5,0,6.3-1.5,6.3-3.4c0-1.9-2.8-3.4-6.3-3.4S22.1,33,22.1,35C22.1,36.9,24.8,38.4,28.3,38.4 M28.3,32.4
				c2.9,0,5.4,1.2,5.4,2.6c0,1.4-2.5,2.6-5.4,2.6c-2.9,0-5.4-1.2-5.4-2.6C22.9,33.6,25.4,32.4,28.3,32.4"/>
			<path d="M24.2,35.6c0.3,0,0.5-0.2,0.5-0.5c0-0.3-0.2-0.5-0.5-0.5c-0.3,0-0.5,0.2-0.5,0.5C23.7,35.4,23.9,35.6,24.2,35.6
				 M24.2,34.8c0.2,0,0.3,0.1,0.3,0.3c0,0.2-0.1,0.3-0.3,0.3c-0.2,0-0.3-0.1-0.3-0.3C23.9,34.9,24.1,34.8,24.2,34.8"/>
			<path d="M32.5,35.6c0.3,0,0.5-0.2,0.5-0.5c0-0.3-0.2-0.5-0.5-0.5s-0.5,0.2-0.5,0.5C31.9,35.4,32.2,35.6,32.5,35.6 M32.5,34.8
				c0.2,0,0.3,0.1,0.3,0.3c0,0.2-0.1,0.3-0.3,0.3s-0.3-0.1-0.3-0.3C32.1,34.9,32.3,34.8,32.5,34.8"/>
		</g>
	</g>
</g>
</svg>
