<?xml version="1.0" encoding="utf-8"?>
<!-- Generator: Adobe Illustrator 19.1.0, SVG Export Plug-In . SVG Version: 6.00 Build 0)  -->
<svg version="1.1" id="Layer_1" xmlns="http://www.w3.org/2000/svg" xmlns:xlink="http://www.w3.org/1999/xlink" x="0px" y="0px"
	 viewBox="0 0 56.7 56.7" style="enable-background:new 0 0 56.7 56.7;" xml:space="preserve">
<style type="text/css">
	.st0{fill:#231F20;}
	.st1{clip-path:url(#SVGID_2_);fill:#FFFFFF;}
	.st2{clip-path:url(#SVGID_2_);fill:#003E7E;}
	.st3{clip-path:url(#SVGID_2_);fill-rule:evenodd;clip-rule:evenodd;fill:#FFFFFF;}
	.st4{fill:#EFC10B;}
	.st5{fill:#D7D1CA;}
	.st6{opacity:0.9;clip-path:url(#SVGID_4_);}
	.st7{clip-path:url(#SVGID_6_);fill:none;stroke:#EAEFF2;stroke-miterlimit:10;}
	.st8{clip-path:url(#SVGID_8_);fill-rule:evenodd;clip-rule:evenodd;fill:#74A333;}
	.st9{clip-path:url(#SVGID_8_);fill:none;stroke:#FFFFFF;stroke-linejoin:bevel;stroke-miterlimit:10;}
	.st10{clip-path:url(#SVGID_8_);fill-rule:evenodd;clip-rule:evenodd;fill:#BEB7B3;}
	.st11{clip-path:url(#SVGID_8_);fill-rule:evenodd;clip-rule:evenodd;fill:#DAD6D3;}
	.st12{clip-path:url(#SVGID_8_);fill-rule:evenodd;clip-rule:evenodd;fill:#E1E776;}
	.st13{clip-path:url(#SVGID_8_);fill:#BFD22B;}
	.st14{fill:#554742;}
	.st15{fill:#877B77;}
	.st16{fill:#BEB7B3;}
	.st17{fill:#F1EEE8;}
	.st18{fill:#F7F5F1;}
	.st19{fill:#E1E776;}
	.st20{fill:#D0DC70;}
	.st21{fill:#BFD22B;}
	.st22{fill:#74A333;}
	.st23{fill:#EAEFF2;}
	.st24{fill:#58B6E7;}
	.st25{fill:#3A84B6;}
	.st26{fill:#003E7E;}
	.st27{fill:#DAD6D3;}
	.st28{fill:none;stroke:#231F20;stroke-width:1.5;stroke-linecap:round;stroke-miterlimit:10;}
	.st29{fill:none;stroke:#231F20;stroke-width:1.5;stroke-miterlimit:10;}
</style>
<g>
	<path d="M29.2,33.5c0,0.3,0.2,0.5,0.5,0.5c0.3,0,0.5-0.2,0.5-0.5v-4.1l1.1-1.2c0.2-0.2,0.2-0.5,0-0.7c-0.2-0.2-0.5-0.2-0.7,0
		l-1.3,1.3c-0.1,0.1-0.1,0.2-0.1,0.3V33.5z"/>
	<path d="M31.2,34.5c-0.2-0.2-0.5-0.2-0.7,0l-1.2,1.2c-0.1,0.1-0.1,0.2-0.1,0.3l0,4.8c0,0.3,0.2,0.5,0.5,0.5h0
		c0.3,0,0.5-0.2,0.5-0.5l0-4.7l1-1C31.4,35,31.4,34.7,31.2,34.5"/>
	<path d="M26.6,30.4c-0.2-0.2-0.5-0.2-0.7,0c-0.2,0.2-0.2,0.5,0,0.7l1.3,1.3v4.8c0,0.3,0.2,0.5,0.5,0.5c0.3,0,0.5-0.2,0.5-0.5v-5
		c0-0.1-0.1-0.2-0.1-0.3L26.6,30.4z"/>
	<path d="M27.7,23.8c-0.3,0-0.5,0.2-0.5,0.5v5.4c0,0.3,0.2,0.5,0.5,0.5c0.3,0,0.5-0.2,0.5-0.5v-5.4C28.2,24,28,23.8,27.7,23.8"/>
	<path d="M29.2,23.1l0,3.5c0,0.3,0.2,0.5,0.5,0.5h0c0.3,0,0.5-0.2,0.5-0.5l0-3.5c0-0.3-0.2-0.5-0.5-0.5h0
		C29.4,22.6,29.2,22.9,29.2,23.1"/>
	<path d="M45.7,31.3h-3.1c-2.2,0-4,1.8-4,4c0,0.3,0.2,0.5,0.5,0.5h3.1c2.2,0,4-1.8,4-4C46.1,31.5,45.9,31.3,45.7,31.3 M42.1,34.8
		h-2.6c0.2-1.5,1.5-2.6,3-2.6h2.6C44.9,33.7,43.6,34.8,42.1,34.8"/>
	<path d="M38.2,19c0,0.3,0.2,0.5,0.5,0.5h3.1c2.2,0,4-1.8,4-4c0-0.3-0.2-0.5-0.5-0.5h-3.1C40,15,38.2,16.8,38.2,19 M42.2,15.9h2.6
		c-0.2,1.5-1.5,2.6-3,2.6h-2.6C39.4,17.1,40.7,15.9,42.2,15.9"/>
	<path d="M13.6,21h3.1h0c0.3,0,0.5-0.2,0.5-0.5c0,0,0-0.1,0-0.1c0-2.2-1.8-4-4-4H10c-0.3,0-0.5,0.2-0.5,0.5
		C9.5,19.2,11.3,21,13.6,21 M13.1,17.5c1.5,0,2.8,1.1,3,2.6h-2.6c-1.5,0-2.8-1.1-3-2.6H13.1z"/>
	<path d="M17.1,22.8c0-0.1-0.1-0.2-0.1-0.3c-0.6-0.6-1.4-0.9-2.2-0.9c-0.8,0-1.6,0.3-2.2,0.9l-1.6,1.6c-0.2,0.2-0.2,0.5,0,0.7
		c0.6,0.6,1.4,0.9,2.2,0.9c0.8,0,1.6-0.3,2.2-0.9l1.6-1.6C17.1,23.1,17.1,23,17.1,22.8 M14.7,24.2c-0.4,0.4-1,0.6-1.6,0.6
		c-0.4,0-0.8-0.1-1.2-0.3l1.3-1.3c0.4-0.4,1-0.6,1.6-0.6c0.4,0,0.8,0.1,1.2,0.3L14.7,24.2z"/>
	<path d="M43.4,37.5c-0.6-0.6-1.4-0.9-2.2-0.9c-0.8,0-1.6,0.3-2.2,0.9c-0.2,0.2-0.2,0.5,0,0.7l1.6,1.6c0.6,0.6,1.4,0.9,2.2,0.9
		c0.8,0,1.6-0.3,2.2-0.9c0.1-0.1,0.1-0.2,0.1-0.3c0-0.1-0.1-0.2-0.1-0.3L43.4,37.5z M42.8,39.8c-0.6,0-1.1-0.2-1.6-0.6L40,37.9
		c0.4-0.2,0.8-0.3,1.2-0.3c0.6,0,1.1,0.2,1.6,0.6l1.3,1.3C43.7,39.7,43.2,39.8,42.8,39.8"/>
	<path d="M48.4,27.4l-1.6-1.6c-0.6-0.6-1.4-0.9-2.2-0.9c-0.8,0-1.6,0.3-2.2,0.9c-0.2,0.2-0.2,0.5,0,0.7l1.6,1.6
		c0.6,0.6,1.4,0.9,2.2,0.9c0.8,0,1.6-0.3,2.2-0.9C48.6,27.9,48.6,27.6,48.4,27.4 M46.2,28.1c-0.6,0-1.1-0.2-1.6-0.6l-1.3-1.3
		c0.4-0.2,0.8-0.3,1.2-0.3c0.6,0,1.1,0.2,1.6,0.6l1.3,1.3C47,28,46.6,28.1,46.2,28.1"/>
	<path d="M17.9,37.6v-2.3c0-0.3-0.2-0.5-0.5-0.5c-1.7,0-3.2,1.4-3.2,3.2v2.3c0,0.3,0.2,0.5,0.5,0.5C16.4,40.7,17.9,39.3,17.9,37.6
		 M16.9,37.6c0,1.1-0.7,1.9-1.7,2.2v-1.8c0-1.1,0.7-1.9,1.7-2.2V37.6z"/>
	<path d="M13.1,27.4h-2.3c-0.3,0-0.5,0.2-0.5,0.5c0,1.7,1.4,3.2,3.2,3.2h2.3c0,0,0,0,0,0c0.3,0,0.5-0.2,0.5-0.5c0,0,0-0.1,0-0.1
		C16.3,28.7,14.9,27.4,13.1,27.4 M13.5,30.1c-1.1,0-1.9-0.7-2.2-1.7h1.8c1.1,0,1.9,0.7,2.2,1.7H13.5z"/>
	<path d="M41.4,24c0,0.3,0.2,0.5,0.5,0.5h2.3c1.7,0,3.2-1.4,3.2-3.2c0-0.3-0.2-0.5-0.5-0.5h-2.3C42.8,20.8,41.4,22.2,41.4,24
		 M44.2,23.5h-1.8c0.2-1,1.1-1.7,2.2-1.7h1.8C46.2,22.7,45.3,23.5,44.2,23.5"/>
	<path d="M19,19.6c0.1,0.1,0.2,0.1,0.3,0.1c0.1,0,0.2,0,0.3-0.1c0.6-0.6,0.9-1.4,0.9-2.2c0-0.8-0.3-1.6-0.9-2.2L18,13.5
		c-0.2-0.2-0.5-0.2-0.7,0c-1.2,1.2-1.2,3.2,0,4.5L19,19.6z M17.7,14.5l1.3,1.3c0.4,0.4,0.6,1,0.6,1.6c0,0.4-0.1,0.8-0.3,1.2L18,17.3
		C17.3,16.5,17.2,15.4,17.7,14.5"/>
	<path d="M36.4,17.8c0.1,0.1,0.2,0.1,0.3,0.1c0.1,0,0.2,0,0.3-0.1l1.6-1.6c1.2-1.2,1.2-3.2,0-4.5c-0.2-0.2-0.5-0.2-0.7,0l-1.6,1.6
		C35.1,14.5,35.1,16.5,36.4,17.8 M37.1,14l1.3-1.3c0.5,0.9,0.4,2-0.3,2.7l-1.3,1.3C36.2,15.8,36.3,14.7,37.1,14"/>
	<path d="M29.7,13.3h3.1c2.2,0,4-1.8,4-4c0-0.3-0.2-0.5-0.5-0.5h-3.1c-2.2,0-4,1.8-4,4C29.2,13.1,29.5,13.3,29.7,13.3 M33.3,9.8h2.6
		c-0.2,1.5-1.5,2.6-3,2.6h-2.6C30.5,10.9,31.7,9.8,33.3,9.8"/>
	<path d="M16.2,32.8c-0.8-0.8-1.8-1.2-2.9-1.2s-2.1,0.4-2.9,1.2L8.3,35c-0.1,0.1-0.1,0.2-0.1,0.3c0,0.1,0.1,0.2,0.1,0.3
		c0.8,0.8,1.8,1.2,2.9,1.2c1.1,0,2.1-0.4,2.9-1.2l2.2-2.2C16.4,33.3,16.4,33,16.2,32.8 M13.3,35c-0.6,0.6-1.4,0.9-2.2,0.9
		c-0.7,0-1.3-0.2-1.8-0.6l1.8-1.8c0.6-0.6,1.4-0.9,2.2-0.9c0.7,0,1.3,0.2,1.8,0.6L13.3,35z"/>
	<path d="M24.6,13.3h3.1c0,0,0,0,0,0c0.3,0,0.5-0.2,0.5-0.5c0,0,0-0.1,0-0.1c0-2.2-1.8-4-4-4H21c-0.3,0-0.5,0.2-0.5,0.5
		C20.5,11.5,22.3,13.3,24.6,13.3 M24.1,9.8c1.5,0,2.8,1.1,3,2.6h-2.6c-1.5,0-2.8-1.1-3-2.6H24.1z"/>
	<path d="M26.4,37.8c-0.2-0.2-0.5-0.2-0.7,0c-0.2,0.2-0.2,0.5,0,0.7l1.5,1.5v4.3c0,1.4-1.1,2.6-2.6,2.6h-4.5c-0.3,0-0.5,0.2-0.5,0.5
		c0,0.3,0.2,0.5,0.5,0.5h4.5c1.9,0,3.5-1.6,3.5-3.5v-4.5c0-0.1-0.1-0.2-0.1-0.3L26.4,37.8z"/>
	<path d="M37.2,27.7c0.1-0.2,0.1-0.4,0-0.6c-0.1-0.2-0.2-0.3-0.4-0.4c-0.1,0-0.2-0.1-0.3-0.1c-0.3,0-0.6,0.2-0.7,0.5
		c-0.1,0.3,0,0.6,0.2,0.8c0,0,0,0,0,0c0.1,0.1,0.1,0.1,0.2,0.2c0.1,0,0.2,0.1,0.3,0.1C36.8,28.1,37.1,28,37.2,27.7"/>
	<path d="M38.7,26.2c0.1-0.2,0.1-0.4,0-0.6c-0.1-0.2-0.2-0.3-0.4-0.4c-0.1,0-0.2-0.1-0.3-0.1c-0.3,0-0.6,0.2-0.7,0.5
		c-0.2,0.4,0,0.8,0.4,1c0.1,0,0.2,0.1,0.3,0.1C38.3,26.6,38.6,26.5,38.7,26.2"/>
	<path d="M37.7,29.7c0.1-0.2,0.1-0.4,0-0.6c-0.1-0.2-0.2-0.3-0.4-0.4c-0.1,0-0.2-0.1-0.3-0.1c-0.3,0-0.6,0.2-0.7,0.5
		c-0.1,0.2-0.1,0.4,0,0.6c0,0.1,0.1,0.2,0.1,0.2c0,0,0,0,0,0c0.1,0.1,0.1,0.1,0.2,0.2c0.1,0,0.2,0.1,0.3,0.1
		C37.3,30.2,37.6,30,37.7,29.7"/>
	<path d="M35.3,31.6c0.1,0,0.2,0.1,0.3,0.1c0.3,0,0.6-0.2,0.7-0.5c0.1-0.2,0.1-0.4,0-0.6c0-0.1-0.1-0.2-0.1-0.2c0,0,0,0,0,0
		c-0.1-0.1-0.1-0.1-0.2-0.2c-0.1,0-0.2-0.1-0.3-0.1c-0.3,0-0.6,0.2-0.7,0.5C34.7,31,34.9,31.5,35.3,31.6"/>
	<path d="M32.9,33.2c-0.1,0-0.2-0.1-0.3-0.1c-0.3,0-0.6,0.2-0.7,0.5c-0.2,0.4,0,0.8,0.4,1c0.1,0,0.2,0.1,0.3,0.1
		c0.3,0,0.6-0.2,0.7-0.5c0.1-0.2,0.1-0.4,0-0.6C33.2,33.5,33,33.3,32.9,33.2"/>
	<path d="M35.7,29.2c0.1-0.3,0-0.6-0.2-0.8c0,0,0,0,0,0c-0.1-0.1-0.1-0.1-0.2-0.2c-0.1,0-0.2-0.1-0.3-0.1c-0.3,0-0.6,0.2-0.7,0.5
		c-0.1,0.2-0.1,0.4,0,0.6c0.1,0.2,0.2,0.3,0.4,0.4c0.1,0,0.2,0.1,0.3,0.1C35.3,29.6,35.6,29.5,35.7,29.2"/>
	<path d="M31.8,32.6c0.1,0,0.2,0.1,0.3,0.1c0.3,0,0.6-0.2,0.7-0.5c0.1-0.2,0.1-0.4,0-0.6c-0.1-0.2-0.2-0.3-0.4-0.4
		c-0.1,0-0.2-0.1-0.3-0.1c-0.3,0-0.6,0.2-0.7,0.5C31.2,32,31.4,32.4,31.8,32.6"/>
	<path d="M34.2,30.7c0.1-0.2,0.1-0.4,0-0.6c-0.1-0.2-0.2-0.3-0.4-0.4c-0.1,0-0.2-0.1-0.3-0.1c-0.3,0-0.6,0.2-0.7,0.5
		c-0.2,0.4,0,0.8,0.4,1c0.1,0,0.2,0.1,0.3,0.1C33.8,31.1,34.1,30.9,34.2,30.7"/>
	<path d="M33.8,33.1c0.1,0,0.2,0.1,0.3,0.1c0.3,0,0.6-0.2,0.7-0.5c0.2-0.4,0-0.8-0.4-1c-0.1,0-0.2-0.1-0.3-0.1
		c-0.3,0-0.6,0.2-0.7,0.5C33.2,32.5,33.4,33,33.8,33.1"/>
	<path d="M39.8,27.1c0.1,0,0.2,0.1,0.3,0.1c0.3,0,0.6-0.2,0.7-0.5c0.1-0.2,0.1-0.4,0-0.6c-0.1-0.2-0.2-0.3-0.4-0.4
		c-0.1,0-0.2-0.1-0.3-0.1c-0.3,0-0.6,0.2-0.7,0.5c-0.1,0.2-0.1,0.4,0,0.6C39.5,26.9,39.6,27.1,39.8,27.1"/>
	<path d="M38.8,30.7c0.1,0,0.2,0.1,0.3,0.1c0.3,0,0.6-0.2,0.7-0.5c0.1-0.2,0.1-0.4,0-0.6c0-0.1-0.1-0.2-0.1-0.2c0,0,0,0,0,0
		c-0.1-0.1-0.1-0.1-0.2-0.2c-0.1,0-0.2-0.1-0.3-0.1c-0.1,0-0.1,0-0.2,0c0,0,0,0,0,0c-0.2,0.1-0.4,0.2-0.5,0.4
		c-0.1,0.2-0.1,0.4,0,0.6C38.5,30.5,38.6,30.6,38.8,30.7"/>
	<path d="M40.1,29C40.1,29,40.1,29,40.1,29c0.1,0.1,0.2,0.1,0.3,0.2c0.1,0,0.2,0.1,0.3,0.1c0.3,0,0.6-0.2,0.7-0.5
		c0.2-0.4,0-0.8-0.4-1c-0.1,0-0.2-0.1-0.3-0.1c-0.3,0-0.6,0.2-0.7,0.5c-0.1,0.2-0.1,0.4,0,0.6C40,28.9,40,28.9,40.1,29"/>
	<path d="M39.2,28.2c0.2-0.4,0-0.8-0.4-1c-0.1,0-0.2-0.1-0.3-0.1c-0.3,0-0.6,0.2-0.7,0.5c-0.1,0.2-0.1,0.4,0,0.6
		c0.1,0.2,0.2,0.3,0.4,0.4c0.1,0,0.2,0.1,0.3,0.1C38.8,28.7,39.1,28.5,39.2,28.2"/>
	<path d="M40.2,24.7c0.2-0.4,0-0.8-0.4-1c-0.1,0-0.2-0.1-0.3-0.1c-0.3,0-0.6,0.2-0.7,0.5c-0.2,0.4,0,0.8,0.4,1
		c0.1,0,0.2,0.1,0.3,0.1C39.8,25.1,40.1,25,40.2,24.7"/>
	<path d="M24.1,29.1c-0.1,0.2-0.1,0.4,0,0.6c0.1,0.3,0.4,0.5,0.7,0.5c0.1,0,0.2,0,0.3-0.1c0.2-0.1,0.3-0.2,0.4-0.4
		c0.1-0.2,0.1-0.4,0-0.6c-0.1-0.3-0.4-0.5-0.7-0.5c-0.1,0-0.2,0-0.3,0.1C24.3,28.8,24.1,28.9,24.1,29.1"/>
	<path d="M23.3,27.2c-0.1,0-0.2,0-0.3,0.1c-0.2,0.1-0.3,0.2-0.4,0.4c-0.1,0.2-0.1,0.4,0,0.6c0.1,0.3,0.4,0.5,0.7,0.5
		c0.1,0,0.2,0,0.3-0.1c0.2-0.1,0.3-0.2,0.4-0.4c0.1-0.2,0.1-0.4,0-0.6C23.8,27.4,23.6,27.2,23.3,27.2"/>
	<path d="M19.6,24.6c-0.1,0.2-0.1,0.4,0,0.6c0.1,0.3,0.4,0.5,0.7,0.5c0.1,0,0.2,0,0.3-0.1c0.1,0,0.2-0.1,0.2-0.2c0,0,0,0,0,0
		c0.2-0.2,0.3-0.5,0.2-0.8c-0.1-0.3-0.4-0.5-0.7-0.5c-0.1,0-0.2,0-0.3,0.1C19.8,24.3,19.7,24.5,19.6,24.6"/>
	<path d="M18.1,23.1c-0.1,0.2-0.1,0.4,0,0.6c0.1,0.2,0.3,0.4,0.5,0.4c0,0,0,0,0,0c0.1,0,0.1,0,0.2,0c0.1,0,0.2,0,0.3-0.1
		c0.4-0.2,0.6-0.6,0.4-1c-0.1-0.3-0.4-0.5-0.7-0.5c-0.1,0-0.2,0-0.3,0.1C18.3,22.8,18.2,23,18.1,23.1"/>
	<path d="M21.8,25.7c-0.1,0-0.2,0-0.3,0.1c-0.1,0-0.2,0.1-0.2,0.2c0,0,0,0,0,0c-0.2,0.2-0.3,0.5-0.2,0.8c0.1,0.3,0.4,0.5,0.7,0.5
		c0.1,0,0.2,0,0.3-0.1c0.4-0.2,0.6-0.6,0.4-1C22.3,25.9,22.1,25.7,21.8,25.7"/>
	<path d="M20,27.7c0.1,0,0.2-0.1,0.2-0.2c0,0,0,0,0,0c0.2-0.2,0.3-0.5,0.2-0.8c-0.1-0.3-0.4-0.5-0.7-0.5c-0.1,0-0.2,0-0.3,0.1
		c-0.2,0.1-0.3,0.2-0.4,0.4c-0.1,0.2-0.1,0.4,0,0.6c0.1,0.3,0.4,0.5,0.7,0.5C19.8,27.7,19.9,27.7,20,27.7"/>
	<path d="M21.5,29.1c0.4-0.2,0.6-0.6,0.4-1c-0.1-0.3-0.4-0.5-0.7-0.5c-0.1,0-0.2,0-0.3,0.1c-0.1,0-0.2,0.1-0.2,0.2c0,0,0,0,0,0
		c-0.2,0.2-0.3,0.5-0.2,0.8c0.1,0.3,0.4,0.5,0.7,0.5C21.3,29.2,21.4,29.2,21.5,29.1"/>
	<path d="M20.1,23.2c0.1,0.3,0.4,0.5,0.7,0.5c0.1,0,0.2,0,0.3-0.1c0.1,0,0.2-0.1,0.2-0.2c0,0,0,0,0,0c0.1-0.1,0.1-0.1,0.1-0.2
		c0.1-0.2,0.1-0.4,0-0.6c-0.1-0.3-0.4-0.5-0.7-0.5c-0.1,0-0.2,0-0.3,0.1C20.2,22.4,20,22.8,20.1,23.2"/>
	<path d="M21.8,23.9C21.8,23.9,21.8,23.9,21.8,23.9c-0.1,0.1-0.1,0.2-0.2,0.2c-0.1,0.2-0.1,0.4,0,0.6c0.1,0.3,0.4,0.5,0.7,0.5
		c0.1,0,0.2,0,0.3-0.1c0.2-0.1,0.3-0.2,0.4-0.4c0.1-0.2,0.1-0.4,0-0.6c-0.1-0.3-0.4-0.5-0.7-0.5c-0.1,0-0.2,0-0.3,0.1
		C21.9,23.7,21.9,23.8,21.8,23.9"/>
	<path d="M23.8,25.1c-0.1,0-0.2,0-0.3,0.1c-0.4,0.2-0.6,0.6-0.4,1c0.1,0.3,0.4,0.5,0.7,0.5c0.1,0,0.2,0,0.3-0.1
		c0.2-0.1,0.3-0.2,0.4-0.4c0.1-0.2,0.1-0.4,0-0.6C24.4,25.3,24.1,25.1,23.8,25.1"/>
	<path d="M22.9,21.6c-0.1,0-0.2,0-0.3,0.1c-0.4,0.2-0.6,0.6-0.4,1c0.1,0.3,0.4,0.5,0.7,0.5c0.1,0,0.2,0,0.3-0.1
		c0.2-0.1,0.3-0.2,0.4-0.4c0.1-0.2,0.1-0.4,0-0.6C23.4,21.8,23.2,21.6,22.9,21.6"/>
	<path d="M26,27.1c-0.1-0.3-0.4-0.5-0.7-0.5c-0.1,0-0.2,0-0.3,0.1c-0.4,0.2-0.6,0.6-0.4,1c0.1,0.3,0.4,0.5,0.7,0.5
		c0.1,0,0.2,0,0.3-0.1C25.9,27.9,26.1,27.5,26,27.1"/>
	<path d="M21.4,20.1c-0.1,0-0.2,0-0.3,0.1c-0.4,0.2-0.6,0.6-0.4,1c0.1,0.3,0.4,0.5,0.7,0.5c0.1,0,0.2,0,0.3-0.1
		c0.2-0.1,0.3-0.2,0.4-0.4c0.1-0.2,0.1-0.4,0-0.6C21.9,20.3,21.7,20.1,21.4,20.1"/>
	<path d="M19.3,20.7c-0.1,0-0.2,0-0.3,0.1c-0.4,0.2-0.6,0.6-0.4,1c0.1,0.3,0.4,0.5,0.7,0.5c0.1,0,0.2,0,0.3-0.1
		c0.2-0.1,0.3-0.2,0.4-0.4c0.1-0.2,0.1-0.4,0-0.6C19.9,20.8,19.6,20.7,19.3,20.7"/>
	<path d="M22.5,32.5C22.5,32.5,22.6,32.5,22.5,32.5c0.1-0.1,0.1-0.2,0.2-0.2c0.1-0.2,0.1-0.4,0-0.6c-0.1-0.3-0.4-0.5-0.7-0.5
		c-0.1,0-0.2,0-0.3,0.1c-0.4,0.2-0.6,0.6-0.4,1c0.1,0.3,0.4,0.5,0.7,0.5c0.1,0,0.2,0,0.3-0.1C22.4,32.6,22.5,32.6,22.5,32.5"/>
	<path d="M24.2,33.8c0.1-0.2,0.1-0.4,0-0.6c-0.1-0.3-0.4-0.5-0.7-0.5c-0.1,0-0.2,0-0.3,0.1c-0.1,0-0.2,0.1-0.2,0.2c0,0,0,0,0,0
		c-0.1,0.1-0.1,0.1-0.1,0.2c-0.1,0.2-0.1,0.4,0,0.6c0.1,0.3,0.4,0.5,0.7,0.5c0.1,0,0.2,0,0.3-0.1C24,34.1,24.1,34,24.2,33.8"/>
	<path d="M21.5,34.8c0.1,0,0.2,0,0.3-0.1c0.1,0,0.2-0.1,0.2-0.2c0,0,0,0,0,0c0.2-0.2,0.3-0.5,0.2-0.8c-0.1-0.3-0.4-0.5-0.7-0.5
		c-0.1,0-0.2,0-0.3,0.1c-0.2,0.1-0.3,0.2-0.4,0.4c-0.1,0.2-0.1,0.4,0,0.6C20.9,34.6,21.2,34.8,21.5,34.8"/>
	<path d="M24.5,37.8c0.1,0,0.2,0,0.3-0.1c0.2-0.1,0.3-0.2,0.4-0.4c0.1-0.2,0.1-0.4,0-0.6c-0.1-0.3-0.4-0.5-0.7-0.5
		c-0.1,0-0.2,0-0.3,0.1c-0.2,0.1-0.3,0.2-0.4,0.4c-0.1,0.2-0.1,0.4,0,0.6C23.9,37.6,24.2,37.8,24.5,37.8"/>
	<path d="M23,36.3c0.1,0,0.2,0,0.3-0.1c0.2-0.1,0.3-0.2,0.4-0.4c0.1-0.2,0.1-0.4,0-0.6c-0.1-0.3-0.4-0.5-0.7-0.5
		c-0.1,0-0.2,0-0.3,0.1c-0.1,0-0.2,0.1-0.2,0.2c0,0,0,0,0,0c-0.2,0.2-0.3,0.5-0.2,0.8C22.4,36.1,22.7,36.3,23,36.3"/>
	<path d="M17.9,32.3c-0.1,0-0.2,0-0.3,0.1c-0.2,0.1-0.3,0.2-0.4,0.4c-0.1,0.2-0.1,0.4,0,0.6c0.1,0.3,0.4,0.5,0.7,0.5
		c0.1,0,0.2,0,0.3-0.1c0.1,0,0.2-0.1,0.2-0.2c0,0,0,0,0,0c0.2-0.2,0.3-0.5,0.2-0.8C18.5,32.5,18.2,32.3,17.9,32.3"/>
	<path d="M19.2,31.3c0.1-0.2,0.1-0.4,0-0.6c-0.1-0.3-0.4-0.5-0.7-0.5c-0.1,0-0.2,0-0.3,0.1c-0.4,0.2-0.6,0.6-0.4,1
		c0.1,0.3,0.4,0.5,0.7,0.5c0.1,0,0.2,0,0.3-0.1C19,31.6,19.1,31.5,19.2,31.3"/>
	<path d="M25.7,35.3c0.1-0.2,0.1-0.4,0-0.6c-0.1-0.3-0.4-0.5-0.7-0.5c-0.1,0-0.2,0-0.3,0.1c-0.4,0.2-0.6,0.6-0.4,1
		c0.1,0.3,0.4,0.5,0.7,0.5c0.1,0,0.2,0,0.3-0.1C25.5,35.6,25.6,35.4,25.7,35.3"/>
	<path d="M19.8,33.2C19.8,33.2,19.8,33.2,19.8,33.2c0.1,0,0.1,0,0.2,0c0.1,0,0.2,0,0.3-0.1c0.4-0.2,0.6-0.6,0.4-1
		c-0.1-0.3-0.4-0.5-0.7-0.5c-0.1,0-0.2,0-0.3,0.1c-0.2,0.1-0.3,0.2-0.4,0.4c-0.1,0.2-0.1,0.4,0,0.6C19.4,33,19.6,33.2,19.8,33.2"/>
	<path d="M20.1,34.9c0.1-0.2,0.1-0.4,0-0.6c-0.1-0.2-0.3-0.4-0.5-0.4c0,0,0,0,0,0c-0.1,0-0.1,0-0.2,0c-0.1,0-0.2,0-0.3,0.1
		c-0.1,0-0.2,0.1-0.2,0.2c0,0,0,0,0,0c-0.2,0.2-0.3,0.5-0.2,0.8c0.1,0.3,0.4,0.5,0.7,0.5c0.1,0,0.2,0,0.3-0.1
		C19.9,35.2,20,35,20.1,34.9"/>
	<path d="M33.4,26.6c0.1-0.2,0.1-0.4,0-0.6c-0.1-0.2-0.2-0.3-0.4-0.4c-0.1,0-0.2-0.1-0.3-0.1c-0.3,0-0.6,0.2-0.7,0.5
		c-0.2,0.4,0,0.8,0.4,1c0.1,0,0.2,0.1,0.3,0.1C33,27.1,33.3,26.9,33.4,26.6"/>
	<path d="M34.9,18.6c-0.1,0-0.2-0.1-0.3-0.1c-0.3,0-0.6,0.2-0.7,0.5c-0.1,0.2-0.1,0.4,0,0.6c0,0.1,0.1,0.2,0.1,0.2c0,0,0,0,0,0
		c0.1,0.1,0.1,0.1,0.2,0.2c0.1,0,0.2,0.1,0.3,0.1c0.3,0,0.6-0.2,0.7-0.5c0.1-0.2,0.1-0.4,0-0.6C35.2,18.8,35,18.7,34.9,18.6"/>
	<path d="M33.6,20.3C33.6,20.3,33.6,20.3,33.6,20.3c-0.1-0.1-0.2-0.1-0.3-0.2c-0.1,0-0.2-0.1-0.3-0.1c-0.3,0-0.6,0.2-0.7,0.5
		c-0.2,0.4,0,0.8,0.4,1c0.1,0,0.2,0.1,0.3,0.1c0.3,0,0.6-0.2,0.7-0.5c0.1-0.2,0.1-0.4,0-0.6C33.7,20.4,33.7,20.3,33.6,20.3"/>
	<path d="M37.9,22.2c0.2-0.4,0-0.8-0.4-1c-0.1,0-0.2-0.1-0.3-0.1c-0.3,0-0.6,0.2-0.7,0.5c-0.1,0.2-0.1,0.4,0,0.6
		c0,0.1,0.1,0.2,0.1,0.2c0,0,0,0,0,0c0.1,0.1,0.1,0.1,0.2,0.2c0.1,0,0.2,0.1,0.3,0.1C37.5,22.6,37.7,22.4,37.9,22.2"/>
	<path d="M33.9,25.6c0.1,0,0.2,0.1,0.3,0.1c0.3,0,0.6-0.2,0.7-0.5c0.1-0.2,0.1-0.4,0-0.6c-0.1-0.2-0.2-0.3-0.4-0.4
		c-0.1,0-0.2-0.1-0.3-0.1c-0.3,0-0.6,0.2-0.7,0.5C33.4,25,33.5,25.4,33.9,25.6"/>
	<path d="M36.9,19.2c-0.1,0-0.2-0.1-0.3-0.1c-0.3,0-0.6,0.2-0.7,0.5c-0.1,0.2-0.1,0.4,0,0.6c0,0.1,0.1,0.2,0.1,0.2c0,0,0,0,0,0
		c0.1,0.1,0.1,0.1,0.2,0.2c0.1,0,0.2,0.1,0.3,0.1c0.3,0,0.6-0.2,0.7-0.5c0.1-0.2,0.1-0.4,0-0.6C37.2,19.4,37.1,19.2,36.9,19.2"/>
	<path d="M35,23.1c-0.1,0.2-0.1,0.4,0,0.6c0.1,0.2,0.2,0.3,0.4,0.4c0.1,0,0.2,0.1,0.3,0.1c0.3,0,0.6-0.2,0.7-0.5
		c0.1-0.2,0.1-0.4,0-0.6c0-0.1-0.1-0.2-0.1-0.2c0,0,0,0,0,0c-0.1-0.1-0.1-0.1-0.2-0.2c-0.1,0-0.2-0.1-0.3-0.1
		C35.4,22.6,35.1,22.8,35,23.1"/>
	<path d="M31.5,24.1c-0.1,0.2-0.1,0.4,0,0.6c0.1,0.2,0.2,0.3,0.4,0.4c0.1,0,0.2,0.1,0.3,0.1c0.3,0,0.6-0.2,0.7-0.5
		c0.1-0.2,0.1-0.4,0-0.6c-0.1-0.2-0.2-0.3-0.4-0.4c-0.1,0-0.2-0.1-0.3-0.1C31.8,23.6,31.6,23.8,31.5,24.1"/>
	<path d="M35.7,20.8C35.7,20.8,35.7,20.8,35.7,20.8c-0.1-0.1-0.2-0.1-0.3-0.2c-0.1,0-0.2-0.1-0.3-0.1c-0.3,0-0.6,0.2-0.7,0.5
		c-0.2,0.4,0,0.8,0.4,1c0.1,0,0.2,0.1,0.3,0.1c0.3,0,0.6-0.2,0.7-0.5c0.1-0.2,0.1-0.4,0-0.6C35.8,21,35.7,20.9,35.7,20.8"/>
	<path d="M33,22.6c-0.1,0.2-0.1,0.4,0,0.6c0.1,0.2,0.2,0.3,0.4,0.4c0.1,0,0.2,0.1,0.3,0.1c0.3,0,0.6-0.2,0.7-0.5
		c0.2-0.4,0-0.8-0.4-1c-0.1,0-0.2-0.1-0.3-0.1C33.3,22.1,33.1,22.3,33,22.6"/>
	<path d="M29.8,18.6c0.1,0.3,0.4,0.4,0.7,0.4c0.1,0,0.2,0,0.3-0.1c0.2-0.1,0.3-0.2,0.4-0.4c0.1-0.2,0.1-0.4,0-0.6
		c-0.1-0.3-0.4-0.4-0.7-0.4c-0.1,0-0.2,0-0.3,0.1c-0.2,0.1-0.3,0.2-0.4,0.4C29.8,18.2,29.8,18.4,29.8,18.6"/>
	<path d="M26.2,18.6c0.1,0.3,0.4,0.4,0.7,0.4c0.1,0,0.2,0,0.3-0.1c0.2-0.1,0.3-0.2,0.4-0.4c0.1-0.2,0.1-0.4,0-0.6
		c-0.1-0.3-0.4-0.5-0.7-0.5c-0.1,0-0.2,0-0.3,0.1c-0.2,0.1-0.3,0.2-0.4,0.4C26.1,18.2,26.1,18.4,26.2,18.6"/>
	<path d="M30.5,16.9c0.1,0,0.2,0,0.3-0.1c0.2-0.1,0.3-0.2,0.4-0.4c0.1-0.2,0.1-0.4,0-0.6c-0.1-0.3-0.4-0.5-0.7-0.5
		c-0.1,0-0.2,0-0.3,0.1c-0.2,0.1-0.3,0.2-0.4,0.4c-0.1,0.2-0.1,0.4,0,0.6C29.9,16.7,30.2,16.9,30.5,16.9"/>
	<path d="M30.5,19.7C30.5,19.7,30.5,19.7,30.5,19.7C30.5,19.7,30.5,19.7,30.5,19.7c-0.1,0-0.2,0-0.3,0.1c-0.4,0.2-0.5,0.6-0.4,1
		c0.1,0.3,0.4,0.4,0.7,0.4c0.1,0,0.2,0,0.3-0.1c0.2-0.1,0.3-0.2,0.4-0.4c0.1-0.2,0.1-0.4,0-0.6C31.1,19.8,30.8,19.7,30.5,19.7"/>
	<path d="M29.4,21.7c0.1-0.2,0.1-0.4,0-0.6c-0.1-0.3-0.4-0.5-0.7-0.5c-0.1,0-0.2,0-0.3,0.1c-0.2,0.1-0.3,0.2-0.4,0.4
		c-0.1,0.2-0.1,0.4,0,0.6c0.1,0.3,0.4,0.4,0.7,0.4c0.1,0,0.2,0,0.3-0.1C29.1,22.1,29.3,21.9,29.4,21.7"/>
	<path d="M26.8,19.7c-0.1,0-0.2,0-0.3,0.1c-0.4,0.2-0.5,0.6-0.4,1c0.1,0.3,0.4,0.4,0.7,0.4c0.1,0,0.2,0,0.3-0.1
		c0.4-0.2,0.5-0.6,0.4-1C27.4,19.8,27.1,19.7,26.8,19.7"/>
	<path d="M28,15.4c0.1,0.3,0.4,0.4,0.7,0.4c0.1,0,0.2,0,0.3-0.1c0.4-0.2,0.5-0.6,0.4-1c-0.1-0.3-0.4-0.4-0.7-0.4
		c-0.1,0-0.2,0-0.3,0.1c-0.2,0.1-0.3,0.2-0.4,0.4C27.9,15,27.9,15.2,28,15.4"/>
	<path d="M26.9,23.2c0.1,0,0.2,0,0.3-0.1c0.2-0.1,0.3-0.2,0.4-0.4c0.1-0.2,0.1-0.4,0-0.6c-0.1-0.3-0.4-0.4-0.7-0.4
		c-0.1,0-0.2,0-0.3,0.1c-0.2,0.1-0.3,0.2-0.4,0.4c-0.1,0.2-0.1,0.4,0,0.6C26.3,23.1,26.6,23.2,26.9,23.2"/>
	<path d="M26.9,16.9c0.1,0,0.2,0,0.3-0.1c0.2-0.1,0.3-0.2,0.4-0.4c0.1-0.2,0.1-0.4,0-0.6c-0.1-0.3-0.4-0.5-0.7-0.5
		c-0.1,0-0.2,0-0.3,0.1c-0.2,0.1-0.3,0.2-0.4,0.4c-0.1,0.2-0.1,0.4,0,0.6C26.3,16.7,26.6,16.9,26.9,16.9"/>
	<path d="M28.7,18c0.1,0,0.2,0,0.3-0.1c0.2-0.1,0.3-0.2,0.4-0.4c0.1-0.2,0.1-0.4,0-0.6c-0.1-0.3-0.4-0.5-0.7-0.5
		c-0.1,0-0.2,0-0.3,0.1c-0.2,0.1-0.3,0.2-0.4,0.4c-0.1,0.2-0.1,0.4,0,0.6C28.1,17.8,28.4,18,28.7,18"/>
	<path d="M28,19.6c0.1,0.3,0.4,0.4,0.7,0.4c0.1,0,0.2,0,0.3-0.1c0.2-0.1,0.3-0.2,0.4-0.4c0.1-0.2,0.1-0.4,0-0.6
		c-0.1-0.3-0.4-0.4-0.7-0.4c0,0,0,0,0,0c0,0,0,0,0,0c-0.1,0-0.2,0-0.3,0.1c-0.2,0.1-0.3,0.2-0.4,0.4C27.9,19.2,27.9,19.4,28,19.6"/>
	<path d="M32,40.3c0.1,0,0.2,0.1,0.3,0.1c0.3,0,0.6-0.2,0.7-0.5c0.2-0.4,0-0.8-0.4-1c-0.1,0-0.2-0.1-0.3-0.1c-0.3,0-0.6,0.2-0.7,0.5
		c-0.1,0.2-0.1,0.4,0,0.6C31.7,40.1,31.8,40.2,32,40.3"/>
	<path d="M33.5,38.8c0.1,0,0.2,0.1,0.3,0.1c0.3,0,0.6-0.2,0.7-0.5c0.2-0.4,0-0.8-0.4-1c-0.1,0-0.2-0.1-0.3-0.1
		c-0.3,0-0.6,0.2-0.7,0.5c-0.1,0.2-0.1,0.4,0,0.6C33.2,38.6,33.3,38.7,33.5,38.8"/>
	<path d="M34.1,40.8c0.1,0,0.2,0.1,0.3,0.1c0.3,0,0.6-0.2,0.7-0.5c0.1-0.2,0.1-0.4,0-0.6c-0.1-0.2-0.2-0.3-0.4-0.4
		c-0.1,0-0.2-0.1-0.3-0.1c-0.3,0-0.6,0.2-0.7,0.5c-0.1,0.2-0.1,0.4,0,0.6C33.7,40.6,33.9,40.8,34.1,40.8"/>
	<path d="M33.9,36.3c0.1-0.2,0.1-0.4,0-0.6c-0.1-0.2-0.2-0.3-0.4-0.4c-0.1,0-0.2-0.1-0.3-0.1c-0.3,0-0.6,0.2-0.7,0.5
		c-0.1,0.2-0.1,0.4,0,0.6c0.1,0.2,0.2,0.3,0.4,0.4c0.1,0,0.2,0.1,0.3,0.1C33.5,36.8,33.8,36.6,33.9,36.3"/>
	<path d="M37.5,35.4c0.2-0.4,0-0.8-0.4-1c-0.1,0-0.2-0.1-0.3-0.1c-0.3,0-0.6,0.2-0.7,0.5c-0.1,0.2-0.1,0.4,0,0.6
		c0,0.1,0.1,0.2,0.1,0.2c0,0,0,0,0,0c0.1,0.1,0.1,0.1,0.2,0.2c0.1,0,0.2,0.1,0.3,0.1C37.1,35.9,37.3,35.7,37.5,35.4"/>
	<path d="M36,36.9c0.1-0.2,0.1-0.4,0-0.6c0-0.1-0.1-0.2-0.1-0.2c0,0,0,0,0,0c-0.1-0.1-0.1-0.1-0.2-0.2c-0.1,0-0.2-0.1-0.3-0.1
		c-0.3,0-0.6,0.2-0.7,0.5c-0.1,0.2-0.1,0.4,0,0.6c0.1,0.2,0.2,0.3,0.4,0.4c0.1,0,0.2,0.1,0.3,0.1C35.6,37.4,35.8,37.2,36,36.9"/>
	<path d="M37.6,36.5c-0.1,0-0.2-0.1-0.3-0.1c-0.3,0-0.6,0.2-0.7,0.5c-0.1,0.3,0,0.6,0.2,0.8c0,0,0,0,0,0c0.1,0.1,0.1,0.1,0.2,0.2
		c0.1,0,0.2,0.1,0.3,0.1c0.3,0,0.6-0.2,0.7-0.5c0.1-0.2,0.1-0.4,0-0.6C37.9,36.7,37.8,36.6,37.6,36.5"/>
	<path d="M35.5,39.3c0.1,0,0.2,0.1,0.3,0.1c0.3,0,0.6-0.2,0.7-0.5c0.1-0.3,0-0.6-0.2-0.8c0,0,0,0,0,0c-0.1-0.1-0.1-0.1-0.2-0.2
		c-0.1,0-0.2-0.1-0.3-0.1c-0.3,0-0.6,0.2-0.7,0.5c-0.1,0.2-0.1,0.4,0,0.6C35.2,39.1,35.4,39.3,35.5,39.3"/>
	<path d="M37.2,46.8h-4.5c-1.4,0-2.6-1.1-2.6-2.5v-0.5l1.9-1.9c0.2-0.2,0.2-0.5,0-0.7c-0.2-0.2-0.5-0.2-0.7,0l-2,2c0,0,0,0,0,0
		c-0.1,0.1-0.1,0.2-0.1,0.3v0.7c0,1.9,1.6,3.5,3.5,3.5h4.5c0.3,0,0.5-0.2,0.5-0.5C37.7,47.1,37.4,46.8,37.2,46.8"/>
	<path d="M39,46.8c-0.3,0-0.6,0.2-0.6,0.6c0,0.3,0.2,0.6,0.6,0.6c0.3,0,0.6-0.2,0.6-0.6C39.6,47,39.3,46.8,39,46.8"/>
	<path d="M40.9,46.8c-0.3,0-0.6,0.2-0.6,0.6c0,0.3,0.2,0.6,0.6,0.6c0.3,0,0.6-0.2,0.6-0.6C41.5,47,41.3,46.8,40.9,46.8"/>
	<path d="M18.4,46.8c-0.3,0-0.6,0.2-0.6,0.6c0,0.3,0.2,0.6,0.6,0.6c0.3,0,0.6-0.3,0.6-0.6C18.9,47,18.7,46.8,18.4,46.8"/>
	<path d="M16.5,46.8c-0.3,0-0.6,0.2-0.6,0.6c0,0.3,0.2,0.6,0.6,0.6c0.3,0,0.6-0.3,0.6-0.6C17,47,16.8,46.8,16.5,46.8"/>
</g>
</svg>
