<svg id="Graphics" xmlns="http://www.w3.org/2000/svg" viewBox="0 0 500 500"><defs><style>.cls-1{fill:#564677;}.cls-2{fill:#eef3f3;}.cls-3{fill:#ab8eb8;}.cls-4{fill:#bccfd1;}.cls-5{fill:#6a8f97;}.cls-6{fill:#bbced0;}.cls-7,.cls-9{fill:#1e4a54;}.cls-8{fill:#d8e3e2;}.cls-9{opacity:0.4;}.cls-10{fill:#fff;opacity:0.5;}</style></defs><title>act_consumption_10_sport_rep</title><path class="cls-1" d="M250.33,14a236.07,236.07,0,0,1,91.86,453.46A236.06,236.06,0,0,1,158.47,32.54,234.51,234.51,0,0,1,250.33,14m0-14C112.26,0,.33,111.93.33,250s111.93,250,250,250,250-111.93,250-250S388.4,0,250.33,0h0Z" transform="translate(-0.33)"/><path class="cls-2" d="M250.33,479A229,229,0,0,1,88.4,88.08,229,229,0,1,1,412.25,411.92,227.5,227.5,0,0,1,250.33,479Z" transform="translate(-0.33)"/><path class="cls-3" d="M250.33,28a222.06,222.06,0,0,1,86.4,426.56A222.06,222.06,0,0,1,163.92,45.44,220.58,220.58,0,0,1,250.33,28m0-14c-130.33,0-236,105.67-236,236S120,486,250.33,486s236-105.67,236-236S380.66,14,250.33,14h0Z" transform="translate(-0.33)"/><path class="cls-4" d="M412.13,256.09A5.14,5.14,0,0,1,413,261a6.32,6.32,0,0,1-4,4.32l-19.4,11.34a6.39,6.39,0,0,1-5.2,1,6.89,6.89,0,0,1-4.21-3.45l-44.89-76.79a41,41,0,0,1-12.66-.3,43.85,43.85,0,0,1-11.87-4,45.76,45.76,0,0,1-10.49-7.28,45.06,45.06,0,0,1-8.45-10.59A45.63,45.63,0,0,1,286.65,162a46.6,46.6,0,0,1-1-13.75,43.7,43.7,0,0,1,3.12-13.18,39.89,39.89,0,0,1,7.33-11.65L318,160l25.33-14.81-21.29-36.42a46.55,46.55,0,0,1,26.58,3.45,47.87,47.87,0,0,1,11.63,7.41,42.66,42.66,0,0,1,9,10.92,45.26,45.26,0,0,1,5.09,12.56,45.83,45.83,0,0,1,1.17,12.79,42.74,42.74,0,0,1-2.48,12.34,44.39,44.39,0,0,1-5.83,11Z" transform="translate(-0.33)"/><path class="cls-5" d="M394.62,247.33a5.14,5.14,0,0,1,.89,4.92,6.32,6.32,0,0,1-4,4.32l-19.4,11.34a6.39,6.39,0,0,1-5.2,1,6.89,6.89,0,0,1-4.21-3.45l-44.89-76.79a41,41,0,0,1-12.66-.3,43.85,43.85,0,0,1-11.87-4,45.76,45.76,0,0,1-10.49-7.28,45.06,45.06,0,0,1-8.45-10.59,45.63,45.63,0,0,1-5.23-13.27,46.6,46.6,0,0,1-1-13.75,43.7,43.7,0,0,1,3.12-13.18,39.89,39.89,0,0,1,7.33-11.65l21.91,36.58,25.33-14.81L304.55,100a46.55,46.55,0,0,1,26.58,3.45,47.87,47.87,0,0,1,11.63,7.41,42.66,42.66,0,0,1,9,10.92,45.26,45.26,0,0,1,5.09,12.56A45.83,45.83,0,0,1,358,147.16a42.74,42.74,0,0,1-2.48,12.34,44.39,44.39,0,0,1-5.83,11Z" transform="translate(-0.33)"/><path class="cls-6" d="M242.69,415.6c66.12,0,119.73-14.29,119.73-31.91s-53.61-31.9-119.73-31.9S123,366.08,123,383.69s53.61,31.91,119.74,31.91" transform="translate(-0.33)"/><path class="cls-7" d="M209.6,394.18C144.47,393.9,92,343.29,93.19,277.06c0.6-32,13-59.4,36.56-81.26,22.63-21,49.8-31.28,80.6-30.5,32,0.81,59.38,13.14,81.21,36.68,21.07,22.72,31.26,50,30.38,80.87-0.91,31.75-13.17,58.89-36.46,80.62A112.12,112.12,0,0,1,209.6,394.18Zm79.63-56.27c12.65-17.29,19.11-36.29,19.14-57.94l-7,7.42-1.3-1.47-13.12-15c-3.24-3.71-6.53-7.38-9.69-11.17a6.65,6.65,0,0,1-1.65-3.42,35.65,35.65,0,0,1,.42-6.06c0.61-6.21,1.27-12.42,1.85-18.63,0.41-4.35.72-8.71,1.09-13.36,1.69,0.37,3.25.74,4.81,1s3.17,0.54,5.11.86C276,203,259.68,191,239.34,184.45l4.5,8.38-1.81.75c-9.2,3.87-18.58,7.38-27.54,11.74-5,2.41-8.92,2.36-13.88,0-9.52-4.56-19.44-8.31-29.36-12.46l4.62-8.53c-12.1.87-41,22-49.38,35.83l9.53-1.8c0.58,5.71,1.17,11.07,1.67,16.43q1,10.73,1.87,21.46a3,3,0,0,1-.57,1.92c-1.7,2.14-3.48,4.21-5.29,6.26-2.74,3.12-5.55,6.19-8.27,9.33-3.89,4.49-7.72,9-11.69,13.67L107,280.23c-1.55,16.5,8.73,48.25,18.85,57.92l1.41-9.48,7.18,1.63c9.43,2.14,18.85,4.3,28.29,6.39a5.91,5.91,0,0,1,4.22,2.84c6.22,10.53,12.5,21,18.9,31.76l-9.36,4.44a103.45,103.45,0,0,0,62.11,0l-9.34-4.47c5.87-9.76,11.51-19.21,17.22-28.6,1.51-2.47,2.41-5.29,6.08-6,11.73-2.4,23.38-5.19,35.38-7.91Z" transform="translate(-0.33)"/><path class="cls-8" d="M289.22,337.92l-1.29-9.22c-12,2.71-23.65,5.51-35.38,7.91-3.67.75-4.57,3.56-6.08,6-5.72,9.4-11.35,18.84-17.22,28.6l9.34,4.47a103.45,103.45,0,0,1-62.11,0l9.36-4.44c-6.4-10.74-12.69-21.23-18.9-31.76a5.91,5.91,0,0,0-4.22-2.84c-9.44-2.09-18.86-4.25-28.29-6.39l-7.18-1.63-1.41,9.48c-10.12-9.67-20.4-41.42-18.85-57.92l6.75,7.18c4-4.65,7.8-9.19,11.69-13.67,2.72-3.14,5.53-6.2,8.27-9.33,1.8-2.05,3.58-4.13,5.29-6.26a3,3,0,0,0,.57-1.92q-0.87-10.74-1.87-21.46c-0.5-5.36-1.09-10.72-1.67-16.43l-9.53,1.8c8.36-13.85,37.28-35,49.38-35.83l-4.62,8.53c9.92,4.16,19.84,7.9,29.36,12.46,5,2.37,8.92,2.42,13.88,0,9-4.35,18.34-7.87,27.54-11.74l1.81-.75-4.5-8.38C259.68,191,276,203,288.9,220.16c-1.94-.32-3.53-0.56-5.11-0.86s-3.12-.67-4.81-1c-0.38,4.65-.69,9-1.09,13.36-0.58,6.21-1.24,12.42-1.85,18.63a35.65,35.65,0,0,0-.42,6.06,6.65,6.65,0,0,0,1.65,3.42c3.16,3.78,6.45,7.46,9.69,11.17l13.12,15,1.3,1.47,7-7.42C308.33,301.63,301.87,320.63,289.22,337.92ZM207.56,239.2c-13.84,10-27.61,20-41.32,30.07a2.59,2.59,0,0,0-.69,2.29c5.07,15.68,10.25,31.31,15.3,47a1.84,1.84,0,0,0,2.17,1.52q24.59,0,49.18,0a1.85,1.85,0,0,0,2.1-1.62c1.41-4.66,3-9.25,4.56-13.89,3.54-10.89,7-21.79,10.61-32.66,0.43-1.31.49-2-.83-2.87-4.92-3.4-9.67-7-14.51-10.54Q220.87,248.84,207.56,239.2Z" transform="translate(-0.33)"/><path class="cls-7" d="M207.56,239.2q13.32,9.66,26.58,19.29c4.84,3.52,9.59,7.14,14.51,10.54,1.31,0.91,1.26,1.56.83,2.87-3.59,10.87-7.07,21.78-10.61,32.66-1.51,4.63-3.14,9.23-4.56,13.89a1.85,1.85,0,0,1-2.1,1.62q-24.59,0-49.18,0a1.84,1.84,0,0,1-2.17-1.52c-5.05-15.68-10.24-31.32-15.3-47a2.59,2.59,0,0,1,.69-2.29C180,259.22,193.72,249.25,207.56,239.2Z" transform="translate(-0.33)"/><path class="cls-9" d="M303.84,218.19A160.23,160.23,0,0,1,143.77,371.64c-1.45,0-2.88-.07-4.32-0.11A114.23,114.23,0,0,0,303.84,218.19Z" transform="translate(-0.33)"/><ellipse class="cls-10" cx="203.5" cy="206.81" rx="35.2" ry="22.36" transform="translate(-18.37 19.46) rotate(-5.24)"/><ellipse class="cls-10" cx="146" cy="232.01" rx="16.6" ry="10.54" transform="translate(-112.3 139.32) rotate(-38.06)"/></svg>