<?xml version="1.0" encoding="utf-8"?>
<!-- Generator: Adobe Illustrator 15.0.0, SVG Export Plug-In . SVG Version: 6.00 Build 0)  -->
<!DOCTYPE svg PUBLIC "-//W3C//DTD SVG 1.1//EN" "http://www.w3.org/Graphics/SVG/1.1/DTD/svg11.dtd">
<svg version="1.1" id="Graphics" xmlns="http://www.w3.org/2000/svg" xmlns:xlink="http://www.w3.org/1999/xlink" x="0px" y="0px"
	 width="500px" height="500px" viewBox="0 0 500 500" enable-background="new 0 0 500 500" xml:space="preserve">
<g>
	<g>
		<g>
			<path fill="#1E4A54" d="M250,14c31.866,0,62.771,6.238,91.857,18.541c28.101,11.886,53.341,28.904,75.02,50.583
				c21.678,21.679,38.697,46.919,50.583,75.02C479.762,187.229,486,218.134,486,250s-6.238,62.771-18.541,91.857
				c-11.886,28.101-28.904,53.341-50.583,75.02c-21.679,21.678-46.919,38.697-75.02,50.583C312.771,479.762,281.866,486,250,486
				s-62.771-6.238-91.857-18.541c-28.101-11.886-53.341-28.904-75.02-50.583c-21.678-21.679-38.697-46.919-50.583-75.02
				C20.238,312.771,14,281.866,14,250s6.238-62.771,18.541-91.857c11.886-28.101,28.904-53.341,50.583-75.02
				c21.679-21.678,46.919-38.697,75.02-50.583C187.229,20.238,218.134,14,250,14 M250,0C111.93,0,0,111.93,0,250s111.93,250,250,250
				s250-111.93,250-250S388.07,0,250,0L250,0z"/>
		</g>
		<g>
			<path fill="#EEF3F3" d="M250,479c-61.165,0-118.67-23.821-161.924-67.075C44.821,368.67,21,311.165,21,250
				c0-61.164,23.821-118.669,67.076-161.924C131.33,44.821,188.836,21,250,21c61.165,0,118.67,23.821,161.925,67.076
				C455.179,131.33,479,188.836,479,250c0,61.165-23.821,118.67-67.075,161.925C368.67,455.179,311.165,479,250,479z"/>
			<path fill="#91D2E4" d="M250,28c29.974,0,59.044,5.868,86.405,17.441c26.434,11.181,50.177,27.191,70.57,47.584
				c20.393,20.393,36.403,44.137,47.584,70.57C466.132,190.956,472,220.026,472,250c0,29.974-5.868,59.045-17.441,86.405
				c-11.181,26.434-27.191,50.177-47.584,70.57c-20.394,20.393-44.137,36.403-70.57,47.584C309.045,466.132,279.974,472,250,472
				c-29.974,0-59.044-5.868-86.404-17.441c-26.434-11.181-50.177-27.191-70.57-47.584c-20.394-20.394-36.403-44.137-47.584-70.57
				C33.868,309.045,28,279.974,28,250c0-29.974,5.868-59.044,17.441-86.404c11.182-26.434,27.191-50.177,47.584-70.57
				c20.394-20.394,44.137-36.403,70.57-47.584C190.956,33.868,220.026,28,250,28 M250,14C119.669,14,14,119.67,14,250
				c0,130.332,105.669,236,236,236c130.332,0,236-105.668,236-236C486,119.67,380.332,14,250,14L250,14z"/>
		</g>
	</g>
	<g>
		<path fill="#366258" d="M341.348,230.977H159.185c-7.026,0-12.013-5.698-11.055-12.676l9.312-68.408
			c0.957-6.962,7.51-12.661,14.517-12.661h156.597c7.031,0,13.574,5.699,14.512,12.661l9.336,68.408
			C353.35,225.278,348.379,230.977,341.348,230.977"/>
		<path fill="#366258" d="M330.156,312.993c-9.707,0-17.568-7.857-17.568-17.549c0-9.717,7.861-17.588,17.568-17.588
			s17.588,7.871,17.588,17.588C347.744,305.136,339.863,312.993,330.156,312.993"/>
		<path fill="#366258" d="M170.347,312.993c-9.683,0-17.549-7.857-17.549-17.549c0-9.717,7.866-17.588,17.549-17.588
			c9.736,0,17.593,7.871,17.593,17.588C187.939,305.136,180.083,312.993,170.347,312.993"/>
		<rect x="207.114" y="113.39" fill="#366258" width="86.284" height="12.772"/>
		<path fill="#1E4A54" d="M392.48,137.231h-25.575c-1.612,0-3.155,0.21-4.552,0.572l-0.107-0.689
			c-0.956-6.968-5.723-16.802-10.587-21.885c0,0-17.772-18.472-101.396-18.472c-83.627,0-101.42,18.472-101.42,18.472
			c-4.845,5.083-9.6,14.917-10.567,21.885l-0.097,0.689c-1.426-0.362-2.944-0.572-4.571-0.572h-25.585
			c-7.012,0-12.749,5.752-12.749,12.788v31.958c0,7.027,5.259,12.779,11.709,12.779c6.44,0,11.732-5.752,11.732-12.779v-15.454
			c0-7.036,5.737-12.778,12.765-12.778h2.128c0.846,0,1.637-0.063,2.433-0.176l-7.08,51.934c-0.953,6.978-1.733,14.115-1.733,15.884
			v15.977v5.742v25.571v68.091c0,7.041,5.737,12.778,12.778,12.778h12.793v22.904c0,7.042,5.712,12.794,12.783,12.794h21.304
			c7.021,0,12.773-5.752,12.773-12.794v-22.904h101.201v22.904c0,7.042,5.752,12.794,12.783,12.794h21.309
			c7.041,0,12.793-5.752,12.793-12.794v-22.904h12.764c7.05,0,12.793-5.737,12.793-12.778v-68.091v-25.571v-5.742v-15.977
			c0-1.769-0.762-8.906-1.719-15.884l-7.08-51.934c0.791,0.112,1.591,0.176,2.403,0.176h2.138c7.03,0,12.783,5.742,12.783,12.778
			v15.454c0,7.027,5.283,12.779,11.719,12.779s11.729-5.752,11.729-12.779V150.02C405.273,142.983,399.51,137.231,392.48,137.231"/>
		<path fill="#C2E0DE" d="M341.622,230.962H159.458c-7.026,0-12.002-5.684-11.04-12.661l9.312-68.408
			c0.957-6.962,7.48-12.661,14.521-12.661h156.577c7.051,0,13.574,5.699,14.53,12.661l9.317,68.408
			C353.633,225.278,348.652,230.962,341.622,230.962"/>
		<path fill="#D8ECEE" d="M157.745,150.063l-9.331,69.413c-0.942,7.248,4.019,11.514,11.069,11.514h39.561l93.739-93.759H172.271
			C165.227,137.231,158.702,142.831,157.745,150.063"/>
		<path fill="#407C57" d="M330.448,313.008c-9.715,0-17.578-7.886-17.578-17.588c0-9.692,7.863-17.563,17.578-17.563
			c9.709,0,17.578,7.871,17.578,17.563C348.026,305.122,340.157,313.008,330.448,313.008"/>
		<path fill="#407C57" d="M170.649,313.008c-9.707,0-17.578-7.886-17.578-17.588c0-9.692,7.871-17.563,17.578-17.563
			c9.711,0,17.593,7.871,17.593,17.563C188.242,305.122,180.36,313.008,170.649,313.008"/>
		<polygon fill="#00727B" points="121.333,253.892 121.333,268.677 121.333,331.255 379.199,331.255 379.199,268.677 
			379.199,253.892 		"/>
		<rect x="207.393" y="113.374" fill="#F2C579" width="86.279" height="12.803"/>
		<path fill="#9FD6E5" d="M170.649,313.008c-9.707,0-17.563-7.872-17.563-17.578c0-9.697,7.856-17.573,17.563-17.573
			c9.711,0,17.568,7.876,17.568,17.573C188.218,305.136,180.36,313.008,170.649,313.008"/>
		<path fill="#9FD6E5" d="M330.448,313.008c-9.715,0-17.578-7.872-17.578-17.578c0-9.697,7.863-17.573,17.578-17.573
			c9.709,0,17.578,7.876,17.578,17.573C348.026,305.136,340.157,313.008,330.448,313.008"/>
		<path fill="#F8FBFB" d="M174.277,295.43c-3.561,0-6.445-2.886-6.445-6.445s2.885-6.446,6.445-6.446
			c3.564,0,6.445,2.887,6.445,6.446S177.842,295.43,174.277,295.43"/>
		<path fill="#F8FBFB" d="M334.063,295.43c-3.534,0-6.436-2.886-6.436-6.445s2.901-6.446,6.436-6.446
			c3.555,0,6.455,2.887,6.455,6.446S337.617,295.43,334.063,295.43"/>
		<path opacity="0.2" d="M145.547,405.239c0,5.527,47.002,10.004,105.038,10.004c57.95,0,104.962-4.477,104.962-10.004
			c0-5.518-47.012-9.995-104.962-9.995C192.549,395.244,145.547,399.722,145.547,405.239"/>
	</g>
</g>
</svg>
