<svg id="Graphics" xmlns="http://www.w3.org/2000/svg" viewBox="0 0 500 500"><defs><style>.cls-1{fill:#564677;}.cls-2{fill:#eef3f3;}.cls-3{fill:#ab8eb8;}.cls-4,.cls-6{fill:#bccfd1;}.cls-5{fill:#6a8f97;}.cls-10,.cls-6{opacity:0.5;}.cls-7{fill:#12ad9c;}.cls-8{fill:#1aa9d2;}.cls-9{fill:#00727b;}.cls-10{fill:#1e4a54;}</style></defs><title>act_consumption_06_el_rep</title><path class="cls-1" d="M250,14a236.07,236.07,0,0,1,91.86,453.46A236.06,236.06,0,0,1,158.14,32.54,234.51,234.51,0,0,1,250,14m0-14C111.93,0,0,111.93,0,250S111.93,500,250,500,500,388.07,500,250,388.07,0,250,0h0Z"/><path class="cls-2" d="M250,479A229,229,0,0,1,88.08,88.08,229,229,0,1,1,411.92,411.92,227.5,227.5,0,0,1,250,479Z"/><path class="cls-3" d="M250,28a222.06,222.06,0,0,1,86.4,426.56A222.06,222.06,0,0,1,163.6,45.44,220.58,220.58,0,0,1,250,28m0-14C119.67,14,14,119.67,14,250S119.67,486,250,486,486,380.33,486,250,380.33,14,250,14h0Z"/><path class="cls-4" d="M411.81,256.09a5.14,5.14,0,0,1,.89,4.92,6.32,6.32,0,0,1-4,4.32l-19.4,11.34a6.39,6.39,0,0,1-5.2,1,6.89,6.89,0,0,1-4.21-3.45L335,197.41a41,41,0,0,1-12.66-.3,43.85,43.85,0,0,1-11.87-4A45.76,45.76,0,0,1,300,185.88a45.06,45.06,0,0,1-8.45-10.59A45.63,45.63,0,0,1,286.32,162a46.6,46.6,0,0,1-1-13.75,43.7,43.7,0,0,1,3.12-13.18,39.89,39.89,0,0,1,7.33-11.65L317.68,160,343,145.21l-21.29-36.42a46.55,46.55,0,0,1,26.58,3.45,47.87,47.87,0,0,1,11.63,7.41,42.66,42.66,0,0,1,9,10.92,45.26,45.26,0,0,1,5.09,12.56,45.83,45.83,0,0,1,1.17,12.79,42.74,42.74,0,0,1-2.48,12.34,44.39,44.39,0,0,1-5.83,11Z"/><path class="cls-5" d="M394.3,247.33a5.14,5.14,0,0,1,.89,4.92,6.32,6.32,0,0,1-4,4.32l-19.4,11.34a6.39,6.39,0,0,1-5.2,1,6.89,6.89,0,0,1-4.21-3.45l-44.89-76.79a41,41,0,0,1-12.66-.3,43.85,43.85,0,0,1-11.87-4,45.76,45.76,0,0,1-10.49-7.28A45.06,45.06,0,0,1,274,166.53a45.63,45.63,0,0,1-5.23-13.27,46.6,46.6,0,0,1-1-13.75,43.7,43.7,0,0,1,3.12-13.18,39.89,39.89,0,0,1,7.33-11.65l21.91,36.58,25.33-14.81L304.22,100a46.55,46.55,0,0,1,26.58,3.45,47.87,47.87,0,0,1,11.63,7.41,42.66,42.66,0,0,1,9,10.92,45.26,45.26,0,0,1,5.09,12.56,45.83,45.83,0,0,1,1.17,12.79,42.74,42.74,0,0,1-2.48,12.34,44.39,44.39,0,0,1-5.83,11Z"/><path class="cls-4" d="M135.06,265.61v-71a9.52,9.52,0,0,0-19,0v71h19Z"/><path class="cls-4" d="M199.44,265.61v-71a9.52,9.52,0,0,0-19,0v71h19Z"/><polygon class="cls-4" points="89.17 256.14 89.17 271.9 103.76 271.9 106.35 290.03 112.78 341.42 194.17 341.42 208.23 271.9 226.29 271.9 226.29 256.14 89.17 256.14"/><polygon class="cls-6" points="154.26 341.42 194.17 341.42 208.23 271.9 226.29 271.9 226.29 256.14 154.26 256.14 154.26 341.42"/><path class="cls-4" d="M286.7,292.24c-22.82,9.22-43.35,33.78-59.37,71-10.07,23.41-27.24,30.44-39.72,27s-25.44-18.76-21.39-51l-20.59-2.58c-5.7,45.47,16.12,68.09,36.54,73.65,21.19,5.73,49.24-4,64.23-38.87,13.61-31.65,30.69-53,48.08-60C325.4,299,352,306.6,363.92,331.35c12.81,26.61,5.54,66-26.22,103.43a204.65,204.65,0,0,0,41.91-26.6c14.2-31.43,14.47-62,3-85.84C366,287.86,327.47,275.77,286.7,292.24Z"/><path class="cls-7" d="M276.7,282.24c-22.82,9.22-43.35,33.78-59.37,71-10.07,23.41-27.24,30.44-39.72,27s-25.44-18.76-21.39-51l-20.59-2.58c-5.7,45.47,16.12,68.09,36.54,73.65,21.19,5.73,49.24-4,64.23-38.87,13.61-31.65,30.69-53,48.08-60C315.4,289,342,296.6,353.92,321.35c15.35,31.9,1.86,82.08-48.09,125.44a203.3,203.3,0,0,0,47-20c29.77-40.9,34.74-83.44,19.82-114.46C356,277.86,317.47,265.77,276.7,282.24Z"/><path class="cls-8" d="M125.06,255.61v-71a9.52,9.52,0,0,0-19,0v71h19Z"/><path class="cls-8" d="M189.44,255.61v-71a9.52,9.52,0,0,0-19,0v71h19Z"/><polygon class="cls-9" points="79.17 246.14 79.17 261.9 93.76 261.9 96.35 280.03 102.78 331.42 184.17 331.42 198.23 261.9 216.29 261.9 216.29 246.14 79.17 246.14"/><polygon class="cls-10" points="144.26 331.42 184.17 331.42 198.23 261.9 216.29 261.9 216.29 246.14 144.26 246.14 144.26 331.42"/></svg>
