<?xml version="1.0" encoding="utf-8"?>
<!-- Generator: Adobe Illustrator 20.1.0, SVG Export Plug-In . SVG Version: 6.00 Build 0)  -->
<svg version="1.1" id="Layer_1" xmlns="http://www.w3.org/2000/svg" xmlns:xlink="http://www.w3.org/1999/xlink" x="0px" y="0px"
	 viewBox="0 0 361.1 361.1" style="enable-background:new 0 0 361.1 361.1;" xml:space="preserve">
<style type="text/css">
	.st0{fill:#01737B;}
	.st1{fill:#CFD8DC;}
	.st2{fill:#5E35B1;}
	.st3{fill:#FFFDE7;}
	.st4{fill:none;stroke:#90A4AE;stroke-width:5.6693;stroke-miterlimit:10;}
	.st5{fill:#FDF39F;}
	.st6{fill:#ECEFF1;}
	.st7{fill:none;stroke:#B39DDB;stroke-width:5.6693;stroke-miterlimit:10;}
</style>
<path class="st0" d="M276.4,40.8c-8.7-6.1-66.5-45.1-138-25.2C72.3,33.9,21.8,93.4,13.5,162.4c-7.3,61.5,19.3,121.4,70.6,157.3
	L276.4,40.8z"/>
<path class="st1" d="M276.5,38.8c9,6.1,68,47.1,74.9,122.4c6.5,69.5-32.2,139.2-95.5,172.1c-56.5,29.3-123.8,25.6-177.1-10.1
	L276.5,38.8z"/>
<g>
	<g>
		<path class="st2" d="M180.8,358.4c-15.6,0-31.2-2.1-46.7-6.2c-45.8-12.4-84.1-41.9-107.7-83S-3.4,180,9,134.2l2.4,0.7L9,134.2
			C21.4,88.4,50.9,50.1,92,26.5C133.2,2.9,181.1-3.3,226.9,9.1C321.5,34.6,377.7,132.4,352.1,227c-12.4,45.8-41.9,84.1-83,107.7
			C241.7,350.3,211.5,358.3,180.8,358.4z M180.3,7.8c-29.8,0-59.2,7.8-85.7,23c-40,23-68.7,60.1-80.7,104.7l0,0
			c-12,44.5-6,91.1,16.9,131.1c23,40,60.1,68.7,104.7,80.7c44.5,12,91.1,6,131.1-16.9c40-23,68.7-60.1,80.7-104.7
			c24.9-91.9-29.7-186.9-121.6-211.8C210.6,9.8,195.4,7.8,180.3,7.8z"/>
	</g>
	<g>
		<path class="st2" d="M180.5,361.1c-15.8,0-31.7-2.1-47.1-6.3C37.3,328.9-19.7,229.5,6.3,133.4C18.9,87,48.8,48.1,90.7,24.1
			s90.5-30.4,137-17.8s85.4,42.6,109.4,84.4s30.3,90.5,17.7,137C333.6,306.3,261.9,361.1,180.5,361.1z M180.4,5
			c-30.3,0-60.2,7.9-87.2,23.4C52.5,51.8,23.3,89.6,11.1,134.8c-25.3,93.4,30.2,190,123.6,215.3c15,4.1,30.4,6.1,45.8,6.1
			c79.1,0,148.8-53.3,169.5-129.7c12.2-45.3,6.1-92.6-17.2-133.2c-23.3-40.7-61.1-69.8-106.4-82C211.2,7,195.7,5,180.4,5z
			 M180.5,355.5L180.5,355.5c-15.4,0-30.7-2-45.6-6.1c-92.3-25-147.3-119.7-123.8-212l-0.3-0.1l1.3-4.8l0.3,0.1
			C38.6,40.9,133.9-13.2,226.2,11.8c45.1,12.2,82.7,41.2,106,81.7c23.3,40.5,29.3,87.6,17.2,132.7
			C328.8,302.3,259.3,355.5,180.5,355.5z M16.6,136.3c-24.4,90.4,29.2,183.8,119.6,208.3c14.5,3.9,29.4,5.9,44.3,5.9
			c76.6,0,144-51.6,164-125.5c11.8-43.8,5.9-89.6-16.7-128.9s-59.2-67.5-103-79.4C134.5-7.8,41,45.8,16.6,136.3L16.6,136.3z"/>
	</g>
</g>
<path class="st3" d="M135.9,156.2c-13.4,20.8-27.3,41.8-41.6,63c-15,22.1-29.9,43.8-44.8,64.8c5.3,6.5,13.2,15.2,23.9,24.2
	c0,0,0,0,0,0c0,0,6.8,5.6,13.4,10.3c48,34.3,101.8,33,101.8,33c5.5-0.1,46.8-1.6,81.8-25.3c20.8-14,41.1-36.9,44.1-40.3
	c3.4-3.8,6.1-7.1,7.9-9.4c-17.3-20.3-34.7-41-52.1-62.1c-16.1-19.5-32-38.9-47.5-58.1H135.9z"/>
<line class="st4" x1="179.4" y1="11.3" x2="179.4" y2="121.8"/>
<g>
	<path class="st5" d="M151.5,165.5c0,0-0.1,0.2-0.2,0.4c-0.2,0.2-0.4,0.6-0.8,1c-0.7,0.8-1.7,2-3,3.3c-1.3,1.3-2.8,2.8-4.6,4.3
		c-0.9,0.7-1.8,1.5-2.7,2.3c-0.9,0.7-1.9,1.5-2.8,2.2c-1,0.7-2,1.5-2.9,2.1c-1,0.7-2,1.3-2.9,2c-2,1.2-3.7,2.3-5.4,3.2s-3,1.5-4.1,2
		c-1,0.4-1.6,0.7-1.6,0.7s0.3-0.5,1.1-1.4c0.7-0.8,1.7-2,3-3.3s2.8-2.8,4.6-4.3c0.9-0.7,1.8-1.5,2.7-2.3s1.9-1.5,2.8-2.2
		c1-0.7,2-1.5,2.9-2.1c1-0.7,2-1.3,2.9-2c2-1.2,3.7-2.3,5.4-3.2c1.7-0.9,3-1.5,4.1-2c0.5-0.2,0.9-0.4,1.2-0.5
		C151.3,165.5,151.5,165.5,151.5,165.5z"/>
</g>
<g>
	<path class="st5" d="M159.6,177.2c0,0,0,0.2-0.1,0.5s-0.1,0.7-0.2,1.3c-0.2,1.1-0.5,2.7-1.1,4.6c-0.5,1.9-1.1,4-2,6.3
		c-0.4,1.1-0.8,2.3-1.3,3.5c-0.5,1.1-1,2.4-1.5,3.5s-1.1,2.4-1.5,3.5c-0.5,1.1-1.1,2.3-1.6,3.3c-1.1,2.1-2.2,4.1-3.3,5.7
		c-1,1.6-2,3-2.6,3.9c-0.7,0.9-1.1,1.5-1.1,1.5s0.1-0.7,0.2-1.8c0.2-1.1,0.5-2.7,1-4.6s1.1-4,2-6.3c0.4-1.1,0.8-2.3,1.3-3.5
		c0.4-1.1,1-2.4,1.5-3.5s1.1-2.4,1.5-3.5c0.6-1.1,1.1-2.3,1.6-3.3c1.1-2.1,2.2-4.1,3.3-5.7c1-1.6,2-3,2.6-3.9
		c0.3-0.5,0.7-0.8,0.8-1.1C159.5,177.2,159.6,177.2,159.6,177.2z"/>
</g>
<g>
	<path class="st5" d="M207.6,165.5c0,0,0.2,0.1,0.4,0.2s0.7,0.2,1.2,0.5c1,0.4,2.4,1.1,4.1,2c1.6,0.9,3.5,2,5.4,3.2
		c1,0.7,2,1.2,2.9,2c1,0.7,2,1.4,2.9,2.1c1,0.7,2,1.5,2.8,2.2c0.9,0.7,1.8,1.5,2.7,2.3c1.7,1.5,3.3,3,4.6,4.3c1.3,1.3,2.3,2.5,3,3.3
		s1.1,1.4,1.1,1.4s-0.6-0.2-1.6-0.7c-1-0.4-2.4-1.1-4.1-2s-3.5-2-5.4-3.2c-1-0.7-2-1.2-2.9-2c-1-0.7-2-1.4-2.9-2.1s-2-1.5-2.8-2.2
		c-0.9-0.7-1.9-1.5-2.7-2.3c-1.7-1.5-3.3-3-4.6-4.3c-1.3-1.3-2.3-2.5-3-3.3c-0.3-0.4-0.6-0.7-0.8-1
		C207.8,165.6,207.6,165.5,207.6,165.5z"/>
</g>
<g>
	<path class="st5" d="M199.5,177.1c0,0,0.1,0.2,0.3,0.4c0.2,0.2,0.5,0.6,0.8,1.1c0.7,0.9,1.6,2.3,2.6,3.9c1.1,1.6,2.1,3.6,3.3,5.7
		c0.6,1.1,1.1,2.2,1.6,3.3c0.6,1.1,1.1,2.3,1.5,3.5c0.5,1.1,1,2.4,1.5,3.5s0.9,2.4,1.3,3.5c0.8,2.3,1.5,4.4,2,6.3s0.8,3.5,1,4.6
		s0.2,1.8,0.2,1.8s-0.4-0.5-1.1-1.5c-0.7-0.9-1.6-2.3-2.6-3.9c-1.1-1.6-2.1-3.6-3.3-5.7c-0.6-1.1-1.1-2.2-1.6-3.3
		c-0.6-1.1-1.1-2.3-1.5-3.5c-0.5-1.1-1-2.4-1.5-3.5s-0.9-2.4-1.3-3.5c-0.8-2.3-1.5-4.4-2-6.3s-0.8-3.5-1.1-4.6
		c-0.1-0.6-0.2-1-0.2-1.3C199.6,177.2,199.5,177.1,199.5,177.1z"/>
</g>
<g>
	<path class="st5" d="M180.6,183.5c0,0,0.1,0.2,0.2,0.5s0.2,0.7,0.3,1.3c0.2,1.1,0.6,2.7,0.9,4.6s0.6,4.1,0.7,6.5
		c0.1,1.2,0.2,2.4,0.2,3.7c0.1,1.2,0.1,2.5,0.1,3.8s0,2.5-0.1,3.8c0,1.2-0.1,2.5-0.2,3.7c-0.2,2.4-0.4,4.6-0.7,6.5
		c-0.3,2-0.7,3.5-0.9,4.6c-0.2,1.1-0.5,1.8-0.5,1.8s-0.2-0.7-0.5-1.8c-0.2-1.1-0.6-2.7-0.9-4.6c-0.3-2-0.6-4.1-0.7-6.5
		c-0.1-1.2-0.2-2.4-0.2-3.7c-0.1-1.2-0.1-2.5-0.1-3.8s0-2.5,0.1-3.8c0-1.2,0.1-2.5,0.2-3.7c0.2-2.4,0.4-4.6,0.7-6.5
		c0.3-2,0.6-3.5,0.9-4.6c0.1-0.6,0.2-1,0.3-1.3C180.6,183.7,180.6,183.5,180.6,183.5z"/>
</g>
<path class="st5" d="M159.6,149.1h39C198.6,149.1,178.4,178.5,159.6,149.1z"/>
<polygon class="st1" points="162.2,99.6 179.4,99.6 197.9,99.6 222.9,156.2 135.9,156.2 "/>
<polygon class="st6" points="135.9,156.2 183.9,99.6 162.2,99.6 "/>
<circle class="st7" cx="180.7" cy="180.5" r="169.4"/>
</svg>
