<?xml version="1.0" encoding="utf-8"?>
<!-- Generator: Adobe Illustrator 19.2.1, SVG Export Plug-In . SVG Version: 6.00 Build 0)  -->
<svg version="1.1" id="Graphics" xmlns="http://www.w3.org/2000/svg" xmlns:xlink="http://www.w3.org/1999/xlink" x="0px" y="0px"
	 viewBox="0 0 500 500" style="enable-background:new 0 0 500 500;" xml:space="preserve">
<style type="text/css">
	.st0{fill:#E87800;}
	.st1{fill:#EEF3F3;}
	.st2{fill:#F4D100;}
	.st3{fill:#EFA016;}
	.st4{fill:#00727B;}
	.st5{opacity:0.5;enable-background:new    ;}
	.st6{fill:#FFFFFF;}
	.st7{fill:#D8E0E3;}
	.st8{fill:#D8E3E2;}
	.st9{fill:#BAC9CF;}
	.st10{fill:#98ACB2;}
</style>
<g>
	<g>
		<g>
			<g>
				<path class="st0" d="M250,14c31.9,0,62.8,6.2,91.9,18.5c28.1,11.9,53.3,28.9,75,50.6c21.7,21.7,38.7,46.9,50.6,75
					c12.3,29.1,18.5,60,18.5,91.9s-6.2,62.8-18.5,91.9c-11.9,28.1-28.9,53.3-50.6,75c-21.7,21.7-46.9,38.7-75,50.6
					c-29.1,12.3-60,18.5-91.9,18.5s-62.8-6.2-91.9-18.5c-28.1-11.9-53.3-28.9-75-50.6c-21.7-21.7-38.7-46.9-50.6-75
					C20.2,312.8,14,281.9,14,250s6.2-62.8,18.5-91.9c11.9-28.1,28.9-53.3,50.6-75c21.7-21.7,46.9-38.7,75-50.6
					C187.2,20.2,218.1,14,250,14 M250,0C111.9,0,0,111.9,0,250s111.9,250,250,250s250-111.9,250-250S388.1,0,250,0L250,0z"/>
			</g>
		</g>
		<g>
			<g>
				<path class="st1" d="M250,479c-61.2,0-118.7-23.8-161.9-67.1C44.8,368.7,21,311.2,21,250c0-61.2,23.8-118.7,67.1-161.9
					S188.8,21,250,21c61.2,0,118.7,23.8,161.9,67.1C455.2,131.3,479,188.8,479,250s-23.8,118.7-67.1,161.9
					C368.7,455.2,311.2,479,250,479z"/>
			</g>
			<g>
				<path class="st2" d="M250,28c30,0,59,5.9,86.4,17.4C362.8,56.6,386.6,72.6,407,93s36.4,44.1,47.6,70.6
					C466.1,191,472,220,472,250s-5.9,59-17.4,86.4c-11.2,26.4-27.2,50.2-47.6,70.6c-20.4,20.4-44.1,36.4-70.6,47.6
					C309,466.1,280,472,250,472s-59-5.9-86.4-17.4c-26.4-11.2-50.2-27.2-70.6-47.6c-20.4-20.4-36.4-44.1-47.6-70.6
					C33.9,309,28,280,28,250s5.9-59,17.4-86.4C56.6,137.2,72.6,113.4,93,93c20.4-20.4,44.1-36.4,70.6-47.6C191,33.9,220,28,250,28
					 M250,14C119.7,14,14,119.7,14,250c0,130.3,105.7,236,236,236c130.3,0,236-105.7,236-236C486,119.7,380.3,14,250,14L250,14z"/>
			</g>
		</g>
	</g>
	<g>
		<g>
			<path class="st3" d="M250,27.8c122.7,0,222.2,99.5,222.2,222.2c0,122.7-99.5,222.2-222.2,222.2c-122.7,0-222.2-99.5-222.2-222.2
				C27.8,127.3,127.3,27.8,250,27.8z"/>
		</g>
		<g>
			<path class="st4" d="M250,27.8C127.3,27.8,27.8,127.3,27.8,250c0,122.7,99.5,222.2,222.2,222.2V27.8z"/>
		</g>
		<g class="st5">
			<path class="st6" d="M347.2,166.7c0-53.6-43.6-97.2-97.2-97.2c-53.6,0-97.2,43.6-97.2,97.2c0,24.6,12.9,50.4,26.5,77.8
				c12.1,24.3,24.6,47.2,28.1,75h85.2c3.5-27.8,16.2-51.8,28.5-76.3C334.5,216.3,347.2,191,347.2,166.7z"/>
		</g>
		<g>
			<path class="st7" d="M250,55.6c-61.3,0-111.1,49.8-111.1,111.1c0,55.6,55.6,111.1,55.6,166.7h111.1c0-55.6,55.6-111.1,55.6-166.7
				C361.1,105.3,311.3,55.6,250,55.6z M292.6,319.4h-85.2c-3.5-27.8-16-50.6-28.1-75c-13.6-27.3-26.5-53.2-26.5-77.8
				c0-53.6,43.6-97.2,97.2-97.2c53.6,0,97.2,43.6,97.2,97.2c0,24.4-12.7,49.7-26.1,76.4C308.8,267.7,296.1,291.7,292.6,319.4z"/>
			<path class="st8" d="M306.1,333.8H193.9v-0.5c0-27.7-14.1-55.8-27.7-83.1c-13.7-27.4-27.8-55.7-27.8-83.6
				c0-61.5,50.1-111.6,111.6-111.6c61.5,0,111.6,50.1,111.6,111.6c0,27.9-14.1,56.2-27.8,83.6c-13.6,27.3-27.7,55.4-27.7,83.1V333.8
				z M194.9,332.8h110.1c0.2-27.7,14.2-55.9,27.8-83.1c13.6-27.3,27.7-55.5,27.7-83.1c0-61-49.6-110.6-110.6-110.6
				s-110.6,49.6-110.6,110.6c0,27.7,14.1,55.8,27.7,83.1C180.7,277,194.8,305.1,194.9,332.8z M293,319.9h-86.1l-0.1-0.4
				c-3.2-25.3-13.7-46.3-24.9-68.5c-1.1-2.1-2.1-4.2-3.2-6.3c-13.6-27.4-26.5-53.2-26.5-78c0-53.9,43.8-97.7,97.7-97.7
				c53.9,0,97.7,43.8,97.7,97.7c0,24.5-12.7,49.8-26.2,76.7l-2,3.9c-11.9,23.7-23.2,46.1-26.5,72.3L293,319.9z M207.8,318.9h84.4
				c3.4-26.2,15.2-49.6,26.5-72.2l2-3.9c13.4-26.7,26.1-51.9,26.1-76.2c0-53.3-43.4-96.7-96.7-96.7c-53.3,0-96.7,43.4-96.7,96.7
				c0,24.5,12.8,50.3,26.4,77.6c1.1,2.1,2.1,4.2,3.2,6.3C194,272.7,204.5,293.7,207.8,318.9z"/>
		</g>
		<g>
			<path class="st9" d="M291.7,388.9h-83.3c-7.7,0-13.9,6.2-13.9,13.9s6.2,13.9,13.9,13.9h2.6c5.7,16.2,21,27.8,39.1,27.8
				c18.1,0,33.4-11.6,39.1-27.8h2.5c7.6,0,13.9-6.2,13.9-13.9S299.3,388.9,291.7,388.9"/>
		</g>
		<g>
			<path class="st9" d="M291.7,347.2h-83.3c-7.7,0-13.9,6.2-13.9,13.9s6.2,13.9,13.9,13.9h83.3c7.7,0,13.9-6.2,13.9-13.9
				S299.3,347.2,291.7,347.2"/>
		</g>
		<g>
			<path class="st10" d="M194.4,361.1c0,7.7,6.2,13.9,13.9,13.9H250v-27.8h-41.7C200.6,347.2,194.4,353.4,194.4,361.1z"/>
		</g>
		<g>
			<path class="st10" d="M250,388.9h-41.7c-7.7,0-13.9,6.2-13.9,13.9s6.2,13.9,13.9,13.9h2.6c5.7,16.2,21,27.8,39.1,27.8l0,0
				L250,388.9L250,388.9z"/>
		</g>
		<g>
			<path class="st9" d="M207.4,319.4c-3.5-27.8-16-50.6-28.1-75c-13.6-27.3-26.5-53.2-26.5-77.8c0-53.6,43.6-97.2,97.2-97.2l0,0
				V55.6l0,0c-61.3,0-111.1,49.8-111.1,111.1c0,55.6,55.6,111.1,55.6,166.7H250v-13.9L207.4,319.4L207.4,319.4z"/>
		</g>
		<g>
			<path class="st6" d="M198.5,110.4c11.5,0,20.8,9.3,20.8,20.8c0,11.5-9.3,20.8-20.8,20.8c-11.5,0-20.8-9.3-20.8-20.8
				C177.7,119.8,187,110.4,198.5,110.4z"/>
		</g>
		<g>
			<path class="st6" d="M226.3,89.6c7.7,0,13.9,6.2,13.9,13.9c0,7.7-6.2,13.9-13.9,13.9s-13.9-6.2-13.9-13.9
				C212.4,95.8,218.6,89.6,226.3,89.6z"/>
		</g>
		<g>
			<path class="st6" d="M250,141.5c27.8,0,55.6,24.9,55.6,55.6s-27.8,55.6-55.6,55.6V141.5z"/>
		</g>
		<g>
			<path class="st2" d="M250,155.4c23,0,41.7,18.7,41.7,41.7c0,23-18.6,41.7-41.7,41.7L250,155.4L250,155.4z"/>
		</g>
		<g>
			<path class="st3" d="M250,169.3c15.3,0,27.8,12.5,27.8,27.8c0,15.3-12.5,27.8-27.8,27.8V169.3z"/>
		</g>
	</g>
</g>
</svg>
