<?xml version="1.0" encoding="utf-8"?>
<!-- Generator: Adobe Illustrator 20.0.0, SVG Export Plug-In . SVG Version: 6.00 Build 0)  -->
<svg version="1.1" id="Graphics" xmlns="http://www.w3.org/2000/svg" xmlns:xlink="http://www.w3.org/1999/xlink" x="0px" y="0px"
	 viewBox="0 0 500 500" enable-background="new 0 0 500 500" xml:space="preserve">
<g>
	<g>
		<g>
			<path fill="#E87800" d="M250,14c31.866,0,62.771,6.238,91.857,18.54c28.101,11.886,53.341,28.904,75.02,50.583
				s38.697,46.919,50.583,75.02C479.762,187.229,486,218.134,486,250s-6.238,62.771-18.54,91.857
				c-11.886,28.101-28.904,53.341-50.583,75.02c-21.678,21.678-46.919,38.697-75.02,50.583C312.771,479.762,281.866,486,250,486
				s-62.771-6.238-91.857-18.54c-28.101-11.886-53.341-28.904-75.02-50.583c-21.678-21.678-38.697-46.919-50.583-75.02
				C20.238,312.771,14,281.866,14,250s6.238-62.771,18.54-91.857c11.886-28.101,28.904-53.341,50.583-75.02
				c21.679-21.678,46.919-38.697,75.02-50.583C187.229,20.238,218.134,14,250,14 M250,0C111.93,0,0,111.93,0,250s111.93,250,250,250
				s250-111.93,250-250S388.07,0,250,0L250,0z"/>
		</g>
		<g>
			<path fill="#EEF3F3" d="M250,479c-61.165,0-118.67-23.821-161.924-67.075C44.821,368.67,21,311.165,21,250
				c0-61.164,23.821-118.67,67.076-161.924S188.836,21,250,21c61.165,0,118.67,23.821,161.925,67.076
				C455.179,131.33,479,188.835,479,250s-23.821,118.67-67.075,161.925C368.67,455.179,311.165,479,250,479z"/>
			<path fill="#F4D100" d="M250,28c29.974,0,59.045,5.868,86.405,17.441c26.434,11.181,50.177,27.191,70.57,47.584
				c20.393,20.393,36.403,44.137,47.584,70.57C466.132,190.956,472,220.026,472,250c0,29.974-5.868,59.045-17.441,86.405
				c-11.181,26.434-27.191,50.177-47.584,70.57c-20.393,20.393-44.136,36.403-70.57,47.584C309.045,466.132,279.974,472,250,472
				c-29.974,0-59.044-5.868-86.404-17.441c-26.434-11.181-50.177-27.191-70.57-47.584c-20.393-20.393-36.403-44.137-47.584-70.57
				C33.868,309.045,28,279.974,28,250c0-29.974,5.868-59.044,17.441-86.404c11.181-26.434,27.191-50.177,47.584-70.57
				c20.393-20.393,44.137-36.403,70.57-47.584C190.956,33.868,220.026,28,250,28 M250,14C119.669,14,14,119.669,14,250
				c0,130.332,105.669,236,236,236c130.332,0,236-105.668,236-236C486,119.669,380.332,14,250,14L250,14z"/>
		</g>
	</g>
	<g>
		<path fill="#EFA016" d="M250,27.778c122.721,0,222.222,99.501,222.222,222.222c0,122.722-99.501,222.223-222.222,222.223
			c-122.728,0-222.222-99.501-222.222-222.223C27.778,127.279,127.272,27.778,250,27.778z"/>
		<path fill="#00727B" d="M250,27.778C127.279,27.778,27.778,127.279,27.778,250c0,122.722,99.501,222.223,222.222,222.223V27.778z"
			/>
		<path opacity="0.5" fill="#FFFFFF" enable-background="new    " d="M347.222,166.667c0-53.603-43.62-97.223-97.222-97.223
			c-53.596,0-97.222,43.62-97.222,97.223c0,24.603,12.858,50.442,26.489,77.8c12.105,24.332,24.563,47.2,28.083,74.978h85.239
			c3.472-27.777,16.168-51.784,28.497-76.334C334.527,216.336,347.222,191.04,347.222,166.667z"/>
		<path fill="#D8E0E3" stroke="#D8E3E2" stroke-miterlimit="10" d="M250,55.556c-61.347,0-111.111,49.751-111.111,111.111
			c0,55.556,55.556,111.111,55.556,166.667h111.111c0-55.556,55.556-111.111,55.556-166.667
			C361.111,105.307,311.347,55.556,250,55.556z M292.589,319.444H207.35c-3.52-27.777-15.977-50.646-28.083-74.978
			c-13.631-27.344-26.489-53.169-26.489-77.8c0-53.603,43.613-97.223,97.222-97.223c53.603,0,97.222,43.62,97.222,97.223
			c0,24.373-12.695,49.669-26.137,76.43C308.756,267.66,296.088,291.667,292.589,319.444z"/>
		<path fill="#BAC9CF" d="M291.653,388.89h-83.32c-7.684,0-13.889,6.212-13.889,13.889c0,7.677,6.206,13.889,13.889,13.889h2.557
			c5.724,16.168,20.982,27.777,39.11,27.777c18.148,0,33.393-11.609,39.117-27.777h2.55c7.65,0,13.889-6.212,13.889-13.889
			C305.556,395.102,299.316,388.89,291.653,388.89"/>
		<path fill="#BAC9CF" d="M291.653,347.223h-83.32c-7.684,0-13.889,6.185-13.889,13.875S200.65,375,208.333,375h83.32
			c7.663,0,13.902-6.212,13.902-13.889C305.556,353.435,299.316,347.223,291.653,347.223"/>
		<path fill="#98ACB2" d="M194.444,361.098c0,7.677,6.206,13.902,13.889,13.902H250v-27.777h-41.667
			C200.65,347.223,194.444,353.407,194.444,361.098z"/>
		<path fill="#98ACB2" d="M250,388.89h-41.667c-7.684,0-13.889,6.212-13.889,13.889c0,7.677,6.206,13.889,13.889,13.889h2.557
			c5.724,16.168,20.982,27.777,39.11,27.777l0,0V388.89z"/>
		<path fill="#BAC9CF" d="M207.35,319.444c-3.52-27.777-15.977-50.646-28.083-74.978c-13.631-27.344-26.489-53.169-26.489-77.8
			c0-53.603,43.613-97.223,97.222-97.223l0,0V55.556l0,0c-61.347,0-111.111,49.751-111.111,111.111
			c0,55.556,55.556,111.111,55.556,166.667H250v-13.89H207.35z"/>
		<path fill="#FFFFFF" d="M198.514,110.446c11.508,0,20.833,9.318,20.833,20.834c0,11.502-9.325,20.833-20.833,20.833
			c-11.509,0-20.833-9.331-20.833-20.833C177.68,119.765,187.005,110.446,198.514,110.446z"/>
		<circle fill="#FFFFFF" cx="226.291" cy="103.503" r="13.889"/>
		<path fill="#FFFFFF" d="M250,141.493c27.778,0,55.556,24.875,55.556,55.556S277.778,252.605,250,252.605V141.493z"/>
		<path fill="#F4D100" d="M250,155.382c23.004,0,41.667,18.664,41.667,41.667c0,23.017-18.649,41.667-41.667,41.667V155.382z"/>
		<path fill="#EFA016" d="M250,169.271c15.327,0,27.778,12.451,27.778,27.777c0,15.341-12.451,27.778-27.778,27.778V169.271z"/>
	</g>
</g>
<g>
</g>
<g>
</g>
<g>
</g>
<g>
</g>
<g>
</g>
<g>
</g>
<g>
</g>
<g>
</g>
<g>
</g>
<g>
</g>
<g>
</g>
<g>
</g>
<g>
</g>
<g>
</g>
<g>
</g>
</svg>
