<?xml version="1.0" encoding="utf-8"?>
<!-- Generator: Adobe Illustrator 20.1.0, SVG Export Plug-In . SVG Version: 6.00 Build 0)  -->
<svg version="1.1" id="Layer_1" xmlns="http://www.w3.org/2000/svg" xmlns:xlink="http://www.w3.org/1999/xlink" x="0px" y="0px"
	 viewBox="0 0 595.3 841.9" style="enable-background:new 0 0 595.3 841.9;" xml:space="preserve">
<style type="text/css">
	.st0{fill:#D4DCE1;stroke:#EF7A15;stroke-width:5.6693;stroke-miterlimit:10;}
	.st1{fill:#1490B2;}
	.st2{fill:#A2D7E1;}
	.st3{fill:none;stroke:#004A66;stroke-width:11.3386;stroke-miterlimit:10;}
	.st4{fill:none;stroke:#BF3818;stroke-width:8.5039;stroke-miterlimit:10;}
	.st5{fill:#ECEFF1;}
	.st6{fill:#4FC3F7;}
	.st7{fill:none;stroke:#F4B70C;stroke-width:5;stroke-miterlimit:10;}
</style>
<ellipse transform="matrix(0.2611 -0.9653 0.9653 0.2611 -72.0787 560.3422)" class="st0" cx="330" cy="327.3" rx="173.4" ry="173.4"/>
<path class="st1" d="M411.8,180.1C365,282.5,318.2,384.8,271.3,487.2c-7-2.5-86-32.4-108-116.4c-18.5-70.9,17.5-127.3,23.4-136.2
	c0,0,0,0,0,0c0,0,0.3-0.4,0.3-0.4c32.3-48.6,86.5-67.7,86.5-67.7C341,142.6,402.9,175.3,411.8,180.1z"/>
<polygon class="st2" points="326,253.3 325.6,497.5 338.6,497.5 332.1,252.8 "/>
<path class="st3" d="M243.5,474.8c-2.5-96.2-2.5-165.2-2.2-203.6c0-13,0.6-37.5,17.2-49.2c11.9-8.4,26.1-6.3,29.1-6
	c20,3.3,36.3,21.7,40.8,46.2"/>
<g>
	<line class="st4" x1="350.4" y1="356.1" x2="476.5" y2="337.5"/>
	<polygon class="st5" points="348.8,338.1 377.2,333.9 379.3,350.7 350.9,354.8 	"/>
	<path class="st6" d="M348.6,337.8c0.3-1.4,1.8-7.2,6.2-9.4c1.3-0.6,2.6-0.8,3.1-0.8c4.4-0.3,6.5,2.2,9.8,2.5
		c1.8,0.3,4.6-0.3,8.3-3.6c0.3,0.8,0.3,2.2-0.3,3.6c-0.8,2.2-2.1,3.6-3.1,4.2c-3.4,2.5-7.2,2.5-8.5,2.5c-4.9-0.3-6.2-2.5-10.1-1.9
		C351.7,335.6,349.9,337,348.6,337.8z"/>
</g>
<circle class="st7" cx="328.9" cy="328.1" r="169.4"/>
</svg>
