<?xml version="1.0" encoding="utf-8"?>
<!-- Generator: Adobe Illustrator 20.1.0, SVG Export Plug-In . SVG Version: 6.00 Build 0)  -->
<svg version="1.1" id="Layer_1" xmlns="http://www.w3.org/2000/svg" xmlns:xlink="http://www.w3.org/1999/xlink" x="0px" y="0px"
	 viewBox="0 0 595.3 841.9" style="enable-background:new 0 0 595.3 841.9;" xml:space="preserve">
<style type="text/css">
	.st0{fill:#01737B;}
	.st1{fill:#CFD8DC;}
	.st2{fill:#FFFDE7;}
	.st3{fill:none;stroke:#90A4AE;stroke-width:5.6693;stroke-miterlimit:10;}
	.st4{fill:#FDF39F;}
	.st5{fill:#ECEFF1;}
	.st6{fill:none;stroke:#5E35B1;stroke-width:5;stroke-miterlimit:10;}
	.st7{fill:none;stroke:#B39DDB;stroke-width:5;stroke-miterlimit:10;}
</style>
<path class="st0" d="M385.7,212.3c-8.7-6.1-66.5-45.1-138-25.2C181.6,205.5,131.1,265,122.8,334c-7.3,61.5,19.3,121.4,70.6,157.3
	L385.7,212.3z"/>
<path class="st1" d="M385,208.6c8.7,6,66.1,46.2,72.8,120.1c6.3,68.2-31.3,136.6-92.8,168.9c-54.9,28.7-120.3,25.1-172.1-9.9
	L385,208.6z"/>
<path class="st2" d="M245.4,330.2c-27.3,41.2-55.9,84.7-83.3,125.9c9.4,11.6,14.8,24.2,34.2,36.4c44.1,27.7,88.4,26.9,107.2,25.2
	c15.3-0.9,46-4.8,78-25.6c22.7-14.6,63.8-66.3,45.9-45.6l0,0c-34.4-34.8-60.6-81.5-95-116.3H245.4z"/>
<line class="st3" x1="288.9" y1="185.3" x2="288.9" y2="295.8"/>
<g>
	<path class="st4" d="M261,339.5c0,0-0.1,0.2-0.2,0.4c-0.2,0.2-0.4,0.6-0.8,1c-0.7,0.8-1.7,2-3,3.3c-1.3,1.3-2.8,2.8-4.6,4.3
		c-0.9,0.7-1.8,1.5-2.7,2.3c-0.9,0.7-1.9,1.5-2.8,2.2c-1,0.7-2,1.5-2.9,2.1c-1,0.7-2,1.3-2.9,2c-2,1.2-3.7,2.3-5.4,3.2s-3,1.5-4.1,2
		c-1,0.4-1.6,0.7-1.6,0.7s0.3-0.5,1.1-1.4c0.7-0.8,1.7-2,3-3.3c1.3-1.3,2.8-2.8,4.6-4.3c0.9-0.7,1.8-1.5,2.7-2.3s1.9-1.5,2.8-2.2
		c1-0.7,2-1.5,2.9-2.1c1-0.7,2-1.3,2.9-2c2-1.2,3.7-2.3,5.4-3.2s3-1.5,4.1-2c0.5-0.2,0.9-0.4,1.2-0.5
		C260.8,339.5,261,339.5,261,339.5z"/>
</g>
<g>
	<path class="st4" d="M269.1,351.2c0,0,0,0.2-0.1,0.5c-0.1,0.3-0.1,0.7-0.2,1.3c-0.2,1.1-0.5,2.7-1.1,4.6c-0.5,1.9-1.1,4-2,6.3
		c-0.4,1.1-0.8,2.3-1.3,3.5c-0.5,1.1-1,2.4-1.5,3.5c-0.5,1.1-1.1,2.4-1.5,3.5c-0.5,1.1-1.1,2.3-1.6,3.3c-1.1,2.1-2.2,4.1-3.3,5.7
		c-1,1.6-2,3-2.6,3.9c-0.7,0.9-1.1,1.5-1.1,1.5s0.1-0.7,0.2-1.8c0.2-1.1,0.5-2.7,1-4.6c0.5-1.9,1.1-4,2-6.3c0.4-1.1,0.8-2.3,1.3-3.5
		c0.4-1.1,1-2.4,1.5-3.5c0.5-1.1,1.1-2.4,1.5-3.5c0.6-1.1,1.1-2.3,1.6-3.3c1.1-2.1,2.2-4.1,3.3-5.7c1-1.6,2-3,2.6-3.9
		c0.3-0.5,0.7-0.8,0.8-1.1C269,351.2,269.1,351.2,269.1,351.2z"/>
</g>
<g>
	<path class="st4" d="M317.1,339.5c0,0,0.2,0.1,0.4,0.2s0.7,0.2,1.2,0.5c1,0.4,2.4,1.1,4.1,2c1.6,0.9,3.5,2,5.4,3.2
		c1,0.7,2,1.2,2.9,2c1,0.7,2,1.4,2.9,2.1c1,0.7,2,1.5,2.8,2.2c0.9,0.7,1.8,1.5,2.7,2.3c1.7,1.5,3.3,3,4.6,4.3c1.3,1.3,2.3,2.5,3,3.3
		c0.7,0.8,1.1,1.4,1.1,1.4s-0.6-0.2-1.6-0.7c-1-0.4-2.4-1.1-4.1-2s-3.5-2-5.4-3.2c-1-0.7-2-1.2-2.9-2c-1-0.7-2-1.4-2.9-2.1
		s-2-1.5-2.8-2.2c-0.9-0.7-1.9-1.5-2.7-2.3c-1.7-1.5-3.3-3-4.6-4.3c-1.3-1.3-2.3-2.5-3-3.3c-0.3-0.4-0.6-0.7-0.8-1
		C317.3,339.6,317.1,339.5,317.1,339.5z"/>
</g>
<g>
	<path class="st4" d="M309,351.1c0,0,0.1,0.2,0.3,0.4c0.2,0.2,0.5,0.6,0.8,1.1c0.7,0.9,1.6,2.3,2.6,3.9c1.1,1.6,2.1,3.6,3.3,5.7
		c0.6,1.1,1.1,2.2,1.6,3.3c0.6,1.1,1.1,2.3,1.5,3.5c0.5,1.1,1,2.4,1.5,3.5c0.5,1.1,0.9,2.4,1.3,3.5c0.8,2.3,1.5,4.4,2,6.3
		c0.5,1.9,0.8,3.5,1,4.6c0.2,1.1,0.2,1.8,0.2,1.8s-0.4-0.5-1.1-1.5c-0.7-0.9-1.6-2.3-2.6-3.9c-1.1-1.6-2.1-3.6-3.3-5.7
		c-0.6-1.1-1.1-2.2-1.6-3.3c-0.6-1.1-1.1-2.3-1.5-3.5c-0.5-1.1-1-2.4-1.5-3.5c-0.5-1.1-0.9-2.4-1.3-3.5c-0.8-2.3-1.5-4.4-2-6.3
		c-0.5-1.9-0.8-3.5-1.1-4.6c-0.1-0.6-0.2-1-0.2-1.3C309.1,351.2,309,351.1,309,351.1z"/>
</g>
<g>
	<path class="st4" d="M290.1,357.5c0,0,0.1,0.2,0.2,0.5c0.1,0.3,0.2,0.7,0.3,1.3c0.2,1.1,0.6,2.7,0.9,4.6s0.6,4.1,0.7,6.5
		c0.1,1.2,0.2,2.4,0.2,3.7c0.1,1.2,0.1,2.5,0.1,3.8c0,1.3,0,2.5-0.1,3.8c0,1.2-0.1,2.5-0.2,3.7c-0.2,2.4-0.4,4.6-0.7,6.5
		c-0.3,2-0.7,3.5-0.9,4.6c-0.2,1.1-0.5,1.8-0.5,1.8s-0.2-0.7-0.5-1.8c-0.2-1.1-0.6-2.7-0.9-4.6c-0.3-2-0.6-4.1-0.7-6.5
		c-0.1-1.2-0.2-2.4-0.2-3.7c-0.1-1.2-0.1-2.5-0.1-3.8c0-1.3,0-2.5,0.1-3.8c0-1.2,0.1-2.5,0.2-3.7c0.2-2.4,0.4-4.6,0.7-6.5
		c0.3-2,0.6-3.5,0.9-4.6c0.1-0.6,0.2-1,0.3-1.3C290.1,357.7,290.1,357.5,290.1,357.5z"/>
</g>
<path class="st4" d="M269.1,323.1h39C308.1,323.1,287.9,352.5,269.1,323.1z"/>
<polygon class="st1" points="271.7,273.6 288.9,273.6 307.4,273.6 332.4,330.2 245.4,330.2 "/>
<polygon class="st5" points="245.4,330.2 293.4,273.6 271.7,273.6 "/>
<circle class="st6" cx="290.3" cy="348.4" r="171.3"/>
<circle class="st7" cx="289.9" cy="348.8" r="166.8"/>
</svg>
