<?xml version="1.0" encoding="utf-8"?>
<!-- Generator: Adobe Illustrator 19.2.1, SVG Export Plug-In . SVG Version: 6.00 Build 0)  -->
<svg version="1.1" id="Graphics" xmlns="http://www.w3.org/2000/svg" xmlns:xlink="http://www.w3.org/1999/xlink" x="0px" y="0px"
	 viewBox="0 0 500 500" style="enable-background:new 0 0 500 500;" xml:space="preserve">
<style type="text/css">
	.st0{fill:#E87800;}
	.st1{fill:#00727B;}
	.st2{fill:#F4D100;}
	.st3{fill:#E45C5E;}
	.st4{fill:#AD4F49;}
	.st5{fill:#8FADB4;}
	.st6{fill:#BCCFD1;}
	.st7{fill:#FFFFFF;}
	.st8{fill:#91D2E4;}
</style>
<g>
	<g>
		<g>
			<g>
				<path class="st0" d="M250,14c31.9,0,62.8,6.2,91.9,18.5c28.1,11.9,53.3,28.9,75,50.6c21.7,21.7,38.7,46.9,50.6,75
					c12.3,29.1,18.5,60,18.5,91.9s-6.2,62.8-18.5,91.9c-11.9,28.1-28.9,53.3-50.6,75c-21.7,21.7-46.9,38.7-75,50.6
					c-29.1,12.3-60,18.5-91.9,18.5s-62.8-6.2-91.9-18.5c-28.1-11.9-53.3-28.9-75-50.6c-21.7-21.7-38.7-46.9-50.6-75
					C20.2,312.8,14,281.9,14,250s6.2-62.8,18.5-91.9c11.9-28.1,28.9-53.3,50.6-75c21.7-21.7,46.9-38.7,75-50.6
					C187.2,20.2,218.1,14,250,14 M250,0C111.9,0,0,111.9,0,250s111.9,250,250,250s250-111.9,250-250S388.1,0,250,0L250,0z"/>
			</g>
		</g>
		<g>
			<g>
				<path class="st1" d="M250,479c-61.2,0-118.7-23.8-161.9-67.1C44.8,368.7,21,311.2,21,250c0-61.2,23.8-118.7,67.1-161.9
					S188.8,21,250,21c61.2,0,118.7,23.8,161.9,67.1C455.2,131.3,479,188.8,479,250s-23.8,118.7-67.1,161.9
					C368.7,455.2,311.2,479,250,479z"/>
			</g>
			<g>
				<path class="st2" d="M250,28c30,0,59,5.9,86.4,17.4C362.8,56.6,386.6,72.6,407,93s36.4,44.1,47.6,70.6
					C466.1,191,472,220,472,250s-5.9,59-17.4,86.4c-11.2,26.4-27.2,50.2-47.6,70.6c-20.4,20.4-44.1,36.4-70.6,47.6
					C309,466.1,280,472,250,472s-59-5.9-86.4-17.4c-26.4-11.2-50.2-27.2-70.6-47.6c-20.4-20.4-36.4-44.1-47.6-70.6
					C33.9,309,28,280,28,250s5.9-59,17.4-86.4C56.6,137.2,72.6,113.4,93,93c20.4-20.4,44.1-36.4,70.6-47.6C191,33.9,220,28,250,28
					 M250,14C119.7,14,14,119.7,14,250c0,130.3,105.7,236,236,236c130.3,0,236-105.7,236-236C486,119.7,380.3,14,250,14L250,14z"/>
			</g>
		</g>
	</g>
	<g>
		<g>
			<g>
				<path class="st3" d="M189.3,290.1v-106h-50v106c-19.5,9.3-33,29.3-33,52.3c0,32,26,58,58,58s58-26,58-58
					C222.3,319.4,208.8,299.5,189.3,290.1z"/>
			</g>
			<g>
				<path class="st4" d="M189.3,290.1v-106h-25v216.3c32,0,58-26,58-58C222.3,319.4,208.8,299.5,189.3,290.1z"/>
			</g>
			<g>
				<path class="st5" d="M164.3,393c-27.8,0-50.5-22.7-50.5-50.5c0-19.3,11.3-37.2,28.7-45.6l4.3-2V114.5c0-9.6,7.9-17.5,17.5-17.5
					V82c-17.9,0-32.5,14.6-32.5,32.5v171.1c-20.2,11.6-33,33.4-33,56.9c0,36.1,29.4,65.5,65.5,65.5L164.3,393L164.3,393z"/>
			</g>
			<g>
				<path class="st6" d="M181.8,114.5v180.3l4.3,2c17.5,8.4,28.7,26.2,28.7,45.6c0,27.8-22.7,50.5-50.5,50.5v15
					c36.1,0,65.5-29.4,65.5-65.5c0-23.5-12.8-45.3-33-56.9V114.5c0-17.9-14.6-32.5-32.5-32.5v15C173.9,97,181.8,104.9,181.8,114.5z"
					/>
			</g>
			<g>
				<path class="st7" d="M145.4,314.7c7.7,0,13.9,6.2,13.9,13.9c0,7.7-6.2,13.9-13.9,13.9s-13.9-6.2-13.9-13.9
					C131.5,320.9,137.8,314.7,145.4,314.7z"/>
			</g>
		</g>
		<g>
			<path class="st7" d="M236.1,176.9h-12.7c-5.5,0-10-4.5-10-10s4.5-10,10-10h12.7c5.5,0,10,4.5,10,10S241.6,176.9,236.1,176.9z"/>
		</g>
		<g>
			<path class="st7" d="M248.8,226.9h-25.3c-5.5,0-10-4.5-10-10s4.5-10,10-10h25.3c5.5,0,10,4.5,10,10S254.3,226.9,248.8,226.9z"/>
		</g>
		<g>
			<path class="st7" d="M236.1,276.9h-12.7c-5.5,0-10-4.5-10-10s4.5-10,10-10h12.7c5.5,0,10,4.5,10,10S241.6,276.9,236.1,276.9z"/>
		</g>
		<g>
			<path class="st7" d="M248.8,126.9h-25.3c-5.5,0-10-4.5-10-10s4.5-10,10-10h25.3c5.5,0,10,4.5,10,10S254.3,126.9,248.8,126.9z"/>
		</g>
	</g>
	<g>
		<g>
			<g>
				<path class="st7" d="M368.2,323.7c0,8.2-6,16.7-14.2,25.1l-15.3,16.3h31.8v15.2H314v-12.4l26.9-28.5c4.2-4.4,7.2-9.5,7.2-12.9
					c0-4.3-3.1-6.9-8.5-6.9c-6.1,0-13.7,3.7-20.6,9.6l-7.2-13.8c9.5-7.1,19.8-11.3,30.6-11.3C357.4,304,368.2,311.8,368.2,323.7z"/>
			</g>
			<g>
				<path class="st7" d="M409.5,305c0,7-5.7,12.7-12.8,12.7c-7,0-12.8-5.7-12.8-12.7c0-7,5.8-12.7,12.8-12.7
					C403.8,292.3,409.5,298,409.5,305z M391.1,305c0,3,2.6,5.5,5.6,5.5c3.1,0,5.6-2.5,5.6-5.5s-2.5-5.5-5.6-5.5
					C393.7,299.5,391.1,302,391.1,305z"/>
			</g>
		</g>
		<g>
			<polygon class="st8" points="278.4,160.3 341.2,266.9 403.9,160.3 372.3,160.3 372.3,106.4 309.4,106.4 309.4,160.3 			"/>
		</g>
	</g>
</g>
</svg>
