<?xml version="1.0" encoding="utf-8"?>
<!-- Generator: Adobe Illustrator 15.0.0, SVG Export Plug-In . SVG Version: 6.00 Build 0)  -->
<!DOCTYPE svg PUBLIC "-//W3C//DTD SVG 1.1//EN" "http://www.w3.org/Graphics/SVG/1.1/DTD/svg11.dtd">
<svg version="1.1" id="Graphics" xmlns="http://www.w3.org/2000/svg" xmlns:xlink="http://www.w3.org/1999/xlink" x="0px" y="0px"
	 width="500px" height="500px" viewBox="0 0 500 500" enable-background="new 0 0 500 500" xml:space="preserve">
<g>
	<g>
		<g>
			<path fill="#564677" d="M250,14c31.866,0,62.771,6.238,91.857,18.541c28.101,11.885,53.341,28.904,75.02,50.583
				c21.678,21.678,38.697,46.918,50.583,75.02C479.762,187.229,486,218.134,486,250c0,31.866-6.238,62.771-18.541,91.857
				c-11.886,28.101-28.904,53.341-50.583,75.02c-21.679,21.678-46.919,38.697-75.02,50.583C312.771,479.762,281.866,486,250,486
				s-62.771-6.238-91.857-18.541c-28.101-11.886-53.341-28.904-75.02-50.583c-21.678-21.679-38.697-46.919-50.583-75.02
				C20.238,312.771,14,281.866,14,250c0-31.866,6.238-62.771,18.541-91.857c11.886-28.101,28.904-53.341,50.583-75.02
				c21.678-21.679,46.919-38.697,75.02-50.583C187.229,20.238,218.134,14,250,14 M250,0C111.93,0,0,111.929,0,250
				c0,138.07,111.93,250,250,250s250-111.93,250-250C500,111.929,388.07,0,250,0L250,0z"/>
		</g>
		<g>
			<path fill="#EEF3F3" d="M250,479c-61.165,0-118.67-23.821-161.924-67.075C44.821,368.67,21,311.165,21,250
				c0-61.164,23.821-118.67,67.076-161.924S188.836,21,250,21c61.165,0,118.67,23.821,161.925,67.076
				C455.179,131.33,479,188.835,479,250s-23.821,118.67-67.075,161.925C368.67,455.179,311.165,479,250,479z"/>
			<path fill="#AB8EB8" d="M250,28c29.974,0,59.045,5.868,86.405,17.441c26.434,11.182,50.177,27.191,70.57,47.584
				c20.393,20.393,36.403,44.137,47.584,70.57C466.132,190.956,472,220.026,472,250c0,29.974-5.868,59.045-17.441,86.405
				c-11.181,26.434-27.191,50.177-47.584,70.57c-20.394,20.393-44.137,36.403-70.57,47.584C309.045,466.132,279.974,472,250,472
				c-29.974,0-59.044-5.868-86.404-17.441c-26.434-11.181-50.177-27.191-70.57-47.584c-20.394-20.394-36.403-44.137-47.584-70.57
				C33.868,309.045,28,279.974,28,250c0-29.974,5.868-59.044,17.441-86.404c11.182-26.434,27.191-50.177,47.584-70.57
				c20.393-20.394,44.137-36.403,70.57-47.584C190.956,33.868,220.026,28,250,28 M250,14C119.669,14,14,119.669,14,250
				c0,130.332,105.669,236,236,236c130.332,0,236-105.668,236-236C486,119.669,380.332,14,250,14L250,14z"/>
		</g>
	</g>
	<g>
		<g>
			<g>
				<path fill-rule="evenodd" clip-rule="evenodd" fill="#1AA9D2" d="M207.551,132.519c9.066,6.306,14.828,11.42,19.499,23.187
					c7.915,19.938,1.294,36.775-5.344,55.279c-5.912,16.484-15.549,35.659-8.642,54.022c8.508,22.616,29.051,25.575,50.285,17.609
					c8.596-3.225,16.113-8.674,19.472-2.334c5.159,9.738-18.761,16.189-26.655,17.86c-23.561,4.982-45.917-3.302-55.556-29.384
					c-6.893-18.651-0.373-35.465,5.184-51.563c5.636-16.324,14.29-31.83,11.233-49.254c-1.775-10.117-7.626-18.666-15.19-23.746
					c-12.028,18.186-22.623,36.462-30.903,56.236c-16.303,38.935-32.122,78.369-49.16,117.297
					c-8.443,19.292-16.902,38.916-28.324,56.905c2.852-21.005,10.646-40.784,17.117-60.551
					c6.513-19.892,12.961-39.754,19.867-59.502c13.742-39.298,29.745-78.065,34.955-120.513c-7.351-0.277-15.654,0.695-24.92,3.405
					c-8.141,2.382-20.974,10.952-24.5,2.306c-3.691-9.053,15.877-13.652,23.957-15.74c10.457-2.702,19.74-3.312,28.258-3.076
					c3.593-7.145,6.41-14.931,14.989-19.477C202.882,91.044,215.918,117.653,207.551,132.519z M181.136,144.802
					c13.701,5.228,24.68-19.259,16.564-30.213c-5.471-7.387-18.249-0.541-20.6,6.942c4.676,1.19,14.639,0.774,15.486,8.112
					c1.108,9.602-13.219,5.866-17.902,4.824C174.75,139.257,178.188,143.677,181.136,144.802z"/>
			</g>
			<g>
				<path fill-rule="evenodd" clip-rule="evenodd" fill="#564677" d="M207.551,132.519c9.066,6.306,14.828,11.42,19.499,23.187
					c7.915,19.938,1.294,36.775-5.344,55.279c-5.912,16.484-15.549,35.659-8.642,54.022c8.508,22.616,29.051,25.575,50.285,17.609
					c8.596-3.225,16.113-8.674,19.472-2.334c5.159,9.738-18.761,16.189-26.655,17.86c-23.561,4.982-45.917-3.302-55.556-29.384
					c-6.893-18.651-0.373-35.465,5.184-51.563c5.636-16.324,14.29-31.83,11.233-49.254c-1.775-10.117-7.626-18.666-15.19-23.746
					 M165.389,134.069c-7.351-0.277-15.654,0.695-24.92,3.405c-8.141,2.382-20.974,10.952-24.5,2.306
					c-3.691-9.053,15.877-13.652,23.957-15.74c10.457-2.702,19.74-3.312,28.258-3.076l8.917,0.567
					c4.676,1.19,14.639,0.774,15.486,8.112c1.108,9.602-13.219,5.866-17.902,4.824L165.389,134.069z"/>
			</g>
		</g>
		<rect x="271.59" y="167.17" fill="#564677" width="112.261" height="189.306"/>
		<rect x="327.72" y="167.17" fill="#3D1C5D" width="56.131" height="189.306"/>
		<g>
			<path fill="#EFA859" d="M392.104,173.011H256.731c-7.978,0-14.445-6.468-14.445-14.445c0-7.979,6.468-14.446,14.445-14.446
				h135.373c7.978,0,14.445,6.468,14.445,14.446C406.55,166.543,400.082,173.011,392.104,173.011z"/>
		</g>
		<g>
			<path fill="#EFA859" d="M392.104,370.921H256.731c-7.978,0-14.445-6.467-14.445-14.445s6.468-14.445,14.445-14.445h135.373
				c7.978,0,14.445,6.467,14.445,14.445S400.082,370.921,392.104,370.921z"/>
		</g>
		<g>
			<path fill="#BE8952" d="M342.578,173.011h49.526c7.978,0,14.445-6.468,14.445-14.445c0-7.979-6.468-14.446-14.445-14.446h-49.526
				V173.011z"/>
			<path fill="#BE8952" d="M392.104,342.03h-49.526v28.891h49.526c7.978,0,14.445-6.467,14.445-14.445
				S400.082,342.03,392.104,342.03z"/>
		</g>
	</g>
</g>
</svg>
