<?xml version="1.0" encoding="utf-8"?>
<!-- Generator: Adobe Illustrator 20.0.0, SVG Export Plug-In . SVG Version: 6.00 Build 0)  -->
<svg version="1.1" id="Layer_1" xmlns="http://www.w3.org/2000/svg" xmlns:xlink="http://www.w3.org/1999/xlink" x="0px" y="0px"
	 viewBox="0 0 295 295" enable-background="new 0 0 295 295" xml:space="preserve">
<title>Sparedusj</title>
<path fill="#D4DCE1" d="M227.52,28.08c8.09,5.91,55.51,41.75,61.53,104.79c6.14,63.89-33.58,119.53-78.74,143.21
	c-46.461,24.412-102.605,21.173-145.95-8.42c-7.14-5.26-56.59-43-60.84-110.21c-0.29-4.57-3.67-77.4,53.33-122.67
	c33.66-26.73,70.14-29.35,81.33-30C183.29,2.13,216.19,20.87,227.52,28.08z"/>
<path fill="#00676E" d="M169.27,94.08c-2.846,0.257-5.64,0.931-8.29,2c-2.853,1.156-5.511,2.744-7.88,4.71
	c-4.038,3.474-7.133,7.911-9,12.9c-2.169,5.181-3.163,10.779-2.91,16.39c1.586-9.403,5.902-18.131,12.41-25.1
	C158.034,100.326,163.365,96.618,169.27,94.08z"/>
<ellipse transform="matrix(0.9339 -0.3576 0.3576 0.9339 -39.727 65.7534)" fill="#3FA4CE" cx="157.956" cy="140.312" rx="2.98" ry="2.98"/>
<ellipse transform="matrix(0.2959 -0.9552 0.9552 0.2959 -22.7744 247.9964)" fill="#EFF3F3" cx="156.831" cy="139.446" rx="1.24" ry="1.24"/>
<path fill="#1490B2" d="M155.91,142.4c0.65,0.646,1.56,0.959,2.47,0.85c0.803-0.116,1.524-0.553,2-1.21
	c0.46-0.562,0.695-1.275,0.66-2c-0.115-1.104-0.831-2.054-1.86-2.47c0.512,1.398,0.152,2.966-0.92,4
	C157.604,142.124,156.768,142.419,155.91,142.4z"/>
<ellipse transform="matrix(0.9339 -0.3576 0.3576 0.9339 -38.5385 72.1896)" fill="#3FA4CE" cx="175.956" cy="140.316" rx="2.98" ry="2.98"/>
<ellipse transform="matrix(0.9339 -0.3576 0.3576 0.9339 -38.3076 71.7259)" fill="#EFF3F3" cx="174.818" cy="139.46" rx="1.24" ry="1.24"/>
<path fill="#1490B2" d="M173.91,142.4c0.65,0.646,1.56,0.959,2.47,0.85c0.803-0.116,1.524-0.553,2-1.21
	c0.46-0.562,0.695-1.275,0.66-2c-0.115-1.104-0.831-2.054-1.86-2.47c0.512,1.398,0.152,2.966-0.92,4
	C175.604,142.124,174.768,142.419,173.91,142.4z"/>
<ellipse transform="matrix(0.9339 -0.3576 0.3576 0.9339 -37.35 78.6259)" fill="#3FA4CE" cx="193.956" cy="140.32" rx="2.98" ry="2.98"/>
<ellipse transform="matrix(0.9339 -0.3576 0.3576 0.9339 -37.1191 78.1622)" fill="#EFF3F3" cx="192.818" cy="139.464" rx="1.24" ry="1.24"/>
<path fill="#1490B2" d="M191.91,142.4c0.65,0.646,1.56,0.959,2.47,0.85c0.803-0.116,1.524-0.553,2-1.21
	c0.46-0.562,0.695-1.275,0.66-2c-0.115-1.104-0.831-2.054-1.86-2.47c0.512,1.398,0.152,2.966-0.92,4
	C193.604,142.124,192.768,142.419,191.91,142.4z"/>
<ellipse transform="matrix(0.9339 -0.3576 0.3576 0.9339 -46.1626 66.9454)" fill="#3FA4CE" cx="157.962" cy="158.312" rx="2.98" ry="2.98"/>
<ellipse transform="matrix(0.9339 -0.3576 0.3576 0.9339 -45.9353 66.4824)" fill="#EFF3F3" cx="156.824" cy="157.466" rx="1.24" ry="1.24"/>
<path fill="#1490B2" d="M155.91,160.4c0.65,0.646,1.56,0.959,2.47,0.85c0.803-0.116,1.524-0.553,2-1.21
	c0.46-0.562,0.695-1.275,0.66-2c-0.115-1.104-0.831-2.054-1.86-2.47c0.512,1.398,0.152,2.966-0.92,4
	C157.604,160.124,156.768,160.419,155.91,160.4z"/>
<ellipse transform="matrix(0.9339 -0.3576 0.3576 0.9339 -44.9741 73.3817)" fill="#3FA4CE" cx="175.962" cy="158.316" rx="2.98" ry="2.98"/>
<ellipse transform="matrix(0.9339 -0.3576 0.3576 0.9339 -44.7432 72.918)" fill="#EFF3F3" cx="174.824" cy="157.46" rx="1.24" ry="1.24"/>
<path fill="#1490B2" d="M173.91,160.4c0.65,0.646,1.56,0.959,2.47,0.85c0.803-0.116,1.524-0.553,2-1.21
	c0.46-0.562,0.695-1.275,0.66-2c-0.115-1.104-0.831-2.054-1.86-2.47c0.512,1.398,0.152,2.966-0.92,4
	C175.604,160.124,174.768,160.419,173.91,160.4z"/>
<ellipse transform="matrix(0.9339 -0.3576 0.3576 0.9339 -43.7856 79.8179)" fill="#3FA4CE" cx="193.962" cy="158.32" rx="2.98" ry="2.98"/>
<ellipse transform="matrix(0.9339 -0.3576 0.3576 0.9339 -43.5547 79.3542)" fill="#EFF3F3" cx="192.824" cy="157.464" rx="1.24" ry="1.24"/>
<path fill="#1490B2" d="M191.91,160.4c0.65,0.646,1.56,0.959,2.47,0.85c0.803-0.116,1.524-0.553,2-1.21
	c0.46-0.562,0.695-1.275,0.66-2c-0.115-1.104-0.831-2.054-1.86-2.47c0.512,1.398,0.152,2.966-0.92,4
	C193.604,160.124,192.768,160.419,191.91,160.4z"/>
<ellipse transform="matrix(0.9339 -0.3576 0.3576 0.9339 -52.5988 68.1339)" fill="#3FA4CE" cx="157.958" cy="176.312" rx="2.98" ry="2.98"/>
<ellipse transform="matrix(0.9339 -0.3576 0.3576 0.9339 -52.3715 67.6709)" fill="#EFF3F3" cx="156.82" cy="175.466" rx="1.24" ry="1.24"/>
<path fill="#1490B2" d="M155.91,178.4c0.65,0.646,1.56,0.959,2.47,0.85c0.803-0.116,1.524-0.553,2-1.21
	c0.46-0.562,0.695-1.275,0.66-2c-0.115-1.104-0.831-2.054-1.86-2.47c0.512,1.398,0.152,2.966-0.92,4
	C157.604,178.124,156.768,178.419,155.91,178.4z"/>
<ellipse transform="matrix(0.9339 -0.3576 0.3576 0.9339 -51.4103 74.5702)" fill="#3FA4CE" cx="175.958" cy="176.316" rx="2.98" ry="2.98"/>
<ellipse transform="matrix(0.9339 -0.3576 0.3576 0.9339 -51.1794 74.1065)" fill="#EFF3F3" cx="174.82" cy="175.46" rx="1.24" ry="1.24"/>
<path fill="#1490B2" d="M173.91,178.4c0.65,0.646,1.56,0.959,2.47,0.85c0.803-0.116,1.524-0.553,2-1.21
	c0.46-0.562,0.695-1.275,0.66-2c-0.115-1.104-0.831-2.054-1.86-2.47c0.512,1.398,0.152,2.966-0.92,4
	C175.604,178.124,174.768,178.419,173.91,178.4z"/>
<ellipse transform="matrix(0.9339 -0.3576 0.3576 0.9339 -50.2218 81.0064)" fill="#3FA4CE" cx="193.958" cy="176.32" rx="2.98" ry="2.98"/>
<ellipse transform="matrix(0.9339 -0.3576 0.3576 0.9339 -49.991 80.5427)" fill="#EFF3F3" cx="192.82" cy="175.464" rx="1.24" ry="1.24"/>
<path fill="#1490B2" d="M191.91,178.4c0.65,0.646,1.56,0.959,2.47,0.85c0.803-0.116,1.524-0.553,2-1.21
	c0.46-0.562,0.695-1.275,0.66-2c-0.115-1.104-0.831-2.054-1.86-2.47c0.512,1.398,0.152,2.966-0.92,4
	C193.604,178.124,192.768,178.419,191.91,178.4z"/>
<path fill="#1490B2" d="M226.89,28.29c-7.38-5.16-56.43-38.25-117-21.36c-56,15.61-98.83,66-105.79,124.54
	c-6.284,52.089,16.723,103.388,59.8,133.34L226.89,28.29z"/>
<path fill="#00676E" d="M148.04,71.61c-3.8-0.65-7.675-0.738-11.5-0.26c-4.076,0.499-8.047,1.646-11.76,3.4
	c-7.51,3.62-11.68,9.14-15.16,13.85c-7.57,10.25-10.37,20.11-12.3,27.16c-1.936,7.644-3.165,15.451-3.67,23.32
	c-0.35,5.67-0.27,12-0.27,12c0,0.92,0,1.63,0,2.07c0.33,14,0.47,60.65,0.52,127l-1.75-0.44V137.96c0,0-0.5-29.12,16.75-51.75
	c4-5.28,10.79-12.59,21.18-14.9s21.42,1.22,21.44,1C150.374,72.01,149.212,71.776,148.04,71.61z"/>
<path fill="#00676E" d="M171.03,99.79c-0.24-1.83-1.77-12.15-11-18.76c-7.074-4.899-15.998-6.295-24.23-3.79
	c4.937-0.536,9.931,0.048,14.61,1.71C164.46,84,170.02,97.25,171.03,99.79z"/>
<path fill="none" stroke="#01737B" stroke-width="6" stroke-miterlimit="10" d="M177.34,126.74c0-36-12.27-52.9-36.74-52.9
	s-44.32,29.17-44.32,65.15V279.9"/>
<circle fill="none" stroke="#F4B70C" stroke-width="5" stroke-miterlimit="10" cx="147.06" cy="147.28" r="143.48"/>
<circle fill="none" stroke="#F27A0F" stroke-width="3" stroke-miterlimit="10" cx="147.5" cy="147.5" r="146"/>
<path fill="#01737B" d="M212.19,130.08h-71c0-1.8,0.24-20.5,15.35-30.76c6.061-4.018,13.222-6.049,20.49-5.81"/>
<path fill="#01737B" d="M141.19,130.08h71c0,0-0.87-36.57-35.84-36.57"/>
<circle fill="#FFFFFF" cx="199.26" cy="108.04" r="2.98"/>
<ellipse transform="matrix(0.9339 -0.3576 0.3576 0.9339 -25.2253 78.0071)" fill="#EFF3F3" cx="198.345" cy="107.222" rx="1.24" ry="1.24"/>
</svg>
