<?xml version="1.0" encoding="utf-8"?>
<!-- Generator: Adobe Illustrator 19.2.1, SVG Export Plug-In . SVG Version: 6.00 Build 0)  -->
<svg version="1.1" id="Graphics" xmlns="http://www.w3.org/2000/svg" xmlns:xlink="http://www.w3.org/1999/xlink" x="0px" y="0px"
	 viewBox="0 0 500 500" style="enable-background:new 0 0 500 500;" xml:space="preserve">
<style type="text/css">
	.st0{fill:#564677;}
	.st1{fill:#EEF3F3;}
	.st2{fill:#AB8EB8;}
	.st3{fill:#E45C5E;}
	.st4{fill:#BBCED0;}
	.st5{fill:#1E4A54;}
	.st6{fill:#F7F9F9;}
	.st7{fill:#FFFFFF;}
	.st8{fill:#AD4F49;}
	.st9{fill:#ED8C7A;}
</style>
<g>
	<g>
		<g>
			<g>
				<path class="st0" d="M250,14c31.9,0,62.8,6.2,91.9,18.5c28.1,11.9,53.3,28.9,75,50.6c21.7,21.7,38.7,46.9,50.6,75
					c12.3,29.1,18.5,60,18.5,91.9s-6.2,62.8-18.5,91.9c-11.9,28.1-28.9,53.3-50.6,75c-21.7,21.7-46.9,38.7-75,50.6
					c-29.1,12.3-60,18.5-91.9,18.5s-62.8-6.2-91.9-18.5c-28.1-11.9-53.3-28.9-75-50.6c-21.7-21.7-38.7-46.9-50.6-75
					C20.2,312.8,14,281.9,14,250s6.2-62.8,18.5-91.9c11.9-28.1,28.9-53.3,50.6-75c21.7-21.7,46.9-38.7,75-50.6
					C187.2,20.2,218.1,14,250,14 M250,0C111.9,0,0,111.9,0,250c0,138.1,111.9,250,250,250s250-111.9,250-250
					C500,111.9,388.1,0,250,0L250,0z"/>
			</g>
		</g>
		<g>
			<g>
				<path class="st1" d="M250,479c-61.2,0-118.7-23.8-161.9-67.1C44.8,368.7,21,311.2,21,250c0-61.2,23.8-118.7,67.1-161.9
					S188.8,21,250,21c61.2,0,118.7,23.8,161.9,67.1C455.2,131.3,479,188.8,479,250s-23.8,118.7-67.1,161.9
					C368.7,455.2,311.2,479,250,479z"/>
			</g>
			<g>
				<path class="st2" d="M250,28c30,0,59,5.9,86.4,17.4C362.8,56.6,386.6,72.6,407,93s36.4,44.1,47.6,70.6
					C466.1,191,472,220,472,250s-5.9,59-17.4,86.4c-11.2,26.4-27.2,50.2-47.6,70.6c-20.4,20.4-44.1,36.4-70.6,47.6
					C309,466.1,280,472,250,472s-59-5.9-86.4-17.4c-26.4-11.2-50.2-27.2-70.6-47.6c-20.4-20.4-36.4-44.1-47.6-70.6
					C33.9,309,28,280,28,250s5.9-59,17.4-86.4C56.6,137.2,72.6,113.4,93,93c20.4-20.4,44.1-36.4,70.6-47.6C191,33.9,220,28,250,28
					 M250,14C119.7,14,14,119.7,14,250c0,130.3,105.7,236,236,236c130.3,0,236-105.7,236-236C486,119.7,380.3,14,250,14L250,14z"/>
			</g>
		</g>
	</g>
	<g>
		<g>
			<g>
				<path class="st3" d="M240.6,364l-106-102.2c-1.4-1.2-38.7-35.3-38.7-76.1c0-49.8,30.4-79.5,81.2-79.5c29.7,0,57.6,23.4,71,36.7
					c13.4-13.2,41.3-36.7,71-36.7c50.8,0,81.2,29.7,81.2,79.5c0,40.8-37.4,74.9-38.9,76.4L255.5,364c-2,2-4.8,3.1-7.5,3.1
					S242.6,366,240.6,364z"/>
			</g>
		</g>
		<g>
			<path class="st4" d="M260.8,425.2c54.9,0,99.4-5.2,99.4-11.7c0-6.5-44.5-11.7-99.4-11.7c-54.9,0-99.4,5.2-99.4,11.7
				C161.4,419.9,205.9,425.2,260.8,425.2"/>
		</g>
		<g>
			<path class="st3" d="M213.1,329.1c0.5,18.2,0.4,36.6,1.8,42.2c1.8,7.1,11.3,30.6,9.6,32.4c-3.6,3.7-20,4.2-19.9,7.8
				c0.1,3.6,25.6,1.2,29.2,1.1s-4.1-32.4-4.4-43.3c-0.3-10.9,4-30.8,12.8-45.6C245,318.9,213.1,329.1,213.1,329.1"/>
		</g>
		<g>
			<path class="st3" d="M288.7,329.1c-0.5,18.2-0.4,36.6-1.8,42.2c-1.8,7.1-11.3,30.6-9.6,32.4c3.6,3.7,20,4.2,19.9,7.8
				c-0.1,3.6-25.6,1.2-29.2,1.1c-3.6-0.1,4.1-32.4,4.4-43.3c0.3-10.9-4-30.8-12.8-45.6C256.8,318.9,288.7,329.1,288.7,329.1"/>
		</g>
		<g>
			<g id="Eye_6_">
				<g>
					<g>
						<path class="st5" d="M313.7,222.2c-1.8-13.5-14.1-22.8-27.5-21c-13.4,1.8-22.8,14.1-21,27.5c1.8,13.4,14.1,22.8,27.5,21
							C306,248,315.5,235.6,313.7,222.2z"/>
					</g>
				</g>
				<g>
					<g>
						<path class="st6" d="M289.3,252.5c-5.9,0-11.6-1.9-16.3-5.5c-5.7-4.4-9.4-10.7-10.4-17.9c-2-14.8,8.4-28.4,23.2-30.3
							c7.2-1,14.3,0.9,20,5.3c5.7,4.4,9.4,10.7,10.4,17.9c1,7.1-0.9,14.2-5.3,20c-4.4,5.7-10.7,9.4-17.9,10.4
							C291.7,252.4,290.5,252.5,289.3,252.5z M289.4,203.5c-1,0-2,0.1-3,0.2c-12,1.6-20.5,12.7-18.9,24.7c0.8,5.8,3.8,11,8.5,14.6
							c4.7,3.6,10.5,5.1,16.3,4.3c5.8-0.8,11-3.8,14.6-8.4c3.6-4.7,5.1-10.5,4.3-16.3l0,0c-0.8-5.8-3.8-11-8.4-14.6
							C298.9,205,294.2,203.5,289.4,203.5z"/>
					</g>
				</g>
			</g>
			<g id="Eye_5_">
				<g>
					<g>
						<path class="st7" d="M304.5,216.6c-0.5-4-4.2-6.7-8.1-6.2c-3.9,0.5-6.7,4.2-6.2,8.1c0.5,3.9,4.2,6.7,8.1,6.2
							C302.3,224.2,305.1,220.5,304.5,216.6z"/>
					</g>
				</g>
			</g>
			<g id="Eye_4_">
				<g>
					<g>
						<path class="st7" d="M286.5,219.6c-0.3-1.9-2-3.3-4-3c-1.9,0.3-3.3,2-3,4c0.3,1.9,2,3.3,4,3
							C285.4,223.3,286.7,221.5,286.5,219.6z"/>
					</g>
				</g>
			</g>
		</g>
		<g>
			<g id="Eye_3_">
				<g>
					<g>
						<path class="st5" d="M228.5,222.2c-1.8-13.5-14.1-22.8-27.6-21c-13.4,1.8-22.8,14.1-21,27.5c1.8,13.4,14.1,22.8,27.5,21
							C220.9,248,230.3,235.6,228.5,222.2z"/>
					</g>
				</g>
				<g>
					<g>
						<path class="st6" d="M204.2,252.5c-5.9,0-11.6-1.9-16.3-5.5c-5.7-4.4-9.4-10.7-10.4-17.9c-2-14.8,8.4-28.4,23.2-30.3
							c7.2-1,14.3,0.9,20,5.3c5.7,4.4,9.4,10.7,10.4,17.9c1,7.1-0.9,14.2-5.3,20c-4.4,5.7-10.7,9.4-17.9,10.4
							C206.6,252.4,205.4,252.5,204.2,252.5z M204.3,203.5c-1,0-2,0.1-3,0.2c-12,1.6-20.5,12.7-18.9,24.7c0.8,5.8,3.8,11,8.5,14.6
							c4.7,3.6,10.5,5.1,16.3,4.3c5.8-0.8,11-3.8,14.6-8.4c3.6-4.7,5.1-10.5,4.3-16.3l0,0c-0.8-5.8-3.8-11-8.4-14.6
							C213.7,205,209.1,203.5,204.3,203.5z"/>
					</g>
				</g>
			</g>
			<g id="Eye_2_">
				<g>
					<g>
						<path class="st7" d="M219.4,216.6c-0.5-4-4.2-6.7-8.1-6.2c-3.9,0.5-6.7,4.2-6.2,8.1c0.5,3.9,4.2,6.7,8.1,6.2
							C217.1,224.2,219.9,220.5,219.4,216.6z"/>
					</g>
				</g>
			</g>
			<g id="Eye_1_">
				<g>
					<g>
						<path class="st7" d="M201.3,219.6c-0.3-1.9-2-3.3-4-3c-1.9,0.3-3.3,2-3,4c0.3,1.9,2,3.3,4,3
							C200.2,223.3,201.6,221.5,201.3,219.6z"/>
					</g>
				</g>
			</g>
		</g>
		<g>
			<ellipse class="st3" cx="205" cy="254.2" rx="35.7" ry="14.4"/>
		</g>
		<g>
			<ellipse class="st3" cx="289.4" cy="254.2" rx="35.7" ry="14.4"/>
		</g>
		<g>
			<path class="st8" d="M297.6,183.4c12.6,3.4,23,9.9,29.7,17.5c-2.7-9.7-13.5-19.1-28.2-23.1c-14.7-4-28.8-1.4-36,5.6
				C272.8,180.3,285,180,297.6,183.4z"/>
		</g>
		<g>
			<path class="st8" d="M192.8,183.4c-12.6,3.4-23,9.9-29.7,17.5c2.7-9.7,13.5-19.1,28.2-23.1c14.7-4,28.8-1.4,36,5.6
				C217.7,180.3,205.4,180,192.8,183.4z"/>
		</g>
		<g>
			<path class="st9" d="M163,129.9c-4.5-6.7-18.3-5.2-30.8,3.3c-12.5,8.5-18.9,20.8-14.4,27.4c4.5,6.7,18.3,5.2,30.8-3.3
				C161.1,148.9,167.5,136.6,163,129.9z"/>
		</g>
		<g>
			
				<ellipse transform="matrix(0.9543 -0.2987 0.2987 0.9543 -24.1723 97.5925)" class="st9" cx="307.2" cy="127.9" rx="14.5" ry="8"/>
		</g>
		<g>
			<path class="st9" d="M334.9,123.6c0.6-2.4-0.9-4.9-3.4-5.6c-2.5-0.7-5.1,0.7-5.7,3.1c-0.6,2.4,0.9,4.9,3.4,5.6
				C331.7,127.4,334.3,126,334.9,123.6z"/>
		</g>
		<g>
			
				<ellipse transform="matrix(0.2561 -0.9666 0.9666 0.2561 8.9183 256.9065)" class="st9" cx="171.4" cy="122.7" rx="4.5" ry="4.8"/>
		</g>
	</g>
</g>
</svg>
