<?xml version="1.0" encoding="utf-8"?>
<!-- Generator: Adobe Illustrator 20.0.0, SVG Export Plug-In . SVG Version: 6.00 Build 0)  -->
<svg version="1.1" id="Graphics" xmlns="http://www.w3.org/2000/svg" xmlns:xlink="http://www.w3.org/1999/xlink" x="0px" y="0px"
	 viewBox="0 0 500 500" enable-background="new 0 0 500 500" xml:space="preserve">
<g>
	<g>
		<g>
			<path fill="#366842" d="M250,14c31.866,0,62.771,6.238,91.857,18.54c28.101,11.886,53.341,28.904,75.02,50.583
				s38.697,46.919,50.583,75.02C479.762,187.229,486,218.134,486,250s-6.238,62.771-18.54,91.857
				c-11.886,28.101-28.904,53.341-50.583,75.02c-21.678,21.678-46.919,38.697-75.02,50.583C312.771,479.762,281.866,486,250,486
				s-62.771-6.238-91.857-18.54c-28.101-11.886-53.341-28.904-75.02-50.583c-21.678-21.678-38.697-46.919-50.583-75.02
				C20.238,312.771,14,281.866,14,250s6.238-62.771,18.54-91.857c11.886-28.101,28.904-53.341,50.583-75.02
				c21.679-21.678,46.919-38.697,75.02-50.583C187.229,20.238,218.134,14,250,14 M250,0C111.93,0,0,111.93,0,250s111.93,250,250,250
				s250-111.93,250-250S388.07,0,250,0L250,0z"/>
		</g>
		<g>
			<path fill="#EEF3F3" d="M250,479c-61.165,0-118.67-23.821-161.924-67.075C44.821,368.67,21,311.165,21,250
				c0-61.164,23.821-118.67,67.076-161.924S188.836,21,250,21c61.165,0,118.67,23.821,161.925,67.076
				C455.179,131.33,479,188.835,479,250s-23.821,118.67-67.075,161.925C368.67,455.179,311.165,479,250,479z"/>
			<path fill="#8CB61D" d="M250,28c29.974,0,59.045,5.868,86.405,17.441c26.434,11.181,50.177,27.191,70.57,47.584
				c20.393,20.393,36.403,44.137,47.584,70.57C466.132,190.956,472,220.026,472,250c0,29.974-5.868,59.045-17.441,86.405
				c-11.181,26.434-27.191,50.177-47.584,70.57c-20.393,20.393-44.136,36.403-70.57,47.584C309.045,466.132,279.974,472,250,472
				c-29.974,0-59.044-5.868-86.404-17.441c-26.434-11.181-50.177-27.191-70.57-47.584c-20.393-20.393-36.403-44.137-47.584-70.57
				C33.868,309.045,28,279.974,28,250c0-29.974,5.868-59.044,17.441-86.404c11.181-26.434,27.191-50.177,47.584-70.57
				c20.393-20.393,44.137-36.403,70.57-47.584C190.956,33.868,220.026,28,250,28 M250,14C119.669,14,14,119.669,14,250
				c0,130.332,105.669,236,236,236c130.332,0,236-105.668,236-236C486,119.669,380.332,14,250,14L250,14z"/>
		</g>
	</g>
	<g>
		<path fill="#EEF3F3" d="M250,363c-62.309,0-113-50.691-113-113s50.691-113,113-113s113,50.691,113,113S312.309,363,250,363z"/>
		<path fill="#B3C589" d="M250,144c58.449,0,106,47.551,106,106s-47.551,106-106,106s-106-47.551-106-106S191.551,144,250,144
			 M250,130c-66.27,0-120,53.73-120,120c0,66.271,53.73,120,120,120c66.271,0,120-53.729,120-120C370,183.73,316.271,130,250,130
			L250,130z"/>
	</g>
	<g>
		<path fill="#B3C589" d="M330.433,99.697c-0.938,27.653-3.904,52.776-4.854,60.469c-4.464,0.354-9.402,1.094-14.675,2.087
			c-3.343-1.47-6.729-2.841-10.324-3.916c-0.643-0.198-1.276-0.296-1.919-0.467c-2.929-0.642-5.802-1.28-8.418-1.87
			c-11.878-2.014-23.61-1.47-34.469,1.302c-0.138,0.249-0.395,0.418-0.46,0.699c-0.979,4.109-11.736,18.66-19.29,28.535
			c-6.686,2.909-13.303,5.931-19.765,9.12c-1.348-0.727-2.961-1.369-5.162-1.471c-6.45-0.363-20.089-27.75-23.515-18.982
			c-2.439,6.156-19.387,39.211-29.221,58.234c-0.729,0.703-1.624,1.364-2.318,2.072c-0.955,0.951-1.734,2.124-2.638,3.132
			c-41.669,46.831-24.279,150.179-24.279,150.179s103.34,13.612,148.581-31.663c5.935-5.925,11.612-13.089,16.983-20.978
			c-2.435,3.486-4.87,6.802-7.316,9.867c7.378-9.277,14.756-20.646,21.748-33.068l7.292,0.612c0,0,8.44-27.462,10.827-37.109
			c0.563-1.288,1.16-2.546,1.72-3.835c9.929-8.335,23.9-20.448,28.424-26.324c0.562-6.937,0.811-6.84,0.756-13.92
			c-0.084-11.204-3.904-22.871-6.573-29.639c1.313-6.813,2.1-13.065,2.321-18.535c7.13-1.164,28.703-4.422,55.729-5.357
			c33.138-1.136,21.724-5.725,21.724-5.725s-37.283-24.718-55.689-39.476c-14.757-18.408-39.478-55.673-39.478-55.673
			S331.59,66.557,330.433,99.697z"/>
		<path fill="#91D2E4" d="M125.7,237.9c0,0,34.832-67.004,38.492-76.333c3.655-9.305,18.131,19.806,25.001,20.196
			c6.867,0.381,9.552,4.969,9.552,4.969l-10.294,3.007L125.7,237.9z"/>
		<path fill="#91D2E4" d="M279.603,152.434l16.152-4.395c-3.668-1.651-7.429-3.159-11.428-4.351
			c-0.685-0.202-1.342-0.321-2.032-0.491c-3.103-0.672-6.178-1.328-8.951-1.975c-12.623-2.149-25.095-1.604-36.635,1.35
			c-0.166,0.268-0.433,0.459-0.501,0.753c-1.624,6.758-28.356,40.438-28.356,40.438L279.603,152.434z"/>
		<path fill="#91D2E4" d="M332.281,201.77l-29.071,72.697c0,0,33.77-27.206,41.505-37.266c0.613-7.351,0.852-7.299,0.811-14.811
			c-0.127-16.146-7.555-33.279-9.316-36.889L332.281,201.77z"/>
		<path fill="#91D2E4" d="M364.123,117.461c-15.685-19.569-41.958-59.185-41.958-59.185s-4.883-12.155-6.098,23.058
			c-1.205,35.26-5.539,67.082-5.539,67.082l18.223,4.434l9.347,18.858c0,0,26.9-4.971,62.137-6.197
			c35.213-1.218,23.078-6.086,23.078-6.086S383.712,133.128,364.123,117.461z"/>
		<path fill="#1AA9D2" d="M130.691,225.704c-1.006,1.034-1.848,2.253-2.813,3.342c1.649,0.198,3.164,0.547,4.648,0.869
			c0.068,0,0.097,0.027,0.097,0.014c0.77,0.194,1.553,0.363,2.322,0.585c34.524,7.148,67.443,24.005,94.251,50.794
			c18.271,18.272,31.979,39.404,41.101,61.926c43.169-54.221,85.607-173.832,65.8-193.585
			C316.575,130.107,178.81,177.599,130.691,225.704z"/>
		<path fill="#FFFFFF" d="M208.455,270.395l15.456,5.889c0,0,95.567-97.135,112.185-126.635
			C336.096,149.648,287.563,186.438,208.455,270.395z"/>
		<path fill="#91D2E4" d="M270.296,343.233c-9.121-22.521-22.83-43.654-41.101-61.926c-26.808-26.789-59.736-43.659-94.251-50.794
			c-0.768-0.222-1.538-0.391-2.322-0.585c0,0.014-0.028-0.014-0.097-0.014c-1.484-0.322-2.999-0.685-4.646-0.869
			c-44.3,49.798-25.816,159.65-25.816,159.65s109.847,14.464,157.965-33.644c6.31-6.322,12.35-13.93,18.036-22.325
			C275.472,336.447,272.913,339.975,270.296,343.233z"/>
		
			<ellipse fill="#1E4A54" stroke="#FFFFFF" stroke-width="0.1" stroke-miterlimit="10" cx="152.66" cy="306.276" rx="17.046" ry="17.052"/>
		<path fill="#FFFFFF" d="M146.064,301.857c2.91,0,5.271,2.366,5.271,5.272c0,2.915-2.36,5.273-5.271,5.273
			c-2.909,0-5.271-2.358-5.271-5.273C140.792,304.224,143.155,301.857,146.064,301.857z"/>
		<path fill="#91D2E4" d="M312.807,266.396c-3.595,7.258-67.395,21.345-67.395,21.345l13.066,17.516l42.711,3.438
			C301.177,308.693,316.43,259.149,312.807,266.396z"/>
	</g>
</g>
<g>
</g>
<g>
</g>
<g>
</g>
<g>
</g>
<g>
</g>
<g>
</g>
<g>
</g>
<g>
</g>
<g>
</g>
<g>
</g>
<g>
</g>
<g>
</g>
<g>
</g>
<g>
</g>
<g>
</g>
</svg>
