<?xml version="1.0" encoding="utf-8"?>
<!-- Generator: Adobe Illustrator 15.0.0, SVG Export Plug-In . SVG Version: 6.00 Build 0)  -->
<!DOCTYPE svg PUBLIC "-//W3C//DTD SVG 1.1//EN" "http://www.w3.org/Graphics/SVG/1.1/DTD/svg11.dtd">
<svg version="1.1" id="Graphics" xmlns="http://www.w3.org/2000/svg" xmlns:xlink="http://www.w3.org/1999/xlink" x="0px" y="0px"
	 width="500px" height="500px" viewBox="0 0 500 500" enable-background="new 0 0 500 500" xml:space="preserve">
<g>
	<g>
		<g>
			<path fill="#366842" d="M250,14c31.866,0,62.771,6.238,91.857,18.541c28.101,11.886,53.341,28.904,75.02,50.583
				c21.679,21.678,38.697,46.919,50.583,75.02C479.762,187.229,486,218.134,486,250s-6.238,62.771-18.54,91.857
				c-11.886,28.101-28.904,53.341-50.583,75.02c-21.678,21.678-46.918,38.697-75.02,50.583C312.771,479.762,281.866,486,250,486
				s-62.771-6.238-91.857-18.541c-28.101-11.886-53.341-28.904-75.02-50.583c-21.678-21.679-38.697-46.919-50.583-75.02
				C20.238,312.771,14,281.866,14,250s6.238-62.771,18.541-91.857c11.886-28.101,28.904-53.341,50.583-75.02
				c21.679-21.678,46.919-38.697,75.02-50.583C187.229,20.238,218.134,14,250,14 M250,0C111.93,0,0,111.93,0,250s111.93,250,250,250
				s250-111.93,250-250S388.07,0,250,0L250,0z"/>
		</g>
		<g>
			<path fill="#EEF3F3" d="M250,479c-61.165,0-118.67-23.821-161.924-67.075C44.821,368.67,21,311.165,21,250
				c0-61.164,23.821-118.67,67.076-161.924S188.836,21,250,21c61.165,0,118.67,23.821,161.924,67.076
				C455.178,131.33,479,188.835,479,250s-23.821,118.671-67.075,161.925C368.67,455.179,311.165,479,250,479z"/>
			<path fill="#8CB61D" d="M250,28c29.974,0,59.044,5.868,86.405,17.441c26.434,11.182,50.177,27.191,70.57,47.584
				c20.394,20.393,36.403,44.136,47.584,70.57C466.131,190.956,472,220.026,472,250c0,29.974-5.868,59.045-17.441,86.405
				c-11.181,26.434-27.19,50.177-47.584,70.57c-20.393,20.393-44.136,36.403-70.57,47.584C309.045,466.132,279.974,472,250,472
				c-29.974,0-59.044-5.868-86.404-17.441c-26.434-11.181-50.177-27.191-70.57-47.584c-20.394-20.394-36.403-44.137-47.584-70.57
				C33.868,309.045,28,279.974,28,250c0-29.974,5.868-59.044,17.441-86.404c11.182-26.434,27.191-50.177,47.584-70.57
				c20.393-20.394,44.137-36.403,70.57-47.584C190.956,33.868,220.026,28,250,28 M250,14C119.669,14,14,119.669,14,250
				c0,130.332,105.669,236,236,236c130.332,0,236-105.668,236-236C486,119.669,380.332,14,250,14L250,14z"/>
		</g>
	</g>
	<g>
		<path fill="#EEF3F3" d="M250,363c-62.309,0-113-50.691-113-113s50.691-113,113-113s113,50.691,113,113S312.309,363,250,363z"/>
		<path fill="#B3C589" d="M250,144c58.449,0,106,47.551,106,106s-47.551,106-106,106s-106-47.551-106-106S191.551,144,250,144
			 M250,130c-66.27,0-120,53.73-120,120c0,66.271,53.73,120,120,120c66.271,0,120-53.729,120-120C370,183.73,316.271,130,250,130
			L250,130z"/>
	</g>
	<g>
		<path fill="#B3C589" d="M399.763,233.595c-9.235,28.158-36.111,18.043-38.112,16.856c-2-1.229-18.229-17.104-21.665-21.651
			c-2.205-2.933-10.278-6.147-16.362-8.078c-0.433,0.057-0.826,0.085-1.27,0.182c-2.408,0.385-14.505,3.375-13.547,5.58
			c1.078,2.495,5.414,4.872,7.066,7.069c6.061,7.938,19.272,25.938,14.672,40.549c-1.51,4.768-14.672,11.23-22.409,17.238
			c-7.281-4.934-9.33-12.514-19.979-14.967c3.425,6.452,7.737,12.296,9.031,22.893c-13.113,9.605-26.253,22.216-44.338,27.026
			c-5.331-5.25-8.745-14.442-17.631-16.219c2.587,7.205,7.377,12.384,8.359,21.178c-29.727,15.562-89.014,59.581-107.074,57.543
			c-1.115-5.653,0.695-10.477,2.958-17.699c8.778-27.411,48.003-80.085,60.866-100.315c1.043-1.641,2.228-3.046,3.415-3.541
			c15.414-0.317,22.994,5.25,32.746,10.391c-2.946-11.536-17.655-19.124-26.505-23.721c8.861-19.058,32.936-54.892,43.512-55.487
			c23.224,0.254,34.171,11.457,48.197,20.569c3.783-5.212,5.797-12.325,5.461-19.05c-0.37-1.144-0.768-2.219-1.318-3.166
			c-2.946-5.527-20.636-18.541-21.403-18.774c-0.729-0.219-37.606-36.343,4.984-43.548c42.579-7.21,43.824,32.04,41.572,45.022
			c-0.586,3.447-1.377,6.493-2.264,9.095c-0.814,3.171-1.844,6.246-3.127,9.235c1.126-1.158,2.12-2.416,3.019-3.77
			c4.312-9.695,12.396-29.458,21.571-39.587c10.732-11.783,24.673-24.082,43.345-12.776c18.71,11.356-11.699,38.988-19.678,42.599
			c-6.838,3.103-28.231,11.924-40.255,17.82c0.729-0.098,1.426-0.206,2.167-0.375c2.493-0.921,5.33-1.935,8.276-2.794
			c1.008-0.345,1.989-0.636,2.937-0.828c2.646-0.717,5.258-1.31,7.699-1.545C365.641,195.366,408.973,205.469,399.763,233.595"/>
		<path fill="#EFA016" d="M292.674,210.374c1.08,2.495,5.414,4.864,7.066,7.068c6.074,7.897,19.271,25.926,14.686,40.519
			c-1.522,4.796-14.697,11.258-22.409,17.271c-7.281-4.948-9.33-12.516-19.979-14.983c3.438,6.466,7.714,12.278,9.031,22.909
			c-13.103,9.603-26.253,22.229-44.338,26.98c-5.342-5.244-8.743-14.415-17.629-16.194c2.574,7.251,7.363,12.405,8.347,21.225
			c-29.703,15.519-89.003,59.579-107.063,57.496c-1.127-5.606,0.682-10.434,2.945-17.652c8.768-27.411,48.016-80.085,60.866-100.35
			c1.055-1.637,2.229-3.007,3.438-3.55c15.391-0.292,22.974,5.249,32.721,10.422c-2.945-11.525-17.64-19.147-26.49-23.721
			c8.86-19.082,32.936-54.879,43.499-55.515c23.225,0.247,34.185,11.451,48.197,20.603"/>
		<path fill="#BE8952" d="M299.741,217.442c6.061,7.911,19.26,25.94,14.686,40.519c-1.522,4.796-14.697,11.258-22.434,17.271
			c-7.259-4.934-9.329-12.516-19.955-14.97c3.414,6.452,7.714,12.255,9.031,22.896c-13.103,9.603-26.265,22.229-44.35,26.98
			c-5.318-5.244-8.73-14.4-17.617-16.208c2.574,7.265,7.363,12.419,8.347,21.226c-29.728,15.531-89.003,59.578-107.087,57.504"/>
		<path fill="#366842" d="M383.618,217.484c-9.223,28.135-36.1,17.999-38.1,16.856c-2-1.228-18.217-17.117-21.679-21.65
			c-2.18-2.938-10.265-6.148-16.349-8.077c-0.431,0.055-0.814,0.083-1.257,0.136c-2.433,0.429-14.506,3.421-13.56,5.625
			l-7.114-7.483c3.773-5.254,5.809-12.321,5.462-19.046c-0.371-1.145-0.768-2.219-1.306-3.173
			c-2.969-5.554-20.649-18.533-21.403-18.767c-0.742-0.253-37.62-36.344,4.959-43.568c42.578-7.213,43.836,32.032,41.597,45.012
			c-0.611,3.476-1.389,6.521-2.263,9.126c-0.84,3.158-1.845,6.199-3.14,9.195c1.137-1.119,2.122-2.416,3.019-3.739
			c4.301-9.695,12.396-29.453,21.571-39.615c10.743-11.784,24.684-24.07,43.347-12.741c18.719,11.33-11.702,38.989-19.679,42.601
			c-6.853,3.067-28.242,11.877-40.268,17.833c0.719-0.111,1.412-0.22,2.167-0.399c2.493-0.908,5.332-1.958,8.276-2.839
			c1.007-0.288,1.989-0.577,2.947-0.809c2.635-0.68,5.245-1.26,7.689-1.507C349.52,179.212,392.851,189.344,383.618,217.484"/>
	</g>
</g>
</svg>
