<?xml version="1.0" encoding="utf-8"?>
<!-- Generator: Adobe Illustrator 20.0.0, SVG Export Plug-In . SVG Version: 6.00 Build 0)  -->
<svg version="1.1" id="Graphics" xmlns="http://www.w3.org/2000/svg" xmlns:xlink="http://www.w3.org/1999/xlink" x="0px" y="0px"
	 viewBox="0 0 500 500" enable-background="new 0 0 500 500" xml:space="preserve">
<g>
	<g>
		<g>
			<g>
				<path fill="#564677" d="M250,14c31.866,0,62.771,6.238,91.857,18.54c28.101,11.886,53.341,28.904,75.02,50.583
					c21.678,21.678,38.697,46.919,50.583,75.02C479.762,187.229,486,218.134,486,250c0,31.866-6.238,62.771-18.54,91.857
					c-11.886,28.101-28.904,53.341-50.583,75.02c-21.678,21.678-46.919,38.697-75.02,50.583C312.771,479.762,281.866,486,250,486
					s-62.771-6.238-91.857-18.54c-28.101-11.886-53.341-28.904-75.02-50.583c-21.678-21.678-38.697-46.919-50.583-75.02
					C20.238,312.771,14,281.866,14,250c0-31.866,6.238-62.771,18.54-91.857c11.886-28.101,28.904-53.341,50.583-75.02
					c21.678-21.678,46.919-38.697,75.02-50.583C187.229,20.238,218.134,14,250,14 M250,0C111.93,0,0,111.929,0,250
					c0,138.07,111.93,250,250,250s250-111.93,250-250C500,111.929,388.07,0,250,0L250,0z"/>
			</g>
			<g>
				<path fill="#EEF3F3" d="M250,479c-61.165,0-118.67-23.821-161.924-67.075C44.821,368.67,21,311.165,21,250
					c0-61.164,23.821-118.67,67.076-161.924S188.836,21,250,21c61.165,0,118.67,23.821,161.925,67.076
					C455.179,131.33,479,188.836,479,250c0,61.165-23.821,118.67-67.075,161.925C368.67,455.179,311.165,479,250,479z"/>
				<path fill="#AB8EB8" d="M250,28c29.974,0,59.045,5.868,86.405,17.441c26.434,11.181,50.177,27.191,70.57,47.584
					s36.403,44.137,47.584,70.57C466.132,190.956,472,220.026,472,250c0,29.974-5.868,59.045-17.441,86.405
					c-11.181,26.434-27.191,50.177-47.584,70.57c-20.393,20.393-44.136,36.403-70.57,47.584C309.045,466.132,279.974,472,250,472
					c-29.974,0-59.044-5.868-86.404-17.441c-26.434-11.181-50.177-27.191-70.57-47.584c-20.393-20.393-36.403-44.137-47.584-70.57
					C33.868,309.045,28,279.974,28,250c0-29.974,5.868-59.044,17.441-86.404c11.181-26.434,27.191-50.177,47.584-70.57
					c20.393-20.393,44.137-36.403,70.57-47.584C190.956,33.868,220.026,28,250,28 M250,14C119.669,14,14,119.669,14,250
					c0,130.332,105.669,236,236,236c130.332,0,236-105.668,236-236C486,119.669,380.332,14,250,14L250,14z"/>
			</g>
		</g>
	</g>
	<g>
		<g>
			<path fill-rule="evenodd" clip-rule="evenodd" fill="#D8E3E2" d="M273.891,165.083c-2.751,4.538-5.55,9.355-8.377,14.196
				c-1.392,2.377-2.921,4.63-3.813,7.512c-0.873,2.823-1.458,6.209-1.058,9.935c0.542,5.042,2.929,8.291,6.256,10.712
				c1.076,0.781,2.191,1.6,3.379,2.213c4.988,2.586,12.307,3.066,19.659,2.387c5.551-9.269,10.94-18.703,16.345-28.117
				C295.514,177.661,284.609,171.166,273.891,165.083z"/>
			<path fill-rule="evenodd" clip-rule="evenodd" fill="#D8E3E2" d="M325.04,253.862c-0.005,2.714-0.011,5.426-0.017,8.142
				c0.129,0.041,0.282-0.132,0.345-0.21c1.738-2.093,3.412-4.6,5.123-6.815c5.509-7.146,10.99-14.653,16.536-21.772
				c-7.295-9.607-14.59-19.576-21.881-28.959c-0.009,3.954-0.018,7.913-0.025,11.868c-11.605-0.023-23.909-0.051-35.675-0.075
				c-3.131-0.007-5.978,0.135-8.695-0.156c-7.883-0.855-14.231-3.495-18.058-8.667c5.75,10.878,11.583,21.928,17.522,32.955
				c0.842,1.556,1.583,3.239,2.547,4.625c1.603,2.317,4.7,4.093,7.577,5.261c3.208,1.304,6.529,2.059,10.276,2.578
				C308.331,253.704,316.999,253.198,325.04,253.862z"/>
		</g>
		<g>
			<path fill-rule="evenodd" clip-rule="evenodd" fill="#D8E3E2" d="M356.827,253.46c5.306,0.113,10.877,0.128,16.483,0.157
				c2.754,0.017,5.471,0.215,8.412-0.454c2.882-0.655,6.106-1.842,9.133-4.051c4.096-2.991,5.716-6.682,6.148-10.774
				c0.139-1.322,0.29-2.698,0.227-4.033c-0.254-5.612-3.499-12.191-7.762-18.218c-10.803-0.173-21.667-0.123-32.523-0.097
				C356.908,228.446,356.736,241.137,356.827,253.46z"/>
			<path fill-rule="evenodd" clip-rule="evenodd" fill="#D8E3E2" d="M408.138,164.774c2.353-1.352,4.704-2.703,7.059-4.056
				c-0.029-0.132-0.256-0.178-0.355-0.194c-2.681-0.459-5.69-0.655-8.464-1.029c-8.943-1.198-18.185-2.191-27.123-3.435
				c-4.672,11.121-9.658,22.423-14.138,33.429c3.429-1.97,6.861-3.941,10.291-5.912c5.783,10.062,11.91,20.731,17.773,30.933
				c1.56,2.715,3.106,5.11,4.212,7.608c3.201,7.254,4.089,14.072,1.523,19.972c6.545-10.418,13.198-20.995,19.779-31.652
				c0.927-1.507,2.014-2.99,2.732-4.519c1.205-2.547,1.195-6.117,0.767-9.192c-0.474-3.43-1.481-6.684-2.906-10.189
				C416.355,179.324,411.583,172.071,408.138,164.774z"/>
		</g>
		<g>
			<path fill-rule="evenodd" clip-rule="evenodd" fill="#D8E3E2" d="M391.81,136.978c-2.555-4.652-5.327-9.484-8.106-14.353
				c-1.362-2.394-2.549-4.845-4.599-7.058c-2.008-2.168-4.648-4.367-8.075-5.884c-4.638-2.051-8.645-1.609-12.405,0.062
				c-1.214,0.541-2.481,1.098-3.606,1.819c-4.733,3.027-8.809,9.126-11.896,15.832c5.252,9.442,10.727,18.825,16.177,28.214
				C370.106,149.415,381.182,143.219,391.81,136.978z"/>
			<path fill-rule="evenodd" clip-rule="evenodd" fill="#D8E3E2" d="M289.35,136.885c-2.348-1.362-4.693-2.722-7.042-4.085
				c-0.1,0.092-0.026,0.31,0.009,0.404c0.943,2.551,2.278,5.255,3.341,7.844c3.435,8.344,7.195,16.844,10.587,25.206
				c11.967-1.515,24.248-2.847,36.02-4.47c-3.42-1.985-6.844-3.972-10.266-5.956c5.822-10.039,11.998-20.68,17.902-30.858
				c1.571-2.708,2.872-5.245,4.483-7.452c4.682-6.4,10.143-10.577,16.535-11.305c-12.295-0.459-24.781-0.933-37.301-1.303
				c-1.769-0.049-3.597-0.249-5.279-0.107c-2.808,0.23-5.895,2.024-8.344,3.932c-2.733,2.126-5.048,4.625-7.371,7.611
				C297.842,122.494,293.946,130.253,289.35,136.885z"/>
		</g>
	</g>
	<g>
		<g>
			<path fill-rule="evenodd" clip-rule="evenodd" fill="#AB8EB8" d="M259.008,157.641c-2.751,4.538-5.55,9.355-8.377,14.196
				c-1.392,2.377-2.921,4.63-3.813,7.512c-0.873,2.823-1.458,6.209-1.058,9.935c0.542,5.042,2.929,8.291,6.256,10.712
				c1.076,0.781,2.192,1.6,3.379,2.213c4.988,2.586,12.308,3.066,19.659,2.387c5.551-9.269,10.94-18.703,16.345-28.117
				C280.631,170.219,269.726,163.725,259.008,157.641z"/>
			<path fill-rule="evenodd" clip-rule="evenodd" fill="#AB8EB8" d="M310.157,246.42c-0.005,2.714-0.011,5.426-0.017,8.142
				c0.129,0.041,0.282-0.132,0.345-0.21c1.738-2.093,3.412-4.6,5.123-6.815c5.509-7.146,10.99-14.653,16.536-21.772
				c-7.295-9.607-14.59-19.576-21.881-28.959c-0.009,3.954-0.018,7.913-0.025,11.868c-11.605-0.023-23.909-0.051-35.675-0.075
				c-3.131-0.007-5.978,0.135-8.695-0.156c-7.883-0.855-14.231-3.495-18.058-8.667c5.75,10.878,11.583,21.928,17.522,32.955
				c0.842,1.556,1.583,3.239,2.547,4.625c1.603,2.317,4.7,4.093,7.577,5.261c3.208,1.304,6.529,2.059,10.276,2.578
				C293.448,246.262,302.116,245.756,310.157,246.42z"/>
		</g>
		<g>
			<path fill-rule="evenodd" clip-rule="evenodd" fill="#AB8EB8" d="M341.944,246.019c5.306,0.113,10.877,0.128,16.483,0.157
				c2.754,0.017,5.471,0.215,8.412-0.454c2.882-0.655,6.106-1.842,9.133-4.051c4.096-2.991,5.716-6.682,6.148-10.774
				c0.139-1.322,0.29-2.698,0.227-4.033c-0.254-5.612-3.499-12.191-7.762-18.218c-10.803-0.173-21.667-0.123-32.523-0.097
				C342.025,221.004,341.853,233.695,341.944,246.019z"/>
			<path fill-rule="evenodd" clip-rule="evenodd" fill="#AB8EB8" d="M393.254,157.333c2.353-1.352,4.704-2.703,7.059-4.056
				c-0.029-0.132-0.256-0.178-0.355-0.194c-2.681-0.459-5.69-0.655-8.464-1.029c-8.943-1.198-18.185-2.191-27.123-3.435
				c-4.672,11.121-9.658,22.423-14.138,33.429c3.429-1.97,6.861-3.941,10.291-5.912c5.783,10.062,11.91,20.731,17.773,30.933
				c1.56,2.715,3.106,5.11,4.212,7.608c3.201,7.254,4.089,14.072,1.523,19.972c6.545-10.418,13.198-20.995,19.779-31.652
				c0.927-1.507,2.014-2.99,2.732-4.519c1.205-2.547,1.195-6.117,0.767-9.192c-0.474-3.43-1.481-6.684-2.906-10.189
				C401.471,171.882,396.7,164.629,393.254,157.333z"/>
		</g>
		<g>
			<path fill-rule="evenodd" clip-rule="evenodd" fill="#AB8EB8" d="M376.927,129.537c-2.555-4.652-5.327-9.484-8.106-14.353
				c-1.362-2.394-2.549-4.845-4.599-7.058c-2.008-2.168-4.648-4.367-8.075-5.884c-4.638-2.051-8.645-1.609-12.405,0.062
				c-1.214,0.541-2.481,1.098-3.606,1.819c-4.733,3.027-8.809,9.126-11.896,15.832c5.252,9.442,10.727,18.825,16.177,28.214
				C355.223,141.974,366.299,135.777,376.927,129.537z"/>
			<path fill-rule="evenodd" clip-rule="evenodd" fill="#AB8EB8" d="M274.467,129.443c-2.348-1.362-4.693-2.722-7.042-4.085
				c-0.1,0.092-0.026,0.31,0.009,0.404c0.943,2.551,2.278,5.255,3.341,7.844c3.435,8.344,7.195,16.844,10.587,25.206
				c11.967-1.515,24.248-2.847,36.02-4.47c-3.42-1.985-6.844-3.972-10.266-5.956c5.822-10.039,11.998-20.68,17.902-30.858
				c1.571-2.708,2.872-5.245,4.483-7.452c4.682-6.4,10.143-10.577,16.535-11.305c-12.295-0.459-24.781-0.933-37.301-1.303
				c-1.769-0.049-3.597-0.249-5.279-0.107c-2.808,0.23-5.895,2.024-8.344,3.932c-2.733,2.126-5.048,4.625-7.371,7.611
				C282.959,115.052,279.063,122.811,274.467,129.443z"/>
		</g>
	</g>
	<g>
		<path fill="#BBCED0" d="M242.083,426.158c66.124,0,119.732-14.286,119.732-31.91c0-17.617-53.607-31.901-119.732-31.901
			c-66.131,0-119.741,14.284-119.741,31.901C122.341,411.871,175.951,426.158,242.083,426.158"/>
		<g>
			<g>
				<path fill="#EFA859" d="M228.579,414.182c0.046,2.253-1.758,4.134-4.011,4.18l-3.577,0.074c-2.253,0.047-4.134-1.758-4.18-4.011
					l-2.144-103.876c-0.046-2.253,1.758-4.134,4.011-4.18l3.577-0.074c2.253-0.047,4.134,1.758,4.18,4.011L228.579,414.182z
					 M318.781,292.752c-0.047-2.253-1.928-4.057-4.18-4.011l-3.577,0.074c-2.253,0.047-4.057,1.928-4.011,4.18l2.144,103.876
					c0.046,2.253,1.927,4.057,4.18,4.011l3.577-0.074c2.253-0.047,4.057-1.928,4.011-4.18L318.781,292.752z M152.419,285.943
					c-0.046-2.253-1.928-4.057-4.18-4.011l-3.577,0.074c-2.253,0.047-4.057,1.928-4.011,4.18l2.144,103.876
					c0.046,2.253,1.928,4.057,4.18,4.011l3.577-0.074c2.253-0.046,4.057-1.927,4.011-4.18L152.419,285.943z M246.24,270.349
					c-0.046-2.253-1.928-4.057-4.18-4.011l-3.577,0.074c-2.253,0.046-4.057,1.927-4.011,4.18l2.144,103.876
					c0.046,2.253,1.928,4.057,4.18,4.011l3.577-0.074c2.253-0.047,4.057-1.928,4.011-4.18L246.24,270.349z M135.532,173.076
					c-0.266-2.237-2.314-3.85-4.551-3.585l-3.552,0.422c-2.237,0.266-3.85,2.314-3.585,4.551l12.251,103.173
					c0.266,2.237,2.314,3.85,4.551,3.585l3.552-0.422c2.237-0.266,3.85-2.314,3.585-4.551L135.532,173.076z M207.467,167.819
					c-0.266-2.237-2.314-3.85-4.551-3.585l-3.552,0.422c-2.237,0.266-3.85,2.314-3.585,4.551L208.03,272.38
					c0.266,2.237,2.314,3.85,4.551,3.585l3.552-0.422c2.237-0.266,3.85-2.314,3.585-4.551L207.467,167.819z"/>
				<g>
					<path fill="#BE8952" d="M222.255,306.296l-3.577,0.074c-2.253,0.047-4.057,1.927-4.011,4.18l0.284,13.772l5.921,1.688
						l1.907,92.39l1.788-0.037c2.253-0.047,4.057-1.927,4.011-4.18l-2.144-103.876C226.389,308.054,224.508,306.249,222.255,306.296
						z"/>
					<path fill="#BE8952" d="M234.601,276.826l1.071,51.903l5.962,3.651l0.951,46.062l1.788-0.037
						c2.253-0.047,4.057-1.927,4.011-4.18l-2.022-97.931L234.601,276.826z"/>
					<path fill="#BE8952" d="M314.601,288.741l-3.577,0.074c-2.253,0.047-4.057,1.928-4.011,4.18l0.39,18.882l5.849-1.803
						l1.874,90.771l1.788-0.037c2.253-0.046,4.057-1.927,4.011-4.18l-2.144-103.876C318.734,290.5,316.853,288.695,314.601,288.741z
						"/>
					<path fill="#BE8952" d="M152.419,285.943c-0.046-2.252-1.927-4.057-4.18-4.011l-3.577,0.074
						c-2.253,0.047-4.057,1.928-4.011,4.18l0.353,17.123l5.914,1.321l1.846,89.406l1.788-0.037c2.253-0.047,4.057-1.927,4.011-4.18
						L152.419,285.943z"/>
					<path fill="#BE8952" d="M140.646,281.221l2.012-0.239l-3.423,0.155C139.686,281.243,140.161,281.279,140.646,281.221z"/>
					<polygon fill="#BE8952" points="132.809,249.965 138.277,248.813 141.912,276.053 147.593,274.65 139.135,203.416 
						127.56,205.756 					"/>
					<polygon fill="#BE8952" points="198.418,191.431 203.659,235.569 210.036,235.04 210.625,263.586 218.801,263.269 
						209.993,189.091 					"/>
				</g>
			</g>
			<g>
				<polygon fill="#BE8952" points="336.729,292.969 229.98,319.794 123.438,288.002 123.156,274.351 230.187,261.178 
					336.447,279.318 				"/>
				<polygon fill="#EFA859" points="336.447,279.318 229.698,306.142 123.156,274.351 230.046,254.352 				"/>
			</g>
			<g>
				<polygon fill="#BE8952" points="206.505,131.23 114.294,135.167 99.333,137.576 113.925,246.202 127.535,243.873 
					220.815,226.204 				"/>
				<polygon fill="#EFA859" points="220.114,128.9 112.943,135.247 127.535,243.873 234.424,223.874 				"/>
			</g>
		</g>
	</g>
</g>
<g>
</g>
<g>
</g>
<g>
</g>
<g>
</g>
<g>
</g>
<g>
</g>
<g>
</g>
<g>
</g>
<g>
</g>
<g>
</g>
<g>
</g>
<g>
</g>
<g>
</g>
<g>
</g>
<g>
</g>
</svg>
