<?xml version="1.0" encoding="utf-8"?>
<!-- Generator: Adobe Illustrator 20.1.0, SVG Export Plug-In . SVG Version: 6.00 Build 0)  -->
<svg version="1.1" id="Layer_1" xmlns="http://www.w3.org/2000/svg" xmlns:xlink="http://www.w3.org/1999/xlink" x="0px" y="0px"
	 viewBox="0 0 366.8 366.8" style="enable-background:new 0 0 366.8 366.8;" xml:space="preserve">
<style type="text/css">
	.st0{fill:#2E7E33;}
	.st1{fill:#065D67;stroke:#065D67;stroke-width:5.6693;stroke-miterlimit:10;}
	.st2{fill:#065D67;}
	.st3{fill:none;stroke:#67B86A;stroke-width:8.5039;stroke-miterlimit:10;}
	.st4{fill:#FDF39F;stroke:#FFFFFF;stroke-miterlimit:10;}
	.st5{fill:#FFFFFF;stroke:#FDF39F;stroke-miterlimit:10;}
	.st6{fill:#439F46;}
	.st7{fill:#67B86A;}
</style>
<path class="st0" d="M279.3,43.6c-8.7-6.1-66.5-45.1-138-25.2C75.2,36.7,24.7,96.2,16.4,165.2C9.1,226.7,35.7,286.6,87,322.5
	L279.3,43.6z"/>
<path class="st1" d="M279.4,41.6c9,6.1,68,47.1,74.9,122.4c6.5,69.5-32.2,139.2-95.5,172.1C202.3,365.4,135,361.7,81.7,326
	L279.4,41.6z"/>
<g>
	<g>
		<g>
			<path class="st2" d="M183.7,361.2c-15.6,0-31.2-2.1-46.7-6.2c-45.8-12.4-84.1-41.9-107.7-83s-29.8-89.2-17.4-135l2.4,0.7
				l-2.4-0.7c12.4-45.8,41.9-84.1,83-107.7C136.1,5.7,184-0.5,229.8,11.9C324.4,37.4,380.6,135.2,355,229.8
				c-12.4,45.8-41.9,84.1-83,107.7C244.6,353.1,214.4,361.1,183.7,361.2z M183.2,10.6c-29.8,0-59.2,7.8-85.7,23
				c-40,23-68.7,60.1-80.7,104.7l0,0c-12,44.5-6,91.1,16.9,131.1c23,40,60.1,68.7,104.7,80.7c44.5,12,91.1,6,131.1-16.9
				c40-23,68.7-60.1,80.7-104.7c24.9-91.9-29.7-186.9-121.6-211.8C213.5,12.6,198.3,10.6,183.2,10.6z"/>
			<path class="st2" d="M183.7,364.1L183.7,364.1c-15.7,0-31.6-2.1-47.4-6.3c-46.6-12.6-85.4-42.6-109.4-84.3
				C3.2,232.4-3.2,184.8,8.4,139l0,0l0.7-2.6c0,0,0,0,0-0.1l0.8-2.8l0,0c13-45.3,42.6-83.1,83.5-106.6C135.3,2.9,184-3.4,230.5,9.2
				c46.5,12.5,85.3,42.5,109.4,84.4c24.1,41.9,30.4,90.5,17.8,137c-12.6,46.6-42.6,85.4-84.3,109.4
				C245.9,355.7,214.9,364,183.7,364.1z M183.2,13.5c-29.3,0-58.5,7.8-84.3,22.6c-39.4,22.7-67.6,59.2-79.4,103
				c-11.8,43.8-5.9,89.6,16.6,129c22.7,39.4,59.2,67.6,103,79.4c43.8,11.8,89.6,5.9,129-16.6c39.4-22.7,67.6-59.2,79.4-103
				c11.8-43.7,5.9-89.5-16.7-128.9c-22.6-39.4-59.2-67.6-102.9-79.5C213.2,15.5,198.1,13.5,183.2,13.5z"/>
		</g>
	</g>
	<g>
		<g>
			<path class="st2" d="M183.4,363.9c-15.8,0-31.7-2.1-47.1-6.3C40.2,331.7-16.8,232.3,9.2,136.2C21.8,89.8,51.7,50.9,93.6,26.9
				s90.5-30.4,137-17.8S316,51.7,340,93.5s30.3,90.5,17.7,137C336.5,309.1,264.8,363.9,183.4,363.9z M183.3,7.8
				c-30.3,0-60.2,7.9-87.2,23.4C55.4,54.6,26.2,92.4,14,137.6c-25.3,93.4,30.2,190,123.6,215.3c15,4.1,30.4,6.1,45.8,6.1
				c79.1,0,148.8-53.3,169.5-129.7c12.2-45.3,6.1-92.6-17.2-133.2c-23.3-40.7-61.1-69.8-106.4-82C214.1,9.8,198.6,7.8,183.3,7.8z
				 M183.4,358.3L183.4,358.3c-15.4,0-30.7-2-45.6-6.1C45.5,327.2-9.5,232.5,14,140.2l-0.3-0.1l1.3-4.8l0.3,0.1
				C41.5,43.7,136.8-10.4,229.1,14.6c45.1,12.2,82.7,41.2,106,81.7c23.3,40.5,29.3,87.6,17.2,132.7
				C331.7,305.1,262.2,358.3,183.4,358.3z M19.5,139.1c-24.4,90.4,29.2,183.8,119.6,208.3c14.5,3.9,29.4,5.9,44.3,5.9
				c76.6,0,144-51.6,164-125.5c11.8-43.8,5.9-89.6-16.7-128.9s-59.2-67.5-103-79.4C137.4-5,43.9,48.6,19.5,139.1L19.5,139.1z"/>
			<path class="st2" d="M183.4,366.8c-16.2,0-32.3-2.2-47.8-6.4c-47.2-12.7-86.6-43.2-111-85.7c-24.4-42.5-30.8-92-18-139.2
				c12.8-47.3,43.3-86.7,85.7-111c42.6-24.4,92-30.8,139.2-18.1c47.3,12.8,86.7,43.3,111.1,85.7c24.4,42.5,30.8,91.9,18,139.2
				C338.9,311.1,266.1,366.8,183.4,366.8z M183.1,16.4c-28.8,0-57.2,7.5-82.9,22.3c-38.7,22.2-66.4,58.2-78,101.2v0
				c-24,88.9,28.8,180.7,117.6,204.8c14.3,3.8,29,5.8,43.6,5.8c75.3,0,141.6-50.7,161.3-123.4c11.6-43.1,5.8-88.1-16.4-126.7
				C306,61.7,270,34,226.9,22.3C212.4,18.4,197.7,16.4,183.1,16.4z"/>
		</g>
	</g>
</g>
<circle class="st3" cx="183.6" cy="183.3" r="169.4"/>
<g>
	<g>
		<polygon class="st4" points="91.1,90 39.2,234.3 78.3,280.3 135.4,121.8 		"/>
		<path class="st4" d="M91,90.5l34-16.2c3.4,15.8,7,31.7,10.4,47.5C120.6,111.3,105.8,100.9,91,90.5z"/>
		<path class="st4" d="M177,83.6c3.6,15.7,7.2,31.4,10.9,47.1l-52.4-8.9l-10.7-47.6C142.2,77.3,159.6,80.4,177,83.6z"/>
		<path class="st4" d="M181.5,71.1c-1.7,4.8-3.4,9.5-5.1,14.3c-17.2-3.7-34.4-7.4-51.6-11.1l5.5-15.3L181.5,71.1z"/>
		<polygon class="st4" points="187.9,130.8 135.3,276.9 78.3,280.3 135.4,121.8 		"/>
	</g>
	
		<ellipse transform="matrix(0.3387 -0.9409 0.9409 0.3387 6.2892 218.275)" class="st5" cx="158.4" cy="104.7" rx="10.4" ry="10.4"/>
</g>
<g>
	<polygon class="st4" points="217.7,173.7 206.3,80.3 239.4,65.9 288.7,81.9 297.8,174.4 265.4,190.8 	"/>
	<path class="st4" d="M286.5,84.1c-11.4,5.5-22.9,10.9-34.3,16.3c4.1,28.9,8.4,59.5,12.4,88.4"/>
	<path class="st4" d="M208,81.8c14.7,6.3,29.5,12.4,44.2,18.7"/>
</g>
<g>
	<path class="st4" d="M154.1,265.1c8,4.9,20,10.9,35.2,13.5c36.8,6.4,65.9-10.7,74.5-16.2l7.2,8.2C259.2,282,249.2,292.2,241,301
		c-12.3,13.2-17.7,19.8-20.2,29.8c-1.9,7.9-1.3,14.8-0.5,19.6c-1.9-1.9-6.5-6.6-8-14.2c-1.5-7.6,1.1-13.6,2.3-16.7
		c2.3-5.5,5.6-9.2,7.7-11.3c-3.7,2.6-9.2,5.6-16.2,7.2c-17.3,4.1-31.6-3-36-5.4c4.2-0.3,10.2-1.1,16.8-3.6c5.5-2.1,9.8-4.7,12.9-6.9
		c-2.2-0.8-5.4-2-9.1-3.7c-6.8-3.1-15.4-6.7-23.4-14.2C160.8,275.5,156.6,269.3,154.1,265.1z"/>
	<path d="M264.3,261.5l-9.9,5.6c2.8,3.9,5.7,7.9,8.6,11.7c3.1-2.8,6.1-5.6,9.2-8.4L264.3,261.5z"/>
</g>
<g>
	<path class="st6" d="M197.2,263.3c-2.3,11.2-4.9,22.9-7.2,34.1c-0.1,0.1-0.3,0.2-0.4,0.4c0,0-0.9,0.6-1.7,1.1
		c-2.6,1.6-6.1,2.4-6.1,2.4c-5.3,1.1-9.4,0-10.2-0.3l0,0c-7.4-1.6-12.6-4.7-18.4-8.1c-4.2-2.6-7.5-4.9-9.6-6.5
		c-3.5,6.3-7.1,12.5-10.6,18.8l-2.9-51.6c16.6-8.3,33.1-16.7,49.7-25c-3.5,6.2-7.1,12.4-10.6,18.5L197.2,263.3z"/>
	<path class="st7" d="M210.5,199.1c17.1,1.4,34.3,2.9,51.5,4.3c0,0.1-0.1,0.6-0.2,1.3c0,0-6.9,56.2-10.8,61.5l0,0l0,0
		c-1.4,2.1-4.3,5.6-10.6,9.4c-8.7,5.3-26.3,13.3-49.3,21.7C197.5,264.6,204,231.8,210.5,199.1z"/>
	<path class="st6" d="M92.2,188.5c-7.2-8.8-14.6-18.2-21.9-27c0-0.2,0-0.4,0-0.5c0,0,0.1-1.1,0.2-2c0.4-3.1,2-6.3,2-6.3
		c2.5-4.9,5.9-7.3,6.7-7.8l0,0c5.9-4.8,11.7-6.9,17.9-9.1c4.7-1.7,8.6-2.7,11.1-3.4c-2.6-6.7-5.2-13.4-7.9-20.1l41.8,30.4
		c-4,18.1-8,36.2-12,54.3c-2.6-6.6-5.1-13.3-7.7-20L92.2,188.5z"/>
	<path class="st7" d="M133.5,239.3c-11.9,12.4-23.9,24.8-35.8,37.2c-0.1-0.1-0.4-0.4-0.9-1c0,0-39.2-40.9-40.9-47.2l0,0l0,0
		c-0.7-2.5-1.6-6.8-0.5-14c1.4-10.1,6.4-28.9,14.4-52C90.9,188,112.2,213.6,133.5,239.3z"/>
	<path class="st6" d="M215.7,135.3c10.7-4.1,21.8-8.2,32.5-12.4c0.2,0.1,0.4,0.1,0.5,0.2c0,0,1,0.4,1.9,0.8c2.7,1.3,5.3,3.9,5.3,3.9
		c3.8,3.8,5.1,7.9,5.3,8.7l0,0c2.6,7.1,2.9,13.2,3.1,19.8c0.2,4.9-0.1,9-0.3,11.7c7.2-0.4,14.4-0.8,21.5-1.2L243.8,197
		c-16-9.4-32-18.8-47.9-28.2c7.2-0.4,14.2-0.7,21.4-1.1L215.7,135.3z"/>
	<path class="st7" d="M154.5,158.8c-8.1-15.2-16.2-30.4-24.3-45.6c0.1-0.1,0.6-0.3,1.1-0.5c0,0,50.9-24.6,57.6-24.3l0,0l0,0
		c2.6,0.1,7,0.6,13.6,3.8c9.1,4.4,25.4,14.9,45,29.7C216.6,134.2,185.5,146.5,154.5,158.8z"/>
</g>
</svg>
