<svg id="Graphics" xmlns="http://www.w3.org/2000/svg" xmlns:xlink="http://www.w3.org/1999/xlink" viewBox="0 0 500 500"><defs><style>.cls-1{fill:#1e4a54;}.cls-2{fill:#91d2e4;}.cls-3{fill:#eef3f3;}.cls-4,.cls-8{opacity:0.4;}.cls-5{fill:url(#linear-gradient);}.cls-6{fill:#f4d100;}.cls-7{fill:#fff;opacity:0.5;}.cls-8{fill:#e87800;}.cls-9{fill:#366258;}.cls-10{fill:#c2e0de;}.cls-11{fill:#d8ecee;}.cls-12{fill:#407c57;}.cls-13{fill:#00727b;}.cls-14{fill:#f2c579;}.cls-15{fill:#9fd6e5;}.cls-16{fill:#f8fbfb;}.cls-17{opacity:0.2;}</style><linearGradient id="linear-gradient" x1="250" y1="45.13" x2="250" y2="454.13" gradientUnits="userSpaceOnUse"><stop offset="0" stop-color="#fff"/><stop offset="1" stop-color="#fff" stop-opacity="0"/></linearGradient></defs><title>act_transport_07_public_vacation</title><path class="cls-1" d="M250.24,14A236.07,236.07,0,0,1,342.1,467.46,236.06,236.06,0,0,1,158.38,32.54,234.51,234.51,0,0,1,250.24,14m0-14C112.17,0,.24,111.93.24,250s111.93,250,250,250,250-111.93,250-250S388.31,0,250.24,0h0Z" transform="translate(-0.24)"/><path class="cls-2" d="M250.24,479A229,229,0,0,1,88.32,88.08,229,229,0,1,1,412.16,411.92,227.5,227.5,0,0,1,250.24,479Z" transform="translate(-0.24)"/><path class="cls-3" d="M250.24,28a222.06,222.06,0,0,1,86.4,426.56A222.06,222.06,0,0,1,163.84,45.44,220.57,220.57,0,0,1,250.24,28m0-14c-130.33,0-236,105.67-236,236s105.67,236,236,236,236-105.67,236-236S380.57,14,250.24,14h0Z" transform="translate(-0.24)"/><g class="cls-4"><circle class="cls-5" cx="250" cy="249.63" r="204.5"/></g><path class="cls-6" d="M313.67,109.26a77.34,77.34,0,0,1,21.55,3L313.67,90.75l-21.55,21.55A77.34,77.34,0,0,1,313.67,109.26Z" transform="translate(-0.24)"/><path class="cls-6" d="M276.41,118.82H245.92v30.49A77.66,77.66,0,0,1,276.41,118.82Z" transform="translate(-0.24)"/><path class="cls-6" d="M381.42,149.31V118.82H350.93A77.66,77.66,0,0,1,381.42,149.31Z" transform="translate(-0.24)"/><path class="cls-6" d="M409.49,186.57L387.93,165a77.72,77.72,0,0,1,0,43.11Z" transform="translate(-0.24)"/><path class="cls-6" d="M313.67,263.88a77.34,77.34,0,0,1-21.55-3l21.55,21.55,21.55-21.55A77.34,77.34,0,0,1,313.67,263.88Z" transform="translate(-0.24)"/><path class="cls-6" d="M236.36,186.57a77.34,77.34,0,0,1,3-21.55l-21.55,21.55,21.55,21.55A77.34,77.34,0,0,1,236.36,186.57Z" transform="translate(-0.24)"/><path class="cls-6" d="M350.93,254.32h30.49V223.82A77.67,77.67,0,0,1,350.93,254.32Z" transform="translate(-0.24)"/><path class="cls-6" d="M245.92,223.82v30.49h30.49A77.67,77.67,0,0,1,245.92,223.82Z" transform="translate(-0.24)"/><circle class="cls-6" cx="313.43" cy="186.57" r="67.75"/><ellipse class="cls-7" cx="279.83" cy="149.29" rx="17.52" ry="9.37" transform="translate(-35.74 183.28) rotate(-34.23)"/><ellipse class="cls-7" cx="299.71" cy="134.79" rx="2.88" ry="3.05" transform="matrix(0.26, -0.97, 0.97, 0.26, 92.41, 389.97)"/><path class="cls-8" d="M370.66,149.95a95,95,0,0,1-94.93,91c-0.86,0-1.71,0-2.56-.07A67.74,67.74,0,0,0,370.66,149.95Z" transform="translate(-0.24)"/><path class="cls-9" d="M286,268.56H155a7.83,7.83,0,0,1-8-9.12l6.7-49.21a10.89,10.89,0,0,1,10.44-9.11H276.81a10.86,10.86,0,0,1,10.44,9.11L294,259.45a7.83,7.83,0,0,1-8,9.12" transform="translate(-0.24)"/><path class="cls-9" d="M278,327.56a12.64,12.64,0,1,1,12.65-12.62A12.63,12.63,0,0,1,278,327.56" transform="translate(-0.24)"/><path class="cls-9" d="M163,327.56a12.64,12.64,0,1,1,12.66-12.62A12.63,12.63,0,0,1,163,327.56" transform="translate(-0.24)"/><rect class="cls-9" x="189.21" y="183.98" width="62.07" height="9.19"/><path class="cls-1" d="M322.79,201.13H304.4a13.1,13.1,0,0,0-3.27.41L301,201a33.25,33.25,0,0,0-7.62-15.74S280.64,172,220.49,172s-73,13.29-73,13.29a33.43,33.43,0,0,0-7.6,15.74l-0.07.5a13.28,13.28,0,0,0-3.29-.41H118.17a9.21,9.21,0,0,0-9.17,9.2v23c0,5.06,3.78,9.19,8.42,9.19s8.44-4.14,8.44-9.19V222.2A9.21,9.21,0,0,1,135,213h1.53a12.35,12.35,0,0,0,1.75-.13l-5.09,37.36c-0.69,5-1.25,10.15-1.25,11.43v83a9.21,9.21,0,0,0,9.19,9.19h9.2v16.48a9.21,9.21,0,0,0,9.2,9.2H174.9a9.22,9.22,0,0,0,9.19-9.2V353.86h72.8v16.48a9.22,9.22,0,0,0,9.2,9.2h15.33a9.23,9.23,0,0,0,9.2-9.2V353.86h9.18a9.21,9.21,0,0,0,9.2-9.19v-83c0-1.27-.55-6.41-1.24-11.43l-5.09-37.36a12.28,12.28,0,0,0,1.73.13h1.54a9.22,9.22,0,0,1,9.2,9.19v11.12c0,5.06,3.8,9.19,8.43,9.19s8.44-4.14,8.44-9.19v-23a9.23,9.23,0,0,0-9.2-9.2" transform="translate(-0.24)"/><path class="cls-10" d="M286.21,268.55h-131a7.81,7.81,0,0,1-7.94-9.11l6.7-49.21a10.87,10.87,0,0,1,10.45-9.11H277a10.87,10.87,0,0,1,10.45,9.11l6.7,49.21a7.82,7.82,0,0,1-8,9.11" transform="translate(-0.24)"/><path class="cls-11" d="M153.93,210.36l-6.71,49.93c-0.68,5.21,2.89,8.28,8,8.28h28.46l67.43-67.45H164.38a10.81,10.81,0,0,0-10.45,9.23" transform="translate(-0.24)"/><path class="cls-12" d="M278.17,327.57a12.64,12.64,0,1,1,12.64-12.65,12.65,12.65,0,0,1-12.64,12.65" transform="translate(-0.24)"/><path class="cls-12" d="M163.22,327.57a12.64,12.64,0,1,1,12.66-12.65,12.65,12.65,0,0,1-12.66,12.65" transform="translate(-0.24)"/><polygon class="cls-13" points="127.5 285.05 127.5 295.69 127.5 340.7 313 340.7 313 295.69 313 285.05 127.5 285.05"/><rect class="cls-14" x="189.41" y="183.97" width="62.07" height="9.21"/><path class="cls-15" d="M163.22,327.57a12.64,12.64,0,1,1,12.64-12.65,12.64,12.64,0,0,1-12.64,12.65" transform="translate(-0.24)"/><path class="cls-15" d="M278.17,327.57a12.64,12.64,0,1,1,12.64-12.65,12.64,12.64,0,0,1-12.64,12.65" transform="translate(-0.24)"/><path class="cls-16" d="M165.83,314.93a4.64,4.64,0,1,1,4.64-4.64,4.64,4.64,0,0,1-4.64,4.64" transform="translate(-0.24)"/><path class="cls-16" d="M280.77,314.93a4.64,4.64,0,1,1,4.64-4.64,4.64,4.64,0,0,1-4.64,4.64" transform="translate(-0.24)"/><path class="cls-17" d="M145.16,393.92c0,4,33.81,7.2,75.56,7.2s75.51-3.22,75.51-7.2-33.82-7.19-75.51-7.19-75.56,3.22-75.56,7.19" transform="translate(-0.24)"/></svg>
