<?xml version="1.0" encoding="utf-8"?>
<!-- Generator: Adobe Illustrator 20.1.0, SVG Export Plug-In . SVG Version: 6.00 Build 0)  -->
<svg version="1.1" id="Layer_1" xmlns="http://www.w3.org/2000/svg" xmlns:xlink="http://www.w3.org/1999/xlink" x="0px" y="0px"
	 viewBox="0 0 361.1 361.1" style="enable-background:new 0 0 361.1 361.1;" xml:space="preserve">
<style type="text/css">
	.st0{fill:#01737B;}
	.st1{fill:#CFD8DC;}
	.st2{fill:none;stroke:#134489;stroke-width:8.5039;stroke-miterlimit:10;}
	.st3{fill:#679F37;}
	.st4{fill:#7CB340;}
	.st5{fill:#9CC766;}
	.st6{fill:#334295;}
	.st7{fill:#3C4C9B;}
	.st8{fill:#5E35B1;}
	.st9{fill:none;stroke:#B39DDB;stroke-width:5.6693;stroke-miterlimit:10;}
</style>
<path class="st0" d="M276.4,40.8c-8.7-6.1-66.5-45.1-138-25.2C72.3,33.9,21.8,93.4,13.5,162.4c-7.3,61.5,19.3,121.4,70.6,157.3
	L276.4,40.8z"/>
<path class="st1" d="M276.5,38.8c9,6.1,68,47.1,74.9,122.4c6.5,69.5-32.2,139.2-95.5,172.1c-56.5,29.3-123.8,25.6-177.1-10.1
	L276.5,38.8z"/>
<line class="st2" x1="44.3" y1="130.8" x2="311.1" y2="130.8"/>
<polygon class="st3" points="96,126.6 86.5,227.6 112.6,227.6 "/>
<rect x="96" y="126.6" class="st4" width="87.5" height="150"/>
<rect x="96" y="251.8" class="st5" width="87.5" height="15.1"/>
<polygon class="st6" points="281.5,126.6 291.4,165.5 270.4,165.5 271.6,126.6 "/>
<path class="st7" d="M207.1,235l14.8,11.3c4.7-7,9.3-14.2,14-21.2c1.5-1.2,6.7-4.7,14.8-4.7c7.8,0,13.1,3.5,14.5,4.4
	c3.8,7,7.6,14.2,11.3,21.2l16.6-10.5c-3.8-5.8-7.6-11.6-11-17.2c-0.3-30.8-0.3-61.3-0.6-92.2c-20.9,0-42.2,0-63.1,0
	c0,31.1,0,62.5,0,93.6C214.6,225.1,210.9,230,207.1,235z"/>
<g>
	<g>
		<path class="st8" d="M180.8,358.4c-15.6,0-31.2-2.1-46.7-6.2c-45.8-12.4-84.1-41.9-107.7-83S-3.4,180,9,134.2l2.4,0.7L9,134.2
			c12.4-45.8,41.9-84.1,83-107.7C133.2,2.9,181.1-3.3,226.9,9.1C321.5,34.6,377.7,132.4,352.1,227c-12.4,45.8-41.9,84.1-83,107.7
			C241.7,350.3,211.5,358.3,180.8,358.4z M180.3,7.8c-29.8,0-59.2,7.8-85.7,23c-40,23-68.7,60.1-80.7,104.7l0,0
			c-12,44.5-6,91.1,16.9,131.1c23,40,60.1,68.7,104.7,80.7c44.5,12,91.1,6,131.1-16.9c40-23,68.7-60.1,80.7-104.7
			c24.9-91.9-29.7-186.9-121.6-211.8C210.6,9.8,195.4,7.8,180.3,7.8z"/>
	</g>
	<g>
		<path class="st8" d="M180.5,361.1c-15.8,0-31.7-2.1-47.1-6.3C37.3,328.9-19.7,229.5,6.3,133.4C18.9,87,48.8,48.1,90.7,24.1
			c41.9-24,90.5-30.4,137-17.8c46.5,12.6,85.4,42.6,109.4,84.4c24,41.8,30.3,90.5,17.7,137C333.6,306.3,261.9,361.1,180.5,361.1z
			 M180.4,5c-30.3,0-60.2,7.9-87.2,23.4C52.5,51.8,23.3,89.6,11.1,134.8c-25.3,93.4,30.2,190,123.6,215.3c15,4.1,30.4,6.1,45.8,6.1
			c79.1,0,148.8-53.3,169.5-129.7c12.2-45.3,6.1-92.6-17.2-133.2c-23.3-40.7-61.1-69.8-106.4-82C211.2,7,195.7,5,180.4,5z
			 M180.5,355.5C180.5,355.5,180.5,355.5,180.5,355.5c-15.4,0-30.7-2-45.6-6.1c-92.3-25-147.3-119.7-123.8-212l-0.3-0.1l1.3-4.8
			l0.3,0.1C38.6,40.9,133.9-13.2,226.2,11.8c45.1,12.2,82.7,41.2,106,81.7c23.3,40.5,29.3,87.6,17.2,132.7
			C328.8,302.3,259.3,355.5,180.5,355.5z M16.6,136.3c-24.4,90.4,29.2,183.8,119.6,208.3c14.5,3.9,29.4,5.9,44.3,5.9
			c76.6,0,144-51.6,164-125.5c11.8-43.8,5.9-89.6-16.7-128.9c-22.6-39.3-59.2-67.5-103-79.4C134.5-7.8,41,45.8,16.6,136.3
			L16.6,136.3z"/>
	</g>
</g>
<circle class="st9" cx="180.7" cy="180.5" r="169.4"/>
</svg>
