<svg id="Graphics" xmlns="http://www.w3.org/2000/svg" viewBox="0 0 500 500"><defs><style>.cls-1{fill:#366842;}.cls-2{fill:#eef3f3;}.cls-3{fill:#8cb61d;}.cls-4{fill:#b3c589;}.cls-5{fill:#3ea159;}.cls-6{fill:#e45c5e;}.cls-7{fill:#ad4f49;}.cls-8{fill:#ed8c7a;}.cls-9{fill:#c3487b;}</style></defs><title>act_food_07_local</title><path class="cls-1" d="M250.24,14A236.07,236.07,0,0,1,342.1,467.46,236.06,236.06,0,0,1,158.38,32.54,234.51,234.51,0,0,1,250.24,14m0-14C112.17,0,.24,111.93.24,250s111.93,250,250,250,250-111.93,250-250S388.31,0,250.24,0h0Z" transform="translate(-0.24)"/><path class="cls-2" d="M250.24,479A229,229,0,0,1,88.32,88.08,229,229,0,1,1,412.16,411.92,227.5,227.5,0,0,1,250.24,479Z" transform="translate(-0.24)"/><path class="cls-3" d="M250.24,28a222.06,222.06,0,0,1,86.4,426.56A222.06,222.06,0,0,1,163.84,45.44,220.57,220.57,0,0,1,250.24,28m0-14c-130.33,0-236,105.67-236,236s105.67,236,236,236,236-105.67,236-236S380.57,14,250.24,14h0Z" transform="translate(-0.24)"/><path class="cls-4" d="M407,330.69c-5,25.86-21.33,42.83-44.23,54.58a81.34,81.34,0,0,1-36.21,9.44,74.46,74.46,0,0,1-23.77-3.58c-4-1.28-12-6.39-15.35-6.35-4.15.05-8.9,17-16.11,17.13-5.22.07-6.83-2.48-9.12-6.27-0.76-1.4-1.35-1.89-1.37-3.63-0.11-8.62,16.22-15.56,16.15-20.37,0-.75-2.22-5.11-2.58-6.77a49.83,49.83,0,0,1-.86-8.62c-0.35-26.37,20.38-45.48,43.83-53.58,16.93-5.86,53.17.21,64.55-10.89,4.51-4.29,6.69-8.22,13.66-8.31,9.37-.12,12.76,24.14,12.86,31.18A80.69,80.69,0,0,1,407,330.69Zm-46.17-4.28c-29.36.39-48.1,12.91-67,34.31a5.28,5.28,0,0,0-1.53,3.75,5.35,5.35,0,0,0,5.38,5.24,5.28,5.28,0,0,0,3.71-1.63c4-3.7,7.61-7.73,11.54-11.52,14.83-13.72,27.62-19.28,48-19.55A5.31,5.31,0,0,0,360.84,326.4Z" transform="translate(-0.24)"/><path class="cls-1" d="M405.64,308c-5,25.86-21.33,42.83-44.23,54.58A81.35,81.35,0,0,1,325.2,372a74.44,74.44,0,0,1-23.77-3.58c-4-1.27-12-6.39-15.35-6.35-4.15.05-8.9,17-16.11,17.14-5.23.07-6.83-2.48-9.12-6.27-0.76-1.4-1.35-1.89-1.38-3.63-0.11-8.62,16.22-15.56,16.15-20.37,0-.75-2.22-5.11-2.58-6.77a49.8,49.8,0,0,1-.86-8.62C271.84,307.2,292.57,288.1,316,280c16.93-5.86,53.17.21,64.55-10.89,4.51-4.29,6.69-8.22,13.66-8.31,9.37-.12,12.76,24.13,12.85,31.18A80.7,80.7,0,0,1,405.64,308Zm-46.17-4.28c-29.36.39-48.1,12.91-67,34.31a5.28,5.28,0,0,0-1.53,3.75,5.35,5.35,0,0,0,5.38,5.24A5.28,5.28,0,0,0,300,345.4c4-3.7,7.61-7.73,11.54-11.52,14.83-13.72,27.62-19.28,48-19.55A5.31,5.31,0,0,0,359.47,303.72Z" transform="translate(-0.24)"/><path class="cls-5" d="M264.43,377.63c9-11.79,18.35-23.27,27.36-33.09a5.2,5.2,0,0,1,.69-6.51c18.88-21.4,37.62-33.93,67-34.31a5.35,5.35,0,0,1,5.31,4.5c9.57-1.58,28.73-3.54,34.86-44.35-1.52-1.93-3.31-3.11-5.4-3.09-7,.09-9.15,4-13.66,8.31-11.38,11.1-47.63,5-64.55,10.89-23.45,8.11-44.18,27.21-43.83,53.58a49.8,49.8,0,0,0,.86,8.62c0.35,1.65,2.57,6,2.58,6.77,0.06,4.81-16.27,11.75-16.15,20.37,0,1.74.61,2.23,1.38,3.63A16.75,16.75,0,0,0,264.43,377.63Z" transform="translate(-0.24)"/><path class="cls-4" d="M107.55,283.86a32.18,32.18,0,0,1,4.55,1.84,18.23,18.23,0,0,1,1.72.85c1.71,0.89,3.33,1.84,4.76,2.71,0.45,0.18.86,0.35,1.29,0.49-6.7-5.06-18.82-13-22.67-15.72-4.48-3.16-19.94-23.77-7.09-28.52s19.94,4.44,25.16,13c4.45,7.32,7.1,20.43,8.6,26.91a16.15,16.15,0,0,0,1.41,2.66,41.07,41.07,0,0,1-.85-6,40.49,40.49,0,0,1-.32-5.87c0.16-8.27,5.55-32.25,30.9-22.8s-1.6,27.33-2.08,27.38-12.9,6-15.38,9a10.49,10.49,0,0,0-1.17,1.78,19.65,19.65,0,0,0,.05,9.37,71.14,71.14,0,0,1,37.31-2.63c34.36,6.58,57.69,35.53,52.11,64.66-2.53,13.23-10.6,24.22-21.86,31.66l-0.37.24-0.89.57-0.47.29-0.81.49-0.52.3-0.8.45-0.53.29-0.81.43-0.53.28-0.85.43-0.51.25-1,.44-0.43.2q-1.4.63-2.84,1.19l-0.44.17-1,.38-0.54.19-0.92.32-0.59.2-0.9.29-0.61.19-0.91.27-0.61.17-1,.25-0.58.15-1.06.25-0.49.11q-1.55.35-3.14,0.63l-0.49.08-1.1.18-0.61.09-1,.14-0.65.08-1,.11-0.66.07-1,.09-0.66.05-1,.07-0.63,0L170,405l-0.52,0q-1.66,0-3.34,0l-0.54,0-1.14,0-0.65,0-1-.06-0.69,0-1-.08-0.7-.06-1-.11-0.7-.08-1.05-.14-0.66-.09-1.15-.18-0.56-.09-1.72-.31c-34.36-6.58-57.69-35.53-52.11-64.66q0.14-.72.3-1.44l0.11-.47c0.07-.32.15-0.64,0.23-1l0.15-.55c0.08-.29.16-0.58,0.24-0.86l0.17-.57c0.08-.28.17-0.55,0.26-0.83l0.19-.57,0.29-.82,0.2-.55,0.32-.83,0.21-.51c0.12-.29.25-0.59,0.37-0.88l0.19-.44c0.16-.36.33-0.71,0.49-1.06l0.11-.24q0.32-.66.66-1.3l0.06-.1q0.31-.58.63-1.16l0.19-.33,0.54-.91,0.24-.39,0.53-.84,0.26-.39,0.55-.81,0.26-.38,0.6-.82,0.25-.34,0.67-.87,0.21-.27,0.82-1,0.09-.11q1.44-1.7,3-3.28l0.12-.11,0.94-.9,0.19-.17,0.91-.83,0.21-.18,0.94-.81,0.19-.16,1-.82,0.14-.11,1.17-.89h0a57.73,57.73,0,0,1,5.18-3.43h0l1.32-.75,0.1-.06,1.09-.58a40.13,40.13,0,0,0-3.85-1.8c-0.26-.11-0.5-0.17-0.76-0.24-4,.47-9.32,1.5-11,3-2.67,2.39-14.52,10.26-15.89,10.77s-19.1,3.55-21.45-14.85S100.94,281.8,107.55,283.86Z" transform="translate(-0.24)"/><path class="cls-1" d="M85.37,282.07c2.36,18.4,20.08,15.34,21.45,14.85s13.22-8.37,15.89-10.77c1.68-1.53,7-2.56,11-3,0.26,0.08.49,0.14,0.76,0.25,1.45,0.54,8.52,3.8,7.68,5l5.26-3.76a19.29,19.29,0,0,1-1.11-12.38,10.46,10.46,0,0,1,1.17-1.78c2.48-3.06,14.89-9,15.38-9s27.43-17.91,2.08-27.38-30.74,14.53-30.9,22.8a40.54,40.54,0,0,0,.32,5.87,41.14,41.14,0,0,0,.85,6,16.13,16.13,0,0,1-1.41-2.66c-1.5-6.48-4.15-19.6-8.6-26.91-5.22-8.52-12.35-17.72-25.16-13s2.6,25.36,7.09,28.52c3.85,2.71,16,10.65,22.67,15.72-0.43-.14-0.84-0.31-1.29-0.49-1.42-.87-3.05-1.83-4.76-2.71a18.22,18.22,0,0,0-1.72-.85,32.25,32.25,0,0,0-4.55-1.84c-6.61-2.05-34.46-.94-32.1,17.47" transform="translate(-0.24)"/><ellipse class="cls-6" cx="173.56" cy="331.76" rx="53.7" ry="63.35" transform="translate(-185.17 439.79) rotate(-79.15)"/><path class="cls-7" d="M141.43,283.65a49.81,49.81,0,0,0-9.9,21.53c-6,31.09,18.94,62,55.62,69a77.79,77.79,0,0,0,28,.31c-13.66,9.54-32.36,13.7-51.69,10-34.36-6.58-57.69-35.53-52.11-64.66C114.46,303.58,125.93,290.71,141.43,283.65Z" transform="translate(-0.24)"/><ellipse class="cls-8" cx="199.69" cy="307.03" rx="9.26" ry="11.16" transform="translate(-139.67 445.37) rotate(-79.15)"/><ellipse class="cls-8" cx="214.97" cy="320.14" rx="4.46" ry="5.37" transform="translate(-140.15 471.02) rotate(-79.15)"/><path class="cls-9" d="M250.24,75.53a61.53,61.53,0,0,0-56.79,85.13S238.23,284,250.24,284,307,160.66,307,160.66A61.53,61.53,0,0,0,250.24,75.53Zm0,87.47a26,26,0,1,1,26-26A26,26,0,0,1,250.24,163Z" transform="translate(-0.24)"/></svg>
