<?xml version="1.0" encoding="utf-8"?>
<!-- Generator: Adobe Illustrator 20.0.0, SVG Export Plug-In . SVG Version: 6.00 Build 0)  -->
<svg version="1.1" id="Graphics" xmlns="http://www.w3.org/2000/svg" xmlns:xlink="http://www.w3.org/1999/xlink" x="0px" y="0px"
	 viewBox="0 0 500 500" enable-background="new 0 0 500 500" xml:space="preserve">
<g>
	<g>
		<g>
			<path fill="#1E4A54" d="M250,14c31.866,0,62.771,6.238,91.857,18.54c28.101,11.886,53.341,28.904,75.02,50.583
				c21.678,21.678,38.697,46.919,50.583,75.02C479.762,187.229,486,218.134,486,250s-6.238,62.771-18.54,91.857
				c-11.886,28.101-28.904,53.341-50.583,75.02c-21.678,21.678-46.919,38.697-75.02,50.583C312.771,479.762,281.866,486,250,486
				s-62.771-6.238-91.857-18.54c-28.101-11.886-53.341-28.904-75.02-50.583c-21.678-21.678-38.697-46.919-50.583-75.02
				C20.238,312.771,14,281.866,14,250s6.238-62.771,18.54-91.857c11.886-28.101,28.904-53.341,50.583-75.02
				c21.679-21.678,46.919-38.697,75.02-50.583C187.229,20.238,218.134,14,250,14 M250,0C111.93,0,0,111.93,0,250s111.93,250,250,250
				s250-111.93,250-250S388.07,0,250,0L250,0z"/>
		</g>
		<g>
			<path fill="#EEF3F3" d="M250,479c-61.165,0-118.67-23.821-161.924-67.075C44.821,368.67,21,311.165,21,250
				c0-61.164,23.821-118.669,67.076-161.924C131.33,44.821,188.836,21,250,21c61.165,0,118.67,23.821,161.925,67.076
				C455.179,131.33,479,188.836,479,250c0,61.165-23.821,118.67-67.075,161.925C368.67,455.179,311.165,479,250,479z"/>
			<path fill="#91D2E4" d="M250,28c29.974,0,59.045,5.868,86.405,17.441c26.434,11.181,50.177,27.191,70.57,47.584
				c20.393,20.393,36.403,44.137,47.584,70.57C466.132,190.956,472,220.026,472,250c0,29.974-5.868,59.045-17.441,86.405
				c-11.181,26.434-27.191,50.177-47.584,70.57c-20.393,20.393-44.136,36.403-70.57,47.584C309.045,466.132,279.974,472,250,472
				c-29.974,0-59.044-5.868-86.404-17.441c-26.434-11.181-50.177-27.191-70.57-47.584c-20.393-20.393-36.403-44.137-47.584-70.57
				C33.868,309.045,28,279.974,28,250c0-29.974,5.868-59.044,17.441-86.404c11.181-26.434,27.191-50.177,47.584-70.57
				c20.393-20.393,44.137-36.403,70.57-47.584C190.956,33.868,220.026,28,250,28 M250,14C119.669,14,14,119.67,14,250
				c0,130.332,105.669,236,236,236c130.332,0,236-105.668,236-236C486,119.67,380.332,14,250,14L250,14z"/>
		</g>
	</g>
	<g>
		<path opacity="0.2" d="M109.663,376.789c0,5.527,62.285,10,139.209,10c76.831,0,139.121-4.473,139.121-10
			c0-5.527-62.29-10-139.121-10C171.948,366.789,109.663,371.262,109.663,376.789"/>
		<g>
			<g>
				<path fill="#1E4A54" d="M355.802,138.889c6.312,0,11.883,2.325,16.715,6.964c4.827,4.645,7.243,10.125,7.243,16.436v142.633
					c0,6.504-2.368,12.118-7.104,16.854c-4.736,4.736-10.356,7.104-16.854,7.104h-83.017l23.401,35.658v11.7h-94.717v-11.7
					l23.401-35.658h-83.017c-6.316,0-11.888-2.368-16.715-7.104c-4.832-4.736-7.243-10.35-7.243-16.854V162.29
					c0-6.311,2.368-11.792,7.104-16.436c4.736-4.64,10.351-6.964,16.854-6.964H355.802z M355.802,281.522V162.29h-213.95v119.232
					H355.802z"/>
			</g>
			<path fill="#00727B" d="M372.517,145.854c-4.832-4.64-10.403-6.964-16.715-6.964H248.828v23.401h106.975v119.232H248.828v83.017
				h47.359l-23.401-35.658h83.017c6.499,0,12.118-2.368,16.854-7.104c4.736-4.736,7.104-10.35,7.104-16.854V162.29
				C379.76,155.979,377.344,150.498,372.517,145.854z"/>
			<path fill="#8FADB4" d="M369.264,286.269c0,6.922-5.663,12.585-12.585,12.585H140.976c-6.922,0-12.585-5.663-12.585-12.585
				V161.97c0-6.922,5.663-12.585,12.585-12.585h215.703c6.922,0,12.585,5.663,12.585,12.585V286.269z"/>
			<g>
				<path fill="#00727B" d="M248.828,243.27c3.785,0,8.256,0.462,13.408,1.387c5.152,0.925,10.083,2.335,14.795,4.227
					c4.71,1.895,8.718,4.25,12.021,7.067c3.302,2.82,4.954,6.076,4.954,9.775v11.36h-90.354v-11.36c0-3.699,1.651-6.955,4.954-9.775
					c3.302-2.817,7.309-5.172,12.021-7.067c4.71-1.893,9.643-3.302,14.795-4.227C240.572,243.732,245.04,243.27,248.828,243.27z
					 M248.828,231.909c-6.165,0-11.449-2.18-15.852-6.539c-4.405-4.359-6.605-9.663-6.605-15.918c0-6.163,2.18-11.492,6.539-15.984
					c4.359-4.491,9.664-6.737,15.918-6.737c6.163,0,11.447,2.246,15.852,6.737c4.402,4.491,6.605,9.821,6.605,15.984
					c0,6.254-2.18,11.558-6.539,15.918C260.386,229.73,255.079,231.909,248.828,231.909z"/>
			</g>
			<path opacity="0.4" fill="#FFFFFF" d="M356.679,149.385h-5.639l-149.47,149.469h155.108c6.922,0,12.585-5.663,12.585-12.585
				V161.97C369.265,155.048,363.601,149.385,356.679,149.385z"/>
			<path fill="#1E4A54" d="M357.252,318.393H250.186h-22.333v10.488h44.933h83.017c6.499,0,12.118-2.368,16.854-7.104
				c3.093-3.094,5.157-6.569,6.23-10.415C372.8,316.046,365.587,318.393,357.252,318.393z"/>
			<g>
				<circle fill="#8FADB4" cx="248.828" cy="308.294" r="6.24"/>
				<g>
					<path fill="#00727B" d="M248.828,313.603c-2.928,0-5.31-2.382-5.31-5.31c0-2.928,2.382-5.31,5.31-5.31s5.31,2.382,5.31,5.31
						C254.138,311.222,251.756,313.603,248.828,313.603z M248.828,303.748c-2.507,0-4.546,2.039-4.546,4.546
						c0,2.506,2.039,4.546,4.546,4.546c2.507,0,4.546-2.039,4.546-4.546C253.374,305.787,251.334,303.748,248.828,303.748z"/>
				</g>
			</g>
		</g>
	</g>
</g>
<g>
</g>
<g>
</g>
<g>
</g>
<g>
</g>
<g>
</g>
<g>
</g>
<g>
</g>
<g>
</g>
<g>
</g>
<g>
</g>
<g>
</g>
<g>
</g>
<g>
</g>
<g>
</g>
<g>
</g>
</svg>
