<?xml version="1.0" encoding="utf-8"?>
<!-- Generator: Adobe Illustrator 15.0.0, SVG Export Plug-In . SVG Version: 6.00 Build 0)  -->
<!DOCTYPE svg PUBLIC "-//W3C//DTD SVG 1.1//EN" "http://www.w3.org/Graphics/SVG/1.1/DTD/svg11.dtd">
<svg version="1.1" id="Graphics" xmlns="http://www.w3.org/2000/svg" xmlns:xlink="http://www.w3.org/1999/xlink" x="0px" y="0px"
	 width="500px" height="500px" viewBox="0 0 500 500" enable-background="new 0 0 500 500" xml:space="preserve">
<g>
	<g>
		<g>
			<path fill="#7C223D" d="M250,14c31.866,0,62.771,6.238,91.857,18.541c28.101,11.886,53.341,28.904,75.02,50.583
				c21.678,21.679,38.697,46.919,50.583,75.02C479.762,187.229,486,218.134,486,250s-6.238,62.771-18.541,91.857
				c-11.886,28.101-28.904,53.341-50.583,75.02c-21.679,21.678-46.919,38.697-75.02,50.583C312.771,479.762,281.866,486,250,486
				s-62.771-6.238-91.857-18.541c-28.101-11.886-53.341-28.904-75.02-50.583c-21.678-21.679-38.697-46.919-50.583-75.02
				C20.238,312.771,14,281.866,14,250s6.238-62.771,18.541-91.857c11.886-28.101,28.904-53.341,50.583-75.02
				c21.679-21.678,46.919-38.697,75.02-50.583C187.229,20.238,218.134,14,250,14 M250,0C111.93,0,0,111.93,0,250s111.93,250,250,250
				s250-111.93,250-250S388.07,0,250,0L250,0z"/>
		</g>
		<g>
			<path fill="#EEF3F3" d="M250,479c-61.165,0-118.67-23.821-161.924-67.075C44.821,368.67,21,311.165,21,250
				c0-61.164,23.821-118.67,67.076-161.924S188.836,21,250,21c61.165,0,118.67,23.821,161.925,67.076
				C455.179,131.33,479,188.835,479,250s-23.821,118.67-67.075,161.925C368.67,455.179,311.165,479,250,479z"/>
			<path fill="#DD7899" d="M250,28c29.974,0,59.045,5.868,86.405,17.441c26.434,11.182,50.177,27.191,70.57,47.584
				c20.393,20.393,36.403,44.137,47.584,70.57C466.132,190.956,472,220.026,472,250c0,29.974-5.868,59.045-17.441,86.405
				c-11.181,26.434-27.191,50.177-47.584,70.57c-20.394,20.393-44.137,36.403-70.57,47.584C309.045,466.132,279.974,472,250,472
				c-29.974,0-59.044-5.868-86.404-17.441c-26.434-11.181-50.177-27.191-70.57-47.584c-20.394-20.394-36.403-44.137-47.584-70.57
				C33.868,309.045,28,279.974,28,250c0-29.974,5.868-59.044,17.441-86.404c11.182-26.434,27.191-50.177,47.584-70.57
				c20.393-20.394,44.137-36.403,70.57-47.584C190.956,33.868,220.026,28,250,28 M250,14C119.669,14,14,119.669,14,250
				c0,130.332,105.669,236,236,236c130.332,0,236-105.668,236-236C486,119.669,380.332,14,250,14L250,14z"/>
		</g>
	</g>
	<g>
		<path fill="#564677" d="M221.343,297.747c-9.104,0-17.911-0.896-26.269-2.389c-12.388,8.807-26.418,15.225-41.492,19.104
			c-4.03,1.045-8.359,1.792-12.836,2.389c-0.149,0-0.299,0-0.448,0c-2.239,0-4.329-1.791-4.776-4.329
			c-0.597-2.835,1.343-4.627,2.985-6.567c5.821-6.567,12.389-12.388,17.463-24.775c-24.179-14.03-39.702-35.672-39.702-59.851
			c0-42.239,47.015-76.419,105.075-76.419s105.075,34.18,105.075,76.419C326.418,263.567,279.403,297.747,221.343,297.747z"/>
		<path fill="#C3487B" d="M344.03,319.389c5.074,12.388,11.642,18.208,17.463,24.776c1.642,1.939,3.582,3.731,2.985,6.567
			c-0.597,2.687-2.835,4.627-5.224,4.328c-4.477-0.597-8.806-1.344-12.836-2.389c-15.074-3.88-29.104-10.298-41.492-19.104
			c-8.358,1.493-17.165,2.389-26.269,2.389c-27.015,0-51.791-7.463-70.448-19.701c4.328,0.298,8.806,0.597,13.134,0.597
			c32.09,0,62.388-9.254,85.523-25.971c24.925-18.208,38.657-42.836,38.657-69.552c0-7.762-1.194-15.374-3.433-22.688
			c25.224,13.881,41.642,35.97,41.642,60.896C383.732,283.866,368.209,305.358,344.03,319.389z"/>
	</g>
</g>
</svg>
