<svg id="Graphics" xmlns="http://www.w3.org/2000/svg" viewBox="0 0 500 500"><defs><style>.cls-1{fill:#564677;}.cls-2{fill:#eef3f3;}.cls-3{fill:#ab8eb8;}.cls-4{fill:#bbced0;}.cls-5{fill:#efa859;}.cls-6{fill:#be8952;}.cls-7{fill:#bccfd1;}.cls-8{fill:#6a8f97;}</style></defs><title>act_consumption_06_furniture_rep</title><path class="cls-1" d="M250.24,14A236.07,236.07,0,0,1,342.1,467.46,236.06,236.06,0,0,1,158.38,32.54,234.51,234.51,0,0,1,250.24,14m0-14C112.17,0,.24,111.93.24,250s111.93,250,250,250,250-111.93,250-250S388.31,0,250.24,0h0Z" transform="translate(-0.24)"/><path class="cls-2" d="M250.24,479A229,229,0,0,1,88.32,88.08,229,229,0,1,1,412.16,411.92,227.5,227.5,0,0,1,250.24,479Z" transform="translate(-0.24)"/><path class="cls-3" d="M250.24,28a222.06,222.06,0,0,1,86.4,426.56A222.06,222.06,0,0,1,163.84,45.44,220.58,220.58,0,0,1,250.24,28m0-14c-130.33,0-236,105.67-236,236s105.67,236,236,236,236-105.67,236-236S380.57,14,250.24,14h0Z" transform="translate(-0.24)"/><path class="cls-4" d="M242.32,426.16c66.12,0,119.73-14.29,119.73-31.91s-53.61-31.9-119.73-31.9-119.74,14.28-119.74,31.9,53.61,31.91,119.74,31.91" transform="translate(-0.24)"/><path class="cls-5" d="M228.82,414.18a4.11,4.11,0,0,1-4,4.18l-3.58.07a4.11,4.11,0,0,1-4.18-4l-2.14-103.88a4.11,4.11,0,0,1,4-4.18l3.58-.07a4.11,4.11,0,0,1,4.18,4ZM319,292.75a4.11,4.11,0,0,0-4.18-4l-3.58.07a4.11,4.11,0,0,0-4,4.18l2.14,103.88a4.11,4.11,0,0,0,4.18,4l3.58-.07a4.11,4.11,0,0,0,4-4.18Zm-166.36-6.81a4.11,4.11,0,0,0-4.18-4l-3.58.07a4.11,4.11,0,0,0-4,4.18L143,390.06a4.11,4.11,0,0,0,4.18,4l3.58-.07a4.11,4.11,0,0,0,4-4.18Zm93.82-15.59a4.11,4.11,0,0,0-4.18-4l-3.58.07a4.11,4.11,0,0,0-4,4.18l2.14,103.88a4.11,4.11,0,0,0,4.18,4l3.58-.07a4.11,4.11,0,0,0,4-4.18ZM135.77,173.08a4.11,4.11,0,0,0-4.55-3.58l-3.55.42a4.11,4.11,0,0,0-3.58,4.55l12.25,103.17a4.11,4.11,0,0,0,4.55,3.58l3.55-.42a4.11,4.11,0,0,0,3.58-4.55Zm71.93-5.26a4.11,4.11,0,0,0-4.55-3.58l-3.55.42a4.11,4.11,0,0,0-3.58,4.55l12.25,103.17a4.11,4.11,0,0,0,4.55,3.58l3.55-.42A4.11,4.11,0,0,0,220,271Z" transform="translate(-0.24)"/><path class="cls-6" d="M222.49,306.3l-3.58.07a4.11,4.11,0,0,0-4,4.18l0.28,13.77,5.92,1.69L223,418.4l1.79,0a4.11,4.11,0,0,0,4-4.18l-2.14-103.88A4.11,4.11,0,0,0,222.49,306.3Z" transform="translate(-0.24)"/><path class="cls-6" d="M234.84,276.83l1.07,51.9,6,3.65,1,46.06,1.79,0a4.11,4.11,0,0,0,4-4.18l-2-97.93Z" transform="translate(-0.24)"/><path class="cls-6" d="M314.84,288.74l-3.58.07a4.11,4.11,0,0,0-4,4.18l0.39,18.88,5.85-1.8,1.87,90.77,1.79,0a4.11,4.11,0,0,0,4-4.18L319,292.75A4.11,4.11,0,0,0,314.84,288.74Z" transform="translate(-0.24)"/><path class="cls-6" d="M152.66,285.94a4.11,4.11,0,0,0-4.18-4l-3.58.07a4.11,4.11,0,0,0-4,4.18l0.35,17.12,5.91,1.32L149,394l1.79,0a4.11,4.11,0,0,0,4-4.18Z" transform="translate(-0.24)"/><path class="cls-6" d="M140.89,281.22l2-.24-3.42.15A4.05,4.05,0,0,0,140.89,281.22Z" transform="translate(-0.24)"/><polygon class="cls-6" points="132.81 249.97 138.28 248.81 141.91 276.05 147.59 274.65 139.13 203.42 127.56 205.76 132.81 249.97"/><polygon class="cls-6" points="198.42 191.43 203.66 235.57 210.04 235.04 210.63 263.59 218.8 263.27 209.99 189.09 198.42 191.43"/><polygon class="cls-6" points="336.73 292.97 229.98 319.79 123.44 288 123.16 274.35 230.19 261.18 336.45 279.32 336.73 292.97"/><polygon class="cls-5" points="336.45 279.32 229.7 306.14 123.16 274.35 230.05 254.35 336.45 279.32"/><polygon class="cls-6" points="206.5 131.23 114.29 135.17 99.33 137.58 113.92 246.2 127.53 243.87 220.81 226.2 206.5 131.23"/><polygon class="cls-5" points="220.11 128.9 112.94 135.25 127.53 243.87 234.42 223.87 220.11 128.9"/><path class="cls-7" d="M412,256.09a5.14,5.14,0,0,1,.89,4.92,6.32,6.32,0,0,1-4,4.32l-19.4,11.34a6.39,6.39,0,0,1-5.2,1,6.89,6.89,0,0,1-4.21-3.45l-44.89-76.79a41,41,0,0,1-12.66-.3,43.85,43.85,0,0,1-11.87-4,45.76,45.76,0,0,1-10.49-7.28,45.06,45.06,0,0,1-8.45-10.59A45.63,45.63,0,0,1,286.56,162a46.6,46.6,0,0,1-1-13.75,43.7,43.7,0,0,1,3.12-13.18A39.89,39.89,0,0,1,296,123.43L317.92,160l25.33-14.81L322,108.79a46.55,46.55,0,0,1,26.58,3.45,47.87,47.87,0,0,1,11.63,7.41,42.66,42.66,0,0,1,9,10.92,45.26,45.26,0,0,1,5.09,12.56,45.83,45.83,0,0,1,1.17,12.79A42.74,42.74,0,0,1,373,168.26a44.39,44.39,0,0,1-5.83,11Z" transform="translate(-0.24)"/><path class="cls-8" d="M394.54,247.33a5.14,5.14,0,0,1,.89,4.92,6.32,6.32,0,0,1-4,4.32L372,267.91a6.39,6.39,0,0,1-5.2,1,6.89,6.89,0,0,1-4.21-3.45l-44.89-76.79a41,41,0,0,1-12.66-.3,43.85,43.85,0,0,1-11.87-4,45.76,45.76,0,0,1-10.49-7.28,45.06,45.06,0,0,1-8.45-10.59,45.63,45.63,0,0,1-5.23-13.27,46.6,46.6,0,0,1-1-13.75,43.7,43.7,0,0,1,3.12-13.18,39.89,39.89,0,0,1,7.33-11.65l21.91,36.58,25.33-14.81L304.46,100A46.55,46.55,0,0,1,331,103.49a47.87,47.87,0,0,1,11.63,7.41,42.66,42.66,0,0,1,9,10.92,45.26,45.26,0,0,1,5.09,12.56A45.83,45.83,0,0,1,358,147.16a42.74,42.74,0,0,1-2.48,12.34,44.39,44.39,0,0,1-5.83,11Z" transform="translate(-0.24)"/></svg>
