<svg id="Graphics" xmlns="http://www.w3.org/2000/svg" xmlns:xlink="http://www.w3.org/1999/xlink" viewBox="0 0 500 500"><defs><style>.cls-1{fill:#1e4a54;}.cls-2{fill:#91d2e4;}.cls-3{fill:#eef3f3;}.cls-4,.cls-7{opacity:0.5;}.cls-5{fill:url(#linear-gradient);}.cls-6{fill:#f4d100;}.cls-13,.cls-7{fill:#fff;}.cls-8{fill:#e87800;}.cls-10,.cls-8{opacity:0.4;}.cls-9{fill:#1aa9d2;}.cls-11{fill:#2e7498;}.cls-12{fill:#00727b;}</style><linearGradient id="linear-gradient" x1="250" y1="45.5" x2="250" y2="454.5" gradientUnits="userSpaceOnUse"><stop offset="0" stop-color="#fff"/><stop offset="1" stop-color="#fff" stop-opacity="0"/></linearGradient></defs><title>act_transport_09_vacation_norway</title><path class="cls-1" d="M250.24,14A236.07,236.07,0,0,1,342.1,467.46,236.06,236.06,0,0,1,158.38,32.54,234.51,234.51,0,0,1,250.24,14m0-14C112.17,0,.24,111.93.24,250s111.93,250,250,250,250-111.93,250-250S388.31,0,250.24,0h0Z" transform="translate(-0.24)"/><path class="cls-2" d="M250.24,479A229,229,0,0,1,88.32,88.08,229,229,0,1,1,412.16,411.92,227.5,227.5,0,0,1,250.24,479Z" transform="translate(-0.24)"/><path class="cls-3" d="M250.24,28a222.06,222.06,0,0,1,86.4,426.56A222.06,222.06,0,0,1,163.84,45.44,220.57,220.57,0,0,1,250.24,28m0-14c-130.33,0-236,105.67-236,236s105.67,236,236,236,236-105.67,236-236S380.57,14,250.24,14h0Z" transform="translate(-0.24)"/><g class="cls-4"><circle class="cls-5" cx="250" cy="250" r="204.5"/></g><path class="cls-6" d="M187.46,140A48.69,48.69,0,0,1,201,142L187.46,128.4,173.89,142A48.69,48.69,0,0,1,187.46,140Z" transform="translate(-0.24)"/><path class="cls-6" d="M164,146.06h-19.2v19.2A48.89,48.89,0,0,1,164,146.06Z" transform="translate(-0.24)"/><path class="cls-6" d="M230.11,165.26v-19.2h-19.2A48.89,48.89,0,0,1,230.11,165.26Z" transform="translate(-0.24)"/><path class="cls-6" d="M247.78,188.72l-13.57-13.57a48.93,48.93,0,0,1,0,27.14Z" transform="translate(-0.24)"/><path class="cls-6" d="M187.46,237.38a48.69,48.69,0,0,1-13.57-1.92L187.46,249,201,235.47A48.69,48.69,0,0,1,187.46,237.38Z" transform="translate(-0.24)"/><path class="cls-6" d="M138.79,188.71a48.69,48.69,0,0,1,1.92-13.57l-13.57,13.57,13.57,13.57A48.69,48.69,0,0,1,138.79,188.71Z" transform="translate(-0.24)"/><path class="cls-6" d="M210.91,231.37h19.2v-19.2A48.89,48.89,0,0,1,210.91,231.37Z" transform="translate(-0.24)"/><path class="cls-6" d="M144.81,212.17v19.2H164A48.89,48.89,0,0,1,144.81,212.17Z" transform="translate(-0.24)"/><circle class="cls-6" cx="187.22" cy="188.71" r="42.65"/><ellipse class="cls-7" cx="166.15" cy="165.25" rx="11.03" ry="5.9" transform="translate(-64.42 122.1) rotate(-34.23)"/><ellipse class="cls-7" cx="178.67" cy="156.12" rx="1.81" ry="1.92" transform="translate(-18.25 288.83) rotate(-75.16)"/><path class="cls-8" d="M223.34,165.66A59.82,59.82,0,0,1,163.57,223c-0.54,0-1.07,0-1.61,0A42.65,42.65,0,0,0,223.34,165.66Z" transform="translate(-0.24)"/><path class="cls-9" d="M81.64,365.73a204.51,204.51,0,0,0,337.2,0H81.64Z" transform="translate(-0.24)"/><g class="cls-10"><path class="cls-11" d="M418.84,365.73H222l73.21,83.8A204.71,204.71,0,0,0,418.84,365.73Z" transform="translate(-0.24)"/><path class="cls-11" d="M115.82,404.07l30-38.34H81.64A205.7,205.7,0,0,0,115.82,404.07Z" transform="translate(-0.24)"/></g><path class="cls-12" d="M358.42,166.39L222,339.4H434.2a204.93,204.93,0,0,0,5.61-166.19L403.4,211.37Z" transform="translate(-0.24)"/><path class="cls-12" d="M90,260.4L75.34,275.06,45.8,245.51c0,1.49-.06,3-0.06,4.49a203.65,203.65,0,0,0,20.54,89.4h79.58Z" transform="translate(-0.24)"/><path class="cls-13" d="M439.81,173.21L403.4,211.37l-45-45-71.7,90.93,69.28-35,10,9.89,12.23-9.89L400,242.75l52.36-24A203.26,203.26,0,0,0,439.81,173.21Z" transform="translate(-0.24)"/><path class="cls-13" d="M113.72,293.94L90,260.4,75.34,275.06,45.8,245.51c0,1.49-.06,3-0.06,4.49a205,205,0,0,0,5,45L62,299.24l23.8-14Z" transform="translate(-0.24)"/></svg>
