<?xml version="1.0" encoding="utf-8"?>
<!-- Generator: Adobe Illustrator 20.0.0, SVG Export Plug-In . SVG Version: 6.00 Build 0)  -->
<svg version="1.1" id="Graphics" xmlns="http://www.w3.org/2000/svg" xmlns:xlink="http://www.w3.org/1999/xlink" x="0px" y="0px"
	 viewBox="0 0 500 500" enable-background="new 0 0 500 500" xml:space="preserve">
<g>
	<g>
		<g>
			<g>
				<path fill="#564677" d="M250,14c31.866,0,62.771,6.238,91.857,18.54c28.101,11.886,53.341,28.904,75.02,50.583
					c21.678,21.678,38.697,46.919,50.583,75.02C479.762,187.229,486,218.134,486,250c0,31.866-6.238,62.771-18.54,91.857
					c-11.886,28.101-28.904,53.341-50.583,75.02c-21.678,21.678-46.919,38.697-75.02,50.583C312.771,479.762,281.866,486,250,486
					s-62.771-6.238-91.857-18.54c-28.101-11.886-53.341-28.904-75.02-50.583c-21.678-21.678-38.697-46.919-50.583-75.02
					C20.238,312.771,14,281.866,14,250c0-31.866,6.238-62.771,18.54-91.857c11.886-28.101,28.904-53.341,50.583-75.02
					c21.678-21.678,46.919-38.697,75.02-50.583C187.229,20.238,218.134,14,250,14 M250,0C111.93,0,0,111.929,0,250
					c0,138.07,111.93,250,250,250s250-111.93,250-250C500,111.929,388.07,0,250,0L250,0z"/>
			</g>
			<g>
				<path fill="#EEF3F3" d="M250,479c-61.165,0-118.67-23.821-161.924-67.075C44.821,368.67,21,311.165,21,250
					c0-61.164,23.821-118.67,67.076-161.924S188.836,21,250,21c61.165,0,118.67,23.821,161.925,67.076
					C455.179,131.33,479,188.836,479,250c0,61.165-23.821,118.67-67.075,161.925C368.67,455.179,311.165,479,250,479z"/>
				<path fill="#AB8EB8" d="M250,28c29.974,0,59.045,5.868,86.405,17.441c26.434,11.181,50.177,27.191,70.57,47.584
					s36.403,44.137,47.584,70.57C466.132,190.956,472,220.026,472,250c0,29.974-5.868,59.045-17.441,86.405
					c-11.181,26.434-27.191,50.177-47.584,70.57c-20.393,20.393-44.136,36.403-70.57,47.584C309.045,466.132,279.974,472,250,472
					c-29.974,0-59.044-5.868-86.404-17.441c-26.434-11.181-50.177-27.191-70.57-47.584c-20.393-20.393-36.403-44.137-47.584-70.57
					C33.868,309.045,28,279.974,28,250c0-29.974,5.868-59.044,17.441-86.404c11.181-26.434,27.191-50.177,47.584-70.57
					c20.393-20.393,44.137-36.403,70.57-47.584C190.956,33.868,220.026,28,250,28 M250,14C119.669,14,14,119.669,14,250
					c0,130.332,105.669,236,236,236c130.332,0,236-105.668,236-236C486,119.669,380.332,14,250,14L250,14z"/>
			</g>
		</g>
	</g>
	<g>
		<path fill="#BCCFD1" d="M411.806,256.088c1.111,1.297,1.407,2.941,0.887,4.925c-0.521,1.987-1.849,3.427-3.981,4.319
			l-19.396,11.337c-1.743,1.106-3.476,1.435-5.201,0.982c-1.725-0.452-3.128-1.603-4.207-3.449l-44.885-76.792
			c-4.28,0.554-8.498,0.453-12.657-0.303c-4.159-0.755-8.117-2.07-11.868-3.95c-3.755-1.877-7.251-4.302-10.493-7.276
			c-3.243-2.971-6.061-6.504-8.45-10.595c-2.47-4.222-4.214-8.646-5.234-13.271c-1.023-4.625-1.356-9.208-1.002-13.753
			c0.353-4.542,1.393-8.936,3.12-13.175c1.725-4.24,4.168-8.124,7.329-11.652l21.913,36.581l25.334-14.807l-21.286-36.417
			c4.437-0.735,8.928-0.814,13.469-0.239c4.541,0.578,8.911,1.808,13.11,3.689c4.198,1.884,8.075,4.354,11.632,7.407
			c3.556,3.056,6.566,6.694,9.036,10.916c2.389,4.091,4.085,8.277,5.085,12.562c0.998,4.284,1.387,8.549,1.17,12.792
			c-0.22,4.245-1.047,8.356-2.481,12.337c-1.437,3.98-3.379,7.661-5.828,11.041L411.806,256.088z"/>
	</g>
	<g>
		<path fill="#6A8F97" d="M394.297,247.334c1.111,1.297,1.407,2.941,0.887,4.925c-0.521,1.987-1.849,3.427-3.981,4.319
			l-19.396,11.337c-1.743,1.106-3.476,1.435-5.201,0.982c-1.725-0.452-3.128-1.603-4.207-3.449l-44.885-76.792
			c-4.28,0.554-8.498,0.453-12.657-0.303c-4.159-0.755-8.117-2.07-11.868-3.95c-3.755-1.877-7.251-4.302-10.493-7.276
			c-3.243-2.971-6.061-6.504-8.45-10.595c-2.47-4.222-4.214-8.646-5.234-13.271c-1.023-4.625-1.356-9.209-1.002-13.753
			c0.353-4.542,1.393-8.936,3.12-13.175c1.725-4.24,4.168-8.124,7.329-11.652l21.913,36.581l25.334-14.807l-21.286-36.417
			c4.437-0.735,8.928-0.814,13.469-0.239c4.541,0.578,8.911,1.808,13.11,3.689c4.198,1.884,8.075,4.354,11.632,7.407
			c3.556,3.056,6.566,6.694,9.036,10.916c2.389,4.091,4.085,8.277,5.085,12.562c0.998,4.284,1.387,8.549,1.17,12.792
			c-0.22,4.245-1.047,8.356-2.481,12.337c-1.437,3.98-3.379,7.661-5.828,11.041L394.297,247.334z"/>
	</g>
	<g>
		<g>
			<g>
				<g>
					<path fill="#BCCFD1" d="M135.057,265.61v-70.999c0-5.256-4.26-9.516-9.516-9.516c-5.256,0-9.516,4.26-9.516,9.516v70.999
						H135.057z"/>
				</g>
				<g>
					<path fill="#BCCFD1" d="M199.443,265.61v-70.999c0-5.256-4.26-9.516-9.516-9.516s-9.516,4.26-9.516,9.516v70.999H199.443z"/>
				</g>
				<g>
					<polygon fill="#BCCFD1" points="89.175,256.138 89.175,271.896 103.76,271.896 106.354,290.034 112.777,341.416 
						194.174,341.416 208.234,271.896 226.295,271.896 226.295,256.138 					"/>
				</g>
				<polygon opacity="0.5" fill="#BCCFD1" points="154.26,341.416 194.174,341.416 208.234,271.896 226.295,271.896 
					226.295,256.138 154.26,256.138 				"/>
				<g>
					<path fill="#BCCFD1" d="M286.703,292.245c-22.822,9.216-43.353,33.778-59.37,71.019c-10.068,23.408-27.239,30.437-39.72,27.039
						c-12.4-3.373-25.441-18.759-21.395-51.036l-20.593-2.582c-5.7,45.474,16.121,68.094,36.54,73.646
						c21.187,5.725,49.242-4.03,64.233-38.866c13.612-31.655,30.687-52.953,48.077-59.975c30.925-12.505,57.53-4.891,69.444,19.858
						c12.805,26.612,5.545,65.951-26.219,103.432c15.076-7.169,29.137-16.124,41.906-26.599
						c14.202-31.432,14.471-62.024,3.013-85.835C366.023,287.864,327.473,275.77,286.703,292.245z"/>
				</g>
			</g>
			<g>
				<g>
					<path fill="#12AD9C" d="M276.703,282.245c-22.822,9.216-43.353,33.778-59.37,71.019c-10.068,23.408-27.239,30.437-39.72,27.039
						c-12.4-3.373-25.441-18.759-21.395-51.036l-20.593-2.582c-5.7,45.474,16.121,68.094,36.54,73.646
						c21.187,5.725,49.242-4.03,64.233-38.866c13.612-31.655,30.687-52.953,48.077-59.975c30.925-12.505,57.53-4.891,69.444,19.858
						c15.35,31.899,1.864,82.083-48.095,125.437c16.619-4.706,32.372-11.467,46.979-19.979
						c29.771-40.903,34.743-83.437,19.816-114.459C356.023,277.864,317.473,265.77,276.703,282.245z"/>
				</g>
				<g>
					<path fill="#1AA9D2" d="M125.057,255.61v-70.999c0-5.256-4.26-9.516-9.516-9.516c-5.256,0-9.516,4.26-9.516,9.516v70.999
						H125.057z"/>
				</g>
				<g>
					<path fill="#1AA9D2" d="M189.443,255.61v-70.999c0-5.256-4.26-9.516-9.516-9.516s-9.516,4.26-9.516,9.516v70.999H189.443z"/>
				</g>
				<g>
					<polygon fill="#00727B" points="79.175,246.138 79.175,261.896 93.76,261.896 96.354,280.034 102.777,331.416 184.174,331.416 
						198.234,261.896 216.295,261.896 216.295,246.138 					"/>
				</g>
				<polygon opacity="0.5" fill="#1E4A54" points="144.26,331.416 184.174,331.416 198.234,261.896 216.295,261.896 
					216.295,246.138 144.26,246.138 				"/>
			</g>
		</g>
	</g>
</g>
<g>
</g>
<g>
</g>
<g>
</g>
<g>
</g>
<g>
</g>
<g>
</g>
<g>
</g>
<g>
</g>
<g>
</g>
<g>
</g>
<g>
</g>
<g>
</g>
<g>
</g>
<g>
</g>
<g>
</g>
</svg>
