<?xml version="1.0" encoding="utf-8"?>
<!-- Generator: Adobe Illustrator 20.0.0, SVG Export Plug-In . SVG Version: 6.00 Build 0)  -->
<svg version="1.1" id="Graphics" xmlns="http://www.w3.org/2000/svg" xmlns:xlink="http://www.w3.org/1999/xlink" x="0px" y="0px"
	 viewBox="0 0 500 500" enable-background="new 0 0 500 500" xml:space="preserve">
<g>
	<g>
		<path fill="#1E4A54" d="M250,14c31.866,0,62.771,6.238,91.857,18.54c28.101,11.886,53.341,28.904,75.02,50.583
			s38.697,46.919,50.583,75.02C479.762,187.229,486,218.134,486,250s-6.238,62.771-18.54,91.857
			c-11.886,28.101-28.904,53.341-50.583,75.02c-21.678,21.678-46.919,38.697-75.02,50.583C312.771,479.762,281.866,486,250,486
			s-62.771-6.238-91.857-18.54c-28.101-11.886-53.341-28.904-75.02-50.583c-21.678-21.678-38.697-46.919-50.583-75.02
			C20.238,312.771,14,281.866,14,250s6.238-62.771,18.54-91.857c11.886-28.101,28.904-53.341,50.583-75.02
			c21.679-21.678,46.919-38.697,75.02-50.583C187.229,20.238,218.134,14,250,14 M250,0C111.93,0,0,111.93,0,250s111.93,250,250,250
			s250-111.93,250-250S388.07,0,250,0L250,0z"/>
	</g>
	<g>
		<path fill="#91D2E4" d="M250,479c-61.165,0-118.67-23.821-161.924-67.075C44.821,368.67,21,311.165,21,250
			c0-61.164,23.821-118.669,67.076-161.924C131.33,44.821,188.836,21,250,21c61.165,0,118.67,23.821,161.925,67.076
			C455.179,131.33,479,188.836,479,250c0,61.165-23.821,118.67-67.075,161.925C368.67,455.179,311.165,479,250,479z"/>
		<path fill="#EEF3F3" d="M250,28c29.974,0,59.045,5.868,86.405,17.441c26.434,11.181,50.177,27.191,70.57,47.584
			c20.393,20.393,36.403,44.137,47.584,70.57C466.132,190.956,472,220.026,472,250c0,29.974-5.868,59.045-17.441,86.405
			c-11.181,26.434-27.191,50.177-47.584,70.57c-20.393,20.393-44.136,36.403-70.57,47.584C309.045,466.132,279.974,472,250,472
			c-29.974,0-59.044-5.868-86.404-17.441c-26.434-11.181-50.177-27.191-70.57-47.584c-20.393-20.393-36.403-44.137-47.584-70.57
			C33.868,309.045,28,279.974,28,250c0-29.974,5.868-59.044,17.441-86.404c11.181-26.434,27.191-50.177,47.584-70.57
			c20.393-20.393,44.137-36.403,70.57-47.584C190.956,33.868,220.026,28,250,28 M250,14C119.669,14,14,119.67,14,250
			c0,130.332,105.669,236,236,236c130.332,0,236-105.668,236-236C486,119.67,380.332,14,250,14L250,14z"/>
	</g>
	<g opacity="0.4">
		<linearGradient id="SVGID_1_" gradientUnits="userSpaceOnUse" x1="250" y1="45.1296" x2="250" y2="454.1296">
			<stop  offset="0" style="stop-color:#FFFFFF"/>
			<stop  offset="1" style="stop-color:#FFFFFF;stop-opacity:0"/>
		</linearGradient>
		<circle fill="url(#SVGID_1_)" cx="250" cy="249.63" r="204.5"/>
	</g>
	<path fill="#F4D100" d="M313.432,109.257c7.481,0,14.712,1.066,21.554,3.048l-21.554-21.554l-21.553,21.553
		C298.721,110.323,305.952,109.257,313.432,109.257z"/>
	<path fill="#F4D100" d="M276.174,118.816h-30.493v30.493C252.748,136.484,263.349,125.883,276.174,118.816z"/>
	<path fill="#F4D100" d="M381.184,149.308v-30.493h-30.493C363.516,125.883,374.117,136.484,381.184,149.308z"/>
	<path fill="#F4D100" d="M409.248,186.567l-21.553-21.553c1.982,6.841,3.048,14.072,3.048,21.552c0,7.481-1.066,14.713-3.049,21.555
		L409.248,186.567z"/>
	<path fill="#F4D100" d="M313.432,263.877c-7.481,0-14.712-1.066-21.553-3.048l21.554,21.554l21.554-21.554
		C328.145,262.811,320.913,263.877,313.432,263.877z"/>
	<path fill="#F4D100" d="M236.123,186.566c0-7.481,1.066-14.711,3.048-21.552l-21.553,21.553l21.554,21.554
		C237.189,201.279,236.123,194.048,236.123,186.566z"/>
	<path fill="#F4D100" d="M350.69,254.319h30.494v-30.494C374.117,236.65,363.515,247.251,350.69,254.319z"/>
	<path fill="#F4D100" d="M245.681,223.825v30.494h30.494C263.35,247.251,252.748,236.65,245.681,223.825z"/>
	<circle fill="#F4D100" cx="313.433" cy="186.567" r="67.752"/>
	
		<ellipse transform="matrix(0.8268 -0.5626 0.5626 0.8268 -35.5461 183.1492)" opacity="0.5" fill="#FFFFFF" cx="279.588" cy="149.287" rx="17.52" ry="9.371"/>
	
		<ellipse transform="matrix(0.2562 -0.9666 0.9666 0.2562 92.4686 389.739)" opacity="0.5" fill="#FFFFFF" cx="299.473" cy="134.787" rx="2.877" ry="3.049"/>
	<path opacity="0.4" fill="#E87800" d="M370.422,149.948c-2.115,50.614-43.798,91.002-94.931,91.002
		c-0.858,0-1.706-0.043-2.562-0.066c11.299,8.439,25.317,13.435,40.503,13.435c37.418,0,67.752-30.334,67.752-67.753
		C381.184,173.072,377.223,160.51,370.422,149.948z"/>
	<path fill="#366258" d="M285.771,268.565H154.73c-5.055,0-8.641-4.099-7.952-9.118l6.698-49.21
		c0.688-5.008,5.402-9.108,10.443-9.108h112.649c5.058,0,9.765,4.1,10.439,9.108l6.716,49.21
		C294.405,264.466,290.829,268.565,285.771,268.565"/>
	<path fill="#366258" d="M277.721,327.564c-6.983,0-12.638-5.652-12.638-12.624c0-6.99,5.655-12.652,12.638-12.652
		c6.983,0,12.652,5.662,12.652,12.652C290.373,321.912,284.703,327.564,277.721,327.564"/>
	<path fill="#366258" d="M162.76,327.564c-6.965,0-12.624-5.652-12.624-12.624c0-6.99,5.658-12.652,12.624-12.652
		c7.004,0,12.656,5.662,12.656,12.652C175.415,321.912,169.764,327.564,162.76,327.564"/>
	<rect x="189.209" y="183.977" fill="#366258" width="62.069" height="9.188"/>
	<path fill="#1E4A54" d="M322.554,201.128h-18.398c-1.16,0-2.27,0.151-3.274,0.412l-0.077-0.496
		c-0.688-5.012-4.117-12.086-7.616-15.743c0,0-12.785-13.288-72.94-13.288c-60.158,0-72.958,13.288-72.958,13.288
		c-3.485,3.657-6.906,10.731-7.601,15.743l-0.07,0.496c-1.026-0.261-2.118-0.412-3.288-0.412h-18.405
		c-5.044,0-9.171,4.138-9.171,9.199v22.989c0,5.055,3.783,9.193,8.423,9.193c4.633,0,8.44-4.138,8.44-9.193V222.2
		c0-5.061,4.127-9.192,9.182-9.192h1.531c0.608,0,1.177-0.046,1.75-0.126l-5.093,37.359c-0.685,5.019-1.247,10.154-1.247,11.426
		v11.493v4.131v18.395v48.982c0,5.065,4.127,9.192,9.192,9.192h9.203v16.476c0,5.066,4.109,9.203,9.195,9.203h15.325
		c5.051,0,9.188-4.138,9.188-9.203v-16.476h72.8v16.476c0,5.066,4.138,9.203,9.196,9.203h15.329c5.065,0,9.203-4.138,9.203-9.203
		v-16.476h9.182c5.071,0,9.203-4.127,9.203-9.192v-48.982V277.29v-4.131v-11.493c0-1.272-0.548-6.407-1.236-11.426l-5.093-37.359
		c0.569,0.081,1.144,0.126,1.729,0.126h1.538c5.057,0,9.196,4.131,9.196,9.192v11.117c0,5.055,3.801,9.193,8.43,9.193
		c4.629,0,8.437-4.138,8.437-9.193v-22.989C331.757,205.266,327.611,201.128,322.554,201.128"/>
	<path fill="#C2E0DE" d="M285.969,268.554H154.927c-5.055,0-8.633-4.089-7.941-9.108l6.698-49.21
		c0.689-5.008,5.381-9.108,10.447-9.108h112.635c5.072,0,9.765,4.1,10.452,9.108l6.703,49.21
		C294.609,264.466,291.026,268.554,285.969,268.554"/>
	<path fill="#D8ECEE" d="M153.695,210.359l-6.712,49.933c-0.678,5.214,2.891,8.283,7.963,8.283h28.458l67.432-67.446h-86.691
		C159.077,201.128,154.383,205.156,153.695,210.359"/>
	<path fill="#407C57" d="M277.931,327.575c-6.989,0-12.645-5.673-12.645-12.652c0-6.972,5.656-12.634,12.645-12.634
		c6.984,0,12.645,5.662,12.645,12.634C290.576,321.902,284.915,327.575,277.931,327.575"/>
	<path fill="#407C57" d="M162.978,327.575c-6.983,0-12.645-5.673-12.645-12.652c0-6.972,5.662-12.634,12.645-12.634
		c6.986,0,12.656,5.662,12.656,12.634C175.633,321.902,169.964,327.575,162.978,327.575"/>
	<polygon fill="#00727B" points="127.502,285.049 127.502,295.685 127.502,340.701 313,340.701 313,295.685 313,285.049 	"/>
	<rect x="189.41" y="183.966" fill="#F2C579" width="62.066" height="9.21"/>
	<path fill="#9FD6E5" d="M162.978,327.575c-6.983,0-12.634-5.663-12.634-12.645c0-6.976,5.651-12.641,12.634-12.641
		c6.986,0,12.638,5.666,12.638,12.641C175.616,321.912,169.964,327.575,162.978,327.575"/>
	<path fill="#9FD6E5" d="M277.931,327.575c-6.989,0-12.645-5.663-12.645-12.645c0-6.976,5.656-12.641,12.645-12.641
		c6.984,0,12.645,5.666,12.645,12.641C290.576,321.912,284.915,327.575,277.931,327.575"/>
	<path fill="#F8FBFB" d="M165.587,314.93c-2.561,0-4.636-2.076-4.636-4.636c0-2.561,2.076-4.637,4.636-4.637
		c2.564,0,4.636,2.077,4.636,4.637C170.224,312.854,168.152,314.93,165.587,314.93"/>
	<path fill="#F8FBFB" d="M280.53,314.93c-2.542,0-4.629-2.076-4.629-4.636c0-2.561,2.087-4.637,4.629-4.637
		c2.557,0,4.644,2.077,4.644,4.637C285.174,312.854,283.088,314.93,280.53,314.93"/>
	<path opacity="0.2" d="M144.92,393.922c0,3.976,33.811,7.196,75.56,7.196c41.687,0,75.505-3.22,75.505-7.196
		c0-3.969-33.818-7.19-75.505-7.19C178.731,386.732,144.92,389.953,144.92,393.922"/>
</g>
<g>
</g>
<g>
</g>
<g>
</g>
<g>
</g>
<g>
</g>
<g>
</g>
<g>
</g>
<g>
</g>
<g>
</g>
<g>
</g>
<g>
</g>
<g>
</g>
<g>
</g>
<g>
</g>
<g>
</g>
</svg>
