<?xml version="1.0" encoding="utf-8"?>
<!-- Generator: Adobe Illustrator 20.0.0, SVG Export Plug-In . SVG Version: 6.00 Build 0)  -->
<svg version="1.1" id="Graphics" xmlns="http://www.w3.org/2000/svg" xmlns:xlink="http://www.w3.org/1999/xlink" x="0px" y="0px"
	 viewBox="0 0 500 500" enable-background="new 0 0 500 500" xml:space="preserve">
<g>
	<g>
		<path fill="#564677" d="M250,14c31.866,0,62.771,6.238,91.857,18.54c28.101,11.886,53.341,28.904,75.02,50.583
			c21.678,21.678,38.697,46.919,50.583,75.02C479.762,187.229,486,218.134,486,250c0,31.866-6.238,62.771-18.54,91.857
			c-11.886,28.101-28.904,53.341-50.583,75.02c-21.678,21.678-46.919,38.697-75.02,50.583C312.771,479.762,281.866,486,250,486
			s-62.771-6.238-91.857-18.54c-28.101-11.886-53.341-28.904-75.02-50.583c-21.678-21.678-38.697-46.919-50.583-75.02
			C20.238,312.771,14,281.866,14,250c0-31.866,6.238-62.771,18.54-91.857c11.886-28.101,28.904-53.341,50.583-75.02
			c21.678-21.678,46.919-38.697,75.02-50.583C187.229,20.238,218.134,14,250,14 M250,0C111.93,0,0,111.929,0,250
			c0,138.07,111.93,250,250,250s250-111.93,250-250C500,111.929,388.07,0,250,0L250,0z"/>
	</g>
	<g>
		<path fill="#EEF3F3" d="M250,479c-61.165,0-118.67-23.821-161.924-67.075C44.821,368.67,21,311.165,21,250
			c0-61.164,23.821-118.67,67.076-161.924S188.836,21,250,21c61.165,0,118.67,23.821,161.925,67.076
			C455.179,131.33,479,188.836,479,250c0,61.165-23.821,118.67-67.075,161.925C368.67,455.179,311.165,479,250,479z"/>
		<path fill="#AB8EB8" d="M250,28c29.974,0,59.045,5.868,86.405,17.441c26.434,11.181,50.177,27.191,70.57,47.584
			s36.403,44.137,47.584,70.57C466.132,190.956,472,220.026,472,250c0,29.974-5.868,59.045-17.441,86.405
			c-11.181,26.434-27.191,50.177-47.584,70.57c-20.393,20.393-44.136,36.403-70.57,47.584C309.045,466.132,279.974,472,250,472
			c-29.974,0-59.044-5.868-86.404-17.441c-26.434-11.181-50.177-27.191-70.57-47.584c-20.393-20.393-36.403-44.137-47.584-70.57
			C33.868,309.045,28,279.974,28,250c0-29.974,5.868-59.044,17.441-86.404c11.181-26.434,27.191-50.177,47.584-70.57
			c20.393-20.393,44.137-36.403,70.57-47.584C190.956,33.868,220.026,28,250,28 M250,14C119.669,14,14,119.669,14,250
			c0,130.332,105.669,236,236,236c130.332,0,236-105.668,236-236C486,119.669,380.332,14,250,14L250,14z"/>
	</g>
	<path fill="#BCCFD1" d="M411.806,256.088c1.111,1.297,1.407,2.941,0.887,4.925c-0.521,1.987-1.849,3.427-3.981,4.319
		l-19.396,11.337c-1.743,1.106-3.476,1.435-5.201,0.982c-1.725-0.452-3.128-1.603-4.207-3.449l-44.885-76.792
		c-4.28,0.554-8.498,0.453-12.657-0.303c-4.159-0.755-8.117-2.07-11.868-3.95c-3.755-1.877-7.251-4.302-10.493-7.276
		c-3.243-2.971-6.061-6.504-8.45-10.595c-2.47-4.222-4.214-8.646-5.234-13.271c-1.023-4.625-1.356-9.208-1.002-13.753
		c0.353-4.542,1.393-8.936,3.12-13.175c1.725-4.24,4.168-8.124,7.329-11.652l21.913,36.581l25.334-14.807l-21.286-36.417
		c4.437-0.735,8.928-0.814,13.469-0.239c4.541,0.578,8.911,1.808,13.11,3.689c4.198,1.884,8.075,4.354,11.632,7.407
		c3.556,3.056,6.566,6.694,9.036,10.916c2.389,4.091,4.085,8.277,5.085,12.562c0.998,4.284,1.387,8.549,1.17,12.792
		c-0.22,4.245-1.047,8.356-2.481,12.337c-1.437,3.98-3.379,7.661-5.828,11.041L411.806,256.088z"/>
	<path fill="#6A8F97" d="M394.297,247.334c1.111,1.297,1.407,2.941,0.887,4.925c-0.521,1.987-1.849,3.427-3.981,4.319
		l-19.396,11.337c-1.743,1.106-3.476,1.435-5.201,0.982c-1.725-0.452-3.128-1.603-4.207-3.449l-44.885-76.792
		c-4.28,0.554-8.498,0.453-12.657-0.303c-4.159-0.755-8.117-2.07-11.868-3.95c-3.755-1.877-7.251-4.302-10.493-7.276
		c-3.243-2.971-6.061-6.504-8.45-10.595c-2.47-4.222-4.214-8.646-5.234-13.271c-1.023-4.625-1.356-9.209-1.002-13.753
		c0.353-4.542,1.393-8.936,3.12-13.175c1.725-4.24,4.168-8.124,7.329-11.652l21.913,36.581l25.334-14.807l-21.286-36.417
		c4.437-0.735,8.928-0.814,13.469-0.239c4.541,0.578,8.911,1.808,13.11,3.689c4.198,1.884,8.075,4.354,11.632,7.407
		c3.556,3.056,6.566,6.694,9.036,10.916c2.389,4.091,4.085,8.277,5.085,12.562c0.998,4.284,1.387,8.549,1.17,12.792
		c-0.22,4.245-1.047,8.356-2.481,12.337c-1.437,3.98-3.379,7.661-5.828,11.041L394.297,247.334z"/>
	<path fill="#BBCED0" d="M242.366,415.604c66.124,0,119.732-14.286,119.732-31.91c0-17.617-53.607-31.901-119.732-31.901
		c-66.131,0-119.741,14.284-119.741,31.901C122.625,401.318,176.235,415.604,242.366,415.604"/>
	<path fill="#1E4A54" d="M209.27,394.183c-65.128-0.278-117.639-50.895-116.406-117.126c0.596-32.016,13.044-59.397,36.558-81.259
		c22.628-21.038,49.798-31.281,80.6-30.503c32.015,0.809,59.377,13.14,81.21,36.678c21.074,22.72,31.262,49.992,30.38,80.875
		c-0.906,31.746-13.169,58.89-36.465,80.624C263.296,383.858,237.064,393.643,209.27,394.183z M288.895,337.917
		c12.649-17.29,19.11-36.292,19.142-57.942c-2.563,2.719-4.722,5.01-6.993,7.419c-0.569-0.642-0.939-1.054-1.304-1.472
		c-4.375-5.009-8.749-10.02-13.123-15.03c-3.242-3.713-6.532-7.385-9.689-11.168c-0.798-0.956-1.56-2.237-1.649-3.421
		c-0.15-2,0.226-4.043,0.424-6.064c0.61-6.21,1.271-12.416,1.853-18.629c0.407-4.352,0.718-8.714,1.095-13.36
		c1.694,0.371,3.247,0.743,4.814,1.044c1.58,0.304,3.173,0.538,5.111,0.86c-12.936-17.196-29.221-29.138-49.562-35.702
		c1.498,2.787,2.996,5.573,4.504,8.378c-0.814,0.336-1.311,0.538-1.806,0.746c-9.203,3.866-18.576,7.383-27.542,11.737
		c-4.959,2.408-8.924,2.361-13.88-0.011c-9.525-4.559-19.438-8.307-29.362-12.463c1.577-2.909,3.061-5.646,4.625-8.532
		c-12.1,0.873-41.015,21.976-49.377,35.829c3.209-0.606,6.404-1.21,9.53-1.801c0.584,5.714,1.168,11.068,1.669,16.43
		c0.669,7.15,1.291,14.305,1.872,21.463c0.051,0.628-0.184,1.427-0.575,1.917c-1.702,2.136-3.485,4.209-5.286,6.263
		c-2.738,3.124-5.549,6.186-8.269,9.326c-3.887,4.488-7.72,9.023-11.692,13.673c-2.296-2.442-4.46-4.744-6.749-7.179
		c-1.554,16.499,8.728,48.248,18.846,57.918c0.494-3.332,0.954-6.436,1.406-9.482c2.663,0.604,4.919,1.117,7.175,1.628
		c9.428,2.137,18.851,4.3,28.29,6.387c1.835,0.406,3.224,1.148,4.222,2.838c6.216,10.533,12.502,21.026,18.902,31.763
		c-2.965,1.408-5.853,2.78-9.357,4.444c20.989,6.343,41.213,6.367,62.107-0.011c-3.517-1.683-6.405-3.065-9.343-4.471
		c5.869-9.761,11.507-19.206,17.223-28.603c1.505-2.475,2.412-5.286,6.08-6.038c11.73-2.402,23.38-5.194,35.376-7.907
		C288.032,331.747,288.463,334.832,288.895,337.917z"/>
	<path fill="#D8E3E2" d="M288.895,337.917c-0.432-3.085-0.863-6.17-1.29-9.218c-11.997,2.713-23.647,5.505-35.376,7.907
		c-3.668,0.751-4.575,3.563-6.08,6.038c-5.716,9.397-11.354,18.841-17.223,28.603c2.938,1.406,5.826,2.788,9.343,4.471
		c-20.894,6.378-41.118,6.354-62.107,0.011c3.504-1.664,6.392-3.036,9.357-4.444c-6.4-10.737-12.686-21.23-18.902-31.763
		c-0.998-1.691-2.386-2.433-4.222-2.838c-9.439-2.087-18.862-4.25-28.29-6.387c-2.256-0.511-4.513-1.024-7.175-1.628
		c-0.452,3.047-0.912,6.15-1.406,9.482c-10.119-9.67-20.4-41.418-18.846-57.918c2.289,2.435,4.453,4.736,6.749,7.179
		c3.972-4.65,7.805-9.185,11.692-13.673c2.72-3.14,5.53-6.202,8.269-9.326c1.801-2.055,3.584-4.128,5.286-6.263
		c0.39-0.49,0.626-1.289,0.575-1.917c-0.581-7.158-1.204-14.313-1.872-21.463c-0.501-5.362-1.086-10.716-1.669-16.43
		c-3.127,0.591-6.321,1.194-9.53,1.801c8.362-13.853,37.278-34.957,49.377-35.829c-1.564,2.886-3.048,5.623-4.625,8.532
		c9.924,4.156,19.837,7.904,29.362,12.463c4.955,2.372,8.921,2.419,13.88,0.011c8.966-4.354,18.339-7.871,27.542-11.737
		c0.495-0.208,0.992-0.41,1.806-0.746c-1.508-2.805-3.006-5.592-4.504-8.378c20.341,6.563,36.626,18.506,49.562,35.702
		c-1.938-0.323-3.531-0.556-5.111-0.86c-1.567-0.301-3.12-0.673-4.814-1.044c-0.377,4.647-0.687,9.008-1.095,13.36
		c-0.582,6.213-1.243,12.418-1.853,18.629c-0.198,2.021-0.574,4.064-0.424,6.064c0.089,1.184,0.851,2.465,1.649,3.421
		c3.157,3.783,6.448,7.455,9.689,11.168c4.374,5.01,8.748,10.02,13.123,15.03c0.364,0.417,0.735,0.83,1.304,1.472
		c2.271-2.409,4.43-4.7,6.993-7.419C308.005,301.625,301.544,320.627,288.895,337.917z M207.234,239.2
		c-13.844,10.049-27.608,20.02-41.315,30.068c-0.527,0.387-0.894,1.645-0.686,2.287c5.067,15.676,10.253,31.314,15.305,46.995
		c0.43,1.336,1.047,1.517,2.165,1.516c16.392-0.012,32.785-0.017,49.177,0.009c1.215,0.002,1.723-0.377,2.1-1.62
		c1.413-4.66,3.049-9.253,4.555-13.886c3.54-10.888,7.024-21.793,10.613-32.665c0.433-1.313,0.486-1.962-0.827-2.871
		c-4.915-3.401-9.674-7.027-14.51-10.544C224.968,252.058,216.113,245.643,207.234,239.2z"/>
	<path fill="#1E4A54" d="M207.234,239.2c8.879,6.443,17.735,12.858,26.578,19.29c4.835,3.517,9.595,7.143,14.51,10.544
		c1.313,0.908,1.26,1.558,0.827,2.871c-3.589,10.871-7.073,21.777-10.613,32.665c-1.506,4.633-3.142,9.225-4.555,13.886
		c-0.377,1.243-0.886,1.622-2.1,1.62c-16.392-0.026-32.785-0.021-49.177-0.009c-1.118,0.001-1.735-0.18-2.165-1.516
		c-5.051-15.681-10.238-31.319-15.305-46.995c-0.208-0.642,0.159-1.9,0.686-2.287C179.625,259.22,193.389,249.25,207.234,239.2z"/>
	<path opacity="0.4" fill="#1E4A54" d="M303.516,218.191c-3.566,85.345-73.852,153.448-160.074,153.448
		c-1.447,0-2.877-0.072-4.319-0.11c19.052,14.229,42.69,22.654,68.296,22.654c63.096,0,114.244-51.149,114.244-114.245
		C321.664,257.183,314.984,236.001,303.516,218.191z"/>
	
		<ellipse transform="matrix(0.9958 -0.0914 0.0914 0.9958 -18.0464 19.4287)" opacity="0.5" fill="#FFFFFF" cx="203.172" cy="206.813" rx="35.202" ry="22.363"/>
	
		<ellipse transform="matrix(0.7874 -0.6164 0.6164 0.7874 -112.047 139.1202)" opacity="0.5" fill="#FFFFFF" cx="145.675" cy="232.007" rx="16.599" ry="10.545"/>
</g>
<g>
</g>
<g>
</g>
<g>
</g>
<g>
</g>
<g>
</g>
<g>
</g>
<g>
</g>
<g>
</g>
<g>
</g>
<g>
</g>
<g>
</g>
<g>
</g>
<g>
</g>
<g>
</g>
<g>
</g>
</svg>
