<?xml version="1.0" encoding="utf-8"?>
<!-- Generator: Adobe Illustrator 20.0.0, SVG Export Plug-In . SVG Version: 6.00 Build 0)  -->
<svg version="1.1" id="Graphics" xmlns="http://www.w3.org/2000/svg" xmlns:xlink="http://www.w3.org/1999/xlink" x="0px" y="0px"
	 viewBox="0 0 500 500" enable-background="new 0 0 500 500" xml:space="preserve">
<g>
	<g>
		<path fill="#366842" d="M250,14c31.866,0,62.771,6.238,91.857,18.54c28.101,11.886,53.341,28.904,75.02,50.583
			c21.678,21.678,38.697,46.919,50.583,75.02C479.762,187.229,486,218.134,486,250s-6.238,62.771-18.54,91.857
			c-11.886,28.101-28.904,53.341-50.583,75.02s-46.919,38.697-75.02,50.583C312.771,479.762,281.866,486,250,486
			s-62.771-6.238-91.857-18.54c-28.101-11.886-53.341-28.904-75.02-50.583c-21.678-21.678-38.697-46.919-50.583-75.02
			C20.238,312.771,14,281.866,14,250s6.238-62.771,18.54-91.857c11.886-28.101,28.904-53.341,50.583-75.02
			c21.679-21.678,46.919-38.697,75.02-50.583C187.229,20.238,218.134,14,250,14 M250,0C111.93,0,0,111.93,0,250s111.93,250,250,250
			s250-111.93,250-250S388.07,0,250,0L250,0z"/>
	</g>
	<g>
		<path fill="#EEF3F3" d="M250,479c-61.165,0-118.67-23.821-161.924-67.075C44.821,368.67,21,311.165,21,250
			c0-61.164,23.821-118.67,67.076-161.924S188.836,21,250,21c61.165,0,118.67,23.821,161.925,67.076
			C455.179,131.33,479,188.835,479,250s-23.821,118.67-67.075,161.925C368.67,455.179,311.165,479,250,479z"/>
		<path fill="#8CB61D" d="M250,28c29.974,0,59.045,5.868,86.405,17.441c26.434,11.181,50.177,27.191,70.57,47.584
			c20.393,20.393,36.403,44.137,47.584,70.57C466.132,190.956,472,220.026,472,250c0,29.974-5.868,59.045-17.441,86.405
			c-11.181,26.434-27.191,50.177-47.584,70.57c-20.393,20.393-44.136,36.403-70.57,47.584C309.045,466.132,279.974,472,250,472
			c-29.974,0-59.044-5.868-86.404-17.441c-26.434-11.181-50.177-27.191-70.57-47.584c-20.393-20.393-36.403-44.136-47.584-70.57
			C33.868,309.045,28,279.974,28,250c0-29.974,5.868-59.044,17.441-86.404c11.181-26.434,27.191-50.177,47.584-70.57
			s44.137-36.403,70.57-47.584C190.956,33.868,220.026,28,250,28 M250,14C119.669,14,14,119.669,14,250
			c0,130.332,105.669,236,236,236c130.332,0,236-105.668,236-236C486,119.669,380.332,14,250,14L250,14z"/>
	</g>
	<path fill="#B3C589" d="M406.78,330.686c-4.966,25.862-21.331,42.834-44.235,54.584c-11.121,5.789-23.6,9.271-36.206,9.438
		c-7.961,0.105-16.189-1.112-23.77-3.583c-3.998-1.275-12.029-6.394-15.346-6.35c-4.147,0.055-8.898,17.039-16.113,17.134
		c-5.225,0.069-6.835-2.481-9.124-6.266c-0.765-1.4-1.352-1.891-1.375-3.632c-0.114-8.625,16.217-15.56,16.154-20.37
		c-0.01-0.746-2.224-5.113-2.578-6.767c-0.535-2.814-0.822-5.714-0.861-8.616c-0.349-26.372,20.383-45.476,43.833-53.583
		c16.926-5.864,53.172,0.208,64.554-10.891c4.506-4.29,6.693-8.218,13.659-8.31c9.371-0.124,12.762,24.135,12.855,31.184
		C408.297,319.966,407.788,325.364,406.78,330.686z M360.605,326.403c-29.358,0.389-48.105,12.913-66.982,34.315
		c-0.981,1.091-1.546,2.26-1.526,3.753c0.038,2.903,2.475,5.277,5.377,5.238c1.493-0.02,2.646-0.616,3.711-1.626
		c4.015-3.703,7.612-7.732,11.543-11.517c14.832-13.717,27.615-19.277,48.017-19.547c2.902-0.038,5.275-2.476,5.237-5.378
		C365.944,328.738,363.507,326.364,360.605,326.403z"/>
	<path fill="#366842" d="M405.401,308c-4.966,25.862-21.331,42.834-44.234,54.584c-11.121,5.789-23.6,9.271-36.206,9.438
		c-7.961,0.105-16.189-1.112-23.77-3.584c-3.998-1.274-12.029-6.393-15.346-6.349c-4.147,0.055-8.898,17.039-16.113,17.135
		c-5.225,0.069-6.835-2.482-9.124-6.266c-0.765-1.4-1.352-1.891-1.375-3.632c-0.114-8.625,16.217-15.56,16.153-20.371
		c-0.01-0.746-2.224-5.113-2.578-6.767c-0.535-2.814-0.822-5.714-0.861-8.616c-0.349-26.372,20.383-45.475,43.833-53.584
		c16.926-5.864,53.171,0.209,64.554-10.891c4.505-4.29,6.693-8.217,13.659-8.31c9.371-0.124,12.761,24.134,12.855,31.184
		C406.918,297.279,406.409,302.678,405.401,308z M359.226,303.717c-29.358,0.389-48.104,12.913-66.981,34.315
		c-0.981,1.091-1.546,2.261-1.526,3.753c0.038,2.903,2.475,5.277,5.378,5.238c1.493-0.02,2.646-0.616,3.711-1.626
		c4.015-3.703,7.612-7.732,11.543-11.517c14.832-13.717,27.615-19.277,48.017-19.548c2.903-0.038,5.276-2.476,5.237-5.377
		C364.566,306.051,362.129,303.678,359.226,303.717z"/>
	<path fill="#3EA159" d="M264.194,377.629c9.037-11.787,18.347-23.273,27.362-33.086c-0.514-0.803-0.824-1.747-0.837-2.759
		c-0.02-1.492,0.545-2.661,1.526-3.753c18.877-21.401,37.623-33.926,66.981-34.315c2.653-0.035,4.911,1.947,5.31,4.504
		c9.57-1.58,28.725-3.543,34.855-44.347c-1.523-1.931-3.312-3.114-5.399-3.086c-6.967,0.092-9.154,4.02-13.659,8.31
		c-11.383,11.1-47.628,5.026-64.554,10.891c-23.45,8.109-44.182,27.212-43.833,53.584c0.038,2.903,0.326,5.802,0.861,8.616
		c0.353,1.654,2.568,6.02,2.578,6.767c0.064,4.811-16.268,11.746-16.153,20.371c0.023,1.741,0.61,2.232,1.375,3.632
		C261.786,374.906,262.789,376.524,264.194,377.629z"/>
	<path fill="#B3C589" d="M107.315,283.856c1.474,0.443,3.011,1.104,4.551,1.843c0.565,0.237,1.136,0.529,1.717,0.848
		c1.708,0.885,3.335,1.844,4.759,2.715c0.445,0.183,0.857,0.348,1.288,0.49c-6.699-5.064-18.82-13.008-22.671-15.719
		c-4.483-3.158-19.938-23.765-7.087-28.522c12.816-4.763,19.944,4.44,25.165,12.957c4.45,7.316,7.102,20.428,8.603,26.912
		c0.395,0.925,0.85,1.819,1.415,2.662c-0.444-1.994-0.702-3.999-0.847-6.037c-0.228-1.718-0.348-3.681-0.317-5.874
		c0.156-8.266,5.553-32.251,30.898-22.796c25.345,9.463-1.6,27.326-2.083,27.378c-0.492,0.059-12.901,5.977-15.383,9.039
		c-0.44,0.51-0.813,1.127-1.175,1.783c-0.747,3.048-0.709,6.361,0.055,9.37c11.208-4.014,24.113-5.156,37.312-2.627
		c34.36,6.584,57.69,35.531,52.11,64.656c-2.535,13.229-10.598,24.218-21.863,31.657c-0.122,0.08-0.245,0.158-0.367,0.237
		c-0.295,0.192-0.59,0.382-0.889,0.569c-0.156,0.097-0.314,0.193-0.47,0.288c-0.269,0.164-0.539,0.329-0.812,0.49
		c-0.171,0.101-0.344,0.199-0.516,0.298c-0.264,0.152-0.53,0.303-0.797,0.452c-0.177,0.098-0.354,0.195-0.532,0.292
		c-0.27,0.146-0.541,0.29-0.813,0.432c-0.177,0.094-0.354,0.186-0.533,0.278c-0.283,0.145-0.568,0.286-0.854,0.426
		c-0.17,0.084-0.34,0.168-0.511,0.251c-0.315,0.151-0.633,0.298-0.951,0.444c-0.144,0.066-0.288,0.135-0.432,0.2
		c-0.932,0.419-1.877,0.818-2.837,1.193c-0.145,0.057-0.291,0.111-0.437,0.167c-0.336,0.129-0.672,0.257-1.01,0.381
		c-0.181,0.066-0.364,0.129-0.545,0.194c-0.307,0.109-0.614,0.216-0.923,0.321c-0.197,0.067-0.394,0.131-0.591,0.195
		c-0.299,0.098-0.599,0.195-0.901,0.289c-0.202,0.063-0.405,0.126-0.608,0.187c-0.304,0.091-0.608,0.18-0.914,0.267
		c-0.202,0.058-0.403,0.116-0.605,0.171c-0.316,0.087-0.633,0.171-0.952,0.254c-0.193,0.049-0.385,0.101-0.578,0.149
		c-0.351,0.088-0.704,0.172-1.057,0.254c-0.163,0.038-0.324,0.077-0.487,0.115c-1.036,0.233-2.081,0.444-3.136,0.63
		c-0.164,0.029-0.328,0.055-0.493,0.083c-0.365,0.062-0.729,0.122-1.096,0.179c-0.201,0.03-0.403,0.058-0.605,0.087
		c-0.332,0.048-0.666,0.095-1,0.139c-0.215,0.028-0.431,0.053-0.648,0.08c-0.324,0.038-0.649,0.076-0.975,0.11
		c-0.221,0.023-0.442,0.046-0.663,0.067c-0.327,0.032-0.655,0.06-0.983,0.087c-0.219,0.019-0.439,0.036-0.66,0.053
		c-0.339,0.024-0.679,0.045-1.02,0.065c-0.208,0.012-0.416,0.025-0.625,0.036c-0.376,0.019-0.753,0.033-1.13,0.045
		c-0.175,0.006-0.349,0.014-0.525,0.019c-1.105,0.029-2.218,0.034-3.336,0.013c-0.18-0.003-0.36-0.011-0.539-0.016
		c-0.38-0.009-0.76-0.021-1.141-0.036c-0.217-0.01-0.434-0.022-0.651-0.032c-0.346-0.018-0.693-0.037-1.04-0.059
		c-0.23-0.015-0.461-0.033-0.692-0.049c-0.337-0.025-0.675-0.053-1.013-0.083c-0.235-0.02-0.469-0.042-0.703-0.065
		c-0.338-0.034-0.677-0.07-1.017-0.107c-0.232-0.026-0.464-0.051-0.697-0.08c-0.351-0.042-0.701-0.088-1.052-0.135
		c-0.221-0.031-0.441-0.059-0.661-0.091c-0.385-0.056-0.77-0.117-1.155-0.177c-0.187-0.031-0.374-0.059-0.561-0.09
		c-0.571-0.095-1.144-0.197-1.716-0.307c-34.361-6.584-57.691-35.532-52.111-64.658c0.092-0.483,0.193-0.962,0.301-1.439
		c0.035-0.157,0.075-0.312,0.112-0.468c0.075-0.32,0.151-0.64,0.233-0.956c0.047-0.183,0.098-0.365,0.148-0.547
		c0.078-0.288,0.158-0.576,0.241-0.862c0.056-0.19,0.114-0.378,0.171-0.566c0.085-0.277,0.172-0.554,0.262-0.827
		c0.062-0.189,0.125-0.377,0.189-0.566c0.093-0.273,0.189-0.545,0.287-0.815c0.067-0.183,0.133-0.366,0.202-0.548
		c0.104-0.277,0.213-0.552,0.322-0.827c0.068-0.171,0.136-0.343,0.206-0.513c0.121-0.294,0.248-0.585,0.375-0.876
		c0.064-0.146,0.127-0.295,0.193-0.441c0.16-0.356,0.326-0.707,0.494-1.058c0.038-0.079,0.073-0.158,0.111-0.237
		c0.213-0.437,0.433-0.872,0.661-1.303c0.018-0.034,0.037-0.068,0.055-0.103c0.206-0.388,0.418-0.774,0.634-1.156
		c0.062-0.111,0.128-0.22,0.191-0.329c0.176-0.305,0.355-0.609,0.538-0.911c0.079-0.129,0.159-0.256,0.239-0.385
		c0.174-0.28,0.35-0.559,0.53-0.837c0.085-0.131,0.173-0.263,0.26-0.395c0.181-0.272,0.365-0.544,0.552-0.814
		c0.088-0.126,0.176-0.252,0.265-0.377c0.195-0.276,0.394-0.55,0.595-0.822c0.084-0.113,0.168-0.227,0.253-0.34
		c0.219-0.292,0.442-0.58,0.668-0.866c0.07-0.09,0.14-0.181,0.211-0.269c0.269-0.337,0.544-0.67,0.822-1.001
		c0.03-0.036,0.058-0.072,0.089-0.108c0.96-1.134,1.975-2.227,3.037-3.28c0.039-0.038,0.078-0.076,0.117-0.114
		c0.31-0.305,0.624-0.607,0.942-0.905c0.062-0.059,0.125-0.116,0.188-0.173c0.301-0.28,0.606-0.557,0.914-0.829
		c0.068-0.06,0.136-0.12,0.205-0.181c0.31-0.272,0.624-0.541,0.94-0.805c0.065-0.055,0.129-0.109,0.194-0.162
		c0.334-0.277,0.672-0.55,1.013-0.82c0.047-0.037,0.094-0.075,0.141-0.112c0.384-0.302,0.773-0.599,1.167-0.892
		c0.003-0.003,0.007-0.005,0.01-0.008c1.649-1.225,3.379-2.369,5.179-3.427c0.004-0.003,0.01-0.006,0.014-0.008
		c0.434-0.255,0.873-0.505,1.315-0.749c0.035-0.019,0.07-0.038,0.104-0.057c0.36-0.199,0.721-0.393,1.085-0.585
		c-1.607-0.85-3.237-1.569-3.852-1.797c-0.262-0.106-0.495-0.166-0.755-0.244c-3.969,0.469-9.325,1.499-11.009,3.031
		c-2.666,2.393-14.517,10.26-15.89,10.767c-1.369,0.487-19.098,3.546-21.454-14.852C72.852,282.912,100.704,281.803,107.315,283.856
		z"/>
	<path fill="#366842" d="M85.126,282.07c2.357,18.398,20.085,15.339,21.454,14.851c1.374-0.508,13.224-8.374,15.89-10.767
		c1.684-1.533,7.04-2.562,11.009-3.032c0.259,0.08,0.493,0.139,0.755,0.245c1.448,0.535,8.522,3.802,7.681,5.046l5.258-3.759
		c-1.704-3.672-2.122-8.267-1.114-12.376c0.362-0.656,0.734-1.273,1.175-1.783c2.481-3.061,14.891-8.98,15.383-9.039
		c0.483-0.052,27.428-17.914,2.083-27.378c-25.345-9.454-30.742,14.53-30.898,22.796c-0.031,2.193,0.09,4.156,0.317,5.874
		c0.145,2.037,0.403,4.043,0.846,6.037c-0.564-0.842-1.02-1.738-1.415-2.663c-1.501-6.484-4.153-19.596-8.603-26.911
		c-5.221-8.517-12.349-17.72-25.165-12.957c-12.85,4.757,2.604,25.365,7.087,28.522c3.852,2.71,15.972,10.655,22.671,15.718
		c-0.431-0.142-0.842-0.307-1.288-0.49c-1.424-0.87-3.05-1.83-4.759-2.715c-0.581-0.319-1.152-0.612-1.717-0.848
		c-1.54-0.739-3.077-1.4-4.551-1.843C110.616,262.547,82.765,263.657,85.126,282.07"/>
	
		<ellipse transform="matrix(0.1882 -0.9821 0.9821 0.1882 -185.1243 439.5521)" fill="#E45C5E" cx="173.322" cy="331.757" rx="53.696" ry="63.347"/>
	<path fill="#AD4F49" d="M141.186,283.646c-4.907,6.232-8.364,13.494-9.904,21.531c-5.956,31.086,18.945,61.983,55.617,69.01
		c9.645,1.848,19.142,1.858,28.012,0.309c-13.658,9.538-32.363,13.703-51.693,9.999c-34.361-6.584-57.691-35.532-52.111-64.657
		C114.222,303.579,125.688,290.706,141.186,283.646z"/>
	
		<ellipse transform="matrix(0.1882 -0.9821 0.9821 0.1882 -139.6255 445.1387)" fill="#ED8C7A" cx="199.451" cy="307.029" rx="9.258" ry="11.157"/>
	
		<ellipse transform="matrix(0.1882 -0.9821 0.9821 0.1882 -140.101 470.7839)" fill="#ED8C7A" cx="214.726" cy="320.139" rx="4.457" ry="5.372"/>
	<path fill="#C3487B" d="M250,75.525c-33.966,0-61.5,27.535-61.5,61.5c0,8.373,1.676,16.355,4.707,23.63
		c0,0,44.781,123.394,56.793,123.394c12.012,0,56.793-123.394,56.793-123.394c3.03-7.275,4.707-15.257,4.707-23.63
		C311.5,103.06,283.965,75.525,250,75.525z M250,162.996c-14.343,0-25.971-11.627-25.971-25.971c0-14.343,11.627-25.97,25.971-25.97
		c14.343,0,25.97,11.627,25.97,25.97C275.97,151.368,264.343,162.996,250,162.996z"/>
</g>
<g>
</g>
<g>
</g>
<g>
</g>
<g>
</g>
<g>
</g>
<g>
</g>
<g>
</g>
<g>
</g>
<g>
</g>
<g>
</g>
<g>
</g>
<g>
</g>
<g>
</g>
<g>
</g>
<g>
</g>
</svg>
