<?xml version="1.0" encoding="utf-8"?>
<!-- Generator: Adobe Illustrator 20.0.0, SVG Export Plug-In . SVG Version: 6.00 Build 0)  -->
<svg version="1.1" id="Graphics" xmlns="http://www.w3.org/2000/svg" xmlns:xlink="http://www.w3.org/1999/xlink" x="0px" y="0px"
	 viewBox="0 0 500 500" enable-background="new 0 0 500 500" xml:space="preserve">
<g>
	<g>
		<rect x="89.175" y="185.093" fill="none" width="260.678" height="220.613"/>
	</g>
	<g>
		<g>
			<g>
				<g>
					<path fill="#564677" d="M250,14c31.866,0,62.771,6.238,91.857,18.54c28.101,11.886,53.341,28.904,75.02,50.583
						c21.678,21.678,38.697,46.919,50.583,75.02C479.762,187.229,486,218.134,486,250c0,31.866-6.238,62.771-18.54,91.857
						c-11.886,28.101-28.904,53.341-50.583,75.02c-21.678,21.678-46.919,38.697-75.02,50.583C312.771,479.762,281.866,486,250,486
						s-62.771-6.238-91.857-18.54c-28.101-11.886-53.341-28.904-75.02-50.583c-21.678-21.678-38.697-46.919-50.583-75.02
						C20.238,312.771,14,281.866,14,250c0-31.866,6.238-62.771,18.54-91.857c11.886-28.101,28.904-53.341,50.583-75.02
						c21.678-21.678,46.919-38.697,75.02-50.583C187.229,20.238,218.134,14,250,14 M250,0C111.93,0,0,111.929,0,250
						c0,138.07,111.93,250,250,250s250-111.93,250-250C500,111.929,388.07,0,250,0L250,0z"/>
				</g>
				<g>
					<path fill="#EEF3F3" d="M250,479c-61.165,0-118.67-23.821-161.924-67.075C44.821,368.67,21,311.165,21,250
						c0-61.164,23.821-118.67,67.076-161.924S188.836,21,250,21c61.165,0,118.67,23.821,161.925,67.076
						C455.179,131.33,479,188.836,479,250c0,61.165-23.821,118.67-67.075,161.925C368.67,455.179,311.165,479,250,479z"/>
					<path fill="#AB8EB8" d="M250,28c29.974,0,59.045,5.868,86.405,17.441c26.434,11.181,50.177,27.191,70.57,47.584
						s36.403,44.137,47.584,70.57C466.132,190.956,472,220.026,472,250c0,29.974-5.868,59.045-17.441,86.405
						c-11.181,26.434-27.191,50.177-47.584,70.57c-20.393,20.393-44.136,36.403-70.57,47.584C309.045,466.132,279.974,472,250,472
						c-29.974,0-59.044-5.868-86.404-17.441c-26.434-11.181-50.177-27.191-70.57-47.584c-20.393-20.393-36.403-44.137-47.584-70.57
						C33.868,309.045,28,279.974,28,250c0-29.974,5.868-59.044,17.441-86.404c11.181-26.434,27.191-50.177,47.584-70.57
						c20.393-20.393,44.137-36.403,70.57-47.584C190.956,33.868,220.026,28,250,28 M250,14C119.669,14,14,119.669,14,250
						c0,130.332,105.669,236,236,236c130.332,0,236-105.668,236-236C486,119.669,380.332,14,250,14L250,14z"/>
				</g>
			</g>
		</g>
		<g>
			<g>
				<path fill-rule="evenodd" clip-rule="evenodd" fill="#D8E3E2" d="M273.891,165.083c-2.751,4.538-5.55,9.355-8.377,14.196
					c-1.392,2.377-2.921,4.63-3.813,7.512c-0.873,2.823-1.458,6.209-1.058,9.935c0.542,5.042,2.929,8.291,6.256,10.712
					c1.076,0.781,2.191,1.6,3.379,2.213c4.988,2.586,12.307,3.066,19.659,2.387c5.551-9.269,10.94-18.703,16.345-28.117
					C295.514,177.661,284.609,171.166,273.891,165.083z"/>
				<path fill-rule="evenodd" clip-rule="evenodd" fill="#D8E3E2" d="M325.04,253.862c-0.005,2.714-0.011,5.426-0.017,8.142
					c0.129,0.041,0.282-0.132,0.345-0.21c1.738-2.093,3.412-4.6,5.123-6.815c5.509-7.146,10.99-14.653,16.536-21.772
					c-7.295-9.607-14.59-19.576-21.881-28.959c-0.009,3.954-0.018,7.913-0.025,11.868c-11.605-0.023-23.909-0.051-35.675-0.075
					c-3.131-0.007-5.978,0.135-8.695-0.156c-7.883-0.855-14.231-3.495-18.058-8.667c5.75,10.878,11.583,21.928,17.522,32.955
					c0.842,1.556,1.583,3.239,2.547,4.625c1.603,2.317,4.7,4.093,7.577,5.261c3.208,1.304,6.529,2.059,10.276,2.578
					C308.331,253.704,316.999,253.198,325.04,253.862z"/>
			</g>
			<g>
				<path fill-rule="evenodd" clip-rule="evenodd" fill="#D8E3E2" d="M356.827,253.46c5.306,0.113,10.877,0.128,16.483,0.157
					c2.754,0.017,5.471,0.215,8.412-0.454c2.882-0.655,6.106-1.842,9.133-4.051c4.096-2.991,5.716-6.682,6.148-10.774
					c0.139-1.322,0.29-2.698,0.227-4.033c-0.254-5.612-3.499-12.191-7.762-18.218c-10.803-0.173-21.667-0.123-32.523-0.097
					C356.908,228.446,356.736,241.137,356.827,253.46z"/>
				<path fill-rule="evenodd" clip-rule="evenodd" fill="#D8E3E2" d="M408.138,164.774c2.353-1.352,4.704-2.703,7.059-4.056
					c-0.029-0.132-0.256-0.178-0.355-0.194c-2.681-0.459-5.69-0.655-8.464-1.029c-8.943-1.198-18.185-2.191-27.123-3.435
					c-4.672,11.121-9.658,22.423-14.138,33.429c3.429-1.97,6.861-3.941,10.291-5.912c5.783,10.062,11.91,20.731,17.773,30.933
					c1.56,2.715,3.106,5.11,4.212,7.608c3.201,7.254,4.089,14.072,1.523,19.972c6.545-10.418,13.198-20.995,19.779-31.652
					c0.927-1.507,2.014-2.99,2.732-4.519c1.205-2.547,1.195-6.117,0.767-9.192c-0.474-3.43-1.481-6.684-2.906-10.189
					C416.355,179.324,411.583,172.071,408.138,164.774z"/>
			</g>
			<g>
				<path fill-rule="evenodd" clip-rule="evenodd" fill="#D8E3E2" d="M391.81,136.978c-2.555-4.652-5.327-9.484-8.106-14.353
					c-1.362-2.394-2.549-4.845-4.599-7.058c-2.008-2.168-4.648-4.367-8.075-5.884c-4.638-2.051-8.645-1.609-12.405,0.062
					c-1.214,0.541-2.481,1.098-3.606,1.819c-4.733,3.027-8.809,9.126-11.896,15.832c5.252,9.442,10.727,18.825,16.177,28.214
					C370.106,149.415,381.182,143.219,391.81,136.978z"/>
				<path fill-rule="evenodd" clip-rule="evenodd" fill="#D8E3E2" d="M289.35,136.885c-2.348-1.362-4.693-2.722-7.042-4.085
					c-0.1,0.092-0.026,0.31,0.009,0.404c0.943,2.551,2.278,5.255,3.341,7.844c3.435,8.344,7.195,16.844,10.587,25.206
					c11.967-1.515,24.248-2.847,36.02-4.47c-3.42-1.985-6.844-3.972-10.266-5.956c5.822-10.039,11.998-20.68,17.902-30.858
					c1.571-2.708,2.872-5.245,4.483-7.452c4.682-6.4,10.143-10.577,16.535-11.305c-12.295-0.459-24.781-0.933-37.301-1.303
					c-1.769-0.049-3.597-0.249-5.279-0.107c-2.808,0.23-5.895,2.024-8.344,3.932c-2.733,2.126-5.048,4.625-7.371,7.611
					C297.842,122.494,293.946,130.253,289.35,136.885z"/>
			</g>
		</g>
		<g>
			<g>
				<path fill-rule="evenodd" clip-rule="evenodd" fill="#AB8EB8" d="M259.008,157.641c-2.751,4.538-5.55,9.355-8.377,14.196
					c-1.392,2.377-2.921,4.63-3.813,7.512c-0.873,2.823-1.458,6.209-1.058,9.935c0.542,5.042,2.929,8.291,6.256,10.712
					c1.076,0.781,2.192,1.6,3.379,2.213c4.988,2.586,12.308,3.066,19.659,2.387c5.551-9.269,10.94-18.703,16.345-28.117
					C280.631,170.219,269.726,163.725,259.008,157.641z"/>
				<path fill-rule="evenodd" clip-rule="evenodd" fill="#AB8EB8" d="M310.157,246.42c-0.005,2.714-0.011,5.426-0.017,8.142
					c0.129,0.041,0.282-0.132,0.345-0.21c1.738-2.093,3.412-4.6,5.123-6.815c5.509-7.146,10.99-14.653,16.536-21.772
					c-7.295-9.607-14.59-19.576-21.881-28.959c-0.009,3.954-0.018,7.913-0.025,11.868c-11.605-0.023-23.909-0.051-35.675-0.075
					c-3.131-0.007-5.978,0.135-8.695-0.156c-7.883-0.855-14.231-3.495-18.058-8.667c5.75,10.878,11.583,21.928,17.522,32.955
					c0.842,1.556,1.583,3.239,2.547,4.625c1.603,2.317,4.7,4.093,7.577,5.261c3.208,1.304,6.529,2.059,10.276,2.578
					C293.448,246.262,302.116,245.756,310.157,246.42z"/>
			</g>
			<g>
				<path fill-rule="evenodd" clip-rule="evenodd" fill="#AB8EB8" d="M341.944,246.019c5.306,0.113,10.877,0.128,16.483,0.157
					c2.754,0.017,5.471,0.215,8.412-0.454c2.882-0.655,6.106-1.842,9.133-4.051c4.096-2.991,5.716-6.682,6.148-10.774
					c0.139-1.322,0.29-2.698,0.227-4.033c-0.254-5.612-3.499-12.191-7.762-18.218c-10.803-0.173-21.667-0.123-32.523-0.097
					C342.025,221.004,341.853,233.695,341.944,246.019z"/>
				<path fill-rule="evenodd" clip-rule="evenodd" fill="#AB8EB8" d="M393.254,157.333c2.353-1.352,4.704-2.703,7.059-4.056
					c-0.029-0.132-0.256-0.178-0.355-0.194c-2.681-0.459-5.69-0.655-8.464-1.029c-8.943-1.198-18.185-2.191-27.123-3.435
					c-4.672,11.121-9.658,22.423-14.138,33.429c3.429-1.97,6.861-3.941,10.291-5.912c5.783,10.062,11.91,20.731,17.773,30.933
					c1.56,2.715,3.106,5.11,4.212,7.608c3.201,7.254,4.089,14.072,1.523,19.972c6.545-10.418,13.198-20.995,19.779-31.652
					c0.927-1.507,2.014-2.99,2.732-4.519c1.205-2.547,1.195-6.117,0.767-9.192c-0.474-3.43-1.481-6.684-2.906-10.189
					C401.471,171.882,396.7,164.629,393.254,157.333z"/>
			</g>
			<g>
				<path fill-rule="evenodd" clip-rule="evenodd" fill="#AB8EB8" d="M376.927,129.537c-2.555-4.652-5.327-9.484-8.106-14.353
					c-1.362-2.394-2.549-4.845-4.599-7.058c-2.008-2.168-4.648-4.367-8.075-5.884c-4.638-2.051-8.645-1.609-12.405,0.062
					c-1.214,0.541-2.481,1.098-3.606,1.819c-4.733,3.027-8.809,9.126-11.896,15.832c5.252,9.442,10.727,18.825,16.177,28.214
					C355.223,141.974,366.299,135.777,376.927,129.537z"/>
				<path fill-rule="evenodd" clip-rule="evenodd" fill="#AB8EB8" d="M274.467,129.443c-2.348-1.362-4.693-2.722-7.042-4.085
					c-0.1,0.092-0.026,0.31,0.009,0.404c0.943,2.551,2.278,5.255,3.341,7.844c3.435,8.344,7.195,16.844,10.587,25.206
					c11.967-1.515,24.248-2.847,36.02-4.47c-3.42-1.985-6.844-3.972-10.266-5.956c5.822-10.039,11.998-20.68,17.902-30.858
					c1.571-2.708,2.872-5.245,4.483-7.452c4.682-6.4,10.143-10.577,16.535-11.305c-12.295-0.459-24.781-0.933-37.301-1.303
					c-1.769-0.049-3.597-0.249-5.279-0.107c-2.808,0.23-5.895,2.024-8.344,3.932c-2.733,2.126-5.048,4.625-7.371,7.611
					C282.959,115.052,279.063,122.811,274.467,129.443z"/>
			</g>
		</g>
		<g>
			<g>
				<g>
					<path fill="#BCCFD1" d="M135.057,265.61v-70.999c0-5.256-4.26-9.516-9.516-9.516c-5.256,0-9.516,4.26-9.516,9.516v70.999
						H135.057z"/>
				</g>
				<g>
					<path fill="#BCCFD1" d="M199.443,265.61v-70.999c0-5.256-4.26-9.516-9.516-9.516s-9.516,4.26-9.516,9.516v70.999H199.443z"/>
				</g>
				<g>
					<polygon fill="#BCCFD1" points="89.175,256.138 89.175,271.896 103.76,271.896 106.354,290.034 112.777,341.416 
						194.174,341.416 208.234,271.896 226.295,271.896 226.295,256.138 					"/>
				</g>
				<polygon opacity="0.5" fill="#BCCFD1" points="154.26,341.416 194.174,341.416 208.234,271.896 226.295,271.896 
					226.295,256.138 154.26,256.138 				"/>
				<g>
					<path fill="#BCCFD1" d="M286.703,292.245c-22.822,9.216-43.353,33.778-59.37,71.019c-10.068,23.408-27.239,30.437-39.72,27.039
						c-12.4-3.373-25.441-18.759-21.395-51.036l-20.593-2.582c-5.7,45.474,16.121,68.094,36.54,73.646
						c21.187,5.725,49.242-4.03,64.233-38.866c13.612-31.655,30.687-52.953,48.077-59.975c30.925-12.505,57.53-4.891,69.444,19.858
						c12.805,26.612,5.545,65.951-26.219,103.432c15.076-7.169,29.137-16.124,41.906-26.599
						c14.202-31.432,14.471-62.024,3.013-85.835C366.023,287.864,327.473,275.77,286.703,292.245z"/>
				</g>
			</g>
			<g>
				<g>
					<path fill="#12AD9C" d="M276.703,282.245c-22.822,9.216-43.353,33.778-59.37,71.019c-10.068,23.408-27.239,30.437-39.72,27.039
						c-12.4-3.373-25.441-18.759-21.395-51.036l-20.593-2.582c-5.7,45.474,16.121,68.094,36.54,73.646
						c21.187,5.725,49.242-4.03,64.233-38.866c13.612-31.655,30.687-52.953,48.077-59.975c30.925-12.505,57.53-4.891,69.444,19.858
						c15.35,31.899,1.864,82.083-48.095,125.437c16.619-4.706,32.372-11.467,46.979-19.979
						c29.771-40.903,34.743-83.437,19.816-114.459C356.023,277.864,317.473,265.77,276.703,282.245z"/>
				</g>
				<g>
					<path fill="#1AA9D2" d="M125.057,255.61v-70.999c0-5.256-4.26-9.516-9.516-9.516c-5.256,0-9.516,4.26-9.516,9.516v70.999
						H125.057z"/>
				</g>
				<g>
					<path fill="#1AA9D2" d="M189.443,255.61v-70.999c0-5.256-4.26-9.516-9.516-9.516s-9.516,4.26-9.516,9.516v70.999H189.443z"/>
				</g>
				<g>
					<polygon fill="#00727B" points="79.175,246.138 79.175,261.896 93.76,261.896 96.354,280.034 102.777,331.416 184.174,331.416 
						198.234,261.896 216.295,261.896 216.295,246.138 					"/>
				</g>
				<polygon opacity="0.5" fill="#1E4A54" points="144.26,331.416 184.174,331.416 198.234,261.896 216.295,261.896 
					216.295,246.138 144.26,246.138 				"/>
			</g>
		</g>
	</g>
</g>
<g>
</g>
<g>
</g>
<g>
</g>
<g>
</g>
<g>
</g>
<g>
</g>
<g>
</g>
<g>
</g>
<g>
</g>
<g>
</g>
<g>
</g>
<g>
</g>
<g>
</g>
<g>
</g>
<g>
</g>
</svg>
