<?xml version="1.0" encoding="utf-8"?>
<!-- Generator: Adobe Illustrator 20.1.0, SVG Export Plug-In . SVG Version: 6.00 Build 0)  -->
<svg version="1.1" id="Layer_1" xmlns="http://www.w3.org/2000/svg" xmlns:xlink="http://www.w3.org/1999/xlink" x="0px" y="0px"
	 viewBox="0 0 595.3 841.9" style="enable-background:new 0 0 595.3 841.9;" xml:space="preserve">
<style type="text/css">
	.st0{fill:#01737B;}
	.st1{fill:#CFD8DC;}
	.st2{fill:none;stroke:#B39DDB;stroke-width:5;stroke-miterlimit:10;}
	.st3{fill:none;stroke:#5E35B1;stroke-width:5;stroke-miterlimit:10;}
	.st4{fill:none;stroke:#134489;stroke-width:8.5039;stroke-miterlimit:10;}
	.st5{fill:#679F37;}
	.st6{fill:#7CB340;}
	.st7{fill:#9CC766;}
	.st8{fill:#334295;}
	.st9{fill:#3C4C9B;}
</style>
<path class="st0" d="M351.9,185.2c-8.7-6.1-66.5-45.1-138-25.2C147.8,178.3,97.3,237.8,89,306.8c-7.3,61.5,19.3,121.4,70.6,157.3
	L351.9,185.2z"/>
<path class="st1" d="M351.2,181.4c8.7,6,66.1,46.2,72.8,120.1c6.3,68.2-31.3,136.6-92.8,168.9c-54.9,28.7-120.3,25.1-172.1-9.9
	L351.2,181.4z"/>
<circle class="st2" cx="256.1" cy="321.7" r="166.8"/>
<circle class="st3" cx="256.5" cy="321" r="171.3"/>
<line class="st4" x1="119.8" y1="275.2" x2="386.6" y2="275.2"/>
<polygon class="st5" points="171.5,271 162,372 188.1,372 "/>
<rect x="171.5" y="271" class="st6" width="87.5" height="150"/>
<rect x="171.5" y="396.2" class="st7" width="87.5" height="15.1"/>
<polygon class="st8" points="357,271 366.9,309.9 345.9,309.9 347.1,271 "/>
<path class="st9" d="M282.6,379.4l14.8,11.3c4.7-7,9.3-14.2,14-21.2c1.5-1.2,6.7-4.7,14.8-4.7c7.8,0,13.1,3.5,14.5,4.4
	c3.8,7,7.6,14.2,11.3,21.2l16.6-10.5c-3.8-5.8-7.6-11.6-11-17.2c-0.3-30.8-0.3-61.3-0.6-92.2c-20.9,0-42.2,0-63.1,0
	c0,31.1,0,62.5,0,93.6C290.1,369.5,286.4,374.4,282.6,379.4z"/>
</svg>
