<?xml version="1.0" encoding="utf-8"?>
<!-- Generator: Adobe Illustrator 19.2.1, SVG Export Plug-In . SVG Version: 6.00 Build 0)  -->
<svg version="1.1" id="Graphics" xmlns="http://www.w3.org/2000/svg" xmlns:xlink="http://www.w3.org/1999/xlink" x="0px" y="0px"
	 viewBox="0 0 500 500" style="enable-background:new 0 0 500 500;" xml:space="preserve">
<style type="text/css">
	.st0{fill:#EEF3F3;}
	.st1{fill:#91D2E4;}
	.st2{fill:#00727B;}
	.st3{fill:#1E4A54;}
	.st4{fill:#E87800;}
	.st5{fill:#F4D100;}
	.st6{clip-path:url(#SVGID_2_);}
	.st7{fill:#1AA9D2;}
	.st8{fill:#FFFFFF;}
	.st9{fill:#2E7498;}
</style>
<path class="st0" d="M250,479c-61.2,0-118.7-23.8-161.9-67.1C44.8,368.7,21,311.2,21,250c0-61.2,23.8-118.7,67.1-161.9
	S188.8,21,250,21c61.2,0,118.7,23.8,161.9,67.1C455.2,131.3,479,188.8,479,250s-23.8,118.7-67.1,161.9
	C368.7,455.2,311.2,479,250,479z"/>
<g>
	<path class="st1" d="M407.1,93.8C366.9,53.5,311.4,28.7,250,28.7v222.2L407.1,93.8z"/>
</g>
<g>
	<g>
		<path class="st2" d="M317.4,183.4c-5-55-51.3-98.3-107.6-98.3c-59.6,0-108.1,48.5-108.1,108.1v242.4c0,7.4,6,13.3,13.4,13.3
			c7.4,0,13.3-6,13.3-13.3V193.3c0-44.9,36.5-81.4,81.4-81.4c41.6,0,76,31.4,80.8,71.8c-42.3,6.7-74.8,43.4-74.8,87.5
			c0,7.4,6,13.3,13.3,13.3H380c0.1,0,0.1,0,0.2,0c7.4,0,13.3-6,13.3-13.3c0-0.8-0.1-1.6-0.2-2.4
			C392.1,225.3,359.5,189.6,317.4,183.4"/>
	</g>
	<g>
		<path class="st3" d="M111.1,435.7V193.3c0-57.7,46.6-104.8,103.6-107.8c-2-0.1-5.7-0.3-7.7-0.3c-59.6,0-109.8,48.5-109.8,108.1
			v242.4c0,7.4,8.2,13.3,15.6,13.3c2.1,0,4.1-0.6,5.8-1.5C114.2,445.3,111.1,440.9,111.1,435.7z"/>
		<path class="st3" d="M227.5,267.4c0-44.2,32.5-78.9,74.8-85.7c-4.8-40.4-39.2-70.8-80.8-70.8c-1.9,0-3.8,0.6-5.6,0.8
			c38.9,2.9,70.2,33.3,74.8,71.7c-42.3,6.7-74.8,39.7-74.8,83.9c0,7.4,6,9.7,13.3,9.7h11.7C233.5,277,227.5,274.8,227.5,267.4z"/>
	</g>
</g>
<g>
	<g>
		<g>
			<path class="st4" d="M250,14c31.9,0,62.8,6.2,91.9,18.5c28.1,11.9,53.3,28.9,75,50.6c21.7,21.7,38.7,46.9,50.6,75
				c12.3,29.1,18.5,60,18.5,91.9s-6.2,62.8-18.5,91.9c-11.9,28.1-28.9,53.3-50.6,75c-21.7,21.7-46.9,38.7-75,50.6
				c-29.1,12.3-60,18.5-91.9,18.5s-62.8-6.2-91.9-18.5c-28.1-11.9-53.3-28.9-75-50.6c-21.7-21.7-38.7-46.9-50.6-75
				C20.2,312.8,14,281.9,14,250s6.2-62.8,18.5-91.9c11.9-28.1,28.9-53.3,50.6-75c21.7-21.7,46.9-38.7,75-50.6
				C187.2,20.2,218.1,14,250,14 M250,0C111.9,0,0,111.9,0,250s111.9,250,250,250s250-111.9,250-250S388.1,0,250,0L250,0z"/>
		</g>
		<g>
			<path class="st5" d="M250,28c30,0,59,5.9,86.4,17.4C362.8,56.6,386.6,72.6,407,93s36.4,44.1,47.6,70.6C466.1,191,472,220,472,250
				s-5.9,59-17.4,86.4c-11.2,26.4-27.2,50.2-47.6,70.6c-20.4,20.4-44.1,36.4-70.6,47.6C309,466.1,280,472,250,472s-59-5.9-86.4-17.4
				c-26.4-11.2-50.2-27.2-70.6-47.6c-20.4-20.4-36.4-44.1-47.6-70.6C33.9,309,28,280,28,250s5.9-59,17.4-86.4
				C56.6,137.2,72.6,113.4,93,93c20.4-20.4,44.1-36.4,70.6-47.6C191,33.9,220,28,250,28 M250,14C119.7,14,14,119.7,14,250
				c0,130.3,105.7,236,236,236c130.3,0,236-105.7,236-236C486,119.7,380.3,14,250,14L250,14z"/>
		</g>
	</g>
	<g>
		<g>
			<g>
				<defs>
					<path id="SVGID_1_" d="M250,27c122.7,0,222.2,99.5,222.2,222.2S372.7,471.4,250,471.4c-122.7,0-222.2-99.5-222.2-222.2
						S127.3,27,250,27z"/>
				</defs>
				<clipPath id="SVGID_2_">
					<use xlink:href="#SVGID_1_"  style="overflow:visible;"/>
				</clipPath>
				<g class="st6">
					<g>
						<g>
							<g>
								<g>
									<path class="st7" d="M280.9,318.5c0-7.8-6.3-14.1-14.1-14.1c-7.8,0-14.1,6.3-14.1,14.1c0,7.8,6.3,14.1,14.1,14.1
										C274.5,332.6,280.9,326.3,280.9,318.5"/>
								</g>
								<g>
									<path class="st7" d="M324.4,318.5c0-7.8-6.3-14.1-14.1-14.1s-14.1,6.3-14.1,14.1c0,7.8,6.3,14.1,14.1,14.1
										S324.4,326.3,324.4,318.5"/>
								</g>
								<g>
									<path class="st7" d="M367.8,318.5c0-7.8-6.3-14.1-14.1-14.1c-7.8,0-14.1,6.3-14.1,14.1c0,7.8,6.3,14.1,14.1,14.1
										C361.6,332.6,367.8,326.3,367.8,318.5"/>
								</g>
								<g>
									<path class="st8" d="M367.8,229.1c0-7.8-6.3-14.1-14.1-14.1c-7.8,0-14.1,6.3-14.1,14.1s6.3,14.1,14.1,14.1
										C361.6,243.2,367.8,236.9,367.8,229.1"/>
								</g>
							</g>
							<g>
								<g>
									<path class="st7" d="M280.9,361.3c0-7.8-6.3-14.1-14.1-14.1c-7.8,0-14.1,6.3-14.1,14.1c0,7.8,6.3,14.1,14.1,14.1
										C274.5,375.4,280.9,369.1,280.9,361.3"/>
								</g>
								<g>
									<path class="st7" d="M324.4,361.3c0-7.8-6.3-14.1-14.1-14.1s-14.1,6.3-14.1,14.1c0,7.8,6.3,14.1,14.1,14.1
										S324.4,369.1,324.4,361.3"/>
								</g>
								<g>
									<path class="st7" d="M367.8,361.3c0-7.8-6.3-14.1-14.1-14.1c-7.8,0-14.1,6.3-14.1,14.1c0,7.8,6.3,14.1,14.1,14.1
										C361.6,375.4,367.8,369.1,367.8,361.3"/>
								</g>
							</g>
							<g>
								<g>
									<path class="st7" d="M280.9,404.2c0-7.8-6.3-14.1-14.1-14.1c-7.8,0-14.1,6.3-14.1,14.1c0,7.7,6.3,14.1,14.1,14.1
										C274.5,418.2,280.9,411.9,280.9,404.2"/>
								</g>
								<g>
									<path class="st7" d="M324.4,404.2c0-7.8-6.3-14.1-14.1-14.1s-14.1,6.3-14.1,14.1c0,7.7,6.3,14.1,14.1,14.1
										S324.4,411.9,324.4,404.2"/>
								</g>
								<g>
									<path class="st7" d="M367.8,404.2c0-7.8-6.3-14.1-14.1-14.1c-7.8,0-14.1,6.3-14.1,14.1c0,7.7,6.3,14.1,14.1,14.1
										C361.6,418.2,367.8,411.9,367.8,404.2"/>
								</g>
							</g>
						</g>
						<g>
							<g>
								<g>
									<path class="st1" d="M267.9,313.8c0-3.2-2.6-5.8-5.8-5.8c-3.2,0-5.9,2.6-5.9,5.8c0,3.2,2.6,5.8,5.9,5.8
										C265.2,319.6,267.9,317,267.9,313.8"/>
								</g>
								<g>
									<path class="st1" d="M311.4,313.8c0-3.2-2.6-5.8-5.8-5.8c-3.2,0-5.8,2.6-5.8,5.8c0,3.2,2.6,5.8,5.8,5.8
										C308.8,319.6,311.4,317,311.4,313.8"/>
								</g>
								<g>
									<path class="st1" d="M354.8,313.8c0-3.2-2.6-5.8-5.8-5.8s-5.8,2.6-5.8,5.8c0,3.2,2.6,5.8,5.8,5.8S354.8,317,354.8,313.8"/>
								</g>
							</g>
							<g>
								<g>
									<path class="st1" d="M267.9,356.6c0-3.2-2.6-5.8-5.8-5.8c-3.2,0-5.9,2.6-5.9,5.8c0,3.2,2.6,5.8,5.9,5.8
										C265.2,362.4,267.9,359.8,267.9,356.6"/>
								</g>
								<g>
									<path class="st1" d="M311.4,356.6c0-3.2-2.6-5.8-5.8-5.8c-3.2,0-5.8,2.6-5.8,5.8c0,3.2,2.6,5.8,5.8,5.8
										C308.8,362.4,311.4,359.8,311.4,356.6"/>
								</g>
								<g>
									<path class="st1" d="M354.8,356.6c0-3.2-2.6-5.8-5.8-5.8s-5.8,2.6-5.8,5.8c0,3.2,2.6,5.8,5.8,5.8S354.8,359.8,354.8,356.6"
										/>
								</g>
							</g>
							<g>
								<g>
									<path class="st1" d="M267.9,399.4c0-3.2-2.6-5.8-5.8-5.8c-3.2,0-5.9,2.6-5.9,5.8c0,3.2,2.6,5.8,5.9,5.8
										C265.2,405.2,267.9,402.6,267.9,399.4"/>
								</g>
								<g>
									<path class="st1" d="M311.4,399.4c0-3.2-2.6-5.8-5.8-5.8c-3.2,0-5.8,2.6-5.8,5.8c0,3.2,2.6,5.8,5.8,5.8
										C308.8,405.2,311.4,402.6,311.4,399.4"/>
								</g>
								<g>
									<path class="st1" d="M354.8,399.4c0-3.2-2.6-5.8-5.8-5.8s-5.8,2.6-5.8,5.8c0,3.2,2.6,5.8,5.8,5.8S354.8,402.6,354.8,399.4"
										/>
								</g>
							</g>
						</g>
						<g>
							<path class="st9" d="M273.9,349.5c1.3,2.1,2.2,4.4,2.2,7.1c0,7.8-6.3,14.1-14.1,14.1c-2.7,0-5-0.9-7.1-2.2
								c2.5,4.1,6.7,7,11.9,7c7.8,0,14.1-6.3,14.1-14.1C280.9,356.2,278,351.9,273.9,349.5z"/>
							<path class="st9" d="M273.9,306.7c1.3,2.1,2.2,4.4,2.2,7.1c0,7.8-6.3,14.1-14.1,14.1c-2.7,0-5-0.9-7.1-2.2
								c2.5,4.1,6.7,7,11.9,7c7.8,0,14.1-6.3,14.1-14.1C280.9,313.4,278,309.1,273.9,306.7z"/>
							<path class="st9" d="M363.1,313.8c0,7.8-6.3,14.1-14.1,14.1c-2.7,0-5-0.9-7.1-2.2c2.5,4.1,6.7,7,11.9,7
								c7.8,0,14.1-6.3,14.1-14.1c0-5.1-2.9-9.4-6.9-11.9C362.2,308.8,363.1,311.1,363.1,313.8z"/>
							<path class="st9" d="M317.4,392.3c1.2,2.1,2.2,4.4,2.2,7.1c0,7.8-6.3,14.1-14.1,14.1c-2.7,0-5-0.9-7.1-2.2
								c2.5,4.1,6.8,7,11.9,7c7.8,0,14.1-6.3,14.1-14.1C324.4,399,321.5,394.8,317.4,392.3z"/>
							<path class="st9" d="M273.9,392.3c1.3,2.1,2.2,4.4,2.2,7.1c0,7.8-6.3,14.1-14.1,14.1c-2.7,0-5-0.9-7.1-2.2
								c2.5,4.1,6.7,7,11.9,7c7.8,0,14.1-6.3,14.1-14.1C280.9,399,278,394.8,273.9,392.3z"/>
							<path class="st9" d="M360.9,349.5c1.3,2.1,2.2,4.4,2.2,7.1c0,7.8-6.3,14.1-14.1,14.1c-2.7,0-5-0.9-7.1-2.2
								c2.5,4.1,6.7,7,11.9,7c7.8,0,14.1-6.3,14.1-14.1C367.8,356.2,365,351.9,360.9,349.5z"/>
							<path class="st9" d="M360.9,392.3c1.3,2.1,2.2,4.4,2.2,7.1c0,7.8-6.3,14.1-14.1,14.1c-2.7,0-5-0.9-7.1-2.2
								c2.5,4.1,6.7,7,11.9,7c7.8,0,14.1-6.3,14.1-14.1C367.8,399,365,394.8,360.9,392.3z"/>
							<path class="st9" d="M317.4,349.5c1.3,2.1,2.2,4.4,2.2,7.1c0,7.8-6.3,14.1-14.1,14.1c-2.7,0-5-0.9-7.1-2.2
								c2.5,4.1,6.8,7,11.9,7c7.8,0,14.1-6.3,14.1-14.1C324.4,356.2,321.5,351.9,317.4,349.5z"/>
							<path class="st9" d="M317.4,306.7c1.2,2.1,2.2,4.4,2.2,7.1c0,7.8-6.3,14.1-14.1,14.1c-2.7,0-5-0.9-7.1-2.2
								c2.5,4.1,6.8,7,11.9,7c7.8,0,14.1-6.3,14.1-14.1C324.4,313.4,321.5,309.1,317.4,306.7z"/>
						</g>
					</g>
				</g>
			</g>
		</g>
	</g>
</g>
</svg>
