<?xml version="1.0" encoding="utf-8"?>
<!-- Generator: Adobe Illustrator 20.0.0, SVG Export Plug-In . SVG Version: 6.00 Build 0)  -->
<svg version="1.1" id="Graphics" xmlns="http://www.w3.org/2000/svg" xmlns:xlink="http://www.w3.org/1999/xlink" x="0px" y="0px"
	 viewBox="0 0 500 500" enable-background="new 0 0 500 500" xml:space="preserve">
<g>
	<g>
		<g>
			<g>
				<path fill="#564677" d="M250,14c31.866,0,62.771,6.238,91.857,18.54c28.101,11.886,53.341,28.904,75.02,50.583
					c21.678,21.678,38.697,46.919,50.583,75.02C479.762,187.229,486,218.134,486,250c0,31.866-6.238,62.771-18.54,91.857
					c-11.886,28.101-28.904,53.341-50.583,75.02c-21.678,21.678-46.919,38.697-75.02,50.583C312.771,479.762,281.866,486,250,486
					s-62.771-6.238-91.857-18.54c-28.101-11.886-53.341-28.904-75.02-50.583c-21.678-21.678-38.697-46.919-50.583-75.02
					C20.238,312.771,14,281.866,14,250c0-31.866,6.238-62.771,18.54-91.857c11.886-28.101,28.904-53.341,50.583-75.02
					c21.678-21.678,46.919-38.697,75.02-50.583C187.229,20.238,218.134,14,250,14 M250,0C111.93,0,0,111.929,0,250
					c0,138.07,111.93,250,250,250s250-111.93,250-250C500,111.929,388.07,0,250,0L250,0z"/>
			</g>
			<g>
				<path fill="#EEF3F3" d="M250,479c-61.165,0-118.67-23.821-161.924-67.075C44.821,368.67,21,311.165,21,250
					c0-61.164,23.821-118.67,67.076-161.924S188.836,21,250,21c61.165,0,118.67,23.821,161.925,67.076
					C455.179,131.33,479,188.836,479,250c0,61.165-23.821,118.67-67.075,161.925C368.67,455.179,311.165,479,250,479z"/>
				<path fill="#AB8EB8" d="M250,28c29.974,0,59.045,5.868,86.405,17.441c26.434,11.181,50.177,27.191,70.57,47.584
					s36.403,44.137,47.584,70.57C466.132,190.956,472,220.026,472,250c0,29.974-5.868,59.045-17.441,86.405
					c-11.181,26.434-27.191,50.177-47.584,70.57c-20.393,20.393-44.136,36.403-70.57,47.584C309.045,466.132,279.974,472,250,472
					c-29.974,0-59.044-5.868-86.404-17.441c-26.434-11.181-50.177-27.191-70.57-47.584c-20.393-20.393-36.403-44.137-47.584-70.57
					C33.868,309.045,28,279.974,28,250c0-29.974,5.868-59.044,17.441-86.404c11.181-26.434,27.191-50.177,47.584-70.57
					c20.393-20.393,44.137-36.403,70.57-47.584C190.956,33.868,220.026,28,250,28 M250,14C119.669,14,14,119.669,14,250
					c0,130.332,105.669,236,236,236c130.332,0,236-105.668,236-236C486,119.669,380.332,14,250,14L250,14z"/>
			</g>
		</g>
	</g>
	<g>
		<path fill="#BBCED0" d="M242.083,426.158c66.124,0,119.732-14.286,119.732-31.91c0-17.617-53.607-31.901-119.732-31.901
			c-66.131,0-119.741,14.284-119.741,31.901C122.341,411.871,175.951,426.158,242.083,426.158"/>
		<g>
			<g>
				<path fill="#EFA859" d="M228.579,414.182c0.046,2.253-1.758,4.134-4.011,4.18l-3.577,0.074c-2.253,0.047-4.134-1.758-4.18-4.011
					l-2.144-103.876c-0.046-2.253,1.758-4.134,4.011-4.18l3.577-0.074c2.253-0.047,4.134,1.758,4.18,4.011L228.579,414.182z
					 M318.781,292.752c-0.047-2.253-1.928-4.057-4.18-4.011l-3.577,0.074c-2.253,0.047-4.057,1.928-4.011,4.18l2.144,103.876
					c0.046,2.253,1.927,4.057,4.18,4.011l3.577-0.074c2.253-0.047,4.057-1.928,4.011-4.18L318.781,292.752z M152.419,285.943
					c-0.046-2.253-1.928-4.057-4.18-4.011l-3.577,0.074c-2.253,0.047-4.057,1.928-4.011,4.18l2.144,103.876
					c0.046,2.253,1.928,4.057,4.18,4.011l3.577-0.074c2.253-0.046,4.057-1.927,4.011-4.18L152.419,285.943z M246.24,270.349
					c-0.046-2.253-1.928-4.057-4.18-4.011l-3.577,0.074c-2.253,0.046-4.057,1.927-4.011,4.18l2.144,103.876
					c0.046,2.253,1.928,4.057,4.18,4.011l3.577-0.074c2.253-0.047,4.057-1.928,4.011-4.18L246.24,270.349z M135.532,173.076
					c-0.266-2.237-2.314-3.85-4.551-3.585l-3.552,0.422c-2.237,0.266-3.85,2.314-3.585,4.551l12.251,103.173
					c0.266,2.237,2.314,3.85,4.551,3.585l3.552-0.422c2.237-0.266,3.85-2.314,3.585-4.551L135.532,173.076z M207.467,167.819
					c-0.266-2.237-2.314-3.85-4.551-3.585l-3.552,0.422c-2.237,0.266-3.85,2.314-3.585,4.551L208.03,272.38
					c0.266,2.237,2.314,3.85,4.551,3.585l3.552-0.422c2.237-0.266,3.85-2.314,3.585-4.551L207.467,167.819z"/>
				<g>
					<path fill="#BE8952" d="M222.255,306.296l-3.577,0.074c-2.253,0.047-4.057,1.927-4.011,4.18l0.284,13.772l5.921,1.688
						l1.907,92.39l1.788-0.037c2.253-0.047,4.057-1.927,4.011-4.18l-2.144-103.876C226.389,308.054,224.508,306.249,222.255,306.296
						z"/>
					<path fill="#BE8952" d="M234.601,276.826l1.071,51.903l5.962,3.651l0.951,46.062l1.788-0.037
						c2.253-0.047,4.057-1.927,4.011-4.18l-2.022-97.931L234.601,276.826z"/>
					<path fill="#BE8952" d="M314.601,288.741l-3.577,0.074c-2.253,0.047-4.057,1.928-4.011,4.18l0.39,18.882l5.849-1.803
						l1.874,90.771l1.788-0.037c2.253-0.046,4.057-1.927,4.011-4.18l-2.144-103.876C318.734,290.5,316.853,288.695,314.601,288.741z
						"/>
					<path fill="#BE8952" d="M152.419,285.943c-0.046-2.252-1.927-4.057-4.18-4.011l-3.577,0.074
						c-2.253,0.047-4.057,1.928-4.011,4.18l0.353,17.123l5.914,1.321l1.846,89.406l1.788-0.037c2.253-0.047,4.057-1.927,4.011-4.18
						L152.419,285.943z"/>
					<path fill="#BE8952" d="M140.646,281.221l2.012-0.239l-3.423,0.155C139.686,281.243,140.161,281.279,140.646,281.221z"/>
					<polygon fill="#BE8952" points="132.809,249.965 138.277,248.813 141.912,276.053 147.593,274.65 139.135,203.416 
						127.56,205.756 					"/>
					<polygon fill="#BE8952" points="198.418,191.431 203.659,235.569 210.036,235.04 210.625,263.586 218.801,263.269 
						209.993,189.091 					"/>
				</g>
			</g>
			<g>
				<polygon fill="#BE8952" points="336.729,292.969 229.98,319.794 123.438,288.002 123.156,274.351 230.187,261.178 
					336.447,279.318 				"/>
				<polygon fill="#EFA859" points="336.447,279.318 229.698,306.142 123.156,274.351 230.046,254.352 				"/>
			</g>
			<g>
				<polygon fill="#BE8952" points="206.505,131.23 114.294,135.167 99.333,137.576 113.925,246.202 127.535,243.873 
					220.815,226.204 				"/>
				<polygon fill="#EFA859" points="220.114,128.9 112.943,135.247 127.535,243.873 234.424,223.874 				"/>
			</g>
		</g>
	</g>
	<g>
		<path fill="#BCCFD1" d="M411.806,256.088c1.111,1.297,1.407,2.941,0.887,4.925c-0.521,1.987-1.849,3.427-3.981,4.319
			l-19.396,11.337c-1.743,1.106-3.476,1.435-5.201,0.982c-1.725-0.452-3.128-1.603-4.207-3.449l-44.885-76.792
			c-4.28,0.554-8.498,0.453-12.657-0.303c-4.159-0.755-8.117-2.07-11.868-3.95c-3.755-1.877-7.251-4.302-10.493-7.276
			c-3.243-2.971-6.061-6.504-8.45-10.595c-2.47-4.222-4.214-8.646-5.234-13.271c-1.023-4.625-1.356-9.208-1.002-13.753
			c0.353-4.542,1.393-8.936,3.12-13.175c1.725-4.24,4.168-8.124,7.329-11.652l21.913,36.581l25.334-14.807l-21.286-36.417
			c4.437-0.735,8.928-0.814,13.469-0.239c4.541,0.578,8.911,1.808,13.11,3.689c4.198,1.884,8.075,4.354,11.632,7.407
			c3.556,3.056,6.566,6.694,9.036,10.916c2.389,4.091,4.085,8.277,5.085,12.562c0.998,4.284,1.387,8.549,1.17,12.792
			c-0.22,4.245-1.047,8.356-2.481,12.337c-1.437,3.98-3.379,7.661-5.828,11.041L411.806,256.088z"/>
	</g>
	<g>
		<path fill="#6A8F97" d="M394.297,247.334c1.111,1.297,1.407,2.941,0.887,4.925c-0.521,1.987-1.849,3.427-3.981,4.319
			l-19.396,11.337c-1.743,1.106-3.476,1.435-5.201,0.982c-1.725-0.452-3.128-1.603-4.207-3.449l-44.885-76.792
			c-4.28,0.554-8.498,0.453-12.657-0.303c-4.159-0.755-8.117-2.07-11.868-3.95c-3.755-1.877-7.251-4.302-10.493-7.276
			c-3.243-2.971-6.061-6.504-8.45-10.595c-2.47-4.222-4.214-8.646-5.234-13.271c-1.023-4.625-1.356-9.209-1.002-13.753
			c0.353-4.542,1.393-8.936,3.12-13.175c1.725-4.24,4.168-8.124,7.329-11.652l21.913,36.581l25.334-14.807l-21.286-36.417
			c4.437-0.735,8.928-0.814,13.469-0.239c4.541,0.578,8.911,1.808,13.11,3.689c4.198,1.884,8.075,4.354,11.632,7.407
			c3.556,3.056,6.566,6.694,9.036,10.916c2.389,4.091,4.085,8.277,5.085,12.562c0.998,4.284,1.387,8.549,1.17,12.792
			c-0.22,4.245-1.047,8.356-2.481,12.337c-1.437,3.98-3.379,7.661-5.828,11.041L394.297,247.334z"/>
	</g>
</g>
<g>
</g>
<g>
</g>
<g>
</g>
<g>
</g>
<g>
</g>
<g>
</g>
<g>
</g>
<g>
</g>
<g>
</g>
<g>
</g>
<g>
</g>
<g>
</g>
<g>
</g>
<g>
</g>
<g>
</g>
</svg>
