<?xml version="1.0" encoding="utf-8"?>
<!-- Generator: Adobe Illustrator 20.0.0, SVG Export Plug-In . SVG Version: 6.00 Build 0)  -->
<svg version="1.1" id="Graphics" xmlns="http://www.w3.org/2000/svg" xmlns:xlink="http://www.w3.org/1999/xlink" x="0px" y="0px"
	 viewBox="0 0 500 500" enable-background="new 0 0 500 500" xml:space="preserve">
<g>
	<g>
		<g>
			<path fill="#7C223D" d="M250,14c31.866,0,62.771,6.238,91.857,18.54c28.101,11.886,53.341,28.904,75.02,50.583
				c21.678,21.678,38.697,46.919,50.583,75.02C479.762,187.229,486,218.134,486,250s-6.238,62.771-18.54,91.857
				c-11.886,28.101-28.904,53.341-50.583,75.02c-21.678,21.678-46.919,38.697-75.02,50.583C312.771,479.762,281.866,486,250,486
				s-62.771-6.238-91.857-18.54c-28.101-11.886-53.341-28.904-75.02-50.583c-21.678-21.678-38.697-46.919-50.583-75.02
				C20.238,312.771,14,281.866,14,250s6.238-62.771,18.54-91.857c11.886-28.101,28.904-53.341,50.583-75.02
				c21.679-21.678,46.919-38.697,75.02-50.583C187.229,20.238,218.134,14,250,14 M250,0C111.93,0,0,111.93,0,250s111.93,250,250,250
				s250-111.93,250-250S388.07,0,250,0L250,0z"/>
		</g>
		<g>
			<path fill="#EEF3F3" d="M250,479c-61.165,0-118.67-23.821-161.924-67.075C44.821,368.67,21,311.165,21,250
				c0-61.164,23.821-118.67,67.076-161.924S188.836,21,250,21c61.165,0,118.67,23.821,161.925,67.076
				C455.179,131.33,479,188.835,479,250s-23.821,118.67-67.075,161.925C368.67,455.179,311.165,479,250,479z"/>
			<path fill="#DD7899" d="M250,28c29.974,0,59.045,5.868,86.405,17.441c26.434,11.181,50.177,27.191,70.57,47.584
				c20.393,20.393,36.403,44.137,47.584,70.57C466.132,190.956,472,220.026,472,250c0,29.974-5.868,59.045-17.441,86.405
				c-11.181,26.434-27.191,50.177-47.584,70.57c-20.393,20.393-44.136,36.403-70.57,47.584C309.045,466.132,279.974,472,250,472
				c-29.974,0-59.044-5.868-86.404-17.441c-26.434-11.181-50.177-27.191-70.57-47.584c-20.393-20.393-36.403-44.137-47.584-70.57
				C33.868,309.045,28,279.974,28,250c0-29.974,5.868-59.044,17.441-86.404c11.181-26.434,27.191-50.177,47.584-70.57
				s44.137-36.403,70.57-47.584C190.956,33.868,220.026,28,250,28 M250,14C119.669,14,14,119.669,14,250
				c0,130.332,105.669,236,236,236c130.332,0,236-105.668,236-236C486,119.669,380.332,14,250,14L250,14z"/>
		</g>
	</g>
	<g>
		<g>
			<path fill="#BBCED0" d="M262.354,406.491c61.781,0,111.867-5.903,111.867-13.186c0-7.279-50.086-13.182-111.867-13.182
				c-61.787,0-111.877,5.902-111.877,13.182C150.477,400.588,200.567,406.491,262.354,406.491"/>
			<path fill="#EFA016" d="M208.628,298.365c0.54,20.527,0.435,41.188,2.054,47.472c2.053,7.97,12.703,34.451,10.814,36.44
				c-3.999,4.209-22.472,4.695-22.366,8.8c0.109,4.106,28.794,1.302,32.898,1.194c4.105-0.107-4.595-36.417-4.919-48.733
				c-0.32-12.315,4.541-34.645,14.373-51.334C244.612,286.896,208.628,298.365,208.628,298.365"/>
			<path fill="#EFA016" d="M293.779,298.365c-0.54,20.527-0.435,41.188-2.054,47.472c-2.053,7.97-12.699,34.451-10.814,36.44
				c4,4.209,22.476,4.695,22.367,8.8c-0.11,4.106-28.793,1.302-32.897,1.194c-4.106-0.107,4.597-36.417,4.919-48.733
				c0.32-12.315-4.539-34.645-14.375-51.334C257.797,286.896,293.779,298.365,293.779,298.365"/>
			<g>
				<circle fill="#F4D100" cx="248.031" cy="208.638" r="122.252"/>
				<g>
					<g id="Eye_27_">
						<g>
							<path fill="#1E4A54" d="M317.122,192.269c-1.855-13.903-14.61-23.602-28.474-21.719
								c-13.864,1.849-23.576,14.556-21.724,28.446c1.854,13.85,14.598,23.59,28.47,21.72
								C309.245,218.884,318.999,206.102,317.122,192.269z"/>
						</g>
						<g>
							<path fill="none" stroke="#F7F9F9" stroke-width="5" stroke-miterlimit="10" d="M317.122,192.269
								c-1.855-13.903-14.61-23.602-28.474-21.719c-13.864,1.849-23.576,14.556-21.724,28.446c1.854,13.85,14.598,23.59,28.47,21.72
								C309.245,218.884,318.999,206.102,317.122,192.269z"/>
						</g>
					</g>
					<g id="Eye_26_">
						<g>
							<path fill="#FFFFFF" d="M307.682,186.45c-0.539-4.09-4.291-6.95-8.381-6.398c-4.079,0.544-6.935,4.288-6.393,8.379
								c0.545,4.082,4.299,6.951,8.386,6.398C305.37,194.28,308.243,190.527,307.682,186.45z"/>
						</g>
					</g>
					<g id="Eye_25_">
						<g>
							<path fill="#FFFFFF" d="M289.016,189.563c-0.264-2.015-2.111-3.42-4.115-3.144c-2.012,0.267-3.416,2.102-3.148,4.121
								c0.269,2.007,2.113,3.409,4.121,3.141C287.878,193.407,289.297,191.561,289.016,189.563z"/>
						</g>
					</g>
				</g>
				<g>
					<g id="Eye_24_">
						<g>
							<path fill="#1E4A54" d="M229.131,192.269c-1.853-13.903-14.607-23.602-28.471-21.719
								c-13.863,1.849-23.577,14.556-21.724,28.446c1.853,13.85,14.599,23.59,28.468,21.72
								C221.256,218.884,231.009,206.102,229.131,192.269z"/>
						</g>
						<g>
							<path fill="none" stroke="#F7F9F9" stroke-width="5" stroke-miterlimit="10" d="M229.131,192.269
								c-1.853-13.903-14.607-23.602-28.471-21.719c-13.863,1.849-23.577,14.556-21.724,28.446
								c1.853,13.85,14.599,23.59,28.468,21.72C221.256,218.884,231.009,206.102,229.131,192.269z"/>
						</g>
					</g>
					<g id="Eye_23_">
						<g>
							<path fill="#FFFFFF" d="M219.694,186.45c-0.537-4.09-4.291-6.95-8.379-6.398c-4.08,0.544-6.938,4.288-6.395,8.379
								c0.547,4.082,4.299,6.951,8.385,6.398C217.381,194.28,220.254,190.527,219.694,186.45z"/>
						</g>
					</g>
					<g id="Eye_20_">
						<g>
							<path fill="#FFFFFF" d="M201.03,189.563c-0.266-2.015-2.113-3.42-4.117-3.144c-2.012,0.267-3.418,2.102-3.148,4.121
								c0.271,2.007,2.114,3.409,4.121,3.141C199.889,193.407,201.31,191.561,201.03,189.563z"/>
						</g>
					</g>
				</g>
				
					<ellipse transform="matrix(0.8268 -0.5626 0.5626 0.8268 -47.1396 129.6692)" opacity="0.5" fill="#FFFFFF" cx="186.961" cy="141.37" rx="31.614" ry="16.909"/>
				
					<ellipse transform="matrix(0.2562 -0.9666 0.9666 0.2562 54.3959 301.0997)" opacity="0.5" fill="#FFFFFF" cx="222.842" cy="115.205" rx="5.191" ry="5.501"/>
				<path opacity="0.4" fill="#E87800" d="M350.864,142.563c-3.816,91.328-79.029,164.205-171.295,164.205
					c-1.549,0-3.079-0.077-4.622-0.118c20.388,15.227,45.683,24.242,73.084,24.242c67.519,0,122.253-54.734,122.253-122.254
					C370.284,184.288,363.135,161.621,350.864,142.563z"/>
			</g>
		</g>
		<path fill="#1E4A54" d="M248.031,292.334c-36.841,0-68.996-20.055-86.148-49.842c12.55,35.47,46.378,60.883,86.148,60.883
			s73.598-25.413,86.148-60.884C317.028,272.279,284.872,292.334,248.031,292.334z"/>
		<path fill="#1E4A54" d="M326.214,239.096c7.125,4.555,12.695,12.41,16.713,20.342c-2.967-10.071-7.141-22.567-16.418-25.846
			C325.211,233.133,325.053,238.354,326.214,239.096z"/>
		<path fill="#1E4A54" d="M171.145,239.096c-7.125,4.555-12.695,12.41-16.713,20.342c2.967-10.071,7.141-22.567,16.418-25.846
			C172.149,233.133,172.306,238.354,171.145,239.096z"/>
	</g>
</g>
<g>
</g>
<g>
</g>
<g>
</g>
<g>
</g>
<g>
</g>
<g>
</g>
<g>
</g>
<g>
</g>
<g>
</g>
<g>
</g>
<g>
</g>
<g>
</g>
<g>
</g>
<g>
</g>
<g>
</g>
</svg>
