<?xml version="1.0" encoding="utf-8"?>
<!-- Generator: Adobe Illustrator 20.0.0, SVG Export Plug-In . SVG Version: 6.00 Build 0)  -->
<svg version="1.1" id="Graphics" xmlns="http://www.w3.org/2000/svg" xmlns:xlink="http://www.w3.org/1999/xlink" x="0px" y="0px"
	 viewBox="0 0 500 500" enable-background="new 0 0 500 500" xml:space="preserve">
<g>
	<g>
		<path fill="#1E4A54" d="M250,14c31.866,0,62.771,6.238,91.857,18.54c28.101,11.886,53.341,28.904,75.02,50.583
			s38.697,46.919,50.583,75.02C479.762,187.229,486,218.134,486,250s-6.238,62.771-18.54,91.857
			c-11.886,28.101-28.904,53.341-50.583,75.02c-21.678,21.678-46.919,38.697-75.02,50.583C312.771,479.762,281.866,486,250,486
			s-62.771-6.238-91.857-18.54c-28.101-11.886-53.341-28.904-75.02-50.583c-21.678-21.678-38.697-46.919-50.583-75.02
			C20.238,312.771,14,281.866,14,250s6.238-62.771,18.54-91.857c11.886-28.101,28.904-53.341,50.583-75.02
			c21.679-21.678,46.919-38.697,75.02-50.583C187.229,20.238,218.134,14,250,14 M250,0C111.93,0,0,111.93,0,250s111.93,250,250,250
			s250-111.93,250-250S388.07,0,250,0L250,0z"/>
	</g>
	<g>
		<path fill="#91D2E4" d="M250,479c-61.165,0-118.67-23.821-161.924-67.075C44.821,368.67,21,311.165,21,250
			c0-61.164,23.821-118.669,67.076-161.924C131.33,44.821,188.836,21,250,21c61.165,0,118.67,23.821,161.925,67.076
			C455.179,131.33,479,188.836,479,250c0,61.165-23.821,118.67-67.075,161.925C368.67,455.179,311.165,479,250,479z"/>
		<path fill="#EEF3F3" d="M250,28c29.974,0,59.045,5.868,86.405,17.441c26.434,11.181,50.177,27.191,70.57,47.584
			c20.393,20.393,36.403,44.137,47.584,70.57C466.132,190.956,472,220.026,472,250c0,29.974-5.868,59.045-17.441,86.405
			c-11.181,26.434-27.191,50.177-47.584,70.57c-20.393,20.393-44.136,36.403-70.57,47.584C309.045,466.132,279.974,472,250,472
			c-29.974,0-59.044-5.868-86.404-17.441c-26.434-11.181-50.177-27.191-70.57-47.584c-20.393-20.393-36.403-44.137-47.584-70.57
			C33.868,309.045,28,279.974,28,250c0-29.974,5.868-59.044,17.441-86.404c11.181-26.434,27.191-50.177,47.584-70.57
			c20.393-20.393,44.137-36.403,70.57-47.584C190.956,33.868,220.026,28,250,28 M250,14C119.669,14,14,119.67,14,250
			c0,130.332,105.669,236,236,236c130.332,0,236-105.668,236-236C486,119.67,380.332,14,250,14L250,14z"/>
	</g>
	<g opacity="0.5">
		<linearGradient id="SVGID_1_" gradientUnits="userSpaceOnUse" x1="250.0001" y1="45.5" x2="250.0001" y2="454.5">
			<stop  offset="0" style="stop-color:#FFFFFF"/>
			<stop  offset="1" style="stop-color:#FFFFFF;stop-opacity:0"/>
		</linearGradient>
		<circle fill="url(#SVGID_1_)" cx="250" cy="250" r="204.5"/>
	</g>
	<path fill="#F4D100" d="M187.219,140.046c4.709,0,9.262,0.671,13.569,1.919l-13.569-13.569l-13.569,13.569
		C177.957,140.717,182.509,140.046,187.219,140.046z"/>
	<path fill="#F4D100" d="M163.763,146.063h-19.196v19.196C149.016,157.186,155.69,150.512,163.763,146.063z"/>
	<path fill="#F4D100" d="M229.871,165.26v-19.196h-19.197C218.748,150.512,225.422,157.186,229.871,165.26z"/>
	<path fill="#F4D100" d="M247.538,188.715l-13.568-13.569c1.248,4.307,1.919,8.859,1.919,13.568c0,4.71-0.671,9.262-1.919,13.57
		L247.538,188.715z"/>
	<path fill="#F4D100" d="M187.219,237.385c-4.709,0-9.261-0.671-13.569-1.919l13.569,13.569l13.569-13.569
		C196.481,236.713,191.928,237.385,187.219,237.385z"/>
	<path fill="#F4D100" d="M138.549,188.715c0-4.709,0.671-9.261,1.919-13.568L126.9,188.715l13.569,13.569
		C139.221,197.977,138.549,193.424,138.549,188.715z"/>
	<path fill="#F4D100" d="M210.674,231.367h19.197V212.17C225.422,220.244,218.748,226.918,210.674,231.367z"/>
	<path fill="#F4D100" d="M144.567,212.17v19.197h19.197C155.69,226.918,149.016,220.244,144.567,212.17z"/>
	<circle fill="#F4D100" cx="187.219" cy="188.715" r="42.652"/>
	
		<ellipse transform="matrix(0.8268 -0.5626 0.5626 0.8268 -64.2178 121.9644)" opacity="0.5" fill="#FFFFFF" cx="165.912" cy="165.246" rx="11.03" ry="5.899"/>
	
		<ellipse transform="matrix(0.2562 -0.9666 0.9666 0.2562 -18.1857 288.6023)" opacity="0.5" fill="#FFFFFF" cx="178.431" cy="156.118" rx="1.811" ry="1.919"/>
	<path opacity="0.4" fill="#E87800" d="M223.096,165.662c-1.331,31.863-27.572,57.289-59.762,57.289
		c-0.54,0-1.074-0.027-1.613-0.041c7.113,5.312,15.938,8.458,25.498,8.458c23.556,0,42.652-19.096,42.652-42.653
		C229.871,180.219,227.377,172.311,223.096,165.662z"/>
	<g>
		<path fill="#1AA9D2" d="M81.398,365.735C118.267,419.341,180.026,454.5,250,454.5c69.974,0,131.733-35.159,168.603-88.765H81.398z
			"/>
	</g>
	<path fill="#2E7498" d="M418.603,365.735H221.76l73.207,83.797C346.031,438.069,389.874,407.505,418.603,365.735z"/>
	<path fill="#2E7498" d="M115.585,404.075l30.034-38.34H81.398C91.15,379.914,102.658,392.786,115.585,404.075z"/>
	<g>
		<path fill="#00727B" d="M358.184,166.389L221.76,339.397h212.205c13.15-27.008,20.535-57.34,20.535-89.397
			c0-27.162-5.31-53.081-14.926-76.794l-36.412,38.162L358.184,166.389z"/>
	</g>
	<g>
		<path fill="#00727B" d="M89.76,260.397l-14.659,14.659l-29.545-29.544C45.525,247.004,45.5,248.5,45.5,250
			c0,32.058,7.385,62.389,20.535,89.397h79.583L89.76,260.397z"/>
	</g>
	<path fill="#FFFFFF" d="M439.574,173.206l-36.412,38.162l-44.978-44.978l-71.703,90.932l69.279-35.037l10,9.886l12.232-9.886
		l21.768,20.462l52.356-23.963C449.681,202.919,445.432,187.651,439.574,173.206z"/>
	<path fill="#FFFFFF" d="M113.478,293.94L89.76,260.397l-14.659,14.659l-29.545-29.544C45.525,247.004,45.5,248.5,45.5,250
		c0,15.475,1.736,30.541,4.996,45.032l11.264,4.208l23.799-14.008L113.478,293.94z"/>
</g>
<g>
</g>
<g>
</g>
<g>
</g>
<g>
</g>
<g>
</g>
<g>
</g>
<g>
</g>
<g>
</g>
<g>
</g>
<g>
</g>
<g>
</g>
<g>
</g>
<g>
</g>
<g>
</g>
<g>
</g>
</svg>
