<svg id="Graphics" xmlns="http://www.w3.org/2000/svg" viewBox="0 0 500 500"><defs><style>.cls-1{fill:#366842;}.cls-2{fill:#eef3f3;}.cls-3{fill:#8cb61d;}.cls-4{fill:#b3c589;}.cls-5{fill:#1c9283;}.cls-6{fill:#12ad9c;}.cls-7{fill:#efa859;}.cls-8{fill:#f2c579;}</style></defs><title>act_food_09_no_alco</title><path class="cls-1" d="M250.24,14A236.07,236.07,0,0,1,342.1,467.46,236.06,236.06,0,0,1,158.38,32.54,234.51,234.51,0,0,1,250.24,14m0-14C112.17,0,.24,111.93.24,250s111.93,250,250,250,250-111.93,250-250S388.31,0,250.24,0h0Z" transform="translate(-0.24)"/><path class="cls-2" d="M250.24,479A229,229,0,0,1,88.32,88.08,229,229,0,1,1,412.16,411.92,227.5,227.5,0,0,1,250.24,479Z" transform="translate(-0.24)"/><path class="cls-3" d="M250.24,28a222.06,222.06,0,0,1,86.4,426.56A222.06,222.06,0,0,1,163.84,45.44,220.57,220.57,0,0,1,250.24,28m0-14c-130.33,0-236,105.67-236,236s105.67,236,236,236,236-105.67,236-236S380.57,14,250.24,14h0Z" transform="translate(-0.24)"/><path class="cls-4" d="M313.13,188.89L282,175.8c-6.7-2.82-14.44-10.62-17.21-17.34L244,108a5.68,5.68,0,0,0,3.22-6.76l-9-31.44a5.68,5.68,0,0,0-7-3.88L194.32,76.46a5.68,5.68,0,0,0-3.88,7l9,31.44a5.68,5.68,0,0,0,6.31,4l9.12,53.86c1.21,7.16-1.22,17.88-5.4,23.82L190.08,224.2c-4.18,5.94-5.72,16.44-3.43,23.33l62.81,188.69a13.93,13.93,0,0,0,16.87,8.89l99.3-28.5a13.93,13.93,0,0,0,9.59-16.48l-46.8-193.28C326.7,199.8,319.82,191.71,313.13,188.89Z" transform="translate(-0.24)"/><rect class="cls-3" x="228.66" y="24.22" width="43.15" height="451.56" transform="translate(249.83 -103.72) rotate(45)"/><path class="cls-5" d="M298.13,181.89L267,168.8c-6.7-2.82-14.44-10.62-17.21-17.34L229,101a5.68,5.68,0,0,0,3.22-6.76l-9-31.44a5.68,5.68,0,0,0-7-3.88L179.32,69.46a5.68,5.68,0,0,0-3.88,7l9,31.44a5.68,5.68,0,0,0,6.31,4l9.12,53.86c1.21,7.16-1.22,17.88-5.4,23.82L175.08,217.2c-4.18,5.94-5.72,16.44-3.43,23.33l62.81,188.69a13.93,13.93,0,0,0,16.87,8.89l99.3-28.5a13.93,13.93,0,0,0,9.59-16.48l-46.8-193.28C311.7,192.8,304.82,184.71,298.13,181.89Z" transform="translate(-0.24)"/><path class="cls-6" d="M197.75,64.17l-18.43,5.29a5.68,5.68,0,0,0-3.88,7l9,31.44a5.68,5.68,0,0,0,6.31,4l9.12,53.86c1.21,7.16-1.22,17.88-5.4,23.82L175.08,217.2c-4.18,5.94-5.72,16.44-3.43,23.33l62.81,188.69a13.93,13.93,0,0,0,16.87,8.89L301,423.87Z" transform="translate(-0.24)"/><ellipse class="cls-7" cx="266.14" cy="302.49" rx="46.23" ry="78.28" transform="translate(-73.35 85.15) rotate(-16.01)"/><ellipse class="cls-8" cx="266.14" cy="302.49" rx="39.15" ry="66.3" transform="translate(-73.35 85.15) rotate(-16.01)"/></svg>
