<?xml version="1.0" encoding="utf-8"?>
<!-- Generator: Adobe Illustrator 20.0.0, SVG Export Plug-In . SVG Version: 6.00 Build 0)  -->
<svg version="1.1" id="Graphics" xmlns="http://www.w3.org/2000/svg" xmlns:xlink="http://www.w3.org/1999/xlink" x="0px" y="0px"
	 viewBox="0 0 500 500" enable-background="new 0 0 500 500" xml:space="preserve">
<g>
	<g>
		<g>
			<g>
				<path fill="#1E4A54" d="M250,14c31.866,0,62.771,6.238,91.857,18.54c28.101,11.886,53.341,28.904,75.02,50.583
					s38.697,46.919,50.583,75.02C479.762,187.229,486,218.134,486,250s-6.238,62.771-18.54,91.857
					c-11.886,28.101-28.904,53.341-50.583,75.02c-21.678,21.678-46.919,38.697-75.02,50.583C312.771,479.762,281.866,486,250,486
					s-62.771-6.238-91.857-18.54c-28.101-11.886-53.341-28.904-75.02-50.583c-21.678-21.678-38.697-46.919-50.583-75.02
					C20.238,312.771,14,281.866,14,250s6.238-62.771,18.54-91.857c11.886-28.101,28.904-53.341,50.583-75.02
					c21.679-21.678,46.919-38.697,75.02-50.583C187.229,20.238,218.134,14,250,14 M250,0C111.93,0,0,111.93,0,250
					s111.93,250,250,250s250-111.93,250-250S388.07,0,250,0L250,0z"/>
			</g>
			<g>
				<path fill="#91D2E4" d="M250,479c-61.165,0-118.67-23.821-161.924-67.075C44.821,368.67,21,311.165,21,250
					c0-61.164,23.821-118.67,67.076-161.924S188.836,21,250,21c61.165,0,118.67,23.821,161.925,67.076
					C455.179,131.33,479,188.835,479,250s-23.821,118.67-67.075,161.925C368.67,455.179,311.165,479,250,479z"/>
				<path fill="#EEF3F3" d="M250,28c29.974,0,59.045,5.868,86.405,17.441c26.434,11.181,50.177,27.191,70.57,47.584
					c20.393,20.393,36.403,44.137,47.584,70.57C466.132,190.956,472,220.026,472,250c0,29.974-5.868,59.045-17.441,86.405
					c-11.181,26.434-27.191,50.177-47.584,70.57c-20.393,20.393-44.136,36.403-70.57,47.584C309.045,466.132,279.974,472,250,472
					c-29.974,0-59.044-5.868-86.404-17.441c-26.434-11.181-50.177-27.191-70.57-47.584c-20.393-20.393-36.403-44.137-47.584-70.57
					C33.868,309.045,28,279.974,28,250c0-29.974,5.868-59.044,17.441-86.404c11.181-26.434,27.191-50.177,47.584-70.57
					c20.393-20.393,44.137-36.403,70.57-47.584C190.956,33.868,220.026,28,250,28 M250,14C119.669,14,14,119.669,14,250
					c0,130.332,105.669,236,236,236c130.332,0,236-105.668,236-236C486,119.669,380.332,14,250,14L250,14z"/>
			</g>
		</g>
		<g>
			<circle fill="#00727B" cx="148.75" cy="210.267" r="7.07"/>
			<path fill="#00727B" d="M155.372,215.508c-1.552,1.961-3.927,3.242-6.622,3.242s-5.07-1.281-6.622-3.242
				c-2.833,2.055-4.689,5.369-4.689,9.135v23.65h22.623v-23.65C160.061,220.877,158.206,217.563,155.372,215.508z"/>
			<circle fill="#00727B" cx="120.471" cy="210.267" r="7.07"/>
			<path fill="#00727B" d="M127.094,215.508c-1.552,1.961-3.927,3.242-6.622,3.242s-5.07-1.281-6.622-3.242
				c-2.833,2.055-4.689,5.369-4.689,9.135v23.65h22.623v-23.65C131.783,220.877,129.927,217.563,127.094,215.508z"/>
			<circle fill="#00727B" cx="177.029" cy="210.267" r="7.07"/>
			<path fill="#00727B" d="M183.651,215.508c-1.552,1.961-3.927,3.242-6.622,3.242s-5.07-1.281-6.622-3.242
				c-2.833,2.055-4.689,5.369-4.689,9.135v23.65h22.623v-23.65C188.34,220.877,186.484,217.563,183.651,215.508z"/>
			<path fill="#1E4A54" d="M197.166,286.575v10.008c0,3.982,3.259,7.235,7.235,7.235h12.052c3.977,0,7.235-3.253,7.235-7.235
				v-10.008H197.166z"/>
			<path fill="#1E4A54" d="M73.811,286.575v10.008c0,3.982,3.259,7.235,7.235,7.235h12.052c3.977,0,7.235-3.253,7.235-7.235v-10.008
				H73.811z"/>
			<path fill="#00727B" d="M225.246,235.651l-19.038-11.168l-11.295,21.535c-0.718,1.381-2.585,2.508-4.142,2.508H106.73
				c-1.558,0-3.424-1.127-4.142-2.508l-11.295-21.535l-19.038,11.168c-5.363,3.143-9.754,10.809-9.754,17.034v22.855
				c0,6.225,5.037,12.035,11.195,12.919l16.984,2.441c6.153,0.884,16.282,1.607,22.501,1.607h71.139
				c6.219,0,16.349-0.724,22.501-1.607l16.984-2.441c6.158-0.884,11.195-6.694,11.195-12.919v-22.855
				C235,246.46,230.609,238.794,225.246,235.651z"/>
			<path fill="#9FD6E5" d="M83.753,268.619c-5.49,0-9.942-5.065-9.942-11.311c0-6.241,4.452-11.311,9.942-11.311
				c5.49,0,9.942,5.07,9.942,11.311C93.695,263.555,89.243,268.619,83.753,268.619"/>
			<path fill="#F8FBFB" d="M85.802,257.308c-2.005,0-3.64-1.635-3.64-3.645c0-2.01,1.635-3.645,3.64-3.645
				c2.01,0,3.651,1.635,3.651,3.645C89.453,255.673,87.813,257.308,85.802,257.308"/>
			<path fill="#9FD6E5" d="M213.747,268.619c-5.49,0-9.942-5.065-9.942-11.311c0-6.241,4.452-11.311,9.942-11.311
				c5.49,0,9.942,5.07,9.942,11.311C223.689,263.555,219.237,268.619,213.747,268.619"/>
			<path fill="#F8FBFB" d="M215.796,257.308c-2.005,0-3.64-1.635-3.64-3.645c0-2.01,1.635-3.645,3.64-3.645
				c2.01,0,3.651,1.635,3.651,3.645C219.447,255.673,217.806,257.308,215.796,257.308"/>
			<g>
				<path fill="#F2C579" d="M112.88,276.722c-0.275,0-0.5,0.225-0.5,0.5v1.182c0,0.275,0,0.725,0,1v8.213c0,0.275,0.225,0.5,0.5,0.5
					h71.74c0.275,0,0.5-0.225,0.5-0.5v-8.213c0-0.275,0-0.725,0-1v-1.182c0-0.275-0.225-0.5-0.5-0.5H112.88z"/>
			</g>
			<path fill="#1E4A54" d="M208.975,225.942l-10.925-29.035c-1.094-2.905-4.49-5.777-7.545-6.374c0,0-24.545-4.772-41.755-4.772
				s-41.755,4.772-41.755,4.772c-3.054,0.597-6.451,3.469-7.545,6.374l-10.925,29.035c-0.276,0.735-0.547,1.508-0.337,2.193
				c2.198,7.224,15.283,26.047,15.283,26.047c4.899,7.942,16.547,14.438,25.876,14.438h38.806c9.329,0,20.977-6.495,25.876-14.438
				c0,0,13.09-18.817,15.283-26.047C209.522,227.45,209.251,226.676,208.975,225.942z M197.288,229.25
				c0,0-27.914,7.412-48.538,7.412c-20.624,0-48.538-7.412-48.538-7.412c-3.005-0.801-4.507-3.811-3.325-6.694l8.66-21.22
				c1.176-2.883,4.639-5.689,7.705-6.236c0,0,20.557-3.684,35.498-3.684s35.497,3.684,35.497,3.684
				c3.065,0.547,6.528,3.353,7.705,6.236l8.66,21.22C201.795,225.439,200.292,228.449,197.288,229.25z"/>
			<path opacity="0.3" fill="#91D2E4" d="M113.252,195.1c-3.065,0.547-6.528,3.353-7.705,6.236l-8.66,21.22
				c-1.182,2.883,0.32,5.893,3.325,6.694c0,0,27.914,7.412,48.538,7.412c20.624,0,48.538-7.412,48.538-7.412
				c3.005-0.801,4.507-3.811,3.325-6.694l-8.66-21.22c-1.176-2.883-4.639-5.689-7.705-6.236c0,0-20.557-3.684-35.497-3.684
				S113.252,195.1,113.252,195.1z"/>
			<path opacity="0.2" fill="#1E4A54" d="M68.1,321.134c0,3.126,35.227,5.661,78.733,5.661c43.451,0,78.683-2.535,78.683-5.661
				c0-3.115-35.232-5.65-78.683-5.65C103.327,315.484,68.1,318.019,68.1,321.134"/>
			
				<rect x="205.224" y="220.086" transform="matrix(0.8346 -0.5509 0.5509 0.8346 -87.2077 152.7171)" fill="#1E4A54" width="10.959" height="2.986"/>
			<g>
				<path fill="#1E4A54" d="M224.848,221.156c0,0.22-0.18,0.4-0.4,0.4h-13.339c-0.22,0-0.4-0.18-0.4-0.4v-7.684
					c0-0.22,0.18-0.4,0.4-0.4h13.339c0.22,0,0.4,0.18,0.4,0.4V221.156z"/>
			</g>
			
				<rect x="85.304" y="216.099" transform="matrix(0.5509 -0.8346 0.8346 0.5509 -145.945 171.9597)" fill="#1E4A54" width="2.986" height="10.959"/>
			<g>
				<path fill="#1E4A54" d="M72.652,221.156c0,0.22,0.18,0.4,0.4,0.4h13.339c0.22,0,0.4-0.18,0.4-0.4v-7.684
					c0-0.22-0.18-0.4-0.4-0.4H73.052c-0.22,0-0.4,0.18-0.4,0.4V221.156z"/>
			</g>
		</g>
		<g>
			<circle fill="#00727B" cx="351.25" cy="210.267" r="7.07"/>
			<path fill="#00727B" d="M357.872,215.508c-1.552,1.961-3.927,3.242-6.622,3.242s-5.07-1.281-6.622-3.242
				c-2.833,2.055-4.689,5.369-4.689,9.135v23.65h22.623v-23.65C362.561,220.877,360.706,217.563,357.872,215.508z"/>
			<circle fill="#00727B" cx="322.971" cy="210.267" r="7.07"/>
			<path fill="#00727B" d="M329.594,215.508c-1.552,1.961-3.927,3.242-6.622,3.242c-2.695,0-5.07-1.281-6.622-3.242
				c-2.833,2.055-4.689,5.369-4.689,9.135v23.65h22.623v-23.65C334.283,220.877,332.427,217.563,329.594,215.508z"/>
			<circle fill="#00727B" cx="379.529" cy="210.267" r="7.07"/>
			<path fill="#00727B" d="M386.151,215.508c-1.552,1.961-3.927,3.242-6.622,3.242c-2.695,0-5.07-1.281-6.622-3.242
				c-2.833,2.055-4.689,5.369-4.689,9.135v23.65h22.623v-23.65C390.84,220.877,388.984,217.563,386.151,215.508z"/>
			<path fill="#1E4A54" d="M399.666,286.575v10.008c0,3.982,3.259,7.235,7.235,7.235h12.052c3.977,0,7.235-3.253,7.235-7.235
				v-10.008H399.666z"/>
			<path fill="#1E4A54" d="M276.311,286.575v10.008c0,3.982,3.259,7.235,7.235,7.235h12.052c3.977,0,7.235-3.253,7.235-7.235
				v-10.008H276.311z"/>
			<path fill="#00727B" d="M427.746,235.651l-19.038-11.168l-11.295,21.535c-0.718,1.381-2.585,2.508-4.142,2.508H309.23
				c-1.558,0-3.424-1.127-4.142-2.508l-11.295-21.535l-19.038,11.168c-5.363,3.143-9.754,10.809-9.754,17.034v22.855
				c0,6.225,5.037,12.035,11.195,12.919l16.984,2.441c6.153,0.884,16.282,1.607,22.501,1.607h71.139
				c6.219,0,16.349-0.724,22.501-1.607l16.984-2.441c6.158-0.884,11.195-6.694,11.195-12.919v-22.855
				C437.5,246.46,433.109,238.794,427.746,235.651z"/>
			<path fill="#9FD6E5" d="M286.253,268.619c-5.49,0-9.942-5.065-9.942-11.311c0-6.241,4.452-11.311,9.942-11.311
				c5.49,0,9.942,5.07,9.942,11.311C296.195,263.555,291.743,268.619,286.253,268.619"/>
			<path fill="#F8FBFB" d="M288.302,257.308c-2.005,0-3.64-1.635-3.64-3.645c0-2.01,1.635-3.645,3.64-3.645
				c2.01,0,3.651,1.635,3.651,3.645C291.953,255.673,290.313,257.308,288.302,257.308"/>
			<path fill="#9FD6E5" d="M416.247,268.619c-5.49,0-9.942-5.065-9.942-11.311c0-6.241,4.452-11.311,9.942-11.311
				c5.49,0,9.942,5.07,9.942,11.311C426.189,263.555,421.737,268.619,416.247,268.619"/>
			<path fill="#F8FBFB" d="M418.296,257.308c-2.005,0-3.64-1.635-3.64-3.645c0-2.01,1.635-3.645,3.64-3.645
				c2.01,0,3.651,1.635,3.651,3.645C421.947,255.673,420.306,257.308,418.296,257.308"/>
			<g>
				<path fill="#F2C579" d="M315.38,276.722c-0.275,0-0.5,0.225-0.5,0.5v1.182c0,0.275,0,0.725,0,1v8.213c0,0.275,0.225,0.5,0.5,0.5
					h71.74c0.275,0,0.5-0.225,0.5-0.5v-8.213c0-0.275,0-0.725,0-1v-1.182c0-0.275-0.225-0.5-0.5-0.5H315.38z"/>
			</g>
			<path fill="#1E4A54" d="M411.475,225.942l-10.925-29.035c-1.094-2.905-4.49-5.777-7.545-6.374c0,0-24.545-4.772-41.755-4.772
				s-41.755,4.772-41.755,4.772c-3.054,0.597-6.451,3.469-7.545,6.374l-10.925,29.035c-0.276,0.735-0.547,1.508-0.337,2.193
				c2.198,7.224,15.283,26.047,15.283,26.047c4.899,7.942,16.547,14.438,25.876,14.438h38.806c9.329,0,20.977-6.495,25.876-14.438
				c0,0,13.09-18.817,15.283-26.047C412.022,227.45,411.751,226.676,411.475,225.942z M399.788,229.25
				c0,0-27.914,7.412-48.538,7.412c-20.624,0-48.538-7.412-48.538-7.412c-3.005-0.801-4.507-3.811-3.325-6.694l8.66-21.22
				c1.176-2.883,4.639-5.689,7.705-6.236c0,0,20.557-3.684,35.497-3.684s35.497,3.684,35.497,3.684
				c3.065,0.547,6.528,3.353,7.705,6.236l8.66,21.22C404.295,225.439,402.792,228.449,399.788,229.25z"/>
			<path opacity="0.3" fill="#91D2E4" d="M315.753,195.1c-3.065,0.547-6.528,3.353-7.705,6.236l-8.66,21.22
				c-1.182,2.883,0.32,5.893,3.325,6.694c0,0,27.914,7.412,48.538,7.412c20.624,0,48.538-7.412,48.538-7.412
				c3.005-0.801,4.507-3.811,3.325-6.694l-8.66-21.22c-1.176-2.883-4.639-5.689-7.705-6.236c0,0-20.557-3.684-35.497-3.684
				S315.753,195.1,315.753,195.1z"/>
			<path opacity="0.2" fill="#1E4A54" d="M270.6,321.134c0,3.126,35.227,5.661,78.733,5.661c43.451,0,78.683-2.535,78.683-5.661
				c0-3.115-35.232-5.65-78.683-5.65C305.827,315.484,270.6,318.019,270.6,321.134"/>
			
				<rect x="407.724" y="220.086" transform="matrix(0.8346 -0.5509 0.5509 0.8346 -53.7139 264.2659)" fill="#1E4A54" width="10.959" height="2.986"/>
			<g>
				<path fill="#1E4A54" d="M427.348,221.156c0,0.22-0.18,0.4-0.4,0.4h-13.339c-0.22,0-0.4-0.18-0.4-0.4v-7.684
					c0-0.22,0.18-0.4,0.4-0.4h13.339c0.22,0,0.4,0.18,0.4,0.4V221.156z"/>
			</g>
			
				<rect x="287.804" y="216.099" transform="matrix(0.5509 -0.8346 0.8346 0.5509 -54.9943 340.9656)" fill="#1E4A54" width="2.986" height="10.959"/>
			<g>
				<path fill="#1E4A54" d="M275.152,221.156c0,0.22,0.18,0.4,0.4,0.4h13.339c0.22,0,0.4-0.18,0.4-0.4v-7.684
					c0-0.22-0.18-0.4-0.4-0.4h-13.339c-0.22,0-0.4,0.18-0.4,0.4V221.156z"/>
			</g>
		</g>
		<g>
			<path fill="#E45C5E" d="M254.993,102.907h58.792v22.878h-11.439v22.612h-22.612v-22.612h-24.741
				c-1.154,3.371-2.773,6.431-4.855,9.178c-2.085,2.75-4.522,5.121-7.316,7.116c-2.793,1.995-5.898,3.548-9.311,4.655
				c-3.415,1.11-6.983,1.663-10.708,1.663c-4.701,0-9.134-0.885-13.301-2.66c-4.169-1.773-7.781-4.19-10.841-7.249
				c-3.059-3.059-5.477-6.651-7.249-10.774c-1.775-4.123-2.66-8.579-2.66-13.368c0-4.699,0.885-9.111,2.66-13.235
				c1.773-4.123,4.19-7.735,7.249-10.841c3.059-3.103,6.671-5.541,10.841-7.316c4.167-1.773,8.6-2.66,13.301-2.66
				c3.724,0,7.293,0.555,10.708,1.663c3.413,1.11,6.518,2.66,9.311,4.655c2.793,1.995,5.231,4.389,7.316,7.183
				C252.221,96.589,253.84,99.627,254.993,102.907z M222.804,125.785c3.014,0,5.674-1.131,7.981-3.392
				c2.305-2.261,3.458-4.942,3.458-8.047c0-3.013-1.131-5.674-3.392-7.981c-2.261-2.305-4.944-3.458-8.047-3.458
				c-3.016,0-5.632,1.154-7.848,3.458c-2.218,2.307-3.325,4.967-3.325,7.981c0,3.105,1.085,5.786,3.259,8.047
				C217.061,124.655,219.699,125.785,222.804,125.785z"/>
		</g>
		<g opacity="0.4">
			<path fill="#1AA9D2" d="M81.398,364.029c36.87,53.606,98.629,88.765,168.602,88.765c69.974,0,131.733-35.159,168.603-88.765
				H81.398z"/>
		</g>
	</g>
	<path fill="#ED8C7A" d="M214.956,106.365c2.216-2.305,4.832-3.458,7.848-3.458c3.103,0,5.786,1.154,8.047,3.458
		c2.261,2.307,3.392,4.967,3.392,7.98h79.542v-11.439h-58.792c-1.154-3.279-2.772-6.318-4.855-9.111
		c-2.085-2.793-4.522-5.188-7.316-7.183c-2.793-1.995-5.898-3.545-9.311-4.655c-3.415-1.107-6.983-1.663-10.708-1.663
		c-4.701,0-9.135,0.887-13.302,2.66c-4.169,1.775-7.781,4.213-10.841,7.316c-3.059,3.105-5.477,6.717-7.249,10.84
		c-1.775,4.124-2.66,8.536-2.66,13.235h22.878C211.631,111.333,212.738,108.672,214.956,106.365z"/>
</g>
<g>
</g>
<g>
</g>
<g>
</g>
<g>
</g>
<g>
</g>
<g>
</g>
<g>
</g>
<g>
</g>
<g>
</g>
<g>
</g>
<g>
</g>
<g>
</g>
<g>
</g>
<g>
</g>
<g>
</g>
</svg>
