<?xml version="1.0" encoding="utf-8"?>
<!-- Generator: Adobe Illustrator 20.0.0, SVG Export Plug-In . SVG Version: 6.00 Build 0)  -->
<svg version="1.1" id="Layer_1" xmlns="http://www.w3.org/2000/svg" xmlns:xlink="http://www.w3.org/1999/xlink" x="0px" y="0px"
	 viewBox="0 0 357.9 357.3" enable-background="new 0 0 357.9 357.3" xml:space="preserve">
<g>
	
		<ellipse transform="matrix(0.2611 -0.9653 0.9653 0.2611 -39.0539 305.1168)" fill="#D4DCE1" cx="179.779" cy="178.069" rx="175.198" ry="175.198"/>
	<path fill="#EF7A15" d="M179.8,356.1c-15.3,0-30.9-2-46.4-6.2C38.6,324.3-17.6,226.3,8,131.6l0,0C33.6,36.8,131.6-19.4,226.3,6.2
		c45.9,12.4,84.2,42,107.9,83.2s29.9,89.2,17.5,135.1C330.2,303.8,258.2,356.1,179.8,356.1z M10.7,132.3l2.7,0.7
		C-11.4,224.7,43,319.6,134.8,344.4c15,4.1,30.1,6,45,6c75.9,0,145.7-50.6,166.4-127.4c12-44.4,6-90.9-16.9-130.8
		s-60-68.5-104.5-80.6C133.1-13.1,38.3,41.3,13.5,133L10.7,132.3z"/>
</g>
<title>sparepære</title>
<path fill="#01737B" d="M275,39.8c-9.3-6.3-68.6-45.2-140.8-25.7C65.9,32.6,17,95,11.1,164.2c-7.9,93.5,67.1,151.2,71.8,154.7
	C146.9,225.9,211,132.9,275,39.8z"/>
<path fill="#D4DCE1" d="M275.5,38.1c9.1,6.6,66.6,49.4,73.1,125.2c6,69.2-32.9,137.7-96.8,168.1c-84.4,40.2-164.2-9.3-169-12.4
	C147.1,225.3,211.3,131.7,275.5,38.1z"/>
<path fill="#ECEEF1" d="M154.3,232h39.9c8,0,14.4,6.5,14.4,14.4v31.7c0,8-6.5,14.4-14.4,14.4h-39.9c-8,0-14.4-6.5-14.4-14.4v-31.7
	C139.9,238.4,146.3,232,154.3,232z"/>
<path fill="#ECEEF1" d="M159.6,232.1c-0.2-8.9-2.6-12-4.8-13.2c-1.6-0.9-3.3-0.8-6.5-2.7c-1.6-1-3.2-2.1-4.5-3.4
	c-2.1-2.1-3.8-4.5-5-7.2l13.2-2.9c3.1,2.2,5.9,4.9,8.3,7.8c5,6.3,8.2,13.7,9.3,21.7L159.6,232.1z"/>
<path fill="#ECEEF1" d="M189.7,233.3c0,0-1.3-14.1,11.3-15.9c2.7,0.2,5.4-0.6,7.7-2.1c5.4-3.7,5.3-10.4,5.3-11l-18.5,3.8
	c-9.2,5.1-15.1,14.5-15.6,25L189.7,233.3z"/>
<path fill="#ECEEF1" d="M211.6,209.6c1.5-1.3,2.4-3.2,2.4-5.2c-0.3-2.1-1.3-4-3-5.2c-6.5-5.9-33.6-5.1-35.5-5l-4.8,3.5l24.7,11.9
	c3.1,1.7,6.6,2.5,10.1,2.2C207.7,211.7,209.9,211,211.6,209.6z"/>
<path fill="#ECEEF1" d="M152.7,170.8c5.9-1,11.9-1.5,17.7-2.6c7.4-1.4,27.7-5.1,42.8-9.9c2.6-0.7,4.8-2.2,6.3-4.4
	c1.6-2.7,2.1-7.2-0.5-9.7c-1.2-1-2.7-1.6-4.2-1.6c-39.5,9-67.9,15.3-74.1,16.2c-1.6,0.1-3,0.9-4.1,2.1c-1.9,2.8,0,7.6,2.9,9.7
	S145.6,172,152.7,170.8z"/>
<path fill="#ECEEF1" d="M151.5,188.8c5.9-1,11.9-1.5,17.7-2.6c7.4-1.4,27.7-5.2,42.8-10c2.6-0.7,4.8-2.2,6.3-4.4
	c1.6-2.7,2.1-7.2-0.5-9.7c-1.2-1-2.7-1.6-4.2-1.6c-39.5,9-68,15.4-74.1,16.3c-1.6,0.1-3,0.9-4.1,2.1c-1.9,2.8,0.1,7.6,2.9,9.7
	S144.4,190,151.5,188.8z"/>
<path fill="#ECEEF1" d="M148.8,207.4c5.9-0.8,11.9-1.2,17.8-2.2c7.4-1.2,27.9-4.4,43-8.8c2.6-0.6,4.9-2.1,6.4-4.3
	c1.6-2.6,2.3-7.2-0.3-9.7c-1.2-1.1-2.6-1.7-4.2-1.7L137,195.1c-1.6,0.1-3.1,0.8-4.1,2c-2,2.7-0.1,7.6,2.6,9.8
	C138.3,209.1,141.6,208.4,148.8,207.4z"/>
<path fill="#ECEEF1" d="M143.6,150.7c3.7,6.7,48.1-4.6,62-9c1.9-0.6,5.8-1.9,6.8-4.8c0.7-2.1,0-4.4-1.7-5.8c-0.8-0.6-1.8-1-2.9-1.1
	c-11.4-1.4-57.2,7.9-61.9,10.8l-2.4,1.5c-0.6,1.2-1,2.6-1,3.9C142.5,147.8,142.9,149.4,143.6,150.7z"/>
<path fill="#DBDDE0" d="M143,149.7c0.2,0.2,0.3,0.5,0.5,0.7c0.5,0.6,1.2,1.1,1.9,1.3c0.5,0.1,1.1,0.2,1.7,0.2c0.6,0,1.3,0,2,0
	c1.5-0.1,3.1-0.3,4.8-0.5s3.7-0.6,5.7-0.9l1.5-0.3l1.6-0.3l3.3-0.7l1.7-0.3l1.6-0.4l3.4-0.8l7-1.6c4.7-1,9.4-2.1,13.8-3.1
	s8.6-1.7,12-2.6c1.6-0.4,3.1-0.9,4.5-1.7c1-0.6,1.7-1.6,1.9-2.8c0.1-0.8,0.1-1.6-0.1-2.4c-0.1-0.6-0.2-0.8-0.2-0.8s0.1,0.3,0.3,0.8
	c0.3,0.8,0.4,1.6,0.4,2.4c0,0.6-0.2,1.2-0.4,1.8c-0.3,0.7-0.8,1.2-1.4,1.7c-1.4,1-2.9,1.7-4.6,2.3c-3.5,1.2-7.6,2.3-12,3.4
	c-2.2,0.5-4.4,1.2-6.8,1.7c-2.3,0.5-4.7,1.1-7,1.6l-7.1,1.5l-3.5,0.7l-1.7,0.3l-1.7,0.3c-2.3,0.4-4.3,0.8-6.5,1s-4,0.4-5.9,0.5
	c-1.7,0.1-3.3,0.1-5,0c-1.3,0-2.6-0.2-3.9-0.6c-0.8-0.4-1.4-0.9-1.9-1.7C143.2,150.2,143.1,150,143,149.7z"/>
<path fill="#DBDDE0" d="M138.6,169.6c0.2,0.3,0.5,0.5,0.7,0.7c0.7,0.6,1.6,1,2.5,1.2c1.4,0.2,2.9,0.2,4.4,0c1.7-0.2,3.6-0.4,5.7-0.7
	c2.1-0.3,4.3-0.8,6.7-1.2s4.8-1.1,7.4-1.6c2.6-0.5,5.2-1.2,7.9-1.8l8.2-1.9c2.8-0.6,5.5-1.3,8.2-1.9s5.4-1.2,7.9-1.8
	c5.2-1.2,10-2.1,14.1-3.1c1.8-0.4,3.6-1,5.2-1.9c1.2-0.8,2.1-1.9,2.6-3.2c0.3-0.9,0.6-1.8,0.7-2.7c0.1-0.6,0.1-1,0.1-1s0,0.3,0,1
	c0,1-0.1,1.9-0.4,2.9c-0.4,1.5-1.3,2.8-2.5,3.8c-1.6,1.1-3.4,2-5.3,2.6c-4.1,1.3-8.9,2.5-14,3.9c-2.6,0.6-5.2,1.4-7.9,2
	s-5.4,1.4-8.2,2l-8.2,1.7c-2.7,0.6-5.3,1.2-8,1.7s-5.1,1-7.5,1.3c-2.5,0.3-4.7,0.6-6.8,0.8s-4.1,0.3-5.8,0.3c-1.5,0-3-0.1-4.5-0.4
	c-0.9-0.3-1.8-0.8-2.4-1.6C139,170.2,138.8,169.9,138.6,169.6z"/>
<path fill="#DBDDE0" d="M137.3,187.7c0.2,0.2,0.5,0.5,0.7,0.7c0.7,0.6,1.6,1,2.5,1.2c0.7,0.1,1.3,0.1,2,0.1s1.5-0.1,2.4-0.1
	c1.7-0.2,3.6-0.4,5.7-0.7s4.3-0.8,6.7-1.2s4.8-1.1,7.4-1.6c2.6-0.5,5.2-1.2,7.9-1.9l8.2-1.9c2.8-0.6,5.5-1.3,8.2-1.9s5.4-1.2,8-1.8
	c5.2-1.2,10-2.1,14.1-3.2c1.8-0.4,3.6-1.1,5.2-2c1.2-0.8,2.1-2,2.6-3.3c0.3-0.9,0.5-1.8,0.6-2.7c0-0.7,0-1,0-1s0,0.3,0.1,1
	c0,1-0.1,1.9-0.3,2.9c-0.4,1.5-1.3,2.9-2.5,3.9c-1.6,1.2-3.4,2-5.3,2.6c-4.1,1.3-8.9,2.6-14,3.9c-2.6,0.6-5.2,1.4-7.9,2
	s-5.5,1.4-8.2,2l-8.2,1.8c-2.7,0.6-5.4,1.2-8,1.7c-2.7,0.5-5.1,1-7.6,1.3s-4.7,0.6-6.8,0.8s-4.1,0.3-5.8,0.3c-1.5,0-3-0.1-4.5-0.4
	c-0.9-0.3-1.8-0.8-2.5-1.5C137.7,188.2,137.5,188,137.3,187.7z"/>
<path fill="#DBDDE0" d="M134.4,205.7c0.9,1,2,1.7,3.2,2c1.4,0.3,2.9,0.3,4.3,0.1c1.7-0.2,3.6-0.5,5.7-0.9c2.1-0.4,4.4-0.8,6.8-1.3
	c1.2-0.2,2.4-0.5,3.6-0.8l3.8-0.9c1.3-0.3,2.6-0.6,4-0.8c1.4-0.3,2.7-0.5,4.1-0.7c2.8-0.4,5.6-0.8,8.4-1.2l8.4-1
	c2.7-0.4,5.4-0.8,8-1.3c5.2-1,10-2,14.2-3.1c1.8-0.4,3.6-1.1,5.1-2.2c1.1-0.9,2-2.1,2.6-3.4c0.4-0.9,0.6-1.8,0.7-2.7
	c0-0.3,0.1-0.7,0.1-1c0,0.3,0,0.7,0,1c0,1-0.1,2-0.4,2.9c-0.5,1.5-1.3,2.8-2.4,3.9c-1.5,1.3-3.3,2.3-5.3,2.8
	c-4.6,1.5-9.3,2.8-14.1,3.8c-2.6,0.6-5.3,1.1-8.1,1.5l-8.4,1.1c-2.8,0.3-5.6,0.7-8.4,1.1l-4.1,0.6c-1.3,0.2-2.6,0.4-3.9,0.7
	s-2.6,0.5-3.9,0.7c-1.3,0.2-2.5,0.4-3.7,0.6l-6.8,0.9c-1.9,0.3-3.9,0.4-5.8,0.5c-1.5,0.1-3.1-0.1-4.5-0.5c-0.9-0.3-1.8-0.9-2.4-1.6
	C134.8,206.2,134.6,205.9,134.4,205.7z"/>
<path fill="#DBDDE0" d="M204.8,202.6c-2.9,1.2-5.7,2.7-8.4,4.3c-0.4,0.3-1.7,1-3.2,2.1c-1.6,1.1-3.1,2.4-4.4,3.8
	c-0.4,0.4-0.7,0.8-0.9,1l8.2-5.7C196.1,208.3,197.2,207.5,204.8,202.6z"/>
<path fill="#DBDDE0" d="M181.4,202.8c1.5,0.9,8.6,5.3,12.1,6.1c0.3,0.1,0.9,0.2,0.9,0.1c0-0.1-2.6-1.3-6.4-3.2l-1.1-0.6
	C185.2,204.3,183.3,203.4,181.4,202.8z"/>
<path fill="#DBDDE0" d="M139.3,208.1c0.4,0,0.8,0.2,1.1,0.6l0.3,0.5l0.3,0.4c5.6,0.1,11.2-0.6,16.6-2.1l-0.2-0.2l-0.2-0.3
	c-0.1-0.1-0.1-0.1-0.2-0.2c-0.1,0-0.2,0-0.2,0l0,0l-0.2-0.1c-1.9-1.1-10.3,0.3-10.3,0.3l0,0C144.8,207.4,142.4,207.8,139.3,208.1z"
	/>
<path fill="#DBDDE0" d="M182,203.1c0.4,0.2,0.8,0.5,1.2,0.7l0.5,0.2c8.7-1,17.1-3.1,25.3-6.2l0,0c-0.2,0-0.4-0.1-0.5-0.2
	c-0.1-0.1-0.2-0.3-0.3-0.4l0,0c-0.3-0.7-6.3,1-6.4,1.1l0,0c-2.6,0.8-6.5,1.9-11.9,3.4c-0.9,0.3-1.9,0.5-3,0.7
	C185.3,202.7,183.7,202.9,182,203.1z"/>
<path fill="#ECEEF1" d="M167.1,315.2h14.4c2.5-2.7,4.8-5.5,6.9-8.5c0.5-0.7,1.5-1.5,1.5-2.2v-1.3h-1.2V302h1.2v-1.2h-1.2v-1.2h1.2
	v-1.2h-1.2v-1.2h1.2V296h-1.2v-1.2h1.2v-2.4h-31.3v2.4h1.2v1.2h-1.2v1.2h1.2v1.2h-1.2v1.2h1.2v1.2h-1.2v1.2h1.2v1.2h-1.2v1.3
	c0.5,0.7,1,1.5,1.5,2.2C162.3,309.6,164.6,312.5,167.1,315.2h14.4"/>
<path fill="#ECEEF1" d="M177.9,313.6h-7.2c-0.7,0.3-1.2,0.9-1.4,1.6c-0.2,1.1,1,2.6,3,3h3.5c2.3-0.3,3.7-1.9,3.5-3
	C179.1,314.2,178.1,313.7,177.9,313.6l-7.3-0.1"/>
<rect x="158.3" y="229.5" fill="#ECEEF1" width="12.4" height="2.8"/>
<rect x="178.9" y="229.5" fill="#ECEEF1" width="12.4" height="2.8"/>
<path fill="#DBDDE0" d="M169.2,229.5l-0.2-0.8c-1.2,0.1-2.6,0.2-4,0.3c-1.9,0-3.7-0.1-5.6-0.3l0.1,0.8"/>
<path fill="#DBDDE0" d="M180.3,228.6l-0.2,0.8h9.6l0.1-0.8C186.7,229,183.5,229,180.3,228.6L180.3,228.6z"/>
<path fill="#DBDDE0" d="M158.3,231.7v0.3h12.4v-0.3h-5.3C163,231.7,160.6,231.7,158.3,231.7z"/>
<path fill="#DBDDE0" d="M178.9,231.7v0.3h12.4v-0.3H186C183.5,231.7,181.2,231.7,178.9,231.7z"/>
<path fill="#DBDDE0" d="M158.7,293c10.4,1.4,20.9,1.4,31.3,0v-0.4c-5.4,0.1-11,0.2-16.7,0.2c-5,0-9.8-0.1-14.6-0.2V293z"/>
<path fill="#E5E4E6" d="M159.9,301.9c9.6,1.7,19.3,1.7,28.9,0v0.4c-3.1,0.7-6.2,1.3-9.4,1.5c-6.5,0.5-13.1,0-19.5-1.5V301.9z"/>
<path fill="#E5E4E6" d="M159.9,299.5c9.6,1.7,19.3,1.7,28.9,0v0.4c-3.1,0.7-6.2,1.3-9.4,1.5c-6.5,0.5-13.1,0-19.5-1.5V299.5z"/>
<path fill="#E5E4E6" d="M159.9,297.1c9.6,1.7,19.3,1.7,28.9,0v0.4c-3.1,0.7-6.2,1.3-9.4,1.5c-6.5,0.5-13.1,0-19.5-1.5V297.1z"/>
<path fill="#E5E4E6" d="M159.9,294.7c9.6,1.7,19.3,1.7,28.9,0v0.4c-3.1,0.7-6.2,1.3-9.4,1.5c-6.5,0.5-13.1,0-19.5-1.5V294.7z"/>
<path fill="#DBDDE0" d="M169.3,315.2c3.3,0.4,6.7,0.4,10,0C176,316,172.6,316,169.3,315.2z"/>
<circle fill="#FFFFFF" cx="207.5" cy="133.7" r="2"/>
<ellipse transform="matrix(0.6392 -0.7691 0.7691 0.6392 -31.5243 206.5918)" fill="#FFFFFF" cx="204.401" cy="136.891" rx="1.3" ry="1.3"/>
<ellipse transform="matrix(0.9958 -0.0918 0.0918 0.9958 -11.3548 19.2715)" fill="#FFFFFF" cx="203.701" cy="133.002" rx="0.8" ry="0.8"/>
<ellipse transform="matrix(0.9958 -0.0918 0.0918 0.9958 -11.5682 19.042)" fill="#FFFFFF" cx="201.101" cy="135.206" rx="0.8" ry="0.8"/>
<circle fill="#FFFFFF" cx="138.4" cy="181" r="2"/>
<ellipse transform="matrix(0.7691 -0.6392 0.6392 0.7691 -85.1002 132.9319)" fill="#FFFFFF" cx="141.411" cy="184.234" rx="1.3" ry="1.3"/>
<ellipse transform="matrix(0.0918 -0.9958 0.9958 0.0918 -50.4569 305.2826)" fill="#FFFFFF" cx="142.14" cy="180.304" rx="0.8" ry="0.8"/>
<ellipse transform="matrix(0.0918 -0.9958 0.9958 0.0918 -50.3783 309.8344)" fill="#FFFFFF" cx="144.675" cy="182.537" rx="0.8" ry="0.8"/>
<ellipse transform="matrix(0.7691 -0.6392 0.6392 0.7691 -84.6842 181.4282)" fill="#FFFFFF" cx="208.732" cy="207.906" rx="1.3" ry="1.3"/>
<ellipse transform="matrix(0.0918 -0.9958 0.9958 0.0918 -12.861 393.7956)" fill="#FFFFFF" cx="209.464" cy="203.949" rx="0.8" ry="0.8"/>
<ellipse transform="matrix(0.0918 -0.9958 0.9958 0.0918 -12.7865 398.369)" fill="#FFFFFF" cx="212.009" cy="206.195" rx="0.8" ry="0.8"/>
<path fill="#F9FF5F" d="M163.5,41L162,96.1l0.2,4.1l17.1-14.9c-0.1,26.1,0,39.1,0.4,39.1s1.1-15.4,2.2-46.2l-16.6,14.6L163.5,41z"/>
<path fill="#F4B70C" d="M163.5,41c0,2.2-0.1,4.8-0.1,7.9c0,0,0,2.9,0,5.8c0,4.8,0.6,19.1,1.8,38.3l16.6-14.6
	c-0.6,11.4-1.2,22.8-1.7,34.4c-0.2,4-0.3,7.9-0.5,11.8l5.2-53.9l-16,14.9l-0.1-2.3L163.5,41z"/>
<circle fill="none" stroke="#F4B70C" stroke-width="5.6693" stroke-miterlimit="10" cx="180" cy="178" r="169.4"/>
</svg>
