<svg id="Graphics" xmlns="http://www.w3.org/2000/svg" viewBox="0 0 500 500"><defs><style>.cls-1{fill:#1e4a54;}.cls-2{fill:#eef3f3;}.cls-3{fill:#91d2e4;}.cls-4{opacity:0.2;}.cls-5{fill:#00727b;}.cls-6{fill:#8fadb4;}.cls-7{fill:#fff;opacity:0.4;}</style></defs><title>act_transport_08_vid_conf</title><path class="cls-1" d="M250,14a236.07,236.07,0,0,1,91.86,453.46A236.06,236.06,0,0,1,158.14,32.54,234.51,234.51,0,0,1,250,14m0-14C111.93,0,0,111.93,0,250S111.93,500,250,500,500,388.07,500,250,388.07,0,250,0h0Z"/><path class="cls-2" d="M250,479A229,229,0,0,1,88.08,88.08,229,229,0,1,1,411.92,411.92,227.5,227.5,0,0,1,250,479Z"/><path class="cls-3" d="M250,28a222.06,222.06,0,0,1,86.4,426.56A222.06,222.06,0,0,1,163.6,45.44,220.57,220.57,0,0,1,250,28m0-14C119.67,14,14,119.67,14,250S119.67,486,250,486,486,380.33,486,250,380.33,14,250,14h0Z"/><path class="cls-4" d="M109.66,376.79c0,5.53,62.29,10,139.21,10S388,382.32,388,376.79s-62.29-10-139.12-10-139.21,4.47-139.21,10"/><path class="cls-1" d="M355.8,138.89a23.43,23.43,0,0,1,16.71,7,22.08,22.08,0,0,1,7.24,16.44V304.92a24.26,24.26,0,0,1-24,24h-83l23.4,35.66v11.7H201.47v-11.7l23.4-35.66h-83a23.17,23.17,0,0,1-16.71-7.1,22.8,22.8,0,0,1-7.24-16.85V162.29a22.27,22.27,0,0,1,7.1-16.44,23.27,23.27,0,0,1,16.85-7H355.8Zm0,142.63V162.29H141.85V281.52H355.8Z"/><path class="cls-5" d="M372.52,145.85a23.43,23.43,0,0,0-16.71-7h-107v23.4h107V281.52h-107v83h47.36l-23.4-35.66h83a24.26,24.26,0,0,0,24-24V162.29A22.08,22.08,0,0,0,372.52,145.85Z"/><rect class="cls-6" x="128.39" y="149.39" width="240.87" height="149.47" rx="12.59" ry="12.59"/><path class="cls-5" d="M248.83,243.27a77.37,77.37,0,0,1,13.41,1.39A75.25,75.25,0,0,1,277,248.88a43.18,43.18,0,0,1,12,7.07q5,4.23,5,9.78v11.36H203.65V265.73q0-5.55,5-9.78a43.15,43.15,0,0,1,12-7.07,75.21,75.21,0,0,1,14.79-4.23A77.35,77.35,0,0,1,248.83,243.27Zm0-11.36a22.44,22.44,0,0,1-22.46-22.46,22.17,22.17,0,0,1,6.54-16,22.1,22.1,0,0,1,31.77,0,22.06,22.06,0,0,1,6.6,16A22.33,22.33,0,0,1,248.83,231.91Z"/><path class="cls-7" d="M356.68,149.39H351L201.57,298.85H356.68a12.62,12.62,0,0,0,12.59-12.59V162A12.62,12.62,0,0,0,356.68,149.39Z"/><path class="cls-1" d="M357.25,318.39H227.85v10.49h128a23,23,0,0,0,16.85-7.1,23.54,23.54,0,0,0,6.23-10.42A34.44,34.44,0,0,1,357.25,318.39Z"/><circle class="cls-6" cx="248.83" cy="308.29" r="6.24"/><path class="cls-5" d="M248.83,313.6a5.31,5.31,0,1,1,5.31-5.31A5.32,5.32,0,0,1,248.83,313.6Zm0-9.86a4.55,4.55,0,1,0,4.55,4.55A4.55,4.55,0,0,0,248.83,303.75Z"/></svg>
