<?xml version="1.0" encoding="utf-8"?>
<!-- Generator: Adobe Illustrator 19.2.1, SVG Export Plug-In . SVG Version: 6.00 Build 0)  -->
<svg version="1.1" id="Graphics" xmlns="http://www.w3.org/2000/svg" xmlns:xlink="http://www.w3.org/1999/xlink" x="0px" y="0px"
	 viewBox="0 0 500 500" style="enable-background:new 0 0 500 500;" xml:space="preserve">
<style type="text/css">
	.st0{fill:#366842;}
	.st1{fill:#EEF3F3;}
	.st2{fill:#8CB61D;}
	.st3{fill:#B3C589;}
	.st4{fill:#91D2E4;}
	.st5{fill:#1AA9D2;}
	.st6{fill:#FFFFFF;}
	.st7{fill:#1E4A54;}
</style>
<g>
	<g>
		<g>
			<g>
				<path class="st0" d="M250,14c31.9,0,62.8,6.2,91.9,18.5c28.1,11.9,53.3,28.9,75,50.6c21.7,21.7,38.7,46.9,50.6,75
					c12.3,29.1,18.5,60,18.5,91.9s-6.2,62.8-18.5,91.9c-11.9,28.1-28.9,53.3-50.6,75c-21.7,21.7-46.9,38.7-75,50.6
					c-29.1,12.3-60,18.5-91.9,18.5s-62.8-6.2-91.9-18.5c-28.1-11.9-53.3-28.9-75-50.6c-21.7-21.7-38.7-46.9-50.6-75
					C20.2,312.8,14,281.9,14,250s6.2-62.8,18.5-91.9c11.9-28.1,28.9-53.3,50.6-75c21.7-21.7,46.9-38.7,75-50.6
					C187.2,20.2,218.1,14,250,14 M250,0C111.9,0,0,111.9,0,250s111.9,250,250,250s250-111.9,250-250S388.1,0,250,0L250,0z"/>
			</g>
		</g>
		<g>
			<g>
				<path class="st1" d="M250,479c-61.2,0-118.7-23.8-161.9-67.1C44.8,368.7,21,311.2,21,250c0-61.2,23.8-118.7,67.1-161.9
					S188.8,21,250,21c61.2,0,118.7,23.8,161.9,67.1C455.2,131.3,479,188.8,479,250s-23.8,118.7-67.1,161.9
					C368.7,455.2,311.2,479,250,479z"/>
			</g>
			<g>
				<path class="st2" d="M250,28c30,0,59,5.9,86.4,17.4C362.8,56.6,386.6,72.6,407,93s36.4,44.1,47.6,70.6
					C466.1,191,472,220,472,250s-5.9,59-17.4,86.4c-11.2,26.4-27.2,50.2-47.6,70.6c-20.4,20.4-44.1,36.4-70.6,47.6
					C309,466.1,280,472,250,472s-59-5.9-86.4-17.4c-26.4-11.2-50.2-27.2-70.6-47.6c-20.4-20.4-36.4-44.1-47.6-70.6
					C33.9,309,28,280,28,250s5.9-59,17.4-86.4C56.6,137.2,72.6,113.4,93,93c20.4-20.4,44.1-36.4,70.6-47.6C191,33.9,220,28,250,28
					 M250,14C119.7,14,14,119.7,14,250c0,130.3,105.7,236,236,236c130.3,0,236-105.7,236-236C486,119.7,380.3,14,250,14L250,14z"/>
			</g>
		</g>
	</g>
	<g>
		<g>
			<path class="st1" d="M250,363c-62.3,0-113-50.7-113-113s50.7-113,113-113s113,50.7,113,113S312.3,363,250,363z"/>
		</g>
		<g>
			<path class="st3" d="M250,144c58.4,0,106,47.6,106,106s-47.6,106-106,106s-106-47.6-106-106S191.6,144,250,144 M250,130
				c-66.3,0-120,53.7-120,120c0,66.3,53.7,120,120,120s120-53.7,120-120C370,183.7,316.3,130,250,130L250,130z"/>
		</g>
	</g>
	<g>
		<g>
			<path class="st3" d="M330.4,99.7c-0.9,27.7-3.9,52.8-4.9,60.5c-4.5,0.4-9.4,1.1-14.7,2.1c-3.3-1.5-6.7-2.8-10.3-3.9
				c-0.6-0.2-1.3-0.3-1.9-0.5c-2.9-0.6-5.8-1.3-8.4-1.9c-11.9-2-23.6-1.5-34.5,1.3c-0.1,0.2-0.4,0.4-0.5,0.7
				c-1,4.1-11.7,18.7-19.3,28.5c-6.7,2.9-13.3,5.9-19.8,9.1c-1.3-0.7-3-1.4-5.2-1.5c-6.4-0.4-20.1-27.8-23.5-19
				c-2.4,6.2-19.4,39.2-29.2,58.2c-0.7,0.7-1.6,1.4-2.3,2.1c-1,1-1.7,2.1-2.6,3.1c-41.7,46.8-24.3,150.2-24.3,150.2
				s103.3,13.6,148.6-31.7c5.9-5.9,11.6-13.1,17-21c-2.4,3.5-4.9,6.8-7.3,9.9c7.4-9.3,14.8-20.6,21.7-33.1l7.3,0.6
				c0,0,8.4-27.5,10.8-37.1c0.6-1.3,1.2-2.5,1.7-3.8c9.9-8.3,23.9-20.4,28.4-26.3c0.6-6.9,0.8-6.8,0.8-13.9
				c-0.1-11.2-3.9-22.9-6.6-29.6c1.3-6.8,2.1-13.1,2.3-18.5c7.1-1.2,28.7-4.4,55.7-5.4c33.1-1.1,21.7-5.7,21.7-5.7
				s-37.3-24.7-55.7-39.5C360.9,115.3,336.2,78,336.2,78S331.6,66.6,330.4,99.7z"/>
		</g>
		<g>
			<path class="st4" d="M125.7,237.9c0,0,34.8-67,38.5-76.3c3.7-9.3,18.1,19.8,25,20.2c6.9,0.4,9.6,5,9.6,5l-10.3,3L125.7,237.9z"/>
		</g>
		<g>
			<path class="st4" d="M279.6,152.4l16.2-4.4c-3.7-1.7-7.4-3.2-11.4-4.4c-0.7-0.2-1.3-0.3-2-0.5c-3.1-0.7-6.2-1.3-9-2
				c-12.6-2.1-25.1-1.6-36.6,1.4c-0.2,0.3-0.4,0.5-0.5,0.8c-1.6,6.8-28.4,40.4-28.4,40.4L279.6,152.4z"/>
		</g>
		<g>
			<path class="st4" d="M332.3,201.8l-29.1,72.7c0,0,33.8-27.2,41.5-37.3c0.6-7.4,0.9-7.3,0.8-14.8c-0.1-16.1-7.6-33.3-9.3-36.9
				L332.3,201.8z"/>
		</g>
		<g>
			<path class="st4" d="M364.1,117.5c-15.7-19.6-42-59.2-42-59.2s-4.9-12.2-6.1,23.1c-1.2,35.3-5.5,67.1-5.5,67.1l18.2,4.4l9.3,18.9
				c0,0,26.9-5,62.1-6.2c35.2-1.2,23.1-6.1,23.1-6.1S383.7,133.1,364.1,117.5z"/>
		</g>
		<g>
			<path class="st5" d="M130.7,225.7c-1,1-1.8,2.3-2.8,3.3c1.6,0.2,3.2,0.5,4.6,0.9c0.1,0,0.1,0,0.1,0c0.8,0.2,1.6,0.4,2.3,0.6
				c34.5,7.1,67.4,24,94.3,50.8c18.3,18.3,32,39.4,41.1,61.9c43.2-54.2,85.6-173.8,65.8-193.6C316.6,130.1,178.8,177.6,130.7,225.7z
				"/>
		</g>
		<g>
			<path class="st6" d="M208.5,270.4l15.5,5.9c0,0,95.6-97.1,112.2-126.6C336.1,149.6,287.6,186.4,208.5,270.4z"/>
		</g>
		<g>
			<path class="st4" d="M270.3,343.2c-9.1-22.5-22.8-43.7-41.1-61.9c-26.8-26.8-59.7-43.7-94.3-50.8c-0.8-0.2-1.5-0.4-2.3-0.6
				c0,0,0,0-0.1,0c-1.5-0.3-3-0.7-4.6-0.9c-44.3,49.8-25.8,159.6-25.8,159.6s109.8,14.5,158-33.6c6.3-6.3,12.4-13.9,18-22.3
				C275.5,336.4,272.9,340,270.3,343.2z"/>
		</g>
		<g>
			<path class="st7" d="M152.7,289.2c9.4,0,17,7.6,17,17.1c0,9.4-7.6,17.1-17,17.1c-9.4,0-17-7.6-17-17.1
				C135.6,296.9,143.2,289.2,152.7,289.2z"/>
			<path class="st6" d="M152.7,323.4c-9.4,0-17.1-7.7-17.1-17.1c0-9.4,7.7-17.1,17.1-17.1c9.4,0,17.1,7.7,17.1,17.1
				C169.8,315.7,162.1,323.4,152.7,323.4z M152.7,289.3c-9.4,0-17,7.6-17,17s7.6,17,17,17c9.4,0,17-7.6,17-17S162,289.3,152.7,289.3
				z"/>
		</g>
		<g>
			<path class="st6" d="M146.1,301.9c2.9,0,5.3,2.4,5.3,5.3c0,2.9-2.4,5.3-5.3,5.3c-2.9,0-5.3-2.4-5.3-5.3
				C140.8,304.2,143.2,301.9,146.1,301.9z"/>
		</g>
		<g>
			<path class="st4" d="M312.8,266.4c-3.6,7.3-67.4,21.3-67.4,21.3l13.1,17.5l42.7,3.4C301.2,308.7,316.4,259.1,312.8,266.4z"/>
		</g>
	</g>
</g>
</svg>
