<svg id="Graphics" xmlns="http://www.w3.org/2000/svg" viewBox="0 0 500 500"><defs><style>.cls-1,.cls-9{fill:#1e4a54;}.cls-2,.cls-8{fill:#91d2e4;}.cls-3{fill:#eef3f3;}.cls-4{fill:#00727b;}.cls-5{fill:#9fd6e5;}.cls-6{fill:#f8fbfb;}.cls-7{fill:#f2c579;}.cls-8{opacity:0.3;}.cls-9{opacity:0.2;}.cls-10{fill:#e45c5e;}.cls-11{opacity:0.4;}.cls-12{fill:#1aa9d2;}.cls-13{fill:#ed8c7a;}</style></defs><title>act_transport_10_join_carpool</title><path class="cls-1" d="M250,14a236.07,236.07,0,0,1,91.86,453.46A236.06,236.06,0,0,1,158.14,32.54,234.51,234.51,0,0,1,250,14m0-14C111.93,0,0,111.93,0,250S111.93,500,250,500,500,388.07,500,250,388.07,0,250,0h0Z"/><path class="cls-2" d="M250,479A229,229,0,0,1,88.08,88.08,229,229,0,1,1,411.92,411.92,227.5,227.5,0,0,1,250,479Z"/><path class="cls-3" d="M250,28a222.06,222.06,0,0,1,86.4,426.56A222.06,222.06,0,0,1,163.6,45.44,220.57,220.57,0,0,1,250,28m0-14C119.67,14,14,119.67,14,250S119.67,486,250,486,486,380.33,486,250,380.33,14,250,14h0Z"/><circle class="cls-4" cx="148.75" cy="210.27" r="7.07"/><path class="cls-4" d="M155.37,215.51a8.38,8.38,0,0,1-13.24,0,11.26,11.26,0,0,0-4.69,9.14v23.65h22.62V224.64A11.26,11.26,0,0,0,155.37,215.51Z"/><circle class="cls-4" cx="120.47" cy="210.27" r="7.07"/><path class="cls-4" d="M127.09,215.51a8.38,8.38,0,0,1-13.24,0,11.26,11.26,0,0,0-4.69,9.14v23.65h22.62V224.64A11.26,11.26,0,0,0,127.09,215.51Z"/><circle class="cls-4" cx="177.03" cy="210.27" r="7.07"/><path class="cls-4" d="M183.65,215.51a8.38,8.38,0,0,1-13.24,0,11.26,11.26,0,0,0-4.69,9.14v23.65h22.62V224.64A11.26,11.26,0,0,0,183.65,215.51Z"/><path class="cls-1" d="M197.17,286.58v10a7.26,7.26,0,0,0,7.24,7.24h12.05a7.26,7.26,0,0,0,7.24-7.24v-10H197.17Z"/><path class="cls-1" d="M73.81,286.58v10A7.26,7.26,0,0,0,81,303.82H93.1a7.26,7.26,0,0,0,7.24-7.24v-10H73.81Z"/><path class="cls-4" d="M225.25,235.65l-19-11.17L194.91,246a5.14,5.14,0,0,1-4.14,2.51h-84a5.14,5.14,0,0,1-4.14-2.51L91.29,224.48l-19,11.17c-5.36,3.14-9.75,10.81-9.75,17v22.85a13.48,13.48,0,0,0,11.2,12.92l17,2.44a191.59,191.59,0,0,0,22.5,1.61h71.14a191.59,191.59,0,0,0,22.5-1.61l17-2.44A13.48,13.48,0,0,0,235,275.54V252.68C235,246.46,230.61,238.79,225.25,235.65Z"/><path class="cls-5" d="M83.75,268.62c-5.49,0-9.94-5.06-9.94-11.31S78.26,246,83.75,246s9.94,5.07,9.94,11.31-4.45,11.31-9.94,11.31"/><path class="cls-6" d="M85.8,257.31a3.65,3.65,0,1,1,3.65-3.65,3.65,3.65,0,0,1-3.65,3.65"/><path class="cls-5" d="M213.75,268.62c-5.49,0-9.94-5.06-9.94-11.31S208.26,246,213.75,246s9.94,5.07,9.94,11.31-4.45,11.31-9.94,11.31"/><path class="cls-6" d="M215.8,257.31a3.65,3.65,0,1,1,3.65-3.65,3.65,3.65,0,0,1-3.65,3.65"/><path class="cls-7" d="M112.88,276.72a0.5,0.5,0,0,0-.5.5v10.39a0.5,0.5,0,0,0,.5.5h71.74a0.5,0.5,0,0,0,.5-0.5V277.22a0.5,0.5,0,0,0-.5-0.5H112.88Z"/><path class="cls-1" d="M209,225.94l-10.92-29a11.3,11.3,0,0,0-7.54-6.37s-24.54-4.77-41.76-4.77S107,190.53,107,190.53a11.3,11.3,0,0,0-7.54,6.37l-10.92,29a3.55,3.55,0,0,0-.34,2.19c2.2,7.22,15.28,26,15.28,26,4.9,7.94,16.55,14.44,25.88,14.44h38.81c9.33,0,21-6.5,25.88-14.44,0,0,13.09-18.82,15.28-26A3.55,3.55,0,0,0,209,225.94Zm-11.69,3.31s-27.91,7.41-48.54,7.41-48.54-7.41-48.54-7.41a4.86,4.86,0,0,1-3.32-6.69l8.66-21.22a11.46,11.46,0,0,1,7.7-6.24s20.56-3.68,35.5-3.68,35.5,3.68,35.5,3.68a11.46,11.46,0,0,1,7.7,6.24l8.66,21.22A4.86,4.86,0,0,1,197.29,229.25Z"/><path class="cls-8" d="M113.25,195.1a11.46,11.46,0,0,0-7.7,6.24l-8.66,21.22a4.86,4.86,0,0,0,3.32,6.69s27.91,7.41,48.54,7.41,48.54-7.41,48.54-7.41a4.86,4.86,0,0,0,3.32-6.69L192,201.34a11.46,11.46,0,0,0-7.7-6.24s-20.56-3.68-35.5-3.68S113.25,195.1,113.25,195.1Z"/><path class="cls-9" d="M68.1,321.13c0,3.13,35.23,5.66,78.73,5.66s78.68-2.54,78.68-5.66-35.23-5.65-78.68-5.65S68.1,318,68.1,321.13"/><rect class="cls-1" x="205.22" y="220.09" width="10.96" height="2.99" transform="translate(-87.21 152.72) rotate(-33.43)"/><rect class="cls-1" x="210.71" y="213.07" width="14.14" height="8.48" rx="0.4" ry="0.4"/><rect class="cls-1" x="85.3" y="216.1" width="2.99" height="10.96" transform="translate(-145.94 171.96) rotate(-56.57)"/><rect class="cls-1" x="72.65" y="213.07" width="14.14" height="8.48" rx="0.4" ry="0.4"/><circle class="cls-4" cx="351.25" cy="210.27" r="7.07"/><path class="cls-4" d="M357.87,215.51a8.38,8.38,0,0,1-13.24,0,11.26,11.26,0,0,0-4.69,9.14v23.65h22.62V224.64A11.26,11.26,0,0,0,357.87,215.51Z"/><circle class="cls-4" cx="322.97" cy="210.27" r="7.07"/><path class="cls-4" d="M329.59,215.51a8.38,8.38,0,0,1-13.24,0,11.26,11.26,0,0,0-4.69,9.14v23.65h22.62V224.64A11.26,11.26,0,0,0,329.59,215.51Z"/><circle class="cls-4" cx="379.53" cy="210.27" r="7.07"/><path class="cls-4" d="M386.15,215.51a8.38,8.38,0,0,1-13.24,0,11.26,11.26,0,0,0-4.69,9.14v23.65h22.62V224.64A11.26,11.26,0,0,0,386.15,215.51Z"/><path class="cls-1" d="M399.67,286.58v10a7.26,7.26,0,0,0,7.24,7.24H419a7.26,7.26,0,0,0,7.24-7.24v-10H399.67Z"/><path class="cls-1" d="M276.31,286.58v10a7.26,7.26,0,0,0,7.24,7.24H295.6a7.26,7.26,0,0,0,7.24-7.24v-10H276.31Z"/><path class="cls-4" d="M427.75,235.65l-19-11.17L397.41,246a5.14,5.14,0,0,1-4.14,2.51h-84a5.14,5.14,0,0,1-4.14-2.51l-11.29-21.53-19,11.17c-5.36,3.14-9.75,10.81-9.75,17v22.85a13.48,13.48,0,0,0,11.2,12.92l17,2.44a191.59,191.59,0,0,0,22.5,1.61h71.14a191.59,191.59,0,0,0,22.5-1.61l17-2.44a13.48,13.48,0,0,0,11.2-12.92V252.68C437.5,246.46,433.11,238.79,427.75,235.65Z"/><path class="cls-5" d="M286.25,268.62c-5.49,0-9.94-5.06-9.94-11.31S280.76,246,286.25,246s9.94,5.07,9.94,11.31-4.45,11.31-9.94,11.31"/><path class="cls-6" d="M288.3,257.31a3.65,3.65,0,1,1,3.65-3.65,3.65,3.65,0,0,1-3.65,3.65"/><path class="cls-5" d="M416.25,268.62c-5.49,0-9.94-5.06-9.94-11.31S410.76,246,416.25,246s9.94,5.07,9.94,11.31-4.45,11.31-9.94,11.31"/><path class="cls-6" d="M418.3,257.31a3.65,3.65,0,1,1,3.65-3.65,3.65,3.65,0,0,1-3.65,3.65"/><path class="cls-7" d="M315.38,276.72a0.5,0.5,0,0,0-.5.5v10.39a0.5,0.5,0,0,0,.5.5h71.74a0.5,0.5,0,0,0,.5-0.5V277.22a0.5,0.5,0,0,0-.5-0.5H315.38Z"/><path class="cls-1" d="M411.47,225.94l-10.92-29a11.3,11.3,0,0,0-7.54-6.37s-24.54-4.77-41.76-4.77-41.76,4.77-41.76,4.77a11.3,11.3,0,0,0-7.54,6.37l-10.92,29a3.55,3.55,0,0,0-.34,2.19c2.2,7.22,15.28,26,15.28,26,4.9,7.94,16.55,14.44,25.88,14.44h38.81c9.33,0,21-6.5,25.88-14.44,0,0,13.09-18.82,15.28-26A3.55,3.55,0,0,0,411.47,225.94Zm-11.69,3.31s-27.91,7.41-48.54,7.41-48.54-7.41-48.54-7.41a4.86,4.86,0,0,1-3.32-6.69L308,201.34a11.46,11.46,0,0,1,7.7-6.24s20.56-3.68,35.5-3.68,35.5,3.68,35.5,3.68a11.46,11.46,0,0,1,7.7,6.24l8.66,21.22A4.86,4.86,0,0,1,399.79,229.25Z"/><path class="cls-8" d="M315.75,195.1a11.46,11.46,0,0,0-7.7,6.24l-8.66,21.22a4.86,4.86,0,0,0,3.32,6.69s27.91,7.41,48.54,7.41,48.54-7.41,48.54-7.41a4.86,4.86,0,0,0,3.32-6.69l-8.66-21.22a11.46,11.46,0,0,0-7.7-6.24s-20.56-3.68-35.5-3.68S315.75,195.1,315.75,195.1Z"/><path class="cls-9" d="M270.6,321.13c0,3.13,35.23,5.66,78.73,5.66S428,324.26,428,321.13s-35.23-5.65-78.68-5.65S270.6,318,270.6,321.13"/><rect class="cls-1" x="407.72" y="220.09" width="10.96" height="2.99" transform="translate(-53.71 264.27) rotate(-33.43)"/><rect class="cls-1" x="413.21" y="213.07" width="14.14" height="8.48" rx="0.4" ry="0.4"/><rect class="cls-1" x="287.8" y="216.1" width="2.99" height="10.96" transform="translate(-54.99 340.97) rotate(-56.57)"/><rect class="cls-1" x="275.15" y="213.07" width="14.14" height="8.48" rx="0.4" ry="0.4"/><path class="cls-10" d="M255,102.91h58.79v22.88H302.35V148.4H279.73V125.79H255a32.5,32.5,0,0,1-4.86,9.18,33.61,33.61,0,0,1-16.63,11.77,34.41,34.41,0,0,1-10.71,1.66,33.58,33.58,0,0,1-13.3-2.66,33.66,33.66,0,0,1-18.09-18,34.58,34.58,0,0,1,0-26.6,35,35,0,0,1,7.25-10.84,33.84,33.84,0,0,1,24.14-10A34.48,34.48,0,0,1,233.51,82a34,34,0,0,1,9.31,4.66,33.07,33.07,0,0,1,7.32,7.18A34.09,34.09,0,0,1,255,102.91ZM222.8,125.79a11.07,11.07,0,0,0,8-3.39,10.89,10.89,0,0,0,3.46-8,11.07,11.07,0,0,0-3.39-8,10.9,10.9,0,0,0-8-3.46,10.53,10.53,0,0,0-7.85,3.46,11.4,11.4,0,0,0-.07,16A10.56,10.56,0,0,0,222.8,125.79Z"/><g class="cls-11"><path class="cls-12" d="M81.4,364a204.51,204.51,0,0,0,337.2,0H81.4Z"/></g><path class="cls-13" d="M215,106.37a10.54,10.54,0,0,1,7.85-3.46,10.9,10.9,0,0,1,8,3.46,11.07,11.07,0,0,1,3.39,8h79.54V102.91H255a34.08,34.08,0,0,0-4.85-9.11,33.07,33.07,0,0,0-7.32-7.18A34,34,0,0,0,233.51,82a34.49,34.49,0,0,0-10.71-1.66,33.84,33.84,0,0,0-24.14,10,35,35,0,0,0-7.25,10.84,33.12,33.12,0,0,0-2.66,13.23h22.88A11.18,11.18,0,0,1,215,106.37Z"/></svg>