<?xml version="1.0" encoding="utf-8"?>
<!-- Generator: Adobe Illustrator 20.0.0, SVG Export Plug-In . SVG Version: 6.00 Build 0)  -->
<svg version="1.1" id="Layer_1" xmlns="http://www.w3.org/2000/svg" xmlns:xlink="http://www.w3.org/1999/xlink" x="0px" y="0px"
	 viewBox="0 0 361.1 360.7" enable-background="new 0 0 361.1 360.7" xml:space="preserve">
<g>
	<g>
		<path fill="#00838F" d="M180.8,358.4c-15.6,0-31.2-2.1-46.7-6.2c-45.8-12.4-84.1-41.9-107.7-83C2.8,227.9-3.4,180,9,134.2l2.4,0.7
			L9,134.2C21.4,88.4,50.9,50.1,92,26.5C133.2,2.9,181.1-3.3,226.9,9.1S311,51,334.6,92.1c23.6,41.2,29.8,89.1,17.4,134.9
			s-41.9,84.1-83,107.7C241.7,350.3,211.5,358.4,180.8,358.4z M180.3,7.8c-29.8,0-59.2,7.8-85.7,23c-40,23-68.7,60.1-80.7,104.7l0,0
			c-12,44.5-6,91.1,16.9,131.1s60.1,68.7,104.7,80.7c44.5,12,91.1,6,131.1-16.9c40-23,68.7-60.1,80.7-104.7
			c12-44.5,6-91.1-16.9-131.1c-23-40-60.1-68.7-104.7-80.7C210.6,9.8,195.4,7.8,180.3,7.8z"/>
	</g>
	<g>
		<path fill="#00838F" d="M180.5,361.1c-15.8,0-31.7-2.1-47.1-6.3C37.3,328.9-19.7,229.5,6.3,133.4C18.9,87,48.8,48.1,90.7,24.1
			s90.5-30.4,137-17.8s85.4,42.6,109.4,84.4s30.3,90.5,17.7,137C333.6,306.3,261.9,361.1,180.5,361.1z M180.4,5
			c-30.3,0-60.2,7.9-87.2,23.4C52.5,51.8,23.3,89.6,11.1,134.8c-25.3,93.4,30.2,190,123.6,215.3c15,4.1,30.4,6.1,45.8,6.1
			c79.1,0,148.8-53.3,169.5-129.7c12.2-45.3,6.1-92.6-17.2-133.2c-23.3-40.7-61.1-69.8-106.4-82C211.2,7,195.7,5,180.4,5z
			 M180.5,355.5L180.5,355.5c-15.4,0-30.7-2-45.6-6.1c-92.3-25-147.3-119.7-123.8-212l-0.3-0.1l1.3-4.8l0.3,0.1
			C38.6,40.9,133.9-13.2,226.2,11.8c45.1,12.2,82.7,41.2,106,81.7c23.3,40.5,29.3,87.6,17.2,132.7
			C328.8,302.3,259.3,355.5,180.5,355.5z M16.6,136.2c-24.5,90.4,29.2,183.9,119.6,208.3c14.5,3.9,29.4,5.9,44.3,5.9
			c76.6,0,144-51.6,164-125.5c11.8-43.8,5.9-89.6-16.7-128.9s-59.2-67.5-103-79.4C134.5-7.8,41,45.8,16.6,136.2z"/>
	</g>
</g>
<circle fill="#B2EBF2" stroke="#4DD0E1" stroke-width="5" stroke-miterlimit="10" cx="180.7" cy="180.5" r="169.4"/>
<path fill="none" stroke="#F4F7F9" stroke-width="2" stroke-miterlimit="10" d="M87.3,226.7c-4.4-1.3-31-9.5-44.2-36.7
	s-3.2-52.7-0.8-58.8c16-40.6,60.7-50.7,64.6-51.4"/>
<path fill="#F4F7F9" d="M99.4,60.7c1.4,6.6,3.3,14,6,21.7c2.7,8,4.6,12.4,7.6,18.9c12.8-2.8,25.8-5.6,38.6-8.5
	c-3.6-7-6-11.9-9.1-20.4c-2.8-7.2-5-14.1-6.9-20.4C123.5,54.9,111.5,57.8,99.4,60.7z"/>
<line fill="none" stroke="#F4F7F9" stroke-width="2" stroke-miterlimit="10" x1="138.1" y1="64.8" x2="156.3" y2="60"/>
<line fill="none" stroke="#F4F7F9" stroke-width="2" stroke-miterlimit="10" x1="143.2" y1="80.9" x2="161.4" y2="76.2"/>
<path fill="#0097A7" stroke="#FFFFFF" stroke-miterlimit="10" d="M85.6,208.5c1.9-6.6,6.1-10.7,8-12.3c-0.5-1.3-1.3-3.6-1.1-6.6
	c0.1-2.4,1-4.3,1.3-5c2.2-4.6,6.3-6.5,7.6-7c5-11.3,14.2-26.5,31.7-33c1.3-0.5,2.2-0.8,3.7-1.3c8.9-2.8,20.1-4.8,48.6-3.4
	c11,0.5,16.5,0.8,19.9,1.7c12.2,3.3,20.2,10.3,26.5,15.9c5.6,4.8,13.6,12.9,20.7,25c7.1,0.4,12.7,0.6,15.9,0.8
	c13.7,0.6,32.9,1.4,35.9,7.4c0.5,1,1,2.2,1,2.2c1.3,3.3,1.4,6.3,1.3,8.3c1.3,4.6,2.7,11.6,2,19.9c-0.8,11.3-4.6,19.8-7.2,24.5
	c-67.9-1.3-135.7-2.4-203.6-3.7c-1.1-1.4-9.4-12.4-10.7-15.2C86.3,224.2,83.2,217.1,85.6,208.5z"/>
<circle fill="#CFD8DC" cx="125.9" cy="244.8" r="19.5"/>
<circle fill="#0097A7" cx="126.1" cy="245.2" r="9.1"/>
<circle fill="#CFD8DC" cx="258.1" cy="244.8" r="19.5"/>
<circle fill="#0097A7" cx="258.1" cy="245.2" r="9.1"/>
<path fill="#E1F5FE" stroke="#FFFFFF" stroke-miterlimit="10" d="M180.5,153.4c0.1,10.4,0.3,20.8,0.4,31.2l60.4-0.1
	c-3-6.1-6.5-10.4-9-13.3c-3-3.3-11.2-12.1-24.2-15.9c-5.2-1.5-9.9-1.8-13.8-2.2C188.5,152.9,184,153.2,180.5,153.4z"/>
<path fill="#E1F5FE" stroke="#FFFFFF" stroke-miterlimit="10" d="M169.7,153.4c-0.1,10.4-0.3,20.8-0.3,31.2l-49.4-0.1
	c-0.1-2.7,0.1-7.2,2.3-12.3c0.5-1.1,3.2-7.4,9.6-12.2c7.9-6,16.8-6.5,25.8-7C162.8,152.9,166.9,153.2,169.7,153.4z"/>
<path fill="#CFD8DC" stroke="#FFFFFF" stroke-width="0.3" stroke-miterlimit="10" d="M101.7,177.7c1.8,1.1-0.9,8.5-2.4,11.8
	c-1.3,2.9-3.8,7.4-5.1,7l0,0c-1.4-0.6-1.5-3.4-1.7-3.9C92,187.5,94,184,94,184C96.1,180.1,100.2,176.8,101.7,177.7z"/>
<path fill="#FFFFFF" d="M169.6,168.9c0,5.2-0.1,10.5-0.1,15.7c-16.5,0-32.9,0-49.4-0.1C136.6,179.3,153.1,174.1,169.6,168.9z"/>
<path fill="#FFFFFF" d="M213,157.2c-10.8,3.2-21.6,6.5-32.4,9.6c0.1,5.8,0.1,11.8,0.3,17.6c20.2,0,40.2,0,60.4-0.1
	c-1.5-3.3-3.7-7-6.7-10.8C229.9,167.9,222.8,161,213,157.2z"/>
<path fill="#FFFFFF" d="M99.8,181.2c0.1-0.1,0.4-0.3,0.6,0c0.1,0.1,0.3,0.4,0,0.6c-0.1,0.1-0.4,0.3-0.6,0
	C99.7,181.7,99.7,181.3,99.8,181.2z"/>
<path fill="#FFFFFF" d="M99.3,179.3c0-0.4,0.3-0.6,0.6-0.6c0.4,0,0.6,0.3,0.6,0.6s-0.3,0.6-0.6,0.6
	C99.5,179.9,99.3,179.7,99.3,179.3z"/>
<path fill="#FFFFFF" d="M97.2,181.1c0-0.4,0.3-0.6,0.6-0.6c0.4,0,0.6,0.3,0.6,0.6s-0.3,0.6-0.6,0.6
	C97.5,181.7,97.2,181.5,97.2,181.1z"/>
<path fill="#FFFFFF" d="M126.6,179.9c0-0.3,0.3-0.4,0.5-0.4c0.3,0,0.4,0.3,0.4,0.5c0,0.3-0.3,0.4-0.5,0.4
	C126.7,180.3,126.6,180.1,126.6,179.9z"/>
<path fill="#FFFFFF" d="M125.2,178.5c-0.3-0.3-0.1-0.6,0.1-0.9c0.3-0.3,0.8-0.1,0.9,0.1c0.3,0.3,0.1,0.6-0.1,0.9
	C125.8,178.9,125.3,178.8,125.2,178.5z"/>
<path fill="#FFFFFF" d="M122.9,181.7c-0.1-0.1-0.1-0.4,0.1-0.5c0.3-0.1,0.4-0.1,0.5,0.1c0.1,0.1,0.1,0.4-0.1,0.5
	C123.3,182,123,182,122.9,181.7z"/>
<path fill="#FFFFFF" d="M126.7,176.6c0-0.3,0.3-0.4,0.5-0.4c0.3,0,0.4,0.3,0.4,0.5c0,0.3-0.3,0.4-0.5,0.4
	C126.8,177.2,126.6,176.9,126.7,176.6z"/>
<path fill="#FFFFFF" d="M124.4,175.5c-0.3-0.3-0.1-0.6,0.1-0.9c0.3-0.3,0.8-0.1,0.9,0.1c0.3,0.3,0.1,0.6-0.1,0.9
	C125,175.9,124.5,175.9,124.4,175.5z"/>
<path fill="#FFFFFF" d="M122.6,178.5c-0.3-0.3-0.1-0.6,0.1-0.9c0.3-0.3,0.8-0.1,0.9,0.1c0.3,0.3,0.1,0.6-0.1,0.9
	S122.9,178.8,122.6,178.5z"/>
<ellipse fill="#B0BEC5" cx="192.3" cy="276.2" rx="85.2" ry="4.3"/>
<path fill="#FFFFFF" d="M124.3,180.3c-0.1-0.1-0.1-0.4,0.1-0.5c0.3-0.1,0.4-0.1,0.5,0.1c0.1,0.1,0.1,0.4-0.1,0.5
	C124.7,180.6,124.4,180.6,124.3,180.3z"/>
<path fill="#FFFFFF" d="M126.4,174.2c-0.1-0.1-0.1-0.4,0.1-0.5c0.1-0.1,0.4-0.1,0.5,0.1c0.1,0.1,0.1,0.4-0.1,0.5
	C126.7,174.5,126.6,174.4,126.4,174.2z"/>
<path fill="#FFFFFF" d="M128,172.7c-0.1-0.1-0.1-0.4,0.1-0.5c0.1-0.1,0.4-0.1,0.5,0.1c0.1,0.1,0.1,0.4-0.1,0.5S128.1,173,128,172.7z
	"/>
<path fill="#FFFFFF" d="M184.6,163.4c-0.3,0.1-0.4,0-0.5-0.1s0-0.5,0.3-0.5s0.4,0,0.5,0.1S184.7,163.3,184.6,163.4z"/>
<path fill="#FFFFFF" d="M183.3,161.8c-0.3,0.1-0.4,0-0.5-0.1c-0.1-0.3,0-0.5,0.3-0.5s0.4,0,0.5,0.1
	C183.7,161.4,183.6,161.7,183.3,161.8z"/>
<path fill="#FFFFFF" d="M187.4,158.5c-0.1-0.3,0-0.5,0.3-0.5c0.3-0.1,0.5,0,0.5,0.3c0.1,0.3,0,0.5-0.3,0.5
	C187.8,158.9,187.5,158.7,187.4,158.5z"/>
<path fill="#FFFFFF" d="M185.5,158.1c-0.4-0.1-0.5-0.5-0.4-0.9s0.5-0.5,0.9-0.4s0.5,0.5,0.4,0.9
	C186.2,158.1,185.9,158.2,185.5,158.1z"/>
<path fill="#FFFFFF" d="M185.3,162c-0.3-0.1-0.3-0.4-0.3-0.5c0.1-0.3,0.4-0.3,0.5-0.3c0.3,0.1,0.3,0.4,0.3,0.5
	C185.7,162,185.5,162.2,185.3,162z"/>
<path fill="#FFFFFF" d="M185.9,155.7c-0.1-0.3,0-0.5,0.3-0.5c0.3-0.1,0.5,0,0.5,0.3c0.1,0.3,0,0.5-0.3,0.5
	C186.2,156.1,186,156,185.9,155.7z"/>
<path fill="#FFFFFF" d="M183.3,156c-0.4-0.1-0.5-0.5-0.4-0.9s0.5-0.5,0.9-0.4s0.5,0.5,0.4,0.9C184.1,156,183.7,156.1,183.3,156z"/>
<path fill="#FFFFFF" d="M183.3,159.4c-0.4-0.1-0.5-0.5-0.4-0.9s0.5-0.5,0.9-0.4s0.5,0.5,0.4,0.9
	C184.1,159.4,183.7,159.5,183.3,159.4z"/>
<path fill="#FFFFFF" d="M185.7,160.1c-0.3-0.1-0.3-0.4-0.3-0.5c0.1-0.3,0.4-0.3,0.5-0.3s0.3,0.4,0.3,0.5
	C186.2,160.1,186,160.1,185.7,160.1z"/>
</svg>
