<?xml version="1.0" encoding="utf-8"?>
<!-- Generator: Adobe Illustrator 20.0.0, SVG Export Plug-In . SVG Version: 6.00 Build 0)  -->
<svg version="1.1" id="Graphics" xmlns="http://www.w3.org/2000/svg" xmlns:xlink="http://www.w3.org/1999/xlink" x="0px" y="0px"
	 viewBox="0 0 500 500" enable-background="new 0 0 500 500" xml:space="preserve">
<g>
	<g>
		<path fill="#366842" d="M250,14c31.866,0,62.771,6.238,91.857,18.54c28.101,11.886,53.341,28.904,75.02,50.583
			s38.697,46.919,50.583,75.02C479.762,187.229,486,218.134,486,250s-6.238,62.771-18.54,91.857
			c-11.886,28.101-28.904,53.341-50.583,75.02c-21.678,21.678-46.919,38.697-75.02,50.583C312.771,479.762,281.866,486,250,486
			s-62.771-6.238-91.857-18.54c-28.101-11.886-53.341-28.904-75.02-50.583c-21.678-21.678-38.697-46.919-50.583-75.02
			C20.238,312.771,14,281.866,14,250s6.238-62.771,18.54-91.857c11.886-28.101,28.904-53.341,50.583-75.02
			c21.679-21.678,46.919-38.697,75.02-50.583C187.229,20.238,218.134,14,250,14 M250,0C111.93,0,0,111.93,0,250s111.93,250,250,250
			s250-111.93,250-250S388.07,0,250,0L250,0z"/>
	</g>
	<g>
		<path fill="#EEF3F3" d="M250,479c-61.165,0-118.67-23.821-161.924-67.075C44.821,368.67,21,311.165,21,250
			c0-61.164,23.821-118.67,67.076-161.924S188.836,21,250,21c61.165,0,118.67,23.821,161.925,67.076
			C455.179,131.33,479,188.835,479,250s-23.821,118.67-67.075,161.925C368.67,455.179,311.165,479,250,479z"/>
		<path fill="#8CB61D" d="M250,28c29.974,0,59.045,5.868,86.405,17.441c26.434,11.181,50.177,27.191,70.57,47.584
			c20.393,20.393,36.403,44.137,47.584,70.57C466.132,190.956,472,220.026,472,250c0,29.974-5.868,59.045-17.441,86.405
			c-11.181,26.434-27.191,50.177-47.584,70.57c-20.393,20.393-44.136,36.403-70.57,47.584C309.045,466.132,279.974,472,250,472
			c-29.974,0-59.044-5.868-86.404-17.441c-26.434-11.181-50.177-27.191-70.57-47.584c-20.393-20.393-36.403-44.137-47.584-70.57
			C33.868,309.045,28,279.974,28,250c0-29.974,5.868-59.044,17.441-86.404c11.181-26.434,27.191-50.177,47.584-70.57
			c20.393-20.393,44.137-36.403,70.57-47.584C190.956,33.868,220.026,28,250,28 M250,14C119.669,14,14,119.669,14,250
			c0,130.332,105.669,236,236,236c130.332,0,236-105.668,236-236C486,119.669,380.332,14,250,14L250,14z"/>
	</g>
	<path fill="#B3C589" d="M312.887,188.893l-31.1-13.096c-6.695-2.819-14.438-10.62-17.208-17.336l-20.828-50.504
		c2.58-1.104,4.01-3.998,3.217-6.761l-9.021-31.436c-0.859-2.992-4.01-4.738-7.002-3.879L194.08,76.46
		c-2.992,0.859-4.738,4.01-3.879,7.002l9.021,31.436c0.793,2.763,3.541,4.458,6.313,4.026l9.122,53.863
		c1.213,7.162-1.216,17.882-5.397,23.823l-19.423,27.595c-4.181,5.94-5.725,16.44-3.431,23.332l62.812,188.689
		c2.294,6.892,9.884,10.892,16.867,8.888l99.297-28.495c6.982-2.004,11.297-9.42,9.587-16.48l-46.802-193.283
		C326.458,199.796,319.582,191.713,312.887,188.893z"/>
	
		<rect x="228.425" y="24.221" transform="matrix(0.7071 0.7071 -0.7071 0.7071 250 -103.5534)" fill="#8CB61D" width="43.151" height="451.557"/>
	<path fill="#1C9283" d="M297.887,181.893l-31.1-13.096c-6.695-2.819-14.438-10.62-17.208-17.336l-20.828-50.504
		c2.58-1.104,4.01-3.998,3.217-6.761l-9.021-31.436c-0.859-2.992-4.01-4.738-7.002-3.879L179.08,69.46
		c-2.992,0.859-4.738,4.01-3.879,7.002l9.021,31.436c0.793,2.763,3.541,4.458,6.313,4.026l9.122,53.863
		c1.213,7.162-1.216,17.882-5.397,23.823l-19.423,27.595c-4.181,5.94-5.725,16.44-3.431,23.332l62.812,188.689
		c2.294,6.892,9.884,10.892,16.867,8.888l99.297-28.495c6.982-2.004,11.297-9.42,9.587-16.48l-46.802-193.283
		C311.458,192.796,304.582,184.713,297.887,181.893z"/>
	<path fill="#12AD9C" d="M197.513,64.17l-18.433,5.29c-2.992,0.859-4.738,4.01-3.879,7.002l9.021,31.436
		c0.793,2.763,3.541,4.458,6.313,4.026l9.122,53.863c1.213,7.162-1.216,17.882-5.397,23.823l-19.423,27.595
		c-4.181,5.94-5.725,16.44-3.431,23.332l62.812,188.689c2.294,6.892,9.884,10.892,16.867,8.888l49.649-14.248L197.513,64.17z"/>
	
		<ellipse transform="matrix(0.9612 -0.2758 0.2758 0.9612 -73.1221 85.081)" fill="#EFA859" cx="265.904" cy="302.491" rx="46.226" ry="78.284"/>
	
		<ellipse transform="matrix(0.9612 -0.2758 0.2758 0.9612 -73.1221 85.081)" fill="#F2C579" cx="265.904" cy="302.491" rx="39.151" ry="66.302"/>
</g>
<g>
</g>
<g>
</g>
<g>
</g>
<g>
</g>
<g>
</g>
<g>
</g>
<g>
</g>
<g>
</g>
<g>
</g>
<g>
</g>
<g>
</g>
<g>
</g>
<g>
</g>
<g>
</g>
<g>
</g>
</svg>
