<?xml version="1.0" encoding="utf-8"?>
<!-- Generator: Adobe Illustrator 20.1.0, SVG Export Plug-In . SVG Version: 6.00 Build 0)  -->
<svg version="1.1" id="Layer_1" xmlns="http://www.w3.org/2000/svg" xmlns:xlink="http://www.w3.org/1999/xlink" x="0px" y="0px"
	 viewBox="0 0 595.3 841.9" style="enable-background:new 0 0 595.3 841.9;" xml:space="preserve">
<style type="text/css">
	.st0{fill:#303F9F;stroke:#303F9F;stroke-width:2.8346;stroke-miterlimit:10;}
	.st1{fill:#C5CAE9;}
	.st2{fill:none;stroke:#9FA8DA;stroke-width:2.8346;stroke-miterlimit:10;}
	.st3{fill:#90A4AE;}
	.st4{fill:#AFBEC5;stroke:#90A4AE;stroke-width:2.8346;stroke-miterlimit:10;}
	.st5{fill:#CFD8DC;}
	.st6{fill:#AFBEC5;}
	.st7{fill:#CFD8DC;stroke:#90A4AE;stroke-width:2.8346;stroke-miterlimit:10;}
	.st8{fill:#CFD8DC;stroke:#CFD8DC;stroke-miterlimit:10;}
	.st9{fill:none;stroke:#90A4AE;stroke-miterlimit:10;}
</style>
<circle class="st0" cx="348.8" cy="269" r="103.5"/>
<path class="st1" d="M364,169.8c-10.1,65.9-20,131.6-30.1,197.5c-5.4-0.8-49.6-8.3-72.8-49.6c-19.4-34.2-10.9-68.1-9-75
	c2.1-7,14.4-44.5,52.9-63.5C330.2,166.6,354,168.4,364,169.8z"/>
<circle class="st2" cx="349.1" cy="268.5" r="100.4"/>
<path class="st3" d="M289.4,325.4c0.3-7.3,19.7-14.3,36-14c19.2,0.3,40.5,10.1,39.9,17.9c-0.5,8-24.6,14.5-44.6,11.7
	C307.3,339.4,289.1,332.7,289.4,325.4z"/>
<path class="st4" d="M282.4,318.4c0.3-6.7,18.2-13.2,33.2-13c17.6,0.3,37.3,9.3,36.8,16.6c-0.5,7.3-22.6,13.2-41,10.9
	C298.7,331.4,282.1,325.2,282.4,318.4z"/>
<path class="st5" d="M276.9,311.7c0.3-7.8,20.5-15,37.9-14.8c20.2,0.3,42.3,10.6,41.7,18.9c-0.5,8.3-25.7,15-46.7,12.4
	C295.9,326.2,276.9,319.2,276.9,311.7z"/>
<path class="st6" d="M284.7,300.8c0.3-7.8,20.5-15,37.9-14.8c20.2,0.3,42.3,10.6,41.7,18.9c-0.5,8.3-25.7,15-46.7,12.4
	C303.4,315.3,284.5,308.3,284.7,300.8z"/>
<path class="st3" d="M280,290.4c0.3-7,19.2-13.5,35.5-13.2c18.9,0.3,39.9,9.6,39.2,16.9c-0.5,7.5-24.1,13.7-43.8,11.2
	C297.7,303.7,280,297.2,280,290.4z"/>
<path class="st7" d="M273,284.2c0.3-6.7,18.2-13.2,33.2-13c17.6,0.3,37.3,9.3,36.8,16.6c-0.5,7.3-22.6,13.2-41,10.9
	C289.6,296.9,272.8,290.7,273,284.2z"/>
<path class="st6" d="M267.9,277.2c0.3-7.8,20.5-15,37.9-14.8c20.2,0.3,42.3,10.6,41.7,18.9c-0.5,8.3-25.7,15-46.7,12.4
	C286.5,292,267.6,285,267.9,277.2z"/>
<path class="st6" d="M275.4,266.3c0.3-7.8,20.5-15,37.9-14.8c20.2,0.3,42.3,10.6,41.7,18.9c-0.5,8.3-25.7,15-46.7,12.4
	C294,281.1,275.1,274.1,275.4,266.3z"/>
<path class="st3" d="M296.9,255.9c0.3-6.7,18.2-13.2,33.2-13c17.6,0.3,37.3,9.3,36.8,16.6c-0.5,7.3-22.6,13.2-41,10.9
	C313.5,268.7,296.9,262.4,296.9,255.9z"/>
<path class="st4" d="M289.9,250c0.3-6.7,18.2-13.2,33.2-13c17.6,0.3,37.3,9.3,36.8,16.6c-0.5,7.3-22.6,13.2-41,10.9
	C306.5,262.7,289.6,256.5,289.9,250z"/>
<path class="st6" d="M284.7,243c0.3-7.8,20.5-15,37.9-14.8c20.2,0.3,42.3,10.6,41.7,18.9c-0.5,8.3-25.7,15-46.7,12.4
	C303.4,257.8,284.5,250.5,284.7,243z"/>
<path class="st3" d="M292.2,232.1c0.3-7.8,20.5-15,37.9-14.8c20.2,0.3,42.3,10.6,41.7,18.9c-0.5,8.3-25.7,15-46.7,12.4
	C310.9,246.9,292,239.6,292.2,232.1z"/>
<path class="st8" d="M287.6,221.5c0.3-6.7,18.2-13.2,33.2-13c17.6,0.3,37.3,9.3,36.8,16.6c-0.5,7.3-22.6,13.2-41,10.9
	C304.2,234.4,287.6,228.2,287.6,221.5z"/>
<path class="st6" d="M279.8,215c0.3-7.8,20.5-15,37.9-14.8c20.2,0.3,42.3,10.6,41.7,18.9c-0.5,8.3-25.7,15-46.7,12.4
	C298.5,229.8,279.5,222.5,279.8,215z"/>
<path class="st5" d="M287.3,204.1c0.3-7.8,20.5-15,37.9-14.8c20.2,0.3,42.3,10.6,41.7,18.9c-0.5,8.3-25.7,15-46.7,12.4
	C306,218.9,287,211.6,287.3,204.1z"/>
<g>
	<path class="st9" d="M414.6,306.3c0.8,0,8.3,1.3,8.8,3.9c0.3,2.1-4.4,5.2-11.7,7"/>
	<path class="st9" d="M410.5,279.5c0.8,0,8.6-0.5,9.3,2.1c0.8,2.1-3.4,6-10.1,9.3"/>
	<path class="st9" d="M406.3,265.5c7.3-2.3,11.7-5.4,11.4-7.5c-0.5-2.6-8-3.4-8.8-3.4"/>
	<path class="st9" d="M404.8,228.5c0.8,0,8.3-1,9.6,1.3c0.8,2.1-2.9,6.2-9.3,10.1"/>
	<polygon class="st6" points="370.8,223 406.1,212.6 406.6,226.1 407.6,255.4 391.8,260.1 	"/>
	<polygon class="st3" points="377,241.4 413.6,239.6 411,252.6 405.3,281.4 388.7,282.4 	"/>
	<polygon class="st6" points="377,271.8 412.8,264 412.3,277.2 411.3,306.5 395.2,310.1 	"/>
	<polygon class="st3" points="383.8,291.7 420.3,291.7 417.2,304.7 410,333.2 393.4,333.2 	"/>
</g>
</svg>
