<svg id="Graphics" xmlns="http://www.w3.org/2000/svg" viewBox="0 0 500 500"><defs><style>.cls-1{fill:#564677;}.cls-2{fill:#eef3f3;}.cls-3,.cls-5{fill:#ab8eb8;}.cls-4,.cls-8{fill:#d8e3e2;}.cls-4,.cls-5{fill-rule:evenodd;}.cls-6{fill:#bbced0;}.cls-7,.cls-9{fill:#1e4a54;}.cls-9{opacity:0.4;}.cls-10{fill:#fff;opacity:0.5;}</style></defs><title>act_consumption_09_sport_used</title><path class="cls-1" d="M250.33,14a236.07,236.07,0,0,1,91.86,453.46A236.06,236.06,0,0,1,158.47,32.54,234.51,234.51,0,0,1,250.33,14m0-14C112.26,0,.33,111.93.33,250s111.93,250,250,250,250-111.93,250-250S388.4,0,250.33,0h0Z" transform="translate(-0.33)"/><path class="cls-2" d="M250.33,479A229,229,0,0,1,88.4,88.08,229,229,0,1,1,412.25,411.92,227.5,227.5,0,0,1,250.33,479Z" transform="translate(-0.33)"/><path class="cls-3" d="M250.33,28a222.06,222.06,0,0,1,86.4,426.56A222.06,222.06,0,0,1,163.92,45.44,220.58,220.58,0,0,1,250.33,28m0-14c-130.33,0-236,105.67-236,236S120,486,250.33,486s236-105.67,236-236S380.66,14,250.33,14h0Z" transform="translate(-0.33)"/><path class="cls-4" d="M274.22,165.08c-2.75,4.54-5.55,9.36-8.38,14.2a35.16,35.16,0,0,0-3.81,7.51,24.62,24.62,0,0,0-1.06,9.93,14.43,14.43,0,0,0,6.26,10.71,27,27,0,0,0,3.38,2.21c5,2.59,12.31,3.07,19.66,2.39,5.55-9.27,10.94-18.7,16.35-28.12C295.84,177.66,284.94,171.17,274.22,165.08Z" transform="translate(-0.33)"/><path class="cls-4" d="M325.37,253.86q0,4.07,0,8.14a0.43,0.43,0,0,0,.35-0.21c1.74-2.09,3.41-4.6,5.12-6.82,5.51-7.15,11-14.65,16.54-21.77-7.3-9.61-14.59-19.58-21.88-29q0,5.93,0,11.87L289.77,216a86.24,86.24,0,0,1-8.69-.16c-7.88-.85-14.23-3.5-18.06-8.67,5.75,10.88,11.58,21.93,17.52,33a49.16,49.16,0,0,0,2.55,4.63c1.6,2.32,4.7,4.09,7.58,5.26a42,42,0,0,0,10.28,2.58C308.66,253.7,317.33,253.2,325.37,253.86Z" transform="translate(-0.33)"/><path class="cls-4" d="M357.15,253.46c5.31,0.11,10.88.13,16.48,0.16a35.16,35.16,0,0,0,8.41-.45,24.62,24.62,0,0,0,9.13-4.05,14.43,14.43,0,0,0,6.15-10.77,27,27,0,0,0,.23-4c-0.25-5.61-3.5-12.19-7.76-18.22-10.8-.17-21.67-0.12-32.52-0.1C357.24,228.45,357.06,241.14,357.15,253.46Z" transform="translate(-0.33)"/><path class="cls-4" d="M408.46,164.77l7.06-4.06a0.43,0.43,0,0,0-.35-0.19c-2.68-.46-5.69-0.66-8.46-1-8.94-1.2-18.18-2.19-27.12-3.43-4.67,11.12-9.66,22.42-14.14,33.43l10.29-5.91,17.77,30.93a86.24,86.24,0,0,1,4.21,7.61c3.2,7.25,4.09,14.07,1.52,20,6.55-10.42,13.2-21,19.78-31.65a49.16,49.16,0,0,0,2.73-4.52c1.2-2.55,1.19-6.12.77-9.19a42,42,0,0,0-2.91-10.19C416.68,179.32,411.91,172.07,408.46,164.77Z" transform="translate(-0.33)"/><path class="cls-4" d="M392.14,137c-2.55-4.65-5.33-9.48-8.11-14.35a35.16,35.16,0,0,0-4.6-7.06,24.62,24.62,0,0,0-8.07-5.88,14.43,14.43,0,0,0-12.4.06,27,27,0,0,0-3.61,1.82c-4.73,3-8.81,9.13-11.9,15.83,5.25,9.44,10.73,18.83,16.18,28.21C370.43,149.42,381.51,143.22,392.14,137Z" transform="translate(-0.33)"/><path class="cls-4" d="M289.68,136.89l-7-4.09a0.43,0.43,0,0,0,0,.4c0.94,2.55,2.28,5.26,3.34,7.84,3.43,8.34,7.2,16.84,10.59,25.21,12-1.51,24.25-2.85,36-4.47l-10.27-6L340.23,125a86.24,86.24,0,0,1,4.48-7.45c4.68-6.4,10.14-10.58,16.53-11.31-12.3-.46-24.78-0.93-37.3-1.3a49.16,49.16,0,0,0-5.28-.11c-2.81.23-5.89,2-8.34,3.93a42,42,0,0,0-7.37,7.61C298.17,122.49,294.27,130.25,289.68,136.89Z" transform="translate(-0.33)"/><path class="cls-5" d="M259.34,157.64c-2.75,4.54-5.55,9.36-8.38,14.2a35.16,35.16,0,0,0-3.81,7.51,24.62,24.62,0,0,0-1.06,9.93A14.43,14.43,0,0,0,252.34,200a27,27,0,0,0,3.38,2.21c5,2.59,12.31,3.07,19.66,2.39,5.55-9.27,10.94-18.7,16.35-28.12C281,170.22,270.05,163.72,259.34,157.64Z" transform="translate(-0.33)"/><path class="cls-5" d="M310.48,246.42q0,4.07,0,8.14a0.43,0.43,0,0,0,.35-0.21c1.74-2.09,3.41-4.6,5.12-6.82,5.51-7.15,11-14.65,16.54-21.77-7.3-9.61-14.59-19.58-21.88-29q0,5.93,0,11.87l-35.68-.07a86.24,86.24,0,0,1-8.69-.16c-7.88-.85-14.23-3.5-18.06-8.67,5.75,10.88,11.58,21.93,17.52,33a49.16,49.16,0,0,0,2.55,4.63c1.6,2.32,4.7,4.09,7.58,5.26a42,42,0,0,0,10.28,2.58C293.78,246.26,302.44,245.76,310.48,246.42Z" transform="translate(-0.33)"/><path class="cls-5" d="M342.27,246c5.31,0.11,10.88.13,16.48,0.16a35.16,35.16,0,0,0,8.41-.45,24.62,24.62,0,0,0,9.13-4.05,14.43,14.43,0,0,0,6.15-10.77,27,27,0,0,0,.23-4c-0.25-5.61-3.5-12.19-7.76-18.22-10.8-.17-21.67-0.12-32.52-0.1C342.35,221,342.18,233.69,342.27,246Z" transform="translate(-0.33)"/><path class="cls-5" d="M393.58,157.33l7.06-4.06a0.43,0.43,0,0,0-.35-0.19c-2.68-.46-5.69-0.66-8.46-1-8.94-1.2-18.18-2.19-27.12-3.43C360,159.74,355,171,350.56,182l10.29-5.91,17.77,30.93a86.24,86.24,0,0,1,4.21,7.61c3.2,7.25,4.09,14.07,1.52,20,6.55-10.42,13.2-21,19.78-31.65a49.16,49.16,0,0,0,2.73-4.52c1.2-2.55,1.19-6.12.77-9.19a42,42,0,0,0-2.91-10.19C401.8,171.88,397,164.63,393.58,157.33Z" transform="translate(-0.33)"/><path class="cls-5" d="M377.25,129.54c-2.55-4.65-5.33-9.48-8.11-14.35a35.16,35.16,0,0,0-4.6-7.06,24.62,24.62,0,0,0-8.07-5.88,14.43,14.43,0,0,0-12.4.06,27,27,0,0,0-3.61,1.82c-4.73,3-8.81,9.13-11.9,15.83,5.25,9.44,10.73,18.83,16.18,28.21C355.55,142,366.63,135.78,377.25,129.54Z" transform="translate(-0.33)"/><path class="cls-5" d="M274.79,129.44l-7-4.09a0.43,0.43,0,0,0,0,.4c0.94,2.55,2.28,5.26,3.34,7.84,3.43,8.34,7.2,16.84,10.59,25.21,12-1.51,24.25-2.85,36-4.47l-10.27-6,17.9-30.86a86.24,86.24,0,0,1,4.48-7.45c4.68-6.4,10.14-10.58,16.53-11.31-12.3-.46-24.78-0.93-37.3-1.3a49.16,49.16,0,0,0-5.28-.11c-2.81.23-5.89,2-8.34,3.93a42,42,0,0,0-7.37,7.61C283.29,115.05,279.39,122.81,274.79,129.44Z" transform="translate(-0.33)"/><path class="cls-6" d="M242.69,417.08c66.12,0,119.73-14.29,119.73-31.91s-53.61-31.9-119.73-31.9S123,367.55,123,385.17s53.61,31.91,119.74,31.91" transform="translate(-0.33)"/><path class="cls-7" d="M209.6,395.66C144.47,395.38,92,344.76,93.19,278.53c0.6-32,13-59.4,36.56-81.26,22.63-21,49.8-31.28,80.6-30.5,32,0.81,59.38,13.14,81.21,36.68,21.07,22.72,31.26,50,30.38,80.87-0.91,31.75-13.17,58.89-36.46,80.62A112.12,112.12,0,0,1,209.6,395.66Zm79.63-56.27c12.65-17.29,19.11-36.29,19.14-57.94l-7,7.42-1.3-1.47-13.12-15c-3.24-3.71-6.53-7.38-9.69-11.17a6.65,6.65,0,0,1-1.65-3.42,35.65,35.65,0,0,1,.42-6.06c0.61-6.21,1.27-12.42,1.85-18.63,0.41-4.35.72-8.71,1.09-13.36,1.69,0.37,3.25.74,4.81,1s3.17,0.54,5.11.86c-12.94-17.2-29.22-29.14-49.56-35.7l4.5,8.38-1.81.75c-9.2,3.87-18.58,7.38-27.54,11.74-5,2.41-8.92,2.36-13.88,0-9.52-4.56-19.44-8.31-29.36-12.46l4.62-8.53c-12.1.87-41,22-49.38,35.83l9.53-1.8c0.58,5.71,1.17,11.07,1.67,16.43q1,10.73,1.87,21.46a3,3,0,0,1-.57,1.92c-1.7,2.14-3.48,4.21-5.29,6.26-2.74,3.12-5.55,6.19-8.27,9.33-3.89,4.49-7.72,9-11.69,13.67L107,281.7c-1.55,16.5,8.73,48.25,18.85,57.92l1.41-9.48,7.18,1.63c9.43,2.14,18.85,4.3,28.29,6.39a5.91,5.91,0,0,1,4.22,2.84c6.22,10.53,12.5,21,18.9,31.76l-9.36,4.44a103.45,103.45,0,0,0,62.11,0l-9.34-4.47c5.87-9.76,11.51-19.21,17.22-28.6,1.51-2.47,2.41-5.29,6.08-6,11.73-2.4,23.38-5.19,35.38-7.91Z" transform="translate(-0.33)"/><path class="cls-8" d="M289.22,339.39l-1.29-9.22c-12,2.71-23.65,5.51-35.38,7.91-3.67.75-4.57,3.56-6.08,6-5.72,9.4-11.35,18.84-17.22,28.6l9.34,4.47a103.45,103.45,0,0,1-62.11,0l9.36-4.44c-6.4-10.74-12.69-21.23-18.9-31.76a5.91,5.91,0,0,0-4.22-2.84c-9.44-2.09-18.86-4.25-28.29-6.39l-7.18-1.63-1.41,9.48C115.73,330,105.45,298.2,107,281.7l6.75,7.18c4-4.65,7.8-9.19,11.69-13.67,2.72-3.14,5.53-6.2,8.27-9.33,1.8-2.05,3.58-4.13,5.29-6.26a3,3,0,0,0,.57-1.92Q138.7,247,137.7,236.24c-0.5-5.36-1.09-10.72-1.67-16.43l-9.53,1.8c8.36-13.85,37.28-35,49.38-35.83l-4.62,8.53c9.92,4.16,19.84,7.9,29.36,12.46,5,2.37,8.92,2.42,13.88,0,9-4.35,18.34-7.87,27.54-11.74l1.81-.75-4.5-8.38c20.34,6.56,36.63,18.51,49.56,35.7-1.94-.32-3.53-0.56-5.11-0.86s-3.12-.67-4.81-1c-0.38,4.65-.69,9-1.09,13.36-0.58,6.21-1.24,12.42-1.85,18.63a35.65,35.65,0,0,0-.42,6.06,6.65,6.65,0,0,0,1.65,3.42c3.16,3.78,6.45,7.46,9.69,11.17l13.12,15,1.3,1.47,7-7.42C308.33,303.1,301.87,322.1,289.22,339.39Zm-81.66-98.72c-13.84,10-27.61,20-41.32,30.07a2.59,2.59,0,0,0-.69,2.29c5.07,15.68,10.25,31.31,15.3,47a1.84,1.84,0,0,0,2.17,1.52q24.59,0,49.18,0a1.85,1.85,0,0,0,2.1-1.62c1.41-4.66,3-9.25,4.56-13.89,3.54-10.89,7-21.79,10.61-32.66,0.43-1.31.49-2-.83-2.87-4.92-3.4-9.67-7-14.51-10.54Q220.87,250.31,207.56,240.67Z" transform="translate(-0.33)"/><path class="cls-7" d="M207.56,240.67q13.32,9.66,26.58,19.29c4.84,3.52,9.59,7.14,14.51,10.54,1.31,0.91,1.26,1.56.83,2.87-3.59,10.87-7.07,21.78-10.61,32.66-1.51,4.63-3.14,9.23-4.56,13.89a1.85,1.85,0,0,1-2.1,1.62q-24.59,0-49.18,0a1.84,1.84,0,0,1-2.17-1.52c-5.05-15.68-10.24-31.32-15.3-47a2.59,2.59,0,0,1,.69-2.29C180,260.69,193.72,250.72,207.56,240.67Z" transform="translate(-0.33)"/><path class="cls-9" d="M303.84,219.66A160.23,160.23,0,0,1,143.77,373.11c-1.45,0-2.88-.07-4.32-0.11A114.23,114.23,0,0,0,303.84,219.66Z" transform="translate(-0.33)"/><ellipse class="cls-10" cx="203.5" cy="208.29" rx="35.2" ry="22.36" transform="translate(-18.51 19.46) rotate(-5.24)"/><ellipse class="cls-10" cx="146" cy="233.48" rx="16.6" ry="10.54" transform="translate(-113.21 139.63) rotate(-38.06)"/></svg>