<?xml version="1.0" encoding="utf-8"?>
<!-- Generator: Adobe Illustrator 19.2.1, SVG Export Plug-In . SVG Version: 6.00 Build 0)  -->
<svg version="1.1" id="Graphics" xmlns="http://www.w3.org/2000/svg" xmlns:xlink="http://www.w3.org/1999/xlink" x="0px" y="0px"
	 viewBox="0 0 500 500" style="enable-background:new 0 0 500 500;" xml:space="preserve">
<style type="text/css">
	.st0{fill:#7C223D;}
	.st1{fill:#EEF3F3;}
	.st2{fill:#DD7899;}
	.st3{fill:#BBCED0;}
	.st4{fill:#EFA016;}
	.st5{fill:#F4D100;}
	.st6{fill:#1E4A54;}
	.st7{fill:#F7F9F9;}
	.st8{fill:#FFFFFF;}
	.st9{opacity:0.5;enable-background:new    ;}
	.st10{opacity:0.4;enable-background:new    ;}
	.st11{fill:#E87800;}
</style>
<g>
	<g>
		<g>
			<g>
				<path class="st0" d="M250,14c31.9,0,62.8,6.2,91.9,18.5c28.1,11.9,53.3,28.9,75,50.6c21.7,21.7,38.7,46.9,50.6,75
					c12.3,29.1,18.5,60,18.5,91.9s-6.2,62.8-18.5,91.9c-11.9,28.1-28.9,53.3-50.6,75c-21.7,21.7-46.9,38.7-75,50.6
					c-29.1,12.3-60,18.5-91.9,18.5s-62.8-6.2-91.9-18.5c-28.1-11.9-53.3-28.9-75-50.6c-21.7-21.7-38.7-46.9-50.6-75
					C20.2,312.8,14,281.9,14,250s6.2-62.8,18.5-91.9c11.9-28.1,28.9-53.3,50.6-75c21.7-21.7,46.9-38.7,75-50.6
					C187.2,20.2,218.1,14,250,14 M250,0C111.9,0,0,111.9,0,250s111.9,250,250,250s250-111.9,250-250S388.1,0,250,0L250,0z"/>
			</g>
		</g>
		<g>
			<g>
				<path class="st1" d="M250,479c-61.2,0-118.7-23.8-161.9-67.1C44.8,368.7,21,311.2,21,250c0-61.2,23.8-118.7,67.1-161.9
					S188.8,21,250,21c61.2,0,118.7,23.8,161.9,67.1C455.2,131.3,479,188.8,479,250s-23.8,118.7-67.1,161.9
					C368.7,455.2,311.2,479,250,479z"/>
			</g>
			<g>
				<path class="st2" d="M250,28c30,0,59,5.9,86.4,17.4C362.8,56.6,386.6,72.6,407,93s36.4,44.1,47.6,70.6
					C466.1,191,472,220,472,250s-5.9,59-17.4,86.4c-11.2,26.4-27.2,50.2-47.6,70.6c-20.4,20.4-44.1,36.4-70.6,47.6
					C309,466.1,280,472,250,472s-59-5.9-86.4-17.4c-26.4-11.2-50.2-27.2-70.6-47.6c-20.4-20.4-36.4-44.1-47.6-70.6
					C33.9,309,28,280,28,250s5.9-59,17.4-86.4C56.6,137.2,72.6,113.4,93,93c20.4-20.4,44.1-36.4,70.6-47.6C191,33.9,220,28,250,28
					 M250,14C119.7,14,14,119.7,14,250c0,130.3,105.7,236,236,236c130.3,0,236-105.7,236-236C486,119.7,380.3,14,250,14L250,14z"/>
			</g>
		</g>
	</g>
	<g>
		<g>
			<g>
				<path class="st3" d="M262.4,406.5c61.8,0,111.9-5.9,111.9-13.2c0-7.3-50.1-13.2-111.9-13.2c-61.8,0-111.9,5.9-111.9,13.2
					C150.5,400.6,200.6,406.5,262.4,406.5"/>
			</g>
			<g>
				<path class="st4" d="M208.6,298.4c0.5,20.5,0.4,41.2,2.1,47.5c2.1,8,12.7,34.5,10.8,36.4c-4,4.2-22.5,4.7-22.4,8.8
					c0.1,4.1,28.8,1.3,32.9,1.2s-4.6-36.4-4.9-48.7c-0.3-12.3,4.5-34.6,14.4-51.3C244.6,286.9,208.6,298.4,208.6,298.4"/>
			</g>
			<g>
				<path class="st4" d="M293.8,298.4c-0.5,20.5-0.4,41.2-2.1,47.5c-2.1,8-12.7,34.5-10.8,36.4c4,4.2,22.5,4.7,22.4,8.8
					c-0.1,4.1-28.8,1.3-32.9,1.2c-4.1-0.1,4.6-36.4,4.9-48.7c0.3-12.3-4.5-34.6-14.4-51.3C257.8,286.9,293.8,298.4,293.8,298.4"/>
			</g>
			<g>
				<g>
					<circle class="st5" cx="248" cy="208.6" r="122.3"/>
				</g>
				<g>
					<g id="Eye_27_">
						<g>
							<g>
								<path class="st6" d="M317.1,192.3c-1.9-13.9-14.6-23.6-28.5-21.7c-13.9,1.8-23.6,14.6-21.7,28.4
									c1.9,13.9,14.6,23.6,28.5,21.7C309.2,218.9,319,206.1,317.1,192.3z"/>
							</g>
						</g>
						<g>
							<g>
								<path class="st7" d="M292,223.4c-6.1,0-11.9-2-16.8-5.7c-5.9-4.5-9.7-11-10.7-18.4c-2-15.2,8.7-29.2,23.9-31.3
									c7.4-1,14.7,0.9,20.6,5.4c5.9,4.5,9.7,11,10.7,18.4c1,7.4-0.9,14.7-5.5,20.6c-4.5,5.9-11.1,9.7-18.4,10.7
									C294.5,223.4,293.2,223.4,292,223.4z M292.1,172.8c-1,0-2.1,0.1-3.1,0.2c-12.5,1.7-21.2,13.2-19.6,25.6
									c0.8,6,3.9,11.4,8.8,15.1c4.8,3.7,10.8,5.3,16.9,4.5c6-0.8,11.4-3.9,15.1-8.8c3.7-4.9,5.3-10.8,4.5-16.9l0,0
									c-0.8-6.1-3.9-11.4-8.8-15.1C301.9,174.4,297.1,172.8,292.1,172.8z"/>
							</g>
						</g>
					</g>
					<g id="Eye_26_">
						<g>
							<g>
								<path class="st8" d="M307.7,186.4c-0.5-4.1-4.3-6.9-8.4-6.4c-4.1,0.5-6.9,4.3-6.4,8.4c0.5,4.1,4.3,7,8.4,6.4
									C305.4,194.3,308.2,190.5,307.7,186.4z"/>
							</g>
						</g>
					</g>
					<g id="Eye_25_">
						<g>
							<g>
								<path class="st8" d="M289,189.6c-0.3-2-2.1-3.4-4.1-3.1c-2,0.3-3.4,2.1-3.1,4.1c0.3,2,2.1,3.4,4.1,3.1
									C287.9,193.4,289.3,191.6,289,189.6z"/>
							</g>
						</g>
					</g>
				</g>
				<g>
					<g id="Eye_24_">
						<g>
							<g>
								<path class="st6" d="M229.1,192.3c-1.9-13.9-14.6-23.6-28.5-21.7c-13.9,1.8-23.6,14.6-21.7,28.4
									c1.9,13.9,14.6,23.6,28.5,21.7C221.3,218.9,231,206.1,229.1,192.3z"/>
							</g>
						</g>
						<g>
							<g>
								<path class="st7" d="M204,223.4c-6.1,0-11.9-2-16.8-5.7c-5.9-4.5-9.7-11-10.7-18.4c-1-7.4,1-14.7,5.5-20.6
									c4.5-5.9,11-9.7,18.4-10.7c7.4-1,14.7,0.9,20.6,5.4c5.9,4.5,9.7,11,10.7,18.4l0,0c1,7.4-0.9,14.7-5.5,20.6
									c-4.5,5.9-11.1,9.7-18.4,10.7C206.5,223.4,205.2,223.4,204,223.4z M204.1,172.8c-1,0-2.1,0.1-3.1,0.2
									c-6,0.8-11.4,3.9-15.1,8.7c-3.7,4.8-5.3,10.8-4.5,16.9c0.8,6,3.9,11.4,8.8,15.1c4.8,3.7,10.8,5.3,16.9,4.5
									c6-0.8,11.4-3.9,15.1-8.8c3.7-4.9,5.3-10.8,4.5-16.9l0,0c-0.8-6.1-3.9-11.4-8.8-15.1C213.9,174.4,209.1,172.8,204.1,172.8z"
									/>
							</g>
						</g>
					</g>
					<g id="Eye_23_">
						<g>
							<g>
								<path class="st8" d="M219.7,186.4c-0.5-4.1-4.3-6.9-8.4-6.4c-4.1,0.5-6.9,4.3-6.4,8.4c0.5,4.1,4.3,7,8.4,6.4
									C217.4,194.3,220.3,190.5,219.7,186.4z"/>
							</g>
						</g>
					</g>
					<g id="Eye_20_">
						<g>
							<g>
								<path class="st8" d="M201,189.6c-0.3-2-2.1-3.4-4.1-3.1c-2,0.3-3.4,2.1-3.1,4.1c0.3,2,2.1,3.4,4.1,3.1
									C199.9,193.4,201.3,191.6,201,189.6z"/>
							</g>
						</g>
					</g>
				</g>
				<g class="st9">
					<path class="st8" d="M213.1,123.6c-5.3-7.7-21.2-6-35.7,3.8c-14.4,9.8-21.9,24-16.6,31.8c5.3,7.7,21.2,6,35.6-3.8
						C210.9,145.5,218.4,131.3,213.1,123.6z"/>
				</g>
				<g class="st9">
					<path class="st8" d="M228.2,116.6c0.7-2.8-1.1-5.7-4-6.4c-2.9-0.8-5.9,0.8-6.6,3.6c-0.7,2.8,1.1,5.6,4,6.4
						C224.5,121,227.4,119.4,228.2,116.6z"/>
				</g>
				<g class="st10">
					<path class="st11" d="M350.9,142.6c-3.8,91.3-79,164.2-171.3,164.2c-1.5,0-3.1-0.1-4.6-0.1c20.4,15.2,45.7,24.2,73.1,24.2
						c67.5,0,122.3-54.7,122.3-122.3C370.3,184.3,363.1,161.6,350.9,142.6z"/>
				</g>
			</g>
		</g>
		<g>
			<path class="st6" d="M248,292.3c-36.8,0-69-20.1-86.1-49.8c12.6,35.5,46.4,60.9,86.1,60.9s73.6-25.4,86.1-60.9
				C317,272.3,284.9,292.3,248,292.3z"/>
		</g>
		<g>
			<path class="st6" d="M326.2,239.1c7.1,4.6,12.7,12.4,16.7,20.3c-3-10.1-7.1-22.6-16.4-25.8C325.2,233.1,325.1,238.4,326.2,239.1z
				"/>
		</g>
		<g>
			<path class="st6" d="M171.1,239.1c-7.1,4.6-12.7,12.4-16.7,20.3c3-10.1,7.1-22.6,16.4-25.8C172.1,233.1,172.3,238.4,171.1,239.1z
				"/>
		</g>
	</g>
</g>
</svg>
