<?xml version="1.0" encoding="utf-8"?>
<!-- Generator: Adobe Illustrator 20.0.0, SVG Export Plug-In . SVG Version: 6.00 Build 0)  -->
<svg version="1.1" id="Layer_1" xmlns="http://www.w3.org/2000/svg" xmlns:xlink="http://www.w3.org/1999/xlink" x="0px" y="0px"
	 viewBox="0 0 356.1 356.1" enable-background="new 0 0 356.1 356.1" xml:space="preserve">
<g>
	
		<ellipse transform="matrix(0.2611 -0.9653 0.9653 0.2611 -40.3881 303.3948)" fill="#D4DCE1" cx="177.987" cy="178.079" rx="175.198" ry="175.198"/>
	<path fill="#EF7A15" d="M178,356.1c-15.3,0-30.9-2-46.4-6.2C36.8,324.3-19.4,226.3,6.2,131.6l0,0C31.8,36.8,129.8-19.4,224.5,6.2
		c45.9,12.4,84.2,42,107.9,83.2s29.9,89.2,17.5,135.1C328.5,303.8,256.4,356.1,178,356.1z M8.9,132.3l2.7,0.7
		C-13.1,224.8,41.3,319.6,133,344.4c15,4.1,30.1,6,45,6c75.9,0,145.7-50.6,166.4-127.4c12-44.4,6-90.9-16.9-130.8
		s-60-68.5-104.5-80.6C131.3-13.1,36.5,41.3,11.7,133L8.9,132.3z"/>
</g>
<path fill="#1490B2" d="M261.1,30c-46.8,102.4-93.6,204.7-140.5,307.1c-7-2.5-86-32.4-108-116.4C-5.9,149.8,30.1,93.4,36,84.5l0,0
	l0.3-0.4c32.3-48.6,86.5-67.7,86.5-67.7C190.3-7.5,252.2,25.2,261.1,30z"/>
<polygon fill="#A2D7E1" points="175.3,103.2 174.9,347.4 187.9,347.4 181.4,102.7 "/>
<path fill="none" stroke="#004A66" stroke-width="11.3386" stroke-miterlimit="10" d="M92.8,324.7c-2.5-96.2-2.5-165.2-2.2-203.6
	c0-13,0.6-37.5,17.2-49.2c11.9-8.4,26.1-6.3,29.1-6c20,3.3,36.3,21.7,40.8,46.2"/>
<g>
	<line fill="none" stroke="#BF3818" stroke-width="8.5039" stroke-miterlimit="10" x1="199.7" y1="206" x2="325.8" y2="187.4"/>
	<polygon fill="#ECEFF1" points="198.1,188 226.5,183.8 228.6,200.6 200.2,204.7 	"/>
	<path fill="#4FC3F7" d="M197.9,187.7c0.3-1.4,1.8-7.2,6.2-9.4c1.3-0.6,2.6-0.8,3.1-0.8c4.4-0.3,6.5,2.2,9.8,2.5
		c1.8,0.3,4.6-0.3,8.3-3.6c0.3,0.8,0.3,2.2-0.3,3.6c-0.8,2.2-2.1,3.6-3.1,4.2c-3.4,2.5-7.2,2.5-8.5,2.5c-4.9-0.3-6.2-2.5-10.1-1.9
		C201,185.5,199.2,186.9,197.9,187.7z"/>
</g>
<circle fill="none" stroke="#F4B70C" stroke-width="5.6693" stroke-miterlimit="10" cx="178.2" cy="178" r="169.4"/>
</svg>
