<svg id="Graphics" xmlns="http://www.w3.org/2000/svg" viewBox="0 0 500 500"><defs><style>.cls-1{fill:#564677;}.cls-2{fill:#eef3f3;}.cls-3,.cls-5{fill:#ab8eb8;}.cls-4{fill:#d8e3e2;}.cls-4,.cls-5{fill-rule:evenodd;}.cls-6{fill:#bbced0;}.cls-7{fill:#efa859;}.cls-8{fill:#be8952;}</style></defs><title>act_consumption_05_furniture_used</title><path class="cls-1" d="M250.24,14A236.07,236.07,0,0,1,342.1,467.46,236.06,236.06,0,0,1,158.38,32.54,234.51,234.51,0,0,1,250.24,14m0-14C112.17,0,.24,111.93.24,250s111.93,250,250,250,250-111.93,250-250S388.31,0,250.24,0h0Z" transform="translate(-0.24)"/><path class="cls-2" d="M250.24,479A229,229,0,0,1,88.32,88.08,229,229,0,1,1,412.16,411.92,227.5,227.5,0,0,1,250.24,479Z" transform="translate(-0.24)"/><path class="cls-3" d="M250.24,28a222.06,222.06,0,0,1,86.4,426.56A222.06,222.06,0,0,1,163.84,45.44,220.58,220.58,0,0,1,250.24,28m0-14c-130.33,0-236,105.67-236,236s105.67,236,236,236,236-105.67,236-236S380.57,14,250.24,14h0Z" transform="translate(-0.24)"/><path class="cls-4" d="M274.13,231.7c-2.75,4.54-5.55,9.36-8.38,14.2a35.16,35.16,0,0,0-3.81,7.51,24.62,24.62,0,0,0-1.06,9.93,14.43,14.43,0,0,0,6.26,10.71,27,27,0,0,0,3.38,2.21c5,2.59,12.31,3.07,19.66,2.39,5.55-9.27,10.94-18.7,16.35-28.12C295.75,244.28,284.85,237.78,274.13,231.7Z" transform="translate(-0.24)"/><path class="cls-4" d="M325.28,320.48q0,4.07,0,8.14a0.43,0.43,0,0,0,.35-0.21c1.74-2.09,3.41-4.6,5.12-6.82,5.51-7.15,11-14.65,16.54-21.77-7.3-9.61-14.59-19.58-21.88-29q0,5.93,0,11.87l-35.68-.07a86.24,86.24,0,0,1-8.69-.16c-7.88-.85-14.23-3.5-18.06-8.67,5.75,10.88,11.58,21.93,17.52,33a49.16,49.16,0,0,0,2.55,4.63c1.6,2.32,4.7,4.09,7.58,5.26a42,42,0,0,0,10.28,2.58C308.57,320.32,317.24,319.82,325.28,320.48Z" transform="translate(-0.24)"/><path class="cls-4" d="M357.07,320.08c5.31,0.11,10.88.13,16.48,0.16a35.16,35.16,0,0,0,8.41-.45,24.62,24.62,0,0,0,9.13-4.05A14.43,14.43,0,0,0,397.24,305a27,27,0,0,0,.23-4c-0.25-5.61-3.5-12.19-7.76-18.22-10.8-.17-21.67-0.12-32.52-0.1C357.15,295.06,357,307.76,357.07,320.08Z" transform="translate(-0.24)"/><path class="cls-4" d="M408.38,231.39l7.06-4.06a0.43,0.43,0,0,0-.35-0.19c-2.68-.46-5.69-0.66-8.46-1-8.94-1.2-18.18-2.19-27.12-3.43-4.67,11.12-9.66,22.42-14.14,33.43l10.29-5.91,17.77,30.93a86.24,86.24,0,0,1,4.21,7.61c3.2,7.25,4.09,14.07,1.52,20,6.55-10.42,13.2-21,19.78-31.65a49.16,49.16,0,0,0,2.73-4.52c1.2-2.55,1.19-6.12.77-9.19a42,42,0,0,0-2.91-10.19C416.59,245.94,411.82,238.69,408.38,231.39Z" transform="translate(-0.24)"/><path class="cls-4" d="M392,203.6c-2.55-4.65-5.33-9.48-8.11-14.35a35.16,35.16,0,0,0-4.6-7.06,24.62,24.62,0,0,0-8.07-5.88,14.43,14.43,0,0,0-12.4.06,27,27,0,0,0-3.61,1.82c-4.73,3-8.81,9.13-11.9,15.83,5.25,9.44,10.73,18.83,16.18,28.21C370.35,216,381.42,209.84,392,203.6Z" transform="translate(-0.24)"/><path class="cls-4" d="M289.59,203.5l-7-4.09a0.43,0.43,0,0,0,0,.4c0.94,2.55,2.28,5.26,3.34,7.84,3.43,8.34,7.2,16.84,10.59,25.21,12-1.51,24.25-2.85,36-4.47l-10.27-6,17.9-30.86a86.24,86.24,0,0,1,4.48-7.45c4.68-6.4,10.14-10.58,16.53-11.31-12.3-.46-24.78-0.93-37.3-1.3a49.16,49.16,0,0,0-5.28-.11c-2.81.23-5.89,2-8.34,3.93a42,42,0,0,0-7.37,7.61C298.08,189.11,294.19,196.87,289.59,203.5Z" transform="translate(-0.24)"/><path class="cls-5" d="M259.25,231.7c-2.75,4.54-5.55,9.36-8.38,14.2a35.16,35.16,0,0,0-3.81,7.51,24.62,24.62,0,0,0-1.06,9.93,14.43,14.43,0,0,0,6.26,10.71,27,27,0,0,0,3.38,2.21c5,2.59,12.31,3.07,19.66,2.39,5.55-9.27,10.94-18.7,16.35-28.12C280.87,244.28,270,237.78,259.25,231.7Z" transform="translate(-0.24)"/><path class="cls-5" d="M310.4,320.48q0,4.07,0,8.14a0.43,0.43,0,0,0,.35-0.21c1.74-2.09,3.41-4.6,5.12-6.82,5.51-7.15,11-14.65,16.54-21.77-7.3-9.61-14.59-19.58-21.88-29q0,5.93,0,11.87l-35.68-.07a86.24,86.24,0,0,1-8.69-.16c-7.88-.85-14.23-3.5-18.06-8.67,5.75,10.88,11.58,21.93,17.52,33a49.16,49.16,0,0,0,2.55,4.63c1.6,2.32,4.7,4.09,7.58,5.26A42,42,0,0,0,286,319.26C293.69,320.32,302.36,319.82,310.4,320.48Z" transform="translate(-0.24)"/><path class="cls-5" d="M342.18,320.08c5.31,0.11,10.88.13,16.48,0.16a35.16,35.16,0,0,0,8.41-.45,24.62,24.62,0,0,0,9.13-4.05A14.43,14.43,0,0,0,382.36,305a27,27,0,0,0,.23-4c-0.25-5.61-3.5-12.19-7.76-18.22-10.8-.17-21.67-0.12-32.52-0.1C342.26,295.06,342.09,307.76,342.18,320.08Z" transform="translate(-0.24)"/><path class="cls-5" d="M393.49,231.39l7.06-4.06a0.43,0.43,0,0,0-.35-0.19c-2.68-.46-5.69-0.66-8.46-1-8.94-1.2-18.18-2.19-27.12-3.43-4.67,11.12-9.66,22.42-14.14,33.43l10.29-5.91,17.77,30.93a86.24,86.24,0,0,1,4.21,7.61c3.2,7.25,4.09,14.07,1.52,20,6.55-10.42,13.2-21,19.78-31.65a49.16,49.16,0,0,0,2.73-4.52c1.2-2.55,1.19-6.12.77-9.19a42,42,0,0,0-2.91-10.19C401.71,245.94,396.94,238.69,393.49,231.39Z" transform="translate(-0.24)"/><path class="cls-5" d="M377.17,203.6c-2.55-4.65-5.33-9.48-8.11-14.35a35.16,35.16,0,0,0-4.6-7.06,24.62,24.62,0,0,0-8.07-5.88,14.43,14.43,0,0,0-12.4.06,27,27,0,0,0-3.61,1.82c-4.73,3-8.81,9.13-11.9,15.83,5.25,9.44,10.73,18.83,16.18,28.21C355.46,216,366.54,209.84,377.17,203.6Z" transform="translate(-0.24)"/><path class="cls-5" d="M274.71,203.5l-7-4.09a0.43,0.43,0,0,0,0,.4c0.94,2.55,2.28,5.26,3.34,7.84,3.43,8.34,7.2,16.84,10.59,25.21,12-1.51,24.25-2.85,36-4.47l-10.27-6,17.9-30.86a86.24,86.24,0,0,1,4.48-7.45c4.68-6.4,10.14-10.58,16.53-11.31-12.3-.46-24.78-0.93-37.3-1.3a49.16,49.16,0,0,0-5.28-.11c-2.81.23-5.89,2-8.34,3.93A42,42,0,0,0,288,183C283.2,189.11,279.3,196.87,274.71,203.5Z" transform="translate(-0.24)"/><path class="cls-6" d="M242.32,398.63c66.12,0,119.73-14.29,119.73-31.91s-53.61-31.9-119.73-31.9-119.74,14.28-119.74,31.9,53.61,31.91,119.74,31.91" transform="translate(-0.24)"/><path class="cls-7" d="M228.82,386.65a4.11,4.11,0,0,1-4,4.18l-3.58.07a4.11,4.11,0,0,1-4.18-4L214.91,283a4.11,4.11,0,0,1,4-4.18l3.58-.07a4.11,4.11,0,0,1,4.18,4ZM319,265.22a4.11,4.11,0,0,0-4.18-4l-3.58.07a4.11,4.11,0,0,0-4,4.18l2.14,103.88a4.11,4.11,0,0,0,4.18,4l3.58-.07a4.11,4.11,0,0,0,4-4.18Zm-166.36-6.81a4.11,4.11,0,0,0-4.18-4l-3.58.07a4.11,4.11,0,0,0-4,4.18L143,362.53a4.11,4.11,0,0,0,4.18,4l3.58-.07a4.11,4.11,0,0,0,4-4.18Zm93.82-15.59a4.11,4.11,0,0,0-4.18-4l-3.58.07a4.11,4.11,0,0,0-4,4.18l2.14,103.88a4.11,4.11,0,0,0,4.18,4l3.58-.07a4.11,4.11,0,0,0,4-4.18ZM135.77,145.55a4.11,4.11,0,0,0-4.55-3.58l-3.55.42a4.11,4.11,0,0,0-3.58,4.55l12.25,103.17a4.11,4.11,0,0,0,4.55,3.58l3.55-.42a4.11,4.11,0,0,0,3.58-4.55Zm71.93-5.26a4.11,4.11,0,0,0-4.55-3.58l-3.55.42a4.11,4.11,0,0,0-3.58,4.55l12.25,103.17a4.11,4.11,0,0,0,4.55,3.58l3.55-.42a4.11,4.11,0,0,0,3.58-4.55Z" transform="translate(-0.24)"/><path class="cls-8" d="M222.49,278.77l-3.58.07a4.11,4.11,0,0,0-4,4.18l0.28,13.77,5.92,1.69L223,390.87l1.79,0a4.11,4.11,0,0,0,4-4.18l-2.14-103.88A4.11,4.11,0,0,0,222.49,278.77Z" transform="translate(-0.24)"/><path class="cls-8" d="M234.84,249.3l1.07,51.9,6,3.65,1,46.06,1.79,0a4.11,4.11,0,0,0,4-4.18l-2-97.93Z" transform="translate(-0.24)"/><path class="cls-8" d="M314.84,261.21l-3.58.07a4.11,4.11,0,0,0-4,4.18l0.39,18.88,5.85-1.8,1.87,90.77,1.79,0a4.11,4.11,0,0,0,4-4.18L319,265.22A4.11,4.11,0,0,0,314.84,261.21Z" transform="translate(-0.24)"/><path class="cls-8" d="M152.66,258.41a4.11,4.11,0,0,0-4.18-4l-3.58.07a4.11,4.11,0,0,0-4,4.18l0.35,17.12,5.91,1.32L149,366.51l1.79,0a4.11,4.11,0,0,0,4-4.18Z" transform="translate(-0.24)"/><path class="cls-8" d="M140.89,253.69l2-.24-3.42.15A4.05,4.05,0,0,0,140.89,253.69Z" transform="translate(-0.24)"/><polygon class="cls-8" points="132.81 222.44 138.28 221.28 141.91 248.52 147.59 247.12 139.13 175.89 127.56 178.23 132.81 222.44"/><polygon class="cls-8" points="198.42 163.9 203.66 208.04 210.04 207.51 210.63 236.06 218.8 235.74 209.99 161.56 198.42 163.9"/><polygon class="cls-8" points="336.73 265.44 229.98 292.26 123.44 260.47 123.16 246.82 230.19 233.65 336.45 251.79 336.73 265.44"/><polygon class="cls-7" points="336.45 251.79 229.7 278.61 123.16 246.82 230.05 226.82 336.45 251.79"/><polygon class="cls-8" points="206.5 103.7 114.29 107.64 99.33 110.05 113.92 218.67 127.53 216.34 220.81 198.68 206.5 103.7"/><polygon class="cls-7" points="220.11 101.37 112.94 107.72 127.53 216.34 234.42 196.34 220.11 101.37"/></svg>
