<svg id="Graphics" xmlns="http://www.w3.org/2000/svg" viewBox="0 0 500 500"><defs><style>.cls-1{fill:#366842;}.cls-2{fill:#eef3f3;}.cls-3{fill:#8cb61d;}.cls-4{fill:#b3c589;}.cls-5{fill:#d8e3e2;}.cls-6{fill:#6a8f97;}.cls-7{fill:#e87800;}.cls-8{fill:#f4d100;}.cls-9{fill:#bccfd1;}.cls-10{fill:#efa016;}.cls-11{fill:#8fadb4;}</style></defs><title>act_food_08_no_smoke</title><path class="cls-1" d="M250,14a236.07,236.07,0,0,1,91.86,453.46A236.06,236.06,0,0,1,158.14,32.54,234.51,234.51,0,0,1,250,14m0-14C111.93,0,0,111.93,0,250S111.93,500,250,500,500,388.07,500,250,388.07,0,250,0h0Z"/><path class="cls-2" d="M250,479A229,229,0,0,1,88.08,88.08,229,229,0,1,1,411.92,411.92,227.5,227.5,0,0,1,250,479Z"/><path class="cls-3" d="M250,28a222.06,222.06,0,0,1,86.4,426.56A222.06,222.06,0,0,1,163.6,45.44,220.57,220.57,0,0,1,250,28m0-14C119.67,14,14,119.67,14,250S119.67,486,250,486,486,380.33,486,250,380.33,14,250,14h0Z"/><rect class="cls-4" x="209.02" y="110.44" width="49.97" height="347.11" transform="translate(-132.28 248.65) rotate(-45)"/><rect class="cls-3" x="228.42" y="27.49" width="43.15" height="451.56" transform="translate(252.31 -102.6) rotate(45)"/><rect class="cls-5" x="210.17" y="82.45" width="49.97" height="333.4" transform="translate(-107.3 239.25) rotate(-45)"/><rect class="cls-6" x="332.89" y="365.02" width="49.97" height="13.71" transform="translate(-158.14 361.98) rotate(-45)"/><rect class="cls-7" x="330.31" y="366.09" width="49.97" height="6.41" transform="translate(-157.07 359.39) rotate(-45)"/><rect class="cls-8" x="129.58" y="115.83" width="49.97" height="105.46" transform="translate(-73.92 158.66) rotate(-45)"/><rect class="cls-9" x="213.83" y="91.29" width="24.98" height="333.4" transform="translate(-116.14 235.59) rotate(-45)"/><rect class="cls-10" x="133.24" y="124.67" width="24.98" height="105.46" transform="translate(-82.76 155) rotate(-45)"/><circle class="cls-10" cx="138.3" cy="141.84" r="3.79" transform="translate(-59.79 139.34) rotate(-45)"/><ellipse class="cls-10" cx="138.34" cy="124.3" rx="1.31" ry="3.75" transform="translate(-47.37 134.23) rotate(-45)"/><ellipse class="cls-10" cx="153.28" cy="142.36" rx="1.73" ry="3.25" transform="translate(-55.77 150.08) rotate(-45)"/><ellipse class="cls-10" cx="153.97" cy="157.99" rx="3.04" ry="5.21" transform="translate(-66.62 155.15) rotate(-45)"/><ellipse class="cls-10" cx="168.79" cy="162.85" rx="2.63" ry="4.54" transform="translate(-65.71 167.05) rotate(-45)"/><ellipse class="cls-10" cx="174.98" cy="181.12" rx="2.63" ry="4.25" transform="translate(-76.82 176.78) rotate(-45)"/><ellipse class="cls-10" cx="190.35" cy="190.18" rx="1.83" ry="2.23" transform="translate(-78.72 190.3) rotate(-45)"/><ellipse class="cls-10" cx="180.42" cy="167.25" rx="1.31" ry="2.62" transform="translate(-65.42 176.56) rotate(-45)"/><ellipse class="cls-10" cx="199.86" cy="184.84" rx="1.31" ry="2.95" transform="translate(-72.16 195.46) rotate(-45)"/><path class="cls-9" d="M377.43,338.73s-11.67-32.7-4-40.67,40.67-23.63,35.33-51.11,16.81-80.52-8.76-78.32-42.24,24.73-39.91,38.75,16,32.36,14.5,46.27-17.83,27.65-20.17,40S377.43,338.73,377.43,338.73Z"/><path class="cls-11" d="M377.43,338.73s-11.67-32.7-4-40.67,40.67-23.63,35.33-51.11c-4.18-21.53,8.51-58.74,1.91-72.79-4.91,6.43-14.57,15.57-20.57,33.22-4.63,13.62,6,32.36,4.5,46.27s-27.83,27.65-30.17,40S377.43,338.73,377.43,338.73Z"/></svg>
