<?xml version="1.0" encoding="utf-8"?>
<!-- Generator: Adobe Illustrator 20.0.0, SVG Export Plug-In . SVG Version: 6.00 Build 0)  -->
<svg version="1.1" id="Graphics" xmlns="http://www.w3.org/2000/svg" xmlns:xlink="http://www.w3.org/1999/xlink" x="0px" y="0px"
	 viewBox="0 0 500 500" enable-background="new 0 0 500 500" xml:space="preserve">
<g>
	<g>
		<g>
			<g>
				<g>
					<path fill="#366842" d="M250,14c31.866,0,62.771,6.238,91.857,18.54c28.101,11.886,53.341,28.904,75.02,50.583
						s38.697,46.919,50.583,75.02C479.762,187.229,486,218.134,486,250s-6.238,62.771-18.54,91.857
						c-11.886,28.101-28.904,53.341-50.583,75.02c-21.678,21.678-46.919,38.697-75.02,50.583C312.771,479.762,281.866,486,250,486
						s-62.771-6.238-91.857-18.54c-28.101-11.886-53.341-28.904-75.02-50.583c-21.678-21.678-38.697-46.919-50.583-75.02
						C20.238,312.771,14,281.866,14,250s6.238-62.771,18.54-91.857c11.886-28.101,28.904-53.341,50.583-75.02
						c21.679-21.678,46.919-38.697,75.02-50.583C187.229,20.238,218.134,14,250,14 M250,0C111.93,0,0,111.93,0,250
						s111.93,250,250,250s250-111.93,250-250S388.07,0,250,0L250,0z"/>
				</g>
				<g>
					<path fill="#EEF3F3" d="M250,479c-61.165,0-118.67-23.821-161.924-67.075C44.821,368.67,21,311.165,21,250
						c0-61.164,23.821-118.67,67.076-161.924S188.836,21,250,21c61.165,0,118.67,23.821,161.925,67.076
						C455.179,131.33,479,188.835,479,250s-23.821,118.67-67.075,161.925C368.67,455.179,311.165,479,250,479z"/>
					<path fill="#8CB61D" d="M250,28c29.974,0,59.045,5.868,86.405,17.441c26.434,11.181,50.177,27.191,70.57,47.584
						c20.393,20.393,36.403,44.137,47.584,70.57C466.132,190.956,472,220.026,472,250c0,29.974-5.868,59.045-17.441,86.405
						c-11.181,26.434-27.191,50.177-47.584,70.57c-20.393,20.393-44.136,36.403-70.57,47.584C309.045,466.132,279.974,472,250,472
						c-29.974,0-59.044-5.868-86.404-17.441c-26.434-11.181-50.177-27.191-70.57-47.584c-20.393-20.393-36.403-44.137-47.584-70.57
						C33.868,309.045,28,279.974,28,250c0-29.974,5.868-59.044,17.441-86.404c11.181-26.434,27.191-50.177,47.584-70.57
						c20.393-20.393,44.137-36.403,70.57-47.584C190.956,33.868,220.026,28,250,28 M250,14C119.669,14,14,119.669,14,250
						c0,130.332,105.669,236,236,236c130.332,0,236-105.668,236-236C486,119.669,380.332,14,250,14L250,14z"/>
				</g>
			</g>
		</g>
	</g>
	
		<rect x="209.016" y="110.445" transform="matrix(0.7071 -0.7071 0.7071 0.7071 -132.2814 248.6451)" fill="#B3C589" width="49.97" height="347.111"/>
	
		<rect x="228.425" y="27.491" transform="matrix(0.7071 0.7071 -0.7071 0.7071 252.312 -102.5957)" fill="#8CB61D" width="43.151" height="451.557"/>
	<g>
		
			<rect x="210.168" y="82.453" transform="matrix(0.7071 -0.7071 0.7071 0.7071 -107.303 239.2536)" fill="#D8E3E2" width="49.97" height="333.4"/>
		
			<rect x="332.89" y="365.02" transform="matrix(0.7071 -0.7071 0.7071 0.7071 -158.1362 361.9758)" fill="#6A8F97" width="49.97" height="13.711"/>
		
			<rect x="330.309" y="366.089" transform="matrix(0.7071 -0.7071 0.7071 0.7071 -157.0668 359.394)" fill="#E87800" width="49.97" height="6.41"/>
		
			<rect x="129.579" y="115.834" transform="matrix(0.7071 -0.7071 0.7071 0.7071 -73.922 158.6646)" fill="#F4D100" width="49.97" height="105.461"/>
		
			<rect x="213.826" y="91.286" transform="matrix(0.7071 -0.7071 0.7071 0.7071 -116.1367 235.5939)" fill="#BCCFD1" width="24.985" height="333.4"/>
		
			<rect x="133.237" y="124.667" transform="matrix(0.7071 -0.7071 0.7071 0.7071 -82.7557 155.0049)" fill="#EFA016" width="24.985" height="105.461"/>
		
			<ellipse transform="matrix(0.7071 -0.7071 0.7071 0.7071 -59.7911 139.338)" fill="#EFA016" cx="138.3" cy="141.843" rx="3.792" ry="3.792"/>
		
			<ellipse transform="matrix(0.7071 -0.7071 0.7071 0.7071 -47.3719 134.2304)" fill="#EFA016" cx="138.344" cy="124.298" rx="1.313" ry="3.75"/>
		
			<ellipse transform="matrix(0.7071 -0.7071 0.7071 0.7071 -55.7676 150.0828)" fill="#EFA016" cx="153.282" cy="142.359" rx="1.729" ry="3.25"/>
		
			<ellipse transform="matrix(0.7071 -0.7071 0.7071 0.7071 -66.6169 155.1503)" fill="#EFA016" cx="153.975" cy="157.989" rx="3.042" ry="5.208"/>
		
			<ellipse transform="matrix(0.7071 -0.7071 0.7071 0.7071 -65.7138 167.0533)" fill="#EFA016" cx="168.794" cy="162.85" rx="2.625" ry="4.542"/>
		
			<ellipse transform="matrix(0.7071 -0.7071 0.7071 0.7071 -76.8183 176.7786)" fill="#EFA016" cx="174.981" cy="181.117" rx="2.625" ry="4.25"/>
		
			<ellipse transform="matrix(0.7071 -0.7071 0.7071 0.7071 -78.7243 190.2967)" fill="#EFA016" cx="190.346" cy="190.177" rx="1.833" ry="2.226"/>
		
			<ellipse transform="matrix(0.7071 -0.7071 0.7071 0.7071 -65.424 176.5622)" fill="#EFA016" cx="180.417" cy="167.255" rx="1.313" ry="2.625"/>
		
			<ellipse transform="matrix(0.7071 -0.7071 0.7071 0.7071 -72.1631 195.4566)" fill="#EFA016" cx="199.855" cy="184.837" rx="1.313" ry="2.948"/>
	</g>
	<g>
		<path fill="#BCCFD1" d="M377.427,338.731c0,0-11.667-32.701-4-40.67c7.667-7.969,40.667-23.633,35.333-51.113
			c-5.333-27.48,16.813-80.516-8.76-78.318c-25.573,2.198-42.24,24.732-39.906,38.747c2.333,14.015,16,32.36,14.5,46.27
			c-1.5,13.91-17.833,27.65-20.167,40.016C352.094,306.03,377.427,338.731,377.427,338.731z"/>
		<path fill="#8FADB4" d="M377.427,338.731c0,0-11.667-32.701-4-40.67c7.667-7.969,40.667-23.633,35.333-51.113
			c-4.178-21.527,8.508-58.738,1.905-72.792c-4.905,6.428-14.572,15.572-20.572,33.221c-4.631,13.621,6,32.36,4.5,46.27
			c-1.5,13.91-27.833,27.65-30.167,40.016C362.094,306.03,377.427,338.731,377.427,338.731z"/>
	</g>
</g>
<g>
</g>
<g>
</g>
<g>
</g>
<g>
</g>
<g>
</g>
<g>
</g>
<g>
</g>
<g>
</g>
<g>
</g>
<g>
</g>
<g>
</g>
<g>
</g>
<g>
</g>
<g>
</g>
<g>
</g>
</svg>
