<?xml version="1.0" encoding="utf-8"?>
<!-- Generator: Adobe Illustrator 20.1.0, SVG Export Plug-In . SVG Version: 6.00 Build 0)  -->
<svg version="1.1" id="Layer_1" xmlns="http://www.w3.org/2000/svg" xmlns:xlink="http://www.w3.org/1999/xlink" x="0px" y="0px"
	 viewBox="0 0 364 363.9" style="enable-background:new 0 0 364 363.9;" xml:space="preserve">
<style type="text/css">
	.st0{fill:#C5CAE9;}
	.st1{fill:#303F9F;stroke:#303F9F;stroke-width:2.8346;stroke-miterlimit:10;}
	.st2{fill:#303F9F;}
	.st3{fill:none;stroke:#9FA8DA;stroke-width:8.5039;stroke-miterlimit:10;}
	.st4{fill:#90A4AE;}
	.st5{fill:#AFBEC5;stroke:#90A4AE;stroke-width:2.8346;stroke-miterlimit:10;}
	.st6{fill:#CFD8DC;}
	.st7{fill:#AFBEC5;}
	.st8{fill:#CFD8DC;stroke:#90A4AE;stroke-width:2.8346;stroke-miterlimit:10;}
	.st9{fill:#CFD8DC;stroke:#CFD8DC;stroke-miterlimit:10;}
	.st10{fill:none;stroke:#90A4AE;stroke-miterlimit:10;}
</style>
<path class="st0" d="M277.8,42.2c-8.7-6.1-66.5-45.1-138-25.2C73.7,35.3,23.2,94.8,14.9,163.8c-7.3,61.5,19.3,121.4,70.6,157.3
	L277.8,42.2z"/>
<path class="st1" d="M277.9,40.2c9,6.1,68,47.1,74.9,122.4c6.5,69.5-32.2,139.2-95.5,172.1c-56.5,29.3-123.8,25.6-177.1-10.1
	L277.9,40.2z"/>
<g>
	<g>
		<g>
			<path class="st2" d="M182.2,359.8c-15.6,0-31.2-2.1-46.7-6.2c-45.8-12.4-84.1-41.9-107.7-83s-29.8-89.2-17.4-135l2.4,0.7
				l-2.4-0.7c12.4-45.8,41.9-84.1,83-107.7c41.2-23.6,89.1-29.8,134.9-17.4C322.9,36,379.1,133.8,353.5,228.4
				c-12.4,45.8-41.9,84.1-83,107.7C243.1,351.7,212.9,359.7,182.2,359.8z M181.7,9.2c-29.8,0-59.2,7.8-85.7,23
				c-40,23-68.7,60.1-80.7,104.7l0,0c-12,44.5-6,91.1,16.9,131.1c23,40,60.1,68.7,104.7,80.7c44.5,12,91.1,6,131.1-16.9
				c40-23,68.7-60.1,80.7-104.7C373.6,135.2,319,40.2,227.1,15.3C212,11.2,196.8,9.2,181.7,9.2z"/>
			<path class="st2" d="M182.2,361.2L182.2,361.2c-15.6,0-31.4-2.1-47.1-6.2C89,342.5,50.4,312.8,26.6,271.3
				C3,230.2-3.3,182.4,8.7,136.6l0,0l0.7-2.7l0,0C22.2,88.3,51.7,50.3,92.7,26.7c41.6-23.8,89.8-30,136-17.5
				c46.1,12.4,84.7,42.2,108.5,83.7c23.9,41.5,30.1,89.8,17.7,135.9c-12.5,46.2-42.2,84.8-83.7,108.6
				C244,352.9,213.2,361.1,182.2,361.2z M11.4,137.4c-11.8,45.1-5.6,92.1,17.6,132.5c23.4,40.8,61.4,70,106.8,82.3
				c15.4,4.1,31,6.1,46.3,6.2c30.5-0.1,60.8-8.2,87.6-23.5c40.8-23.4,70-61.4,82.3-106.8c12.3-45.4,6.1-92.9-17.4-133.8
				C311.3,53.4,273.4,24.1,228,11.9C182.6-0.4,135,5.7,94.1,29.2c-40.4,23.2-69.4,60.6-82,105.5l1.1,0.3l-0.8,2.7L11.4,137.4z
				 M182.3,356.2c-15.3,0-30.6-2-45.7-6.1C91.7,338,54.2,309.1,31,268.7C7.9,228.4,1.9,181.5,14,136.6C26,91.7,54.9,54.2,95.3,31
				c26.4-15.2,56.3-23.2,86.4-23.2c15.3,0,30.7,2.1,45.8,6.1C272.3,26.1,309.8,55,333,95.4c23.2,40.4,29.3,87.3,17.1,132.1
				c-12.1,44.8-41,82.3-81.4,105.6C242,348.4,212.3,356.2,182.3,356.2z M181.7,10.6c-29.6,0-59,7.9-85,22.8
				C57,56.3,28.6,93.2,16.7,137.3c-11.9,44.2-6,90.3,16.8,130c22.9,39.7,59.7,68.2,103.8,80c44.2,11.9,90.3,6,130-16.8
				c39.7-22.9,68.2-59.7,80-103.8c11.9-44.1,6-90.2-16.9-130c-22.8-39.7-59.7-68.2-103.7-80.1C212,12.7,196.8,10.6,181.7,10.6z"/>
		</g>
	</g>
	<g>
		<g>
			<path class="st2" d="M181.9,362.5c-15.8,0-31.7-2.1-47.1-6.3C38.7,330.3-18.3,230.9,7.7,134.8C20.3,88.4,50.2,49.5,92.1,25.5
				s90.5-30.4,137-17.8s85.4,42.6,109.4,84.4s30.3,90.5,17.7,137C335,307.7,263.3,362.5,181.9,362.5z M181.8,6.4
				c-30.3,0-60.2,7.9-87.2,23.4C53.9,53.2,24.7,91,12.5,136.2c-25.3,93.4,30.2,190,123.6,215.3c15,4.1,30.4,6.1,45.8,6.1
				c79.1,0,148.8-53.3,169.5-129.7c12.2-45.3,6.1-92.6-17.2-133.2c-23.3-40.7-61.1-69.8-106.4-82C212.6,8.4,197.1,6.4,181.8,6.4z
				 M181.9,356.9L181.9,356.9c-15.4,0-30.7-2-45.6-6.1C44,325.8-11,231.1,12.5,138.8l-0.3-0.1l1.3-4.8l0.3,0.1
				C40,42.3,135.3-11.8,227.6,13.2c45.1,12.2,82.7,41.2,106,81.7c23.3,40.5,29.3,87.6,17.2,132.7
				C330.2,303.7,260.7,356.9,181.9,356.9z M18,137.7C-6.4,228.1,47.2,321.5,137.6,346c14.5,3.9,29.4,5.9,44.3,5.9
				c76.6,0,144-51.6,164-125.5c11.8-43.8,5.9-89.6-16.7-128.9S270,30,226.2,18.1C135.9-6.4,42.4,47.2,18,137.7L18,137.7z"/>
			<path class="st2" d="M181.9,363.9c-16.1,0-32-2.1-47.5-6.3c-46.8-12.6-86-42.8-110.2-85C0.1,230.4-6.3,181.3,6.4,134.5
				c12.7-46.9,42.9-86,85.1-110.2C133.7,0.1,182.8-6.3,229.5,6.4c46.9,12.7,86.1,42.9,110.3,85.1c24.2,42.2,30.5,91.2,17.8,138.1
				C336.3,308.7,264,363.9,181.9,363.9z M182,2.8c-30.9,0-61.5,8.1-89.1,23.9C51.4,50.5,21.7,89,9.1,135.2
				c-12.5,46.1-6.2,94.4,17.6,135.9c23.8,41.6,62.4,71.3,108.5,83.7c15.2,4.1,30.9,6.3,46.7,6.3c80.8,0,151.9-54.4,172.9-132.4
				c12.5-46.1,6.3-94.4-17.6-135.9c-23.8-41.5-62.4-71.2-108.5-83.7C213.3,4.9,197.6,2.8,182,2.8z M181.9,359
				c-15.7,0-31.2-2.1-46.2-6.2c-45.5-12.3-83.6-41.7-107.2-82.8C5,229.1-1.2,181.4,11.2,135.9C23.5,90.3,52.9,52.2,93.9,28.6
				C120.8,13.2,151.2,5,181.8,5c15.9,0,31.5,2.1,46.4,6.4C273.9,23.7,312,53,335.5,94c23.5,40.9,29.6,88.6,17.3,134.3
				C332,305.3,261.7,359,181.9,359z M14,137.8l0.3,0.1l-0.3,1.3c-11.3,44.3-4.8,90.5,18.3,130.2c23.1,39.7,60.2,68.1,104.5,80.1
				c14.6,4,29.8,6.1,45.2,6.1c78.2,0,147.1-52.7,167.5-128.3c12-44.8,6-91.6-17.1-131.6c-23.1-40.2-60.4-68.9-105.1-81
				C183,2.6,136.6,8.5,96.7,31.1C56.7,53.7,27.8,90.4,15.2,134.4l-0.4,1.4l-0.3-0.1L14,137.8z M181.9,353.3c-15,0-30-2-44.7-5.9
				C46.2,322.7-7.9,228.5,16.7,137.4h0c11.9-44.1,40.3-81,80-103.8c39.7-22.8,85.8-28.8,129.9-16.8c44.2,12,81.1,40.4,103.9,80.1
				c22.8,39.6,28.8,85.8,16.8,130C327.1,301.3,259.1,353.3,181.9,353.3z M181.7,13.6c-29,0-57.7,7.6-83.6,22.5
				c-39.1,22.4-67,58.7-78.7,102.1h0c-24.2,89.6,29,182.3,118.6,206.6c14.4,3.9,29.2,5.9,43.9,5.9c75.9,0,142.8-51.2,162.6-124.5
				c11.7-43.5,5.8-88.9-16.6-127.8c-22.4-39-58.7-66.9-102.1-78.7C211.3,15.5,196.4,13.6,181.7,13.6z"/>
		</g>
	</g>
</g>
<circle class="st3" cx="182.1" cy="181.9" r="169.4"/>
<path class="st4" d="M91.4,256.5c0.5-11.2,30.2-21.9,55.1-21.4c29.4,0.5,62,15.5,61.1,27.4c-0.8,12.3-37.7,22.2-68.3,17.9
	C118.9,278,91,267.7,91.4,256.5z"/>
<path class="st5" d="M80.7,245.8c0.5-10.3,27.9-20.2,50.9-19.9c27,0.5,57.1,14.2,56.4,25.4c-0.8,11.2-34.6,20.2-62.8,16.7
	C105.7,265.7,80.3,256.2,80.7,245.8z"/>
<path class="st6" d="M72.3,235.5c0.5-11.9,31.4-23,58-22.7c30.9,0.5,64.8,16.2,63.9,28.9c-0.8,12.7-39.4,23-71.5,19
	C101.4,257.8,72.3,247,72.3,235.5z"/>
<path class="st7" d="M84.2,218.9c0.5-11.9,31.4-23,58-22.7c30.9,0.5,64.8,16.2,63.9,28.9c-0.8,12.7-39.4,23-71.5,19
	C112.9,241.1,83.9,230.3,84.2,218.9z"/>
<path class="st4" d="M77,202.9c0.5-10.7,29.4-20.7,54.4-20.2c28.9,0.5,61.1,14.7,60,25.9c-0.8,11.5-36.9,21-67.1,17.2
	C104.2,223.3,77,213.3,77,202.9z"/>
<path class="st8" d="M66.3,193.4c0.5-10.3,27.9-20.2,50.9-19.9c27,0.5,57.1,14.2,56.4,25.4c-0.8,11.2-34.6,20.2-62.8,16.7
	C91.8,212.9,66,203.4,66.3,193.4z"/>
<path class="st7" d="M58.5,182.7c0.5-11.9,31.4-23,58-22.7c30.9,0.5,64.8,16.2,63.9,28.9c-0.8,12.7-39.4,23-71.5,19
	C87,205.4,58.1,194.7,58.5,182.7z"/>
<path class="st7" d="M70,166c0.5-11.9,31.4-23,58-22.7c30.9,0.5,64.8,16.2,63.9,28.9c-0.8,12.7-39.4,23-71.5,19
	C98.5,188.7,69.5,178,70,166z"/>
<path class="st4" d="M102.9,150.1c0.5-10.3,27.9-20.2,50.9-19.9c27,0.5,57.1,14.2,56.4,25.4c-0.8,11.2-34.6,20.2-62.8,16.7
	C128.4,169.7,102.9,160,102.9,150.1z"/>
<path class="st5" d="M92.2,141c0.5-10.3,27.9-20.2,50.9-19.9c27,0.5,57.1,14.2,56.4,25.4c-0.8,11.2-34.6,20.2-62.8,16.7
	C117.6,160.5,91.8,151,92.2,141z"/>
<path class="st7" d="M84.2,130.3c0.5-11.9,31.4-23,58-22.7c30.9,0.5,64.8,16.2,63.9,28.9c-0.8,12.7-39.4,23-71.5,19
	C112.9,153,83.9,141.8,84.2,130.3z"/>
<path class="st4" d="M95.7,113.6c0.5-11.9,31.4-23,58-22.7c30.9,0.5,64.8,16.2,63.9,28.9c-0.8,12.7-39.4,23-71.5,19
	C124.4,136.3,95.4,125.1,95.7,113.6z"/>
<path class="st9" d="M88.7,97.4c0.5-10.3,27.9-20.2,50.9-19.9c27,0.5,57.1,14.2,56.4,25.4c-0.8,11.2-34.6,20.2-62.8,16.7
	C114.1,117.2,88.7,107.7,88.7,97.4z"/>
<path class="st7" d="M76.7,87.4c0.5-11.9,31.4-23,58-22.7c30.9,0.5,64.8,16.2,63.9,28.9c-0.8,12.7-39.4,23-71.5,19
	C105.4,110.1,76.3,98.9,76.7,87.4z"/>
<path class="st6" d="M88.2,70.7c0.5-11.9,31.4-23,58-22.7c30.9,0.5,64.8,16.2,63.9,28.9c-0.8,12.7-39.4,23-71.5,19
	C116.9,93.4,87.8,82.2,88.2,70.7z"/>
<g>
	<path class="st10" d="M283.2,227.3c1.2,0,12.7,2,13.5,6c0.5,3.2-6.7,8-17.9,10.7"/>
	<path class="st10" d="M276.9,186.2c1.2,0,13.2-0.8,14.2,3.2c1.2,3.2-5.2,9.2-15.5,14.2"/>
	<path class="st10" d="M270.5,164.8c11.2-3.5,17.9-8.3,17.5-11.5c-0.8-4-12.3-5.2-13.5-5.2"/>
	<path class="st10" d="M268.2,108.1c1.2,0,12.7-1.5,14.7,2c1.2,3.2-4.4,9.5-14.2,15.5"/>
	<polygon class="st7" points="216.1,99.7 270.2,83.8 271,104.4 272.5,149.3 248.3,156.5 	"/>
	<polygon class="st4" points="225.6,127.9 281.7,125.1 277.7,145 269,189.1 243.5,190.7 	"/>
	<polygon class="st7" points="225.6,174.4 280.5,162.5 279.7,182.7 278.2,227.6 253.5,233.1 	"/>
	<polygon class="st4" points="236,204.9 291.9,204.9 287.2,224.8 276.2,268.5 250.7,268.5 	"/>
</g>
</svg>
