<?xml version="1.0" encoding="utf-8"?>
<!-- Generator: Adobe Illustrator 20.1.0, SVG Export Plug-In . SVG Version: 6.00 Build 0)  -->
<svg version="1.1" id="Layer_1" xmlns="http://www.w3.org/2000/svg" xmlns:xlink="http://www.w3.org/1999/xlink" x="0px" y="0px"
	 viewBox="0 0 595.3 841.9" style="enable-background:new 0 0 595.3 841.9;" xml:space="preserve">
<style type="text/css">
	.st0{fill:#065D67;stroke:#065D67;stroke-width:5.6693;stroke-miterlimit:10;}
	.st1{fill:#2E7E33;}
	.st2{fill:none;stroke:#67B86A;stroke-width:5.6693;stroke-miterlimit:10;}
	.st3{fill:#FDF39F;stroke:#FFFFFF;stroke-miterlimit:10;}
	.st4{fill:#FFFFFF;stroke:#FDF39F;stroke-miterlimit:10;}
	.st5{fill:#439F46;}
	.st6{fill:#67B86A;}
</style>
<circle class="st0" cx="298.6" cy="360.7" r="192.6"/>
<path class="st1" d="M384.1,193.8C338.1,309,292,424.3,245.9,539.6c-13-3.9-73.8-23.4-109.5-86.7c-41.1-72.8-16.2-145.3-12.4-155.9
	c5.7-16.1,22.3-65.2,72.9-93.5C305.1,143.1,371.8,190.8,384.1,193.8z"/>
<circle class="st2" cx="298.7" cy="360.2" r="187"/>
<g>
	<g>
		<polygon class="st3" points="195.5,238.2 136.7,401.7 181,453.8 245.6,274.3 		"/>
		<path class="st3" d="M195.3,238.8l38.5-18.4c3.9,17.9,7.9,35.9,11.8,53.8C228.9,262.4,212.1,250.6,195.3,238.8z"/>
		<path class="st3" d="M292.8,231c4.1,17.8,8.2,35.6,12.3,53.4l-59.4-10.1l-12.1-53.9C253.3,223.9,273,227.4,292.8,231z"/>
		<path class="st3" d="M297.9,216.8c-1.9,5.4-3.9,10.8-5.8,16.2c-19.5-4.2-39-8.4-58.5-12.6l6.2-17.3L297.9,216.8z"/>
		<polygon class="st3" points="305.1,284.4 245.5,449.9 181,453.8 245.6,274.3 		"/>
	</g>
	
		<ellipse transform="matrix(0.3387 -0.9409 0.9409 0.3387 -60.1378 424.1555)" class="st4" cx="271.7" cy="254.9" rx="11.8" ry="11.8"/>
</g>
<g>
	<polygon class="st3" points="338.9,333 326,227.3 363.5,210.9 419.3,229.1 429.6,333.8 392.9,352.4 	"/>
	<path class="st3" d="M416.8,231.6c-12.9,6.2-25.9,12.4-38.8,18.5c4.6,32.7,9.5,67.4,14.1,100.1"/>
	<path class="st3" d="M327.9,228.9c16.7,7.1,33.4,14.1,50.1,21.2"/>
</g>
<g>
	<path class="st3" d="M266.8,436.6c9.1,5.6,22.6,12.3,39.9,15.3c41.7,7.2,74.7-12.1,84.4-18.3l8.1,9.3
		c-13.3,12.8-24.6,24.4-33.9,34.4c-13.9,14.9-20,22.4-22.9,33.8c-2.2,8.9-1.5,16.8-0.6,22.2c-2.2-2.1-7.4-7.5-9.1-16.1
		c-1.7-8.6,1.2-15.4,2.6-18.9c2.6-6.2,6.3-10.4,8.7-12.8c-4.2,2.9-10.4,6.3-18.4,8.2c-19.6,4.6-35.8-3.4-40.8-6.1
		c4.8-0.3,11.5-1.3,19-4.1c6.2-2.4,11.1-5.3,14.6-7.8c-2.5-0.9-6.1-2.3-10.3-4.2c-7.7-3.5-17.5-7.6-26.5-16.1
		C274.4,448.4,269.6,441.4,266.8,436.6z"/>
	<path d="M391.7,432.5l-11.2,6.4c3.2,4.4,6.5,8.9,9.7,13.3c3.5-3.2,6.9-6.3,10.4-9.5L391.7,432.5z"/>
</g>
<g>
	<path class="st5" d="M315.6,434.5c-2.6,12.7-5.5,25.9-8.1,38.6c-0.1,0.1-0.3,0.2-0.5,0.4c0,0-1,0.7-1.9,1.3c-3,1.8-6.9,2.7-6.9,2.7
		c-6,1.3-10.7,0-11.6-0.3l0,0c-8.4-1.8-14.3-5.3-20.8-9.2c-4.8-2.9-8.5-5.6-10.9-7.4c-4,7.1-8,14.2-12,21.3l-3.3-58.4
		c18.8-9.4,37.5-18.9,56.3-28.3c-4,7-8,14-12,21L315.6,434.5z"/>
	<path class="st6" d="M330.7,361.8c19.4,1.6,38.9,3.3,58.3,4.9c0,0.1-0.1,0.7-0.2,1.5c0,0-7.8,63.7-12.2,69.7c0,0,0,0,0,0
		c0,0,0,0,0,0c-1.6,2.4-4.9,6.3-12,10.6c-9.8,6-29.8,15.1-55.9,24.6C316,436,323.4,398.9,330.7,361.8z"/>
	<path class="st5" d="M196.7,349.8c-8.2-10-16.5-20.6-24.8-30.6c0-0.2,0-0.4,0-0.6c0,0,0.1-1.2,0.2-2.3c0.5-3.5,2.3-7.1,2.3-7.1
		c2.8-5.5,6.7-8.3,7.6-8.8l0,0c6.7-5.4,13.2-7.8,20.3-10.3c5.3-1.9,9.7-3.1,12.6-3.8c-3-7.6-5.9-15.2-8.9-22.8l47.3,34.4
		c-4.5,20.5-9.1,41-13.6,61.5c-2.9-7.5-5.8-15.1-8.7-22.6L196.7,349.8z"/>
	<path class="st6" d="M243.5,407.4c-13.5,14-27.1,28.1-40.6,42.1c-0.1-0.1-0.5-0.5-1-1.1c0,0-44.4-46.3-46.3-53.5c0,0,0,0,0,0
		c0,0,0,0,0,0c-0.8-2.8-1.8-7.7-0.6-15.9c1.6-11.4,7.2-32.7,16.3-58.9C195.2,349.2,219.4,378.3,243.5,407.4z"/>
	<path class="st5" d="M336.6,289.5c12.1-4.7,24.7-9.3,36.8-14.1c0.2,0.1,0.4,0.1,0.6,0.2c0,0,1.1,0.4,2.1,0.9c3.1,1.5,6,4.4,6,4.4
		c4.3,4.3,5.8,9,6,9.9l0,0c3,8,3.3,14.9,3.5,22.4c0.2,5.6-0.1,10.2-0.3,13.2c8.1-0.5,16.3-0.9,24.4-1.4l-47.3,34.4
		c-18.1-10.7-36.2-21.3-54.3-32c8.1-0.4,16.1-0.8,24.2-1.3L336.6,289.5z"/>
	<path class="st6" d="M267.3,316.2c-9.2-17.2-18.3-34.4-27.5-51.7c0.1-0.1,0.7-0.3,1.3-0.6c0,0,57.7-27.9,65.2-27.5c0,0,0,0,0,0h0
		c2.9,0.1,7.9,0.7,15.4,4.3c10.3,5,28.8,16.9,51,33.7C337.6,288.3,302.4,302.2,267.3,316.2z"/>
</g>
</svg>
