<?xml version="1.0" encoding="utf-8"?>
<!-- Generator: Adobe Illustrator 19.2.1, SVG Export Plug-In . SVG Version: 6.00 Build 0)  -->
<svg version="1.1" id="Graphics" xmlns="http://www.w3.org/2000/svg" xmlns:xlink="http://www.w3.org/1999/xlink" x="0px" y="0px"
	 viewBox="0 0 500 500" style="enable-background:new 0 0 500 500;" xml:space="preserve">
<style type="text/css">
	.st0{fill:#E87800;}
	.st1{fill:#EEF3F3;}
	.st2{fill:#F4D100;}
	.st3{clip-path:url(#SVGID_2_);fill:#00727B;}
	.st4{fill:#F7D92A;}
	.st5{fill:#F5B12D;}
</style>
<g>
	<g>
		<g>
			<path class="st0" d="M250,14c31.9,0,62.8,6.2,91.9,18.5c28.1,11.9,53.3,28.9,75,50.6c21.7,21.7,38.7,46.9,50.6,75
				c12.3,29.1,18.5,60,18.5,91.9s-6.2,62.8-18.5,91.9c-11.9,28.1-28.9,53.3-50.6,75c-21.7,21.7-46.9,38.7-75,50.6
				c-29.1,12.3-60,18.5-91.9,18.5s-62.8-6.2-91.9-18.5c-28.1-11.9-53.3-28.9-75-50.6c-21.7-21.7-38.7-46.9-50.6-75
				C20.2,312.8,14,281.9,14,250s6.2-62.8,18.5-91.9c11.9-28.1,28.9-53.3,50.6-75c21.7-21.7,46.9-38.7,75-50.6
				C187.2,20.2,218.1,14,250,14 M250,0C111.9,0,0,111.9,0,250s111.9,250,250,250s250-111.9,250-250S388.1,0,250,0L250,0z"/>
		</g>
		<g>
			<path class="st1" d="M250,479c-61.2,0-118.7-23.8-161.9-67.1C44.8,368.7,21,311.2,21,250c0-61.2,23.8-118.7,67.1-161.9
				S188.8,21,250,21c61.2,0,118.7,23.8,161.9,67.1C455.2,131.3,479,188.8,479,250s-23.8,118.7-67.1,161.9
				C368.7,455.2,311.2,479,250,479z"/>
			<path class="st2" d="M250,28c30,0,59,5.9,86.4,17.4C362.8,56.6,386.6,72.6,407,93s36.4,44.1,47.6,70.6C466.1,191,472,220,472,250
				s-5.9,59-17.4,86.4c-11.2,26.4-27.2,50.2-47.6,70.6c-20.4,20.4-44.1,36.4-70.6,47.6C309,466.1,280,472,250,472s-59-5.9-86.4-17.4
				c-26.4-11.2-50.2-27.2-70.6-47.6c-20.4-20.4-36.4-44.1-47.6-70.6C33.9,309,28,280,28,250s5.9-59,17.4-86.4
				C56.6,137.2,72.6,113.4,93,93c20.4-20.4,44.1-36.4,70.6-47.6C191,33.9,220,28,250,28 M250,14C119.7,14,14,119.7,14,250
				c0,130.3,105.7,236,236,236c130.3,0,236-105.7,236-236C486,119.7,380.3,14,250,14L250,14z"/>
		</g>
	</g>
	<g>
		<g>
			<defs>
				<path id="SVGID_1_" d="M472.2,250c0,122.7-99.5,222.2-222.2,222.2c-122.7,0-222.2-99.5-222.2-222.2
					c0-122.7,99.5-222.2,222.2-222.2C372.7,27.8,472.2,127.3,472.2,250"/>
			</defs>
			<clipPath id="SVGID_2_">
				<use xlink:href="#SVGID_1_"  style="overflow:visible;"/>
			</clipPath>
			<path class="st3" d="M250,27.8C127.3,27.8,27.8,127.3,27.8,250c0,122.7,99.5,222.2,222.2,222.2V27.8z"/>
		</g>
	</g>
	<path class="st4" d="M314.3,73.5c-16.3,47-32.5,94-48.8,141.3c31.5,0,62.8,0,94.1,0c0.1,0.1,0.1,0.2,0.2,0.3
		C305.6,281,251.5,346.9,197.3,412.8c-0.2-0.1-0.3-0.1-0.4-0.2c16.3-47,32.5-94.1,48.9-141.3c-31.5,0-62.8,2.5-94.5,2.5
		c54.4-66.2,108.5-134.6,162.7-200.4C314,73.4,314.2,73.4,314.3,73.5z"/>
	<path class="st5" d="M359.7,215.1c-0.1-0.1-0.1-0.2-0.2-0.3c-31.3,0-62.6,0-94.1,0c16.3-47.2,32.6-94.2,48.8-141.2l-0.3-0.3
		l-95.7,172.2l81.3-2.4L197.3,412.8C251.5,346.9,305.6,281,359.7,215.1z"/>
</g>
</svg>
