<svg id="Graphics" xmlns="http://www.w3.org/2000/svg" viewBox="0 0 500 500"><defs><style>.cls-1{fill:#564677;}.cls-2{fill:#eef3f3;}.cls-3,.cls-5{fill:#ab8eb8;}.cls-4{fill:#d8e3e2;}.cls-4,.cls-5{fill-rule:evenodd;}.cls-6,.cls-7{fill:#bccfd1;}.cls-11,.cls-7{opacity:0.5;}.cls-8{fill:#12ad9c;}.cls-9{fill:#1aa9d2;}.cls-10{fill:#00727b;}.cls-11{fill:#1e4a54;}</style></defs><title>act_consumption_06_el_used</title><path class="cls-1" d="M250,14a236.07,236.07,0,0,1,91.86,453.46A236.06,236.06,0,0,1,158.14,32.54,234.51,234.51,0,0,1,250,14m0-14C111.93,0,0,111.93,0,250S111.93,500,250,500,500,388.07,500,250,388.07,0,250,0h0Z"/><path class="cls-2" d="M250,479A229,229,0,0,1,88.08,88.08,229,229,0,1,1,411.92,411.92,227.5,227.5,0,0,1,250,479Z"/><path class="cls-3" d="M250,28a222.06,222.06,0,0,1,86.4,426.56A222.06,222.06,0,0,1,163.6,45.44,220.58,220.58,0,0,1,250,28m0-14C119.67,14,14,119.67,14,250S119.67,486,250,486,486,380.33,486,250,380.33,14,250,14h0Z"/><path class="cls-4" d="M273.89,165.08c-2.75,4.54-5.55,9.36-8.38,14.2a35.16,35.16,0,0,0-3.81,7.51,24.62,24.62,0,0,0-1.06,9.93,14.43,14.43,0,0,0,6.26,10.71,27,27,0,0,0,3.38,2.21c5,2.59,12.31,3.07,19.66,2.39,5.55-9.27,10.94-18.7,16.35-28.12C295.51,177.66,284.61,171.17,273.89,165.08Z"/><path class="cls-4" d="M325,253.86q0,4.07,0,8.14a0.43,0.43,0,0,0,.35-0.21c1.74-2.09,3.41-4.6,5.12-6.82,5.51-7.15,11-14.65,16.54-21.77-7.3-9.61-14.59-19.58-21.88-29q0,5.93,0,11.87L289.45,216a86.24,86.24,0,0,1-8.69-.16c-7.88-.85-14.23-3.5-18.06-8.67,5.75,10.88,11.58,21.93,17.52,33a49.16,49.16,0,0,0,2.55,4.63c1.6,2.32,4.7,4.09,7.58,5.26a42,42,0,0,0,10.28,2.58C308.33,253.7,317,253.2,325,253.86Z"/><path class="cls-4" d="M356.83,253.46c5.31,0.11,10.88.13,16.48,0.16a35.16,35.16,0,0,0,8.41-.45,24.62,24.62,0,0,0,9.13-4.05A14.43,14.43,0,0,0,397,238.34a27,27,0,0,0,.23-4c-0.25-5.61-3.5-12.19-7.76-18.22-10.8-.17-21.67-0.12-32.52-0.1C356.91,228.45,356.74,241.14,356.83,253.46Z"/><path class="cls-4" d="M408.14,164.77l7.06-4.06a0.43,0.43,0,0,0-.35-0.19c-2.68-.46-5.69-0.66-8.46-1-8.94-1.2-18.18-2.19-27.12-3.43-4.67,11.12-9.66,22.42-14.14,33.43l10.29-5.91,17.77,30.93a86.24,86.24,0,0,1,4.21,7.61c3.2,7.25,4.09,14.07,1.52,20,6.55-10.42,13.2-21,19.78-31.65a49.16,49.16,0,0,0,2.73-4.52c1.2-2.55,1.19-6.12.77-9.19a42,42,0,0,0-2.91-10.19C416.35,179.32,411.58,172.07,408.14,164.77Z"/><path class="cls-4" d="M391.81,137c-2.55-4.65-5.33-9.48-8.11-14.35a35.16,35.16,0,0,0-4.6-7.06,24.62,24.62,0,0,0-8.07-5.88,14.43,14.43,0,0,0-12.4.06,27,27,0,0,0-3.61,1.82c-4.73,3-8.81,9.13-11.9,15.83,5.25,9.44,10.73,18.83,16.18,28.21C370.11,149.42,381.18,143.22,391.81,137Z"/><path class="cls-4" d="M289.35,136.89l-7-4.09a0.43,0.43,0,0,0,0,.4c0.94,2.55,2.28,5.26,3.34,7.84,3.43,8.34,7.2,16.84,10.59,25.21,12-1.51,24.25-2.85,36-4.47l-10.27-6L339.9,125a86.24,86.24,0,0,1,4.48-7.45c4.68-6.4,10.14-10.58,16.53-11.31-12.3-.46-24.78-0.93-37.3-1.3a49.16,49.16,0,0,0-5.28-.11c-2.81.23-5.89,2-8.34,3.93a42,42,0,0,0-7.37,7.61C297.84,122.49,293.95,130.25,289.35,136.89Z"/><path class="cls-5" d="M259,157.64c-2.75,4.54-5.55,9.36-8.38,14.2a35.16,35.16,0,0,0-3.81,7.51,24.62,24.62,0,0,0-1.06,9.93A14.43,14.43,0,0,0,252,200a27,27,0,0,0,3.38,2.21c5,2.59,12.31,3.07,19.66,2.39,5.55-9.27,10.94-18.7,16.35-28.12C280.63,170.22,269.73,163.72,259,157.64Z"/><path class="cls-5" d="M310.16,246.42q0,4.07,0,8.14a0.43,0.43,0,0,0,.35-0.21c1.74-2.09,3.41-4.6,5.12-6.82,5.51-7.15,11-14.65,16.54-21.77-7.3-9.61-14.59-19.58-21.88-29q0,5.93,0,11.87l-35.68-.07a86.24,86.24,0,0,1-8.69-.16c-7.88-.85-14.23-3.5-18.06-8.67,5.75,10.88,11.58,21.93,17.52,33a49.16,49.16,0,0,0,2.55,4.63c1.6,2.32,4.7,4.09,7.58,5.26a42,42,0,0,0,10.28,2.58C293.45,246.26,302.12,245.76,310.16,246.42Z"/><path class="cls-5" d="M341.94,246c5.31,0.11,10.88.13,16.48,0.16a35.16,35.16,0,0,0,8.41-.45,24.62,24.62,0,0,0,9.13-4.05,14.43,14.43,0,0,0,6.15-10.77,27,27,0,0,0,.23-4c-0.25-5.61-3.5-12.19-7.76-18.22-10.8-.17-21.67-0.12-32.52-0.1C342,221,341.85,233.69,341.94,246Z"/><path class="cls-5" d="M393.25,157.33l7.06-4.06a0.43,0.43,0,0,0-.35-0.19c-2.68-.46-5.69-0.66-8.46-1-8.94-1.2-18.18-2.19-27.12-3.43C359.7,159.74,354.71,171,350.23,182l10.29-5.91,17.77,30.93a86.24,86.24,0,0,1,4.21,7.61c3.2,7.25,4.09,14.07,1.52,20,6.55-10.42,13.2-21,19.78-31.65a49.16,49.16,0,0,0,2.73-4.52c1.2-2.55,1.19-6.12.77-9.19a42,42,0,0,0-2.91-10.19C401.47,171.88,396.7,164.63,393.25,157.33Z"/><path class="cls-5" d="M376.93,129.54c-2.55-4.65-5.33-9.48-8.11-14.35a35.16,35.16,0,0,0-4.6-7.06,24.62,24.62,0,0,0-8.07-5.88,14.43,14.43,0,0,0-12.4.06,27,27,0,0,0-3.61,1.82c-4.73,3-8.81,9.13-11.9,15.83,5.25,9.44,10.73,18.83,16.18,28.21C355.22,142,366.3,135.78,376.93,129.54Z"/><path class="cls-5" d="M274.47,129.44l-7-4.09a0.43,0.43,0,0,0,0,.4c0.94,2.55,2.28,5.26,3.34,7.84,3.43,8.34,7.2,16.84,10.59,25.21,12-1.51,24.25-2.85,36-4.47l-10.27-6L325,117.53a86.24,86.24,0,0,1,4.48-7.45c4.68-6.4,10.14-10.58,16.53-11.31-12.3-.46-24.78-0.93-37.3-1.3a49.16,49.16,0,0,0-5.28-.11c-2.81.23-5.89,2-8.34,3.93a42,42,0,0,0-7.37,7.61C283,115.05,279.06,122.81,274.47,129.44Z"/><path class="cls-6" d="M135.06,265.61v-71a9.52,9.52,0,0,0-19,0v71h19Z"/><path class="cls-6" d="M199.44,265.61v-71a9.52,9.52,0,0,0-19,0v71h19Z"/><polygon class="cls-6" points="89.17 256.14 89.17 271.9 103.76 271.9 106.35 290.03 112.78 341.42 194.17 341.42 208.23 271.9 226.29 271.9 226.29 256.14 89.17 256.14"/><polygon class="cls-7" points="154.26 341.42 194.17 341.42 208.23 271.9 226.29 271.9 226.29 256.14 154.26 256.14 154.26 341.42"/><path class="cls-6" d="M286.7,292.24c-22.82,9.22-43.35,33.78-59.37,71-10.07,23.41-27.24,30.44-39.72,27s-25.44-18.76-21.39-51l-20.59-2.58c-5.7,45.47,16.12,68.09,36.54,73.65,21.19,5.73,49.24-4,64.23-38.87,13.61-31.65,30.69-53,48.08-60C325.4,299,352,306.6,363.92,331.35c12.81,26.61,5.54,66-26.22,103.43a204.65,204.65,0,0,0,41.91-26.6c14.2-31.43,14.47-62,3-85.84C366,287.86,327.47,275.77,286.7,292.24Z"/><path class="cls-8" d="M276.7,282.24c-22.82,9.22-43.35,33.78-59.37,71-10.07,23.41-27.24,30.44-39.72,27s-25.44-18.76-21.39-51l-20.59-2.58c-5.7,45.47,16.12,68.09,36.54,73.65,21.19,5.73,49.24-4,64.23-38.87,13.61-31.65,30.69-53,48.08-60C315.4,289,342,296.6,353.92,321.35c15.35,31.9,1.86,82.08-48.09,125.44a203.3,203.3,0,0,0,47-20c29.77-40.9,34.74-83.44,19.82-114.46C356,277.86,317.47,265.77,276.7,282.24Z"/><path class="cls-9" d="M125.06,255.61v-71a9.52,9.52,0,0,0-19,0v71h19Z"/><path class="cls-9" d="M189.44,255.61v-71a9.52,9.52,0,0,0-19,0v71h19Z"/><polygon class="cls-10" points="79.17 246.14 79.17 261.9 93.76 261.9 96.35 280.03 102.78 331.42 184.17 331.42 198.23 261.9 216.29 261.9 216.29 246.14 79.17 246.14"/><polygon class="cls-11" points="144.26 331.42 184.17 331.42 198.23 261.9 216.29 261.9 216.29 246.14 144.26 246.14 144.26 331.42"/></svg>