<?xml version="1.0" encoding="utf-8"?>
<!-- Generator: Adobe Illustrator 20.0.0, SVG Export Plug-In . SVG Version: 6.00 Build 0)  -->
<svg version="1.1" id="Layer_1" xmlns="http://www.w3.org/2000/svg" xmlns:xlink="http://www.w3.org/1999/xlink" x="0px" y="0px"
	 viewBox="0 0 361.1 361.1" enable-background="new 0 0 361.1 361.1" xml:space="preserve">
<path fill="#01737B" d="M278.8,39.5c-8.9-6.2-67.7-45.8-140.3-25.7C71.3,32.6,19.9,93,11.5,163.2c-7.4,62.5,19.7,123.4,71.7,159.9
	L278.8,39.5z"/>
<path fill="#CFD8DC" d="M278.1,35.7c8.9,6.1,67.2,47,74,122.1c6.4,69.3-31.8,138.9-94.4,171.8c-55.8,29.1-122.4,25.6-175-10.1
	L278.1,35.7z"/>
<path fill="#F9FF5F" d="M211.1,36.1C202.1,52,193,68,184,83.9c-0.6,1.2-1.2,2.4-1.7,3.7c7.3-1.7,14.6-3.4,22.1-5
	c-12.2,22.9-18.2,34.4-17.9,34.7c0.4,0.2,8.2-13.1,23.5-39.7c-7.2,1.7-14.3,3.4-21.5,5.2C195.9,67.1,203.4,51.5,211.1,36.1z"/>
<path fill="#F4B70C" d="M211.1,36.1c-1.1,1.9-2.4,4.2-3.7,6.8c0,0-1.3,2.5-2.6,5.2c-2.3,4.3-8.4,17-16.3,34.5
	c7.2-1.7,14.3-3.4,21.5-5.2c-6,9.8-11.8,19.6-17.7,29.6c-2,3.4-4,6.8-5.9,10.2c10-15,19.9-30,29.7-45c-7.1,1.9-14,3.8-21.1,5.6
	c0.4-0.7,0.7-1.3,1-2C201,62.6,206.1,49.4,211.1,36.1z"/>
<path fill="#FFFFFF" stroke="#DBDDE0" stroke-width="2" stroke-miterlimit="10" d="M252.9,249.1H67.5c-3.2-3.8-16-20.2-14.9-43.9
	c1-19.7,10.8-32.9,14.4-37.3c13.6-3.4,27.1-6.7,40.8-10c62.5,0.1,125,0.4,187.5,0.5"/>
<line fill="none" stroke="#DBDDE0" stroke-width="2" stroke-miterlimit="10" x1="260.3" y1="169.7" x2="67.1" y2="167.9"/>
<polygon fill="#90A4AE" stroke="#DBDDE0" stroke-width="2" stroke-miterlimit="10" points="66.9,233.6 236.3,233.6 244.8,248.7 
	75.5,249 "/>
<polygon fill="#FFFFFF" stroke="#DBDDE0" stroke-miterlimit="10" points="237.4,237.8 73.9,237.8 65.7,243.3 229.2,243.6 "/>
<path fill="#FFFFFF" stroke="#DBDDE0" stroke-width="2" stroke-miterlimit="10" d="M252.6,249.1l42.1-16v-74.7L260,169.8
	c-5.2,8.2-11.4,21.1-13.1,37.5c-0.2,2.5-1,10.2,0.2,20.3C248.4,236.5,250.6,243.8,252.6,249.1z"/>
<g>
	<g>
		<path fill="#5E35B1" d="M180.8,358.4c-15.6,0-31.2-2.1-46.7-6.2C39.6,326.5-16.6,228.8,9,134.2l0,0
			C34.6,39.6,132.4-16.5,226.9,9.1c45.8,12.4,84.1,41.9,107.7,83c23.6,41.2,29.8,89.1,17.4,134.9s-41.9,84.1-83,107.7
			C241.7,350.3,211.5,358.4,180.8,358.4z M13.8,135.5C-11,227.4,43.5,322.4,135.5,347.3c44.5,12,91.1,6,131.1-16.9
			c40-23,68.7-60.1,80.7-104.7s6-91.1-16.9-131.1c-23-40-60.1-68.7-104.7-80.7C133.7-11,38.7,43.6,13.8,135.5L13.8,135.5z"/>
	</g>
	<g>
		<path fill="#5E35B1" d="M180.5,361.1c-15.8,0-31.7-2.1-47.1-6.3C37.3,328.9-19.7,229.5,6.3,133.4C18.9,87,48.8,48.1,90.7,24.1
			s90.5-30.4,137-17.8s85.4,42.6,109.4,84.4s30.3,90.5,17.7,137C333.6,306.3,261.9,361.1,180.5,361.1z M180.4,5
			c-30.3,0-60.2,7.9-87.2,23.4C52.5,51.8,23.3,89.6,11.1,134.8c-25.3,93.4,30.2,190,123.6,215.3c15,4.1,30.4,6.1,45.8,6.1
			c79.1,0,148.8-53.3,169.5-129.7c12.2-45.3,6.1-92.6-17.2-133.2c-23.3-40.7-61.1-69.8-106.4-82C211.2,7,195.7,5,180.4,5z
			 M180.5,355.5L180.5,355.5c-15.4,0-30.7-2-45.6-6.1c-92.3-25-147.3-119.7-123.8-212l-0.3-0.1l1.3-4.8l0.3,0.1
			C38.6,40.9,133.9-13.2,226.2,11.8c45.1,12.2,82.7,41.2,106,81.7c23.3,40.5,29.3,87.6,17.2,132.7
			C328.8,302.3,259.3,355.5,180.5,355.5z M16.6,136.3c-24.4,90.4,29.2,183.8,119.6,208.3c14.5,3.9,29.4,5.9,44.3,5.9
			c76.6,0,144-51.6,164-125.5c11.8-43.8,5.9-89.6-16.7-128.9s-59.2-67.5-103-79.4C134.5-7.8,41,45.8,16.6,136.3L16.6,136.3z"/>
	</g>
</g>
<circle fill="none" stroke="#B39DDB" stroke-width="5" stroke-miterlimit="10" cx="180.7" cy="180.5" r="169.4"/>
</svg>
