<?xml version="1.0" encoding="utf-8"?>
<!-- Generator: Adobe Illustrator 20.0.0, SVG Export Plug-In . SVG Version: 6.00 Build 0)  -->
<svg version="1.1" id="Layer_1" xmlns="http://www.w3.org/2000/svg" xmlns:xlink="http://www.w3.org/1999/xlink" x="0px" y="0px"
	 viewBox="0 0 359.1 359.1" enable-background="new 0 0 359.1 359.1" xml:space="preserve">
<path fill="#CFD8DC" d="M276.2,37.3C285,43.4,343,84,349.7,158.6c6.3,68.9-31.6,138-93.8,170.7c-55.4,29-121.6,25.4-173.9-10
	L276.2,37.3z"/>
<path fill="#FFF176" d="M84.4,317.5c-8.9-6-66.8-46.6-73.8-121.2C4.2,127.4,42,58.3,104.2,25.5c55.4-29.1,121.6-25.5,174,9.8
	L84.4,317.5z"/>
<polygon fill="#FFCA28" points="223,121.6 182.4,121.6 184.9,98.6 225.5,99.2 "/>
<polygon fill="#004750" points="267.2,121.6 226.6,121.6 229.2,98.6 269.9,99.2 "/>
<polygon fill="#FFCA28" points="134.6,121.6 93.9,121.6 96.5,98.6 137.2,99.2 "/>
<polygon fill="#FFCA28" points="178.9,121.6 138.3,121.6 140.8,98.6 181.4,99.2 "/>
<polygon fill="#FFCA28" points="220.3,147.7 179.6,147.7 182.2,124.8 222.9,125.4 "/>
<polygon fill="#004750" points="264.5,147.7 223.8,147.7 226.5,124.8 267.1,125.4 "/>
<polygon fill="#FFCA28" points="131.9,147.7 91.3,147.7 93.9,124.8 134.6,125.4 "/>
<polygon fill="#FFCA28" points="176.2,147.7 135.5,147.7 138.1,124.8 178.8,125.4 "/>
<polygon fill="#FFCA28" points="216.6,173.9 176,173.9 178.6,151.1 219.2,151.5 "/>
<polygon fill="#004750" points="260.9,173.9 220.3,173.9 222.9,151.1 263.5,151.5 "/>
<polygon fill="#FFCA28" points="128.2,173.9 87.7,173.9 90.2,151.1 130.9,151.5 "/>
<polygon fill="#FFCA28" points="172.6,173.9 131.9,173.9 134.4,151.1 175.2,151.5 "/>
<polygon fill="#004750" points="258.2,200.2 217.5,200.2 220.2,177.3 260.8,177.8 "/>
<polygon fill="#FFCA28" points="125.6,200.2 85,200.2 87.6,177.3 128.2,177.8 "/>
<polygon fill="#FFCA28" points="169.9,200.2 129.2,200.2 131.8,177.3 172.5,177.8 "/>
<ellipse transform="matrix(0.6858 -0.7278 0.7278 0.6858 -83.2134 116.0319)" fill="#FFFFFF" cx="92.776" cy="154.39" rx="1.3" ry="1.3"/>
<ellipse transform="matrix(0.9996 -0.0296 0.0296 0.9996 -4.6486 2.8352)" fill="#FFFFFF" cx="93.303" cy="158.207" rx="0.8" ry="0.8"/>
<ellipse transform="matrix(0.9996 -0.0296 0.0296 0.9996 -4.5881 2.9144)" fill="#FFFFFF" cx="96.004" cy="156.205" rx="0.8" ry="0.8"/>
<ellipse transform="matrix(0.6008 -0.7994 0.7994 0.6008 -68.2692 170.4482)" fill="#FFFFFF" cx="136.527" cy="153.579" rx="1.3" ry="1.3"/>
<ellipse transform="matrix(0.9901 -0.1404 0.1404 0.9901 -20.7106 20.8474)" fill="#FFFFFF" cx="137.396" cy="157.205" rx="0.8" ry="0.8"/>
<ellipse transform="matrix(0.9901 -0.1404 0.1404 0.9901 -20.3777 21.1638)" fill="#FFFFFF" cx="139.805" cy="155.004" rx="0.8" ry="0.8"/>
<ellipse transform="matrix(0.6529 -0.7574 0.7574 0.6529 -54.0552 190.6581)" fill="#FFFFFF" cx="181.008" cy="154.311" rx="1.3" ry="1.3"/>
<ellipse transform="matrix(0.9973 -0.0739 0.0739 0.9973 -11.1808 13.8598)" fill="#FFFFFF" cx="181.806" cy="158.104" rx="0.8" ry="0.8"/>
<ellipse transform="matrix(0.9973 -0.0739 0.0739 0.9973 -11.0189 14.0389)" fill="#FFFFFF" cx="184.309" cy="156.004" rx="0.8" ry="0.8"/>
<ellipse transform="matrix(0.5778 -0.8162 0.8162 0.5778 -90.3584 185.2009)" fill="#FFFFFF" cx="133.829" cy="179.938" rx="1.3" ry="1.3"/>
<ellipse transform="matrix(0.9857 -0.1685 0.1685 0.9857 -29.008 25.3556)" fill="#FFFFFF" cx="134.898" cy="183.601" rx="0.8" ry="0.8"/>
<ellipse transform="matrix(0.9857 -0.1685 0.1685 0.9857 -28.57 25.7079)" fill="#FFFFFF" cx="137.193" cy="181.197" rx="0.8" ry="0.8"/>
<ellipse transform="matrix(0.5778 -0.8162 0.8162 0.5778 -109.2818 149.3716)" fill="#FFFFFF" cx="89.736" cy="180.314" rx="1.3" ry="1.3"/>
<ellipse transform="matrix(0.9857 -0.1685 0.1685 0.9857 -29.723 17.9326)" fill="#FFFFFF" cx="90.803" cy="184.103" rx="0.8" ry="0.8"/>
<ellipse transform="matrix(0.9857 -0.1685 0.1685 0.9857 -29.2676 18.2839)" fill="#FFFFFF" cx="93.1" cy="181.595" rx="0.8" ry="0.8"/>
<ellipse transform="matrix(0.3327 -0.943 0.943 0.3327 -57.359 176.2948)" fill="#FFFFFF" cx="95.892" cy="128.678" rx="1.3" ry="1.3"/>
<ellipse transform="matrix(0.9021 -0.4315 0.4315 0.9021 -47.3596 55.2014)" fill="#FFFFFF" cx="97.986" cy="131.983" rx="0.8" ry="0.8"/>
<ellipse transform="matrix(0.9021 -0.4315 0.4315 0.9021 -45.9764 55.5663)" fill="#FFFFFF" cx="99.482" cy="129.117" rx="0.8" ry="0.8"/>
<ellipse transform="matrix(0.5352 -0.8447 0.8447 0.5352 -42.7368 178.3082)" fill="#FFFFFF" cx="140.662" cy="127.99" rx="1.3" ry="1.3"/>
<ellipse transform="matrix(0.9757 -0.2189 0.2189 0.9757 -25.3885 34.2318)" fill="#FFFFFF" cx="141.783" cy="131.686" rx="0.8" ry="0.8"/>
<ellipse transform="matrix(0.9757 -0.2189 0.2189 0.9757 -24.7898 34.6535)" fill="#FFFFFF" cx="143.985" cy="129.196" rx="0.8" ry="0.8"/>
<ellipse transform="matrix(0.251 -0.968 0.968 0.251 -25.0129 172.3239)" fill="#FFFFFF" cx="98.847" cy="102.325" rx="1.3" ry="1.3"/>
<ellipse transform="matrix(0.862 -0.5069 0.5069 0.862 -39.5282 65.7966)" fill="#FFFFFF" cx="101.081" cy="105.498" rx="0.8" ry="0.8"/>
<ellipse transform="matrix(0.862 -0.5069 0.5069 0.862 -37.7121 66.0752)" fill="#FFFFFF" cx="102.501" cy="102.302" rx="0.8" ry="0.8"/>
<ellipse transform="matrix(0.4216 -0.9068 0.9068 0.4216 -9.7071 188.8893)" fill="#FFFFFF" cx="143.21" cy="102.054" rx="1.3" ry="1.3"/>
<ellipse transform="matrix(0.9393 -0.3431 0.3431 0.9393 -27.4484 56.0515)" fill="#FFFFFF" cx="144.685" cy="105.599" rx="0.8" ry="0.8"/>
<ellipse transform="matrix(0.9393 -0.3431 0.3431 0.9393 -26.4068 56.5469)" fill="#FFFFFF" cx="146.606" cy="102.903" rx="0.8" ry="0.8"/>
<ellipse transform="matrix(0.5034 -0.8641 0.8641 0.5034 -18.8062 222.7855)" fill="#FFFFFF" cx="184.408" cy="127.753" rx="1.3" ry="1.3"/>
<ellipse transform="matrix(0.9669 -0.255 0.255 0.9669 -27.3384 51.721)" fill="#FFFFFF" cx="185.798" cy="131.294" rx="0.8" ry="0.8"/>
<ellipse transform="matrix(0.9669 -0.255 0.255 0.9669 -26.6378 52.1491)" fill="#FFFFFF" cx="187.799" cy="128.806" rx="0.8" ry="0.8"/>
<ellipse transform="matrix(0.5626 -0.8268 0.8268 0.5626 -2.0508 199.5567)" fill="#FFFFFF" cx="187.556" cy="101.716" rx="1.3" ry="1.3"/>
<ellipse transform="matrix(0.9824 -0.1868 0.1868 0.9824 -16.3668 37.1052)" fill="#FFFFFF" cx="188.705" cy="105.398" rx="0.8" ry="0.8"/>
<ellipse transform="matrix(0.9824 -0.1868 0.1868 0.9824 -15.8641 37.4533)" fill="#FFFFFF" cx="190.803" cy="102.905" rx="0.8" ry="0.8"/>
<rect x="140.6" y="273.5" fill="#90A4AE" width="75.3" height="11.2"/>
<rect x="172.7" y="199.6" fill="#90A4AE" width="11.2" height="75.3"/>
<polygon fill="#004750" points="214,200.2 173.3,200.2 175.9,177.3 216.6,177.8 "/>
<path fill="#004750" d="M170.8,191.6c-1.9,2.9-3.9,5.7-5.8,8.6h4.9C170.2,197.3,170.4,194.5,170.8,191.6z"/>
<path fill="#004750" d="M218.8,121.6c1.4,0,2.7,0,4.2,0c0.2-2.3,0.5-4.5,0.8-6.9C222.2,117.1,220.5,119.4,218.8,121.6z"/>
<polygon fill="#004750" points="216.3,125.3 222.9,125.4 220.3,147.7 201,147.7 "/>
<polygon fill="#004750" points="198.5,151.3 182.8,173.9 216.6,173.9 219.2,151.5 "/>
<polygon fill="#FFCA28" points="180.6,177.3 175.9,177.3 175,185.6 "/>
<polygon fill="#FFF176" points="228,108.3 234.7,98.7 229.2,98.6 "/>
<ellipse transform="matrix(0.6198 -0.7848 0.7848 0.6198 -73.7023 207.9271)" fill="#FFFFFF" cx="177.73" cy="180.025" rx="1.3" ry="1.3"/>
<ellipse transform="matrix(0.9932 -0.1166 0.1166 0.9932 -20.2239 22.0797)" fill="#FFFFFF" cx="178.609" cy="183.899" rx="0.8" ry="0.8"/>
<ellipse transform="matrix(0.9932 -0.1166 0.1166 0.9932 -19.9388 22.3551)" fill="#FFFFFF" cx="181.105" cy="181.6" rx="0.8" ry="0.8"/>
<ellipse transform="matrix(0.5626 -0.8268 0.8268 0.5626 17.6267 235.5563)" fill="#FFFFFF" cx="231.415" cy="101.121" rx="1.3" ry="1.3"/>
<ellipse transform="matrix(0.9824 -0.1868 0.1868 0.9824 -15.4809 45.2946)" fill="#FFFFFF" cx="232.602" cy="104.792" rx="0.8" ry="0.8"/>
<ellipse transform="matrix(0.9824 -0.1868 0.1868 0.9824 -14.9964 45.6635)" fill="#FFFFFF" cx="234.802" cy="102.406" rx="0.8" ry="0.8"/>
<polyline fill="none" stroke="#FFFFFF" stroke-width="0.3" stroke-miterlimit="10" points="137.2,99.2 96.5,98.6 93.9,121.6 "/>
<line fill="none" stroke="#FFFFFF" stroke-width="0.3" stroke-miterlimit="10" x1="94.2" y1="124.8" x2="134.8" y2="125.4"/>
<line fill="none" stroke="#FFFFFF" stroke-width="0.3" stroke-miterlimit="10" x1="90.2" y1="151.1" x2="130.9" y2="151.7"/>
<polyline fill="none" stroke="#FFFFFF" stroke-width="0.3" stroke-miterlimit="10" points="178.9,125.4 138.3,124.8 135.5,147.7 "/>
<line fill="none" stroke="#FFFFFF" stroke-width="0.3" stroke-miterlimit="10" x1="134.3" y1="151.1" x2="175" y2="151.7"/>
<polyline fill="none" stroke="#FFFFFF" stroke-width="0.3" stroke-miterlimit="10" points="181.5,99.2 140.9,98.6 138.3,121.6 "/>
<polyline fill="none" stroke="#FFFFFF" stroke-width="0.3" stroke-miterlimit="10" points="225.4,99.2 184.8,98.6 182.4,121.6 "/>
<polyline fill="#FFCA28" stroke="#FFFFFF" stroke-width="0.3" stroke-miterlimit="10" points="234.7,98.7 229.2,98.6 228,108.3 "/>
<polyline fill="none" stroke="#FFFFFF" stroke-width="0.3" stroke-miterlimit="10" points="216.3,125.3 182.2,124.8 179.6,147.7 "/>
<polyline fill="none" stroke="#FFFFFF" stroke-width="0.3" stroke-miterlimit="10" points="85,200.2 87.6,177 128.2,177.6 "/>
<polyline fill="none" stroke="#FFFFFF" stroke-width="0.3" stroke-miterlimit="10" points="129.2,200.2 131.7,177 172.4,177.6 "/>
<polyline fill="none" stroke="#FFFFFF" stroke-width="0.3" stroke-miterlimit="10" points="175,185.6 175.9,177.3 180.6,177.3 "/>
<polyline fill="none" stroke="#FFFFFF" stroke-width="0.3" stroke-miterlimit="10" points="176,173.9 178.6,151.1 198.5,151.3 "/>
<polyline fill="none" stroke="#FFFFFF" stroke-width="0.3" stroke-miterlimit="10" points="91.3,147.7 93.9,124.8 101,125 "/>
<g>
	<g>
		<path fill="#574777" d="M179.5,356.3c-15.2,0-30.7-2-46.1-6.1C39.4,324.7-16.5,227.5,9,133.4c12.3-45.5,41.6-83.5,82.6-107
			C132.5,2.9,180.1-3.3,225.7,9c94,25.4,149.9,122.6,124.4,216.7C328.8,304.4,257.3,356.3,179.5,356.3z M10.4,133.8l1.4,0.4
			c-25,92.5,29.9,188,122.3,213c15.1,4.1,30.3,6,45.3,6c76.5,0,146.8-51,167.7-128.4c25-92.5-29.9-188-122.3-213
			c-92.5-25-188,29.9-213,122.3L10.4,133.8z"/>
	</g>
	<g>
		<path fill="#574777" d="M179.5,359.1c-15.7,0-31.5-2.1-46.8-6.2C37.1,327-19.6,228.3,6.2,132.7C18.7,86.5,48.6,47.9,90.2,24
			s90-30.2,136.2-17.7c46.3,12.5,84.9,42.3,108.8,83.9c23.9,41.6,30.1,90,17.6,136.3C331.7,304.6,260.4,359.1,179.5,359.1z M179.4,3
			c-30.5,0-60.5,8-87.7,23.6C50.7,50.1,21.4,88,9.1,133.5c-25.4,94,30.4,191.1,124.3,216.5c15.1,4.1,30.6,6.1,46,6.1
			c79.6,0,149.7-53.6,170.4-130.5c12.3-45.5,6.2-93.1-17.3-134S271,21.4,225.5,9.1C210.4,5,194.8,3,179.4,3z M179.5,353.5
			L179.5,353.5c-15.3,0-30.5-2-45.4-6c-92-25-146.8-119.8-122.8-211.9l-1.3-0.3l0.8-2.9l1.3,0.4c25.6-91.7,120.8-145.9,212.8-121
			c44.8,12.1,82.3,41,105.4,81.3s29.2,87.1,17.1,132C326.9,300.6,257.9,353.5,179.5,353.5z M14.6,135C-10,226,44,319.9,134.9,344.5
			c14.6,3.9,29.6,5.9,44.6,5.9c77,0,144.9-51.9,165-126.3c11.9-44.1,6-90.1-16.8-129.7C305,54.9,268.2,26.6,224.2,14.7
			C133.2-9.9,39.2,44,14.6,135L14.6,135z"/>
	</g>
</g>
<circle fill="none" stroke="#CB9BE0" stroke-width="5" stroke-miterlimit="10" cx="179.7" cy="179.5" r="169.4"/>
</svg>
