<?xml version="1.0" encoding="utf-8"?>
<!-- Generator: Adobe Illustrator 15.0.0, SVG Export Plug-In . SVG Version: 6.00 Build 0)  -->
<!DOCTYPE svg PUBLIC "-//W3C//DTD SVG 1.1//EN" "http://www.w3.org/Graphics/SVG/1.1/DTD/svg11.dtd">
<svg version="1.1" id="Graphics" xmlns="http://www.w3.org/2000/svg" xmlns:xlink="http://www.w3.org/1999/xlink" x="0px" y="0px"
	 width="500px" height="500px" viewBox="0 0 500 500" enable-background="new 0 0 500 500" xml:space="preserve">
<g>
	<g>
		<g>
			<path fill="#7C223D" d="M250,14c31.866,0,62.771,6.238,91.857,18.541c28.101,11.886,53.341,28.904,75.02,50.583
				c21.678,21.679,38.697,46.919,50.583,75.02C479.762,187.229,486,218.134,486,250s-6.238,62.771-18.541,91.857
				c-11.886,28.101-28.904,53.341-50.583,75.02c-21.679,21.678-46.919,38.697-75.02,50.583C312.771,479.762,281.866,486,250,486
				s-62.771-6.238-91.857-18.541c-28.101-11.886-53.341-28.904-75.02-50.583c-21.678-21.679-38.697-46.919-50.583-75.02
				C20.238,312.771,14,281.866,14,250s6.238-62.771,18.541-91.857c11.886-28.101,28.904-53.341,50.583-75.02
				c21.679-21.678,46.919-38.697,75.02-50.583C187.229,20.238,218.134,14,250,14 M250,0C111.93,0,0,111.93,0,250s111.93,250,250,250
				s250-111.93,250-250S388.07,0,250,0L250,0z"/>
		</g>
		<g>
			<path fill="#EEF3F3" d="M250,479c-61.165,0-118.67-23.821-161.924-67.075C44.821,368.67,21,311.165,21,250
				c0-61.164,23.821-118.67,67.076-161.924S188.836,21,250,21c61.165,0,118.67,23.821,161.925,67.076
				C455.179,131.33,479,188.835,479,250s-23.821,118.67-67.075,161.925C368.67,455.179,311.165,479,250,479z"/>
			<path fill="#DD7899" d="M250,28c29.974,0,59.045,5.868,86.405,17.441c26.434,11.182,50.177,27.191,70.57,47.584
				c20.393,20.393,36.403,44.137,47.584,70.57C466.132,190.956,472,220.026,472,250c0,29.974-5.868,59.045-17.441,86.405
				c-11.181,26.434-27.191,50.177-47.584,70.57c-20.394,20.393-44.137,36.403-70.57,47.584C309.045,466.132,279.974,472,250,472
				c-29.974,0-59.044-5.868-86.404-17.441c-26.434-11.181-50.177-27.191-70.57-47.584c-20.394-20.394-36.403-44.137-47.584-70.57
				C33.868,309.045,28,279.974,28,250c0-29.974,5.868-59.044,17.441-86.404c11.182-26.434,27.191-50.177,47.584-70.57
				c20.393-20.394,44.137-36.403,70.57-47.584C190.956,33.868,220.026,28,250,28 M250,14C119.669,14,14,119.669,14,250
				c0,130.332,105.669,236,236,236c130.332,0,236-105.668,236-236C486,119.669,380.332,14,250,14L250,14z"/>
		</g>
	</g>
	<g>
		<path fill="#12AD9C" d="M255.362,334.056c-7.313,0-14.626-0.448-21.642-1.194c-19.552,17.314-42.836,29.553-68.657,36.119
			c-5.373,1.493-11.194,2.538-17.015,3.284c-3.284,0.299-6.418-2.09-7.164-5.672c0-0.149,0-0.149,0-0.149
			c-0.747-3.731,1.791-5.97,4.029-8.656c9.403-10.597,20.149-19.553,27.165-44.478c-30.746-17.463-50.448-44.478-50.448-74.776
			c0-52.686,59.851-95.521,133.731-95.521s133.731,42.687,133.731,95.521C389.093,291.369,329.242,334.056,255.362,334.056z"/>
		<path fill="#1E4A54" d="M311.137,229.586c-3.682,17.889-15.186,29.506-31.177,37.447c-7.765,3.911-16.451,6.21-25.192,6.21
			c-5.523,0-11.217-0.921-16.452-2.702c-2.76-0.921-8.283-4.544-10.584-4.544c-2.875,0-6.327,11.732-11.33,11.732
			c-3.624,0-4.717-1.783-6.27-4.429c-0.519-0.979-0.921-1.323-0.921-2.531c0-5.98,11.389-10.641,11.389-13.977
			c0-0.52-1.495-3.566-1.725-4.717c-0.347-1.957-0.519-3.97-0.519-5.982c0-18.291,14.553-31.349,30.888-36.753
			c11.791-3.913,36.871,0.629,44.865-6.96c3.165-2.934,4.717-5.639,9.549-5.639c6.5,0,8.628,16.854,8.628,21.742
			C312.287,222.166,311.884,225.905,311.137,229.586z M279.155,226.191c-20.362,0-33.476,8.514-46.764,23.183
			c-0.69,0.745-1.093,1.55-1.093,2.587c0,2.013,1.668,3.682,3.681,3.682c1.035,0,1.839-0.402,2.59-1.092
			c2.818-2.531,5.35-5.292,8.11-7.882c10.409-9.376,19.327-13.114,33.476-13.114c2.013,0,3.681-1.668,3.681-3.682
			C282.836,227.86,281.168,226.191,279.155,226.191z"/>
	</g>
</g>
</svg>
