<?xml version="1.0" encoding="utf-8"?>
<!-- Generator: Adobe Illustrator 15.0.0, SVG Export Plug-In . SVG Version: 6.00 Build 0)  -->
<!DOCTYPE svg PUBLIC "-//W3C//DTD SVG 1.1//EN" "http://www.w3.org/Graphics/SVG/1.1/DTD/svg11.dtd">
<svg version="1.1" id="Graphics" xmlns="http://www.w3.org/2000/svg" xmlns:xlink="http://www.w3.org/1999/xlink" x="0px" y="0px"
	 width="500px" height="500px" viewBox="0 0 500 500" enable-background="new 0 0 500 500" xml:space="preserve">
<g>
	<g>
		<g>
			<path fill="#7C223D" d="M250,14c31.866,0,62.771,6.238,91.857,18.541c28.101,11.886,53.341,28.904,75.02,50.583
				c21.678,21.679,38.697,46.919,50.583,75.02C479.762,187.229,486,218.134,486,250s-6.238,62.771-18.541,91.857
				c-11.886,28.101-28.904,53.341-50.583,75.02c-21.679,21.678-46.919,38.697-75.02,50.583C312.771,479.762,281.866,486,250,486
				s-62.771-6.238-91.857-18.541c-28.101-11.886-53.341-28.904-75.02-50.583c-21.678-21.679-38.697-46.919-50.583-75.02
				C20.238,312.771,14,281.866,14,250s6.238-62.771,18.541-91.857c11.886-28.101,28.904-53.341,50.583-75.02
				c21.679-21.678,46.919-38.697,75.02-50.583C187.229,20.238,218.134,14,250,14 M250,0C111.93,0,0,111.93,0,250s111.93,250,250,250
				s250-111.93,250-250S388.07,0,250,0L250,0z"/>
		</g>
		<g>
			<path fill="#EEF3F3" d="M250,479c-61.165,0-118.67-23.821-161.924-67.075C44.821,368.67,21,311.165,21,250
				c0-61.164,23.821-118.669,67.076-161.924C131.33,44.821,188.836,21,250,21c61.165,0,118.67,23.821,161.925,67.076
				C455.179,131.33,479,188.836,479,250c0,61.165-23.821,118.67-67.075,161.925C368.67,455.179,311.165,479,250,479z"/>
			<path fill="#DD7899" d="M250,28c29.974,0,59.044,5.868,86.405,17.441c26.434,11.181,50.177,27.191,70.57,47.584
				c20.393,20.393,36.403,44.137,47.584,70.57C466.132,190.956,472,220.026,472,250c0,29.974-5.868,59.045-17.441,86.405
				c-11.181,26.434-27.191,50.177-47.584,70.57c-20.394,20.393-44.137,36.403-70.57,47.584C309.045,466.132,279.974,472,250,472
				c-29.974,0-59.044-5.868-86.404-17.441c-26.434-11.181-50.177-27.191-70.57-47.584c-20.394-20.394-36.403-44.137-47.584-70.57
				C33.868,309.045,28,279.974,28,250c0-29.974,5.868-59.044,17.441-86.404c11.182-26.434,27.191-50.177,47.584-70.57
				c20.394-20.394,44.137-36.403,70.57-47.584C190.956,33.868,220.026,28,250,28 M250,14C119.669,14,14,119.67,14,250
				c0,130.332,105.669,236,236,236c130.332,0,236-105.668,236-236C486,119.67,380.332,14,250,14L250,14z"/>
		</g>
	</g>
	<g>
		<g>
			<path fill="#C3487B" d="M315.763,351.466c-29.321,0-53.176-20.725-53.176-46.195s23.854-46.191,53.176-46.191
				c29.322,0,53.176,20.721,53.176,46.191S345.085,351.466,315.763,351.466z M315.763,276.232
				c-19.863,0-36.022,13.026-36.022,29.038c0,16.014,16.16,29.041,36.022,29.041c19.863,0,36.023-13.027,36.023-29.041
				C351.786,289.259,335.626,276.232,315.763,276.232z"/>
		</g>
		<path fill="#DD7899" d="M307.757,380.405c0,7.369-29.872,13.344-66.72,13.344c-36.849,0-66.719-5.975-66.719-13.344
			L155.637,234.69c0-9.433,38.235-17.08,85.4-17.08s85.401,7.647,85.401,17.08L307.757,380.405z"/>
		<path opacity="0.5" fill="#7C223D" d="M309.656,234.69c0,6.496-30.726,11.763-68.619,11.763c-37.892,0-68.618-5.267-68.618-11.763
			c0-6.497,30.726-11.763,68.618-11.763C278.931,222.928,309.656,228.193,309.656,234.69z"/>
		<path fill="#BCCFD1" d="M242.31,234.688c3.267-28.396,37.326-33.105,39.164-45.66c4.806-32.844-50.398-30.267-31.687-55.096
			c25.865-34.321,6.512-71.665-35.469-34.321c-20.983,18.666-17.937,39.303-4.051,52.835c20.086,19.574,54.83,30.974,48.065,39.875
			C251.565,201.224,231.272,213.684,242.31,234.688z"/>
		<g>
			<path fill="#C3487B" d="M265.715,252.533c23.478-1.439,49.709-5.49,58.538-12.593L306.257,380.31v0.096
				c0,3.44-13.647,9.105-43.939,11.146L265.715,252.533z"/>
			<path fill="#DD7899" d="M322.34,243.068l-17.558,136.956l-0.024,0.19v0.153c-0.089,0.203-1.414,2.699-12.09,5.399
				c-7.539,1.906-17.447,3.339-28.809,4.173l3.323-135.996c16.483-1.069,31.297-3.173,41.954-5.971
				C314.749,246.499,319.141,244.87,322.34,243.068 M326.438,234.69h-0.599c0,7.813-26.047,14.394-61.59,16.427l-3.471,142.037
				c27.21-1.684,46.979-6.754,46.979-12.749L326.438,234.69L326.438,234.69z"/>
		</g>
	</g>
</g>
</svg>
