<?xml version="1.0" encoding="utf-8"?>
<!-- Generator: Adobe Illustrator 15.0.0, SVG Export Plug-In . SVG Version: 6.00 Build 0)  -->
<!DOCTYPE svg PUBLIC "-//W3C//DTD SVG 1.1//EN" "http://www.w3.org/Graphics/SVG/1.1/DTD/svg11.dtd">
<svg version="1.1" id="Graphics" xmlns="http://www.w3.org/2000/svg" xmlns:xlink="http://www.w3.org/1999/xlink" x="0px" y="0px"
	 width="500px" height="500px" viewBox="0 0 500 500" enable-background="new 0 0 500 500" xml:space="preserve">
<g>
	<g>
		<g>
			<path fill="#E87800" d="M250,14c31.866,0,62.771,6.238,91.857,18.541c28.101,11.886,53.341,28.904,75.02,50.583
				c21.679,21.679,38.697,46.919,50.583,75.02C479.763,187.229,486,218.134,486,250s-6.238,62.771-18.541,91.857
				c-11.886,28.101-28.904,53.341-50.583,75.02c-21.678,21.678-46.918,38.697-75.02,50.583C312.771,479.762,281.866,486,250,486
				s-62.771-6.238-91.857-18.541c-28.101-11.886-53.341-28.904-75.02-50.583c-21.678-21.679-38.697-46.919-50.583-75.02
				C20.238,312.771,14,281.866,14,250s6.238-62.771,18.541-91.857c11.886-28.101,28.904-53.341,50.583-75.02
				c21.679-21.678,46.919-38.697,75.02-50.583C187.229,20.238,218.134,14,250,14 M250,0C111.93,0,0,111.93,0,250s111.93,250,250,250
				s250-111.93,250-250S388.07,0,250,0L250,0z"/>
		</g>
		<g>
			<path fill="#EEF3F3" d="M250,479c-61.165,0-118.67-23.821-161.924-67.075C44.821,368.67,21,311.165,21,250
				c0-61.164,23.821-118.669,67.076-161.924C131.33,44.821,188.836,21,250,21c61.165,0,118.67,23.821,161.925,67.076
				C455.179,131.331,479,188.836,479,250c0,61.165-23.821,118.67-67.076,161.925C368.671,455.179,311.165,479,250,479z"/>
			<path fill="#F4D100" d="M250,28c29.974,0,59.045,5.868,86.405,17.441c26.434,11.181,50.177,27.191,70.57,47.584
				c20.394,20.393,36.403,44.137,47.584,70.57C466.132,190.956,472,220.026,472,250c0,29.974-5.868,59.045-17.441,86.405
				c-11.181,26.434-27.191,50.177-47.584,70.57c-20.394,20.393-44.137,36.403-70.571,47.584C309.045,466.132,279.974,472,250,472
				c-29.974,0-59.044-5.868-86.404-17.441c-26.434-11.181-50.177-27.191-70.57-47.584c-20.394-20.394-36.403-44.137-47.584-70.57
				C33.868,309.045,28,279.974,28,250c0-29.974,5.868-59.044,17.441-86.404c11.182-26.434,27.191-50.177,47.584-70.57
				c20.394-20.394,44.137-36.403,70.57-47.584C190.956,33.868,220.026,28,250,28 M250,14C119.669,14,14,119.67,14,250
				c0,130.332,105.669,236,236,236c130.332,0,236-105.668,236-236C486,119.67,380.332,14,250,14L250,14z"/>
		</g>
	</g>
	<g>
		<g>
			<path fill="#1E4A54" d="M389.453,125.09c-24.106-15.457-80.483,28.893-88.819,42.453c-6.073,9.816,9.139,30.721,33.984,46.641
				c24.819,15.916,49.894,20.865,55.939,11.025C400.727,208.672,410.803,138.771,389.453,125.09z"/>
			<path fill="#1C9283" d="M380.007,140.789c-16.656-10.66-55.583,19.967-61.333,29.32c-4.204,6.793,6.304,21.219,23.458,32.221
				c17.147,10.975,34.455,14.408,38.638,7.602C387.792,198.512,394.745,150.252,380.007,140.789z"/>
		</g>
		<g>
			<path fill="#1E4A54" d="M110.547,125.09c24.106-15.457,80.483,28.893,88.819,42.453c6.072,9.816-9.14,30.721-33.984,46.641
				c-24.818,15.916-49.893,20.865-55.939,11.025C99.273,208.672,89.196,138.771,110.547,125.09z"/>
			<path fill="#1C9283" d="M119.993,140.789c16.656-10.66,55.583,19.967,61.333,29.32c4.205,6.793-6.304,21.219-23.457,32.221
				c-17.147,10.975-34.455,14.408-38.639,7.602C112.208,198.512,105.255,150.252,119.993,140.789z"/>
		</g>
		<ellipse fill="#1E4A54" cx="250" cy="267.633" rx="152.055" ry="111.219"/>
		<path fill="#1C9283" d="M250,314.477c-32.379,0-61.104,18.457-79.044,46.941c17.94,28.482,46.665,46.939,79.044,46.939
			s61.105-18.457,79.044-46.939C311.105,332.934,282.379,314.477,250,314.477z"/>
		<g>
			<path fill-rule="evenodd" clip-rule="evenodd" fill="#1E4A54" d="M405.922,355.775c-21.289-6.051-67.209-11.42-95.186-12.691
				c-5.937-0.27-15.603,0.65-21.756,0c-8.61-0.908,12.128-1.656,15.411-1.813C341.518,339.518,376.042,345.832,405.922,355.775z"/>
			<path fill-rule="evenodd" clip-rule="evenodd" fill="#1E4A54" d="M211.926,342.178c-42.986-5.914-88.064,5.813-117.848,21.758
				C118.704,346.654,167.686,331.361,211.926,342.178z"/>
			<path fill-rule="evenodd" clip-rule="evenodd" fill="#1E4A54" d="M101.331,374.814c19.848-13.58,55.198-26.891,84.307-29.01
				c4.883-0.355,22.795,0.49,7.252,0.906C157.762,351.471,128.183,361.779,101.331,374.814z"/>
			<path fill-rule="evenodd" clip-rule="evenodd" fill="#1E4A54" d="M390.511,369.373c-25.335-10.322-61.661-17.508-100.624-17.223
				c-6.895,0.684-9.027-1.449-0.907-0.906C325.34,348.002,365.927,354.928,390.511,369.373z"/>
			<path fill-rule="evenodd" clip-rule="evenodd" fill="#1E4A54" d="M96.798,391.131c25.893-21.549,68.447-34.293,114.222-38.98
				c1.62-0.256,1.86,0.855,0.907,0.906C167.577,359.773,128.156,371.422,96.798,391.131z"/>
			<path fill-rule="evenodd" clip-rule="evenodd" fill="#1E4A54" d="M305.298,360.309c29.205,0.84,61.083,13.943,77.054,29.916
				c1.935,1.934,9.632,11.379,7.252,10.877C370.744,378.264,340.806,366.5,305.298,360.309z"/>
			<path fill-rule="evenodd" clip-rule="evenodd" fill="#1E4A54" d="M288.074,361.215c34.005,6.186,65.773,22.461,81.587,49.859
				C350.695,386.225,321.351,371.754,288.074,361.215z"/>
			<path fill-rule="evenodd" clip-rule="evenodd" fill="#1E4A54" d="M192.889,363.027c-25.972,8.477-54.208,14.688-71.615,31.729
				C134.205,376.865,163.36,367.344,192.889,363.027z"/>
			<path fill-rule="evenodd" clip-rule="evenodd" fill="#1E4A54" d="M186.544,369.373c-20.188,13.053-47.949,26.387-60.737,49.859
				C134.779,394.965,161.145,380.236,186.544,369.373z"/>
		</g>
		<g>
			<g>
				<path fill-rule="evenodd" clip-rule="evenodd" fill="#EEF3F3" d="M296.386,242.27c-15.035,9.195-22.871,24.717-19.872,37.35
					c9.879,8.426,27.268,8.521,42.302-0.674c15.035-9.195,22.871-24.719,19.872-37.35C328.81,233.17,311.421,233.074,296.386,242.27
					z"/>
				<path fill="#1E4A54" d="M295.366,288.48c0,0-0.001,0-0.001,0c-8.028-0.002-15.319-2.447-20.529-6.891l-0.644-0.549l-0.195-0.822
					c-3.331-14.031,5.321-30.543,21.04-40.156c7.837-4.795,16.414-7.328,24.802-7.328c8.028,0,15.319,2.449,20.53,6.893l0.643,0.549
					l0.195,0.822c3.332,14.029-5.32,30.543-21.039,40.154C312.33,285.945,303.753,288.48,295.366,288.48z M278.852,278.189
					c4.231,3.303,10.056,5.115,16.513,5.115c7.329,0,15.177-2.332,22.102-6.566c13.51-8.264,21.162-22.008,18.884-33.711
					c-4.231-3.305-10.056-5.115-16.512-5.115c-7.329,0-15.178,2.332-22.102,6.564C284.226,252.74,276.574,266.484,278.852,278.189z"
					/>
			</g>
			<g>
				<path fill-rule="evenodd" clip-rule="evenodd" fill="#1E4A54" d="M316.098,257.99c-2.767-9.922-7.873-17.467-12.259-18.689
					c-3.12,3.316-3.583,12.416-0.815,22.336c2.768,9.922,7.873,17.467,12.259,18.689C318.403,277.01,318.865,267.91,316.098,257.99z
					"/>
			</g>
			<g id="Eye_19_">
				<g>
					<path fill="#FFFFFF" d="M309.299,248.834c-0.233-1.779-1.865-3.02-3.634-2.775c-1.775,0.234-3.016,1.855-2.779,3.639
						c0.239,1.771,1.866,3.01,3.638,2.771C308.293,252.229,309.547,250.598,309.299,248.834z"/>
				</g>
			</g>
			<g>
				<path fill-rule="evenodd" clip-rule="evenodd" fill="#EEF3F3" d="M203.614,242.27c15.036,9.195,22.872,24.717,19.872,37.35
					c-9.878,8.426-27.267,8.521-42.302-0.674c-15.035-9.195-22.871-24.719-19.872-37.35
					C171.191,233.17,188.579,233.074,203.614,242.27z"/>
				<path fill="#1E4A54" d="M204.636,288.48c-8.389,0-16.965-2.535-24.802-7.328c-15.718-9.611-24.371-26.125-21.04-40.154
					l0.195-0.822l0.643-0.549c5.211-4.443,12.502-6.893,20.53-6.893c8.388,0,16.965,2.533,24.802,7.328
					c15.719,9.611,24.371,26.125,21.039,40.156l-0.195,0.822l-0.643,0.549C219.955,286.033,212.664,288.48,204.636,288.48z
					 M163.649,243.027c-2.278,11.703,5.374,25.447,18.884,33.711c6.924,4.234,14.772,6.566,22.102,6.566
					c6.457,0,12.281-1.813,16.512-5.115c2.278-11.705-5.373-25.449-18.884-33.713c-6.924-4.232-14.772-6.564-22.102-6.564
					C173.706,237.912,167.881,239.723,163.649,243.027z"/>
			</g>
			<g>
				<path fill-rule="evenodd" clip-rule="evenodd" fill="#1E4A54" d="M183.902,257.99c2.768-9.922,7.873-17.467,12.259-18.689
					c3.12,3.316,3.582,12.416,0.814,22.336c-2.767,9.922-7.872,17.467-12.259,18.689C181.597,277.01,181.135,267.91,183.902,257.99z
					"/>
			</g>
			<g id="Eye_22_">
				<g>
					<path fill="#FFFFFF" d="M179.01,240.598c-3.277-0.443-6.283,1.85-6.715,5.125c-0.449,3.27,1.853,6.275,5.119,6.717
						c3.274,0.443,6.283-1.855,6.719-5.127C184.568,244.033,182.28,241.033,179.01,240.598z"/>
				</g>
			</g>
			<g id="Eye_21_">
				<g>
					<path fill="#FFFFFF" d="M194.335,246.059c-1.769-0.244-3.401,0.996-3.633,2.775c-0.248,1.764,1.005,3.395,2.774,3.635
						c1.772,0.238,3.4-1,3.639-2.771C197.351,247.914,196.111,246.293,194.335,246.059z"/>
				</g>
			</g>
		</g>
		<path fill-rule="evenodd" clip-rule="evenodd" fill="#1E4A54" d="M273.205,340.557c-9.207,8.197-19.842,14.965-22.045,30.166
			c9.298,3.852,21.192,5.107,29.006,10.441c-22.578-4.838-37.031-5.705-60.333-1.16c9.555-2.82,17.074-7.678,29.006-8.121
			c-1.894-16.283-12.295-24.059-22.045-32.486C241.32,338.996,260.194,337.215,273.205,340.557z"/>
	</g>
</g>
</svg>
