<?xml version="1.0" encoding="utf-8"?>
<!-- Generator: Adobe Illustrator 19.2.1, SVG Export Plug-In . SVG Version: 6.00 Build 0)  -->
<svg version="1.1" id="Graphics" xmlns="http://www.w3.org/2000/svg" xmlns:xlink="http://www.w3.org/1999/xlink" x="0px" y="0px"
	 viewBox="0 0 500 500" style="enable-background:new 0 0 500 500;" xml:space="preserve">
<style type="text/css">
	.st0{fill:#564677;}
	.st1{fill:#EEF3F3;}
	.st2{fill:#AB8EB8;}
	.st3{fill:#BBCED0;}
	.st4{fill:#2E7498;}
	.st5{fill:#1AA9D2;}
	.st6{fill:#1E4A54;}
	.st7{fill:#F7F9F9;}
	.st8{fill:#FFFFFF;}
	.st9{opacity:0.8;enable-background:new    ;}
	.st10{opacity:0.4;enable-background:new    ;}
</style>
<g>
	<g>
		<g>
			<g>
				<path class="st0" d="M250,14c31.9,0,62.8,6.2,91.9,18.5c28.1,11.9,53.3,28.9,75,50.6c21.7,21.7,38.7,46.9,50.6,75
					c12.3,29.1,18.5,60,18.5,91.9s-6.2,62.8-18.5,91.9c-11.9,28.1-28.9,53.3-50.6,75c-21.7,21.7-46.9,38.7-75,50.6
					c-29.1,12.3-60,18.5-91.9,18.5s-62.8-6.2-91.9-18.5c-28.1-11.9-53.3-28.9-75-50.6c-21.7-21.7-38.7-46.9-50.6-75
					C20.2,312.8,14,281.9,14,250s6.2-62.8,18.5-91.9c11.9-28.1,28.9-53.3,50.6-75c21.7-21.7,46.9-38.7,75-50.6
					C187.2,20.2,218.1,14,250,14 M250,0C111.9,0,0,111.9,0,250c0,138.1,111.9,250,250,250s250-111.9,250-250
					C500,111.9,388.1,0,250,0L250,0z"/>
			</g>
		</g>
		<g>
			<g>
				<path class="st1" d="M250,479c-61.2,0-118.7-23.8-161.9-67.1C44.8,368.7,21,311.2,21,250c0-61.2,23.8-118.7,67.1-161.9
					S188.8,21,250,21c61.2,0,118.7,23.8,161.9,67.1C455.2,131.3,479,188.8,479,250s-23.8,118.7-67.1,161.9
					C368.7,455.2,311.2,479,250,479z"/>
			</g>
			<g>
				<path class="st2" d="M250,28c30,0,59,5.9,86.4,17.4C362.8,56.6,386.6,72.6,407,93s36.4,44.1,47.6,70.6
					C466.1,191,472,220,472,250s-5.9,59-17.4,86.4c-11.2,26.4-27.2,50.2-47.6,70.6c-20.4,20.4-44.1,36.4-70.6,47.6
					C309,466.1,280,472,250,472s-59-5.9-86.4-17.4c-26.4-11.2-50.2-27.2-70.6-47.6c-20.4-20.4-36.4-44.1-47.6-70.6
					C33.9,309,28,280,28,250s5.9-59,17.4-86.4C56.6,137.2,72.6,113.4,93,93c20.4-20.4,44.1-36.4,70.6-47.6C191,33.9,220,28,250,28
					 M250,14C119.7,14,14,119.7,14,250c0,130.3,105.7,236,236,236c130.3,0,236-105.7,236-236C486,119.7,380.3,14,250,14L250,14z"/>
			</g>
		</g>
	</g>
	<g>
		<g>
			<path class="st3" d="M262.4,413.1c61.8,0,111.9-5.9,111.9-13.2c0-7.3-50.1-13.2-111.9-13.2c-61.8,0-111.9,5.9-111.9,13.2
				C150.5,407.1,200.6,413.1,262.4,413.1"/>
		</g>
		<g>
			<path class="st4" d="M208.6,304.9c0.5,20.5,0.4,41.2,2.1,47.5c2.1,8,12.7,34.5,10.8,36.4c-4,4.2-22.5,4.7-22.4,8.8
				c0.1,4.1,28.8,1.3,32.9,1.2s-4.6-36.4-4.9-48.7c-0.3-12.3,4.5-34.6,14.4-51.3C244.6,293.5,208.6,304.9,208.6,304.9"/>
		</g>
		<g>
			<path class="st4" d="M293.8,304.9c-0.5,20.5-0.4,41.2-2.1,47.5c-2.1,8-12.7,34.5-10.8,36.4c4,4.2,22.5,4.7,22.4,8.8
				c-0.1,4.1-28.8,1.3-32.9,1.2c-4.1-0.1,4.6-36.4,4.9-48.7c0.3-12.3-4.5-34.6-14.4-51.3C257.8,293.5,293.8,304.9,293.8,304.9"/>
		</g>
		<g>
			<g>
				<circle class="st4" cx="248" cy="215.2" r="122.3"/>
			</g>
			<g>
				<g>
					<path class="st5" d="M370.3,215.2c0,67.5-54.8,122.3-122.3,122.3s-122.3-54.8-122.3-122.3c0-67.5,54.8-122.3,122.3-122.3
						S370.3,147.7,370.3,215.2z M288,178.9c0.8-0.2,1.6-3,2.1-3.7c1-1.1,2.2-1.8,3.5-2.4c2.7-1.1,5.4-1.4,8.3-1.9
						c2.7-0.6,6-0.6,8.1,1.8c-0.5-0.5,3.3-3.8,3.8-4c1.4-0.8,3.8-0.5,4.8-1.9c0.3-0.5,0.3-3.5,0.3-3.5c-2.7,0.3-3.7-2.2-3.8-4.5
						c0,0.2-0.3,0.6-1,1.3c0.2-2.4-2.9-0.6-4-1c-3.7-1-3.2-3.5-4.3-6.2c-0.6-1.4-2.4-1.9-3-3.3c-0.6-1-1-3-2.4-3.2
						c-1-0.2-2.7,3.3-3,3.2c-1.4-0.8-2.1,0.3-3.2,1c-1,0.6-1.8,0.3-2.7,0.8c2.9-1-1.3-2.5-2.7-2.2c2.2-0.6,1.1-3-0.2-4.1
						c0.3,0,0.5,0,0.8,0c-0.3-1.4-4.8-2.7-6.2-3.7c-1.4-1-9.1-2.5-10.7-1.6c-1.9,1.1,0.5,4.3,0.5,5.9c0.2,1.9-1.9,2.4-1.9,4
						c0,2.7,5.1,2.2,3.8,5.9c-0.8,2.2-3.8,2.7-5.1,4.5c-1.3,1.6,0.2,4.5,1.4,5.6c1.3,1-2.2,2.5-2.7,2.9c-2.7,1.3-4.8-2.7-5.4-5.1
						c-0.5-1.8-0.6-3.8-2.5-4.8c-1-0.3-4-0.8-4.6,0.2c-1-2.4-4.3-3.3-6.5-4.1c-3.2-1.1-5.9-1.1-9.2-0.6c1.1-0.2-0.3-5.1-3-4.3
						c0.8-1.6,0.5-3.3,0.8-4.9c0.3-1.3,1-2.5,1.9-3.7c0.3-0.6,3.8-4.3,2.7-4.5c2.7,0.3,5.7,0.5,8-1.8c1.4-1.4,2.1-3.8,3.5-5.4
						c2.1-2.4,4.6,0.6,6.8,0.8c3.2,0.2,3-3.3,1.3-4.9c2.1,0.2,0.3-3.7-0.8-4.1c-1.4-0.5-6.8,1-4,2.1c-0.6-0.3-4.5,7.6-6.7,3.7
						c-0.6-0.8-1-4.1-2.4-4.3c-1.3,0-2.1,1.4-2.5,2.4c0.8-2.1-4.5-3.5-5.6-3.7c2.4-1.6,0.5-3.3-1.3-4.3c-1.3-0.8-5.3-1.4-6.4-0.2
						c-3,3.7,3.2,4.1,4.8,5.1c0.5,0.3,2.4,1.4,1.3,2.2c-1,0.5-3.8,1.3-4.1,1.9c-1,1.4,1.1,3-0.3,4.5c-1.4-1.4-1.4-3.8-2.5-5.4
						c1.4,1.8-5.7,0.8-5.6,0.8c-2.4,0-6.2,1.6-8-0.8c-0.3-0.6-0.3-4.3,0.6-3.5c-1.4-1.1-2.4-2.2-3.3-2.9c-5.3,1.8-10.2,4-15,6.5
						c0.6,0.2,1.1,0.2,1.9-0.2c1.3-0.5,2.4-1.3,3.7-1.9c1.6-0.6,4.9-2.5,6.7-1.1c0.2-0.3,0.6-0.6,0.8-0.8c1.1,1.3,2.2,2.6,3.2,4
						c-1.3-0.6-3.3-0.3-4.8-0.2c-1.1,0.3-3,0.6-3.5,1.9c0.5,0.8,1.1,2.1,0.8,2.9c-2.1-1.4-3.7-3.8-6.5-4.1c-1.3,0-2.5,0-3.5,0.2
						c-15.3,8.4-28.2,20.7-37.4,35.3c0.6,0.6,1.3,1.1,1.9,1.3c1.6,0.5,0,5.1,3,2.7c1,0.8,1.1,1.9,0.5,3c0.2-0.2,6.5,4,7,4.3
						c1.1,1,2.9,2.1,3.3,3.3c0.3,1.1-0.6,2.4-1.6,2.9c-0.2-0.3-2.5-2.7-2.9-2.1c-0.5,0.8,0,5.1,1.8,4.9c-2.5,0.2-1.4,10-2.1,11.9
						c0,0.2,0.3,0.2,0.3,0.2c-0.5,1.9,1.1,9.4,4.3,8.6c-2.1,0.5,3.7,7.8,4.5,8.3c2.1,1.4,4.5,2.4,5.9,4.5c1.6,2.2,1.6,5.6,3.8,7.3
						c-0.6,1.9,3.3,4.1,3.2,6.8c-0.3,0.2-0.5,0.2-0.8,0.3c0.8,2.2,3.8,2.2,4.9,4.3c0.6,1.3,0,4.3,2.1,3.7c0.3-3.5-2.1-7-3.8-9.9
						c-1-1.6-1.9-3-2.7-4.6c-0.8-1.4-1-3.2-1.6-4.8c0.6,0.2,4.1,1.4,3.8,1.9c-1.3,3.2,5.1,8.8,6.8,10.8c0.5,0.5,4.1,5.3,2.2,5.3
						c2.1,0,4.9,3.2,5.9,4.8c1.4,2.4,1.1,5.4,2.1,8c1,3.2,5.4,4.6,8,6.1c2.2,1.1,4.1,2.7,6.4,3.5c3.3,1.3,4.1,0.2,7-0.3
						c4.1-0.6,4.6,4,8,5.7c2.1,1.1,6.5,2.7,8.8,1.8c-1,0.3,3.3,6.8,3.7,7.3c1.4,1.9,4.1,2.9,5.7,4.8c0.5-0.3,1-0.8,1.1-1.4
						c-0.6,1.8,2.4,5.1,4,4.8c1.8-0.3,2.2-3.8,2.2-5.1c-3.2,1.6-6.1,0.3-7.8-2.9c-0.3-0.8-2.9-5.3-0.6-5.3c3,0,1-2.4,0.6-4.6
						c-0.3-2.2-2.5-3.7-3.7-5.6c-1,1.9-4.1,1.4-5.1-0.2c0,0.5-0.5,1.3-0.5,1.9c-0.8,0-1.6,0.2-2.4-0.2c0.3-1.9,0.5-4.3,1-6.4
						c0.8-2.9,6.1-8.4-0.8-8.1c-2.4,0.2-3.3,1.1-4.1,3.2c-0.8,1.9-0.5,3.7-2.7,4.6c-1.4,0.6-6.2,0.3-7.6-0.5
						c-3-1.8-5.1-7.3-5.1-10.5c-0.2-4.3,2.1-8.1,0-12.1c1-0.8,1.9-2.4,3-3.2c1-0.6,2.1,0.5,2.5-1.4c-0.5-0.3-1.1-1-1.3-1
						c2.4,1.1,6.8-1.6,8.9,0c1.3,1,2.7,1.3,3.5-0.3c0.2-0.5-1.1-2.4-0.5-3.7c0.5,2.7,2.2,3.2,4.6,1.4c1,1,3.5,0.6,5.3,1.6
						c1.8,1.1,2.1,2.9,4.1,0.5c1.3,1.9,1.4,1.9,1.9,3.8c0.5,1.8,1.4,6.2,3,7c3.3,2.1,2.5-3.5,2.2-5.4c-0.2-0.2-0.2-5.4-0.3-5.4
						c-5.1-1.1-3.2-5.1-0.3-7.8c0.5-0.3,4.1-1.6,5.7-2.9c1.4-1.3,3.2-3.5,2.4-5.6c0.8,0,1.4-0.6,1.8-1.4c-0.5-0.2-2.4-1.8-2.7-1.6
						c1.1-0.6,1-1.6,0.3-2.5c1.6-1,0.8-2.7,2.4-3.3c1.8,2.4,5.3-0.3,3.5-2.2c1.6-2.2,5.3-1.1,6.2-3.2c2.4,0.6,0.6-2.4,1.9-4.1
						c1.1-1.4,3-1.4,4.5-2.2c0,0.2,4-2.2,2.7-2.4c2.7,0.3,8.1-2.5,4-4.9c0.6-1.4-1.4-2.1-2.9-2.4c1.1-0.3,2.5,0.3,3.5-0.3
						c2.1-1.4,0.6-2.1-1.1-2.5c-2.2-0.6-5.1,0.8-6.8,1.9C290.4,176.8,289.6,178.6,288,178.9z M321.6,285.4c-1-1-2.7-0.6-4-1.3
						c-1.3-0.5-2.2-1-3.8-1.3c0.3-3.2-3.2-4.3-5.4-5.9c-2.1-1.6-3.3-3.3-6.4-2.7c-0.3,0.2-3.5,1.3-2.9,1.9c-2.1-1.7-3-2.7-5.7-3.5
						c-2.5-0.8-4.3-4-6.8-1.1c-1.3,1.3-0.6,3.2-1.3,4.5c-2.1-1.8,1.9-3.8,0.3-5.7c-1.9-2.2-5.3,1.4-6.8,2.4c-1,0.8-2.1,1.1-2.7,2.1
						c-0.8,1.1-1.1,2.5-1.8,3.7c-0.5-1.3-3.2-1-3.3-1.9c0.6,3.8,0.6,7.8,1.4,11.6c0.5,2.2,0,5.9-1.9,7.6c-1.9,1.8-4.3,3.7-4.6,6.4
						c-0.3,1.9,0.2,3.7,1.9,4.1c0.2,2.4-2.5,4.1-2.4,6.7c0,0.2,0.2,1.8,0.3,2.5C287.5,311.7,306.9,300.8,321.6,285.4z"/>
				</g>
			</g>
			<g>
				<g id="Eye_12_">
					<g>
						<g>
							<path class="st6" d="M317.1,198.8c-1.9-13.9-14.6-23.6-28.5-21.7c-13.9,1.8-23.6,14.6-21.7,28.4
								c1.9,13.9,14.6,23.6,28.5,21.7C309.2,225.4,319,212.7,317.1,198.8z"/>
						</g>
					</g>
					<g>
						<g>
							<path class="st7" d="M292,230c-6.1,0-11.9-2-16.8-5.7c-5.9-4.5-9.7-11-10.7-18.4c-2-15.2,8.7-29.2,23.9-31.3
								c7.4-1,14.7,0.9,20.6,5.4c5.9,4.5,9.7,11,10.7,18.4l0,0c1,7.4-0.9,14.7-5.5,20.6c-4.5,5.9-11.1,9.7-18.4,10.7
								C294.5,229.9,293.2,230,292,230z M292.1,179.4c-1,0-2.1,0.1-3.1,0.2c-12.5,1.7-21.2,13.2-19.6,25.6c0.8,6,3.9,11.4,8.8,15.1
								c4.8,3.7,10.8,5.3,16.9,4.5c6-0.8,11.4-3.9,15.1-8.8c3.7-4.9,5.3-10.8,4.5-16.9l0,0c-0.8-6.1-3.9-11.4-8.8-15.1
								C301.9,181,297.1,179.4,292.1,179.4z"/>
						</g>
					</g>
				</g>
				<g id="Eye_11_">
					<g>
						<g>
							<path class="st8" d="M307.7,193c-0.5-4.1-4.3-6.9-8.4-6.4c-4.1,0.5-6.9,4.3-6.4,8.4c0.5,4.1,4.3,7,8.4,6.4
								C305.4,200.8,308.2,197.1,307.7,193z"/>
						</g>
					</g>
				</g>
				<g id="Eye_10_">
					<g>
						<g>
							<path class="st8" d="M289,196.1c-0.3-2-2.1-3.4-4.1-3.1c-2,0.3-3.4,2.1-3.1,4.1c0.3,2,2.1,3.4,4.1,3.1
								C287.9,200,289.3,198.1,289,196.1z"/>
						</g>
					</g>
				</g>
			</g>
			<g>
				<g id="Eye_9_">
					<g>
						<g>
							<path class="st6" d="M229.1,198.8c-1.9-13.9-14.6-23.6-28.5-21.7c-13.9,1.8-23.6,14.6-21.7,28.4
								c1.9,13.9,14.6,23.6,28.5,21.7C221.3,225.4,231,212.7,229.1,198.8z"/>
						</g>
					</g>
					<g>
						<g>
							<path class="st7" d="M204,230c-6.1,0-11.9-2-16.8-5.7c-5.9-4.5-9.7-11-10.7-18.4c-1-7.4,1-14.7,5.5-20.6
								c4.5-5.9,11-9.7,18.4-10.7c7.4-1,14.7,0.9,20.6,5.4c5.9,4.5,9.7,11,10.7,18.4c1,7.4-0.9,14.7-5.5,20.6
								c-4.5,5.9-11.1,9.7-18.4,10.7C206.5,229.9,205.2,230,204,230z M204.1,179.4c-1,0-2.1,0.1-3.1,0.2c-6,0.8-11.4,3.9-15.1,8.7
								c-3.7,4.8-5.3,10.8-4.5,16.9c0.8,6,3.9,11.4,8.8,15.1c4.8,3.7,10.8,5.3,16.9,4.5c6-0.8,11.4-3.9,15.1-8.8
								c3.7-4.9,5.3-10.8,4.5-16.9l0,0c-0.8-6.1-3.9-11.4-8.8-15.1C213.9,181,209.1,179.4,204.1,179.4z"/>
						</g>
					</g>
				</g>
				<g id="Eye_8_">
					<g>
						<g>
							<path class="st8" d="M219.7,193c-0.5-4.1-4.3-6.9-8.4-6.4c-4.1,0.5-6.9,4.3-6.4,8.4c0.5,4.1,4.3,7,8.4,6.4
								C217.4,200.8,220.3,197.1,219.7,193z"/>
						</g>
					</g>
				</g>
				<g id="Eye_7_">
					<g>
						<g>
							<path class="st8" d="M201,196.1c-0.3-2-2.1-3.4-4.1-3.1c-2,0.3-3.4,2.1-3.1,4.1c0.3,2,2.1,3.4,4.1,3.1
								C199.9,200,201.3,198.1,201,196.1z"/>
						</g>
					</g>
				</g>
			</g>
			<g class="st9">
				<path class="st1" d="M213.1,130.1c-5.3-7.7-21.2-6-35.7,3.8c-14.4,9.8-21.9,24-16.6,31.8c5.3,7.7,21.2,6,35.6-3.8
					C210.9,152.1,218.4,137.9,213.1,130.1z"/>
			</g>
			<g class="st9">
				<path class="st1" d="M228.2,123.2c0.7-2.8-1.1-5.7-4-6.4c-2.9-0.8-5.9,0.8-6.6,3.6c-0.7,2.8,1.1,5.6,4,6.4
					C224.4,127.6,227.4,125.9,228.2,123.2z"/>
			</g>
			<g class="st10">
				<path class="st6" d="M350.9,149.1c-3.8,91.3-79,164.2-171.3,164.2c-1.5,0-3.1-0.1-4.6-0.1c20.4,15.2,45.7,24.2,73.1,24.2
					c67.5,0,122.3-54.7,122.3-122.3C370.3,190.8,363.1,168.2,350.9,149.1z"/>
			</g>
		</g>
	</g>
</g>
</svg>
